<?xml version="1.0" encoding="utf-8"?>
<!-- Generated by IcoMoon.io -->
<!DOCTYPE svg PUBLIC "-//W3C//DTD SVG 1.1//EN" "http://www.w3.org/Graphics/SVG/1.1/DTD/svg11.dtd">
<svg version="1.1" xmlns="http://www.w3.org/2000/svg" xmlns:xlink="http://www.w3.org/1999/xlink" width="30" height="30" viewBox="0 0 30 30">
<path fill="#ffffff" d="M13.125 8.906c0-0.773 0.633-1.406 1.406-1.406h0.938c0.773 0 1.406 0.633 1.406 1.406v0.938c0 0.773-0.633 1.406-1.406 1.406h-0.938c-0.773 0-1.406-0.633-1.406-1.406v-0.938z"></path>
<path fill="#ffffff" d="M18.75 22.5h-7.5v-1.875h1.875v-5.625h-1.875v-1.875h5.625v7.5h1.875z"></path>
<path fill="#ffffff" d="M15 0c-8.284 0-15 6.716-15 15s6.716 15 15 15 15-6.716 15-15-6.716-15-15-15zM15 27.188c-6.731 0-12.188-5.457-12.188-12.188s5.457-12.188 12.188-12.188 12.188 5.457 12.188 12.188-5.457 12.188-12.188 12.188z"></path>
</svg>
