<?xml version="1.0" encoding="UTF-8" standalone="no"?>
<!-- Generator: Adobe Illustrator 16.0.0, SVG Export Plug-In . SVG Version: 6.00 Build 0)  -->
<!DOCTYPE svg  PUBLIC '-//W3C//DTD SVG 1.1//EN'  'http://www.w3.org/Graphics/SVG/1.1/DTD/svg11.dtd'>
<svg id="Capa_1" xmlns="http://www.w3.org/2000/svg" xml:space="preserve" height="319px" viewBox="0 0 165 319" width="165px" version="1.1" y="0px" x="0px" xmlns:xlink="http://www.w3.org/1999/xlink" enable-background="new 0 0 165 319">
	<path d="m109.99 159.26c-3.543-3.55-9.28-3.543-12.774 0.009-3.491 3.55-3.482 9.229 0.009 12.73l1.835 1.843c4.512 4.539 8.996 9.104 13.409 13.699 4.401 4.591 8.792 9.229 12.868 13.859 1 1.152 2.004 2.311 2.903 3.424l0.135 0.164-0.989 1.482c-3.375 4.89-7.319 9.927-11.254 14.86l-4.693 5.791 13.946 11.434 4.827-5.958c4.092-5.14 8.114-10.239 12.061-15.952l0.743-1.095 0.943-1.455c0.823-1.363 1.671-2.744 2.314-4.171 0.38-0.704 0.582-1.431 0.849-2.153 0.183-0.725 0.301-1.453 0.377-2.182l0.095-1.102 0.045-0.564c0.009-0.187-0.069-0.366-0.102-0.551-0.179-0.741-0.31-1.43-0.512-2.143l-0.366-1.053c-0.122-0.352-0.22-0.708-0.449-1.039-0.403-0.669-0.766-1.354-1.202-2.014l-1.415-1.938c-0.234-0.325-0.474-0.64-0.721-0.95l-0.634-0.78c-1.126-1.393-2.232-2.667-3.345-3.945-4.436-5.04-8.908-9.758-13.421-14.467-4.51-4.694-9.054-9.32-13.624-13.917l-1.87-1.87z" fill="#5F3255"/>
	<polygon points="111.44 227.13 114.5 223.37 128.52 234.7 125.38 238.56" fill="#906C8B"/>
	<path d="m61.954 171.99c3.504-3.49 3.534-9.171 0.051-12.731-3.481-3.562-9.22-3.589-12.774-0.051l-1.864 1.86c-4.559 4.554-9.092 9.138-13.594 13.787-4.504 4.657-8.971 9.334-13.401 14.302-1.109 1.248-2.216 2.52-3.334 3.863l-1.068 1.307c-0.487 0.609-0.951 1.271-1.429 1.901l-0.709 0.959-0.604 1c-0.397 0.667-0.836 1.325-1.026 2.034l-0.376 1.046-0.253 1.058c-0.138 0.705-0.44 1.44-0.302 2.19 0.101 1.462 0.249 2.918 0.844 4.357 0.577 1.433 1.296 2.848 2.112 4.224 0.196 0.35 0.392 0.696 0.597 1.026l0.494 0.794 0.716 1.122c3.804 5.804 7.688 10.948 11.643 16.155l4.692 6.064 14.199-11.119-4.563-5.896c-3.798-4.987-7.618-10.089-10.832-15.006l-0.722-1.134 0.461-0.561c0.93-1.116 1.923-2.263 2.941-3.409 4.096-4.592 8.474-9.184 12.874-13.732 4.409-4.553 8.883-9.075 13.384-13.576l1.843-1.83z" fill="#5F3255"/>
	<polygon points="32.369 238.26 29.314 234.33 43.594 223.31 46.568 227.14" fill="#906C8B"/>
	<path d="m103.85 156.37c-5.943-1.324-15.113-2.929-24.656-2.93-9.553 0-18.755 1.609-24.715 2.936-3.764 0.835-6.764 4.843-6.764 8.698v62.855h62.897v-62.855c0-3.86-3-7.87-6.76-8.71" fill="#51284A"/>
	<path d="m97.443 155.1c-5.286-0.906-11.681-1.666-18.251-1.667-6.587 0-13.006 0.763-18.312 1.675l17.611 22.462h1.338l17.614-22.46z" fill="#F4D897"/>
	<path d="m92.191 147.47l0.973 6.981s-5.989 7.244-14.001 7.244c-8.008 0-14.003-7.24-14.003-7.24l0.973-6.986h26.058z" fill="#F4D897"/>
	<polygon points="63.109 165.7 56.69 173.43 51.429 165.7 57.853 157.97" fill="#906C8B"/>
	<polygon points="106.9 165.7 101.64 173.43 95.212 165.7 100.47 157.97" fill="#906C8B"/>
	<polygon points="78.091 183.43 71.672 191.15 65.249 183.43 70.509 175.7" fill="#906C8B"/>
	<polygon points="63.109 183.43 56.69 191.15 51.429 183.43 56.69 175.7" fill="#906C8B"/>
	<polygon points="93.075 183.43 86.653 191.15 80.229 183.43 87.817 175.7" fill="#906C8B"/>
	<polygon points="106.9 183.43 101.64 191.15 95.212 183.43 101.64 175.7" fill="#906C8B"/>
	<polygon points="78.091 201.16 71.672 208.88 65.249 201.16 71.672 193.43" fill="#906C8B"/>
	<polygon points="63.109 201.16 56.69 208.88 51.429 201.16 56.69 193.43" fill="#906C8B"/>
	<polygon points="93.075 201.16 86.653 208.88 80.229 201.16 86.653 193.43" fill="#906C8B"/>
	<polygon points="106.9 201.16 101.64 208.88 95.212 201.16 101.64 193.43" fill="#906C8B"/>
	<polygon points="78.091 218.89 71.672 226.62 65.249 218.89 71.672 211.16" fill="#906C8B"/>
	<polygon points="63.109 218.89 56.69 226.62 51.429 218.89 56.69 211.16" fill="#906C8B"/>
	<polygon points="93.075 218.89 86.653 226.62 80.229 218.89 86.653 211.16" fill="#906C8B"/>
	<polygon points="106.9 218.89 101.64 226.62 95.212 218.89 101.64 211.16" fill="#906C8B"/>
	<path d="m115.81 304.3l-5.195-76.367h-62.907l-4.352 76.367 25.572 4.173 3.884-61.909c0.161-2.566 2.374-4.646 4.944-4.646h3.568c2.57 0 4.786 2.079 4.95 4.645l3.958 61.91 25.573-4.17z" fill="#5B9BA7"/>
	<path d="m124.51 239.62l0.874-1.063-13.946-11.433-0.852 1.037c-3.12 3.794-2.603 9.43 1.19 12.655 3.8 3.23 9.53 2.7 12.74-1.2" fill="#F4D897"/>
	<path d="m47.395 228.19l-0.827-1.055-14.198 11.12 0.848 1.081c3.117 3.967 8.841 4.622 12.707 1.48 3.863-3.14 4.504-8.76 1.47-12.63" fill="#F4D897"/>
	<polygon points="68.932 313.25 40.954 313.25 40.954 308.58 43.361 304.3 68.932 308.47" fill="#693B19"/>
	<polygon points="90.236 313.25 118.21 313.25 118.21 308.58 115.81 304.3 90.236 308.47" fill="#693B19"/>
	<path d="m92.178 150.93s-4.155 2.021-13.093 2.021-13.19-2.038-13.19-2.038 7.071-1.486 13.19-1.486c6.118 0.01 13.093 1.51 13.093 1.51" fill="#DFC382"/>
	<path d="m43.965 108c0 5.789-3.695 10.481-8.252 10.481-4.558 0-8.253-4.692-8.253-10.481 0-5.788 3.695-10.48 8.253-10.48 4.558 0.001 8.252 4.69 8.252 10.48" fill="#F4D897"/>
	<path d="m130.71 108c0 5.789-3.695 10.481-8.253 10.481-4.557 0-8.252-4.692-8.252-10.481 0-5.788 3.695-10.48 8.252-10.48 4.55 0.001 8.25 4.69 8.25 10.48" fill="#F4D897"/>
	<path d="m121.9 77.828c0-19.92-16.146-36.067-36.065-36.067h-14.614c-19.917 0-36.066 16.147-36.066 36.067v38.093c0 19.918 16.149 36.067 36.066 36.067h14.613c19.919 0 36.065-16.149 36.065-36.067v-38.092z" fill="#F4D897"/>
	<path d="m61.586 119c-0.964 0-1.747-0.781-1.747-1.745v-1.949c0-1.517-1.232-2.751-2.75-2.751-1.515 0-2.746 1.235-2.746 2.751v1.949c0 0.964-0.782 1.745-1.745 1.745-0.964 0-1.746-0.781-1.746-1.745v-1.949c0-3.441 2.798-6.24 6.237-6.24 3.442 0 6.239 2.799 6.239 6.24v1.949c0.001 0.96-0.778 1.74-1.742 1.74" fill="#3E2019"/>
	<path d="m105.73 119c-0.964 0-1.746-0.781-1.746-1.745v-1.949c0-1.517-1.232-2.751-2.749-2.751-1.516 0-2.749 1.235-2.749 2.751v1.949c0 0.964-0.781 1.745-1.746 1.745-0.963 0-1.744-0.781-1.744-1.745v-1.949c0-3.441 2.799-6.24 6.239-6.24 3.442 0 6.241 2.799 6.241 6.24v1.949c0 0.96-0.78 1.74-1.74 1.74" fill="#3E2019"/>
	<path d="m79.16 143.91c-12.776 0-17.505-5.007-17.7-5.22-0.649-0.711-0.599-1.814 0.113-2.465 0.705-0.647 1.799-0.601 2.45 0.096 0.097 0.099 4.146 4.099 15.137 4.099 11.064 0 15.1-4.061 15.141-4.101 0.663-0.69 1.763-0.726 2.459-0.072 0.696 0.655 0.744 1.739 0.101 2.443-0.198 0.21-4.933 5.22-17.701 5.22" fill="#836C5A"/>
	<g opacity=".1">
			<defs>
				<rect id="SVGID_1_" y="49.388" x="29.694" height="22.668" width="18.205"/>
			</defs>
			<clipPath id="SVGID_2_">
				<use overflow="visible" xlink:href="#SVGID_1_"/>
			</clipPath>
			<path fill="#fff" d="m34.168 49.393s-2.997 0.268-3.301 3.831c0 0 2.259-1.973 4.649-0.4 0 0-4.345 0.783-5.822 4.617 0 0 2.085-1.458 4.779-0.135 0 0-3.149 0.65-3.149 5.268 0 0 1.955-1.975 4.193-1.858 0 0-2.542 3.047-1.194 5.403 0 0 1.042 3.161-0.762 5.939 0 0 4.78-3.564 4.78-5.271 0 0 4.345-4.998 9.558-6.188 0 0-4.018 0.116-7.32 1.573 0 0 0.912-3.543 3.148-4.597 0 0-3.583-0.405-5.234 1.303 0 0-1.347-1.571 0.89-2.242 0 0-2.086-0.653-2.823 0.134 0 0-0.154-2.758 2.823-1.571 0 0-0.738-1.592-3.563-1.053 0 0 0.434-2.242 2.084-1.975 0-0.001-0.455-2.913-3.736-2.778" clip-path="url(#SVGID_2_)"/>
	</g>
	<g opacity=".1">
			<defs>
				<rect id="SVGID_3_" y="3.702" x="48.093" height="52.55" width="69.448"/>
			</defs>
			<clipPath id="SVGID_4_">
				<use overflow="visible" xlink:href="#SVGID_3_"/>
			</clipPath>
			<path fill="#fff" d="m98.12 56.252s12.382-0.402 16.727-8.047c0 0 2.389-4.75 2.694-10.959-1.369-0.363-2.392-0.363-2.392-0.363-1.194-8.428-8.362-7.509-8.362-7.509 0.585-4.733-1.044-7.625-1.044-7.625-2.691 2.489-8.232 1.437-8.232 1.437 1.957-3.027 0.458-6.188 0.458-6.188-1.63 4.082-9.102 6.32-9.102 6.32 0.738-1.053 0.282-3.811 0.282-3.811-1.043 3.027-5.974 3.678-5.974 3.678 0.76-4.349 4.778-6.591 4.778-6.591-3.28 0.94-10.449 6.723-10.449 6.723 2.694-4.749 11.208-9.211 11.208-9.211-7.166 1.186-12.991 6.836-12.991 6.836-0.304-4.08 6.561-8.812 6.561-8.812-3.431 0.518-7.169 3.678-7.169 3.678 2.695-3.812 7.169-6.322 7.169-6.322-5.519 1.973-17.313 9.483-17.313 9.483 4.475-5.786 9.405-8.698 9.405-8.698-3.518 0.748-6.798 2.931-8.776 4.503 2.499-3.372-0.043-8.046-0.043-8.046 0.89 3.025-2.693 5.919-2.693 5.919s-0.737 3.811 0-0.518c0.76-4.349-1.629-8.43-1.629-8.43 1.781 9.483-7.625 18.697-7.625 18.697 1.933-3.428 0.89-7.912 0.89-7.912-0.436 1.858-2.238 7.126-5.213 10.404-0.455 0.516-0.868 1.149-1.195 1.838 0.022 2.682 0.195 6.993 0.89 8.314 0 0 0.305-4.482 1.935-5.805 0 0-1.629 2.779 0.303 5.805 0 0 1.934-4.751 4.193-5.938 0 0-1.803 4.482-0.608 6.59 0 0 1.783-5.653 5.67-6.975 0 0-1.194 1.706-0.586 3.027 0 0 5.366-5.402 8.949-7.107 0 0-9.405 8.7-8.058 12.376 0 0 5.974-9.616 12.837-11.858 0 0-1.781 8.833-7.451 12.644 0 0 4.931-2.375 11.493-0.785 0 0-1.195 4.349-6.562 6.725 0 0 5.063 0.247 6.864-1.323 0 0 0.742 2.241-3.43 4.616 0 0 7.603 1.304 12.229-4.214 0 0 3.303-2.644 4.346-6.208 0 0 2.822 6.208-0.892 10.94 0 0 9.56-0.651 10.602-8.428 0 0 1.195 4.864-2.238 9.751 0 0 5.519 1.187 8.058-2.778-0.01 0.003-3.89 7.128-8.52 10.157" clip-path="url(#SVGID_4_)"/>
	</g>
	<path d="m151.5 55.026c-7.973 2.708-14.638-2.963-14.638-2.963-1.115-6.539-3.547-11.455-6.144-15.046-1.174-23.488-24.538-19.446-24.538-19.446-14.417-13.182-26.844-5.384-26.844-5.384-56.637-4.857-61.816 39.15-61.816 39.15-8.649 13.192-3.413 26.982-3.413 26.982-0.926 6.484 3.824 11.3 3.824 11.3 1.22 4.863 6.203 8.705 6.203 8.705 3.715 2.788 5.011 7.239 5.011 7.239-1.139 5.035 3.221 7.458 3.221 7.458 1.001 0.434 3.393 3.365 3.393 3.365-0.771-3.748 5.852-28.417 5.852-28.417 4.083-23.062 28.36-26.498 28.36-26.498-2.918 5.254-5.065 10.11-6.589 14.608 8.348-11.876 13.62-13.7 13.62-13.7 7.584-6.6 14.578-4.617 14.578-4.617 7.36 5.136 16.769 2.318 16.769 2.318-5.217 4.42-13.917 3.636-13.917 3.636 8.391 6.25 17.612 4.149 17.612 4.149 1.26 7.491-7.853 14.327-7.853 14.327 11.556-3.209 13.313-11.878 13.313-11.878-0.206 6.898-7.363 10.972-7.363 10.972 4.211 1.585 5.525-0.171 5.525-0.171 6.249 9.975 5.047 26.194 5.047 26.194-1.563 8.401 1.306 4.874 1.306 4.874 1.029-2.432 9.548-10.897 9.548-10.897 14.104-14.294 9.547-40.29 9.547-40.29 8.36-0.834 10.38-5.954 10.38-5.954m-29.82-26.267c5.701 1.604 8.004 5.983 8.76 7.894-4.22-5.658-8.76-7.894-8.76-7.894" fill="#BA822F"/>
	<path d="m151.5 55.026c-7.973 2.708-14.638-2.963-14.638-2.963-1.127-6.528-3.556-11.449-6.146-15.041-1.142-23.504-24.535-19.452-24.535-19.452-14.439-13.18-26.844-5.384-26.844-5.384-56.637-4.856-61.816 39.151-61.816 39.151-0.312 0.469-0.622 0.957-0.889 1.424 4.415-2.683 9.554-6.377 10.166-9.223 1.073-5.054 11.059-16.453 20.018-15.686 0 0-11.245 7.455-13.507 19.244 0 0 17.093-16.195 33.827-14.339 0 0-15.083 4.188-22.482 14.696 0 0 10.497-7.654 16.72-4.796 0 0 14.529 7.946 24.498-3.686 0 0 4.256-10.745 17.125-5.76 0 0 4.605-6.267-9.233-14.498 0 0 10.349 3.279 14.489 13.876 0 0-2.427-6.94-7.592-11.769 0 0 7.798 4.866 9.263 11.648 0 0 2.091-4.426-3.264-11.618 0 0 10.43 10.856 4.104 19.84 0 0 3.92-2.411 4.435-8.609 0 0 8.45 13.828-9.273 24.627 0 0 5.445-0.995 9.403-4.644-1.1-0.299-1.86-0.669-1.86-0.669 0.979 0.123 1.817 0.102 2.545 0.005 1.84-1.944 3.242-4.552 3.377-8.005 0 0 2.64 7.18-3.377 8.005-0.221 0.229-0.441 0.456-0.685 0.665 2.396 0.654 6.41 0.998 7.567-3.487 0 0 5.216 5.548-2.324 14.153 0 0 8.213 0.587 10.925-5.048 0 0 5.033 1.011 9.673 22.263 1.497-10.164-0.054-18.953-0.054-18.953 8.34-0.847 10.36-5.967 10.36-5.967m-29.82-26.267c5.636 1.584 7.956 5.896 8.723 7.839-4.2-5.62-8.72-7.839-8.72-7.839" fill="#E4AF66"/>
	<g opacity=".5">
			<defs>
				<rect id="SVGID_5_" y="101.7" x="35.39" height="30.68" width="85.608"/>
			</defs>
			<clipPath id="SVGID_6_">
				<use overflow="visible" xlink:href="#SVGID_5_"/>
			</clipPath>
			<path fill="#CACACA" d="m35.389 105.66l2.474 15.34 4.453 8.809 7.918 2.573 7.325-0.792 8.413-2.079 5.246-9.6 4.65-10.689 5.741-0.594 2.474 6.235 5.74 12.272 2.177 2.88 8.909 1.386 9.302 0.296 7.324-5.148 2.374-6.234 1.089-11.975-1.881-3.859-17.121-2.178-8.214 0.594s-8.808 2.276-8.907 2.572c-0.101 0.297-2.276 1.683-2.276 1.683l-6.334-0.098-5.741-2.277-9.799-3.067-17.023 1.978-8.307 1.99z" clip-path="url(#SVGID_6_)"/>
	</g>
	<path d="m117.37 103.08c-5.676-0.312-18.053-0.565-23.541-0.054s-6.602 0.892-7.455 1.553c-0.854 0.659-1.232 1.671-2.79 1.907-1.4 0.213-4.248 0.472-4.811 0.521-0.566-0.049-3.414-0.308-4.811-0.521-1.559-0.236-1.938-1.248-2.793-1.907-0.855-0.662-1.965-1.042-7.455-1.553s-17.864-0.257-23.539 0.054-9.743 1.926-9.743 1.926l0.314 7.057s0.697 0.317 1.822 0.594c1.126 0.277 3.578 9.356 5.321 13.972 1.745 4.616 4.346 6.39 8.404 7.641 8.154 1.551 15.996-0.451 18.365-1.367 2.368-0.914 4.023-3.427 5.621-6.265 1.595-2.838 4.52-10.255 5.443-12.133 0.678-1.387 2.265-1.884 3.049-2.048 0.784 0.165 2.368 0.661 3.048 2.048 0.92 1.877 3.846 9.294 5.443 12.133 1.598 2.838 3.252 5.351 5.62 6.265 2.369 0.917 10.211 2.918 18.364 1.367 4.059-1.251 6.66-3.025 8.403-7.641 1.744-4.616 4.194-13.695 5.32-13.972 1.129-0.276 1.823-0.594 1.823-0.594l0.313-7.057c0.01 0-4.05-1.62-9.73-1.93m-46.213 16.37c-1.677 5.479-3.357 9.58-6.581 11.218-3.22 1.638-15.435 4.462-21.057 0.216-1.113-0.848-4.345-4.269-4.932-10.94-0.582-6.672-1.248-10.21 2.689-12.102 0 0 7.836-2.696 14.095-2.673 7.071 0.029 13.308 1.163 14.719 3.075 1.41 1.89 3.069 4.27 1.067 11.19m47.803 0.49c-0.585 6.671-3.819 10.092-4.931 10.94-5.623 4.247-17.84 1.422-21.059-0.216-3.222-1.638-4.901-5.738-6.579-11.218-2.003-6.919-0.345-9.293 1.066-11.206 1.409-1.912 7.647-3.046 14.722-3.075 6.256-0.023 14.093 2.673 14.093 2.673 3.94 1.9 3.28 5.44 2.69 12.11" fill="#361C58"/>
</svg>
