<?xml version="1.0" encoding="UTF-8" standalone="no"?>
<!-- Generator: Adobe Illustrator 17.0.0, SVG Export Plug-In . SVG Version: 6.00 Build 0)  -->
<!DOCTYPE svg  PUBLIC '-//W3C//DTD SVG 1.1//EN'  'http://www.w3.org/Graphics/SVG/1.1/DTD/svg11.dtd'>
<svg id="Capa_1" xmlns="http://www.w3.org/2000/svg" xml:space="preserve" height="780px" viewBox="0 0 1096 780" width="1096px" version="1.1" y="0px" x="0px" xmlns:xlink="http://www.w3.org/1999/xlink" enable-background="new 0 0 1096 780">
<path fill="#B2B2B2" clip-rule="evenodd" d="m812.38 359.25h-20.669c-4.004 0-7.278 3.275-7.278 7.278v35.683c0 4.003 3.275 7.278 7.278 7.278h20.669c4.004 0 7.278-3.275 7.278-7.278v-35.683c0-4.01-3.27-7.28-7.28-7.28z" fill-rule="evenodd"/>
<path fill="#fff" clip-rule="evenodd" d="m817.05 363.46h-30.011c-0.059 0-0.107 0.047-0.107 0.106v41.18c0 0.059 0.048 0.107 0.107 0.107h30.011c0.059 0 0.107-0.048 0.107-0.107v-41.18c0-0.06-0.05-0.11-0.11-0.11z" fill-rule="evenodd"/>
<path fill="#F0E5C9" clip-rule="evenodd" d="m805.91 360.49h-7.728c-0.21 0-0.381 0.171-0.381 0.38v0.001c0 0.21 0.171 0.38 0.381 0.38h7.728c0.21 0 0.381-0.171 0.381-0.38v-0.001c0-0.21-0.17-0.38-0.38-0.38z" fill-rule="evenodd"/>
<circle fill-rule="evenodd" cy="407.1" cx="802.05" clip-rule="evenodd" r="1.288" fill="#F0E5C9"/>
<rect fill-rule="evenodd" height=".453" width="2.133" clip-rule="evenodd" y="367.06" x="805.29" fill="#DAD3B4"/>
<rect fill-rule="evenodd" height=".453" width="2.133" clip-rule="evenodd" y="367.06" x="808.15" fill="#DAD3B4"/>
<rect fill-rule="evenodd" height=".453" width="2.133" clip-rule="evenodd" y="367.06" x="811.01" fill="#DAD3B4"/>
<rect fill-rule="evenodd" height=".453" width="2.133" clip-rule="evenodd" y="367.06" x="813.87" fill="#DAD3B4"/>
<rect fill-rule="evenodd" height="1.983" width="11.597" clip-rule="evenodd" y="367.06" x="788.56" fill="#D0AE56"/>
<circle fill-rule="evenodd" cy="375.84" cx="815.76" clip-rule="evenodd" r=".247" fill="#272324"/>
<circle fill-rule="evenodd" cy="375.84" cx="814.44" clip-rule="evenodd" r=".247" fill="#EBC562"/>
<circle fill-rule="evenodd" cy="375.84" cx="813.12" clip-rule="evenodd" r=".247" fill="#D0AE56"/>
<circle fill-rule="evenodd" cy="375.84" cx="811.81" clip-rule="evenodd" r=".247" fill="#DAD3B4"/>
<circle fill-rule="evenodd" cy="375.84" cx="810.49" clip-rule="evenodd" r=".247" fill="#E8D6BA"/>
<rect fill-rule="evenodd" height=".453" width="27.451" clip-rule="evenodd" y="376.45" x="788.56" fill="#D0AE56"/>
<rect fill-rule="evenodd" height="3.342" width="8.325" clip-rule="evenodd" y="377.7" x="788.56" fill="#DAD3B4"/>
<rect fill-rule="evenodd" height="3.342" width="8.324" clip-rule="evenodd" y="377.7" x="798.12" fill="#D0AE56"/>
<rect fill-rule="evenodd" height="3.342" width="8.325" clip-rule="evenodd" y="377.7" x="807.68" fill="#E8D6BA"/>
<rect fill-rule="evenodd" height="5.466" width="27.451" clip-rule="evenodd" y="369.75" x="788.56" fill="#E8D6BA"/>
<g clip-rule="evenodd" fill-rule="evenodd">
	<polygon points="795.62 369.75 797.38 369.75 799.89 375.21 798.13 375.21" fill="#D0AE56"/>
	<polygon points="796.5 369.75 798.26 369.75 800.77 375.21 799.01 375.21" fill="#EBC562"/>
	<polygon points="797.7 369.75 799.46 369.75 801.97 375.21 800.21 375.21" fill="#DAD3B4"/>
	<polygon points="799.32 369.75 801.08 369.75 803.58 375.21 801.82 375.21" fill="#CBCBCB"/>
	<polygon points="800.2 369.75 801.95 369.75 804.46 375.21 802.7 375.21" fill="#272324"/>
	<polygon points="801.38 369.75 803.14 369.75 805.65 375.21 803.89 375.21" fill="#E8D6BA"/>
	<polygon points="802.61 369.75 804.37 369.75 806.87 375.21 805.11 375.21" fill="#DAD3B4"/>
	<polygon points="804 369.75 805.76 369.75 808.26 375.21 806.5 375.21" fill="#EBC562"/>
	<polygon points="788.56 372.13 789.97 375.21 788.56 375.21" fill="#D0AE56"/>
	<polygon points="788.56 370.21 790.85 375.21 789.09 375.21 788.56 374.06" fill="#EBC562"/>
	<polygon points="788.56 369.75 789.54 369.75 792.05 375.21 790.29 375.21 788.56 371.43" fill="#DAD3B4"/>
	<polygon points="789.4 369.75 791.16 369.75 793.66 375.21 791.9 375.21" fill="#CBCBCB"/>
	<polygon points="790.28 369.75 792.04 369.75 794.54 375.21 792.78 375.21" fill="#272324"/>
	<polygon points="791.46 369.75 793.22 369.75 795.73 375.21 793.97 375.21" fill="#E8D6BA"/>
	<polygon points="792.69 369.75 794.45 369.75 796.95 375.21 795.19 375.21" fill="#DAD3B4"/>
	<polygon points="794.08 369.75 795.84 369.75 798.34 375.21 796.58 375.21" fill="#EBC562"/>
	<polygon points="814.79 369.75 816.01 369.75 816.01 372.4" fill="#D0AE56"/>
	<polygon points="815.67 369.75 816.01 369.75 816.01 370.48" fill="#EBC562"/>
	<polygon points="804.87 369.75 806.63 369.75 809.13 375.21 807.37 375.21" fill="#D0AE56"/>
	<polygon points="805.75 369.75 807.51 369.75 810.01 375.21 808.25 375.21" fill="#EBC562"/>
	<polygon points="806.95 369.75 808.71 369.75 811.21 375.21 809.45 375.21" fill="#DAD3B4"/>
	<polygon points="808.56 369.75 810.32 369.75 812.82 375.21 811.06 375.21" fill="#CBCBCB"/>
	<polygon points="809.44 369.75 811.2 369.75 813.7 375.21 811.94 375.21" fill="#272324"/>
	<polygon points="810.63 369.75 812.39 369.75 814.89 375.21 813.13 375.21" fill="#E8D6BA"/>
	<polygon points="811.86 369.75 813.62 369.75 816.01 374.96 816.01 375.21 814.36 375.21" fill="#DAD3B4"/>
	<polygon points="813.24 369.75 815 369.75 816.01 371.94 816.01 375.21 815.75 375.21" fill="#EBC562"/>
</g>
<g fill-rule="evenodd" clip-rule="evenodd" fill="#F0E5C9">
	<rect height=".521" width="8.325" y="382.17" x="788.56"/>
	<rect height=".521" width="8.325" y="383.32" x="788.56"/>
	<rect height=".521" width="8.325" y="384.46" x="788.56"/>
	<rect height=".521" width="8.325" y="385.61" x="788.56"/>
	<rect height=".521" width="5.863" y="386.76" x="788.56"/>
	<rect height=".521" width="8.325" y="387.9" x="788.56"/>
	<rect height=".521" width="8.325" y="389.05" x="788.56"/>
	<rect height=".521" width="8.325" y="390.2" x="788.56"/>
	<rect height=".521" width="8.325" y="391.34" x="788.56"/>
	<rect height=".521" width="5.343" y="392.49" x="788.56"/>
</g>
<g fill-rule="evenodd" clip-rule="evenodd" fill="#F0E5C9">
	<rect height=".521" width="8.324" y="382.17" x="798.12"/>
	<rect height=".521" width="8.324" y="383.32" x="798.12"/>
	<rect height=".521" width="4.162" y="384.46" x="798.12"/>
	<rect height=".521" width="8.324" y="385.61" x="798.12"/>
	<rect height=".521" width="8.324" y="386.76" x="798.12"/>
	<rect height=".521" width="8.324" y="387.9" x="798.12"/>
	<rect height=".521" width="8.324" y="389.05" x="798.12"/>
	<rect height=".521" width="8.324" y="390.2" x="798.12"/>
	<rect height=".521" width="8.324" y="391.34" x="798.12"/>
	<rect height=".521" width="5.342" y="392.49" x="798.12"/>
</g>
<g fill-rule="evenodd" clip-rule="evenodd" fill="#F0E5C9">
	<rect height=".521" width="8.325" y="382.17" x="807.68"/>
	<rect height=".521" width="8.325" y="383.32" x="807.68"/>
	<rect height=".521" width="8.325" y="384.46" x="807.68"/>
	<rect height=".521" width="8.325" y="385.61" x="807.68"/>
	<rect height=".521" width="8.325" y="386.76" x="807.68"/>
	<rect height=".521" width="8.325" y="387.9" x="807.68"/>
	<rect height=".521" width="5.023" y="389.05" x="807.68"/>
	<rect height=".521" width="8.325" y="390.2" x="807.68"/>
	<rect height=".521" width="8.325" y="391.34" x="807.68"/>
	<rect height=".521" width="3.104" y="392.49" x="807.68"/>
</g>
<rect fill-rule="evenodd" height=".453" width="27.451" clip-rule="evenodd" y="394.54" x="788.56" fill="#D0AE56"/>
<rect fill-rule="evenodd" height="6.035" width="3.73" clip-rule="evenodd" y="396.05" x="788.56" fill="#DAD3B4"/>
<g fill-rule="evenodd" clip-rule="evenodd" fill="#F0E5C9">
	<rect height=".521" width="4.206" y="396.51" x="793.08"/>
	<rect height=".521" width="4.206" y="397.66" x="793.08"/>
	<rect height=".521" width="4.206" y="398.8" x="793.08"/>
	<rect height=".521" width="4.206" y="399.95" x="793.08"/>
	<rect height=".521" width="2.962" y="401.1" x="793.08"/>
</g>
<rect fill-rule="evenodd" height="6.035" width="3.73" clip-rule="evenodd" y="396.05" x="797.92" fill="#D0AE56"/>
<g fill-rule="evenodd" clip-rule="evenodd" fill="#F0E5C9">
	<rect height=".521" width="4.205" y="396.51" x="802.44"/>
	<rect height=".521" width="4.205" y="397.66" x="802.44"/>
	<rect height=".521" width="4.205" y="398.8" x="802.44"/>
	<rect height=".521" width="4.205" y="399.95" x="802.44"/>
	<rect height=".521" width="2.962" y="401.1" x="802.44"/>
</g>
<rect fill-rule="evenodd" height="6.035" width="3.73" clip-rule="evenodd" y="396.05" x="807.27" fill="#E8D6BA"/>
<g fill-rule="evenodd" clip-rule="evenodd" fill="#F0E5C9">
	<rect height=".521" width="4.206" y="396.51" x="811.8"/>
	<rect height=".521" width="4.206" y="397.66" x="811.8"/>
	<rect height=".521" width="4.206" y="398.8" x="811.8"/>
	<rect height=".521" width="4.206" y="399.95" x="811.8"/>
	<rect height=".521" width="2.962" y="401.1" x="811.8"/>
</g>
<rect fill-rule="evenodd" height="12.813" width="755.02" clip-rule="evenodd" y="523.3" x="171.8" fill="#6F7273"/>
<polygon points="531.48 493.02 567.14 493.02 583.86 523.3 514.76 523.3" fill="#AAACAD" clip-rule="evenodd" fill-rule="evenodd"/>
<polygon points="531.48 493.02 567.14 493.02 580.03 516.37 518.59 516.37" fill="#8C8E8F" clip-rule="evenodd" fill-rule="evenodd"/>
<polygon points="531.48 493.02 567.14 493.02 577.02 510.9 521.61 510.9" fill="#6F7273" clip-rule="evenodd" fill-rule="evenodd"/>
<polygon points="531.48 493.02 567.14 493.02 573.84 505.14 524.79 505.14" fill="#545657" clip-rule="evenodd" fill-rule="evenodd"/>
<path fill="#6F7273" clip-rule="evenodd" d="m465.28 392.04h168.07c4.731 0 8.599 3.869 8.599 8.599v91.46c0 4.73-3.868 8.6-8.599 8.6h-168.07c-4.729 0-8.599-3.869-8.599-8.6v-91.462c0-4.73 3.87-8.6 8.6-8.6z" fill-rule="evenodd"/>
<rect fill-rule="evenodd" height="88.289" width="173.85" clip-rule="evenodd" y="397.05" x="462.38" fill="#F5F5F5"/>
<rect fill-rule="evenodd" height="2.348" width="11.055" clip-rule="evenodd" y="405.85" x="564.89" fill="#839054"/>
<rect fill-rule="evenodd" height="2.348" width="11.054" clip-rule="evenodd" y="405.85" x="579.73" fill="#839054"/>
<rect fill-rule="evenodd" height="2.348" width="11.053" clip-rule="evenodd" y="405.85" x="594.57" fill="#839054"/>
<rect fill-rule="evenodd" height="2.348" width="11.055" clip-rule="evenodd" y="405.85" x="609.4" fill="#839054"/>
<rect fill-rule="evenodd" height="10.276" width="60.107" clip-rule="evenodd" y="405.85" x="478.17" fill="#A6CDD3"/>
<circle fill-rule="evenodd" cy="451.38" cx="619.18" clip-rule="evenodd" r="1.281" fill="#9EA851"/>
<circle fill-rule="evenodd" cy="451.38" cx="612.34" clip-rule="evenodd" r="1.281" fill="#DBCBA4"/>
<path fill="#A6CDD3" clip-rule="evenodd" d="m605.51 452.66c0.707 0 1.282-0.576 1.282-1.281 0-0.706-0.575-1.281-1.282-1.281-0.705 0-1.28 0.575-1.28 1.281 0 0.71 0.58 1.28 1.28 1.28z" fill-rule="evenodd"/>
<circle fill-rule="evenodd" cy="451.38" cx="598.68" clip-rule="evenodd" r="1.281" fill="#839054"/>
<path fill="#EBC562" clip-rule="evenodd" d="m591.85 452.66c0.705 0 1.281-0.576 1.281-1.281 0-0.706-0.576-1.281-1.281-1.281-0.704 0-1.282 0.575-1.282 1.281 0 0.71 0.57 1.28 1.28 1.28z" fill-rule="evenodd"/>
<rect fill-rule="evenodd" height="2.349" width="142.28" clip-rule="evenodd" y="454.56" x="478.17" fill="#A6CDD3"/>
<rect fill-rule="evenodd" height="17.321" width="43.149" clip-rule="evenodd" y="461.02" x="478.17" fill="#839054"/>
<rect fill-rule="evenodd" height="17.322" width="43.148" clip-rule="evenodd" y="461.02" x="527.74" fill="#A6CDD3"/>
<rect fill-rule="evenodd" height="17.322" width="43.15" clip-rule="evenodd" y="461.02" x="577.31" fill="#EBC562"/>
<rect fill-rule="evenodd" height="28.332" width="142.28" clip-rule="evenodd" y="419.8" x="478.17" fill="#EBC562"/>
<g clip-rule="evenodd" fill-rule="evenodd">
	<polygon points="514.8 419.8 523.92 419.8 536.9 448.13 527.78 448.13" fill="#A6CDD3"/>
	<polygon points="519.36 419.8 528.48 419.8 541.46 448.13 532.34 448.13" fill="#DBCBA4"/>
	<polygon points="525.58 419.8 534.7 419.8 547.68 448.13 538.56 448.13" fill="#839054"/>
	<polygon points="533.94 419.8 543.06 419.8 556.04 448.13 546.92 448.13" fill="#98827C"/>
	<polygon points="538.5 419.8 547.62 419.8 560.6 448.13 551.48 448.13" fill="#9EA851"/>
	<polygon points="544.66 419.8 553.78 419.8 566.75 448.13 557.64 448.13" fill="#EBC562"/>
	<polygon points="551.02 419.8 560.14 419.8 573.11 448.13 563.99 448.13" fill="#839054"/>
	<polygon points="558.21 419.8 567.33 419.8 580.3 448.13 571.18 448.13" fill="#DBCBA4"/>
	<polygon points="478.17 432.17 485.48 448.13 478.17 448.13" fill="#A6CDD3"/>
	<polygon points="478.17 422.21 490.04 448.13 480.92 448.13 478.17 442.13" fill="#DBCBA4"/>
	<polygon points="478.17 419.8 483.29 419.8 496.26 448.13 487.14 448.13 478.17 428.54" fill="#839054"/>
	<polygon points="482.52 419.8 491.64 419.8 504.62 448.13 495.5 448.13" fill="#98827C"/>
	<polygon points="487.08 419.8 496.2 419.8 509.18 448.13 500.06 448.13" fill="#9EA851"/>
	<polygon points="493.24 419.8 502.36 419.8 515.34 448.13 506.22 448.13" fill="#EBC562"/>
	<polygon points="499.6 419.8 508.72 419.8 521.7 448.13 512.58 448.13" fill="#839054"/>
	<polygon points="506.79 419.8 515.91 419.8 528.88 448.13 519.76 448.13" fill="#DBCBA4"/>
	<polygon points="614.15 419.8 620.46 419.8 620.46 433.57" fill="#A6CDD3"/>
	<polygon points="618.71 419.8 620.46 419.8 620.46 423.61" fill="#DBCBA4"/>
	<polygon points="562.73 419.8 571.85 419.8 584.83 448.13 575.71 448.13" fill="#A6CDD3"/>
	<polygon points="567.29 419.8 576.41 419.8 589.39 448.13 580.27 448.13" fill="#DBCBA4"/>
	<polygon points="573.52 419.8 582.64 419.8 595.61 448.13 586.49 448.13" fill="#839054"/>
	<polygon points="581.87 419.8 590.99 419.8 603.96 448.13 594.85 448.13" fill="#98827C"/>
	<polygon points="586.43 419.8 595.55 419.8 608.53 448.13 599.4 448.13" fill="#9EA851"/>
	<polygon points="592.59 419.8 601.71 419.8 614.68 448.13 605.56 448.13" fill="#EBC562"/>
	<polygon points="598.95 419.8 608.07 419.8 620.46 446.85 620.46 448.13 611.92 448.13" fill="#839054"/>
	<polygon points="606.14 419.8 615.26 419.8 620.46 431.15 620.46 448.13 619.11 448.13" fill="#DBCBA4"/>
</g>
<circle fill-rule="evenodd" cy="493.1" cx="631.5" clip-rule="evenodd" r="1.117" fill="#8C8E8F"/>
<circle fill-rule="evenodd" cy="493.1" cx="627.15" clip-rule="evenodd" r="1.117" fill="#8C8E8F"/>
<circle fill-rule="evenodd" cy="493.1" cx="622.79" clip-rule="evenodd" r="1.117" fill="#8C8E8F"/>
<g fill-rule="evenodd" clip-rule="evenodd" fill="#6F7273">
	<rect height="122.83" width="12.8" y="540.66" x="171.8"/>
	<rect height="21.845" width="6.463" y="528.23" x="174.97"/>
</g>
<g clip-rule="evenodd" fill-rule="evenodd">
	<rect height="59.146" width="69.289" y="540.66" x="857.53" fill="#6F7273"/>
	<rect height="3.166" width="30.066" y="548.55" x="877.14" fill="#F5F5F5"/>
	<rect height="59.147" width="69.289" y="604.34" x="857.53" fill="#6F7273"/>
	<rect height="3.164" width="30.066" y="612.24" x="877.14" fill="#F5F5F5"/>
	<g fill="#6F7273">
		<rect height="98.979" width="6.464" y="528.23" x="861.73"/>
		<rect height="98.979" width="6.463" y="528.23" x="916.16"/>
	</g>
</g>
<g clip-rule="evenodd" fill-rule="evenodd">
	<path fill="#7F6F6B" d="m858.83 490.59h13.508c0.603 0 1.099-0.494 1.099-1.099v-8.482c0-0.604-0.495-1.1-1.099-1.1h-13.508c-0.606 0-1.1 0.495-1.1 1.1v8.482c0 0.61 0.5 1.1 1.1 1.1z"/>
	<path fill="#98827C" d="m869.7 482.55l3.471-2.366c-0.201-0.167-0.502-0.273-0.832-0.273h-13.508c-0.328 0-0.625 0.103-0.826 0.268l3.521 2.397 8.18-0.03z"/>
	<path fill="#7F6F6B" d="m861.11 481.71h8.954c0.4 0 0.729 0.328 0.729 0.729v5.622c0 0.401-0.328 0.729-0.729 0.729h-8.954c-0.401 0-0.729-0.328-0.729-0.729v-5.622c0-0.4 0.33-0.73 0.73-0.73z"/>
	<path fill="#EDE5CC" d="m828.57 483.3h41.958c1.602 0 2.911 1.311 2.911 2.911v27.335c0 1.602-1.31 2.912-2.911 2.912h-41.958c-1.601 0-2.911-1.31-2.911-2.912v-27.335c0-1.59 1.31-2.9 2.91-2.9z"/>
	<path fill="#151E2B" d="m867.95 498.44c1.396 0 2.534-1.139 2.534-2.535s-1.139-2.535-2.534-2.535c-1.396 0-2.535 1.139-2.535 2.535-0.01 1.4 1.13 2.54 2.53 2.54z"/>
	<path fill="#C5AB75" d="m826.42 516.46h46.298c0.637 0 0.903 0.472 0.593 1.049-0.428 0.789-0.857 1.581-1.283 2.374l-1.279 2.374c-0.31 0.577-1.016 1.045-1.56 1.045h-39.651c-0.544 0-1.216-0.567-1.492-1.135l-1.138-2.337c-0.378-0.781-0.762-1.56-1.143-2.339-0.28-0.55 0.01-1.02 0.65-1.02z"/>
	<rect height="3.648" width="47.78" y="513.55" x="825.66" fill="#D0AE56"/>
	<rect height="3.647" width="47.78" y="498.94" x="825.66" fill="#D0AE56"/>
	<path fill="#DBCBA4" d="m828.85 520.14h41.407c0.176 0 0.25 0.129 0.164 0.288-0.118 0.219-0.236 0.438-0.354 0.655l-0.352 0.654c-0.086 0.159-0.281 0.286-0.43 0.286h-39.576c-0.15 0-0.335-0.154-0.411-0.31l-0.314-0.646c-0.105-0.214-0.211-0.43-0.314-0.646-0.08-0.14 0-0.27 0.17-0.27z"/>
		<rect height="26.267" width="1.861" y="490.93" x="847.69" fill="#E8D6BA"/>
		<rect height="26.267" width="1.86" y="490.93" x="849.55" fill="#DBCBA4"/>
		<rect height="3.647" width="1.861" y="498.94" x="847.69" fill="#A5B051"/>
		<rect height="3.647" width="1.86" y="498.94" x="849.55" fill="#C5AB75"/>
		<rect height="3.648" width="1.861" y="513.55" x="847.69" fill="#A5B051"/>
		<rect height="3.648" width="1.86" y="513.55" x="849.55" fill="#C5AB75"/>
	<path fill="#151E2B" d="m849.55 498.32c3.623 0 6.576-2.955 6.576-6.576 0-3.623-2.953-6.576-6.576-6.576s-6.577 2.953-6.577 6.576c0 3.63 2.96 6.58 6.58 6.58z"/>
		<path fill="#E8D6BA" d="m849.55 496.66c2.706 0 4.913-2.207 4.913-4.912 0-2.707-2.207-4.913-4.913-4.913-2.705 0-4.912 2.206-4.912 4.913 0 2.7 2.21 4.91 4.91 4.91z"/>
			<path fill="#A5B051" d="m849.55 495.6c2.119 0 3.85-1.729 3.85-3.849 0-2.119-1.731-3.849-3.85-3.849s-3.849 1.729-3.849 3.849 1.73 3.85 3.85 3.85z"/>
			<g fill="#E8D6BA">
				<path d="m849.55 493.12c0.76 0 1.379-0.619 1.379-1.377 0-0.76-0.619-1.379-1.379-1.379-0.759 0-1.379 0.619-1.379 1.379 0 0.77 0.62 1.38 1.38 1.38z"/>
				<path d="m847.57 489.24c0.304-0.252 0.786-0.494 1.264-0.602 0.479-0.105 0.643 0.561 0.154 0.668-0.374 0.083-0.718 0.238-0.994 0.469-0.41 0.34-0.83-0.21-0.42-0.54z"/>
				<path d="m846.54 492.82c-0.309-0.869-0.221-1.791 0.174-2.553 0.252-0.458 0.84-0.118 0.604 0.316-0.313 0.6-0.384 1.325-0.133 2.007 0.2 0.51-0.46 0.7-0.64 0.22z"/>
			</g>
	<path fill="#151E2B" d="m861.1 485.67h8.967c0.402 0 0.731 0.328 0.731 0.73v5.63c0 0.402-0.328 0.73-0.731 0.73h-8.967c-0.402 0-0.731-0.328-0.731-0.73v-5.63c-0.01-0.4 0.32-0.73 0.73-0.73z"/>
	<path fill="#7F6F6B" d="m861.24 486.16h8.686c0.221 0 0.4 0.18 0.4 0.401v5.296c0 0.221-0.18 0.401-0.4 0.401h-8.686c-0.22 0-0.4-0.181-0.4-0.401v-5.296c0-0.22 0.18-0.4 0.4-0.4z"/>
	<path fill="#98827C" d="m865.58 491.91c1.488 0 2.701-1.213 2.701-2.701s-1.213-2.702-2.701-2.702c-1.49 0-2.704 1.214-2.704 2.702 0 1.49 1.21 2.7 2.7 2.7z"/>
	<path fill="#7F6F6B" d="m865.58 490.18c0.533 0 0.968-0.436 0.968-0.968 0-0.533-0.435-0.971-0.968-0.971-0.534 0-0.969 0.438-0.969 0.971 0 0.53 0.44 0.97 0.97 0.97z"/>
	<path fill="#151E2B" d="m827.96 485.67h9.698c0.201 0 0.365 0.163 0.365 0.363v2.815c0 0.201-0.164 0.366-0.365 0.366h-9.698c-0.2 0-0.365-0.165-0.365-0.366v-2.815c-0.01-0.19 0.16-0.35 0.36-0.35z"/>
	<path fill="#7F6F6B" d="m867.95 497.91c1.102 0 2.001-0.9 2.001-2.002s-0.899-2.002-2.001-2.002c-1.103 0-2.002 0.9-2.002 2.002 0 1.1 0.9 2 2 2z"/>
	<path fill="#98827C" d="m867.95 497.32c0.779 0 1.416-0.635 1.416-1.416 0-0.779-0.637-1.416-1.416-1.416-0.78 0-1.418 0.637-1.418 1.416 0 0.79 0.64 1.42 1.42 1.42z"/>
	<path fill="#7F6F6B" d="m828.59 486.3h8.43c0.129 0 0.232 0.104 0.232 0.233v1.807c0 0.127-0.104 0.232-0.232 0.232h-8.43c-0.129 0-0.232-0.105-0.232-0.232v-1.807c0-0.12 0.1-0.23 0.23-0.23z"/>
</g>
<g clip-rule="evenodd" fill-rule="evenodd">
			<rect transform="matrix(-.9083 .4184 -.4184 -.9083 826.45 814.14)" height="50.427" width="1.947" y="472.45" x="323.01" fill="#6A784F"/>
		<polygon points="312.57 475.16 314.34 474.35 312.16 471.94" fill="#B19B94"/>
			<rect transform="matrix(.8638 .5039 -.5039 .8638 297.93 -104.82)" height="50.427" width="1.946" y="473.34" x="341.83" fill="#B19B94"/>
		<polygon points="356.35 477.27 354.67 476.29 357.07 474.1" fill="#6A784F"/>
			<rect transform="matrix(-.9802 .1982 -.1982 -.9802 750.97 916.97)" height="50.426" width="1.946" y="470.86" x="328.62" fill="#F2D995"/>
		<polygon points="323.64 471.55 325.54 471.17 323.98 468.32" fill="#B19B94"/>
			<rect transform="matrix(-.9725 -.2329 .2329 -.9725 555.85 1059)" height="50.426" width="1.945" y="471.48" x="339.48" fill="#8E9043"/>
		<polygon points="345.4 471.94 347.29 472.4 347.06 469.16" fill="#B19B94"/>
	<g fill="#E5E4E4">
		<rect height="2.434" width="32.509" y="489.93" x="317.88"/>
		<rect height="2.434" width="15.821" y="520.87" x="326.23"/>
		<polygon points="320.32 492.36 328.66 523.3 326.23 523.3 317.88 492.36"/>
		<polygon points="347.96 492.36 339.61 523.3 342.05 523.3 350.39 492.36"/>
				<polygon points="322.3 491.89 330.24 521.34 328.95 521.34 321 491.89"/>
				<polygon points="325.17 491.89 333.12 521.34 331.82 521.34 323.88 491.89"/>
				<polygon points="328.04 491.89 335.99 521.34 334.69 521.34 326.75 491.89"/>
				<polygon points="330.91 491.89 338.86 521.34 337.56 521.34 329.62 491.89"/>
				<polygon points="333.79 491.89 341.1 519.02 340.48 521.34 340.43 521.34 332.49 491.89"/>
				<polygon points="336.66 491.89 342.54 513.69 341.89 516.1 335.36 491.89"/>
				<polygon points="339.53 491.89 343.97 508.37 343.32 510.78 338.23 491.89"/>
				<polygon points="342.4 491.89 345.41 503.05 344.76 505.45 341.1 491.89"/>
				<polygon points="345.27 491.89 346.84 497.72 346.2 500.13 343.97 491.89"/>
				<polygon points="348.14 491.89 348.28 492.4 347.63 494.81 346.84 491.89"/>
				<polygon points="345.55 491.89 337.6 521.34 338.9 521.34 346.84 491.89"/>
				<polygon points="342.68 491.89 334.73 521.34 336.03 521.34 343.97 491.89"/>
				<polygon points="339.8 491.89 331.86 521.34 333.16 521.34 341.1 491.89"/>
				<polygon points="336.93 491.89 328.99 521.34 330.29 521.34 338.23 491.89"/>
				<polygon points="334.06 491.89 326.96 518.22 327.61 520.63 335.36 491.89"/>
				<polygon points="331.19 491.89 325.52 512.9 326.17 515.3 332.49 491.89"/>
				<polygon points="328.32 491.89 324.09 507.58 324.74 509.98 329.62 491.89"/>
				<polygon points="325.45 491.89 322.65 502.25 323.3 504.66 326.75 491.89"/>
				<polygon points="322.58 491.89 321.22 496.93 321.87 499.33 323.88 491.89"/>
				<polygon points="320.43 494.01 321 491.89 319.86 491.89"/>
	</g>
</g>
<g clip-rule="evenodd" fill-rule="evenodd">
	<rect height="12.813" width="156.02" y="410.15" x="768.8" fill="#6F7273"/>
			<rect transform="matrix(-.9936 .1128 -.1128 -.9936 1799.5 634.85)" height="82.049" width="18.992" y="327.29" x="872.28" fill="#E7C15E"/>
			<rect transform="matrix(-.9936 .1127 -.1127 -.9936 1790.6 582.99)" height="15.602" width="11.614" y="334.31" x="873" fill="#A5B051"/>
			<rect transform="matrix(-.9936 .1126 -.1126 -.9936 1796.1 657.98)" height="49.402" width="4.443" y="355.03" x="877.24" fill="#A5B051"/>
			<rect transform="matrix(-.9936 .1127 -.1127 -.9936 1810.2 655.54)" height="49.401" width="4.442" y="354.22" x="884.37" fill="#A5B051"/>
			<rect transform="matrix(-.9936 .1127 -.1127 -.9936 1835.3 645.98)" height="69.388" width="14.502" y="340.17" x="892.12" fill="#F2D995"/>
			<rect transform="matrix(-.9936 .1129 -.1129 -.9936 1830.1 615.19)" height="23.106" width="5.914" y="347.84" x="894.66" fill="#F1E8D6"/>
		<rect height="88.145" width="22.756" y="322.01" x="820.45" fill="#A7AD42"/>
		<g fill="#5D763B">
			<polygon points="824.69 396.47 838.96 402.6 838.96 399.54 824.69 393.42"/>
			<polygon points="824.69 390.67 838.96 396.8 838.96 393.74 824.69 387.61"/>
			<polygon points="824.69 384.86 838.96 390.99 838.96 387.93 824.69 381.8"/>
			<polygon points="824.69 379.06 838.96 385.18 838.96 382.13 824.69 376"/>
			<polygon points="824.69 373.25 838.96 379.38 838.96 376.32 824.69 370.19"/>
			<polygon points="824.69 367.44 838.96 373.57 838.96 370.52 824.69 364.39"/>
			<polygon points="824.69 361.64 838.96 367.77 838.96 364.71 824.69 358.58"/>
			<polygon points="824.69 355.84 838.96 361.96 838.96 358.91 824.69 352.78"/>
			<polygon points="824.69 350.03 838.96 356.16 838.96 353.1 824.69 346.97"/>
			<polygon points="824.69 344.22 838.96 350.35 838.96 347.29 824.69 341.16"/>
			<polygon points="824.69 338.42 838.96 344.55 838.96 341.49 824.69 335.36"/>
			<polygon points="824.69 332.61 838.96 338.74 838.96 335.68 824.69 329.55"/>
		</g>
		<rect height="69.389" width="14.502" y="340.76" x="843.2" fill="#5D763B"/>
		<rect height="6.432" width="14.502" y="340.76" x="843.2" fill="#E7C15E"/>
		<rect height="55.569" width="4.373" y="350.11" x="848.27" fill="#FDF9ED"/>
		<rect height="107.37" width="9.496" y="302.78" x="857.71" fill="#A5B051"/>
		<rect height="8.961" width="4.901" y="306.16" x="860" fill="#E7C15E"/>
		<rect height="8.962" width="4.901" y="317.95" x="860" fill="#E7C15E"/>
		<rect height="8.96" width="4.901" y="329.74" x="860" fill="#E7C15E"/>
</g>
<rect fill-rule="evenodd" height="6.569" width="64.302" clip-rule="evenodd" y="516.73" x="194.46" fill="#6F7273"/>
<path fill="#6F7273" clip-rule="evenodd" d="m227.22 516.73h3.25v-6.638h-3.25 0.611v6.638h-0.61zm-3.25 0h3.251-0.612v-6.638h0.612-3.251v6.64z" fill-rule="evenodd"/>
<path fill="#6F7273" clip-rule="evenodd" d="m236.9 473.34l11.646-56.271-6.366-1.318-5.281 25.513v12.217l7.703-37.217 1.517 0.314-9.22 44.547v12.22zm-11.64 24.18l6.366 1.319 5.276-25.493v-12.215l-7.703 37.217-1.517-0.314 9.22-44.547v-12.217l-11.65 56.24z" fill-rule="evenodd"/>
<path fill="#6F7273" clip-rule="evenodd" d="m335.99 378.51l-2.422-6.034-40.318 16.183v2.668l41.241-16.553 0.577 1.436-41.818 16.786v2.668l42.74-17.17zm-42.74 10.15l-42.741 17.155 2.422 6.034 40.319-16.183v-2.668l-41.242 16.554-0.577-1.439 41.819-16.785v-2.66z" fill-rule="evenodd"/>
<path fill="#6F7273" clip-rule="evenodd" d="m325.65 354.12c2.038-1.23 4.194-2.143 6.425-2.76l8.479 10.393c8.47-0.315 17.65 4.809 23.338 13.84-6.161 3.105-12.52 6.616-18.941 10.493-6.422 3.878-12.489 7.87-18.107 11.875-5.342-9.238-5.602-19.748-1.38-27.096l-5.249-12.344c1.58-1.69 3.39-3.17 5.43-4.4z" fill-rule="evenodd"/>
<path fill="#EAA827" clip-rule="evenodd" d="m246.5 404.08c1.727 0 3.456 0.649 4.788 1.955 2.7 2.645 2.744 6.978 0.1 9.677-1.34 1.368-3.113 2.054-4.888 2.054v-1.354c1.422 0 2.845-0.551 3.92-1.647 2.121-2.165 2.086-5.64-0.08-7.761-1.068-1.046-2.455-1.568-3.84-1.568v-1.36zm-4.88 2.06c1.34-1.367 3.113-2.053 4.888-2.053v1.355c-1.424 0-2.846 0.55-3.921 1.647-2.121 2.166-2.085 5.641 0.08 7.762 1.068 1.047 2.455 1.568 3.841 1.568v1.354c-1.728 0-3.458-0.649-4.79-1.955-2.71-2.65-2.75-6.98-0.1-9.68z" fill-rule="evenodd"/>
<g clip-rule="evenodd" fill-rule="evenodd">
	<path fill="#E7C15E" d="m745.08 509.44c2.202 0 3.984 1.784 3.984 3.984 0 2.202-1.782 3.986-3.983 3.986h-0.001v-1.865h0.001c1.172 0 2.12-0.948 2.12-2.121 0-1.171-0.948-2.121-2.12-2.121h-0.001v-1.86zm-1.09-1.26c0.047 0.463 0.051 0.933 0.017 1.408 0.341-0.095 0.7-0.147 1.072-0.147v1.863c-1.172 0.001-2.121 0.95-2.121 2.121 0 1.173 0.949 2.121 2.121 2.121v1.865c-1.408 0-2.648-0.731-3.356-1.834-2.577 3.743-6.974 6.713-11.446 6.713-7.268 0-14.342-7.842-13.714-14.111h27.43z"/>
	<path fill="#9EA851" d="m746.6 521c-1.706 0.932-3.708 1.713-5.93 2.306h-20.215c-2.221-0.593-4.223-1.374-5.929-2.306h32.07z"/>
	<path fill="#B68B40" d="m726.88 500.52c-5.259-18.545 10.553-20.051-1.789-42.402 5.86 20.56-10.79 25.05 1.79 42.4z"/>
	<path fill="#B68B40" d="m734.09 502.71c-4.016-14.165 8.061-15.316-1.366-32.387 4.47 15.71-8.24 19.14 1.37 32.39z"/>
</g>
<path fill="#EAA827" clip-rule="evenodd" d="m227.22 497.23c3.779 0 6.842 3.063 6.842 6.844 0 3.778-3.063 6.843-6.842 6.843v-1.355c3.031 0 5.489-2.457 5.489-5.487 0-3.033-2.458-5.49-5.489-5.49v-1.35zm0 13.69c-3.78 0-6.843-3.064-6.843-6.843 0-3.781 3.063-6.844 6.843-6.844v1.354c-3.032 0-5.489 2.457-5.489 5.49 0 3.03 2.457 5.487 5.489 5.487v1.35z" fill-rule="evenodd"/>
</svg>
