<?xml version="1.0" encoding="UTF-8" standalone="no"?>
<!-- Generator: Adobe Illustrator 16.0.0, SVG Export Plug-In . SVG Version: 6.00 Build 0)  -->
<!DOCTYPE svg  PUBLIC '-//W3C//DTD SVG 1.1//EN'  'http://www.w3.org/Graphics/SVG/1.1/DTD/svg11.dtd'>
<svg id="Capa_1" xmlns="http://www.w3.org/2000/svg" xml:space="preserve" height="319px" viewBox="0 0 165 319" width="165px" version="1.1" y="0px" x="0px" xmlns:xlink="http://www.w3.org/1999/xlink" enable-background="new 0 0 165 319">
<path d="m248.42 54.414c0.045 0.283 0.115 0.565 0.205 0.887 0.025-0.059 0.047-0.1 0.068-0.14-0.09-0.243-0.18-0.485-0.27-0.747" fill="#573B1C"/>
<path d="m61.831 163.83c3.686-3.814 3.596-9.901-0.209-13.646-3.805-3.743-9.957-3.655-13.692 0.211l-2.829 2.937c-4.528 4.711-9.032 9.448-13.504 14.25-4.473 4.809-8.909 9.641-13.308 14.75-1.1 1.277-2.199 2.592-3.305 3.947l-0.833 1.047-0.582 0.738c-0.241 0.309-0.475 0.627-0.712 0.961l-1.413 1.967c-0.452 0.664-0.807 1.359-1.216 2.039-0.754 1.375-1.113 2.822-1.431 4.27-0.061 0.371-0.222 0.734-0.202 1.117l0.085 1.127c0.037 0.742 0.154 1.482 0.288 2.221 0.036 0.371 0.178 0.738 0.309 1.104l0.385 1.098c0.294 0.729 0.669 1.441 0.999 2.164 0.353 0.715 0.787 1.41 1.177 2.115l0.604 1.035 0.481 0.775c1.934 3.084 3.867 5.814 5.828 8.563 1.959 2.729 3.941 5.385 5.935 8.021l4.238 5.531 15.282-11.842-4.107-5.359c-1.922-2.541-3.821-5.088-5.649-7.635-1.814-2.533-3.625-5.113-5.137-7.531l-0.17-0.271 0.867-1.09c0.945-1.16 1.931-2.338 2.947-3.52 4.074-4.73 8.418-9.469 12.787-14.168 4.377-4.701 8.823-9.373 13.292-14.023l2.795-2.93z" fill="#5A3016"/>
<path d="m47.363 224.38l-3.157-4.045-15.282 11.842 3.24 4.15c3.341 4.254 9.478 4.955 13.621 1.586 4.142-3.38 4.829-9.4 1.578-13.54" fill="#F4D897"/>
<polygon points="26.436 228.94 25.666 227.94 41.045 216.22 41.789 217.2" fill="#C6AF92"/>
<path d="m115.22 152.08c-1.326-1.536-3.014-2.821-4.98-3.589-1.955-0.762-4.016-0.997-5.754-0.605-0.865 0.161-1.613 0.491-2.24 0.904-0.629 0.395-1.137 0.882-1.531 1.445-0.793 1.104-1.1 2.364-1.117 3.698 0 2.665 0.828 5.124 0.674 6.956-0.146 1.824-0.701 2.703 0.205 3.695 0.434 0.486 0.91 1.223 1.389 1.986 1.016 1.758 1.996 3.914 2.826 6.273 0.84 2.355 1.572 4.873 2.223 7.461 1.297 5.182 2.268 10.641 3.055 16.166 1.561 11.076 2.41 22.451 2.893 33.846l0.23 6.719 19.328-0.525-0.244-6.992c-0.504-11.879-1.379-23.764-3.066-35.768-0.857-6.004-1.914-12.031-3.443-18.15-0.771-3.061-1.66-6.146-2.779-9.277-1.111-3.129-2.482-6.326-4.391-9.609-0.96-1.55-1.96-3.09-3.29-4.64" fill="#5A3016"/>
<path d="m132.53 241.8l-0.115-5.299-19.324 0.525 0.111 5.094c0.09 5.217 4.377 9.42 9.711 9.506 5.34 0.1 9.71-4.36 9.61-9.82" fill="#F4D897"/>
<polygon points="112.97 233.09 112.92 231.87 132.24 231.14 132.29 232.41" fill="#C6AF92"/>
<path d="m105.51 148.38c-6.37-1.419-16.202-3.142-26.431-3.144-10.242 0-20.107 1.727-26.496 3.149-4.035 0.896-7.253 5.192-7.253 9.325v67.381h67.43v-67.381c0-4.15-3.22-8.45-7.25-9.34" fill="#5A3016"/>
<path d="m61.209 147.46c5.671 13.003 8.239 17.611 9.812 17.611 2.086 0 6.399-5.274 8.019-7.352 1.622 2.078 5.936 7.352 8.022 7.352 1.553 0 4.215-4.777 9.818-17.627 0.107-0.245 0.199-0.447 0.289-0.66-0.389-0.063-0.785-0.122-1.181-0.184-0.058 0.131-0.106 0.242-0.168 0.384-4.769 10.931-7.726 16.632-8.759 16.933-1.298 0-5.204-4.382-7.561-7.495l-0.461-0.605-0.459 0.605c-2.357 3.112-6.263 7.495-7.528 7.497-1.065-0.303-4.021-5.998-8.784-16.918-0.063-0.146-0.112-0.261-0.171-0.395-0.398 0.061-0.794 0.121-1.183 0.183 0.095 0.22 0.189 0.43 0.295 0.68" fill="#C6AF92"/>
<polygon points="93.01 137.59 94.053 146.32 79.041 155.81 64.031 146.32 65.074 137.59" fill="#5A3016"/>
<polygon points="73.029 182 77.074 170.24 73.822 166.99 79.04 159.83 84.26 166.99 81.009 170.24 85.055 182 79.04 191.95" fill="#C6AF92"/>
<path d="m112.76 188.77c-1.996-4.736-6.355-17.395-8.041-40.569-1.711-0.369-3.637-0.755-5.734-1.121-2.889 7.439-11.412 28.665-19.939 42.774-8.523-14.107-17.045-35.322-19.937-42.767-2.099 0.367-4.025 0.75-5.735 1.121-1.688 23.171-6.046 35.826-8.043 40.562v36.316h30.308l3.401-4.834 3.402 4.834h30.313v-36.31z" fill="#B99A6F"/>
<path d="m84.702 195.72c0 0.916-0.742 1.662-1.661 1.662-0.916 0-1.661-0.746-1.661-1.662s0.745-1.66 1.661-1.66c0.919 0 1.661 0.74 1.661 1.66" fill="#9B5D32"/>
<path d="m84.702 203.66c0 0.916-0.742 1.662-1.661 1.662-0.916 0-1.661-0.746-1.661-1.662s0.745-1.66 1.661-1.66c0.919 0 1.661 0.75 1.661 1.66" fill="#9B5D32"/>
<path d="m84.702 211.61c0 0.918-0.742 1.662-1.661 1.662-0.916 0-1.661-0.744-1.661-1.662 0-0.916 0.745-1.658 1.661-1.658 0.919 0 1.661 0.74 1.661 1.66" fill="#9B5D32"/>
<path d="m42.712 102.59c0 4.739-3.84 8.579-8.576 8.579s-8.576-3.84-8.576-8.579c0-4.736 3.84-8.576 8.576-8.576 4.736-0.002 8.576 3.839 8.576 8.576" fill="#F4D897"/>
<path d="m132.85 102.59c0 4.739-3.84 8.579-8.576 8.579s-8.576-3.84-8.576-8.579c0-4.736 3.84-8.576 8.576-8.576s8.58 3.839 8.58 8.576" fill="#F4D897"/>
<path d="m92.699 141.29l1.012 8.786s-2.537 9.622-14.55 9.622c-12.018 0-14.551-9.622-14.551-9.622l1.011-8.786h27.078z" fill="#F4D897"/>
<path d="m46.481 224.9l0.312 79.355 26.574 4.336-0.069-64.322c0-2.67 2.167-4.838 4.836-4.838h2.07c2.669 0 4.836 2.168 4.836 4.838l0.022 64.322 26.568-4.336 0.209-79.355h-65.359z" fill="#363636"/>
<polygon points="73.364 313.56 44.292 313.56 44.292 308.7 46.793 304.25 73.364 308.59" fill="#DE912F"/>
<polygon points="85.063 313.56 114.13 313.56 114.13 308.7 111.64 304.25 85.063 308.59" fill="#DE912F"/>
<path d="m92.813 144.89s-4.318 2.101-13.605 2.101c-9.289 0-13.708-2.117-13.708-2.117s7.347-1.547 13.708-1.547c6.356 0 13.605 1.57 13.605 1.57" fill="#DFC382"/>
<path d="m91.171 30.827h-23.93c-32.621 0-33.105 60.704-33.105 60.704v16.358c0 20.699 16.781 37.477 37.479 37.477h15.183c20.696 0 37.478-16.777 37.478-37.477l-0.002-16.295c-0.01-0.001-0.49-60.768-33.109-60.768" fill="#F4D897"/>
<path d="m61.021 103.57c0 2.582-2.091 4.67-4.67 4.67s-4.668-2.088-4.668-4.67v-2.025c0-2.581 2.089-4.67 4.668-4.67s4.67 2.089 4.67 4.67v2.03z" fill="#836C5A"/>
<path d="m107.92 103.57c0 2.582-2.092 4.67-4.67 4.67-2.58 0-4.668-2.088-4.668-4.67v-2.025c0-2.581 2.088-4.67 4.668-4.67 2.578 0 4.67 2.089 4.67 4.67v2.03z" fill="#836C5A"/>
<path d="m33.316 110.27s-2.049-6.594-3.185-10.025c-1.136-3.429-1.358-23.031-1.358-26.683 0-3.655 0-16.641 2.048-19.157 0 0-1.159-5.681-1.159-7.662 0 0-4.253-7.284-6.236-11.694 0 0 6.236 4.255 8.353 4.856 0 0-4.099-6.081-5.614-8.822 0 0 5.614 5.324 7.441 6.393 0 0-1.516-3.341-1.36-5.013 0 0 2.897 5.483 7.907 8.064 0 0-1.225-5.167-4.566-8.975 0 0 3.029-0.758 3.943 0.757 0 0-0.446-6.236-2.873-9.423 0 0 5.01-1.225 8.197 1.515 0 0-5.926-4.856-9.267-6.236 0 0 6.527-0.29 10.492 3.651 0 0-4.256-4.855 0.757-6.545 0 0-1.227 2.894 2.428 3.65 0 0-3.028-4.854 1.381-9.108 0 0-2.139 5.769 2.739 9.42 0 0-0.911-4.564 4.7-7.15 0 0-2.739 3.339-1.982 7.462 0 0 1.226-6.236 6.081-7.15 0 0-3.943 3.943-3.184 8.509 0 0 5.479-7.307 0.155-14.902 0 0 6.238 0.47 8.51 4.41 0 0 0.912-3.34 1.826-3.652 0 0 1.226 2.895 2.739 3.808 0 0 0.757-1.224 0-2.894 0 0 2.115 1.825 2.115 3.209 0 0 3.81-1.07 5.035 1.044 1.204 2.14 6.371 4.255 11.248 4.567 0 0-5.922-6.995-13.986-6.995 0 0 4.407-2.427 12.162 2.584 0 0-2.739-3.495-4.256-4.409 0 0 6.371 0.312 12.92 8.664 0 0 1.357-1.828-1.381-4.1 0 0 6.547 2.272 10.645 8.354 0 0-2.873-5.321-5.766-6.995 0 0 12.004 4.412 9.889 9.446 0 0 1.668 2.428 3.477 3.63 1.822 1.226 10.803 8.22 11.402 12.026 0.623 3.79 1.695 3.79 2.738 3.657 0 0 1.672-0.782 2.139-2.451 0 0 0.291 2.895-2.139 4.097 0 0-0.6 3.521 3.211 4.12 0 0 2.27 0.914 2.424 2.273 0 0-3.049-0.912-5.475-0.755 0 0 2.736 4.254 5.631 6.525 0 0 3.342 1.982-1.67 11.272 0 0-1.225 7.125-1.068 10.333 0.158 3.185 0 10.18 0 13.833 0 3.655 0.158 5.926-2.293 10.802-2.43 4.86-4.543 6.838-4.699 8.957-0.156 2.137 0.285 6.837-0.156 7.306 0 0-1.672-0.469-1.672-3.808 0-3.342 0-10.938-0.467-14.146-0.443-3.185-1.359-8.511-3.186-12.161-1.828-3.632-3.342-13.834-3.342-16.105 0-2.293-1.67-7.307-1.67-8.664 0-1.382-0.158-2.142-1.826-0.312-1.67 1.825-15.814 2.583-23.41 1.225-7.595-1.383-9.733 4.699-17.042 2.582-7.282-2.138-10.022 0.448-13.52 0.915-3.498 0.444-5.011 2.428-7.305 4.41-2.272 1.958-1.516 5.324-5.455 7.44-3.968 2.137-6.083 2.137-5.95 7.149 0.156 5.01 0 10.025-1.959 11.249-1.984 1.226-3.209 5.635-3.498 8.063-0.291 2.43 0.512 4.97-0.735 3.77" fill="#514943"/>
<g opacity=".1">
		<defs>
			<rect id="SVGID_1_" y="25.624" x="44.097" height="39.515" width="67.96"/>
		</defs>
		<clipPath id="SVGID_2_">
			<use overflow="visible" xlink:href="#SVGID_1_"/>
		</clipPath>
		<path fill="#fff" d="m44.097 41.283s4.566 4.098 5.48 6.838c0.913 2.742 6.079 11.093 14.277 13.834 0 0-10.177-8.219-13.518-16.128 0 0 4.72 1.984 8.819 8.377 0 0 6.08 10.025 13.832 10.936 0 0-6.081-4.857-7.907-10.624 0 0-5.636-15.683-9.58-19.314 0 0-1.355 7.597 1.36 12.764 0 0-1.959-2.739-9.109-4.255-0.001-0.001-1.514-2.293-3.654-2.428" clip-path="url(#SVGID_2_)"/>
		<path fill="#fff" d="m60.07 34.291s3.652 4.252 3.939 8.663c0 0 0.916 13.076 7.91 17.017 0 0-3.498-4.565-3.498-8.062 0 0 2.426 9.732 11.093 12.16 0 0-5.77-4.542-6.683-7.439 0 0 2.426 3.653 5.323 4.723l-2.583-3.965s3.498 5.925 8.819 6.993c0 0-11.848-8.975-15.502-20.513 0 0 4.099 9.265 9.866 12.608 0 0-4.855-5.326-5.767-9.892 0 0 3.496 1.693 5.324 5.792 0 0 2.737 7.907 11.094 9.265 0 0-4.701-3.339-6.838-10.645 0 0-1.519-3.944-4.724-5.769 0 0 2.895 0.467 5.946 5.769 0 0 5.458 10.2 13.969 11.872 0 0-6.974-4.723-10.781-12.317 0 0 7.15 10.179 15.656 13.83 0 0-7.149-6.079-9.89-10.937 0 0 8.065 5.925 11.116 9.714 0 0-7.773-11.542-16.574-19.003l10.784 8.824s-1.071-4.411-3.789-6.839c0 0 10.337 11.248 13.075 13.074 0 0-6.082-10.937-11.27-13.987 0 0 8.82 2.427 12.027 11.249 0 0-3.652-8.955 3.943-3.032 0 0-0.602-3.653-6.082-6.234 0 0-11.559-7.753-15.348-11.561 0 0 5.613 1.515 10.492 6.547 0 0-2.139-4.721-9.58-8.975 0 0-6.234-3.497-9.286-7.597 0 0 1.982 4.857 6.861 7.907 0 0-7.907-3.653-11.115-4.565 0 0 3.208 3.942 5.633 5.325 0 0-6.394-2.895-8.216-5.038 0 0-3.342-3.182-7.285-3.341 0 0 5.458 2.587 8.197 8.823 0 0-3.652-0.602-5.926-4.7 0 0-0.312 3.031 1.517 6.08 0 0-1.072 0.913-3.031-2.584 0 0-0.312 3.342 2.115 7.887 0 0-3.94-1.359-5.323-7.285 0 0-0.445 3.187 1.984 7.15-0.001 0-3.811-6.391-7.595-6.992" clip-path="url(#SVGID_2_)"/>
</g>
<path d="m79.616 136.24c-13.454 0-18.434-5.272-18.639-5.497-0.684-0.749-0.631-1.91 0.119-2.596 0.742-0.682 1.895-0.633 2.58 0.102 0.102 0.104 4.366 4.316 15.939 4.316 11.65 0 15.9-4.276 15.943-4.318 0.699-0.727 1.857-0.764 2.59-0.075 0.734 0.689 0.783 1.831 0.105 2.572-0.206 0.24-5.192 5.51-18.637 5.51" fill="#836C5A"/>
<path d="m78.927 218.81c-0.318 0-0.577-0.259-0.577-0.576v-26.52c0-0.32 0.259-0.579 0.577-0.579 0.32 0 0.579 0.259 0.579 0.579v26.526c0 0.31-0.259 0.57-0.579 0.57" fill="#9B5D32"/>
</svg>
