<?xml version="1.0" encoding="utf-8"?>
<!-- Generator: Adobe Illustrator 17.0.0, SVG Export Plug-In . SVG Version: 6.00 Build 0)  -->
<!DOCTYPE svg PUBLIC "-//W3C//DTD SVG 1.1//EN" "http://www.w3.org/Graphics/SVG/1.1/DTD/svg11.dtd">
<svg version="1.1" id="Capa_1" xmlns="http://www.w3.org/2000/svg" xmlns:xlink="http://www.w3.org/1999/xlink" x="0px" y="0px"
	 width="200px" height="30px" viewBox="0 0 200 30" enable-background="new 0 0 200 30" xml:space="preserve">
<g id="Capa_1">
	<g>
		<g>
			<g>
				<polyline fill="none" stroke="#FFFFFF" stroke-linecap="round" stroke-linejoin="round" points="62.189,21.016 62.698,20.722 
					62.009,23.201 64.03,22.034 				"/>
				<polyline fill="none" stroke="#FFFFFF" stroke-linecap="round" stroke-linejoin="round" points="58.058,6.088 60.774,4.52 
					60.587,6.463 62.328,5.459 61.945,7.853 63.493,6.959 62.213,9.607 63.962,8.597 63.503,10.487 64.053,10.17 				"/>
				<polyline fill="none" stroke="#FFFFFF" stroke-linecap="round" stroke-linejoin="round" points="54.508,6.006 57.332,4.376 
					53.37,8.254 60.145,4.342 53.225,10.43 55.041,9.381 53.225,12.11 55.041,11.062 53.225,14.091 55.042,13.042 53.225,15.379 
					55.042,14.33 53.225,17.149 55.042,16.1 53.225,18.358 55.042,17.309 53.225,19.738 55.042,18.689 53.225,21.792 55.042,20.743 
					53.346,22.918 55.042,21.938 54.034,24.654 55.595,23.752 54.837,25.583 56.509,24.618 55.674,26.262 57.595,25.153 
					57.721,26.999 63.836,23.468 59.704,27.044 63.099,25.084 				"/>
				<polyline fill="none" stroke="#FFFFFF" stroke-linecap="round" stroke-linejoin="round" points="71.241,5.988 73.919,4.441 
					73.955,6.256 75.656,5.274 75.572,7.496 77.007,6.667 75.961,9.18 77.59,8.239 75.961,10.805 77.692,9.806 75.962,12.686 
					77.692,11.687 75.962,14.639 77.692,13.64 75.962,16.115 77.692,15.116 75.963,17.742 77.692,16.743 75.963,19.203 
					77.692,18.204 75.963,21.498 77.692,20.5 75.533,23.83 77.682,22.589 				"/>
				<polyline fill="none" stroke="#FFFFFF" stroke-linecap="round" stroke-linejoin="round" points="67.647,6.058 70.525,4.397 
					66.662,8.217 73.366,4.347 66.554,10.372 68.283,9.373 66.554,12.052 68.284,11.054 66.554,14.032 68.284,13.034 66.554,15.321 
					68.284,14.322 66.555,17.091 68.284,16.092 66.555,18.3 68.285,17.301 66.555,19.68 68.285,18.681 66.555,21.734 68.285,20.735 
					66.627,22.888 68.285,21.93 67.276,24.646 68.703,23.822 68.071,25.58 69.6,24.697 68.919,26.253 70.698,25.226 71.015,26.961 
					77.566,23.179 73.027,26.99 76.937,24.732 				"/>
				<polyline fill="none" stroke="#FFFFFF" stroke-linecap="round" stroke-linejoin="round" points="89.176,4.442 89.69,4.146 
					89.179,6.522 90.995,5.473 89.183,8.774 90.998,7.726 89.187,10.908 91,9.861 89.189,12.178 91.002,11.131 89.191,13.494 
					91.004,12.448 89.195,15.628 91.007,14.582 89.198,17.37 91.009,16.324 89.201,19.243 91.011,18.198 89.204,21.264 
					91.014,20.219 				"/>
				<polyline fill="none" stroke="#FFFFFF" stroke-linecap="round" stroke-linejoin="round" points="82.455,8.839 83.973,7.962 
					83.03,10.342 84.539,9.471 83.711,12.122 85.208,11.258 84.309,13.686 85.796,12.828 84.818,15.017 86.296,14.164 
					85.408,16.558 86.876,15.71 86.02,18.157 87.477,17.316 86.482,19.366 87.932,18.53 86.993,20.699 88.433,19.868 87.45,21.896 
					88.883,21.069 88.17,23.776 91.017,22.133 88.823,25.483 91.019,24.214 89.422,26.989 91.022,26.066 				"/>
				<polyline fill="none" stroke="#FFFFFF" stroke-linecap="round" stroke-linejoin="round" points="80.526,4.442 81.034,4.149 
					80.527,6.031 82.766,4.739 80.53,8.122 83.41,6.459 80.532,9.802 82.313,8.773 80.535,11.78 82.317,10.751 80.536,13.068 
					82.319,12.039 80.538,14.837 82.322,13.807 80.54,16.045 82.324,15.015 80.542,17.424 82.326,16.394 80.544,19.477 
					82.329,18.446 80.546,20.671 82.331,19.64 80.548,22.802 82.335,21.771 80.55,24.195 82.337,23.163 80.551,25.356 
					82.339,24.324 81.041,26.992 82.342,26.241 				"/>
				<polyline fill="none" stroke="#FFFFFF" stroke-linecap="round" stroke-linejoin="round" points="99.956,5.968 103.149,4.125 
					102.948,5.946 103.45,5.656 				"/>
				<polyline fill="none" stroke="#FFFFFF" stroke-linecap="round" stroke-linejoin="round" points="93.573,4.443 94.076,4.152 
					93.68,5.971 96.845,4.144 97.35,5.944 100.487,4.133 97.633,7.462 99.45,6.413 97.636,9.44 99.452,8.391 97.638,10.728 
					99.454,9.679 97.64,12.496 99.457,11.447 97.642,13.704 99.459,12.656 97.644,15.083 99.461,14.034 97.647,17.136 
					99.463,16.087 97.648,18.33 99.465,17.281 97.652,20.461 99.468,19.412 97.653,21.853 99.47,20.804 97.655,23.015 
					99.472,21.966 97.658,24.932 99.475,23.883 97.66,26.121 99.476,25.072 98.964,26.978 99.479,26.682 				"/>
				<polyline fill="none" stroke="#FFFFFF" stroke-linecap="round" stroke-linejoin="round" points="109.584,7.524 111.194,6.594 
					109.981,9.376 111.589,8.448 110.411,11.382 112.016,10.456 110.819,13.283 112.421,12.359 111.061,14.414 112.661,13.49 
					111.312,15.587 112.911,14.664 111.72,17.488 113.316,16.567 112.034,18.954 113.628,18.034 				"/>
				<polyline fill="none" stroke="#FFFFFF" stroke-linecap="round" stroke-linejoin="round" points="107.263,20.768 109.933,19.227 
					110.492,20.74 113.797,18.831 112.5,21.753 114.209,20.767 112.872,23.447 114.571,22.467 113.189,24.89 114.879,23.914 
					113.555,26.559 115.235,25.589 114.999,26.953 115.467,26.683 				"/>
				<polyline fill="none" stroke="#FFFFFF" stroke-linecap="round" stroke-linejoin="round" points="108.227,4.51 108.81,4.173 
					107.866,6.309 110.783,4.624 107.391,8.675 109.401,7.515 107.009,10.576 109.005,9.423 106.559,12.816 108.542,11.671 
					106.267,14.273 108.243,13.132 105.865,16.275 107.836,15.137 105.59,17.643 107.582,16.493 105.277,19.204 107.293,18.04 
					104.81,21.527 108.781,19.235 104.539,22.88 106.574,21.705 104.054,25.292 106.106,24.108 103.738,26.868 105.8,25.677 				"/>
				<polyline fill="none" stroke="#FFFFFF" stroke-linecap="round" stroke-linejoin="round" points="125.916,21.016 126.426,20.722 
					125.737,23.201 127.757,22.034 				"/>
				<polyline fill="none" stroke="#FFFFFF" stroke-linecap="round" stroke-linejoin="round" points="121.786,6.088 124.502,4.52 
					124.315,6.464 126.056,5.459 125.672,7.853 127.221,6.959 125.941,9.607 127.689,8.598 127.231,10.487 127.781,10.17 				"/>
				<polyline fill="none" stroke="#FFFFFF" stroke-linecap="round" stroke-linejoin="round" points="118.237,6.006 121.06,4.376 
					117.099,8.253 123.874,4.342 116.953,10.429 118.77,9.381 116.953,12.11 118.77,11.061 116.953,14.09 118.77,13.041 
					116.954,15.379 118.77,14.33 116.954,17.149 118.77,16.1 116.954,18.358 118.77,17.309 116.954,19.738 118.771,18.689 
					116.954,21.792 118.771,20.743 117.074,22.918 118.771,21.938 117.762,24.654 119.324,23.752 118.565,25.583 120.237,24.618 
					119.402,26.262 121.323,25.153 121.449,26.999 127.563,23.469 123.432,27.044 126.827,25.084 				"/>
				<polyline fill="none" stroke="#FFFFFF" stroke-linecap="round" stroke-linejoin="round" points="136.104,5.968 139.297,4.125 
					139.097,5.946 139.599,5.656 				"/>
				<polyline fill="none" stroke="#FFFFFF" stroke-linecap="round" stroke-linejoin="round" points="129.721,4.443 130.224,4.152 
					129.828,5.971 132.993,4.144 133.499,5.944 136.636,4.133 133.781,7.462 135.598,6.413 133.784,9.44 135.6,8.392 
					133.786,10.728 135.602,9.679 133.789,12.496 135.605,11.448 133.79,13.704 135.606,12.656 133.792,15.083 135.608,14.035 
					133.795,17.136 135.611,16.087 133.797,18.33 135.613,17.282 133.8,20.461 135.616,19.413 133.802,21.853 135.618,20.805 
					133.804,23.015 135.62,21.966 133.806,24.932 135.623,23.883 133.808,26.121 135.624,25.072 135.112,26.978 135.627,26.682 				
					"/>
			</g>
		</g>
	</g>
</g>
</svg>
