<?xml version="1.0" encoding="utf-8"?>
<!-- Generator: Adobe Illustrator 17.0.0, SVG Export Plug-In . SVG Version: 6.00 Build 0)  -->
<!DOCTYPE svg PUBLIC "-//W3C//DTD SVG 1.1//EN" "http://www.w3.org/Graphics/SVG/1.1/DTD/svg11.dtd">
<svg version="1.1" id="Capa_1" xmlns="http://www.w3.org/2000/svg" xmlns:xlink="http://www.w3.org/1999/xlink" x="0px" y="0px"
	 width="200px" height="30px" viewBox="0 0 200 30" enable-background="new 0 0 200 30" xml:space="preserve">
<g id="Capa_1">
	<g>
		<g>
			<g>
				<polyline fill="none" stroke="#FFFFFF" stroke-linecap="round" stroke-linejoin="round" points="59.189,21.016 59.698,20.722 
					59.009,23.201 61.03,22.034 				"/>
				<polyline fill="none" stroke="#FFFFFF" stroke-linecap="round" stroke-linejoin="round" points="55.058,6.088 57.774,4.52 
					57.587,6.463 59.328,5.459 58.945,7.853 60.493,6.959 59.213,9.607 60.962,8.597 60.503,10.487 61.053,10.17 				"/>
				<polyline fill="none" stroke="#FFFFFF" stroke-linecap="round" stroke-linejoin="round" points="51.508,6.006 54.332,4.376 
					50.37,8.254 57.145,4.342 50.225,10.43 52.041,9.381 50.225,12.11 52.041,11.062 50.225,14.091 52.042,13.042 50.225,15.379 
					52.042,14.33 50.225,17.149 52.042,16.1 50.225,18.358 52.042,17.309 50.225,19.738 52.042,18.689 50.225,21.792 52.042,20.743 
					50.346,22.918 52.042,21.938 51.034,24.654 52.595,23.752 51.837,25.583 53.509,24.618 52.674,26.262 54.595,25.153 
					54.721,26.999 60.836,23.468 56.704,27.044 60.099,25.084 				"/>
				<polyline fill="none" stroke="#FFFFFF" stroke-linecap="round" stroke-linejoin="round" points="68.241,5.988 70.919,4.442 
					70.955,6.256 72.656,5.274 72.572,7.496 74.007,6.667 72.961,9.18 74.59,8.239 72.961,10.805 74.692,9.806 72.962,12.686 
					74.692,11.687 72.962,14.639 74.692,13.64 72.962,16.115 74.692,15.116 72.963,17.742 74.692,16.743 72.963,19.203 
					74.692,18.204 72.963,21.498 74.692,20.5 72.533,23.83 74.682,22.589 				"/>
				<polyline fill="none" stroke="#FFFFFF" stroke-linecap="round" stroke-linejoin="round" points="64.647,6.058 67.525,4.397 
					63.662,8.217 70.366,4.347 63.554,10.372 65.283,9.373 63.554,12.052 65.284,11.054 63.554,14.032 65.284,13.034 63.554,15.321 
					65.284,14.322 63.555,17.091 65.284,16.092 63.555,18.3 65.285,17.301 63.555,19.68 65.285,18.681 63.555,21.734 65.285,20.735 
					63.627,22.888 65.285,21.93 64.276,24.646 65.703,23.822 65.071,25.58 66.6,24.697 65.919,26.253 67.698,25.226 68.015,26.961 
					74.566,23.179 70.027,26.99 73.937,24.732 				"/>
				<polyline fill="none" stroke="#FFFFFF" stroke-linecap="round" stroke-linejoin="round" points="86.176,4.442 86.69,4.146 
					86.179,6.522 87.995,5.474 86.183,8.774 87.998,7.726 86.187,10.908 88,9.861 86.189,12.178 88.002,11.131 86.191,13.494 
					88.004,12.448 86.195,15.628 88.007,14.582 86.198,17.37 88.009,16.324 86.201,19.243 88.011,18.198 86.204,21.264 
					88.014,20.219 				"/>
				<polyline fill="none" stroke="#FFFFFF" stroke-linecap="round" stroke-linejoin="round" points="79.455,8.839 80.973,7.962 
					80.03,10.343 81.539,9.472 80.711,12.123 82.208,11.258 81.309,13.686 82.796,12.828 81.819,15.017 83.296,14.164 
					82.408,16.558 83.876,15.71 83.02,18.157 84.477,17.316 83.482,19.366 84.932,18.53 83.993,20.699 85.433,19.868 84.45,21.896 
					85.883,21.069 85.17,23.776 88.017,22.133 85.823,25.483 88.019,24.214 86.422,26.989 88.022,26.066 				"/>
				<polyline fill="none" stroke="#FFFFFF" stroke-linecap="round" stroke-linejoin="round" points="77.526,4.442 78.034,4.149 
					77.527,6.031 79.766,4.739 77.53,8.122 80.41,6.459 77.532,9.801 79.313,8.773 77.535,11.78 79.317,10.751 77.536,13.068 
					79.319,12.039 77.538,14.837 79.322,13.807 77.54,16.045 79.324,15.015 77.542,17.424 79.326,16.394 77.544,19.476 
					79.329,18.446 77.546,20.671 79.331,19.64 77.548,22.802 79.335,21.771 77.55,24.195 79.337,23.163 77.551,25.356 
					79.339,24.324 78.041,26.992 79.342,26.241 				"/>
				<polyline fill="none" stroke="#FFFFFF" stroke-linecap="round" stroke-linejoin="round" points="96.956,5.968 100.149,4.125 
					99.948,5.946 100.45,5.656 				"/>
				<polyline fill="none" stroke="#FFFFFF" stroke-linecap="round" stroke-linejoin="round" points="90.573,4.443 91.076,4.152 
					90.679,5.971 93.845,4.144 94.35,5.944 97.487,4.133 94.633,7.462 96.45,6.413 94.636,9.44 96.452,8.391 94.638,10.728 
					96.454,9.679 94.64,12.496 96.457,11.447 94.642,13.704 96.459,12.656 94.644,15.083 96.461,14.034 94.647,17.136 
					96.463,16.087 94.648,18.33 96.465,17.281 94.652,20.461 96.468,19.412 94.653,21.853 96.47,20.804 94.655,23.015 
					96.472,21.966 94.658,24.932 96.475,23.883 94.66,26.121 96.476,25.072 95.964,26.978 96.479,26.682 				"/>
				<polyline fill="none" stroke="#FFFFFF" stroke-linecap="round" stroke-linejoin="round" points="106.584,7.524 108.194,6.594 
					106.981,9.376 108.589,8.448 107.411,11.382 109.016,10.456 107.819,13.283 109.421,12.359 108.061,14.414 109.661,13.49 
					108.312,15.587 109.911,14.664 108.72,17.488 110.316,16.567 109.034,18.954 110.628,18.034 				"/>
				<polyline fill="none" stroke="#FFFFFF" stroke-linecap="round" stroke-linejoin="round" points="104.263,20.768 106.933,19.227 
					107.492,20.74 110.797,18.831 109.5,21.753 111.209,20.767 109.872,23.447 111.571,22.467 110.189,24.89 111.879,23.914 
					110.555,26.559 112.235,25.589 111.999,26.953 112.467,26.683 				"/>
				<polyline fill="none" stroke="#FFFFFF" stroke-linecap="round" stroke-linejoin="round" points="105.227,4.51 105.81,4.173 
					104.866,6.309 107.783,4.624 104.391,8.675 106.401,7.515 104.009,10.576 106.005,9.423 103.559,12.816 105.542,11.671 
					103.267,14.273 105.243,13.132 102.865,16.275 104.837,15.137 102.59,17.643 104.582,16.493 102.277,19.204 104.293,18.04 
					101.811,21.527 105.781,19.235 101.539,22.879 103.574,21.705 101.055,25.292 103.106,24.108 100.739,26.868 102.8,25.677 				
					"/>
				<polyline fill="none" stroke="#FFFFFF" stroke-linecap="round" stroke-linejoin="round" points="122.916,21.016 123.426,20.722 
					122.737,23.201 124.757,22.034 				"/>
				<polyline fill="none" stroke="#FFFFFF" stroke-linecap="round" stroke-linejoin="round" points="118.786,6.088 121.502,4.52 
					121.315,6.464 123.056,5.459 122.672,7.853 124.221,6.959 122.941,9.607 124.689,8.598 124.231,10.487 124.781,10.17 				"/>
				<polyline fill="none" stroke="#FFFFFF" stroke-linecap="round" stroke-linejoin="round" points="115.237,6.006 118.06,4.376 
					114.099,8.253 120.874,4.342 113.953,10.429 115.77,9.381 113.953,12.11 115.77,11.061 113.953,14.09 115.77,13.041 
					113.954,15.379 115.77,14.33 113.954,17.149 115.77,16.1 113.954,18.358 115.77,17.309 113.954,19.738 115.771,18.689 
					113.954,21.792 115.771,20.743 114.074,22.918 115.771,21.938 114.762,24.654 116.324,23.752 115.565,25.583 117.237,24.618 
					116.402,26.262 118.323,25.153 118.449,26.999 124.563,23.469 120.432,27.044 123.827,25.084 				"/>
				<polyline fill="none" stroke="#FFFFFF" stroke-linecap="round" stroke-linejoin="round" points="133.104,5.968 136.297,4.125 
					136.097,5.946 136.599,5.656 				"/>
				<polyline fill="none" stroke="#FFFFFF" stroke-linecap="round" stroke-linejoin="round" points="126.721,4.443 127.224,4.152 
					126.828,5.971 129.993,4.144 130.499,5.944 133.636,4.133 130.781,7.462 132.598,6.413 130.784,9.44 132.6,8.392 
					130.786,10.728 132.602,9.679 130.789,12.496 132.605,11.448 130.79,13.704 132.606,12.656 130.792,15.083 132.608,14.035 
					130.795,17.136 132.611,16.087 130.797,18.33 132.613,17.282 130.8,20.461 132.616,19.413 130.802,21.853 132.618,20.805 
					130.804,23.015 132.62,21.966 130.806,24.932 132.623,23.883 130.808,26.121 132.624,25.072 132.112,26.978 132.627,26.682 				
					"/>
				<polyline fill="none" stroke="#FFFFFF" stroke-linecap="round" stroke-linejoin="round" points="141.334,16.666 144.02,15.115 
					144.969,16.648 147.025,15.461 				"/>
				<polyline fill="none" stroke="#FFFFFF" stroke-linecap="round" stroke-linejoin="round" points="141.333,5.97 144.511,4.135 
					144.537,5.956 147.71,4.124 147.3,5.944 147.799,5.656 				"/>
				<polyline fill="none" stroke="#FFFFFF" stroke-linecap="round" stroke-linejoin="round" points="139.042,4.442 139.545,4.152 
					139.044,6.032 142.316,4.143 139.047,8.122 140.833,7.091 139.049,9.802 140.839,8.768 139.051,11.78 140.845,10.745 
					139.053,13.068 140.849,12.031 139.055,14.837 140.855,13.797 139.056,16.045 140.859,15.005 139.058,17.424 143.05,15.119 
					139.061,19.477 140.836,18.452 139.062,20.671 140.84,19.645 139.065,22.803 140.847,21.773 139.067,24.195 140.852,23.164 
					139.068,25.357 140.856,24.324 139.547,26.998 142.706,25.174 141.621,26.991 144.783,25.165 145.38,26.978 147.781,25.592 				
					"/>
			</g>
		</g>
	</g>
</g>
</svg>
