<?xml version="1.0" encoding="utf-8"?>
<!-- Generator: Adobe Illustrator 17.0.0, SVG Export Plug-In . SVG Version: 6.00 Build 0)  -->
<!DOCTYPE svg PUBLIC "-//W3C//DTD SVG 1.1//EN" "http://www.w3.org/Graphics/SVG/1.1/DTD/svg11.dtd">
<svg version="1.1" id="Capa_1" xmlns="http://www.w3.org/2000/svg" xmlns:xlink="http://www.w3.org/1999/xlink" x="0px" y="0px"
	 width="200px" height="30px" viewBox="0 0 200 30" enable-background="new 0 0 200 30" xml:space="preserve">
<g id="Capa_1">
	<g>
		<g>
			<g>
				<polyline fill="none" stroke="#FFFFFF" stroke-linecap="round" stroke-linejoin="round" points="62.484,20.947 62.993,20.653 
					62.335,23.003 64.325,21.854 				"/>
				<polyline fill="none" stroke="#FFFFFF" stroke-linecap="round" stroke-linejoin="round" points="58.354,6.02 61.069,4.452 
					60.79,6.336 62.549,5.321 62.186,7.698 63.74,6.801 62.508,9.38 64.233,8.385 63.84,10.418 64.349,10.125 				"/>
				<polyline fill="none" stroke="#FFFFFF" stroke-linecap="round" stroke-linejoin="round" points="54.804,5.938 57.627,4.308 
					53.69,8.059 60.287,4.25 53.52,10.244 55.337,9.195 53.52,11.884 55.337,10.835 53.52,13.21 55.337,12.162 53.52,14.836 
					55.337,13.787 53.521,16.826 55.337,15.778 53.521,18.038 55.337,16.989 53.521,19.29 55.337,18.241 53.521,21.154 
					55.338,20.105 53.717,23.222 55.343,22.283 54.571,24.973 56.199,24.033 55.898,26.161 57.791,25.068 57.869,26.91 
					64.151,23.283 60.439,26.909 63.014,25.422 				"/>
				<polyline fill="none" stroke="#FFFFFF" stroke-linecap="round" stroke-linejoin="round" points="71.536,5.919 74.214,4.373 
					74.145,6.137 75.87,5.141 75.796,7.351 77.247,6.513 76.257,8.954 77.857,8.029 76.257,11.08 77.987,10.081 76.257,13.297 
					77.987,12.298 76.258,15.471 77.987,14.472 76.258,16.949 77.987,15.951 76.258,18.449 77.988,17.45 76.258,19.719 
					77.988,18.721 76.259,21.846 77.988,20.848 75.663,23.941 77.959,22.616 				"/>
				<polyline fill="none" stroke="#FFFFFF" stroke-linecap="round" stroke-linejoin="round" points="67.943,5.99 70.82,4.329 
					66.983,8.022 73.503,4.258 66.849,10.186 68.579,9.187 66.85,11.826 68.579,10.827 66.85,13.152 68.579,12.154 66.85,14.778 
					68.579,13.779 66.85,16.768 68.58,15.77 66.85,17.98 68.58,16.981 66.85,19.232 68.58,18.233 66.85,21.095 68.58,20.096 
					67.001,23.19 68.581,22.278 67.823,24.96 69.321,24.095 69.16,26.142 70.923,25.124 71.161,26.873 77.885,22.991 74,26.832 
					76.925,25.143 				"/>
				<polyline fill="none" stroke="#FFFFFF" stroke-linecap="round" stroke-linejoin="round" points="89.471,4.374 89.985,4.077 
					89.475,6.341 91.29,5.293 89.478,8.588 91.293,7.54 89.482,10.682 91.296,9.635 89.485,12.452 91.298,11.405 89.488,14.105 
					91.3,13.059 89.49,15.306 91.302,14.26 89.493,17.05 91.304,16.004 89.496,18.796 91.306,17.75 89.499,20.626 91.309,19.581 
									"/>
				<polyline fill="none" stroke="#FFFFFF" stroke-linecap="round" stroke-linejoin="round" points="82.75,8.771 84.269,7.894 
					83.29,10.182 84.799,9.311 83.969,11.958 85.467,11.093 84.555,13.488 86.042,12.629 85.221,15.23 86.697,14.378 85.916,17.046 
					87.38,16.201 86.598,18.827 88.05,17.988 87.061,20.038 88.505,19.204 87.531,21.266 88.967,20.437 87.929,22.307 
					89.359,21.481 88.596,24.049 91.313,22.481 89.283,25.846 91.315,24.673 89.678,26.877 91.317,25.931 				"/>
				<polyline fill="none" stroke="#FFFFFF" stroke-linecap="round" stroke-linejoin="round" points="80.821,4.374 81.329,4.081 
					80.823,5.851 83.027,4.578 80.825,7.936 83.669,6.294 80.827,9.575 84.174,7.643 80.829,10.901 82.611,9.872 80.831,12.525 
					82.613,11.496 80.833,14.514 82.617,13.485 80.835,15.725 82.619,14.695 80.837,16.976 82.621,15.946 80.839,18.838 
					82.624,17.808 80.841,21.019 82.627,19.988 80.844,23.261 82.631,22.229 80.847,25.214 82.634,24.182 81.148,26.927 
					82.637,26.067 				"/>
				<polyline fill="none" stroke="#FFFFFF" stroke-linecap="round" stroke-linejoin="round" points="100.251,5.9 103.444,4.056 
					103.243,5.878 103.745,5.588 				"/>
				<polyline fill="none" stroke="#FFFFFF" stroke-linecap="round" stroke-linejoin="round" points="93.868,4.374 94.371,4.084 
					93.868,5.852 96.945,4.076 97.439,5.877 100.578,4.065 97.928,7.235 99.745,6.186 97.93,8.561 99.747,7.512 97.932,10.185 
					99.749,9.136 97.935,12.174 99.752,11.125 97.937,13.385 99.754,12.336 97.939,14.636 99.755,13.587 97.941,16.498 
					99.758,15.449 97.944,18.678 99.761,17.629 97.948,20.92 99.764,19.871 97.95,22.872 99.767,21.823 97.953,24.758 99.77,23.709 
					97.955,26.354 99.772,25.305 99.26,26.91 99.774,26.613 				"/>
				<polyline fill="none" stroke="#FFFFFF" stroke-linecap="round" stroke-linejoin="round" points="109.88,7.455 111.49,6.526 
					110.256,9.208 111.863,8.279 110.685,11.209 112.289,10.282 111.084,13.074 112.687,12.149 111.422,14.651 113.022,13.727 
					111.738,16.124 113.336,15.201 111.967,17.193 113.563,16.272 112.3,18.747 113.894,17.826 				"/>
				<polyline fill="none" stroke="#FFFFFF" stroke-linecap="round" stroke-linejoin="round" points="107.559,20.7 110.228,19.158 
					110.59,20.673 114.072,18.663 112.773,21.58 114.483,20.594 113.137,23.239 114.837,22.257 113.552,25.126 115.239,24.152 
					114.302,26.91 115.659,26.126 				"/>
				<polyline fill="none" stroke="#FFFFFF" stroke-linecap="round" stroke-linejoin="round" points="108.522,4.441 109.105,4.105 
					108.186,6.113 111.057,4.456 107.713,8.473 109.724,7.312 107.34,10.329 109.338,9.175 107.039,11.829 109.026,10.682 
					106.67,13.668 108.649,12.525 106.218,15.919 108.187,14.782 105.943,17.29 107.931,16.142 105.659,18.706 107.668,17.546 
					105.235,20.814 108.076,19.174 104.74,23.282 106.778,22.105 104.231,25.82 106.285,24.633 105.313,26.893 105.912,26.546 				
					"/>
				<polyline fill="none" stroke="#FFFFFF" stroke-linecap="round" stroke-linejoin="round" points="126.212,20.947 126.721,20.653 
					126.063,23.003 128.052,21.854 				"/>
				<polyline fill="none" stroke="#FFFFFF" stroke-linecap="round" stroke-linejoin="round" points="122.081,6.02 124.796,4.452 
					124.517,6.336 126.276,5.321 125.914,7.698 127.467,6.801 126.236,9.38 127.96,8.385 127.567,10.418 128.076,10.125 				"/>
				<polyline fill="none" stroke="#FFFFFF" stroke-linecap="round" stroke-linejoin="round" points="118.532,5.938 121.355,4.308 
					117.418,8.059 124.015,4.25 117.248,10.243 119.064,9.195 117.248,11.884 119.064,10.835 117.248,13.21 119.064,12.162 
					117.248,14.836 119.064,13.787 117.249,16.826 119.064,15.778 117.249,18.038 119.064,16.99 117.249,19.29 119.064,18.242 
					117.249,21.153 119.065,20.105 117.445,23.222 119.07,22.284 118.299,24.973 119.926,24.034 119.626,26.161 121.518,25.068 
					121.597,26.91 127.878,23.283 124.166,26.909 126.741,25.422 				"/>
				<polyline fill="none" stroke="#FFFFFF" stroke-linecap="round" stroke-linejoin="round" points="136.399,5.9 139.592,4.056 
					139.392,5.878 139.894,5.588 				"/>
				<polyline fill="none" stroke="#FFFFFF" stroke-linecap="round" stroke-linejoin="round" points="130.016,4.374 130.519,4.084 
					130.016,5.852 133.093,4.076 133.587,5.877 136.726,4.065 134.076,7.235 135.893,6.186 134.078,8.561 135.895,7.512 
					134.08,10.185 135.897,9.136 134.083,12.174 135.9,11.125 134.085,13.385 135.902,12.336 134.087,14.636 135.904,13.587 
					134.089,16.498 135.906,15.448 134.092,18.678 135.91,17.629 134.096,20.92 135.913,19.871 134.098,22.872 135.916,21.823 
					134.101,24.758 135.918,23.708 134.103,26.354 135.921,25.304 135.408,26.91 135.922,26.613 				"/>
				<polyline fill="none" stroke="#FFFFFF" stroke-linecap="round" stroke-linejoin="round" points="146.577,5.919 149.255,4.373 
					149.185,6.137 150.91,5.141 150.836,7.351 152.287,6.514 151.297,8.953 152.897,8.03 151.297,11.08 153.027,10.081 
					151.298,13.297 153.027,12.299 151.298,15.471 153.027,14.472 151.298,16.949 153.027,15.951 151.299,18.449 153.028,17.451 
					151.299,19.719 153.028,18.721 151.299,21.846 153.028,20.848 150.703,23.941 152.999,22.616 				"/>
				<polyline fill="none" stroke="#FFFFFF" stroke-linecap="round" stroke-linejoin="round" points="142.983,5.99 145.861,4.329 
					142.023,8.022 148.543,4.258 141.89,10.186 143.62,9.187 141.89,11.826 143.62,10.827 141.89,13.152 143.62,12.154 
					141.89,14.778 143.62,13.779 141.891,16.768 143.621,15.769 141.891,17.98 143.621,16.981 141.891,19.232 143.621,18.233 
					141.891,21.095 143.621,20.096 142.041,23.19 143.622,22.278 142.863,24.96 144.362,24.095 144.2,26.142 145.963,25.124 
					146.202,26.873 152.925,22.992 149.04,26.832 151.965,25.143 				"/>
			</g>
		</g>
	</g>
</g>
</svg>
