<?xml version="1.0" encoding="UTF-8" standalone="no"?>
<!-- Generator: Adobe Illustrator 17.0.0, SVG Export Plug-In . SVG Version: 6.00 Build 0)  -->
<!DOCTYPE svg  PUBLIC '-//W3C//DTD SVG 1.1//EN'  'http://www.w3.org/Graphics/SVG/1.1/DTD/svg11.dtd'>
<svg id="Capa_1" xmlns="http://www.w3.org/2000/svg" xml:space="preserve" height="500px" viewBox="0 0 1500 500" width="1500px" version="1.1" y="0px" x="0px" xmlns:xlink="http://www.w3.org/1999/xlink" enable-background="new 0 0 1500 500">
		<path d="m-323 504v-291.6c639 0 1307.6 22.6 1775.6 291.6h-1775.6z" fill="#A5B051"/>
	<path d="m321.53 314.36c-1.585-0.315-16.203 3.001-16.203 3.001l-0.129-0.794-16.187 3.555c0.746 5.087 1.443 8.883 1.92 9.373 1.611 1.652 32.159-5.619 32.159-5.619s0.02-9.2-1.56-9.51z" fill="#261F13"/>
	<path d="m374.97 317.2c-1.172-2.829-8.822-0.823-9.845-2.082-0.068-0.083-0.156-0.298-0.26-0.607l-10.257 1.481c1.315 4.23 2.447 7.092 3.424 7.449 2.774 1.005 16.155 0.61 17.068 0.264 0.93-0.34 1.06-3.68-0.12-6.5z" fill="#261F13"/>
	<path d="m389.79 315.72c-0.695-0.979-7.88-0.662-8.827-0.253-0.118 0.051-0.37-0.396-0.715-1.212l-8.977 2.038c1.533 4.286 2.663 7.143 3.637 7.495 2.779 1.008 13.967-1.163 14.88-1.508 0.92-0.36 0.7-5.59 0.01-6.57z" fill="#2C2313"/>
	<path d="m347.04 312.55c-1.585-0.315-15.159 3.001-15.159 3.001l-0.131-0.789-16.289 2.851c0.784 5.439 1.522 9.561 2.022 10.072 1.613 1.652 31.116-5.621 31.116-5.621s0.03-9.19-1.56-9.51z" fill="#2C2313"/>
	<path d="m230.6 170.58c-5.214 23.058-6.867 87.369 3.947 98.363 10.815 10.995 57.066 17.093 69.589 8.73-15.646-18.847-28.532-100.63-40.255-107.1-2.72-2.8-28.06-23.05-33.28 0.01z" fill="#461C09"/>
	<path d="m269.12 170.58c-5.214 23.058-0.128 87.081 10.687 98.076 10.815 10.997 64.371 16.3 69.589 8.733 11.584-9.951-34.421-98.431-46.143-104.9-2.73-2.81-28.92-24.97-34.14-1.91z" fill="#82421D"/>
	<path d="m267.8 139.63s6.131 0.051 10.095 0.313c3.965 0.264 0.529-12.307 15.199-12.233 14.667 0.076 24.774 28.827 24.774 28.827l-50.068-0.17v-16.74z" fill="#622F1A"/>
	<path d="m218.98 156.95s-6.758-1.952-5.627-8.193c1.13-6.237-11.954-8.002-5.275-15.668 6.678-7.665 13.14-4.881 17.864-5.787 4.725-0.902 19.289-18.907 34.844-16.516 15.553 2.395 9.168 26.223 11.678 29.477 2.511 3.251-3.266 16.488-3.266 16.488l-50.21 0.2z" fill="#894522"/>
	<path d="m350.15 276.21h-13.616c11.003 23.773 15.902 40.148 17.232 40.67 1.329 0.519 10.211-1.885 11.581-2.371 1.38-0.49-15.19-38.3-15.19-38.3z" fill="#331C10"/>
	<path d="m364.28 276.21h-13.616c11.503 23.579 18.002 39.698 19.618 40.205 1.616 0.505 10.366-0.4 11.175-1.068 0.81-0.67-17.18-39.14-17.18-39.14z" fill="#331C10"/>
	<path d="m339.3 313.84c0.96-2.186-7.137-31.543-7.137-31.543h-22.552s3.947 36.012 6.1 36.999c2.16 0.98 22.15-2.19 23.59-5.46z" fill="#393011"/>
	<path d="m312.05 316.3c1.998-2.1-6.401-32.264-6.401-32.264h-22.552s1.57 36.87 4.788 37.378c3.21 0.5 22.16-3.02 24.16-5.12z" fill="#393011"/>
		<polygon points="465.6 275.67 481.28 351.57 473.46 354.19 454.82 277.64" fill="#F3F3F3"/>
		<polygon points="264.95 339.26 272.45 336.27 260.48 287.29 251.06 289.88" fill="#F3F3F3"/>
		<polygon points="427.27 288.32 416.85 375.06 405.24 380 412.56 291.11" fill="#F3F3F3"/>
		<polygon points="201.76 355.92 216.78 351.53 233.95 289.88 221.18 289.88" fill="#F3F3F3"/>
		<polygon points="165.82 182.81 172.9 179.05 380.89 179.46 375.77 185.14" fill="#ccc"/>
		<polygon points="173.59 204.79 180.36 200.52 388.4 200.52 385.54 206.09" fill="#ccc"/>
		<polygon points="180.17 228.83 185.43 224.86 388.98 225.54 389.69 232.42" fill="#ccc"/>
		<polygon points="187.33 252.42 192.67 247.98 399.07 249.33 395.21 256.99" fill="#ccc"/>
		<polygon points="455.25 353.44 443.62 284.4 457.98 277.64 473.46 354.19" fill="#DEDEDE"/>
		<polygon points="249.5 337.91 237.54 284.84 249.02 277.64 264.95 339.26" fill="#DEDEDE"/>
		<polygon points="405.24 380 386.77 377.97 398.82 286.14 416.36 288.45" fill="#DCDCDC"/>
		<polygon points="202.39 355.81 187.52 354.12 213.07 280.12 224.81 286.87" fill="#DCDCDC"/>
		<polygon points="472.45 264.44 270.41 262.98 195.15 275.53 406.96 287.29" fill="#ccc"/>
		<g fill="#E0E0E0">
			<polygon points="158.51 161.59 367.79 161.62 373.39 177.15 163.62 176.83"/>
			<polygon points="165.82 182.81 374.17 183.24 379.77 198.77 170.92 198.04"/>
			<polygon points="173.59 204.79 380.81 205.11 386.42 220.64 178.7 220.02"/>
			<polygon points="180.17 228.83 388.42 230.16 394.03 245.69 185.27 244.07"/>
			<polygon points="187.33 252.42 395.9 254.92 401.51 270.45 192.42 267.66"/>
			<polygon points="195.15 275.53 401.35 279.74 406.29 295.95 199.32 291.18"/>
		</g>
		<polygon points="406.29 278.68 472.45 264.44 472.45 279.55 407.93 295.54" fill="#F3F3F3"/>
		<polygon points="158.7 161.59 172.96 156.05 382.12 156.75 367.38 161.78 350.62 161.74 343.65 163.47 331.2 163.5 335.3 161.59 207.82 161.59 200.4 163.39 188.22 163.39 192.34 161.64" fill="#ccc"/>
		<polygon points="382.12 156.75 417.56 276.26 418.96 290.84 406.29 295.95 367.11 161.59" fill="#F3F3F3"/>
		<polygon points="369.77 298.19 331.26 163.41 343.71 163.38 381.43 298.44" fill="#E7E7E7"/>
		<polygon points="343.46 163.47 350.25 161.78 387.78 296.31 381.43 298.44" fill="#F3F3F3"/>
		<polygon points="231.12 294.67 188.26 163.41 200.7 163.39 242.24 294.67" fill="#E7E7E7"/>
		<polygon points="200.21 163.39 207.58 161.41 249.5 292.9 242.24 294.67" fill="#F3F3F3"/>
		<path d="m115.36 443.61c0.332 0.883 0.581 1.731 0.734 2.302 0.247-0.242 0.552-0.421 0.894-0.513-0.41-0.42-1.02-1.06-1.62-1.79z" fill="none"/>
		<path d="m115.36 451.08c0.597-0.731 1.21-1.371 1.627-1.79-0.342-0.093-0.648-0.271-0.894-0.516-0.16 0.58-0.41 1.43-0.74 2.31z" fill="none"/>
		<path d="m119.68 451.08c-0.332-0.884-0.582-1.734-0.735-2.306-0.244 0.245-0.552 0.424-0.895 0.516 0.43 0.42 1.04 1.06 1.64 1.79z" fill="none"/>
		<path d="m119.68 443.61c-0.598 0.728-1.211 1.37-1.629 1.79 0.343 0.092 0.649 0.271 0.894 0.513 0.15-0.57 0.4-1.42 0.74-2.3z" fill="none"/>
		<path d="m119.54 447.35c0 0.178-0.024 0.35-0.068 0.518 0.571-0.155 1.433-0.364 2.364-0.518-0.93-0.153-1.792-0.361-2.364-0.516 0.04 0.17 0.07 0.34 0.07 0.52z" fill="none"/>
		<path d="m115.57 446.83c-0.573 0.155-1.434 0.364-2.363 0.516 0.93 0.154 1.791 0.363 2.363 0.518-0.043-0.167-0.07-0.338-0.07-0.518s0.02-0.35 0.07-0.52z" fill="none"/>
		<path d="m126.01 447.54c-0.131-0.077-0.276-0.138-0.433-0.19 0.157-0.053 0.303-0.112 0.433-0.187 1.953-1.127 2.622-3.625 1.494-5.578-1.127-1.953-3.623-2.621-5.575-1.493-0.131 0.074-0.256 0.168-0.38 0.28 0.034-0.162 0.054-0.319 0.054-0.469 0-2.256-1.829-4.085-4.084-4.085s-4.082 1.829-4.082 4.085c0 0.15 0.02 0.306 0.054 0.469-0.123-0.112-0.25-0.206-0.38-0.28-1.953-1.128-4.45-0.46-5.577 1.493s-0.458 4.451 1.494 5.578c0.128 0.076 0.275 0.134 0.432 0.187-0.157 0.053-0.304 0.115-0.432 0.19-1.953 1.126-2.621 3.623-1.494 5.577 1.127 1.952 3.625 2.619 5.577 1.493 0.129-0.074 0.255-0.171 0.38-0.281-0.034 0.162-0.054 0.32-0.054 0.47 0 2.255 1.828 4.082 4.082 4.082s4.084-1.828 4.084-4.082c0-0.15-0.02-0.308-0.054-0.47 0.123 0.111 0.249 0.206 0.38 0.281 1.953 1.127 4.45 0.459 5.577-1.495 1.13-1.96 0.46-4.46-1.49-5.58zm-6.54 0.32c-0.093 0.35-0.278 0.667-0.527 0.914 0.153 0.573 0.403 1.422 0.735 2.306-0.598-0.731-1.21-1.371-1.629-1.79-0.168 0.045-0.345 0.072-0.529 0.072-0.182 0-0.359-0.026-0.529-0.072-0.419 0.419-1.03 1.058-1.627 1.79 0.332-0.884 0.581-1.731 0.734-2.306-0.25-0.248-0.433-0.564-0.527-0.914-0.573-0.155-1.434-0.364-2.364-0.518 0.93-0.153 1.791-0.361 2.364-0.516 0.094-0.35 0.277-0.668 0.527-0.917-0.153-0.571-0.402-1.42-0.734-2.302 0.597 0.728 1.21 1.37 1.627 1.79 0.17-0.046 0.345-0.073 0.529-0.073s0.36 0.026 0.529 0.073c0.419-0.42 1.032-1.062 1.629-1.79-0.332 0.883-0.582 1.731-0.735 2.302 0.251 0.249 0.436 0.564 0.529 0.917 0.571 0.155 1.433 0.364 2.364 0.516-0.93 0.16-1.79 0.37-2.36 0.52z" fill="#fff"/>
		<path d="m119.47 446.83c-0.093-0.353-0.278-0.668-0.529-0.917-0.244-0.242-0.551-0.421-0.894-0.513-0.168-0.046-0.345-0.073-0.529-0.073-0.182 0-0.359 0.026-0.529 0.073-0.342 0.092-0.648 0.271-0.894 0.513-0.25 0.249-0.433 0.566-0.527 0.917-0.043 0.167-0.07 0.337-0.07 0.516 0 0.178 0.027 0.35 0.07 0.518 0.094 0.35 0.277 0.667 0.527 0.914 0.247 0.245 0.552 0.424 0.894 0.516 0.17 0.045 0.345 0.072 0.529 0.072 0.183 0 0.36-0.026 0.529-0.072 0.343-0.093 0.651-0.271 0.895-0.516 0.25-0.248 0.435-0.564 0.527-0.914 0.044-0.167 0.068-0.338 0.068-0.518s-0.03-0.35-0.07-0.52z" fill="#E1B33C"/>
		<path d="m94.604 404.93c0.153 0.405 0.267 0.795 0.337 1.057 0.112-0.112 0.253-0.193 0.41-0.234-0.192-0.2-0.473-0.5-0.747-0.83z" fill="none"/>
		<path d="m94.604 408.36c0.275-0.335 0.555-0.627 0.748-0.822-0.157-0.042-0.298-0.125-0.41-0.234-0.071 0.26-0.186 0.65-0.338 1.05z" fill="none"/>
		<path d="m96.585 408.36c-0.153-0.404-0.267-0.794-0.337-1.056-0.112 0.111-0.253 0.193-0.41 0.234 0.19 0.2 0.472 0.49 0.747 0.83z" fill="none"/>
		<path d="m96.585 404.93c-0.275 0.334-0.555 0.63-0.747 0.823 0.157 0.042 0.298 0.123 0.409 0.234 0.07-0.26 0.185-0.65 0.338-1.05z" fill="none"/>
		<path d="m96.52 406.64c0 0.083-0.011 0.162-0.031 0.238 0.262-0.072 0.658-0.168 1.085-0.238-0.427-0.07-0.823-0.165-1.085-0.236 0.02 0.08 0.031 0.16 0.031 0.24z" fill="none"/>
		<path d="m94.699 406.41c-0.262 0.072-0.659 0.167-1.085 0.236 0.426 0.071 0.823 0.167 1.085 0.238-0.021-0.077-0.033-0.155-0.033-0.238 0-0.09 0.012-0.17 0.033-0.24z" fill="none"/>
		<path d="m99.492 406.73c-0.06-0.034-0.127-0.064-0.199-0.087 0.072-0.023 0.139-0.05 0.199-0.084 0.896-0.519 1.204-1.664 0.686-2.561-0.518-0.896-1.663-1.202-2.56-0.686-0.06 0.034-0.117 0.078-0.175 0.129 0.017-0.076 0.024-0.146 0.024-0.216 0-1.034-0.839-1.874-1.874-1.874s-1.874 0.841-1.874 1.874c0 0.07 0.01 0.14 0.024 0.216-0.056-0.051-0.114-0.094-0.175-0.129-0.896-0.518-2.041-0.211-2.56 0.686-0.516 0.896-0.21 2.042 0.686 2.561 0.059 0.034 0.126 0.061 0.198 0.084-0.072 0.024-0.139 0.053-0.198 0.087-0.896 0.519-1.202 1.664-0.686 2.562 0.518 0.894 1.663 1.201 2.56 0.685 0.06-0.033 0.117-0.078 0.176-0.129-0.016 0.073-0.026 0.146-0.026 0.215 0 1.036 0.839 1.875 1.874 1.875s1.874-0.84 1.874-1.875c0-0.068-0.007-0.14-0.024-0.215 0.057 0.051 0.115 0.095 0.175 0.129 0.896 0.518 2.042 0.21 2.56-0.687 0.52-0.88 0.21-2.03-0.688-2.55zm-3.003 0.15c-0.043 0.162-0.127 0.306-0.242 0.421 0.07 0.262 0.184 0.652 0.337 1.056-0.275-0.334-0.555-0.627-0.747-0.822-0.078 0.023-0.159 0.033-0.243 0.033s-0.165-0.011-0.242-0.033c-0.193 0.194-0.474 0.486-0.748 0.822 0.153-0.404 0.267-0.794 0.337-1.056-0.115-0.115-0.2-0.259-0.242-0.421-0.262-0.072-0.659-0.168-1.085-0.238 0.426-0.07 0.823-0.165 1.085-0.236 0.043-0.162 0.127-0.306 0.242-0.421-0.071-0.263-0.184-0.652-0.337-1.057 0.275 0.334 0.555 0.63 0.748 0.823 0.077-0.022 0.157-0.034 0.242-0.034s0.165 0.013 0.243 0.034c0.192-0.193 0.474-0.487 0.747-0.823-0.153 0.405-0.267 0.795-0.338 1.057 0.116 0.115 0.2 0.259 0.243 0.421 0.262 0.072 0.658 0.167 1.085 0.236-0.426 0.07-0.822 0.17-1.085 0.24z" fill="#fff"/>
		<path d="m96.489 406.41c-0.043-0.162-0.127-0.306-0.243-0.421-0.112-0.112-0.251-0.193-0.409-0.234-0.078-0.022-0.159-0.034-0.243-0.034s-0.165 0.013-0.242 0.034c-0.157 0.042-0.298 0.123-0.41 0.234-0.115 0.115-0.2 0.259-0.242 0.421-0.021 0.077-0.033 0.154-0.033 0.236 0 0.083 0.012 0.162 0.033 0.238 0.043 0.162 0.127 0.306 0.242 0.421 0.112 0.111 0.253 0.193 0.41 0.234 0.077 0.023 0.157 0.033 0.242 0.033s0.165-0.011 0.243-0.033c0.157-0.042 0.298-0.125 0.41-0.234 0.115-0.115 0.2-0.259 0.242-0.421 0.021-0.077 0.031-0.155 0.031-0.238 0-0.09-0.011-0.17-0.031-0.24z" fill="#E1B33C"/>
		<path d="m279.33 436.34c0.132 0.353 0.232 0.692 0.293 0.923 0.099-0.099 0.221-0.17 0.359-0.208-0.16-0.16-0.41-0.42-0.65-0.71z" fill="none"/>
		<path d="m279.33 439.33c0.239-0.292 0.485-0.547 0.652-0.715-0.137-0.037-0.259-0.109-0.359-0.206-0.06 0.23-0.16 0.57-0.29 0.92z" fill="none"/>
		<path d="m281.06 439.33c-0.133-0.353-0.233-0.692-0.294-0.922-0.098 0.098-0.221 0.17-0.358 0.206 0.17 0.16 0.41 0.42 0.65 0.71z" fill="none"/>
		<path d="m281.06 436.34c-0.239 0.291-0.485 0.548-0.652 0.715 0.137 0.038 0.259 0.109 0.358 0.208 0.06-0.24 0.16-0.58 0.29-0.93z" fill="none"/>
		<path d="m281 437.83c0 0.073-0.01 0.142-0.027 0.209 0.229-0.062 0.574-0.145 0.946-0.209-0.372-0.061-0.717-0.144-0.946-0.204 0.02 0.06 0.03 0.13 0.03 0.2z" fill="none"/>
		<path d="m279.42 437.63c-0.229 0.06-0.574 0.143-0.946 0.204 0.372 0.063 0.717 0.146 0.946 0.209-0.017-0.067-0.028-0.136-0.028-0.209 0-0.07 0.01-0.14 0.03-0.2z" fill="none"/>
		<path d="m283.59 437.91c-0.053-0.029-0.111-0.055-0.173-0.077 0.062-0.02 0.121-0.044 0.173-0.073 0.781-0.451 1.049-1.45 0.598-2.232-0.45-0.783-1.45-1.049-2.232-0.598-0.052 0.031-0.103 0.068-0.153 0.112 0.013-0.065 0.022-0.127 0.022-0.186 0-0.903-0.731-1.635-1.635-1.635-0.902 0-1.633 0.731-1.633 1.635 0 0.059 0.009 0.122 0.022 0.186-0.05-0.044-0.1-0.081-0.151-0.112-0.781-0.451-1.78-0.183-2.232 0.598-0.45 0.781-0.183 1.781 0.598 2.232 0.051 0.029 0.11 0.055 0.173 0.073-0.062 0.022-0.121 0.046-0.173 0.077-0.781 0.452-1.049 1.452-0.598 2.232 0.452 0.783 1.45 1.049 2.232 0.598 0.052-0.029 0.101-0.068 0.151-0.112-0.013 0.066-0.022 0.127-0.022 0.186 0 0.903 0.733 1.635 1.633 1.635 0.903 0 1.635-0.731 1.635-1.635 0-0.059-0.007-0.121-0.022-0.186 0.05 0.044 0.1 0.082 0.153 0.112 0.781 0.451 1.78 0.183 2.232-0.598 0.44-0.78 0.18-1.78-0.61-2.23zm-2.61 0.13c-0.038 0.14-0.111 0.267-0.211 0.366 0.061 0.229 0.161 0.569 0.294 0.922-0.239-0.292-0.485-0.547-0.652-0.715-0.067 0.018-0.138 0.028-0.211 0.028s-0.144-0.011-0.211-0.028c-0.167 0.168-0.413 0.424-0.652 0.715 0.132-0.353 0.232-0.692 0.293-0.922-0.1-0.099-0.173-0.226-0.211-0.366-0.229-0.062-0.574-0.145-0.946-0.209 0.372-0.061 0.717-0.144 0.946-0.204 0.038-0.142 0.111-0.27 0.211-0.367-0.061-0.229-0.161-0.57-0.293-0.923 0.239 0.291 0.485 0.548 0.652 0.715 0.067-0.018 0.138-0.028 0.211-0.028s0.144 0.011 0.211 0.028c0.167-0.167 0.413-0.425 0.652-0.715-0.133 0.353-0.233 0.692-0.294 0.923 0.1 0.098 0.175 0.225 0.211 0.367 0.229 0.06 0.574 0.143 0.946 0.204-0.38 0.07-0.73 0.15-0.95 0.21z" fill="#fff"/>
		<path d="m280.98 437.63c-0.038-0.143-0.111-0.27-0.211-0.367-0.099-0.099-0.221-0.17-0.358-0.208-0.067-0.018-0.138-0.028-0.211-0.028s-0.144 0.011-0.211 0.028c-0.137 0.038-0.259 0.109-0.359 0.208-0.1 0.098-0.173 0.226-0.211 0.367-0.017 0.065-0.028 0.133-0.028 0.204 0 0.073 0.011 0.142 0.028 0.209 0.038 0.14 0.111 0.267 0.211 0.366 0.099 0.098 0.221 0.17 0.359 0.206 0.067 0.018 0.138 0.028 0.211 0.028s0.144-0.011 0.211-0.028c0.137-0.037 0.26-0.109 0.358-0.206 0.1-0.099 0.173-0.226 0.211-0.366 0.017-0.067 0.027-0.136 0.027-0.209-0.01-0.07-0.02-0.14-0.03-0.2z" fill="#E1B33C"/>
		<path d="m187.27 447.73c0.145 0.386 0.254 0.757 0.321 1.005 0.107-0.105 0.241-0.183 0.391-0.223-0.18-0.19-0.45-0.47-0.71-0.79z" fill="none"/>
		<path d="m187.27 451c0.261-0.319 0.529-0.598 0.712-0.783-0.15-0.039-0.283-0.117-0.391-0.223-0.07 0.24-0.17 0.61-0.32 1z" fill="none"/>
		<path d="m189.15 451c-0.145-0.385-0.254-0.756-0.321-1.005-0.106 0.106-0.241 0.183-0.391 0.223 0.19 0.18 0.45 0.46 0.71 0.78z" fill="none"/>
		<path d="m189.15 447.73c-0.261 0.319-0.529 0.598-0.712 0.783 0.15 0.039 0.283 0.118 0.391 0.223 0.07-0.24 0.18-0.61 0.32-1z" fill="none"/>
		<path d="m189.09 449.37c0 0.077-0.011 0.154-0.029 0.225 0.25-0.066 0.626-0.159 1.033-0.225-0.407-0.067-0.783-0.158-1.033-0.226 0.02 0.06 0.03 0.14 0.03 0.22z" fill="none"/>
		<path d="m187.36 449.14c-0.25 0.068-0.628 0.159-1.033 0.226 0.407 0.066 0.783 0.159 1.033 0.225-0.02-0.071-0.031-0.146-0.031-0.225 0-0.09 0.01-0.17 0.03-0.24z" fill="none"/>
		<path d="m191.92 449.45c-0.057-0.033-0.121-0.06-0.189-0.082 0.068-0.024 0.132-0.05 0.189-0.082 0.852-0.492 1.145-1.583 0.652-2.436-0.492-0.852-1.582-1.145-2.436-0.652-0.057 0.032-0.112 0.074-0.166 0.123 0.015-0.072 0.023-0.139 0.023-0.206 0-0.984-0.798-1.784-1.784-1.784-0.985 0-1.782 0.8-1.782 1.784 0 0.067 0.009 0.134 0.023 0.206-0.054-0.049-0.109-0.09-0.166-0.123-0.853-0.492-1.942-0.2-2.436 0.652-0.492 0.852-0.201 1.944 0.652 2.436 0.056 0.032 0.121 0.059 0.189 0.082-0.068 0.023-0.132 0.049-0.189 0.082-0.853 0.492-1.145 1.582-0.652 2.436 0.492 0.851 1.582 1.145 2.436 0.653 0.057-0.033 0.112-0.076 0.166-0.125-0.015 0.071-0.024 0.138-0.024 0.205 0 0.985 0.798 1.784 1.782 1.784 0.985 0 1.784-0.798 1.784-1.784 0-0.067-0.009-0.134-0.023-0.205 0.054 0.049 0.109 0.09 0.166 0.125 0.853 0.491 1.944 0.198 2.436-0.654 0.5-0.86 0.2-1.95-0.65-2.44zm-2.86 0.14c-0.04 0.155-0.121 0.292-0.231 0.402 0.066 0.249 0.176 0.621 0.321 1.005-0.261-0.319-0.529-0.598-0.712-0.783-0.073 0.022-0.151 0.031-0.231 0.031-0.081 0-0.156-0.01-0.23-0.031-0.183 0.183-0.45 0.464-0.712 0.783 0.145-0.385 0.254-0.756 0.321-1.005-0.109-0.11-0.189-0.247-0.23-0.402-0.25-0.066-0.628-0.159-1.033-0.225 0.407-0.067 0.783-0.158 1.033-0.226 0.04-0.155 0.121-0.292 0.23-0.402-0.067-0.248-0.176-0.619-0.321-1.005 0.261 0.319 0.529 0.598 0.712 0.783 0.073-0.022 0.15-0.032 0.23-0.032 0.079 0 0.157 0.011 0.231 0.032 0.183-0.183 0.45-0.464 0.712-0.783-0.145 0.386-0.254 0.757-0.321 1.005 0.11 0.11 0.19 0.247 0.231 0.402 0.25 0.068 0.626 0.159 1.033 0.226-0.4 0.06-0.78 0.15-1.03 0.22z" fill="#fff"/>
		<path d="m189.06 449.14c-0.04-0.155-0.121-0.292-0.231-0.402-0.107-0.105-0.241-0.183-0.391-0.223-0.073-0.022-0.151-0.032-0.231-0.032-0.081 0-0.156 0.011-0.23 0.032-0.15 0.039-0.283 0.118-0.391 0.223-0.109 0.11-0.189 0.247-0.23 0.402-0.02 0.073-0.031 0.146-0.031 0.226 0 0.077 0.012 0.154 0.031 0.225 0.04 0.155 0.121 0.292 0.23 0.402 0.107 0.106 0.241 0.183 0.391 0.223 0.073 0.022 0.15 0.031 0.23 0.031 0.079 0 0.157-0.01 0.231-0.031 0.15-0.039 0.284-0.117 0.391-0.223 0.109-0.11 0.189-0.247 0.231-0.402 0.02-0.071 0.029-0.146 0.029-0.225s-0.01-0.17-0.03-0.24z" fill="#E1B33C"/>
		<path d="m49.054 435.01c0.194 0.515 0.339 1.013 0.429 1.345 0.144-0.143 0.322-0.245 0.524-0.3-0.246-0.25-0.605-0.63-0.953-1.05z" fill="none"/>
		<path d="m49.054 439.37c0.349-0.427 0.707-0.798 0.952-1.045-0.201-0.055-0.38-0.158-0.524-0.3-0.09 0.34-0.235 0.84-0.428 1.35z" fill="none"/>
		<path d="m51.574 439.37c-0.194-0.515-0.341-1.011-0.43-1.345-0.143 0.143-0.322 0.245-0.523 0.3 0.246 0.25 0.604 0.63 0.953 1.05z" fill="none"/>
		<path d="m51.574 435.01c-0.349 0.425-0.707 0.801-0.952 1.045 0.2 0.055 0.38 0.158 0.523 0.3 0.089-0.34 0.235-0.84 0.429-1.35z" fill="none"/>
		<path d="m51.493 437.19c0 0.105-0.015 0.208-0.04 0.303 0.335-0.088 0.839-0.212 1.382-0.303-0.543-0.088-1.046-0.21-1.382-0.3 0.025 0.1 0.04 0.2 0.04 0.3z" fill="none"/>
		<path d="m49.174 436.89c-0.335 0.09-0.839 0.212-1.382 0.3 0.543 0.09 1.047 0.215 1.382 0.303-0.026-0.095-0.04-0.198-0.04-0.303-0.001-0.1 0.015-0.2 0.04-0.3z" fill="none"/>
		<path d="m55.276 437.3c-0.077-0.045-0.161-0.081-0.254-0.112 0.092-0.028 0.177-0.065 0.254-0.107 1.141-0.66 1.532-2.119 0.873-3.262-0.658-1.14-2.117-1.531-3.26-0.873-0.077 0.045-0.149 0.1-0.222 0.165 0.021-0.095 0.031-0.186 0.031-0.275 0-1.316-1.068-2.387-2.387-2.387-1.317 0-2.385 1.071-2.385 2.387 0 0.088 0.012 0.178 0.031 0.275-0.072-0.065-0.145-0.12-0.222-0.165-1.141-0.658-2.599-0.267-3.258 0.873-0.658 1.143-0.269 2.602 0.873 3.262 0.076 0.043 0.161 0.079 0.253 0.107-0.092 0.031-0.177 0.067-0.253 0.112-1.141 0.658-1.531 2.117-0.873 3.26 0.659 1.14 2.118 1.531 3.258 0.873 0.077-0.043 0.15-0.1 0.223-0.165-0.02 0.095-0.032 0.186-0.032 0.275 0 1.318 1.068 2.387 2.385 2.387 1.318 0 2.387-1.068 2.387-2.387 0-0.088-0.011-0.178-0.031-0.275 0.072 0.065 0.145 0.122 0.222 0.165 1.141 0.658 2.6 0.267 3.26-0.873 0.66-1.15 0.269-2.61-0.873-3.27zm-3.823 0.19c-0.054 0.208-0.161 0.391-0.308 0.536 0.089 0.333 0.234 0.83 0.43 1.345-0.349-0.427-0.707-0.798-0.952-1.045-0.098 0.026-0.201 0.04-0.309 0.04-0.106 0-0.209-0.015-0.308-0.04-0.245 0.245-0.603 0.618-0.952 1.045 0.194-0.515 0.339-1.011 0.429-1.345-0.146-0.145-0.254-0.33-0.309-0.536-0.335-0.088-0.839-0.212-1.382-0.303 0.543-0.088 1.047-0.21 1.382-0.3 0.054-0.205 0.162-0.391 0.309-0.536-0.089-0.332-0.234-0.83-0.429-1.345 0.349 0.425 0.707 0.801 0.952 1.045 0.098-0.027 0.201-0.04 0.308-0.04s0.211 0.015 0.309 0.04c0.245-0.243 0.603-0.62 0.952-1.045-0.194 0.515-0.341 1.013-0.43 1.345 0.148 0.145 0.254 0.328 0.309 0.536 0.335 0.09 0.839 0.212 1.382 0.3-0.544 0.08-1.047 0.2-1.383 0.29z" fill="#fff"/>
		<path d="m51.453 436.89c-0.054-0.208-0.161-0.391-0.309-0.536-0.143-0.143-0.322-0.245-0.523-0.3-0.098-0.027-0.201-0.04-0.309-0.04-0.106 0-0.209 0.015-0.308 0.04-0.201 0.055-0.38 0.158-0.524 0.3-0.146 0.145-0.254 0.331-0.309 0.536-0.026 0.098-0.04 0.198-0.04 0.3 0 0.105 0.016 0.208 0.04 0.303 0.054 0.208 0.162 0.391 0.309 0.536 0.144 0.143 0.322 0.245 0.524 0.3 0.098 0.026 0.201 0.04 0.308 0.04s0.211-0.015 0.309-0.04c0.2-0.055 0.381-0.158 0.523-0.3 0.147-0.145 0.254-0.33 0.308-0.536 0.026-0.095 0.04-0.198 0.04-0.303 0.001-0.1-0.014-0.2-0.039-0.3z" fill="#E1B33C"/>
		<path d="m249.82 401.46c0.156 0.416 0.273 0.816 0.345 1.083 0.116-0.114 0.259-0.198 0.421-0.239-0.19-0.2-0.48-0.5-0.76-0.84z" fill="none"/>
		<path d="m249.82 404.97c0.281-0.342 0.569-0.643 0.765-0.841-0.161-0.043-0.305-0.127-0.421-0.241-0.07 0.27-0.18 0.67-0.34 1.08z" fill="none"/>
		<path d="m251.85 404.97c-0.156-0.414-0.273-0.813-0.345-1.083-0.115 0.115-0.259 0.198-0.421 0.241 0.2 0.2 0.49 0.5 0.77 0.84z" fill="none"/>
		<path d="m251.85 401.46c-0.281 0.343-0.569 0.643-0.765 0.842 0.161 0.042 0.305 0.127 0.42 0.239 0.08-0.27 0.19-0.67 0.35-1.08z" fill="none"/>
		<path d="m251.78 403.22c0 0.083-0.011 0.166-0.032 0.242 0.27-0.071 0.674-0.171 1.112-0.242-0.438-0.072-0.842-0.17-1.112-0.243 0.02 0.07 0.03 0.15 0.03 0.24z" fill="none"/>
		<path d="m249.92 402.97c-0.27 0.073-0.675 0.172-1.112 0.243 0.437 0.072 0.842 0.171 1.112 0.242-0.021-0.077-0.033-0.159-0.033-0.242s0.01-0.16 0.03-0.24z" fill="none"/>
		<path d="m254.83 403.3c-0.061-0.035-0.131-0.065-0.205-0.089 0.074-0.026 0.143-0.054 0.205-0.087 0.918-0.531 1.233-1.704 0.703-2.624-0.53-0.918-1.704-1.233-2.622-0.702-0.061 0.035-0.121 0.079-0.178 0.131 0.016-0.077 0.026-0.149 0.026-0.221 0-1.06-0.859-1.92-1.92-1.92s-1.92 0.861-1.92 1.92c0 0.072 0.01 0.144 0.024 0.221-0.057-0.051-0.117-0.095-0.178-0.131-0.918-0.531-2.091-0.216-2.622 0.702-0.53 0.919-0.216 2.092 0.702 2.624 0.061 0.033 0.129 0.062 0.203 0.087-0.074 0.026-0.143 0.054-0.203 0.089-0.918 0.53-1.232 1.703-0.702 2.622 0.531 0.917 1.704 1.233 2.622 0.703 0.061-0.035 0.121-0.082 0.179-0.134-0.016 0.077-0.026 0.15-0.026 0.222 0 1.061 0.859 1.92 1.92 1.92s1.92-0.859 1.92-1.92c0-0.071-0.009-0.144-0.026-0.222 0.057 0.054 0.117 0.099 0.178 0.134 0.919 0.529 2.092 0.214 2.622-0.704 0.55-0.91 0.24-2.09-0.68-2.62zm-3.08 0.16c-0.044 0.166-0.129 0.315-0.248 0.432 0.072 0.27 0.189 0.669 0.345 1.083-0.281-0.342-0.569-0.643-0.765-0.841-0.079 0.024-0.162 0.034-0.249 0.034-0.085 0-0.168-0.011-0.248-0.034-0.198 0.198-0.485 0.499-0.765 0.841 0.156-0.414 0.273-0.813 0.345-1.083-0.117-0.117-0.204-0.266-0.248-0.432-0.27-0.071-0.675-0.171-1.112-0.242 0.437-0.072 0.842-0.17 1.112-0.243 0.044-0.166 0.131-0.314 0.248-0.431-0.072-0.267-0.189-0.667-0.345-1.083 0.281 0.343 0.569 0.643 0.765 0.842 0.079-0.024 0.162-0.034 0.248-0.034 0.087 0 0.17 0.011 0.249 0.034 0.198-0.199 0.485-0.499 0.765-0.842-0.156 0.416-0.273 0.816-0.345 1.083 0.118 0.118 0.205 0.266 0.249 0.431 0.27 0.073 0.674 0.172 1.112 0.243-0.44 0.07-0.84 0.17-1.11 0.24z" fill="#fff"/>
		<path d="m251.75 402.97c-0.044-0.166-0.129-0.314-0.249-0.431-0.115-0.114-0.259-0.198-0.42-0.239-0.079-0.024-0.162-0.034-0.249-0.034-0.085 0-0.168 0.011-0.248 0.034-0.161 0.042-0.305 0.127-0.421 0.239-0.117 0.118-0.204 0.266-0.248 0.431-0.021 0.078-0.033 0.16-0.033 0.243s0.012 0.166 0.033 0.242c0.044 0.166 0.131 0.315 0.248 0.432 0.116 0.115 0.259 0.198 0.421 0.241 0.079 0.024 0.162 0.034 0.248 0.034 0.087 0 0.17-0.011 0.249-0.034 0.161-0.043 0.306-0.127 0.421-0.241 0.118-0.117 0.204-0.266 0.248-0.432 0.021-0.077 0.032-0.159 0.032-0.242s-0.01-0.16-0.03-0.24z" fill="#E1B33C"/>
		<path d="m345.88 435.26c0.305 0.812 0.535 1.594 0.675 2.119 0.226-0.226 0.507-0.386 0.823-0.474-0.38-0.39-0.95-0.98-1.5-1.65z" fill="none"/>
		<path d="m345.88 442.14c0.549-0.671 1.113-1.259 1.498-1.647-0.316-0.084-0.597-0.248-0.823-0.474-0.14 0.53-0.37 1.31-0.68 2.12z" fill="none"/>
		<path d="m349.85 442.14c-0.305-0.811-0.536-1.593-0.675-2.119-0.225 0.225-0.508 0.388-0.824 0.474 0.38 0.39 0.94 0.98 1.49 1.65z" fill="none"/>
		<path d="m349.85 435.26c-0.549 0.67-1.113 1.26-1.499 1.647 0.316 0.087 0.597 0.248 0.822 0.474 0.15-0.52 0.38-1.3 0.68-2.12z" fill="none"/>
		<path d="m349.73 438.7c0 0.166-0.022 0.326-0.063 0.477 0.527-0.143 1.32-0.336 2.177-0.477-0.857-0.14-1.649-0.331-2.177-0.475 0.03 0.16 0.06 0.32 0.06 0.48z" fill="none"/>
		<path d="m346.07 438.23c-0.527 0.143-1.321 0.333-2.176 0.475 0.855 0.14 1.649 0.333 2.176 0.477-0.04-0.151-0.065-0.311-0.065-0.477 0.01-0.16 0.03-0.32 0.07-0.47z" fill="none"/>
		<path d="m355.68 438.88c-0.121-0.072-0.255-0.126-0.399-0.175 0.144-0.049 0.28-0.103 0.399-0.172 1.797-1.038 2.412-3.335 1.375-5.134-1.036-1.797-3.334-2.41-5.131-1.375-0.121 0.07-0.236 0.158-0.349 0.259 0.031-0.15 0.049-0.292 0.049-0.432 0-2.073-1.682-3.758-3.759-3.758-2.075 0-3.756 1.685-3.756 3.758 0 0.139 0.02 0.281 0.049 0.432-0.113-0.101-0.228-0.189-0.349-0.259-1.797-1.035-4.093-0.422-5.131 1.375-1.036 1.799-0.422 4.097 1.375 5.134 0.118 0.07 0.253 0.122 0.398 0.172-0.145 0.049-0.28 0.104-0.398 0.175-1.797 1.038-2.411 3.332-1.375 5.132 1.038 1.796 3.334 2.411 5.131 1.375 0.121-0.071 0.234-0.158 0.35-0.26-0.032 0.15-0.051 0.292-0.051 0.431 0 2.077 1.682 3.759 3.756 3.759 2.077 0 3.759-1.682 3.759-3.759 0-0.138-0.018-0.281-0.049-0.431 0.112 0.103 0.228 0.189 0.349 0.26 1.797 1.036 4.095 0.421 5.131-1.376 1.04-1.79 0.42-4.09-1.38-5.12zm-6.02 0.3c-0.085 0.325-0.254 0.613-0.485 0.842 0.139 0.527 0.37 1.309 0.675 2.119-0.549-0.671-1.113-1.259-1.499-1.647-0.155 0.043-0.317 0.066-0.486 0.066-0.167 0-0.33-0.023-0.486-0.066-0.386 0.387-0.949 0.975-1.498 1.647 0.305-0.811 0.535-1.593 0.675-2.119-0.231-0.229-0.4-0.518-0.485-0.842-0.527-0.143-1.321-0.336-2.176-0.477 0.855-0.14 1.649-0.331 2.176-0.475 0.085-0.325 0.254-0.615 0.485-0.842-0.142-0.526-0.37-1.307-0.675-2.119 0.549 0.67 1.113 1.26 1.498 1.647 0.156-0.043 0.317-0.066 0.486-0.066 0.17 0 0.331 0.022 0.486 0.066 0.386-0.386 0.95-0.977 1.499-1.647-0.305 0.812-0.536 1.594-0.678 2.119 0.232 0.228 0.402 0.518 0.486 0.842 0.527 0.143 1.32 0.333 2.177 0.475-0.87 0.14-1.66 0.34-2.19 0.48z" fill="#fff"/>
		<path d="m349.66 438.23c-0.085-0.326-0.254-0.615-0.486-0.842-0.225-0.226-0.505-0.386-0.822-0.474-0.155-0.043-0.317-0.066-0.486-0.066-0.167 0-0.33 0.022-0.486 0.066-0.316 0.087-0.597 0.248-0.823 0.474-0.231 0.228-0.4 0.519-0.485 0.842-0.04 0.153-0.065 0.31-0.065 0.475 0 0.166 0.024 0.326 0.065 0.477 0.085 0.325 0.254 0.613 0.485 0.842 0.226 0.225 0.507 0.388 0.823 0.474 0.156 0.043 0.317 0.066 0.486 0.066 0.17 0 0.331-0.023 0.486-0.066 0.316-0.084 0.599-0.248 0.824-0.474 0.231-0.229 0.399-0.518 0.485-0.842 0.04-0.151 0.063-0.311 0.063-0.477 0.03-0.16 0-0.32-0.04-0.47z" fill="#E1B33C"/>
</svg>
