<?xml version="1.0" encoding="UTF-8" standalone="no"?>
<!-- Generator: Adobe Illustrator 17.0.0, SVG Export Plug-In . SVG Version: 6.00 Build 0)  -->
<!DOCTYPE svg  PUBLIC '-//W3C//DTD SVG 1.1//EN'  'http://www.w3.org/Graphics/SVG/1.1/DTD/svg11.dtd'>
<svg id="Capa_1" xmlns="http://www.w3.org/2000/svg" xml:space="preserve" height="960px" viewBox="0 0 640 960" width="640px" version="1.1" y="0px" x="0px" xmlns:xlink="http://www.w3.org/1999/xlink" enable-background="new 0 0 640 960">
			<defs>
				<rect id="SVGID_1_" x="-1.801" height="942" width="645.8"/>
			</defs>
			<clipPath id="SVGID_2_">
				<use overflow="visible" xlink:href="#SVGID_1_"/>
			</clipPath>
				<linearGradient id="cielo_1_" y2="165.6" gradientUnits="userSpaceOnUse" x2="619.38" gradientTransform="translate(-298.62 -182.62)" y1="1313.3" x1="619.38">
				<stop stop-color="#B5CCB8" offset=".5108"/>
				<stop stop-color="#A2C7CB" offset="1"/>
			</linearGradient>
			<rect id="cielo" clip-path="url(#SVGID_2_)" height="1147.7" width="646.47" y="-17.021" x="-2.473" fill="url(#cielo_1_)"/>
<g id="sol">
		<circle opacity=".2" r="524" cy="621" cx="320" enable-background="new    " fill="#F3E3B9"/>
		<circle opacity=".3" r="340" cy="621" cx="320" enable-background="new    " fill="#ECD493"/>
		<circle cy="621" cx="320" r="189" fill="#E3BF62"/>
</g>
<g id="montañas">
		<defs>
			<polygon id="SVGID_3_" points="312.49 770.92 366.41 667.24 420.33 770.92"/>
		</defs>
		<clipPath id="SVGID_4_">
			<use overflow="visible" xlink:href="#SVGID_3_"/>
		</clipPath>
		<g clip-path="url(#SVGID_4_)">
			<polygon points="312.49 770.92 366.41 770.92 366.41 667.24" fill="#95817B"/>
			<polygon points="366.41 667.24 366.41 770.92 420.33 770.92" fill="#7D6E69"/>
		</g>
		<defs>
			<polygon id="SVGID_5_" points="312.49 770.92 366.41 667.24 420.33 770.92"/>
		</defs>
		<clipPath id="SVGID_6_">
			<use overflow="visible" xlink:href="#SVGID_5_"/>
		</clipPath>
		<g clip-path="url(#SVGID_6_)">
			<path d="m341.93 707.07c0.316 3.708 3.577 6.46 7.285 6.147 1.364-0.117 2.599-0.633 3.599-1.423 0.742 3.216 3.745 5.483 7.128 5.196 2.397-0.204 4.387-1.64 5.416-3.631 0.308 0.408 0.664 0.774 1.053 1.101v-47.227c-3.105 0.257-24.795 36.123-24.482 39.832h-0.01z" fill="#E5E5E4"/>
			<path d="m390 705.86c-0.314-3.708-19.881-38.938-23.589-38.623v47.227c1.315 1.109 3.046 1.722 4.895 1.566 3.109-0.262 5.539-2.599 6.061-5.533 1.356 1.362 3.28 2.139 5.344 1.965 3.717-0.306 7.611-2.88 7.297-6.597v-0.02z" fill="#CAC9C9"/>
		</g>
		<defs>
			<polygon id="SVGID_7_" points="9.41 803.91 75.641 676.54 141.88 803.91"/>
		</defs>
		<clipPath id="SVGID_8_">
			<use overflow="visible" xlink:href="#SVGID_7_"/>
		</clipPath>
		<g clip-path="url(#SVGID_8_)">
			<polygon points="9.41 803.91 75.641 803.91 75.641 676.54" fill="#AE9892"/>
			<polygon points="75.641 676.54 75.641 803.91 141.88 803.91" fill="#938581"/>
		</g>
		<defs>
			<polygon id="SVGID_9_" points="9.41 803.91 75.641 676.54 141.88 803.91"/>
		</defs>
		<clipPath id="SVGID_10_">
			<use overflow="visible" xlink:href="#SVGID_9_"/>
		</clipPath>
		<g clip-path="url(#SVGID_10_)">
			<path d="m45.571 725.48c0.387 4.555 4.393 7.936 8.949 7.55 1.676-0.143 3.191-0.777 4.42-1.747 0.911 3.95 4.599 6.735 8.756 6.383 2.944-0.25 5.389-2.015 6.653-4.459 0.378 0.501 0.817 0.95 1.294 1.352v-58.012c-3.821 0.33-30.455 44.377-30.07 48.939h-0.002z" fill="#fff"/>
			<path d="m104.62 723.99c-0.385-4.555-24.42-47.83-28.976-47.445v58.012c1.615 1.362 3.742 2.116 6.013 1.924 3.819-0.323 6.802-3.194 7.443-6.797 1.666 1.673 4.029 2.627 6.566 2.413 4.562-0.394 9.349-3.556 8.962-8.11l-0.01 0.02z" fill="#E2E2E2"/>
		</g>
		<defs>
			<polygon id="SVGID_11_" points="238.95 773.34 305.18 645.97 371.42 773.34"/>
		</defs>
		<clipPath id="SVGID_12_">
			<use overflow="visible" xlink:href="#SVGID_11_"/>
		</clipPath>
		<g clip-path="url(#SVGID_12_)">
			<polygon points="238.95 773.34 305.18 773.34 305.18 645.97" fill="#95817B"/>
			<polygon points="305.18 645.97 305.18 773.34 371.42 773.34" fill="#7D6E69"/>
		</g>
		<defs>
			<polygon id="SVGID_13_" points="238.95 773.34 305.18 645.97 371.42 773.34"/>
		</defs>
		<clipPath id="SVGID_14_">
			<use overflow="visible" xlink:href="#SVGID_13_"/>
		</clipPath>
		<g clip-path="url(#SVGID_14_)">
			<path d="m275.11 694.9c0.387 4.555 4.393 7.936 8.948 7.55 1.677-0.143 3.192-0.777 4.421-1.747 0.911 3.95 4.599 6.735 8.756 6.383 2.944-0.25 5.389-2.015 6.653-4.459 0.378 0.501 0.816 0.95 1.294 1.352v-58.012c-3.813 0.33-30.459 44.377-30.073 48.939z" fill="#E5E5E4"/>
			<path d="m334.16 693.42c-0.385-4.555-24.42-47.83-28.976-47.445v58.012c1.615 1.362 3.742 2.116 6.013 1.924 3.82-0.323 6.802-3.194 7.444-6.797 1.665 1.673 4.029 2.627 6.566 2.413 4.562-0.394 9.349-3.556 8.962-8.11v0.01z" fill="#CAC9C9"/>
		</g>
		<defs>
			<polygon id="SVGID_15_" points="465.5 770.92 531.73 643.55 597.97 770.92"/>
		</defs>
		<clipPath id="SVGID_16_">
			<use overflow="visible" xlink:href="#SVGID_15_"/>
		</clipPath>
		<g clip-path="url(#SVGID_16_)">
			<polygon points="465.5 770.92 531.73 770.92 531.73 643.55" fill="#95817B"/>
			<polygon points="531.73 643.55 531.73 770.92 597.97 770.92" fill="#7D6E69"/>
		</g>
		<defs>
			<polygon id="SVGID_17_" points="465.5 770.92 531.73 643.55 597.97 770.92"/>
		</defs>
		<clipPath id="SVGID_18_">
			<use overflow="visible" xlink:href="#SVGID_17_"/>
		</clipPath>
		<g clip-path="url(#SVGID_18_)">
			<path d="m501.66 692.49c0.387 4.555 4.393 7.936 8.948 7.55 1.677-0.143 3.191-0.777 4.421-1.747 0.911 3.95 4.599 6.735 8.756 6.383 2.944-0.25 5.389-2.015 6.653-4.459 0.378 0.501 0.816 0.95 1.294 1.352v-58.012c-3.813 0.33-30.459 44.377-30.073 48.939z" fill="#E5E5E4"/>
			<path d="m560.71 691c-0.385-4.555-24.42-47.83-28.976-47.445v58.012c1.615 1.362 3.742 2.116 6.013 1.924 3.82-0.323 6.802-3.194 7.444-6.797 1.665 1.673 4.029 2.627 6.566 2.413 4.562-0.394 9.349-3.556 8.962-8.11v0.01z" fill="#CAC9C9"/>
		</g>
		<defs>
			<polygon id="SVGID_19_" points="126.69 788.62 207.7 632.82 288.72 788.62"/>
		</defs>
		<clipPath id="SVGID_20_">
			<use overflow="visible" xlink:href="#SVGID_19_"/>
		</clipPath>
		<g clip-path="url(#SVGID_20_)">
			<polygon points="126.69 788.62 207.7 788.62 207.7 632.82" fill="#AE9892"/>
			<polygon points="207.7 632.82 207.7 788.62 288.72 788.62" fill="#938581"/>
		</g>
		<defs>
			<polygon id="SVGID_21_" points="126.69 788.62 207.7 632.82 288.72 788.62"/>
		</defs>
		<clipPath id="SVGID_22_">
			<use overflow="visible" xlink:href="#SVGID_21_"/>
		</clipPath>
		<g clip-path="url(#SVGID_22_)">
			<path d="m170.92 692.68c0.473 5.571 5.373 9.707 10.946 9.235 2.051-0.175 3.904-0.952 5.407-2.138 1.113 4.833 5.627 8.239 10.71 7.809 3.6-0.306 6.591-2.465 8.137-5.454 0.463 0.613 0.999 1.162 1.583 1.653v-70.963c-4.674 0.386-37.257 54.273-36.783 59.848h-0.01z" fill="#fff"/>
			<path d="m243.15 690.86c-0.473-5.572-29.871-58.509-35.445-58.037v70.963c1.977 1.667 4.576 2.588 7.356 2.355 4.672-0.396 8.32-3.908 9.105-8.314 2.037 2.046 4.928 3.213 8.032 2.952 5.575-0.483 11.424-4.352 10.958-9.928v0.01z" fill="#E2E2E2"/>
		</g>
		<defs>
			<polygon id="SVGID_23_" points="355.16 770.92 436.17 615.12 517.19 770.92"/>
		</defs>
		<clipPath id="SVGID_24_">
			<use overflow="visible" xlink:href="#SVGID_23_"/>
		</clipPath>
		<g clip-path="url(#SVGID_24_)">
			<polygon points="355.16 770.92 436.17 770.92 436.17 615.12" fill="#AE9892"/>
			<polygon points="436.17 615.12 436.17 770.92 517.19 770.92" fill="#938581"/>
		</g>
		<defs>
			<polygon id="SVGID_25_" points="355.16 770.92 436.17 615.12 517.19 770.92"/>
		</defs>
		<clipPath id="SVGID_26_">
			<use overflow="visible" xlink:href="#SVGID_25_"/>
		</clipPath>
		<g clip-path="url(#SVGID_26_)">
			<path d="m399.39 674.98c0.472 5.571 5.373 9.707 10.945 9.235 2.051-0.175 3.904-0.952 5.408-2.138 1.113 4.833 5.626 8.239 10.71 7.809 3.599-0.306 6.591-2.465 8.137-5.454 0.463 0.613 0.999 1.162 1.583 1.653v-70.963c-4.666 0.386-37.249 54.273-36.775 59.848h-0.01z" fill="#fff"/>
			<path d="m471.62 673.16c-0.473-5.572-29.872-58.509-35.446-58.037v70.963c1.977 1.667 4.576 2.588 7.356 2.355 4.672-0.396 8.32-3.908 9.105-8.314 2.037 2.046 4.928 3.213 8.032 2.952 5.575-0.483 11.432-4.352 10.958-9.928l-0.01 0.01z" fill="#E2E2E2"/>
		</g>
</g>
<g id="arboles">
	<rect y="758.81" x="365.94" height="14.366" width="2.585" fill="#69462E"/>
	<path d="m367.23 725.72c-5.629 0-10.196 4.567-10.196 10.198v15.239c0 5.635 4.566 10.196 10.196 10.196 5.634 0 10.196-4.561 10.196-10.196v-15.239c0-5.632-4.562-10.201-10.193-10.201h-0.01z" fill="#68754E"/>
	<rect y="755.76" x="417.98" height="13.222" width="2.38" fill="#69462E"/>
	<path d="m419.17 725.31c-5.181 0-9.384 4.202-9.384 9.385v14.024c0 5.184 4.203 9.382 9.384 9.382 5.184 0 9.382-4.197 9.382-9.382v-14.024c0-5.181-4.2-9.381-9.381-9.381v-0.01z" fill="#68754E"/>
	<rect y="749.57" x="546.48" height="13.221" width="2.378" fill="#69462E"/>
	<path d="m547.67 719.13c-5.181 0-9.384 4.203-9.384 9.386v14.024c0 5.186 4.203 9.382 9.384 9.382 5.184 0 9.382-4.196 9.382-9.382v-14.024c0-5.189-4.2-9.389-9.381-9.389z" fill="#68754E"/>
	<rect y="749.57" x="575.88" height="13.221" width="2.379" fill="#69462E"/>
	<path d="m577.08 719.13c-5.18 0-9.383 4.203-9.383 9.386v14.024c0 5.186 4.203 9.382 9.383 9.382 5.185 0 9.382-4.196 9.382-9.382v-14.024c0-5.189-4.2-9.389-9.381-9.389z" fill="#68754E"/>
	<rect y="758.4" x="395.87" height="14.417" width="2.841" fill="#69462E"/>
	<polygon points="397.3 712.83 383.52 759.53 397.3 759.53 411.08 759.53" fill="#68754E"/>
	<rect y="756.06" x="446.83" height="12.654" width="2.493" fill="#69462E"/>
	<polygon points="448.07 716.06 435.98 757.06 448.07 757.06 460.17 757.06" fill="#68754E"/>
	<rect y="752.15" x="513.04" height="11.77" width="2.319" fill="#69462E"/>
	<polygon points="514.2 714.95 502.95 753.08 514.2 753.08 525.45 753.08" fill="#68754E"/>
	<rect y="754.86" x="460.09" height="14.365" width="2.586" fill="#69462E"/>
	<path d="m461.38 721.79c-5.629 0-10.196 4.566-10.196 10.198v15.239c0 5.636 4.566 10.195 10.196 10.195 5.636 0 10.197-4.559 10.197-10.195v-15.239c0-5.64-4.562-10.201-10.193-10.201l-0.01 0.01z" fill="#8B8C43"/>
	<rect y="771.88" x="147.2" height="14.366" width="2.586" fill="#69462E"/>
	<path d="m148.49 738.8c-5.63 0-10.197 4.568-10.197 10.2v15.238c0 5.635 4.566 10.196 10.197 10.196 5.634 0 10.196-4.561 10.196-10.196v-15.238c0.008-5.632-4.554-10.201-10.193-10.201h-0.01z" fill="#8B8C43"/>
	<rect y="776.87" x="95.311" height="14.366" width="2.587" fill="#69462E"/>
	<path d="m96.599 743.79c-5.631 0-10.197 4.567-10.197 10.2v15.238c0 5.635 4.566 10.196 10.197 10.196 5.634 0 10.196-4.561 10.196-10.196v-15.238c0.008-5.632-4.554-10.201-10.193-10.201h-0.008z" fill="#8B8C43"/>
	<rect y="778.07" x="110.77" height="14.366" width="2.587" fill="#69462E"/>
	<path d="m112.06 744.99c-5.631 0-10.196 4.567-10.196 10.2v15.238c0 5.635 4.566 10.196 10.196 10.196 5.634 0 10.196-4.561 10.196-10.196v-15.238c0.008-5.64-4.554-10.201-10.193-10.201h-0.01z" fill="#68754E"/>
	<rect y="772.55" x="170.66" height="14.417" width="2.841" fill="#69462E"/>
	<polygon points="172.08 726.98 158.3 773.69 172.08 773.69 185.86 773.69" fill="#8B8C43"/>
	<rect y="750.86" x="497.71" height="14.417" width="2.842" fill="#69462E"/>
	<polygon points="499.13 705.28 485.35 751.99 499.13 751.99 512.92 751.99" fill="#8B8C43"/>
	<rect y="750.05" x="530.82" height="14.417" width="2.841" fill="#69462E"/>
	<polygon points="532.25 704.48 518.47 751.19 532.25 751.19 546.03 751.19" fill="#8B8C43"/>
	<rect y="750.7" x="560.04" height="13.254" width="2.612" fill="#69462E"/>
	<polygon points="561.35 708.8 548.68 751.74 561.35 751.74 574.03 751.74" fill="#8B8C43"/>
	<rect y="775.14" x="121.88" height="14.417" width="2.841" fill="#69462E"/>
	<polygon points="123.31 729.56 109.52 776.27 123.31 776.27 137.09 776.27" fill="#8B8C43"/>
</g>
<path d="m-113.39 815.64c513.53-75.436 1055.2-75.429 1568.7 0v113.06h-1568.7c0.027-37.693 0.027-75.379 0.027-113.06h-0.02z" fill="#565B2A"/>
<path d="m-870 1050v-291.6c639 0 1307.6 22.6 1775.6 291.6h-1775.6z" fill="#9FAA52"/>
	<path d="m644.42 467.97c0.465-2.56-1.749-3.44-4.674-3.549 0.707-2.78 1.092-4.643 1.092-4.643l2.729-5.256c2.632 3.492 4.313 6.473 4.313 6.473l9.824-4.911c-4.427-10.312-9.417-19.056-9.417-19.056l15.421-15.664-3.239 0.216-6.515 4.211 0.816-12.723-2.176-0.132-1.521 14.107-6.015 5.431c-0.526-2.211-11.173-12.715-13.335-16.465-2.162-3.751-7.591-11.206-10.094-18.458s-3.373-19.828-3.373-19.828c8.38-5.437 15.082-36.359 15.082-36.359l-3.123-0.591s-0.07 8.711-2.906 17.867c-2.836 9.155-11.087 16.152-10.994 15.505 0.093-0.645-2.503-6.598-7.155-12.929-5.519-7.512-12.597-13.027-14.141-15.213-1.542-2.185-6.632-12.587-8.582-16.638s-1.195-4.606-0.397-6.636 1.249-1.639 2.789-8.833c1.542-7.194-4.676-23.839-4.676-23.839l-3.189 1.045c2.112 2.921 4.768 13.814 4.578 13.953 0.611 7.488-4.976 13.471-4.976 13.471-1.977-5.042-14.172-20.034-14.172-20.034l0.463 4.999c10.765 10.849 16.67 34.362 16.67 34.362s-6.45-6.804-20.262-16.424c-13.812-9.619-33.267-32.843-33.267-32.843l-1.288 4.266c1.169 3.615 30.876 31.859 30.876 31.859-2.858 1.091-13.119 1.993-37.483-1.169-24.366-3.162-31.08-11.648-31.08-11.648l-0.395 2.744c1.953 5.203 28.096 10.089 24.692 10.282s-12.513 7.176-12.513 7.176l0.742 3.063c1.603-1.756 18.418-9.496 18.418-9.496 6.299 3.164 44.04 3.71 44.04 3.71s12.182 10.384 27.469 22.673c15.286 12.289 15.623 22.865 15.623 22.865-16.241 1.402-30.293-7.102-30.293-7.102l-0.102 1.227c3.848 6.12 31.212 10.759 32.04 10.872 0.563 9.365 4.627 23.009 4.627 23.009-6.948 1.355-28.995-1.491-37.976-8.312-8.981-6.82-22.319-24.437-22.319-24.437l-1.745 1.571c0.999 2.44 17.911 22.337 17.911 22.337l-7.052-1.533 0.601 1.657c5.004 5.126 52.537 15.072 52.537 15.072s0.997 1.369 3.484 6.37l0.146 5.991-9.855-12.123-0.92 0.715 10.782 16.609v13.491c-2.141-1.756-20.084-6.899-28.515-8.739-5.184-1.131-17.051-8.892-24.836-14.104-7.783-5.212-17.324-17.17-17.324-17.17 4.752-16.596-12.877-45.073-12.877-45.073l-2.204 1.344s6.699 8.355 10.635 19.162 0.384 22.188 0 21.502c-0.383-0.686-2.368-3.923-11.345-7.359-12.418-4.752-26.911-2.45-30.031-3.465-3.121-1.014-15.761-7.434-20.65-9.956-4.89-2.522-5.999-3.687-6.706-6.203-0.705-2.516-0.627-3.135-4.395-11.14-3.769-8.006-20.005-18.859-20.005-18.859l-2.365 3.254c4.22 1.321 14.827 9.928 14.744 10.194 6.099 6.771 5.002 16.466 5.002 16.466-5.643-3.457-28.637-9.283-28.637-9.283l3.768 3.441c28.005 4.701 41.97 22.346 41.97 22.346s-11.012-0.855-31.647-0.372c-20.635 0.482-56.928-9.096-56.928-9.096l1.431 1.942c3.803 2.654 53.969 11.761 53.969 11.761-2.008 3.064-11.426 11.164-37.689 25.295-26.262 14.131-39.091 10.701-39.091 10.701l0.734 1.097c8.892 4.497 36.785-8.489 33.83-5.621-3.475 3.373-8.152 15.652-8.152 15.652l0.895 1.11c0.286-2.819 13.206-20.803 13.206-20.803 8.513-1.396 45.998-27.473 45.998-27.473s19.595 1.402 43.638 2.449c24.043 1.047 32.138 10.983 32.138 10.983-14.927 12.797-35.687 13.483-35.687 13.483l0.843 0.843c8.275 3.174 39.233-10.205 40.131-10.679 1.268 3.106 22.266 19.648 22.266 19.648-5.833 6.201-31.699 19.471-45.533 19.24-13.832-0.231-38.94-7.512-38.94-7.512l-0.204 1.234c2.775 1.642 38.762 8.885 38.762 8.885l-8.202 2.223c-6.685-0.006-19.291-1.434-19.291-1.434v1.14c6.685 0.448 11.463 0.831 14.774 1.126l1.71 1.589c1.105 0.179 2.948-0.055 5.317-0.596 5.002 0.397 14.788 8.839 10.637 10.428-4.682 1.793-40.966 21.021-40.966 21.021l-8.694-0.163-0.335 1.467h8.026s-3.177 4.074-8.193 9.125c-5.016 5.052-30.819 10.982-39.18 9.189-8.361-1.792-17.002-20.595-20.178-27.439-3.178-6.844-4.581-24.686-4.581-24.686l-1.773-0.245 1.003 23.301-21.06-10.62 0.068 2.048 23.341 13.595c0.836 4.725 16.944 25.366 16.944 25.366s-18.169 0.217-24.078 0.434c-5.909 0.217-13.822 0.652-26.976-2.173-13.154-2.824-30.93-9.269-30.93-9.269s-12.041-38.801-12.877-40.43c-0.836-1.63 2.341-5.703 2.341-5.703 15.829-9.777 19.395-30.797 19.395-30.797h-2.341c-1.673 14.828-22.072 29.168-22.072 29.168s-0.866-1.566-2.538-5.64c-1.672-4.074-2.093-4.04-4.19-10.425-1.783-5.432-2.3-7.726-1.855-19.458 0.477-12.541 6.249-23.571 6.249-23.571l-1.178-0.708c-8.193 8.473-10.366 30.96-9.363 37.804s4.515 14.665 10.868 32.101c5.951 16.33 9.553 33.47 9.689 35.258-0.331-0.319-4.116-3.715-9.522-6.091-8.528-3.748-14.38-11.08-20.733-16.784s-12.039-14.176-12.039-14.176c-25.75-32.427-57.185-46.929-57.185-46.929l0.836 3.585c8.528 0.489 58.69 44.484 52.336 45.462s-19.396-0.815-22.238-2.607c-2.843-1.792-6.389-2.321-8.9-2.218-3.756 0.153-6.149 1.893-8.489 2.382-2.341 0.489-6.521 0.163-6.521 0.163s-1.17 1.63 1.003 2.445c2.174 0.815 7.358-0.489 9.865-1.63 2.508-1.14 6.729-1.77 11.577 1.164 4.849 2.933 29.221 5.029 29.221 5.029 1.86 3.625 4.953 7.827 8.745 12.133-8.638 2.295-31.282 8.526-31.653 8.569-2.307 0.88-11.497 3.295-27.066-3.065-18.17-7.422-33.17-13.054-33.17-13.054s-17.597-27.088-24.505-36.675-2.064-19.519-1.294-21.765l-0.766 1.533s-1.038 10.741-0.996 14.948c0.033 3.402-16.233-17.572-21.746-16.769l0.13 1.208c-1.929-0.319 9.297 3.528 22.877 21.987 14.532 19.754 18.689 29.15 19.109 32.173 0 0-39.143-12.321-42.882-11.599l-0.253 1.744s28.043 5.991 43.156 13.414c15.114 7.424 23.075 11.012 23.075 11.012s-23.505 6.184-38.229 2.016l-4.615 2.008s20.903 2.841 26.286 2.135c0 0 3.679 4.293-13.568 13.184-4.139 1.227-6.72 2.018-12.181 0.97l0.62 3.29s17.622-2.599 23.199-7.416c5.577-4.816 4.824-6.588 6.222-8.265 1.399-1.676 2.86-2.815 7.359-3.066s14.66-0.37 17.324-0.077c2.664 0.294 17.04 8.677 24.887 7.998 4.671-0.404 15.399-4.606 19.215-5.417 2.949-0.825 12.767-3.192 16.762-3.884 2.111-0.366 8.688-1.942 12.338 2.664 3.855 3.553 7.923 6.929 11.887 9.839 12.206 8.962 42.471 15.154 42.471 15.154-6.688 8.636-34.236 14.3-39.253 15.115-5.016 0.815-18.243-1.686-18.243-1.686-35.002-4.78-46.45-21.522-46.45-21.522l-0.056 3.368c10.366 14.014 58.69 24.877 58.69 24.877-14.024 20.03-36.117 15.371-36.117 15.371l0.501 2.118c27.589 3.585 44.142-20.206 44.142-20.206 21.068-1.63 45.48-17.109 45.48-17.109 8.026 2.607 44.835 0.513 57.376-0.465 12.54-0.978 35.09-8.497 35.09-8.497-3.177 4.725-9.531 16.132-9.531 16.132l2.397 0.706c9.452-18.919 17.807-26.201 17.807-26.201 10.732-12.034 46.4-23.335 44.617-22.466-1.784 0.869-10.812 19.016-10.812 19.016l1.448 0.538c6.912-14.557 16.106-21.464 16.106-21.464 20.956-15.643 74.676-12.13 84.442-8.518 6.949 2.57 8.57 16.354 8.029 24.36-0.125 1.368-2.466 23.914-2.453 23.916-2.179 23.939-4.096 44.486-8.074 88.714-6.871 76.386-10.118 99.549-12.572 145.54s2.453 86.466-4.293 106.7c-6.745 20.237-6.132 20.85-17.17 23.916s72.975 4.906 75.428 5.519c2.453 0.613-9.812-256.33-12.878-283.93-3.11-27.58-3.11-118.34-1.88-125.08zm-114.8-7.31c-0.68-1.437-6.283-5.646-10.027-8.257 6.877-2.006 16.18-5.481 25.09-9.028 2.75 4.032 11.189 9.79 11.189 9.79-8.2 0.66-25.25 9.62-26.25 7.5zm29.76-9.45c-4.101-0.941-9.77-5.952-12.608-8.671 13.789-5.542 26.068-10.984 26.068-10.984s24.055 9.839 27.581 11.066 6.593 2.913 7.972 6.439c-18.94 0.74-45.4 2.97-49.01 2.14zm66.64-9.97l-0.766-17.17c1.846 3.787 7.502 9.303 7.512 9.659 0 0-0.205 7.757 0.307 10.885-2.61-1.22-7.05-3.38-7.05-3.38z" fill="#67452D"/>
			<path d="m245.86 412.91c-11.645 5.834-19.67-12.648-14.796-32.643 0 0 36.38 19.57 14.8 32.64z" fill="#565B2A"/>
			<path d="m258.49 454.37c4.582-9.992-5.726-19.459-23.259-20.404 0 0 6.31 29.75 23.26 20.4z" fill="#565B2A"/>
			<path d="m203.4 443.18c10.172-4.224 9.062-18.155-3.156-30.729 0 0-15.65 26.1 3.16 30.73z" fill="#565B2A"/>
			<path d="m280.77 457.95c7.18-6.275-0.081-17.097-13.862-21.777-0.01 0.01-2.31 25.94 13.86 21.78z" fill="#8B8C43"/>
			<path d="m264.41 422.09c11.211-2.918 9.474-18.383-2.691-30.724 0-0.01-16.98 26.59 2.69 30.72z" fill="#8B8C43"/>
			<path d="m329.91 389.28c8.616-0.569 9.618-12.106 2.543-22.814 0 0-16.29 17.05-2.54 22.81z" fill="#8B8C43"/>
			<path d="m251.26 456.84c-0.422-8.405-12.24-9.598-23.359-2.906 0 0 17.2 16.2 23.36 2.91z" fill="#8B8C43"/>
			<path d="m171.57 454.3c-0.422-8.405-12.24-9.598-23.359-2.906 0.01 0.01 17.2 16.21 23.36 2.91z" fill="#8B8C43"/>
			<path d="m174.85 413c2.657-7.988-7.927-13.364-20.721-11.137 0 0 10.15 21.3 20.72 11.14z" fill="#8B8C43"/>
			<path d="m190.75 415.4c7.473-3.913 3.593-15.107-7.168-22.357 0 0.01-7.52 22.37 7.17 22.36z" fill="#8B8C43"/>
			<path d="m390.88 466.07c0.134-8.414-11.581-10.346-23.12-4.366 0 0 16.09 17.25 23.12 4.37z" fill="#8B8C43"/>
			<path d="m192.44 500.37c0.134-8.414-11.581-10.346-23.119-4.366 0 0 16.1 17.25 23.12 4.37z" fill="#8B8C43"/>
			<path d="m194.1 481.15c1.946-6.921-7.309-11.057-18.144-8.62-0.01 0 9.52 17.73 18.14 8.62z" fill="#8B8C43"/>
			<path d="m380.78 428.45c-3.343-7.76-14.868-4.947-22.973 5.043-0.01 0 21.83 9.5 22.97-5.04z" fill="#8B8C43"/>
			<path d="m394.93 425.63c4.065-7.424-5.448-14.36-18.515-14.18 0 0 6.22 22.51 18.51 14.18z" fill="#8B8C43"/>
			<path d="m402.35 379.54c0.02-8.422-11.711-10.308-23.157-4.278 0 0.01 16.31 17.2 23.16 4.28z" fill="#8B8C43"/>
			<path d="m453.81 343.34c3.268-5.97-4.381-11.547-14.888-11.402 0 0 5 18.1 14.89 11.4z" fill="#8B8C43"/>
			<path d="m558.96 376.97c6.141-3.159 3.013-11.956-5.773-17.575 0 0-6.27 17.72 5.77 17.57z" fill="#8B8C43"/>
			<path d="m567.48 386.91c5.436-0.599 5.734-7.93 0.943-14.512 0.01 0-9.81 11.25-0.94 14.51z" fill="#8B8C43"/>
			<path d="m523.44 447.56c3.945-2.707 1.149-8.483-5.263-11.582-0.01-0.01-2.94 12.72 5.26 11.58z" fill="#8B8C43"/>
			<path d="m620.88 372.77c1.841 5.15 9.042 3.742 14.336-2.444 0-0.01-13.22-6.95-14.34 2.44z" fill="#8B8C43"/>
			<path d="m586.58 332.47c5.259 1.467 8.405-5.198 6.555-13.063-0.01-0.01-13.49 6.74-6.56 13.06z" fill="#8B8C43"/>
			<path d="m586.4 400.56c7.916-4.073 3.883-15.415-7.444-22.658 0 0-8.07 22.85 7.44 22.66z" fill="#8B8C43"/>
			<path d="m598.28 403.74c5.404-2.78 2.651-10.521-5.079-15.465 0-0.01-5.51 15.58 5.08 15.46z" fill="#8B8C43"/>
			<path d="m583.64 371.57c5.488-6.482-2.412-15.106-15.237-17.452 0.01 0 1.52 23.23 15.24 17.45z" fill="#8B8C43"/>
			<path d="m505.17 333.61c-2.628-6.264-11.917-4.086-18.511 3.888 0-0.01 17.49 7.79 18.51-3.89z" fill="#8B8C43"/>
			<path d="m500 320.69c-3.378-5.912-12.332-2.666-17.9 6.019 0 0 18.32 5.7 17.9-6.02z" fill="#8B8C43"/>
			<path d="m452.12 365.25c1.229-6.66-7.809-9.676-17.762-6.392 0 0 10.47 15.72 17.76 6.39z" fill="#8B8C43"/>
			<path d="m540.08 358.77c2.496-6.315-5.796-10.939-16.206-9.543 0.01-0.01 7.25 17.36 16.21 9.54z" fill="#8B8C43"/>
			<path d="m531.49 324.28c4.391-5.243-2.01-12.154-12.349-13.989 0 0 1.33 18.7 12.35 13.99z" fill="#8B8C43"/>
			<path d="m509.42 320.99c5.359-4.302 0.474-12.302-9.295-16.077 0.01 0.01-2.46 18.59 9.3 16.08z" fill="#8B8C43"/>
			<path d="m550.51 325.71c2.905-3.469-1.331-8.043-8.172-9.257 0 0 0.87 12.38 8.17 9.26z" fill="#8B8C43"/>
			<path d="m527.17 412.5c2.918-10.421-11.018-16.459-27.319-12.603 0 0 14.37 26.43 27.32 12.6z" fill="#8B8C43"/>
			<path d="m507.76 418.76c0.213-6.763-9.181-8.456-18.533-3.786-0.01 0 12.71 14.06 18.53 3.79z" fill="#8B8C43"/>
			<path d="m485.82 440.87c0.523-6.747-8.784-8.848-18.341-4.589 0 0 12.06 14.6 18.34 4.59z" fill="#8B8C43"/>
			<path d="m496.75 451.08c-2.074-4.528-8.827-2.722-13.466 3.268 0.01 0 13 5.32 13.47-3.27z" fill="#8B8C43"/>
			<path d="m406.45 474.08c4.45-2.406 2.02-8.805-4.506-12.791 0 0-4.31 13.08 4.51 12.79z" fill="#8B8C43"/>
			<path d="m412.82 419.23c3.815-8.992-7.936-15.925-22.953-14.278 0 0.01 9.77 25.22 22.95 14.28z" fill="#8B8C43"/>
			<path d="m405.92 435.81c-5.667-3.91-12.305 2.786-13.477 12.963 0 0.01 19.06-2.56 13.48-12.96z" fill="#8B8C43"/>
			<path d="m470.34 360.22c0.433-6.754-8.902-8.735-18.401-4.355 0 0 12.26 14.44 18.4 4.36z" fill="#8B8C43"/>
			<path d="m476.08 370.4c9.467 3.072 15.729-8.834 12.985-23.308 0 0-25.1 11.27-12.98 23.31z" fill="#8B8C43"/>
			<path d="m493.96 383.21c7.249-2.452 5.343-12.574-3.293-20.145-0.01 0-9.89 18.35 3.29 20.15z" fill="#8B8C43"/>
			<path d="m466.74 371.37c-1.611-5.72-9.888-4.853-16.447 1.334 0 0 14.32 8.69 16.45-1.33z" fill="#8B8C43"/>
			<path d="m512.5 452.99c-7.526-4.863-15.881 4.098-16.99 17.371-0.01 0 24.65-4.07 16.99-17.37z" fill="#8B8C43"/>
			<path d="m518.62 485.68c-6.884 0.889-7.078 10.198-0.835 18.436 0.01-0.01 12.18-14.52 0.84-18.44z" fill="#8B8C43"/>
			<path d="m468.18 515.58c-6.471-2.451-11.241 5.615-9.842 15.765 0 0.01 17.84-6.99 9.84-15.76z" fill="#8B8C43"/>
			<path d="m420.54 381.62c5.821-6.217-1.642-15.226-14.351-18.195 0 0 0.33 23.31 14.35 18.2z" fill="#8B8C43"/>
			<path d="m441.59 385.02c7.449-7.956-2.101-19.486-18.365-23.286 0.01 0 0.43 29.83 18.37 23.29z" fill="#8B8C43"/>
			<path d="m270.99 505.4c4.475-7.198-4.637-14.628-17.694-15.142-0.01 0 4.95 22.8 17.69 15.14z" fill="#8B8C43"/>
			<path d="m262.29 425.63c1.076-11.26-14.413-15.031-30.507-8.186 0.01 0 19.73 24.74 30.51 8.19z" fill="#8B8C43"/>
			<path d="m322.98 399.39c8.883-7.276 0.579-20.564-15.809-26.712 0 0-3.79 31.1 15.81 26.71z" fill="#8B8C43"/>
			<path d="m321.49 424.18c5.97-6.979-2.525-16.346-16.38-18.949 0 0 1.51 25.12 16.38 18.95z" fill="#8B8C43"/>
			<path d="m420.95 490.05c-2.088-8.856-14.881-7.934-25.393 1.239 0 0 21.43 14.04 25.39-1.24z" fill="#8B8C43"/>
			<path d="m411.8 457.13c5.618-2.297 3.584-10.221-3.648-15.795 0 0-6.88 15.01 3.65 15.79z" fill="#8B8C43"/>
			<path d="m343.86 440.44c1.36 6.645 10.917 6.227 18.956-0.391 0 0-15.67-10.91-18.96 0.39z" fill="#8B8C43"/>
			<path d="m336.55 448.97c-0.259 4.957 6.587 6.419 13.499 3.211 0 0-9.09-10.61-13.5-3.21z" fill="#8B8C43"/>
			<path d="m327.26 443.6c3.552-8.402-7.432-14.859-21.451-13.3 0 0 9.16 23.53 21.45 13.3z" fill="#8B8C43"/>
			<path d="m293.18 546.89c-0.325-9.08-13.065-10.541-25.172-3.48 0 0 18.32 17.74 25.17 3.48z" fill="#8B8C43"/>
			<path d="m308.36 545.57c-6.441-3.955-13.352 3.797-14.067 15.045 0.01-0.01 20.78-3.97 14.07-15.05z" fill="#8B8C43"/>
			<path d="m271.92 457.26c-8.596-7.044-20.772 0.008-26.531 16.174 0 0.01 31.08 2.28 26.53-16.17z" fill="#565B2A"/>
			<path d="m195.06 435.98c-3.861-10.404-17.943-10.436-31.09 0.63 0-0.01 25.69 17.59 31.09-0.63z" fill="#565B2A"/>
			<path d="m420.62 384.97c-8.596-7.044-20.772 0.008-26.531 16.174 0 0.01 31.08 2.28 26.53-16.17z" fill="#565B2A"/>
			<path d="m440.86 388.1c-6.841-5.606-16.533 0.006-21.116 12.873 0.01 0 24.74 1.81 21.12-12.87z" fill="#565B2A"/>
			<path d="m321.94 537.12c-6.128 1.089-7.341 8.655-2.287 16.769 0 0 11.99-12.14 2.29-16.77z" fill="#565B2A"/>
			<path d="m216.18 490.98c-8.138 1.447-9.748 11.494-3.037 22.268 0-0.01 15.92-16.13 3.04-22.27z" fill="#565B2A"/>
			<path d="m288.83 459.19c-5.623-2.613-11.15 2.83-11.927 12.291 0 0 17.02-3 11.93-12.29z" fill="#565B2A"/>
			<path d="m181.12 419.43c-3.619-5.028-11.11-2.989-16.434 4.877-0.01-0.01 16.3 5.7 16.43-4.88z" fill="#565B2A"/>
			<path d="m208.5 458.79c-0.073-6.195-7.376-8.83-16.252-5.45 0 0 10.07 14.04 16.25 5.45z" fill="#565B2A"/>
			<path d="m179.47 456.11c-5.623-2.613-11.15 2.829-11.927 12.291 0 0 17.02-3 11.93-12.29z" fill="#565B2A"/>
			<path d="m205.94 498.09c-5.623-2.613-11.15 2.829-11.927 12.291 0 0 17.01-3 11.93-12.29z" fill="#565B2A"/>
			<path d="m205.33 483.5c-3.762-4.916-11.191-2.652-16.288 5.37 0 0.01 16.47 5.22 16.29-5.37z" fill="#565B2A"/>
			<path d="m295.64 518.23c-5.623-2.613-11.15 2.829-11.927 12.291 0 0 17.01-3 11.93-12.29z" fill="#565B2A"/>
			<path d="m409.79 427.55c-4.125 4.55-0.275 11.226 8.846 14.555 0 0 1.71-16.76-8.85-14.55z" fill="#565B2A"/>
			<path d="m426.61 412.04c-8.969 3.291-8.672 15.066 1.265 25.995 0 0 14.72-21.59-1.27-26z" fill="#565B2A"/>
			<path d="m516.54 416.81c-5.598-0.571-8.62 5.688-6.351 13.974 0 0.01 13.56-7.55 6.35-13.97z" fill="#565B2A"/>
			<path d="m537.37 409.08c-9.193-0.938-14.154 9.341-10.429 22.946 0-0.01 22.26-12.42 10.43-22.95z" fill="#565B2A"/>
			<path d="m591.48 402.79c-4.645-1.229-8.074 3.652-7.324 10.948 0 0 12.5-4.57 7.32-10.95z" fill="#565B2A"/>
			<path d="m579.47 321.98c-0.278-4.683-6.115-6.305-12.976-3.298 0.01 0 8.42 10.11 12.98 3.3z" fill="#565B2A"/>
			<path d="m559.16 329.27c-3.861-2.8-8.886 0.517-10.928 7.574 0 0.01 13.36 0.22 10.93-7.57z" fill="#565B2A"/>
			<path d="m562.8 382.74c-0.448-4.141-5.695-5.34-11.65-2.39-0.01 0 7.89 8.61 11.65 2.39z" fill="#565B2A"/>
			<path d="m458.48 347.34c-2.094-3.63-7.399-2.708-11.669 2.298 0 0 10.75 4.87 11.67-2.3z" fill="#565B2A"/>
			<path d="m476.79 375.92c-3.774-3.997-10.225-1.276-14.109 6.328 0 0 15.15 3.04 14.11-6.33z" fill="#565B2A"/>
			<path d="m599.88 375.74c-4.645-1.229-8.075 3.652-7.324 10.948 0 0 12.5-4.57 7.32-10.95z" fill="#565B2A"/>
			<path d="m514.42 326.71c-6.505 0.549-8.536 8.327-4.082 17.28 0 0 13.74-11.51 4.08-17.28z" fill="#565B2A"/>
			<path d="m575.38 397.29c-2.816-4.908-9.983-3.679-15.767 3.068 0.01 0 14.51 6.6 15.77-3.07z" fill="#565B2A"/>
			<path d="m618.46 419.56c-2.815-4.908-9.982-3.679-15.766 3.068 0 0 14.51 6.6 15.77-3.07z" fill="#565B2A"/>
			<path d="m545.96 328.17c-7.867-4.907-17.129 2.184-20.09 16.118-0.01 0 25.87-1.38 20.09-16.12z" fill="#565B2A"/>
			<path d="m613.81 406.47c-6.398-5.637-15.943-0.552-20.82 11.7 0-0.01 23.79 2.58 20.82-11.7z" fill="#565B2A"/>
			<path d="m524.31 478.42c-3.642 3.066-1.408 8.565 5.219 12.038 0 0 3.1-12.66-5.22-12.04z" fill="#565B2A"/>
			<path d="m527.63 472.56c-2.29-4.127-8.281-3.183-13.187 2.378 0.01 0 12.02 5.68 13.19-2.38z" fill="#565B2A"/>
			<path d="m550.66 448.08c-2.288-4.127-8.281-3.183-13.186 2.377 0.01 0 12.03 5.67 13.19-2.38z" fill="#565B2A"/>
			<path d="m350.34 433.27c3.885-2.77 2.112-8.427-4.207-12.409 0 0-4.14 12.38 4.21 12.41z" fill="#565B2A"/>
			<path d="m339.14 445.42c5.581-1.865 5.531-9.177-0.486-16.153 0 0-9.34 13.1 0.49 16.15z" fill="#565B2A"/>
			<path d="m546.61 443.28c3.089-3.598-0.025-8.674-7.14-11.062 0-0.01-0.97 12.98 7.14 11.06z" fill="#565B2A"/>
			<path d="m557.72 451.62c8.232-2.033 9.16-12.426 1.52-23.003 0 0-15.14 17.58-1.52 23z" fill="#565B2A"/>
			<path d="m596.17 375.26c6.094-4.407 3.237-13.309-6.769-19.521 0 0-6.39 19.55 6.77 19.52z" fill="#565B2A"/>
			<path d="m593.74 344.84c7.579 0.386 11.195-8.249 7.542-19.25 0.01 0-17.7 11.11-7.54 19.25z" fill="#565B2A"/>
			<path d="m502.64 444.44c6.147-7.546-0.562-17.876-15.351-22.493 0 0-1.23 26.79 15.35 22.49z" fill="#565B2A"/>
			<path d="m512.6 446.54c4.253-2.75 2.658-8.827-3.837-13.345 0.01-0.01-5 12.9 3.84 13.34z" fill="#565B2A"/>
			<path d="m474.05 502.16c-3.643 3.066-1.408 8.566 5.218 12.039 0 0 3.1-12.66-5.22-12.04z" fill="#565B2A"/>
			<path d="m400.26 471.95c-3.214-3.521-8.807-1.286-12.237 5.213 0 0 13.04 2.9 12.24-5.21z" fill="#565B2A"/>
			<path d="m470.67 507.96c-2.909-3.737-8.684-1.913-12.659 4.312 0.01 0 12.77 3.82 12.66-4.31z" fill="#565B2A"/>
			<path d="m480.03 485.55c1.171-4.589-3.808-8.036-11.164-7.365-0.01 0 4.79 12.44 11.16 7.37z" fill="#565B2A"/>
			<path d="m548.19 378.95c0.213-10.688-12.426-15.574-28.566-9.914-0.02-0.05 17.17 24.36 28.57 9.91z" fill="#565B2A"/>
			<path d="m281.5 512.23c-8.596-7.043-20.772 0.009-26.531 16.174 0 0 31.08 2.28 26.53-16.17z" fill="#565B2A"/>
			<path d="m290.82 516.45c6.924-4.94 3.761-15.026-7.506-22.123 0.01 0-7.37 22.07 7.51 22.12z" fill="#565B2A"/>
			<path d="m308.76 522.51c8.241-6.227 4.053-18.375-9.877-26.629 0 0-8.2 27.05 9.88 26.63z" fill="#565B2A"/>
			<path d="m357.46 421.22c11.21 0.047 10.214-16.477-1.283-29.412-0.01 0-20.38 27.66 1.28 29.41z" fill="#565B2A"/>
			<path d="m416.85 478.57c9.257 6.506 18.47-7.754 16.805-25.1 0 0-33.68 11.15-16.81 25.1z" fill="#565B2A"/>
			<path d="m546.85 370.44c9.538 2.618 12.693-11.684 6.033-25.347 0 0-24.05 18.87-6.03 25.35z" fill="#565B2A"/>
			<path d="m427.22 497.93c6.896 4.846 13.759-5.776 12.519-18.698 0 0-25.09 8.31-12.52 18.7z" fill="#565B2A"/>
			<path d="m323.45 414.57c10.473 3.953 19.652-6.56 19.731-23.673 0 0-30.17 7.65-19.73 23.67z" fill="#565B2A"/>
			<path d="m468.13 352.39c10.046-4.89 8.242-18.582-4.695-30.153 0-0.01-14.49 26.89 4.69 30.15z" fill="#565B2A"/>
			<path d="m324.62 431.46c7.693 2.904 14.435-4.819 14.493-17.389 0 0-22.16 5.62-14.49 17.39z" fill="#565B2A"/>
			<path d="m277.14 434.07c8.035-3.569 7.111-14.353-2.596-23.768 0 0-12.29 20.7 2.6 23.77z" fill="#565B2A"/>
			<path d="m315.87 540.72c0.884-8.535-9.18-13.104-22.466-9.598 0 0 12.22 20.62 22.47 9.6z" fill="#565B2A"/>
			<path d="m218.44 480.82c2.666-8.159-6.208-14.738-19.936-14.099 0.01 0 7.59 22.72 19.94 14.1z" fill="#565B2A"/>
			<path d="m287.2 444.36c12.004-0.025 16.958-13.968 10.219-31.04 0 0-26.99 19.03-10.22 31.04z" fill="#565B2A"/>
			<path d="m189.77 457.53c4.629-5.511-2.101-13.076-12.983-15.298-0.01 0.01 1.37 20.08 12.98 15.3z" fill="#8B8C43"/>
			<path d="m207.91 454.9c7.111 1.114 10.108-8.558 6.385-19.022-0.01 0-16.48 11.55-6.39 19.02z" fill="#8B8C43"/>
			<path d="m482.95 486.16c-3.078-3.916-9.219-0.577-12.325 6.333 0 0 13.88 2.13 12.33-6.33z" fill="#8B8C43"/>
			<path d="m1678.8 967.47l-167-175.82c-571.74-28.57-1177.4 18.21-1633 219.85l1800-44.03z" fill="#859156"/>
				<defs>
					<path id="SVGID_27_" d="m373.57 482.62l3.737-3.603s3.87-3.603 1.601-12.276c-2.27-8.673 11.609-11.515 11.609-11.515s13.47-4.26 17.48 12.68c4.316 18.241-18.422 33.397-34.301 28.459 0 0-9.754-2.868-10.422-5.853-0.667-2.984-0.662-0.144-0.662-0.144l10.95-7.75z"/>
				</defs>
				<clipPath id="SVGID_28_">
					<use overflow="visible" xlink:href="#SVGID_27_"/>
				</clipPath>
				<path fill="#436E8D" d="m405.79 461.92l-5.766-7.179h-11.131s-10.596 5.538-11.132 5.703c-0.537 0.164-3.07 6.695-3.07 6.695l31.1-5.22z" clip-path="url(#SVGID_28_)"/>
				<defs>
					<path id="SVGID_29_" d="m373.57 482.62l3.737-3.603s3.87-3.603 1.601-12.276c-2.27-8.673 11.609-11.515 11.609-11.515s13.47-4.26 17.48 12.68c4.316 18.241-18.422 33.397-34.301 28.459 0 0-9.754-2.868-10.422-5.853-0.667-2.984-0.662-0.144-0.662-0.144l10.95-7.75z"/>
				</defs>
				<clipPath id="SVGID_30_">
					<use overflow="visible" xlink:href="#SVGID_29_"/>
				</clipPath>
				<path fill="#DCDDDE" d="m378.92 465.75s1.563-6.231 11.977-6.752c10.415-0.521 14.681 2.301 14.681 2.301l3.009 8.724-6.928 5.292-15.468 2.873-6.577-2.012-2.343-5.721 1.65-4.7z" clip-path="url(#SVGID_30_)"/>
				<defs>
					<path id="SVGID_31_" d="m373.57 482.62l3.737-3.603s3.87-3.603 1.601-12.276c-2.27-8.673 11.609-11.515 11.609-11.515s13.47-4.26 17.48 12.68c4.316 18.241-18.422 33.397-34.301 28.459 0 0-9.754-2.868-10.422-5.853-0.667-2.984-0.662-0.144-0.662-0.144l10.95-7.75z"/>
				</defs>
				<clipPath id="SVGID_32_">
					<use overflow="visible" xlink:href="#SVGID_31_"/>
				</clipPath>
				<path fill="#9C6129" d="m362.6 493.36c0-0.695-0.868-5.208 0-5.035s16.317-1.518 16.317-1.518l2.43-7.855 2.209-1.352 8.331 0.868 9.248-3.161 6.249-3.993h2.952l-1.579 12.307-8.662 10.78-20.485 5.208-14.059-3.299-2.96-2.95z" clip-path="url(#SVGID_32_)"/>
				<defs>
					<path id="SVGID_33_" d="m373.57 482.62l3.737-3.603s3.87-3.603 1.601-12.276c-2.27-8.673 11.609-11.515 11.609-11.515s13.47-4.26 17.48 12.68c4.316 18.241-18.422 33.397-34.301 28.459 0 0-9.754-2.868-10.422-5.853-0.667-2.984-0.662-0.144-0.662-0.144l10.95-7.75z"/>
				</defs>
				<clipPath id="SVGID_34_">
					<use overflow="visible" xlink:href="#SVGID_33_"/>
				</clipPath>
				<polygon fill="#426A87" points="384.82 476.87 381.87 480.17 374.4 478.18 377.01 472.71" clip-path="url(#SVGID_34_)"/>
				<defs>
					<path id="SVGID_35_" d="m373.57 482.62l3.737-3.603s3.87-3.603 1.601-12.276c-2.27-8.673 11.609-11.515 11.609-11.515s13.47-4.26 17.48 12.68c4.316 18.241-18.422 33.397-34.301 28.459 0 0-9.754-2.868-10.422-5.853-0.667-2.984-0.662-0.144-0.662-0.144l10.95-7.75z"/>
				</defs>
				<clipPath id="SVGID_36_">
					<use overflow="visible" xlink:href="#SVGID_35_"/>
				</clipPath>
				<path fill="#33302A" d="m379.4 474.08s4.936 3.137 10.541 2.737v-3.335l1.734-2.402 1.601 1.6s3.069 4.573 7.606 1.286c0 0 3.87-2.085 6.538-5.688l1.333 0.801-0.667 3.602s-12.732 13.398-29.49 3.337l-1.333-1.937h2.14z" clip-path="url(#SVGID_36_)"/>
				<defs>
					<path id="SVGID_37_" d="m373.57 482.62l3.737-3.603s3.87-3.603 1.601-12.276c-2.27-8.673 11.609-11.515 11.609-11.515s13.47-4.26 17.48 12.68c4.316 18.241-18.422 33.397-34.301 28.459 0 0-9.754-2.868-10.422-5.853-0.667-2.984-0.662-0.144-0.662-0.144l10.95-7.75z"/>
				</defs>
				<clipPath id="SVGID_38_">
					<use overflow="visible" xlink:href="#SVGID_37_"/>
				</clipPath>
				<path fill="#343330" d="m395.7 462.84s0.013-2.778 10.074-0.955l4.508 2.865h-3.224c0 0.01-8.75-1.73-11.36-1.9z" clip-path="url(#SVGID_38_)"/>
				<defs>
					<path id="SVGID_39_" d="m373.57 482.62l3.737-3.603s3.87-3.603 1.601-12.276c-2.27-8.673 11.609-11.515 11.609-11.515s13.47-4.26 17.48 12.68c4.316 18.241-18.422 33.397-34.301 28.459 0 0-9.754-2.868-10.422-5.853-0.667-2.984-0.662-0.144-0.662-0.144l10.95-7.75z"/>
				</defs>
				<clipPath id="SVGID_40_">
					<use overflow="visible" xlink:href="#SVGID_39_"/>
				</clipPath>
				<path fill="#343330" d="m378.35 470.7h1.225s3.982-3.344 4.849-3.519c0.868-0.173 1.545-0.868 1.545-0.868l-1.545-0.712s-5.902 0.538-6.943 3.316" clip-path="url(#SVGID_40_)"/>
		<path d="m364.13 491.93l-4.36 2.062s-2.775 2.22-3.885 0.317 1.982-2.378 1.982-2.378l3.409-1.426s-7.137 2.298-8.168 0c-1.03-2.3 6.899-1.904 6.899-1.904s-5.708-0.555-6.342-2.695c-0.635-2.14 6.026 0.317 6.026 0.317s-3.489-2.617-1.745-3.569c1.745-0.951 7.533 3.958 7.533 3.958s4.05-2.928 4.644-4.077c0.679-1.317 2.576-2.361 3.815-2.999 2.028-1.044 4.759-1.69 6.799-0.324 1.138 0.761 1.964 2.267 2.401 3.525 0.702 2.025-0.782 4.592-1.844 6.271-1.093 1.725-2.653 3.028-4.574 3.737-1.975 0.729-4.552 0.768-6.598 0.295 0 0-4.803-1.11-6.152-3.409 0.01 0-0.62 0.08 0.17 2.3z" fill="#648A98"/>
					<defs>
						<path id="SVGID_41_" d="m364.13 491.93l-4.36 2.062s-2.775 2.22-3.885 0.317 1.982-2.378 1.982-2.378l3.409-1.426s-7.137 2.298-8.168 0c-1.03-2.3 6.899-1.904 6.899-1.904s-5.708-0.555-6.342-2.695c-0.635-2.14 6.026 0.317 6.026 0.317s-3.489-2.617-1.745-3.569c1.745-0.951 7.533 3.958 7.533 3.958s4.05-2.928 4.644-4.077c0.679-1.317 2.576-2.361 3.815-2.999 2.028-1.044 4.759-1.69 6.799-0.324 1.138 0.761 1.964 2.267 2.401 3.525 0.702 2.025-0.782 4.592-1.844 6.271-1.093 1.725-2.653 3.028-4.574 3.737-1.975 0.729-4.552 0.768-6.598 0.295 0 0-4.803-1.11-6.152-3.409 0.01 0-0.62 0.08 0.17 2.3z"/>
					</defs>
					<clipPath id="SVGID_42_">
						<use overflow="visible" xlink:href="#SVGID_41_"/>
					</clipPath>
					<g fill="#446F8F" clip-path="url(#SVGID_42_)">
						<polygon points="355.1 489.14 358.91 493.58 363.82 490.89 364.69 491.36 363.98 492.24 355.89 495.62 352 489.84"/>
							<path d="m372.58 486.65c-0.98 3.103-5.373 4.081-8.234 3.739-0.359-0.043-0.769 0.47-0.262 0.53 3.164 0.381 8.121-0.739 9.21-4.19 0.12-0.41-0.62-0.39-0.72-0.08z"/>
							<path d="m370.74 485.7c-1.69 0.49-3.231 2.105-5.038 2.037-0.29-0.011-0.795 0.418-0.288 0.436 2.057 0.076 3.553-1.542 5.429-2.085 0.45-0.14 0.35-0.53-0.1-0.4z"/>
					</g>
		<ellipse rx="1.766" ry="2.197" transform="matrix(-.9784 .2069 -.2069 -.9784 859.68 842.19)" cy="466.05" cx="385.8" fill="#50423C"/>
		<ellipse rx="2.13" ry="2.393" transform="matrix(-.9783 .207 -.207 -.9783 875.8 836.34)" cy="463.99" cx="394.14" fill="#50423C"/>
	<circle cy="465.42" cx="386.12" r=".666" fill="#fff"/>
	<ellipse cy="469.9" cx="384" rx="2.45" ry="1.542" fill="#C65925"/>
		<ellipse rx="2.45" ry="1.542" transform="matrix(-.9206 .3906 -.3906 -.9206 946.89 740.19)" cy="466.38" cx="398.18" fill="#C65925"/>
<circle cy="463.08" cx="394.71" r=".666" fill="#fff"/>
	<path d="m389.86 469.22c1.54-0.685 3.519-0.34 4.285 1.298 0.634 1.354-0.431 2.338-1.644 2.831-1.627 0.663-3.377 0.28-5.069 0.32-0.499 0.013 0.895-3.159 1.017-3.326 0.36-0.5 0.86-0.87 1.41-1.12z" fill="#939089"/>
				<defs>
					<path id="SVGID_43_" d="m389.86 469.22c1.54-0.685 3.519-0.34 4.285 1.298 0.634 1.354-0.431 2.338-1.644 2.831-1.627 0.663-6.758 0.361-5.069 0.32 0.272-0.006-1.574 0.236 1.017-3.326 0.36-0.5 0.86-0.87 1.41-1.12z"/>
				</defs>
				<clipPath id="SVGID_44_">
					<use overflow="visible" xlink:href="#SVGID_43_"/>
				</clipPath>
				<path fill="#34322C" d="m394.14 470.52s-1.146 2.064-6.892 3.084l-0.207 1.131 3.825-0.236 4.092-1.435-0.81-2.54z" clip-path="url(#SVGID_44_)"/>
<polygon points="389.96 473.42 389.96 474.29 393.57 474.12 393.57 473.05 392.96 472.42" fill="#31302B"/>
<g fill="#424243">
	<path d="m383.09 496.78c1.288 1.938 1.996 3.783 1.666 6.141-0.268 1.919-1.372 3.583-1.559 5.543-0.01 0.106 0.728 0.028 0.749-0.202 0.203-2.13 1.339-3.968 1.633-6.078 0.289-2.071-0.632-3.933-1.742-5.603-0.12-0.18-0.81 0.11-0.75 0.2z"/>
	<path d="m384.32 504.91c0.877 1.13 1.564 2.485 1.506 3.95-0.013 0.283 0.736 0.121 0.744-0.104 0.064-1.543-0.625-2.934-1.552-4.129-0.15-0.19-0.87 0.06-0.7 0.28z"/>
	<path d="m384.21 504.23c1.727 0.84 3.389 2.284 3.802 4.235 0.031 0.147 0.783-0.035 0.748-0.202-0.416-1.965-2.105-3.438-3.841-4.282-0.2-0.09-0.78 0.22-0.71 0.25z"/>
	<path d="m387.27 496.41c1.698 3.033 2.661 5.924 0.642 9.084-0.137 0.215 0.179 0.295 0.32 0.295 1.484-0.001 1.196 2.666 1.187 3.593-0.003 0.378 0.754 0.253 0.756-0.065 0.016-1.525 0.226-4.05-1.87-4.048 0.106 0.098 0.213 0.196 0.32 0.294 2.086-3.267 1.107-6.307-0.668-9.477-0.15-0.25-0.87 0.02-0.69 0.35z"/>
	<path d="m388.38 505.54c1.7 0.336 3.283 1.565 3.341 3.414 0.01 0.355 0.761 0.208 0.753-0.077-0.064-2.04-1.746-3.413-3.647-3.791-0.27-0.05-0.88 0.37-0.44 0.46z"/>
</g>
		<path d="m450.24 454.99c-1.461-0.849-2.917-1.707-4.381-2.55-0.485-0.279-1-0.513-1.438-0.863-0.465-0.373-0.75-0.882-1.123-1.338-1.044-1.273-1.91-2.81-2.666-4.265-0.604-1.161-0.964-2.555-1.666-3.649-0.001-0.003-4.598-7.172-6.996-6.332-2.402 0.839-1.439 9.528 7.932 17.234 0 0-5.825-2.237-7.975-4.679 0 0-3.434-4.275-3.306 1.228 0.128 5.502 12.459 8.915 12.459 8.915s0.722 0.641-0.578 1.064-8.278-3.912-7.977-1.601c0.302 2.311 6.611 4.477 9.632 4.853 0 0 1.933 0.449 0.853 0.943 0 0-3.957-0.873-3.867 1.011s9.599 3.955 9.599 3.955l2.64-0.69-1.12-13.24z" fill="#A26429"/>
				<defs>
					<path id="SVGID_45_" d="m450.24 454.99l-5.824-3.385s-2.888-2.955-5.448-9.281c0 0-4.598-7.172-6.997-6.332-2.402 0.839-1.439 9.528 7.932 17.233 0 0-5.825-2.236-7.973-4.678 0 0-3.435-4.275-3.307 1.228 0.129 5.502 12.459 8.915 12.459 8.915s0.722 0.641-0.578 1.064-8.278-3.912-7.976-1.601c0.301 2.311 6.61 4.477 9.63 4.853 0 0 1.933 0.449 0.853 0.943 0 0-3.956-0.873-3.867 1.011 0.091 1.883 9.599 3.955 9.599 3.955l2.64-0.69-1.13-13.22z"/>
				</defs>
				<clipPath id="SVGID_46_">
					<use overflow="visible" xlink:href="#SVGID_45_"/>
				</clipPath>
				<path fill="none" d="m450.24 454.99l-5.824-3.385s-2.888-2.955-5.448-9.281c0 0-4.598-7.172-6.997-6.332-2.402 0.839-1.439 9.528 7.932 17.233 0 0-5.825-2.236-7.973-4.678 0 0-3.435-4.275-3.307 1.228 0.129 5.502 12.459 8.915 12.459 8.915s0.722 0.641-0.578 1.064-8.278-3.912-7.976-1.601c0.301 2.311 6.61 4.477 9.63 4.853 0 0 1.933 0.449 0.853 0.943 0 0-3.956-0.873-3.867 1.011 0.091 1.883 9.599 3.955 9.599 3.955l2.64-0.69-1.13-13.22z" clip-path="url(#SVGID_46_)"/>
				<defs>
					<path id="SVGID_47_" d="m450.24 454.99l-5.824-3.385s-2.888-2.955-5.448-9.281c0 0-4.598-7.172-6.997-6.332-2.402 0.839-1.439 9.528 7.932 17.233 0 0-5.825-2.236-7.973-4.678 0 0-3.435-4.275-3.307 1.228 0.129 5.502 12.459 8.915 12.459 8.915s0.722 0.641-0.578 1.064-8.278-3.912-7.976-1.601c0.301 2.311 6.61 4.477 9.63 4.853 0 0 1.933 0.449 0.853 0.943 0 0-3.956-0.873-3.867 1.011 0.091 1.883 9.599 3.955 9.599 3.955l2.64-0.69-1.13-13.22z"/>
				</defs>
				<clipPath id="SVGID_48_">
					<use overflow="visible" xlink:href="#SVGID_47_"/>
				</clipPath>
				<g clip-path="url(#SVGID_48_)">
					<g fill="#80521E">
						<path d="m430.6 435.87c-0.792 4.693 1.037 10.062 3.807 13.825 0.28 0.38 1.681-0.564 1.463-0.859-2.745-3.725-4.567-9.016-3.783-13.657 0.05-0.33-1.41 0.2-1.49 0.69z"/>
						<path d="m428.45 445.1c-2.091 2.629 0.195 7.549 1.289 10.264 0.297 0.734 1.773-0.094 1.463-0.858-0.559-1.387-1.065-2.79-1.455-4.236-0.356-1.315-0.979-3.538-0.057-4.696 0.71-0.87-0.73-1.09-1.23-0.46z"/>
						<path d="m431.51 457.13c0.421 1.688 0.686 3.22 2.244 4.154 0.327 0.196 1.6-0.486 1.397-0.919-0.472-1.007-0.98-1.979-1.302-3.05-0.111-0.374-1.562 0.355-1.462 0.858 0.599 3.033 3.36 4.663 6.142 4.778 0.423 0.016 4.564 0.193 4.002 0.169-2.678-0.111-8.111-2.922-8.682-5.805-0.488 0.286-0.975 0.572-1.462 0.858 0.32 1.072 0.829 2.044 1.301 3.052 0.465-0.306 0.931-0.612 1.396-0.918-1.499-0.899-1.713-2.435-2.111-4.035-0.09-0.35-1.6 0.32-1.47 0.85z"/>
						<path d="m438.22 464.28c0.733 1.954 3.251 3.761 5.171 4.111 0.475 0.086 1.753-0.96 1.075-1.084-1.787-0.326-4.109-2.089-4.781-3.886-0.18-0.47-1.67 0.3-1.46 0.86z"/>
					</g>
				</g>
		<path d="m460.85 455.77c2.04-1.547 4.074-3.104 6.121-4.645 0.676-0.51 1.427-0.972 1.999-1.559 0.606-0.623 0.862-1.365 1.285-2.064 1.181-1.957 1.962-4.193 2.598-6.291 0.508-1.674 0.518-3.569 1.212-5.188 0.001-0.002 4.555-10.613 8.839-10.302 4.285 0.311 6.319 11.708-5.841 24.52 0 0 8.62-4.703 11.128-8.503 0 0 3.854-6.546 5.93 0.521 2.077 7.064-16.718 15.332-16.718 15.332s-0.918 1.048 1.389 1.176 11.946-7.621 12.412-4.574c0.465 3.047-8.975 7.813-13.773 9.251 0 0-2.982 1.185-1.006 1.474 0 0 6.124-2.368 6.759 0.066 0.637 2.434-14.094 8.093-14.094 8.093l-4.616-0.045-3.63-17.27z" fill="#A26429"/>
				<defs>
					<path id="SVGID_49_" d="m460.85 455.77l8.141-6.168s3.508-4.689 5.076-13.578c0 0 4.555-10.614 8.839-10.303 4.285 0.311 6.317 11.708-5.843 24.52 0 0 8.621-4.703 11.13-8.502 0 0 3.855-6.547 5.931 0.521 2.076 7.064-16.718 15.332-16.718 15.332s-0.918 1.048 1.389 1.176 11.946-7.621 12.41-4.574c0.467 3.047-8.973 7.813-13.772 9.251 0 0-2.982 1.185-1.006 1.474 0 0 6.124-2.368 6.759 0.066 0.636 2.434-14.094 8.093-14.094 8.093l-4.616-0.045-3.63-17.27z"/>
				</defs>
				<clipPath id="SVGID_50_">
					<use overflow="visible" xlink:href="#SVGID_49_"/>
				</clipPath>
				<path fill="none" d="m460.85 455.77l8.141-6.168s3.508-4.689 5.076-13.578c0 0 4.555-10.614 8.839-10.303 4.285 0.311 6.317 11.708-5.843 24.52 0 0 8.621-4.703 11.13-8.502 0 0 3.855-6.547 5.931 0.521 2.076 7.064-16.718 15.332-16.718 15.332s-0.918 1.048 1.389 1.176 11.946-7.621 12.41-4.574c0.467 3.047-8.973 7.813-13.772 9.251 0 0-2.982 1.185-1.006 1.474 0 0 6.124-2.368 6.759 0.066 0.636 2.434-14.094 8.093-14.094 8.093l-4.616-0.045-3.63-17.27z" clip-path="url(#SVGID_50_)"/>
				<defs>
					<path id="SVGID_51_" d="m460.85 455.77l8.141-6.168s3.508-4.689 5.076-13.578c0 0 4.555-10.614 8.839-10.303 4.285 0.311 6.317 11.708-5.843 24.52 0 0 8.621-4.703 11.13-8.502 0 0 3.855-6.547 5.931 0.521 2.076 7.064-16.718 15.332-16.718 15.332s-0.918 1.048 1.389 1.176 11.946-7.621 12.41-4.574c0.467 3.047-8.973 7.813-13.772 9.251 0 0-2.982 1.185-1.006 1.474 0 0 6.124-2.368 6.759 0.066 0.636 2.434-14.094 8.093-14.094 8.093l-4.616-0.045-3.63-17.27z"/>
				</defs>
				<clipPath id="SVGID_52_">
					<use overflow="visible" xlink:href="#SVGID_51_"/>
				</clipPath>
				<g clip-path="url(#SVGID_52_)">
					<g fill="#80521E">
						<path d="m485.1 425.13c3.25 5.74 2.483 13.176-0.494 18.858-0.302 0.574-2.99-0.186-2.756-0.632 2.951-5.628 3.74-12.961 0.526-18.638-0.23-0.4 2.38-0.19 2.72 0.41z"/>
						<path d="m492.45 436.24c4.519 2.693 2.818 9.701 2.152 13.515-0.18 1.029-2.943 0.44-2.755-0.633 0.339-1.948 0.587-3.9 0.626-5.869 0.037-1.792 0.133-4.827-1.859-6.014-1.51-0.92 0.75-1.66 1.84-1.01z"/>
						<path d="m492.43 452.56c0.012 2.29 0.213 4.329-1.955 6.017-0.455 0.353-2.824-0.114-2.671-0.731 0.356-1.435 0.785-2.838 0.866-4.308 0.027-0.512 2.708-0.041 2.755 0.632 0.278 4.062-3.571 7.019-8.084 8.048-0.688 0.157-7.403 1.693-6.492 1.486 4.344-0.991 12.086-6.303 11.82-10.166 0.919 0.21 1.836 0.421 2.755 0.632-0.08 1.471-0.509 2.873-0.866 4.309-0.89-0.244-1.78-0.487-2.669-0.73 2.087-1.623 1.796-3.651 1.785-5.82 0-0.46 2.75-0.09 2.75 0.63z"/>
						<path d="m484.41 463.82c-0.388 2.727-3.765 5.832-6.767 6.888-0.742 0.261-3.273-0.669-2.212-1.043 2.795-0.984 5.866-3.97 6.222-6.477 0.1-0.65 2.87-0.15 2.76 0.63z"/>
					</g>
				</g>
	<path d="m464.37 478.52l2.563 2.147s6.946 5.643 5.227 7.591c0 0-0.986 1.145-3.759-2.291 0 0 3.101 5.269 1.596 6.416-1.503 1.145-3.91-5.958-3.91-5.958s0.344 7.217-1.719 7.217-0.686-7.56-0.686-7.56-0.917 5.729-3.553 4.812c-2.63-0.92 4.24-12.38 4.24-12.38" fill="#A26429"/>
		<path d="m458.99 435.5s9.217-0.97 12.45 7.115c3.234 8.086 2.588 28.75 1.132 30.869 0 0-1.455 6.647-8.247 8.101-6.791 1.455-12.29-10.672-12.29-10.672s-13.9-34.61 6.96-35.42z" fill="#C2AEB5"/>
				<defs>
					<path id="SVGID_53_" d="m458.99 435.5s9.217-0.97 12.45 7.115c3.234 8.086 2.588 28.75 1.132 30.869 0 0-1.455 6.647-8.247 8.101-6.791 1.455-12.29-10.672-12.29-10.672s-13.9-34.61 6.96-35.42z"/>
				</defs>
				<clipPath id="SVGID_54_">
					<use overflow="visible" xlink:href="#SVGID_53_"/>
				</clipPath>
				<path fill="#82501E" d="m473.3 472.47s-0.809-23.773-3.719-23.125l-26.381-4.676 13.282-11.978 16.171 3.071 3.719 34.766-3.07 1.95z" clip-path="url(#SVGID_54_)"/>
	<g fill="#C76045">
		<path d="m462.31 440.13s3.826-0.666 4.242 2.911c0.157 1.358 0.832 2.598 1.964 3.385 0.807 0.559 1.717 0.419 1.431 1.599-0.208 0.859-0.873 1.866-1.32 2.637-1.574 2.724-3.475 5.155-6.108 6.931-1.298 0.873-2.818 1.558-4.213 2.264-1.68 0.851-2.05 1.159-3.737 0.197-1.039-0.593-2.044-0.945-2.89-1.848-1.116-1.19-1.963-2.727-2.702-4.167-0.586-1.138-1.057-2.324-1.414-3.553-0.369-1.274-1.465-2.992-0.974-4.344 0.485-1.331 2.497-2.073 2.497-3.684 0-1.164 4.907-4.99 6.57-0.249 0 0 1.165 1.329 2.786 0-0.01-0.01 0.53-2 3.86-2.08z"/>
		<path d="m462.31 440.13s3.826-0.666 4.242 2.911c0.157 1.358 0.832 2.598 1.964 3.385 0.807 0.559 1.717 0.419 1.431 1.599-0.208 0.859-0.873 1.866-1.32 2.637-1.574 2.724-3.475 5.155-6.108 6.931-1.298 0.873-2.818 1.558-4.213 2.264-1.68 0.851-2.05 1.159-3.737 0.197-1.039-0.593-2.044-0.945-2.89-1.848-1.116-1.19-1.963-2.727-2.702-4.167-0.586-1.138-1.057-2.324-1.414-3.553-0.369-1.274-1.465-2.992-0.974-4.344 0.485-1.331 2.497-2.073 2.497-3.684 0-1.164 4.907-4.99 6.57-0.249 0 0 1.165 1.329 2.786 0-0.01-0.01 0.53-2 3.86-2.08z"/>
		<path d="m462.31 440.13s3.826-0.666 4.242 2.911c0.157 1.358 0.832 2.598 1.964 3.385 0.807 0.559 1.717 0.419 1.431 1.599-0.208 0.859-0.873 1.866-1.32 2.637-1.574 2.724-3.475 5.155-6.108 6.931-1.298 0.873-2.818 1.558-4.213 2.264-1.68 0.851-2.05 1.159-3.737 0.197-1.039-0.593-2.044-0.945-2.89-1.848-1.116-1.19-1.963-2.727-2.702-4.167-0.586-1.138-1.057-2.324-1.414-3.553-0.369-1.274-1.465-2.992-0.974-4.344 0.485-1.331 2.497-2.073 2.497-3.684 0-1.164 4.907-4.99 6.57-0.249 0 0 1.165 1.329 2.786 0-0.01-0.01 0.53-2 3.86-2.08z"/>
		<path d="m462.31 440.13s3.826-0.666 4.242 2.911c0.157 1.358 0.832 2.598 1.964 3.385 0.807 0.559 1.717 0.419 1.431 1.599-0.208 0.859-0.873 1.866-1.32 2.637-1.574 2.724-3.475 5.155-6.108 6.931-1.298 0.873-2.818 1.558-4.213 2.264-1.68 0.851-2.05 1.159-3.737 0.197-1.039-0.593-2.044-0.945-2.89-1.848-1.116-1.19-1.963-2.727-2.702-4.167-0.586-1.138-1.057-2.324-1.414-3.553-0.369-1.274-1.465-2.992-0.974-4.344 0.485-1.331 2.497-2.073 2.497-3.684 0-1.164 4.907-4.99 6.57-0.249 0 0 1.165 1.329 2.786 0-0.01-0.01 0.53-2 3.86-2.08z"/>
	</g>
		<g fill="#4A4337">
			<path d="m459.06 443.76c0 1.334 1.081 2.417 2.416 2.417 1.336 0 2.417-1.082 2.417-2.417 0-0.462-0.13-0.895-0.355-1.262-0.424-0.693-1.19-1.155-2.061-1.155-1.34 0.01-2.42 1.09-2.42 2.42z"/>
			<path d="m463.54 442.5s0.921 0.314 1.487-0.845c0 0-0.159 3.042-2.628 4.341l-0.17-1.77 1.31-1.73z"/>
		</g>
		<g fill="#4A4337">
			<path d="m454.66 443.83c0 1.146-0.93 2.076-2.075 2.076-1.147 0-2.076-0.929-2.076-2.076 0-0.397 0.111-0.769 0.304-1.084 0.365-0.594 1.022-0.992 1.772-0.992 1.16-0.01 2.09 0.92 2.09 2.07z"/>
			<path d="m450.82 442.74s-0.79 0.27-1.276-0.725c0 0-0.281 2.377 1.839 3.494l0.565-1.285-1.12-1.48z"/>
		</g>
	<circle cy="442.95" cx="453.33" r=".557" fill="#fff"/>
	<circle cy="442.95" cx="461.84" r=".557" fill="#fff"/>
		<path d="m455.64 445.25c1.626-0.137 3.323 0.844 3.499 2.643 0.144 1.487-1.143 2.063-2.411 2.127-1.7 0.087-3.176-0.855-4.734-1.375-0.46-0.154 1.83-2.685 1.996-2.803 0.49-0.34 1.06-0.54 1.64-0.59z" fill="#939089"/>
				<defs>
					<path id="SVGID_55_" d="m455.64 445.25c1.626-0.137 3.323 0.844 3.499 2.643 0.144 1.487-1.143 2.063-2.411 2.127-1.7 0.087-6.291-1.896-4.734-1.375 0.251 0.084-1.513-0.3 1.996-2.803 0.49-0.34 1.06-0.54 1.64-0.59z"/>
				</defs>
				<clipPath id="SVGID_56_">
					<use overflow="visible" xlink:href="#SVGID_55_"/>
				</clipPath>
				<path fill="#333231" d="m459.14 447.9s-1.711 1.568-7.287 0.628l-0.551 1.001 3.572 1.042h4.198l0.07-2.67z" clip-path="url(#SVGID_56_)"/>
	<ellipse cy="447.43" cx="464.48" rx="2.444" ry="1.693" fill="#C65927"/>
	<ellipse cy="447.2" cx="449.5" rx="2.445" ry="1.693" fill="#C65927"/>
<g id="tablet">
	<path d="m427.1 791.58c34.02 26.043 40.486 74.731 14.445 108.75-26.043 34.018-68.459 37.866-102.48 11.823-34.017-26.041-37.93-100.31-11.886-134.32 26.05-34.01 65.92-12.29 99.93 13.75z" fill="#D8C8A4"/>
	<polygon points="431.67 876.69 449.34 1015.4 343.5 1015.4 328.41 896.92" fill="#D8C8A4"/>
	<path d="m423.4 540.49v301.13c0 11.357-9.289 20.648-20.646 20.648h-201.61c-11.354 0-20.643-9.291-20.643-20.648v-301.13c0-11.357 9.289-20.646 20.643-20.646h201.61c11.36 0 20.65 9.29 20.65 20.65z" fill="#5E5D5D"/>
		<rect y="548.04" x="193.98" height="282.43" width="214.14" fill="#ccc"/>
		<path d="m338.43 571.74c0 1.553-1.259 2.812-2.812 2.812h-92.21c-1.553 0-2.812-1.259-2.812-2.812v-14.153c0-1.553 1.259-2.812 2.812-2.812h92.206c1.553 0 2.812 1.259 2.812 2.812v14.15z" fill="#E7E5E6"/>
		<path d="m403.46 819.83c0 3.285-1.476 5.949-3.297 5.949h-198.75c-1.821 0-3.297-2.663-3.297-5.949v-243.03c0-3.286 1.476-5.949 3.297-5.949h198.76c1.821 0 3.297 2.663 3.297 5.949v243.03z" fill="#E7E5E6"/>
		<circle cy="561.92" cx="204.59" r="2.752" fill="#C4938A"/>
		<circle cy="561.92" cx="215.43" r="2.752" fill="#DDD49E"/>
		<circle cy="561.92" cx="226.28" r="2.752" fill="#A9BDA7"/>
		<rect y="586.38" x="263.9" height="11.799" width="124.56" fill="#FFFEFC"/>
		<rect y="633.58" x="205.78" height="14.748" width="56.042" fill="#D5D5D1"/>
		<rect y="668.88" x="205.78" height="11.983" width="45.534" fill="#D5D5D1"/>
		<rect y="586.72" x="205.78" height="11.983" width="45.534" fill="#D5D5D1"/>
		<rect y="561.48" x="249.27" height="7.687" width="79.692" fill="#D5D5D1"/>
		<rect y="689.52" x="205.78" height="11.983" width="45.534" fill="#D5D5D1"/>
		<rect y="710.17" x="205.78" height="11.983" width="45.534" fill="#D5D5D1"/>
		<rect y="730.82" x="205.78" height="11.983" width="45.534" fill="#D5D5D1"/>
		<rect y="636.53" x="282.46" height="16.742" width="106" fill="#C8CCAD"/>
		<rect y="658.05" x="282.46" height="16.742" width="106" fill="#C8CCAD"/>
		<rect y="679.58" x="282.46" height="16.742" width="106" fill="#C8CCAD"/>
		<rect y="701.1" x="282.46" height="16.742" width="106" fill="#C8CCAD"/>
		<rect y="722.63" x="282.46" height="16.742" width="106" fill="#C8CCAD"/>
		<rect y="744.15" x="282.46" height="16.742" width="106" fill="#C8CCAD"/>
		<rect y="765.68" x="282.46" height="16.743" width="106" fill="#C8CCAD"/>
		<rect y="787.2" x="282.46" height="16.743" width="106" fill="#C8CCAD"/>
		<rect y="641.36" x="370.89" height="4.923" width="7.677" fill="#ADAEAB"/>
		<rect y="663.9" x="370.89" height="4.923" width="7.677" fill="#ADAEAB"/>
		<rect y="686.45" x="370.89" height="4.923" width="7.677" fill="#ADAEAB"/>
		<rect y="707.4" x="370.89" height="4.923" width="7.677" fill="#ADAEAB"/>
		<rect y="729.15" x="370.89" height="4.923" width="7.677" fill="#ADAEAB"/>
		<rect y="750.32" x="370.89" height="4.923" width="7.677" fill="#ADAEAB"/>
		<rect y="771.48" x="370.89" height="4.923" width="7.677" fill="#ADAEAB"/>
		<rect y="792.65" x="370.89" height="4.923" width="7.677" fill="#ADAEAB"/>
				<defs>
					<path id="SVGID_57_" d="m423.4 540.49v301.13c0 11.357-9.289 20.648-20.646 20.648h-201.61c-11.354 0-20.643-9.291-20.643-20.648v-301.13c0-11.357 9.289-20.646 20.643-20.646h201.61c11.36 0 20.65 9.29 20.65 20.65z"/>
				</defs>
				<clipPath id="SVGID_58_">
					<use overflow="visible" xlink:href="#SVGID_57_"/>
				</clipPath>
				<path opacity=".3" d="m425.46 676v170.73c0 8.59-9.789 14.766-20.773 14.766h-204.87c-10.985 0-20.356-6.176-20.356-14.766v-68.085l246-102.64z" fill="#fff" enable-background="new    " clip-path="url(#SVGID_58_)"/>
	<g fill="#B2B2B2">
		<path d="m275.61 527.83h52.673c1.429 0 2.596 1.167 2.596 2.596v0.002c0 1.427-1.167 2.596-2.596 2.596h-52.673c-1.427 0-2.596-1.169-2.596-2.596v-0.002c0.01-1.43 1.17-2.6 2.6-2.6z"/>
		<path d="m301.95 836.73c4.848 0 8.776 3.929 8.776 8.777 0 4.846-3.929 8.774-8.776 8.774-4.85 0-8.774-3.929-8.774-8.774-0.01-4.85 3.92-8.78 8.77-8.78z"/>
	</g>
	<polygon points="449.33 932.41 459.5 1015.4 333.32 1015.4 325.43 950.91" fill="#fff"/>
	<path d="m427.74 836.29c21.943 1.161 25.476 21.676 14.518 42.412-10.958 20.733-32.256 33.837-54.202 32.674-21.946-1.161-30.851-18.911-19.894-39.646 10.95-20.72 37.63-36.59 59.57-35.43z" fill="#C1AA74"/>
	<path d="m436 742.44c4.667-0.57 5.439 3.492 6.002 8.16l12.623 86.911c0.976 8.096-4.208 21.001-12.302 21.99-8.091 0.99-17.063-4.82-18.027-12.914l-9.825-76.863c-1.67-13.16 11.58-26.07 21.54-27.29z" fill="#C1AA74"/>
	<path d="m436 742.44c4.137-0.504 7.939 2.465 8.439 6.6l12.803 97.193c0.866 7.172-3.725 18.604-10.894 19.481-7.17 0.875-15.29-4.269-16.143-11.441l-10.153-88.292c-1.35-11.67 7.12-22.46 15.94-23.54z" fill="#D8C8A4"/>
	<path d="m429.85 837.49c19.225 2.134 26.163 21.749 15.496 43.812-10.669 22.063-34.902 38.221-54.129 36.086-19.225-2.132-26.165-21.747-15.496-43.812 10.67-22.07 34.91-38.22 54.13-36.09z" fill="#D8C8A4"/>
	<path d="m442.13 744.48c1.236 1.17 2.087 2.758 2.306 4.567l2.613 19.826c-5.01-0.558-8.647-1.431-13.514-3.305-1.48-8.24 0.06-21.11 8.59-21.1z" fill="#F0E8D6"/>
</g>
</svg>
