<?xml version="1.0" encoding="UTF-8" standalone="no"?>
<!-- Generator: Adobe Illustrator 17.0.0, SVG Export Plug-In . SVG Version: 6.00 Build 0)  -->
<!DOCTYPE svg  PUBLIC '-//W3C//DTD SVG 1.1//EN'  'http://www.w3.org/Graphics/SVG/1.1/DTD/svg11.dtd'>
<svg id="Capa_1" xmlns="http://www.w3.org/2000/svg" xml:space="preserve" height="1e3px" viewBox="0 0 1920 1000" width="1920px" version="1.1" y="0px" x="0px" xmlns:xlink="http://www.w3.org/1999/xlink" enable-background="new 0 0 1920 1000">
<g id="montañas">
						<defs>
							<polygon id="SVGID_1_" points="409.07 703.71 476.09 574.83 543.11 703.71"/>
						</defs>
						<clipPath id="SVGID_2_">
							<use overflow="visible" xlink:href="#SVGID_1_"/>
						</clipPath>
						<g clip-path="url(#SVGID_2_)">
							<polygon points="409.07 703.71 476.09 703.71 476.09 574.83" fill="#97827C"/>
							<polygon points="476.09 574.83 476.09 703.71 543.11 703.71" fill="#7E6F6A"/>
						</g>
						<defs>
							<polygon id="SVGID_3_" points="409.07 703.71 476.09 574.83 543.11 703.71"/>
						</defs>
						<clipPath id="SVGID_4_">
							<use overflow="visible" xlink:href="#SVGID_3_"/>
						</clipPath>
						<g clip-path="url(#SVGID_4_)">
							<path d="m445.66 624.34c0.393 4.609 4.446 8.03 9.055 7.641 1.696-0.145 3.23-0.787 4.473-1.769 0.922 3.997 4.655 6.815 8.86 6.459 2.979-0.254 5.453-2.039 6.732-4.513 0.383 0.507 0.825 0.962 1.309 1.368v-58.702c-3.86 0.32-30.82 44.9-30.43 49.51z" fill="#E5E5E4"/>
							<path d="m505.41 622.83c-0.39-4.609-24.711-48.399-29.321-48.008v58.702c1.634 1.378 3.786 2.141 6.084 1.947 3.865-0.326 6.885-3.231 7.534-6.877 1.685 1.693 4.077 2.659 6.643 2.443 4.62-0.38 9.46-3.58 9.07-8.2z" fill="#C9C9C9"/>
						</g>
						<defs>
							<polygon id="SVGID_5_" points="32.347 744.71 114.67 586.39 197 744.71"/>
						</defs>
						<clipPath id="SVGID_6_">
							<use overflow="visible" xlink:href="#SVGID_5_"/>
						</clipPath>
						<g clip-path="url(#SVGID_6_)">
							<polygon points="32.347 744.71 114.67 744.71 114.67 586.39" fill="#B09A93"/>
							<polygon points="114.67 586.39 114.67 744.71 197 744.71" fill="#958682"/>
						</g>
						<defs>
							<polygon id="SVGID_7_" points="32.347 744.71 114.67 586.39 197 744.71"/>
						</defs>
						<clipPath id="SVGID_8_">
							<use overflow="visible" xlink:href="#SVGID_7_"/>
						</clipPath>
						<g clip-path="url(#SVGID_8_)">
							<path d="m77.294 647.22c0.481 5.662 5.46 9.864 11.123 9.385 2.083-0.178 3.966-0.966 5.494-2.172 1.132 4.91 5.717 8.372 10.883 7.934 3.659-0.311 6.698-2.505 8.269-5.542 0.47 0.623 1.015 1.181 1.609 1.681v-72.108c-4.75 0.41-37.855 55.16-37.376 60.83z" fill="#fff"/>
							<path d="m150.69 645.37c-0.479-5.662-30.354-59.452-36.017-58.973v72.108c2.008 1.693 4.651 2.63 7.474 2.392 4.747-0.402 8.455-3.97 9.252-8.448 2.071 2.08 5.008 3.265 8.161 2.999 5.67-0.49 11.62-4.42 11.14-10.08z" fill="#E2E2E2"/>
						</g>
						<defs>
							<polygon id="SVGID_9_" points="317.66 706.71 399.98 548.39 482.31 706.71"/>
						</defs>
						<clipPath id="SVGID_10_">
							<use overflow="visible" xlink:href="#SVGID_9_"/>
						</clipPath>
						<g clip-path="url(#SVGID_10_)">
							<polygon points="317.66 706.71 399.98 706.71 399.98 548.39" fill="#97827C"/>
							<polygon points="399.98 548.39 399.98 706.71 482.31 706.71" fill="#7E6F6A"/>
						</g>
						<defs>
							<polygon id="SVGID_11_" points="317.66 706.71 399.98 548.39 482.31 706.71"/>
						</defs>
						<clipPath id="SVGID_12_">
							<use overflow="visible" xlink:href="#SVGID_11_"/>
						</clipPath>
						<g clip-path="url(#SVGID_12_)">
							<path d="m362.6 609.22c0.481 5.662 5.461 9.864 11.122 9.385 2.084-0.178 3.967-0.966 5.495-2.172 1.132 4.91 5.717 8.372 10.883 7.934 3.659-0.311 6.699-2.505 8.27-5.542 0.47 0.623 1.014 1.181 1.608 1.681v-72.108c-4.74 0.41-37.86 55.16-37.38 60.83z" fill="#E5E5E4"/>
							<path d="m436 607.37c-0.479-5.662-30.354-59.452-36.017-58.973v72.108c2.008 1.693 4.651 2.63 7.474 2.392 4.748-0.402 8.455-3.97 9.253-8.448 2.07 2.08 5.008 3.265 8.162 2.999 5.67-0.49 11.62-4.42 11.14-10.08z" fill="#C9C9C9"/>
						</g>
						<defs>
							<polygon id="SVGID_13_" points="599.26 703.71 681.58 545.39 763.91 703.71"/>
						</defs>
						<clipPath id="SVGID_14_">
							<use overflow="visible" xlink:href="#SVGID_13_"/>
						</clipPath>
						<g clip-path="url(#SVGID_14_)">
							<polygon points="599.26 703.71 681.58 703.71 681.58 545.39" fill="#97827C"/>
							<polygon points="681.58 545.39 681.58 703.71 763.91 703.71" fill="#7E6F6A"/>
						</g>
						<defs>
							<polygon id="SVGID_15_" points="599.26 703.71 681.58 545.39 763.91 703.71"/>
						</defs>
						<clipPath id="SVGID_16_">
							<use overflow="visible" xlink:href="#SVGID_15_"/>
						</clipPath>
						<g clip-path="url(#SVGID_16_)">
							<path d="m644.2 606.22c0.481 5.662 5.461 9.864 11.122 9.385 2.084-0.178 3.967-0.966 5.495-2.172 1.132 4.91 5.717 8.372 10.883 7.934 3.659-0.311 6.699-2.505 8.27-5.542 0.47 0.623 1.014 1.181 1.608 1.681v-72.108c-4.74 0.41-37.86 55.16-37.38 60.83z" fill="#E5E5E4"/>
							<path d="m717.6 604.37c-0.479-5.662-30.354-59.452-36.017-58.973v72.108c2.008 1.693 4.651 2.63 7.474 2.392 4.748-0.402 8.455-3.97 9.253-8.448 2.07 2.08 5.008 3.265 8.162 2.999 5.67-0.49 11.62-4.42 11.14-10.08z" fill="#C9C9C9"/>
						</g>
						<defs>
							<polygon id="SVGID_17_" points="178.12 725.71 278.82 532.05 379.52 725.71"/>
						</defs>
						<clipPath id="SVGID_18_">
							<use overflow="visible" xlink:href="#SVGID_17_"/>
						</clipPath>
						<g clip-path="url(#SVGID_18_)">
							<polygon points="178.12 725.71 278.82 725.71 278.82 532.05" fill="#B09A93"/>
							<polygon points="278.82 532.05 278.82 725.71 379.52 725.71" fill="#958682"/>
						</g>
						<defs>
							<polygon id="SVGID_19_" points="178.12 725.71 278.82 532.05 379.52 725.71"/>
						</defs>
						<clipPath id="SVGID_20_">
							<use overflow="visible" xlink:href="#SVGID_19_"/>
						</clipPath>
						<g clip-path="url(#SVGID_20_)">
							<path d="m233.1 606.45c0.588 6.925 6.679 12.065 13.606 11.479 2.549-0.218 4.852-1.183 6.721-2.658 1.384 6.007 6.994 10.241 13.312 9.706 4.475-0.38 8.193-3.064 10.114-6.779 0.575 0.762 1.242 1.444 1.968 2.055v-88.205c-5.81 0.48-46.31 67.46-45.72 74.39z" fill="#fff"/>
							<path d="m322.88 604.19c-0.588-6.926-37.129-72.725-44.057-72.139v88.205c2.457 2.072 5.688 3.217 9.143 2.927 5.807-0.492 10.341-4.858 11.317-10.334 2.532 2.543 6.126 3.994 9.984 3.669 6.93-0.6 14.2-5.41 13.62-12.34z" fill="#E2E2E2"/>
						</g>
						<defs>
							<polygon id="SVGID_21_" points="462.1 703.71 562.8 510.05 663.5 703.71"/>
						</defs>
						<clipPath id="SVGID_22_">
							<use overflow="visible" xlink:href="#SVGID_21_"/>
						</clipPath>
						<g clip-path="url(#SVGID_22_)">
							<polygon points="462.1 703.71 562.8 703.71 562.8 510.05" fill="#B09A93"/>
							<polygon points="562.8 510.05 562.8 703.71 663.5 703.71" fill="#958682"/>
						</g>
						<defs>
							<polygon id="SVGID_23_" points="462.1 703.71 562.8 510.05 663.5 703.71"/>
						</defs>
						<clipPath id="SVGID_24_">
							<use overflow="visible" xlink:href="#SVGID_23_"/>
						</clipPath>
						<g clip-path="url(#SVGID_24_)">
							<path d="m517.08 584.45c0.587 6.925 6.679 12.065 13.605 11.479 2.549-0.218 4.853-1.183 6.722-2.658 1.384 6.007 6.993 10.241 13.312 9.706 4.474-0.38 8.193-3.064 10.114-6.779 0.575 0.762 1.242 1.444 1.968 2.055v-88.205c-5.8 0.48-46.3 67.46-45.71 74.39z" fill="#fff"/>
							<path d="m606.86 582.19c-0.588-6.926-37.13-72.725-44.058-72.139v88.205c2.457 2.072 5.688 3.217 9.143 2.927 5.807-0.492 10.341-4.858 11.317-10.334 2.532 2.543 6.126 3.994 9.984 3.669 6.93-0.6 14.21-5.41 13.62-12.34z" fill="#E2E2E2"/>
						</g>
</g>
<g id="arboles">
		<rect y="689.89" x="362.39" height="17.857" width="3.213" fill="#6B472E"/>
		<path d="m364 648.77c-6.997 0-12.673 5.676-12.673 12.676v18.942c0 7.004 5.676 12.673 12.673 12.673 7.003 0 12.673-5.669 12.673-12.673v-18.942c0-7-5.67-12.68-12.67-12.68z" fill="#69774E"/>
		<rect y="686.1" x="427.08" height="16.434" width="2.958" fill="#6B472E"/>
		<path d="m428.56 648.26c-6.44 0-11.664 5.223-11.664 11.665v17.432c0 6.444 5.224 11.661 11.664 11.661 6.443 0 11.661-5.217 11.661-11.661v-17.432c0-6.44-5.22-11.66-11.66-11.66z" fill="#69774E"/>
		<rect y="678.41" x="586.8" height="16.433" width="2.956" fill="#6B472E"/>
		<path d="m588.28 640.57c-6.44 0-11.664 5.224-11.664 11.666v17.431c0 6.446 5.224 11.662 11.664 11.662 6.443 0 11.661-5.216 11.661-11.662v-17.431c0-6.45-5.22-11.67-11.66-11.67z" fill="#69774E"/>
		<rect y="678.41" x="623.35" height="16.433" width="2.957" fill="#6B472E"/>
		<path d="m624.83 640.57c-6.439 0-11.663 5.224-11.663 11.666v17.431c0 6.446 5.224 11.662 11.663 11.662 6.445 0 11.661-5.216 11.661-11.662v-17.431c0-6.45-5.22-11.67-11.66-11.67z" fill="#69774E"/>
		<rect y="689.38" x="399.6" height="17.92" width="3.531" fill="#6B472E"/>
		<polygon points="401.37 632.74 384.24 690.79 401.37 690.79 418.5 690.79" fill="#69774E"/>
		<rect y="686.48" x="462.94" height="15.729" width="3.099" fill="#6B472E"/>
		<polygon points="464.48 636.76 449.45 687.72 464.48 687.72 479.52 687.72" fill="#69774E"/>
		<rect y="677.89" x="545.23" height="14.63" width="2.883" fill="#6B472E"/>
		<polygon points="546.68 631.65 532.69 679.04 546.68 679.04 560.66 679.04" fill="#69774E"/>
		<rect y="684.99" x="479.42" height="17.855" width="3.214" fill="#6B472E"/>
		<path d="m481.02 643.88c-6.997 0-12.673 5.675-12.673 12.676v18.942c0 7.005 5.676 12.672 12.673 12.672 7.005 0 12.674-5.667 12.674-12.672v-18.942c0-7.01-5.67-12.68-12.67-12.68z" fill="#8E8F42"/>
		<rect y="686.26" x="412.44" height="17.857" width="3.214" fill="#6B472E"/>
		<path d="m414.04 645.14c-6.998 0-12.674 5.678-12.674 12.678v18.941c0 7.004 5.676 12.673 12.674 12.673 7.003 0 12.673-5.669 12.673-12.673v-18.941c0.01-7-5.66-12.68-12.67-12.68z" fill="#8E8F42"/>
		<rect y="692.46" x="347.94" height="17.856" width="3.215" fill="#6B472E"/>
		<path d="m349.54 651.34c-6.999 0-12.674 5.677-12.674 12.678v18.941c0 7.004 5.675 12.673 12.674 12.673 7.003 0 12.673-5.669 12.673-12.673v-18.941c0.01-7-5.66-12.68-12.67-12.68z" fill="#8E8F42"/>
		<rect y="712.59" x="158.34" height="17.856" width="3.215" fill="#6B472E"/>
		<path d="m159.94 671.47c-6.999 0-12.674 5.677-12.674 12.678v18.941c0 7.004 5.675 12.673 12.674 12.673 7.003 0 12.673-5.669 12.673-12.673v-18.941c0.01-7.01-5.66-12.68-12.67-12.68z" fill="#8E8F42"/>
		<rect y="687.09" x="441.59" height="17.92" width="3.531" fill="#6B472E"/>
		<polygon points="443.36 630.45 426.23 688.5 443.36 688.5 460.49 688.5" fill="#8E8F42"/>
		<rect y="676.28" x="526.18" height="17.92" width="3.532" fill="#6B472E"/>
		<polygon points="527.95 619.63 510.82 677.69 527.95 677.69 545.08 677.69" fill="#8E8F42"/>
		<rect y="675.28" x="567.34" height="17.92" width="3.531" fill="#6B472E"/>
		<polygon points="569.11 618.63 551.98 676.69 569.11 676.69 586.24 676.69" fill="#8E8F42"/>
		<rect y="676.08" x="603.66" height="16.474" width="3.247" fill="#6B472E"/>
		<polygon points="605.28 624.01 589.54 677.38 605.28 677.38 621.04 677.38" fill="#8E8F42"/>
		<rect y="690.3" x="380.97" height="17.92" width="3.531" fill="#6B472E"/>
		<polygon points="382.74 633.65 365.6 691.71 382.74 691.71 399.87 691.71" fill="#8E8F42"/>
</g>
<g id="pisos">
				<rect y="573.01" x="1509.8" height="117.62" width="67.658" fill="#EDE5CC"/>
				<g fill="#A6CCD2">
					<rect y="581.3" x="1515.3" height="10.157" width="6.092"/>
					<rect y="581.3" x="1532.1" height="10.157" width="6.092"/>
					<rect y="581.3" x="1549" height="10.157" width="6.092"/>
					<rect y="581.3" x="1565.9" height="10.157" width="6.092"/>
					<rect y="596.75" x="1515.3" height="10.155" width="6.092"/>
					<rect y="596.75" x="1532.1" height="10.155" width="6.092"/>
					<rect y="596.75" x="1549" height="10.155" width="6.092"/>
					<rect y="596.75" x="1565.9" height="10.155" width="6.092"/>
					<rect y="612.21" x="1515.3" height="10.156" width="6.092"/>
					<rect y="612.21" x="1532.1" height="10.156" width="6.092"/>
					<rect y="612.21" x="1549" height="10.156" width="6.092"/>
					<rect y="612.21" x="1565.9" height="10.156" width="6.092"/>
				</g>
				<g fill="#A6CCD2">
					<rect y="627.67" x="1515.3" height="10.155" width="6.092"/>
					<rect y="627.67" x="1532.1" height="10.155" width="6.092"/>
					<rect y="627.67" x="1549" height="10.155" width="6.092"/>
					<rect y="627.67" x="1565.9" height="10.155" width="6.092"/>
					<rect y="643.12" x="1515.3" height="10.155" width="6.092"/>
					<rect y="643.12" x="1532.1" height="10.155" width="6.092"/>
					<rect y="643.12" x="1549" height="10.155" width="6.092"/>
					<rect y="643.12" x="1565.9" height="10.155" width="6.092"/>
					<rect y="658.58" x="1515.3" height="10.156" width="6.092"/>
					<rect y="658.58" x="1532.1" height="10.156" width="6.092"/>
					<rect y="658.58" x="1549" height="10.156" width="6.092"/>
					<rect y="658.58" x="1565.9" height="10.156" width="6.092"/>
				</g>
				<rect y="624.36" x="1506.1" height="1.311" width="73.615" fill="#4C343A"/>
				<rect y="569.14" x="1506.1" height="3.87" width="73.615" fill="#4C343A"/>
				<path d="m1566.4 557.3c-3.267-9.417-12.211-16.18-22.739-16.18-10.53 0-19.474 6.763-22.74 16.18h-11.09v11.848h67.658v-11.848h-11.2z" fill="#7B5249"/>
				<path d="m1561.7 565.18c0-9.965-8.078-18.044-18.042-18.044-9.966 0-18.044 8.078-18.044 18.044" fill="#4C343A"/>
		<rect y="682.75" x="1509.8" height="7.884" width="67.658" fill="#E8D6BA"/>
			<rect y="609.86" x="1556.8" height="84.767" width="92.938" fill="#D99446"/>
			<rect y="644.5" x="1556.8" height="30.7" width="92.938" fill="#69441E"/>
			<g fill="#A6CCD2">
				<rect y="615.97" x="1566.8" height="10.047" width="6.025"/>
				<rect y="615.97" x="1578" height="10.047" width="6.029"/>
				<rect y="615.97" x="1589.2" height="10.047" width="6.027"/>
				<rect y="615.97" x="1600.5" height="10.047" width="6.027"/>
				<rect y="615.97" x="1613" height="10.047" width="6.025"/>
				<rect y="615.97" x="1624.2" height="10.047" width="6.03"/>
				<rect y="615.97" x="1635.5" height="10.047" width="6.025"/>
				<rect y="630.45" x="1566.8" height="10.047" width="6.025"/>
				<rect y="630.45" x="1578" height="10.047" width="6.029"/>
				<rect y="630.45" x="1589.2" height="10.047" width="6.027"/>
				<rect y="630.45" x="1600.5" height="10.047" width="6.027"/>
				<rect y="630.45" x="1613" height="10.047" width="6.025"/>
				<rect y="630.45" x="1624.2" height="10.047" width="6.03"/>
				<rect y="630.45" x="1635.5" height="10.047" width="6.025"/>
			</g>
			<g fill="#A6CCD2">
				<rect y="648.12" x="1566.8" height="10.046" width="6.025"/>
				<rect y="648.12" x="1578" height="10.046" width="6.029"/>
				<rect y="648.12" x="1589.2" height="10.046" width="6.027"/>
				<rect y="648.12" x="1600.5" height="10.046" width="6.027"/>
				<rect y="648.12" x="1613" height="10.046" width="6.025"/>
				<rect y="648.12" x="1624.2" height="10.046" width="6.03"/>
				<rect y="648.12" x="1635.5" height="10.046" width="6.025"/>
				<rect y="662.6" x="1566.8" height="10.046" width="6.025"/>
				<rect y="662.6" x="1578" height="10.046" width="6.029"/>
				<rect y="662.6" x="1589.2" height="10.046" width="6.027"/>
				<rect y="662.6" x="1600.5" height="10.046" width="6.027"/>
				<rect y="662.6" x="1613" height="10.046" width="6.025"/>
				<rect y="662.6" x="1624.2" height="10.046" width="6.03"/>
				<rect y="662.6" x="1635.5" height="10.046" width="6.025"/>
			</g>
			<rect y="603.35" x="1555.2" height="6.515" width="96.203" fill="#583A19"/>
				<polygon points="1649.8 603.35 1631.6 584.92 1575 584.92 1556.8 603.35" fill="#69441E"/>
		<rect y="689.78" x="1556.8" height="4.849" width="92.938" fill="#DAD3B4"/>
		<rect y="676.48" x="1616.7" height="18.153" width="12.378" fill="#69441E"/>
			<rect y="592.84" x="1303.4" height="75.91" width="83.227" fill="#EDE5CC"/>
			<rect y="623.85" x="1303.4" height="27.493" width="83.227" fill="#69441E"/>
			<g fill="#A6CCD2">
				<rect y="598.31" x="1312.3" height="8.998" width="5.396"/>
				<rect y="598.31" x="1322.3" height="8.998" width="5.399"/>
				<rect y="598.31" x="1332.4" height="8.998" width="5.397"/>
				<rect y="598.31" x="1342.5" height="8.998" width="5.397"/>
				<rect y="598.31" x="1353.7" height="8.998" width="5.396"/>
				<rect y="598.31" x="1363.7" height="8.998" width="5.4"/>
				<rect y="598.31" x="1373.8" height="8.998" width="5.395"/>
				<rect y="611.28" x="1312.3" height="8.997" width="5.396"/>
				<rect y="611.28" x="1322.3" height="8.997" width="5.399"/>
				<rect y="611.28" x="1332.4" height="8.997" width="5.397"/>
				<rect y="611.28" x="1342.5" height="8.997" width="5.397"/>
				<rect y="611.28" x="1353.7" height="8.997" width="5.396"/>
				<rect y="611.28" x="1363.7" height="8.997" width="5.4"/>
				<rect y="611.28" x="1373.8" height="8.997" width="5.395"/>
			</g>
			<g fill="#A6CCD2">
				<rect y="627.1" x="1312.3" height="8.996" width="5.396"/>
				<rect y="627.1" x="1322.3" height="8.996" width="5.399"/>
				<rect y="627.1" x="1332.4" height="8.996" width="5.397"/>
				<rect y="627.1" x="1342.5" height="8.996" width="5.397"/>
				<rect y="627.1" x="1353.7" height="8.996" width="5.396"/>
				<rect y="627.1" x="1363.7" height="8.996" width="5.4"/>
				<rect y="627.1" x="1373.8" height="8.996" width="5.395"/>
				<rect y="640.06" x="1312.3" height="8.997" width="5.396"/>
				<rect y="640.06" x="1322.3" height="8.997" width="5.399"/>
				<rect y="640.06" x="1332.4" height="8.997" width="5.397"/>
				<rect y="640.06" x="1342.5" height="8.997" width="5.397"/>
				<rect y="640.06" x="1353.7" height="8.997" width="5.396"/>
				<rect y="640.06" x="1363.7" height="8.997" width="5.4"/>
				<rect y="640.06" x="1373.8" height="8.997" width="5.395"/>
			</g>
			<rect y="587.01" x="1301.9" height="5.834" width="86.151" fill="#4C343A"/>
				<polygon points="1386.6 587.01 1370.3 570.5 1319.7 570.5 1303.4 587.01" fill="#7B5249"/>
		<rect y="664.41" x="1303.4" height="4.342" width="83.227" fill="#DAD3B4"/>
		<rect y="652.49" x="1357" height="16.256" width="11.085" fill="#69441E"/>
			<polygon points="1314.2 629.3 1341.6 612.32 1369 629.3" fill="#5C7639"/>
		<rect y="632.62" x="1314.2" height="24.796" width="54.802" fill="#8E966E"/>
		<rect y="660.13" x="1314.2" height="23.755" width="54.802" fill="#8E966E"/>
		<g fill="#A6CCD2">
			<rect y="638.44" x="1318.8" height="4.457" width="11.947"/>
			<rect y="638.44" x="1336" height="4.457" width="11.946"/>
			<rect y="638.44" x="1353.1" height="4.457" width="11.946"/>
			<rect y="648.31" x="1318.8" height="4.457" width="11.947"/>
			<rect y="648.31" x="1336" height="4.457" width="11.946"/>
			<rect y="648.31" x="1353.1" height="4.457" width="11.946"/>
		</g>
		<rect y="628.77" x="1313.2" height="3.842" width="56.728" fill="#415A2A"/>
		<rect y="656.76" x="1313.2" height="3.842" width="56.728" fill="#424243"/>
		<rect y="674.58" x="1338" height="9.3" width="7.089" fill="#424243"/>
		<rect y="665.95" x="1323.6" height="4.457" width="11.947" fill="#A6CCD2"/>
		<rect y="665.95" x="1346.6" height="4.457" width="11.947" fill="#A6CCD2"/>
		<path d="m1344.7 619.98c-0.52-1.231-1.739-2.095-3.159-2.095-1.894 0-3.43 1.535-3.43 3.43 0 1.412 0.855 2.622 2.074 3.148 0.007 0.003 0.014 0.008 0.021 0.011 0.169 0.072 0.349 0.121 0.531 0.165 0.039 0.009 0.073 0.027 0.112 0.035 0.224 0.046 0.455 0.07 0.691 0.07 1.894 0 3.429-1.534 3.429-3.429 0.1-0.47 0-0.92-0.2-1.34z" fill="#424243"/>
			<rect y="583.27" x="1691.5" height="124.79" width="65.076" fill="#7B5249"/>
				<path d="m1724 535.35c-1.927 0-3.488 1.562-3.488 3.489 0 1.477 0.922 2.733 2.219 3.242v16.885h2.539v-16.885c1.297-0.509 2.219-1.765 2.219-3.242 0.1-1.93-1.5-3.49-3.4-3.49z" fill="#424243"/>
				<path d="m1756.5 580.08c-3.812-9.583-14.568-22.38-32.537-22.38s-28.726 12.797-32.537 22.38h65z" fill="#4C343A"/>
				<rect y="576.88" x="1688.2" height="6.389" width="71.555" fill="#4C343A"/>
			<rect y="639.07" x="1688.2" height="2.182" width="71.555" fill="#4C343A"/>
				<g fill="#A6CCD2">
					<rect y="589.94" x="1696.9" height="6.97" width="15.194"/>
					<rect y="589.94" x="1716.4" height="6.97" width="15.194"/>
					<rect y="589.94" x="1735.9" height="6.97" width="15.195"/>
					<rect y="602.42" x="1696.9" height="6.97" width="15.194"/>
					<rect y="602.42" x="1716.4" height="6.97" width="15.194"/>
					<rect y="602.42" x="1735.9" height="6.97" width="15.195"/>
					<rect y="614.9" x="1696.9" height="6.97" width="15.194"/>
					<rect y="614.9" x="1716.4" height="6.97" width="15.194"/>
					<rect y="614.9" x="1735.9" height="6.97" width="15.195"/>
					<rect y="627.38" x="1696.9" height="6.97" width="15.194"/>
					<rect y="627.38" x="1716.4" height="6.97" width="15.194"/>
					<rect y="627.38" x="1735.9" height="6.97" width="15.195"/>
				</g>
				<g fill="#A6CCD2">
					<rect y="672.7" x="1696.9" height="6.97" width="15.194"/>
					<rect y="672.7" x="1716.4" height="6.97" width="15.194"/>
					<rect y="672.7" x="1735.9" height="6.97" width="15.195"/>
					<rect y="685.18" x="1696.9" height="6.97" width="15.194"/>
					<rect y="685.18" x="1716.4" height="6.97" width="15.194"/>
					<rect y="685.18" x="1735.9" height="6.97" width="15.195"/>
				</g>
				<g fill="#A6CCD2">
					<rect y="647.74" x="1696.9" height="6.97" width="15.195"/>
					<rect y="647.74" x="1716.4" height="6.97" width="15.195"/>
					<rect y="647.74" x="1735.9" height="6.97" width="15.194"/>
					<rect y="660.22" x="1696.9" height="6.97" width="15.195"/>
					<rect y="660.22" x="1716.4" height="6.97" width="15.195"/>
					<rect y="660.22" x="1735.9" height="6.97" width="15.194"/>
				</g>
		<rect y="699.36" x="1691.5" height="10" width="65.076" fill="#E8D6BA"/>
			<rect y="573.95" x="1378.2" height="18.183" width="9.647" fill="#141E2A"/>
			<rect y="613.05" x="1360.2" height="70.456" width="54.979" fill="#7B5249"/>
			<rect y="674.85" x="1360.2" height="8.653" width="54.979" fill="#E8D6BA"/>
					<rect y="623.75" x="1366.3" height="13.97" width="10.531" fill="#A6CCD2"/>
					<path d="m1377.3 638.22h-11.531v-14.97h11.531v14.97zm-10.5-1h9.531v-12.97h-9.531v12.97z" fill="#424243"/>
					<rect y="623.75" x="1382.5" height="13.97" width="10.531" fill="#A6CCD2"/>
					<path d="m1393.6 638.22h-11.531v-14.97h11.531v14.97zm-10.6-1h9.531v-12.97h-9.531v12.97z" fill="#424243"/>
					<rect y="623.75" x="1398.8" height="13.97" width="10.53" fill="#A6CCD2"/>
					<path d="m1409.8 638.22h-11.53v-14.97h11.53v14.97zm-10.5-1h9.53v-12.97h-9.53v12.97z" fill="#424243"/>
					<rect y="654.54" x="1365.8" height="13.97" width="10.531" fill="#A6CCD2"/>
					<path d="m1376.9 669.01h-11.531v-14.97h11.531v14.97zm-10.6-1h9.531v-12.97h-9.531v12.97z" fill="#424243"/>
					<rect y="654.54" x="1382.1" height="13.97" width="10.53" fill="#A6CCD2"/>
					<path d="m1393.1 669.01h-11.53v-14.97h11.53v14.97zm-10.5-1h9.53v-12.97h-9.53v12.97z" fill="#424243"/>
					<rect y="654.54" x="1398.3" height="13.97" width="10.53" fill="#A6CCD2"/>
					<path d="m1409.3 669.01h-11.53v-14.97h11.53v14.97zm-10.5-1h9.53v-12.97h-9.53v12.97z" fill="#424243"/>
				<rect y="585.11" x="1360.2" height="29.706" width="54.979" fill="#182937"/>
								<defs>
									<rect id="SVGID_25_" y="585.11" x="1360.2" height="29.706" width="54.979"/>
								</defs>
								<clipPath id="SVGID_26_">
									<use overflow="visible" xlink:href="#SVGID_25_"/>
								</clipPath>
								<g fill="#141E2A" clip-path="url(#SVGID_26_)">
										<path d="m1368.1 586.6c0 1.083-0.862 1.962-1.927 1.962-1.064 0-1.927-0.878-1.927-1.962s-0.491-1.962 1.927-1.962 1.9 0.88 1.9 1.96z"/>
										<path d="m1368.1 592.14c0 1.083-0.862 1.962-1.927 1.962-1.064 0-1.927-0.878-1.927-1.962s-0.491-1.962 1.927-1.962 1.9 0.87 1.9 1.96z"/>
										<path d="m1368.1 598.2c0 1.083-0.862 1.962-1.927 1.962-1.064 0-1.927-0.878-1.927-1.962s-0.491-1.962 1.927-1.962 1.9 0.88 1.9 1.96z"/>
										<path d="m1368.1 603.73c0 1.084-0.862 1.962-1.927 1.962-1.064 0-1.927-0.878-1.927-1.962 0-1.083-0.491-1.961 1.927-1.961s1.9 0.88 1.9 1.96z"/>
										<path d="m1368.1 609.8c0 1.083-0.862 1.961-1.927 1.961-1.064 0-1.927-0.878-1.927-1.961 0-1.084-0.491-1.963 1.927-1.963s1.9 0.87 1.9 1.96z"/>
										<path d="m1368.1 615.33c0 1.085-0.862 1.962-1.927 1.962-1.064 0-1.927-0.877-1.927-1.962 0-1.083-0.491-1.962 1.927-1.962s1.9 0.88 1.9 1.96z"/>
										<path d="m1372 589.37c0 1.084-0.862 1.962-1.926 1.962s-1.927-0.878-1.927-1.962c0-1.083-0.491-1.962 1.927-1.962 2.4 0 1.9 0.88 1.9 1.96z"/>
										<path d="m1372 594.9c0 1.083-0.862 1.962-1.926 1.962s-1.927-0.878-1.927-1.962-0.491-1.962 1.927-1.962c2.4 0 1.9 0.88 1.9 1.96z"/>
										<path d="m1372 600.97c0 1.083-0.862 1.961-1.926 1.961s-1.927-0.878-1.927-1.961-0.491-1.962 1.927-1.962 1.9 0.87 1.9 1.96z"/>
										<path d="m1372 606.5c0 1.083-0.862 1.962-1.926 1.962s-1.927-0.879-1.927-1.962c0-1.084-0.491-1.962 1.927-1.962 2.4 0 1.9 0.88 1.9 1.96z"/>
										<path d="m1372 612.56c0 1.083-0.862 1.962-1.926 1.962s-1.927-0.879-1.927-1.962-0.491-1.961 1.927-1.961 1.9 0.88 1.9 1.96z"/>
										<path d="m1372 618.1c0 1.085-0.862 1.962-1.926 1.962s-1.927-0.878-1.927-1.962c0-1.083-0.491-1.961 1.927-1.961s1.9 0.87 1.9 1.96z"/>
										<path d="m1375.9 586.6c0 1.083-0.863 1.962-1.927 1.962-1.065 0-1.927-0.878-1.927-1.962s-0.491-1.962 1.927-1.962c2.4 0 1.9 0.88 1.9 1.96z"/>
										<path d="m1375.9 592.14c0 1.083-0.863 1.962-1.927 1.962-1.065 0-1.927-0.878-1.927-1.962s-0.491-1.962 1.927-1.962c2.4 0 1.9 0.87 1.9 1.96z"/>
										<path d="m1375.9 598.2c0 1.083-0.863 1.962-1.927 1.962-1.065 0-1.927-0.878-1.927-1.962s-0.491-1.962 1.927-1.962c2.4 0 1.9 0.88 1.9 1.96z"/>
										<path d="m1375.9 603.73c0 1.084-0.863 1.962-1.927 1.962-1.065 0-1.927-0.878-1.927-1.962 0-1.083-0.491-1.961 1.927-1.961 2.4 0 1.9 0.88 1.9 1.96z"/>
										<path d="m1375.9 609.8c0 1.083-0.863 1.961-1.927 1.961-1.065 0-1.927-0.878-1.927-1.961 0-1.084-0.491-1.963 1.927-1.963 2.4-0.01 1.9 0.87 1.9 1.96z"/>
										<path d="m1375.9 615.33c0 1.085-0.863 1.962-1.927 1.962-1.065 0-1.927-0.877-1.927-1.962 0-1.083-0.491-1.962 1.927-1.962 2.4 0 1.9 0.88 1.9 1.96z"/>
										<path d="m1379.9 589.37c0 1.084-0.862 1.962-1.927 1.962-1.063 0-1.926-0.878-1.926-1.962 0-1.083-0.49-1.962 1.926-1.962 2.4 0 1.9 0.88 1.9 1.96z"/>
										<path d="m1379.9 594.9c0 1.083-0.862 1.962-1.927 1.962-1.063 0-1.926-0.878-1.926-1.962s-0.49-1.962 1.926-1.962c2.4 0 1.9 0.88 1.9 1.96z"/>
										<path d="m1379.9 600.97c0 1.083-0.862 1.961-1.927 1.961-1.063 0-1.926-0.878-1.926-1.961s-0.49-1.962 1.926-1.962c2.4-0.01 1.9 0.87 1.9 1.96z"/>
										<path d="m1379.9 606.5c0 1.083-0.862 1.962-1.927 1.962-1.063 0-1.926-0.879-1.926-1.962 0-1.084-0.49-1.962 1.926-1.962 2.4 0 1.9 0.88 1.9 1.96z"/>
										<path d="m1379.9 612.56c0 1.083-0.862 1.962-1.927 1.962-1.063 0-1.926-0.879-1.926-1.962s-0.49-1.961 1.926-1.961c2.4 0 1.9 0.88 1.9 1.96z"/>
										<path d="m1379.9 618.1c0 1.085-0.862 1.962-1.927 1.962-1.063 0-1.926-0.878-1.926-1.962 0-1.083-0.49-1.961 1.926-1.961 2.4 0 1.9 0.87 1.9 1.96z"/>
										<path d="m1383.8 586.6c0 1.083-0.863 1.962-1.927 1.962s-1.927-0.878-1.927-1.962-0.491-1.962 1.927-1.962c2.4 0 1.9 0.88 1.9 1.96z"/>
										<path d="m1383.8 592.14c0 1.083-0.863 1.962-1.927 1.962s-1.927-0.878-1.927-1.962-0.491-1.962 1.927-1.962c2.4 0 1.9 0.87 1.9 1.96z"/>
										<path d="m1383.8 598.2c0 1.083-0.863 1.962-1.927 1.962s-1.927-0.878-1.927-1.962-0.491-1.962 1.927-1.962c2.4 0 1.9 0.88 1.9 1.96z"/>
										<path d="m1383.8 603.73c0 1.084-0.863 1.962-1.927 1.962s-1.927-0.878-1.927-1.962c0-1.083-0.491-1.961 1.927-1.961 2.4 0 1.9 0.88 1.9 1.96z"/>
										<path d="m1383.8 609.8c0 1.083-0.863 1.961-1.927 1.961s-1.927-0.878-1.927-1.961c0-1.084-0.491-1.963 1.927-1.963 2.4-0.01 1.9 0.87 1.9 1.96z"/>
										<path d="m1383.8 615.33c0 1.085-0.863 1.962-1.927 1.962s-1.927-0.877-1.927-1.962c0-1.083-0.491-1.962 1.927-1.962 2.4 0 1.9 0.88 1.9 1.96z"/>
										<path d="m1387.7 589.37c0 1.084-0.862 1.962-1.926 1.962s-1.926-0.878-1.926-1.962c0-1.083-0.492-1.962 1.926-1.962 2.4 0 1.9 0.88 1.9 1.96z"/>
										<path d="m1387.7 594.9c0 1.083-0.862 1.962-1.926 1.962s-1.926-0.878-1.926-1.962-0.492-1.962 1.926-1.962c2.4 0 1.9 0.88 1.9 1.96z"/>
										<path d="m1387.7 600.97c0 1.083-0.862 1.961-1.926 1.961s-1.926-0.878-1.926-1.961-0.492-1.962 1.926-1.962c2.4-0.01 1.9 0.87 1.9 1.96z"/>
										<path d="m1387.7 606.5c0 1.083-0.862 1.962-1.926 1.962s-1.926-0.879-1.926-1.962c0-1.084-0.492-1.962 1.926-1.962 2.4 0 1.9 0.88 1.9 1.96z"/>
										<path d="m1387.7 612.56c0 1.083-0.862 1.962-1.926 1.962s-1.926-0.879-1.926-1.962-0.492-1.961 1.926-1.961c2.4 0 1.9 0.88 1.9 1.96z"/>
										<path d="m1387.7 618.1c0 1.085-0.862 1.962-1.926 1.962s-1.926-0.878-1.926-1.962c0-1.083-0.492-1.961 1.926-1.961 2.4 0 1.9 0.87 1.9 1.96z"/>
										<path d="m1391.7 586.6c0 1.083-0.864 1.962-1.927 1.962-1.064 0-1.927-0.878-1.927-1.962s-0.491-1.962 1.927-1.962c2.4 0 1.9 0.88 1.9 1.96z"/>
										<path d="m1391.7 592.14c0 1.083-0.864 1.962-1.927 1.962-1.064 0-1.927-0.878-1.927-1.962s-0.491-1.962 1.927-1.962c2.4 0 1.9 0.87 1.9 1.96z"/>
										<path d="m1391.7 598.2c0 1.083-0.864 1.962-1.927 1.962-1.064 0-1.927-0.878-1.927-1.962s-0.491-1.962 1.927-1.962c2.4 0 1.9 0.88 1.9 1.96z"/>
										<path d="m1391.7 603.73c0 1.084-0.864 1.962-1.927 1.962-1.064 0-1.927-0.878-1.927-1.962 0-1.083-0.491-1.961 1.927-1.961 2.4 0 1.9 0.88 1.9 1.96z"/>
										<path d="m1391.7 609.8c0 1.083-0.864 1.961-1.927 1.961-1.064 0-1.927-0.878-1.927-1.961 0-1.084-0.491-1.963 1.927-1.963 2.4-0.01 1.9 0.87 1.9 1.96z"/>
										<path d="m1391.7 615.33c0 1.085-0.864 1.962-1.927 1.962-1.064 0-1.927-0.877-1.927-1.962 0-1.083-0.491-1.962 1.927-1.962 2.4 0 1.9 0.88 1.9 1.96z"/>
										<path d="m1395.6 589.37c0 1.084-0.863 1.962-1.928 1.962-1.064 0-1.926-0.878-1.926-1.962 0-1.083-0.491-1.962 1.926-1.962 2.4 0 1.9 0.88 1.9 1.96z"/>
										<path d="m1395.6 594.9c0 1.083-0.863 1.962-1.928 1.962-1.064 0-1.926-0.878-1.926-1.962s-0.491-1.962 1.926-1.962c2.4 0 1.9 0.88 1.9 1.96z"/>
										<path d="m1395.6 600.97c0 1.083-0.863 1.961-1.928 1.961-1.064 0-1.926-0.878-1.926-1.961s-0.491-1.962 1.926-1.962c2.4-0.01 1.9 0.87 1.9 1.96z"/>
										<path d="m1395.6 606.5c0 1.083-0.863 1.962-1.928 1.962-1.064 0-1.926-0.879-1.926-1.962 0-1.084-0.491-1.962 1.926-1.962 2.4 0 1.9 0.88 1.9 1.96z"/>
										<path d="m1395.6 612.56c0 1.083-0.863 1.962-1.928 1.962-1.064 0-1.926-0.879-1.926-1.962s-0.491-1.961 1.926-1.961c2.4 0 1.9 0.88 1.9 1.96z"/>
										<path d="m1395.6 618.1c0 1.085-0.863 1.962-1.928 1.962-1.064 0-1.926-0.878-1.926-1.962 0-1.083-0.491-1.961 1.926-1.961 2.4 0 1.9 0.87 1.9 1.96z"/>
										<path d="m1399.6 586.6c0 1.083-0.862 1.962-1.927 1.962s-1.927-0.878-1.927-1.962-0.491-1.962 1.927-1.962c2.3 0 1.9 0.88 1.9 1.96z"/>
										<path d="m1399.6 592.14c0 1.083-0.862 1.962-1.927 1.962s-1.927-0.878-1.927-1.962-0.491-1.962 1.927-1.962c2.3 0 1.9 0.87 1.9 1.96z"/>
										<path d="m1399.6 598.2c0 1.083-0.862 1.962-1.927 1.962s-1.927-0.878-1.927-1.962-0.491-1.962 1.927-1.962c2.3 0 1.9 0.88 1.9 1.96z"/>
										<path d="m1399.6 603.73c0 1.084-0.862 1.962-1.927 1.962s-1.927-0.878-1.927-1.962c0-1.083-0.491-1.961 1.927-1.961 2.3 0 1.9 0.88 1.9 1.96z"/>
										<path d="m1399.6 609.8c0 1.083-0.862 1.961-1.927 1.961s-1.927-0.878-1.927-1.961c0-1.084-0.491-1.963 1.927-1.963 2.3-0.01 1.9 0.87 1.9 1.96z"/>
										<path d="m1399.6 615.33c0 1.085-0.862 1.962-1.927 1.962s-1.927-0.877-1.927-1.962c0-1.083-0.491-1.962 1.927-1.962 2.3 0 1.9 0.88 1.9 1.96z"/>
										<path d="m1403.5 589.37c0 1.084-0.862 1.962-1.927 1.962-1.063 0-1.926-0.878-1.926-1.962 0-1.083-0.491-1.962 1.926-1.962 2.4 0 1.9 0.88 1.9 1.96z"/>
										<path d="m1403.5 594.9c0 1.083-0.862 1.962-1.927 1.962-1.063 0-1.926-0.878-1.926-1.962s-0.491-1.962 1.926-1.962c2.4 0 1.9 0.88 1.9 1.96z"/>
										<path d="m1403.5 600.97c0 1.083-0.862 1.961-1.927 1.961-1.063 0-1.926-0.878-1.926-1.961s-0.491-1.962 1.926-1.962 1.9 0.87 1.9 1.96z"/>
										<path d="m1403.5 606.5c0 1.083-0.862 1.962-1.927 1.962-1.063 0-1.926-0.879-1.926-1.962 0-1.084-0.491-1.962 1.926-1.962 2.4 0 1.9 0.88 1.9 1.96z"/>
										<path d="m1403.5 612.56c0 1.083-0.862 1.962-1.927 1.962-1.063 0-1.926-0.879-1.926-1.962s-0.491-1.961 1.926-1.961 1.9 0.88 1.9 1.96z"/>
										<path d="m1403.5 618.1c0 1.085-0.862 1.962-1.927 1.962-1.063 0-1.926-0.878-1.926-1.962 0-1.083-0.491-1.961 1.926-1.961s1.9 0.87 1.9 1.96z"/>
										<path d="m1407.4 586.6c0 1.083-0.863 1.962-1.926 1.962-1.064 0-1.928-0.878-1.928-1.962s-0.49-1.962 1.928-1.962c2.4 0 1.9 0.88 1.9 1.96z"/>
										<path d="m1407.4 592.14c0 1.083-0.863 1.962-1.926 1.962-1.064 0-1.928-0.878-1.928-1.962s-0.49-1.962 1.928-1.962c2.4 0 1.9 0.87 1.9 1.96z"/>
										<path d="m1407.4 598.2c0 1.083-0.863 1.962-1.926 1.962-1.064 0-1.928-0.878-1.928-1.962s-0.49-1.962 1.928-1.962c2.4 0 1.9 0.88 1.9 1.96z"/>
										<path d="m1407.4 603.73c0 1.084-0.863 1.962-1.926 1.962-1.064 0-1.928-0.878-1.928-1.962 0-1.083-0.49-1.961 1.928-1.961 2.4 0 1.9 0.88 1.9 1.96z"/>
										<path d="m1407.4 609.8c0 1.083-0.863 1.961-1.926 1.961-1.064 0-1.928-0.878-1.928-1.961 0-1.084-0.49-1.963 1.928-1.963 2.4-0.01 1.9 0.87 1.9 1.96z"/>
										<path d="m1407.4 615.33c0 1.085-0.863 1.962-1.926 1.962-1.064 0-1.928-0.877-1.928-1.962 0-1.083-0.49-1.962 1.928-1.962 2.4 0 1.9 0.88 1.9 1.96z"/>
										<path d="m1411.4 589.37c0 1.084-0.862 1.962-1.925 1.962-1.065 0-1.927-0.878-1.927-1.962 0-1.083-0.491-1.962 1.927-1.962 2.3 0 1.9 0.88 1.9 1.96z"/>
										<path d="m1411.4 594.9c0 1.083-0.862 1.962-1.925 1.962-1.065 0-1.927-0.878-1.927-1.962s-0.491-1.962 1.927-1.962c2.3 0 1.9 0.88 1.9 1.96z"/>
										<path d="m1411.4 600.97c0 1.083-0.862 1.961-1.925 1.961-1.065 0-1.927-0.878-1.927-1.961s-0.491-1.962 1.927-1.962c2.3-0.01 1.9 0.87 1.9 1.96z"/>
										<path d="m1411.4 606.5c0 1.083-0.862 1.962-1.925 1.962-1.065 0-1.927-0.879-1.927-1.962 0-1.084-0.491-1.962 1.927-1.962 2.3 0 1.9 0.88 1.9 1.96z"/>
										<path d="m1411.4 612.56c0 1.083-0.862 1.962-1.925 1.962-1.065 0-1.927-0.879-1.927-1.962s-0.491-1.961 1.927-1.961c2.3 0 1.9 0.88 1.9 1.96z"/>
										<path d="m1411.4 618.1c0 1.085-0.862 1.962-1.925 1.962-1.065 0-1.927-0.878-1.927-1.962 0-1.083-0.491-1.961 1.927-1.961 2.3 0 1.9 0.87 1.9 1.96z"/>
								</g>
			<rect y="582.55" x="1360.2" height="32.267" width="4.428" fill="#213341"/>
			<rect y="582.55" x="1410.8" height="32.267" width="4.428" fill="#213341"/>
			<rect y="614.81" x="1358.5" height="3.201" width="58.131" fill="#213341"/>
			<rect y="637.72" x="1364.9" height="1.123" width="13.292" fill="#424243"/>
			<rect y="637.72" x="1381.1" height="1.123" width="13.292" fill="#424243"/>
			<rect y="637.72" x="1397.3" height="1.123" width="13.292" fill="#424243"/>
			<rect y="668.34" x="1364.5" height="1.123" width="13.292" fill="#424243"/>
			<rect y="668.34" x="1380.7" height="1.123" width="13.292" fill="#424243"/>
			<rect y="668.34" x="1396.9" height="1.123" width="13.292" fill="#424243"/>
					<path d="m1362.9 649.22c0 0.801-0.739 1.45-1.653 1.45-0.913 0-1.652-0.649-1.652-1.45v-1.615l3.306 0.011c0.1 0.01 0.1 0.81 0.1 1.61z" fill="#5E4B3C"/>
					<path d="m1366.2 649.22c0 0.801-0.74 1.45-1.653 1.45-0.914 0-1.654-0.649-1.654-1.45v-1.615l3.307 0.011c0.1 0.01 0.1 0.81 0.1 1.61z" fill="#B68A3F"/>
					<path d="m1369.5 649.22c0 0.801-0.74 1.45-1.652 1.45-0.913 0-1.653-0.649-1.653-1.45v-1.615l3.306 0.011c0.1 0.01 0.1 0.81 0.1 1.61z" fill="#5E4B3C"/>
					<path d="m1372.9 649.22c0 0.801-0.741 1.45-1.653 1.45-0.914 0-1.654-0.649-1.654-1.45v-1.615l3.308 0.011c0.1 0.01 0.1 0.81 0.1 1.61z" fill="#B68A3F"/>
					<path d="m1376.2 649.22c0 0.801-0.74 1.45-1.653 1.45s-1.653-0.649-1.653-1.45v-1.615l3.306 0.011c0.1 0.01 0.1 0.81 0.1 1.61z" fill="#5E4B3C"/>
					<path d="m1379.5 649.22c0 0.801-0.74 1.45-1.654 1.45s-1.653-0.649-1.653-1.45v-1.615l3.307 0.011c0.1 0.01 0.1 0.81 0.1 1.61z" fill="#B68A3F"/>
					<path d="m1382.8 649.22c0 0.801-0.74 1.45-1.653 1.45-0.914 0-1.653-0.649-1.653-1.45v-1.615l3.306 0.011c0.1 0.01 0.1 0.81 0.1 1.61z" fill="#5E4B3C"/>
					<path d="m1386.1 649.22c0 0.801-0.74 1.45-1.653 1.45s-1.653-0.649-1.653-1.45c-0.001-0.242 0-1.615 0-1.615l3.307 0.011c0.1 0.01 0.1 0.81 0.1 1.61z" fill="#B68A3F"/>
					<path d="m1389.4 649.22c0 0.801-0.739 1.45-1.653 1.45-0.913 0-1.653-0.649-1.653-1.45v-1.615l3.306 0.011c0.1 0.01 0.1 0.81 0.1 1.61z" fill="#5E4B3C"/>
					<path d="m1392.7 649.22c0 0.801-0.74 1.45-1.654 1.45-0.913 0-1.653-0.649-1.653-1.45v-1.615l3.307 0.011c0.1 0.01 0.1 0.81 0.1 1.61z" fill="#B68A3F"/>
					<path d="m1396 649.22c0 0.801-0.741 1.45-1.653 1.45-0.914 0-1.654-0.649-1.654-1.45v-1.615l3.307 0.011c0.1 0.01 0.1 0.81 0.1 1.61z" fill="#5E4B3C"/>
					<path d="m1399.3 649.22c0 0.801-0.741 1.45-1.654 1.45s-1.652-0.649-1.652-1.45c-0.001-0.242 0-1.615 0-1.615l3.307 0.011c0.1 0.01 0.1 0.81 0.1 1.61z" fill="#B68A3F"/>
					<path d="m1402.6 649.22c0 0.801-0.741 1.45-1.654 1.45-0.914 0-1.653-0.649-1.653-1.45v-1.615l3.307 0.011c0.1 0.01 0.1 0.81 0.1 1.61z" fill="#5E4B3C"/>
					<path d="m1405.9 649.22c0 0.801-0.739 1.45-1.652 1.45s-1.653-0.649-1.653-1.45v-1.615l3.305 0.011c0.1 0.01 0.1 0.81 0.1 1.61z" fill="#B68A3F"/>
					<path d="m1409.2 649.22c0 0.801-0.74 1.45-1.653 1.45-0.915 0-1.654-0.649-1.654-1.45v-1.615l3.307 0.011c0.1 0.01 0.1 0.81 0.1 1.61z" fill="#5E4B3C"/>
					<path d="m1412.5 649.22c0 0.801-0.739 1.45-1.653 1.45-0.913 0-1.652-0.649-1.652-1.45v-1.615l3.306 0.011c0.1 0.01 0.1 0.81 0.1 1.61z" fill="#B68A3F"/>
					<path d="m1415.8 649.22c0 0.801-0.741 1.45-1.654 1.45s-1.654-0.649-1.654-1.45v-1.615l3.308 0.011c0.1 0.01 0.1 0.81 0.1 1.61z" fill="#5E4B3C"/>
				<rect y="645.88" x="1359.6" height="1.731" width="56.21" fill="#E8D6BA"/>
		<polygon points="1323.9 683.54 1260.7 683.54 1260.7 623.77 1292 580.24 1323.9 623.77" fill="#D99446"/>
			<g fill="#E8D6BA">
				<rect y="623.77" x="1260.7" height="5.256" width="2.816"/>
				<rect y="629.81" x="1260.7" height="5.255" width="4.79"/>
			</g>
			<g fill="#E8D6BA">
				<rect y="635.89" x="1260.7" height="5.256" width="2.816"/>
				<rect y="641.92" x="1260.7" height="5.254" width="4.79"/>
			</g>
				<rect y="654.04" x="1260.7" height="5.255" width="4.79" fill="#E8D6BA"/>
			<g fill="#E8D6BA">
				<rect y="660.13" x="1260.7" height="5.254" width="2.816"/>
				<rect y="666.16" x="1260.7" height="5.256" width="4.79"/>
			</g>
				<rect y="672.25" x="1260.7" height="5.254" width="2.816" fill="#E8D6BA"/>
			<g fill="#E8D6BA">
				<rect y="623.77" x="1321.1" height="5.256" width="2.815"/>
				<rect y="629.81" x="1319.1" height="5.255" width="4.79"/>
			</g>
			<g fill="#E8D6BA">
				<rect y="635.89" x="1321.1" height="5.256" width="2.815"/>
				<rect y="641.92" x="1319.1" height="5.254" width="4.79"/>
			</g>
			<g fill="#E8D6BA">
				<rect y="648.01" x="1321.1" height="5.254" width="2.815"/>
				<rect y="654.04" x="1319.1" height="5.255" width="4.79"/>
			</g>
			<g fill="#E8D6BA">
				<rect y="660.13" x="1321.1" height="5.254" width="2.815"/>
				<rect y="666.16" x="1319.1" height="5.256" width="4.79"/>
			</g>
				<rect y="672.25" x="1321.1" height="5.254" width="2.815" fill="#E8D6BA"/>
			<path d="m1296.8 603.72c-0.059-2.163-1.84-3.9-4.034-3.9s-3.975 1.737-4.034 3.9h-0.007v6.793h8.08v-6.793h-0.1z" fill="#A6CCD2"/>
			<path d="m1297.4 611.01h-9.08l0.046-7.793c0.297-2.223 2.186-3.9 4.495-3.9s4.198 1.677 4.495 3.9h0.039l0.006 0.5 0.1 7.29zm-8.1-1h7.08l-0.006-6.279c-0.052-1.914-1.604-3.414-3.534-3.414s-3.481 1.499-3.534 3.414l-0.007 0.244v6.035h-0.1z" fill="#424243"/>
					<path d="m1280.2 628.32c-0.058-2.164-1.839-3.901-4.032-3.901-2.194 0-3.975 1.737-4.034 3.901h-0.006v12.118h8.079v-12.118h-0.1z" fill="#A6CCD2"/>
					<path d="m1280.7 640.94h-9.079l0.045-13.118c0.296-2.223 2.185-3.901 4.495-3.901s4.198 1.678 4.494 3.901h0.039l0.007 0.5 0.1 12.62zm-8-1h7.079l-0.007-11.605c-0.051-1.915-1.603-3.414-3.532-3.414-1.93 0-3.482 1.5-3.534 3.415l-0.006 0.227v11.37z" fill="#424243"/>
					<path d="m1315.5 627.78c-0.059-2.164-1.841-3.9-4.034-3.9-2.194 0-3.976 1.737-4.035 3.9h-0.006v12.12h8.08v-12.118h-0.005-0.1z" fill="#A6CCD2"/>
					<path d="m1316 640.4h-9.08l0.045-13.118c0.297-2.223 2.186-3.9 4.496-3.9 2.309 0 4.198 1.678 4.495 3.9h0.039l0.005 0.5v12.62zm-8-1h7.08l-0.005-11.604c-0.052-1.915-1.604-3.414-3.534-3.414s-3.482 1.5-3.535 3.414l-0.006 0.226-0.1 11.37z" fill="#424243"/>
						<path d="m1314.9 660.57c-0.059-2.163-1.841-3.9-4.034-3.9-2.194 0-3.975 1.737-4.034 3.9h-0.004v12.12h8.078v-12.12h-0.1z" fill="#A6CCD2"/>
						<path d="m1315.5 673.19h-9.078l0.044-13.12c0.297-2.223 2.185-3.9 4.495-3.9 2.309 0 4.197 1.678 4.495 3.9h0.039l0.005 0.5 0.1 12.62zm-8.1-1h7.078l-0.005-11.606c-0.052-1.914-1.604-3.414-3.534-3.414s-3.482 1.5-3.534 3.414l-0.004 0.154-0.1 11.46z" fill="#424243"/>
						<path d="m1303.1 660.57c-0.058-2.163-1.84-3.9-4.033-3.9s-3.975 1.737-4.034 3.9h-0.007v12.12h8.08v-12.12h-0.1z" fill="#A6CCD2"/>
						<path d="m1303.6 673.19h-9.08l0.046-13.12c0.297-2.223 2.186-3.9 4.495-3.9 2.31 0 4.198 1.678 4.494 3.9h0.039l0.007 0.5 0.1 12.62zm-8.1-1h7.08l-0.007-11.606c-0.051-1.914-1.603-3.414-3.533-3.414-1.929 0-3.481 1.5-3.534 3.414l-0.007 0.244-0.1 11.37z" fill="#424243"/>
						<path d="m1291.2 660.57c-0.06-2.163-1.84-3.9-4.034-3.9s-3.975 1.737-4.033 3.9h-0.007v12.12h8.079v-12.12h-0.1z" fill="#A6CCD2"/>
						<path d="m1291.7 673.19h-9.079l0.046-13.12c0.296-2.223 2.184-3.9 4.494-3.9 2.309 0 4.197 1.678 4.495 3.9h0.039l0.006 0.5 0.1 12.62zm-8.1-1h7.079l-0.006-11.606c-0.053-1.914-1.605-3.414-3.534-3.414-1.93 0-3.482 1.5-3.533 3.414l-0.007 0.248-0.1 11.36z" fill="#424243"/>
						<path d="m1279.3 660.57c-0.059-2.163-1.84-3.9-4.034-3.9-2.193 0-3.975 1.737-4.034 3.9h-0.006v12.12h8.079v-12.12h-0.1z" fill="#A6CCD2"/>
						<path d="m1279.8 673.19h-9.079l0.045-13.12c0.297-2.223 2.186-3.9 4.495-3.9s4.198 1.678 4.495 3.9h0.039l0.006 0.5 0.1 12.62zm-8.1-1h7.079l-0.006-11.606c-0.052-1.914-1.604-3.414-3.534-3.414s-3.482 1.5-3.534 3.414l-0.006 0.208v11.398h-0.1z" fill="#424243"/>
					<path d="m1299.6 629.72c-0.088-3.239-3.641-5.839-6.925-5.839-3.282 0-6.601 2.6-6.689 5.839h-0.008v18.141h13.63v-18.14z" fill="#A6CCD2"/>
					<path d="m1300.1 648.36h-14.63l0.044-19.141c0.382-3.163 3.596-5.839 7.153-5.839 3.268 0 6.974 2.465 7.388 5.839h0.037l0.008 0.5v18.64zm-13.6-1h12.63l-0.008-17.627c-0.082-3.015-3.521-5.353-6.425-5.353-2.853 0-6.105 2.289-6.189 5.353l-0.008 0.297v17.33z" fill="#424243"/>
					<g fill="#69441E">
						<rect y="637.9" x="1313.9" height="9.837" width="1.27"/>
						<rect y="637.9" x="1311.2" height="9.837" width=".81"/>
						<rect y="637.9" x="1308.5" height="9.837" width=".811"/>
						<rect y="637.9" x="1305.8" height="9.837" width=".81"/>
						<rect y="637.9" x="1303.1" height="9.837" width=".809"/>
						<rect y="637.9" x="1300.4" height="9.837" width=".811"/>
						<rect y="637.9" x="1297.7" height="9.837" width=".811"/>
						<rect y="637.9" x="1295" height="9.837" width=".81"/>
						<rect y="637.9" x="1292.3" height="9.837" width=".81"/>
						<rect y="637.9" x="1289.6" height="9.837" width=".81"/>
						<rect y="637.9" x="1286.9" height="9.837" width=".811"/>
						<rect y="637.9" x="1284.2" height="9.837" width=".811"/>
						<rect y="637.9" x="1281.5" height="9.837" width=".809"/>
						<rect y="637.9" x="1278.8" height="9.837" width=".811"/>
						<rect y="637.9" x="1276.1" height="9.837" width=".811"/>
						<rect y="637.9" x="1273.4" height="9.837" width=".809"/>
						<rect y="637.9" x="1270.3" height="9.837" width="1.267"/>
					</g>
					<rect y="647.18" x="1268.9" height="1.585" width="47.638" fill="#69441E"/>
					<rect y="637.69" x="1268.9" height=".83" width="47.638" fill="#69441E"/>
		<polygon points="1258.8 626.4 1249 626.4 1292.4 570.17 1335.7 626.36 1325.8 626.41 1292.2 582.17" fill="#69441E"/>
		<rect y="648.01" x="1260.7" height="5.254" width="63.219" fill="#69441E"/>
		<polyline points="1260.7 683.54 1260.7 678.13 1323.9 678.13 1323.9 683.54" fill="#E8D6BA"/>
			<rect y="581.02" x="1675.7" height="11.677" width="7.949" fill="#415A2A"/>
					<rect y="603.04" x="1619" height="98.324" width="79.113" fill="#8E966E"/>
						<rect y="652.28" x="1619.5" height="1.893" width="78.984" fill="#262324"/>
						<rect y="654.18" x="1619.5" height="1.891" width="78.984" fill="#424243"/>
									<polygon points="1629.4 621.65 1629.4 613.19 1636.5 613.19 1636.5 621.65" fill="#A6CCD2"/>
									<polygon points="1638.9 621.65 1638.9 613.19 1646 613.19 1646 621.65" fill="#A6CCD2"/>
									<path d="m1627.7 611.84v10.557h19.922v-10.556h-19.9zm8.8 9.81h-7.07v-8.468h7.07v8.475zm9.5 0h-7.061v-8.468h7.061v8.475z" fill="#424243"/>
									<polygon points="1629.4 631.61 1629.4 623.15 1636.5 623.15 1636.5 631.61" fill="#A6CCD2"/>
									<polygon points="1638.9 631.61 1638.9 623.15 1646 623.15 1646 631.61" fill="#A6CCD2"/>
									<path d="m1627.7 622.4v9.961h19.922v-9.961h-19.9zm8.8 9.21h-7.07v-8.466h7.07v8.463zm9.5 0h-7.061v-8.466h7.061v8.463z" fill="#424243"/>
									<polygon points="1629.4 641.57 1629.4 633.1 1636.5 633.1 1636.5 641.57" fill="#A6CCD2"/>
									<polygon points="1638.9 641.57 1638.9 633.1 1646 633.1 1646 641.57" fill="#A6CCD2"/>
									<path d="m1627.7 632.36v10.555h19.922v-10.555h-19.9zm8.8 9.21h-7.07v-8.467h7.07v8.466zm9.5 0h-7.061v-8.467h7.061v8.466z" fill="#424243"/>
							<polygon points="1624.2 645.01 1624.2 642.98 1650 642.98 1650 645.01" fill="#424243"/>
								<polygon points="1669.5 621.65 1669.5 613.19 1676.6 613.19 1676.6 621.65" fill="#A6CCD2"/>
								<polygon points="1679 621.65 1679 613.19 1686.1 613.19 1686.1 621.65" fill="#A6CCD2"/>
								<path d="m1667.9 611.84v10.557h19.92v-10.556h-19.9zm8.7 9.81h-7.068v-8.468h7.068v8.475zm9.5 0h-7.063v-8.468h7.063v8.475z" fill="#424243"/>
								<polygon points="1669.5 631.61 1669.5 623.15 1676.6 623.15 1676.6 631.61" fill="#A6CCD2"/>
								<polygon points="1679 631.61 1679 623.15 1686.1 623.15 1686.1 631.61" fill="#A6CCD2"/>
								<path d="m1667.9 622.4v9.961h19.92v-9.961h-19.9zm8.7 9.21h-7.068v-8.466h7.068v8.463zm9.5 0h-7.063v-8.466h7.063v8.463z" fill="#424243"/>
								<polygon points="1669.5 641.57 1669.5 633.1 1676.6 633.1 1676.6 641.57" fill="#A6CCD2"/>
								<polygon points="1679 641.57 1679 633.1 1686.1 633.1 1686.1 641.57" fill="#A6CCD2"/>
								<path d="m1667.9 632.36v10.555h19.92v-10.555h-19.9zm8.7 9.21h-7.068v-8.467h7.068v8.466zm9.5 0h-7.063v-8.467h7.063v8.466z" fill="#424243"/>
							<polygon points="1664.3 645.01 1664.3 642.98 1690.1 642.98 1690.1 645.01" fill="#424243"/>
						<polygon points="1659.9 670.81 1657.3 670.81 1633.6 670.81 1633.6 671.85 1633.6 694.74 1633.6 695.78 1635.1 695.78 1657.3 695.78 1658.8 695.78 1659.9 695.78 1683.6 695.78 1683.6 694.74 1683.6 672.35 1683.6 671.85 1683.6 670.81" fill="#424243"/>
						<polygon points="1655.3 672.49 1651 672.49 1635.8 672.49 1635.8 693.94 1651 693.94 1655.3 693.94 1662 693.94 1681.4 693.94 1681.4 672.49" fill="#A6CCD2"/>
						<polygon points="1633.6 670.81 1633.6 671.78 1633.6 695.88 1635.9 693.77 1635.9 672.65 1681.3 672.65 1683.6 670.81" fill="#424243"/>
					<polygon opacity=".5" enable-background="new    " points="1630.7 679.09 1630.7 682.01 1638.7 682.01 1638.7 682.01 1646.6 682.01 1646.7 682.01 1654.6 682.01 1654.7 682.01 1662.5 682.01 1662.6 682.01 1670.5 682.01 1670.6 682.01 1678.5 682.01 1678.5 682.01 1686.5 682.01 1686.5 679.09" fill="#CBCBCB"/>
						<rect y="666.16" x="1630.7" height="12.856" width="8.016" fill="#D0AE55"/>
						<rect y="664.82" x="1630.7" height="11.271" width="8.016" fill="#E7C05D"/>
						<rect y="666.16" x="1638.7" height="12.856" width="8.016" fill="#DAD3B4"/>
						<rect y="664.82" x="1638.7" height="11.271" width="8.016" fill="#fff"/>
						<rect y="666.16" x="1646.6" height="12.856" width="8.018" fill="#D0AE55"/>
						<rect y="664.82" x="1646.6" height="11.271" width="8.018" fill="#E7C05D"/>
						<rect y="666.16" x="1654.6" height="12.856" width="8.012" fill="#DAD3B4"/>
						<rect y="664.82" x="1654.6" height="11.271" width="8.012" fill="#fff"/>
						<rect y="666.16" x="1662.5" height="12.856" width="8.021" fill="#D0AE55"/>
						<rect y="664.82" x="1662.5" height="11.271" width="8.021" fill="#E7C05D"/>
						<rect y="666.16" x="1670.5" height="12.856" width="8.02" fill="#DAD3B4"/>
						<rect y="664.82" x="1670.5" height="11.271" width="8.02" fill="#fff"/>
						<rect y="666.16" x="1678.5" height="12.856" width="8.021" fill="#D0AE55"/>
						<rect y="664.82" x="1678.5" height="11.271" width="8.021" fill="#E7C05D"/>
					<g fill="#546B67">
						<polygon points="1650.5 691.56 1657.2 691.56 1657.2 694.02 1659.4 694.02 1659.4 691.56 1666.2 691.56 1666.2 689.59 1650.5 689.59"/>
						<rect y="683.58" x="1671.3" height="10.439" width="1.4"/>
						<rect y="683.58" x="1643.9" height="10.439" width="1.398"/>
					</g>
						<rect y="599.78" x="1619" height="3.395" width="79.115" fill="#415A2A"/>
						<polygon points="1698.2 599.78 1619 599.78 1625.2 589.33 1692 589.33" fill="#5C7639"/>
		<rect y="695.88" x="1619" height="5.482" width="79.161" fill="#DAD3B4"/>
			<polygon points="1782.7 709.83 1725.8 709.83 1725.8 661.7 1753.9 625.77 1782.7 661.7" fill="#D99446"/>
			<rect y="704.96" x="1725.8" height="4.862" width="56.815" fill="#DAD3B4"/>
						<rect y="689.56" x="1734.2" height="9.41" width="9.067" fill="#A6CCD2"/>
						<path d="m1743.7 699.47h-10.067v-10.41h10.067v10.41zm-9-1h8.067v-8.41h-8.067v8.41z" fill="#424243"/>
						<rect y="689.56" x="1766" height="9.41" width="9.066" fill="#A6CCD2"/>
						<path d="m1775.6 699.47h-10.066v-10.41h10.066v10.41zm-9.1-1h8.066v-8.41h-8.066v8.41z" fill="#424243"/>
			<circle cy="647.04" cx="1754.4" r="3.789" fill="#A6CCD2"/>
			<path d="m1754.4 651.32c-2.365 0-4.29-1.924-4.29-4.29 0-2.365 1.925-4.289 4.29-4.289 2.364 0 4.288 1.924 4.288 4.289 0 2.37-1.9 4.29-4.3 4.29zm0-7.57c-1.814 0-3.29 1.475-3.29 3.289s1.476 3.29 3.29 3.29c1.813 0 3.288-1.476 3.288-3.29 0-1.82-1.4-3.29-3.3-3.29z" fill="#424243"/>
					<rect y="665.01" x="1731.4" height="10.297" width="9.921" fill="#A6CCD2"/>
					<path d="m1741.8 675.8h-10.921v-11.297h10.921v11.3zm-9.9-1h8.921v-9.297h-8.921v9.3z" fill="#424243"/>
					<rect y="665.01" x="1756.1" height="10.297" width="9.921" fill="#A6CCD2"/>
					<path d="m1766.5 675.8h-10.921v-11.297h10.921v11.3zm-9.9-1h8.921v-9.297h-8.921v9.3z" fill="#424243"/>
					<rect y="665.01" x="1768.4" height="10.297" width="9.921" fill="#A6CCD2"/>
					<path d="m1778.8 675.8h-10.921v-11.297h10.921v11.3zm-9.9-1h8.921v-9.297h-8.921v9.3z" fill="#424243"/>
					<rect y="665.01" x="1743.7" height="10.297" width="9.921" fill="#A6CCD2"/>
					<path d="m1754.1 675.8h-10.921v-11.297h10.921v11.3zm-9.9-1h8.921v-9.297h-8.921v9.3z" fill="#424243"/>
		<polygon points="1727.2 704.96 1725.8 704.96 1725.8 661.7 1727.2 659.84" fill="#DAD3B4"/>
		<polygon points="1782.7 704.96 1781.2 704.96 1781.2 659.84 1782.7 661.96" fill="#DAD3B4"/>
		<rect y="680.54" x="1726.7" height="1.843" width="54.705" fill="#69441E"/>
		<polygon points="1724.1 664.06 1715.3 664.06 1754.3 616.72 1793.2 664.03 1784.3 664.07 1754.1 627.5" fill="#69441E"/>
		<path d="m1760.2 694.96c0-3.662-2.969-6.63-6.631-6.63s-6.631 2.969-6.631 6.63v14.954h13.262v-14.95z" fill="#69441E"/>
		<rect y="600.59" x="1439.9" height="87.768" width="93.568" fill="#8E966E"/>
			<rect y="581.94" x="1496.5" height="9.907" width="8.682" fill="#415A2A"/>
			<polygon points="1439.9 600.5 1533.4 600.5 1522.9 590.26 1449.1 590.26" fill="#5C7639"/>
					<rect y="612.91" x="1452.7" height="28.479" width="10.87" fill="#A6CCD2"/>
					<path d="m1464.1 641.88h-11.87v-29.479h11.87v29.48zm-10.9-1h9.87v-27.479h-9.87v27.48z" fill="#424243"/>
				<rect y="606.84" x="1457.9" height="34.885" width=".819" fill="#424243"/>
				<rect y="625.51" x="1452.6" height=".465" width="12.153" fill="#424243"/>
				<rect y="633.92" x="1452.6" height=".466" width="12.153" fill="#424243"/>
				<path d="m1449.6 618.04h17.141s1.01-9.232-8.066-10.386c0.1 0-8 0.39-9 10.39z" fill="#fff"/>
				<path d="m1458.7 607.65s-5.81 0.113-6.22 10.386h2.856c-0.1 0-0.3-8.5 3.3-10.39z" fill="#D99446"/>
				<path d="m1458.3 607.65s4.709 0.113 4.996 10.386h-2.624s0.1-8.5-2.4-10.39z" fill="#D99446"/>
					<rect y="612.91" x="1481.5" height="28.479" width="10.867" fill="#A6CCD2"/>
					<path d="m1492.8 641.88h-11.867v-29.479h11.867v29.48zm-10.8-1h9.867v-27.479h-9.867v27.48z" fill="#424243"/>
				<rect y="606.84" x="1486.6" height="34.546" width=".814" fill="#424243"/>
				<rect y="625.51" x="1481.5" height=".465" width="10.828" fill="#424243"/>
				<rect y="633.92" x="1481.5" height=".466" width="10.828" fill="#424243"/>
				<path d="m1478.1 618.04h17.143s1.01-9.232-8.064-10.386c0.1 0-8 0.39-9 10.39z" fill="#fff"/>
				<path d="m1487.4 607.65s-5.813 0.113-6.222 10.386h2.854c-0.1 0-0.3-8.5 3.3-10.39z" fill="#D99446"/>
				<path d="m1487 607.65s4.708 0.113 4.998 10.386h-2.625c-0.1 0 0.1-8.5-2.4-10.39z" fill="#D99446"/>
					<rect y="612.91" x="1509.7" height="28.479" width="10.868" fill="#A6CCD2"/>
					<path d="m1521.1 641.88h-11.868v-29.479h11.868v29.48zm-10.9-1h9.868v-27.479h-9.868v27.48z" fill="#424243"/>
				<rect y="606.84" x="1514.8" height="34.546" width=".813" fill="#424243"/>
				<rect y="625.51" x="1509.8" height=".465" width="10.662" fill="#424243"/>
				<rect y="633.92" x="1509.8" height=".466" width="10.662" fill="#424243"/>
				<path d="m1506.5 618.04h17.139s1.009-9.232-8.062-10.386c0.1 0-8 0.39-9 10.39z" fill="#fff"/>
				<path d="m1515.8 607.65s-5.811 0.113-6.216 10.386h2.854s-0.3-8.5 3.3-10.39z" fill="#D99446"/>
				<path d="m1515.4 607.65s4.708 0.113 4.996 10.386h-2.627s0.1-8.5-2.4-10.39z" fill="#D99446"/>
			<path d="m1486.7 662.64h-31.071v25.724h62.142v-25.724h-31.1z" fill="#F0E5C9"/>
			<g fill="#A6CCD2">
				<rect y="664.15" x="1457.6" height="16.201" width="27.765"/>
				<rect y="664.15" x="1486.7" height="16.201" width="28.431"/>
			</g>
			<rect opacity=".5" height="5.5" width="62.333" y="667.56" x="1455.6" enable-background="new    " fill="#CBCBCB"/>
				<rect y="653.2" x="1454.3" height="14.922" width="9.305" fill="#C38740"/>
				<rect y="651.65" x="1454.3" height="13.084" width="9.305" fill="#D99446"/>
				<rect y="653.2" x="1463.5" height="14.922" width="9.309" fill="#DAD3B4"/>
				<rect y="651.65" x="1463.5" height="13.084" width="9.309" fill="#fff"/>
				<rect y="653.2" x="1472.8" height="14.922" width="9.307" fill="#C38740"/>
				<rect y="651.65" x="1472.8" height="13.084" width="9.307" fill="#D99446"/>
				<rect y="653.2" x="1482" height="14.922" width="9.303" fill="#DAD3B4"/>
				<rect y="651.65" x="1482" height="13.084" width="9.303" fill="#fff"/>
				<rect y="653.2" x="1491.2" height="14.922" width="9.311" fill="#C38740"/>
				<rect y="651.65" x="1491.2" height="13.084" width="9.311" fill="#D99446"/>
				<rect y="653.2" x="1500.5" height="14.922" width="9.31" fill="#DAD3B4"/>
				<rect y="651.65" x="1500.5" height="13.084" width="9.31" fill="#fff"/>
				<rect y="653.2" x="1509.7" height="14.922" width="9.313" fill="#C38740"/>
				<rect y="651.65" x="1509.7" height="13.084" width="9.313" fill="#D99446"/>
			<polygon points="1339.6 626.46 1344.2 626.46 1345.9 616.46 1337.9 616.46" fill="#fff"/>
			<path d="m1345.7 615.95l-3.086-2.787v-1.807h-1.449v1.807l-3.082 2.787h-1.766v0.98h1.279l1.74 9.881v0.035h1.533v41.193h-1.533v15.32h5.107v-15.32h-1.531v-41.193h1.531v-0.035l1.744-9.881h1.279v-0.98h-1.7zm-6 9.54l-1.51-8.555h3.52v8.555h-2zm4.5 0h-2.014v-8.555h3.52l-1.5 8.55z" fill="#424243"/>
			<polygon points="1462.1 628.46 1466.6 628.46 1468.3 618.46 1460.4 618.46" fill="#fff"/>
			<path d="m1468.2 617.95l-3.086-2.787v-1.807h-1.449v1.807l-3.082 2.787h-1.766v0.98h1.279l1.74 9.881v0.035h1.533v41.193h-1.533v15.32h5.107v-15.32h-1.531v-41.193h1.531v-0.035l1.744-9.881h1.279v-0.98h-1.7zm-6.1 9.54l-1.51-8.555h3.52v8.555h-2zm4.6 0h-2.014v-8.555h3.519l-1.5 8.55z" fill="#424243"/>
			<polygon points="1584.6 638.46 1589.1 638.46 1590.8 628.46 1582.9 628.46" fill="#fff"/>
			<path d="m1590.7 627.95l-3.086-2.787v-1.807h-1.449v1.807l-3.082 2.787h-1.766v0.98h1.279l1.74 9.881v0.035h1.533v41.193h-1.533v15.32h5.107v-15.32h-1.531v-41.193h1.531v-0.035l1.744-9.881h1.279v-0.98h-1.7zm-6.1 9.54l-1.51-8.555h3.52v8.555h-2zm4.5 0h-2.014v-8.555h3.519l-1.5 8.55z" fill="#424243"/>
			<polygon points="1707 645.46 1711.6 645.46 1713.3 635.46 1705.3 635.46" fill="#fff"/>
			<path d="m1713.1 634.95l-3.086-2.787v-1.807h-1.449v1.807l-3.082 2.787h-1.766v0.98h1.279l1.74 9.881v0.035h1.533v41.193h-1.533v15.32h5.107v-15.32h-1.531v-41.193h1.531v-0.035l1.744-9.881h1.279v-0.98h-1.7zm-6 9.54l-1.51-8.555h3.52v8.555h-2zm4.5 0h-2.014v-8.555h3.52l-1.5 8.55z" fill="#424243"/>
			<polygon points="1829.5 657.46 1834 657.46 1835.7 647.46 1827.8 647.46" fill="#fff"/>
			<path d="m1835.6 646.95l-3.086-2.787v-1.807h-1.449v1.807l-3.082 2.787h-1.766v0.98h1.279l1.74 9.881v0.035h1.533v41.193h-1.533v15.32h5.107v-15.32h-1.531v-41.193h1.531v-0.035l1.744-9.881h1.279v-0.98h-1.7zm-6.1 9.54l-1.51-8.555h3.52v8.555h-2zm4.6 0h-2.014v-8.555h3.52l-1.5 8.55z" fill="#424243"/>
		<g fill="#424243">
			<rect y="682.14" x="1425.8" height="3.773" width="2.594"/>
			<rect y="682.14" x="1434" height="3.773" width="2.595"/>
		</g>
			<rect y="660.92" x="1422.5" height="21.934" width="17.453" fill="#424243"/>
			<rect y="663.57" x="1425.1" height="16.633" width="12.151" fill="#F0E5C9"/>
			<g id="sample_text_10_" fill="#B3AC96">
				<rect y="666.15" x="1426.7" height=".9" width="8.955"/>
				<rect y="668.9" x="1426.7" height=".9" width="8.955"/>
				<rect y="671.66" x="1426.7" height=".9" width="8.955"/>
				<rect y="674.41" x="1426.7" height=".9" width="8.955"/>
			</g>
		<rect y="700.74" x="1811.7" height="13.752" width="2.476" fill="#6B472E"/>
		<path d="m1812.9 669.07c-5.391 0-9.761 4.372-9.761 9.763v14.588c0 5.394 4.37 9.76 9.761 9.76 5.393 0 9.759-4.365 9.759-9.76v-14.588c0-5.39-4.4-9.76-9.8-9.76z" fill="#8E8F42"/>
</g>
			<path d="m-40.862 755.17c726.43-106.71 1492.7-106.7 2219.1 0v159.94h-2219.1c0.038-53.32 0.038-106.63 0.038-159.94z" fill="#575C2B"/>
<rect y="913.86" x="-4" height="96.01" width="1934.9" fill="#575C2B"/>
</svg>
