<?xml version="1.0" encoding="utf-8"?>
<!-- Generator: Adobe Illustrator 17.0.0, SVG Export Plug-In . SVG Version: 6.00 Build 0)  -->
<!DOCTYPE svg PUBLIC "-//W3C//DTD SVG 1.1//EN" "http://www.w3.org/Graphics/SVG/1.1/DTD/svg11.dtd">
<svg version="1.1" id="Capa_1" xmlns="http://www.w3.org/2000/svg" xmlns:xlink="http://www.w3.org/1999/xlink" x="0px" y="0px"
	 width="240px" height="70px" viewBox="0 0 240 70" enable-background="new 0 0 240 70" xml:space="preserve">
<circle fill="none" stroke="#A5B051" stroke-width="3" stroke-miterlimit="10" cx="37.077" cy="34.582" r="27.798"/>
<g>
	<path fill="#A5B051" d="M20.026,41.078l-3.138-11.649l-1.466-0.376V28.02l5.261-0.094v1.127l-1.635,0.376l2.01,8.512l3.1-9.921
		l1.785-0.094l3.044,10.221l2.33-8.718l-1.71-0.376V28.02l5.073-0.094v1.127l-1.484,0.376L29.89,41.078h-2.067l-2.8-10.672
		l-0.582,2.123l-2.537,8.548L20.026,41.078L20.026,41.078z"/>
	<path fill="#A5B051" d="M37.406,33.468h1.503c0.864,0,1.55-0.19,2.057-0.573c0.507-0.382,0.761-0.898,0.761-1.55
		c0-0.651-0.219-1.149-0.658-1.494c-0.439-0.344-1.033-0.517-1.786-0.517c-0.676,0-1.277,0.094-1.803,0.282l-0.263,0.094
		l-0.188,1.691h-1.503l-0.094-2.912c1.353-0.5,2.687-0.752,4.002-0.752c1.302,0,2.339,0.266,3.11,0.799
		c0.77,0.533,1.156,1.362,1.156,2.49c0,1.679-0.815,2.724-2.443,3.138c0.839,0.176,1.503,0.542,1.992,1.099
		c0.489,0.558,0.733,1.193,0.733,1.906c0,0.728-0.144,1.35-0.432,1.87c-0.289,0.519-0.667,0.943-1.137,1.268
		c-0.471,0.325-1.003,0.566-1.597,0.723c-0.595,0.157-1.2,0.235-1.813,0.235c-0.364,0-0.721-0.022-1.071-0.066
		c-0.351-0.044-0.676-0.101-0.977-0.169c-0.301-0.068-0.57-0.147-0.808-0.235s-0.432-0.168-0.582-0.244l-0.413-0.225l0.564-1.503
		c1.065,0.564,2.192,0.846,3.382,0.846c0.864,0,1.55-0.207,2.057-0.621c0.508-0.413,0.762-0.996,0.762-1.747
		c0-0.751-0.279-1.327-0.836-1.728s-1.313-0.601-2.264-0.601h-1.409V33.47h-0.002V33.468z"/>
	<path fill="#A5B051" d="M46.237,41.078v-1.127l1.597-0.376V29.429l-1.597-0.376V28.02l3.57-0.094h2.349
		c0.927,0,1.757,0.141,2.49,0.423s1.353,0.695,1.86,1.24s0.896,1.215,1.165,2.01c0.269,0.796,0.404,1.707,0.404,2.734
		s-0.147,1.954-0.442,2.781c-0.295,0.827-0.711,1.535-1.249,2.123c-0.539,0.588-1.191,1.043-1.954,1.362
		c-0.764,0.319-1.617,0.479-2.555,0.479H46.237L46.237,41.078z M49.806,39.575h2.161c1.24,0,2.208-0.425,2.902-1.278
		c0.695-0.852,1.044-2.135,1.044-3.852c0-1.729-0.338-2.997-1.015-3.805c-0.676-0.808-1.622-1.212-2.837-1.212h-2.255
		C49.806,29.428,49.806,39.575,49.806,39.575z"/>
</g>
<g>
	<path fill="#A5B051" d="M81.167,22.735h1.943l2.9,7.308l2.929-7.308h1.914l-3.596,8.787l3.944,9.309l7.453-18.24h2.204l-8.7,20.59
		H90.36L86.039,33l-4.35,10.179h-1.798L71.22,22.59h2.146l7.482,18.24l3.915-9.309L81.167,22.735z"/>
	<path fill="#A5B051" d="M109.934,43.47c-1.102,0-2.116-0.208-3.045-0.624c-0.928-0.415-1.73-0.985-2.406-1.711
		c-0.677-0.725-1.204-1.561-1.581-2.508s-0.565-1.963-0.565-3.045c0-1.063,0.188-2.063,0.565-3.001s0.904-1.759,1.581-2.465
		c0.676-0.706,1.474-1.266,2.393-1.682c0.918-0.416,1.928-0.624,3.03-0.624s2.112,0.208,3.03,0.624s1.706,0.981,2.363,1.697
		s1.17,1.537,1.537,2.465c0.367,0.928,0.551,1.914,0.551,2.958c0,0.155-0.005,0.31-0.014,0.464
		c-0.011,0.155-0.025,0.261-0.044,0.319h-12.905c0.059,0.812,0.247,1.561,0.565,2.247c0.319,0.687,0.726,1.281,1.219,1.784
		c0.492,0.502,1.063,0.895,1.711,1.174c0.647,0.281,1.338,0.421,2.073,0.421c0.502,0,0.995-0.067,1.479-0.203
		s0.929-0.319,1.334-0.552c0.406-0.231,0.769-0.517,1.088-0.855s0.565-0.71,0.739-1.115l1.711,0.463
		c-0.231,0.562-0.561,1.068-0.985,1.523c-0.426,0.454-0.919,0.851-1.479,1.188c-0.561,0.339-1.18,0.6-1.855,0.783
		C111.345,43.378,110.649,43.47,109.934,43.47z M115.502,34.828c-0.058-0.812-0.246-1.551-0.565-2.218s-0.725-1.242-1.218-1.726
		c-0.493-0.483-1.068-0.86-1.726-1.131c-0.657-0.271-1.354-0.406-2.088-0.406c-0.735,0-1.432,0.135-2.088,0.406
		c-0.658,0.271-1.232,0.648-1.726,1.131c-0.493,0.483-0.89,1.063-1.189,1.74c-0.3,0.677-0.479,1.412-0.536,2.204H115.502z"/>
	<path fill="#A5B051" d="M127.739,43.47c-1.18,0-2.271-0.3-3.276-0.899c-1.006-0.599-1.789-1.372-2.35-2.32v2.93h-1.769V22.01h1.972
		v9.222c0.677-1.024,1.488-1.851,2.437-2.479c0.946-0.628,2.059-0.942,3.335-0.942c1.044,0,1.99,0.223,2.842,0.667
		c0.851,0.445,1.57,1.04,2.16,1.784c0.59,0.745,1.044,1.585,1.363,2.523s0.479,1.899,0.479,2.885c0,1.064-0.184,2.07-0.551,3.016
		c-0.368,0.948-0.875,1.774-1.522,2.479c-0.648,0.706-1.412,1.267-2.291,1.682C129.688,43.262,128.744,43.47,127.739,43.47z
		 M127.275,41.729c0.831,0,1.59-0.169,2.276-0.507s1.276-0.793,1.77-1.363s0.879-1.219,1.16-1.943
		c0.279-0.725,0.42-1.474,0.42-2.248c0-0.792-0.13-1.556-0.392-2.291c-0.261-0.735-0.628-1.387-1.102-1.958
		c-0.475-0.57-1.04-1.025-1.696-1.363c-0.658-0.338-1.383-0.507-2.176-0.507c-0.599,0-1.159,0.102-1.682,0.304
		c-0.521,0.203-1.006,0.479-1.45,0.827s-0.846,0.75-1.203,1.204c-0.358,0.455-0.652,0.933-0.885,1.436v4.698
		c0.077,0.521,0.285,1.011,0.624,1.465c0.338,0.454,0.749,0.846,1.232,1.174c0.482,0.33,0.995,0.59,1.537,0.783
		C126.251,41.633,126.772,41.729,127.275,41.729z"/>
	<path fill="#A5B051" d="M146.126,43.18V22.59h6.96c1.643,0,3.083,0.271,4.32,0.812c1.237,0.542,2.267,1.276,3.089,2.204
		c0.821,0.928,1.436,2.016,1.842,3.263c0.405,1.247,0.608,2.577,0.608,3.987c0,1.566-0.231,2.983-0.695,4.248
		c-0.465,1.268-1.122,2.35-1.973,3.248c-0.851,0.899-1.885,1.596-3.103,2.089s-2.581,0.739-4.089,0.739
		C153.085,43.18,146.126,43.18,146.126,43.18z M160.916,32.855c0-1.237-0.175-2.373-0.522-3.407
		c-0.348-1.034-0.855-1.929-1.522-2.683s-1.484-1.338-2.45-1.754c-0.967-0.416-2.079-0.624-3.335-0.624h-4.959v16.994h4.959
		c1.275,0,2.401-0.218,3.378-0.653s1.793-1.033,2.451-1.797c0.656-0.764,1.154-1.663,1.493-2.697
		C160.746,35.2,160.916,34.074,160.916,32.855z"/>
	<path fill="#A5B051" d="M173.066,43.47c-1.102,0-2.116-0.208-3.045-0.624c-0.928-0.415-1.73-0.985-2.406-1.711
		c-0.678-0.725-1.204-1.561-1.581-2.508s-0.565-1.963-0.565-3.045c0-1.063,0.188-2.063,0.565-3.001s0.903-1.759,1.581-2.465
		c0.676-0.706,1.474-1.266,2.393-1.682c0.918-0.416,1.928-0.624,3.03-0.624s2.112,0.208,3.03,0.624s1.706,0.981,2.363,1.697
		s1.17,1.537,1.537,2.465c0.367,0.928,0.551,1.914,0.551,2.958c0,0.155-0.005,0.31-0.014,0.464
		c-0.011,0.155-0.025,0.261-0.044,0.319h-12.905c0.059,0.812,0.247,1.561,0.565,2.247c0.319,0.687,0.726,1.281,1.219,1.784
		c0.492,0.502,1.063,0.895,1.711,1.174c0.647,0.281,1.338,0.421,2.073,0.421c0.502,0,0.995-0.067,1.479-0.203
		s0.929-0.319,1.334-0.552c0.406-0.231,0.769-0.517,1.088-0.855s0.565-0.71,0.739-1.115l1.711,0.463
		c-0.231,0.562-0.561,1.068-0.985,1.523c-0.426,0.454-0.919,0.851-1.479,1.188c-0.561,0.339-1.18,0.6-1.855,0.783
		C174.478,43.378,173.782,43.47,173.066,43.47z M178.635,34.828c-0.058-0.812-0.246-1.551-0.565-2.218s-0.725-1.242-1.218-1.726
		c-0.493-0.483-1.068-0.86-1.726-1.131c-0.657-0.271-1.354-0.406-2.088-0.406c-0.735,0-1.432,0.135-2.088,0.406
		c-0.658,0.271-1.232,0.648-1.726,1.131c-0.493,0.483-0.89,1.063-1.189,1.74c-0.3,0.677-0.479,1.412-0.536,2.204H178.635z"/>
	<path fill="#A5B051" d="M188.553,43.47c-1.18,0-2.33-0.193-3.451-0.58c-1.122-0.387-2.088-0.946-2.9-1.683l0.899-1.334
		c0.851,0.697,1.715,1.219,2.596,1.566c0.879,0.348,1.821,0.522,2.827,0.522c1.218,0,2.189-0.247,2.914-0.739
		c0.726-0.494,1.088-1.193,1.088-2.104c0-0.424-0.097-0.777-0.29-1.059c-0.193-0.279-0.479-0.525-0.855-0.738
		s-0.851-0.401-1.421-0.566c-0.57-0.164-1.232-0.333-1.986-0.508c-0.87-0.212-1.624-0.424-2.263-0.637
		c-0.638-0.213-1.165-0.454-1.58-0.725c-0.416-0.271-0.725-0.604-0.928-1c-0.203-0.396-0.305-0.894-0.305-1.494
		c0-0.754,0.149-1.421,0.449-2.001s0.706-1.059,1.218-1.436c0.513-0.377,1.112-0.662,1.799-0.855c0.686-0.193,1.416-0.29,2.189-0.29
		c1.159,0,2.213,0.188,3.16,0.565s1.712,0.875,2.291,1.494l-0.957,1.16c-0.561-0.58-1.242-1.015-2.044-1.305
		c-0.803-0.29-1.639-0.435-2.509-0.435c-0.521,0-1.005,0.054-1.45,0.16c-0.444,0.106-0.836,0.275-1.174,0.507
		c-0.339,0.232-0.604,0.527-0.798,0.885c-0.193,0.358-0.29,0.778-0.29,1.261c0,0.406,0.067,0.735,0.203,0.986
		c0.135,0.251,0.357,0.469,0.667,0.652c0.309,0.184,0.7,0.348,1.175,0.493c0.474,0.145,1.048,0.295,1.726,0.449
		c0.966,0.232,1.816,0.464,2.552,0.696c0.734,0.232,1.349,0.503,1.842,0.813c0.492,0.309,0.864,0.686,1.116,1.131
		c0.251,0.444,0.377,0.985,0.377,1.623c0,1.393-0.532,2.494-1.595,3.307C191.781,43.063,190.351,43.47,188.553,43.47z"/>
	<path fill="#A5B051" d="M197.601,24.91v-2.9h1.972v2.9H197.601z M197.601,43.18V28.071h1.972V43.18H197.601z"/>
	<path fill="#A5B051" d="M209.925,43.383c-1.044,0-1.997-0.218-2.856-0.652c-0.861-0.436-1.605-1.01-2.233-1.726
		c-0.629-0.716-1.116-1.537-1.465-2.466c-0.348-0.928-0.521-1.885-0.521-2.871c0-1.044,0.169-2.044,0.508-3.001
		c0.338-0.957,0.816-1.793,1.435-2.508s1.358-1.286,2.219-1.711s1.813-0.638,2.856-0.638c1.295,0,2.417,0.324,3.364,0.972
		c0.947,0.648,1.759,1.464,2.436,2.45v-3.161h1.77v15.167c0,1.044-0.198,1.968-0.595,2.77c-0.396,0.803-0.928,1.475-1.595,2.016
		s-1.455,0.947-2.363,1.218c-0.909,0.271-1.866,0.406-2.871,0.406c-1.722,0-3.113-0.31-4.176-0.928
		c-1.063-0.619-1.925-1.45-2.581-2.494l1.218-0.957c0.599,0.967,1.392,1.677,2.378,2.132c0.986,0.454,2.039,0.682,3.161,0.682
		c0.734,0,1.436-0.102,2.103-0.305s1.247-0.503,1.739-0.899c0.493-0.396,0.885-0.898,1.175-1.508s0.436-1.319,0.436-2.132V40.25
		c-0.6,0.968-1.397,1.73-2.393,2.292C212.075,43.103,211.026,43.383,209.925,43.383z M210.476,41.729c0.58,0,1.15-0.106,1.711-0.319
		c0.561-0.212,1.068-0.497,1.522-0.855c0.454-0.357,0.836-0.758,1.146-1.203c0.309-0.444,0.512-0.898,0.609-1.363V33.32
		c-0.213-0.541-0.508-1.044-0.885-1.508s-0.798-0.86-1.262-1.189c-0.464-0.329-0.962-0.589-1.493-0.783
		c-0.532-0.193-1.068-0.29-1.609-0.29c-0.852,0-1.605,0.179-2.263,0.537s-1.218,0.826-1.682,1.406
		c-0.464,0.58-0.817,1.237-1.059,1.972s-0.362,1.479-0.362,2.233c0,0.812,0.145,1.585,0.435,2.32s0.687,1.377,1.189,1.929
		c0.502,0.551,1.097,0.985,1.783,1.305S209.683,41.729,210.476,41.729z"/>
	<path fill="#A5B051" d="M234.372,43.18h-1.973v-8.439c0-1.798-0.261-3.103-0.782-3.915c-0.522-0.812-1.334-1.218-2.437-1.218
		c-0.58,0-1.16,0.106-1.74,0.319s-1.121,0.512-1.624,0.899c-0.503,0.387-0.942,0.846-1.319,1.377
		c-0.377,0.532-0.662,1.107-0.855,1.726v9.251h-1.972V28.071h1.798v3.422c0.309-0.541,0.691-1.039,1.146-1.494
		c0.454-0.454,0.962-0.845,1.522-1.174c0.561-0.329,1.155-0.58,1.783-0.754s1.281-0.261,1.958-0.261
		c0.851,0,1.561,0.155,2.131,0.464s1.03,0.744,1.378,1.305s0.599,1.247,0.754,2.059c0.154,0.812,0.232,1.711,0.232,2.697V43.18z"/>
</g>
</svg>
