<?xml version="1.0" encoding="utf-8"?>
<!-- Generator: Adobe Illustrator 17.0.0, SVG Export Plug-In . SVG Version: 6.00 Build 0)  -->
<!DOCTYPE svg PUBLIC "-//W3C//DTD SVG 1.1//EN" "http://www.w3.org/Graphics/SVG/1.1/DTD/svg11.dtd">
<svg version="1.1" id="Capa_1" xmlns="http://www.w3.org/2000/svg" xmlns:xlink="http://www.w3.org/1999/xlink" x="0px" y="0px"
	 width="200px" height="30px" viewBox="0 0 200 30" enable-background="new 0 0 200 30" xml:space="preserve">
<g id="Capa_1">
	<g>
		<g>
			<g>
				<polyline fill="none" stroke="#FFFFFF" stroke-linecap="round" stroke-linejoin="round" points="55.974,5.868 58.873,4.194 
					58.834,5.94 60.78,4.816 60.701,7.03 62.281,6.118 61.359,8.518 62.982,7.581 61.446,10.595 63.203,9.58 61.334,12.877 
					63.203,11.797 57.713,17.141 62.769,14.222 				"/>
				<polyline fill="none" stroke="#FFFFFF" stroke-linecap="round" stroke-linejoin="round" points="53.579,4.404 54.079,4.116 
					53.581,5.881 56.64,4.115 53.584,7.966 55.342,6.951 53.586,9.605 55.352,8.586 53.587,10.931 55.36,9.908 53.589,12.555 
					55.371,11.527 53.592,14.545 55.383,13.511 53.593,15.756 55.391,14.718 53.595,17.007 56.379,15.399 53.597,18.869 
					55.339,17.863 53.6,21.049 55.353,20.037 53.602,23.292 55.366,22.273 53.605,25.244 55.378,24.22 53.972,26.919 55.39,26.101 
									"/>
				<polyline fill="none" stroke="#FFFFFF" stroke-linecap="round" stroke-linejoin="round" points="69.604,5.919 72.282,4.373 
					72.213,6.137 73.938,5.141 73.864,7.351 75.315,6.513 74.325,8.953 75.925,8.029 74.325,11.08 76.055,10.081 74.325,13.297 
					76.055,12.298 74.326,15.471 76.055,14.472 74.326,16.949 76.055,15.951 74.326,18.449 76.055,17.45 74.326,19.719 
					76.056,18.721 74.326,21.846 76.056,20.848 73.73,23.941 76.027,22.616 				"/>
				<polyline fill="none" stroke="#FFFFFF" stroke-linecap="round" stroke-linejoin="round" points="66.01,5.99 68.888,4.329 
					65.051,8.022 71.57,4.258 64.917,10.186 66.647,9.187 64.917,11.826 66.647,10.827 64.918,13.152 66.647,12.154 64.918,14.778 
					66.647,13.779 64.918,16.768 66.648,15.77 64.918,17.98 66.648,16.981 64.918,19.232 66.648,18.233 64.918,21.095 
					66.648,20.096 65.069,23.19 66.649,22.278 65.89,24.96 67.389,24.095 67.227,26.142 68.991,25.124 69.229,26.873 75.953,22.991 
					72.068,26.832 74.993,25.143 				"/>
				<polyline fill="none" stroke="#FFFFFF" stroke-linecap="round" stroke-linejoin="round" points="81.481,5.868 84.381,4.193 
					84.672,5.994 86.522,4.926 86.411,7.24 87.94,6.357 86.953,9.023 88.598,8.073 86.954,10.794 88.738,9.764 86.954,12.449 
					88.739,11.418 86.954,13.651 88.739,12.62 86.759,15.509 88.739,14.366 				"/>
				<polyline fill="none" stroke="#FFFFFF" stroke-linecap="round" stroke-linejoin="round" points="81.359,18.858 83.955,17.359 
					84.332,18.865 87.881,16.816 86.367,19.858 87.825,19.016 87.088,21.309 88.681,20.39 87.178,23.384 88.942,22.366 
					87.178,25.601 88.968,24.568 88.464,26.889 88.991,26.585 				"/>
				<polyline fill="none" stroke="#FFFFFF" stroke-linecap="round" stroke-linejoin="round" points="79.087,4.404 79.587,4.116 
					79.089,5.881 82.147,4.115 79.091,7.966 80.848,6.952 79.093,9.605 80.856,8.587 79.095,10.931 80.863,9.91 79.097,12.555 
					80.872,11.53 79.099,14.545 80.882,13.515 79.101,15.756 80.889,14.723 79.102,17.007 80.895,15.972 79.105,18.869 
					81.719,17.36 79.107,21.049 80.851,20.042 79.11,23.291 80.868,22.277 79.113,25.244 80.882,24.222 79.479,26.919 
					80.896,26.101 				"/>
				<polyline fill="none" stroke="#FFFFFF" stroke-linecap="round" stroke-linejoin="round" points="96.891,5.9 100.084,4.056 
					99.884,5.878 100.385,5.588 				"/>
				<polyline fill="none" stroke="#FFFFFF" stroke-linecap="round" stroke-linejoin="round" points="90.509,4.374 91.011,4.084 
					90.508,5.852 93.585,4.076 94.079,5.877 97.218,4.065 94.568,7.235 96.385,6.186 94.57,8.561 96.387,7.512 94.573,10.185 
					96.389,9.136 94.575,12.174 96.392,11.125 94.577,13.385 96.394,12.336 94.579,14.636 96.396,13.587 94.582,16.498 
					96.398,15.449 94.585,18.678 96.401,17.629 94.588,20.92 96.404,19.871 94.591,22.872 96.407,21.823 94.593,24.758 
					96.41,23.709 94.596,26.354 96.412,25.305 95.9,26.91 96.414,26.613 				"/>
				<polyline fill="none" stroke="#FFFFFF" stroke-linecap="round" stroke-linejoin="round" points="105.4,18.837 108.087,17.286 
					108.839,18.821 111.089,17.522 				"/>
				<polyline fill="none" stroke="#FFFFFF" stroke-linecap="round" stroke-linejoin="round" points="105.399,5.902 108.577,4.067 
					108.407,5.889 111.581,4.057 111.366,5.876 111.865,5.588 				"/>
				<polyline fill="none" stroke="#FFFFFF" stroke-linecap="round" stroke-linejoin="round" points="103.108,4.374 103.611,4.084 
					103.11,5.851 106.186,4.075 103.113,7.936 104.898,6.905 103.115,9.575 104.903,8.543 103.117,10.901 104.906,9.868 
					103.119,12.525 104.91,11.491 103.121,14.514 104.916,13.478 103.123,15.725 104.919,14.688 103.124,16.976 104.922,15.938 
					103.126,18.839 105.796,17.297 103.129,21.019 104.9,19.997 103.132,23.261 104.908,22.235 103.134,25.214 104.916,24.185 
					103.436,26.927 104.923,26.068 				"/>
				<polyline fill="none" stroke="#FFFFFF" stroke-linecap="round" stroke-linejoin="round" points="118.071,5.919 120.75,4.373 
					120.68,6.137 122.405,5.141 122.331,7.351 123.782,6.513 122.792,8.953 124.392,8.029 122.793,11.08 124.522,10.081 
					122.793,13.297 124.522,12.298 122.793,15.471 124.522,14.472 122.793,16.949 124.523,15.951 122.794,18.449 124.523,17.45 
					122.794,19.719 124.523,18.721 122.794,21.846 124.523,20.848 122.198,23.941 124.494,22.616 				"/>
				<polyline fill="none" stroke="#FFFFFF" stroke-linecap="round" stroke-linejoin="round" points="114.478,5.99 117.355,4.329 
					113.518,8.022 120.038,4.258 113.385,10.185 115.114,9.187 113.385,11.826 115.114,10.827 113.385,13.152 115.114,12.154 
					113.385,14.777 115.115,13.779 113.386,16.768 115.115,15.77 113.386,17.98 115.115,16.982 113.386,19.232 115.115,18.233 
					113.386,21.095 115.116,20.097 113.536,23.19 115.116,22.278 114.358,24.96 115.856,24.095 115.695,26.142 117.458,25.124 
					117.697,26.873 124.42,22.991 120.535,26.832 123.46,25.143 				"/>
				<polyline fill="none" stroke="#FFFFFF" stroke-linecap="round" stroke-linejoin="round" points="127.329,4.374 127.844,4.077 
					127.331,5.851 129.118,4.819 127.333,7.936 129.121,6.904 127.335,9.575 129.123,8.543 127.337,10.901 129.125,9.869 
					127.339,12.525 129.127,11.492 127.341,14.514 129.13,13.482 127.343,15.725 129.132,14.693 127.344,16.976 129.133,15.943 
					127.346,18.839 129.136,17.805 127.349,21.019 129.139,19.986 127.352,23.261 129.142,22.227 127.354,25.214 129.145,24.18 
					127.649,26.93 130.811,25.105 130.436,26.919 133.604,25.09 133.042,26.909 134.758,25.918 				"/>
				<polyline fill="none" stroke="#FFFFFF" stroke-linecap="round" stroke-linejoin="round" points="137.212,4.374 137.725,4.077 
					137.214,5.851 139.112,4.754 137.216,7.936 139.115,6.839 137.218,9.575 139.117,8.478 137.22,10.901 139.119,9.804 
					137.222,12.525 139.121,11.428 137.225,14.514 139.124,13.418 137.226,15.725 139.125,14.628 137.228,16.976 139.127,15.879 
					137.23,18.838 139.13,17.741 137.233,21.019 139.132,19.922 137.235,23.261 139.135,22.164 137.238,25.213 139.138,24.116 
					137.538,26.927 139.14,26.002 				"/>
				<polyline fill="none" stroke="#FFFFFF" stroke-linecap="round" stroke-linejoin="round" points="147.023,5.919 149.701,4.373 
					149.631,6.137 151.356,5.141 151.283,7.351 152.734,6.514 151.743,8.953 153.344,8.03 151.744,11.08 153.473,10.081 
					151.744,13.297 153.473,12.299 151.744,15.471 153.474,14.472 151.745,16.949 153.474,15.951 151.745,18.449 153.474,17.451 
					151.745,19.719 153.474,18.721 151.745,21.846 153.474,20.848 151.149,23.941 153.445,22.616 				"/>
				<polyline fill="none" stroke="#FFFFFF" stroke-linecap="round" stroke-linejoin="round" points="143.429,5.99 146.307,4.328 
					142.469,8.022 148.989,4.258 142.336,10.186 144.066,9.187 142.336,11.826 144.066,10.827 142.337,13.152 144.066,12.154 
					142.337,14.778 144.067,13.779 142.337,16.768 144.067,15.769 142.337,17.98 144.067,16.981 142.337,19.232 144.067,18.233 
					142.337,21.095 144.068,20.096 142.488,23.19 144.068,22.278 143.309,24.96 144.808,24.095 144.646,26.142 146.41,25.124 
					146.648,26.873 153.371,22.992 149.487,26.832 152.411,25.143 				"/>
			</g>
		</g>
	</g>
</g>
</svg>
