<?xml version="1.0" encoding="utf-8"?>
<!-- Generator: Adobe Illustrator 17.0.0, SVG Export Plug-In . SVG Version: 6.00 Build 0)  -->
<!DOCTYPE svg PUBLIC "-//W3C//DTD SVG 1.1//EN" "http://www.w3.org/Graphics/SVG/1.1/DTD/svg11.dtd">
<svg version="1.1" id="Capa_1" xmlns="http://www.w3.org/2000/svg" xmlns:xlink="http://www.w3.org/1999/xlink" x="0px" y="0px"
	 width="435px" height="600px" viewBox="0 0 435 600" enable-background="new 0 0 435 600" xml:space="preserve">
<g>
	<rect y="-3.778" fill-rule="evenodd" clip-rule="evenodd" fill="#4E4E4E" width="437.307" height="610.778"/>
	<g>
		<rect x="31.933" y="31.436" fill-rule="evenodd" clip-rule="evenodd" fill="#D4675E" width="209.92" height="7.974"/>
		<rect x="31.933" y="51.15" fill-rule="evenodd" clip-rule="evenodd" fill="#A7C8E3" width="67.266" height="7.975"/>
		<rect x="31.933" y="70.815" fill-rule="evenodd" clip-rule="evenodd" fill="#CACACA" width="108.477" height="7.974"/>
		<rect x="82.407" y="90.529" fill-rule="evenodd" clip-rule="evenodd" fill="#A7C8E3" width="63.302" height="7.975"/>
		<rect x="82.407" y="110.193" fill-rule="evenodd" clip-rule="evenodd" fill="#A7C8E3" width="63.302" height="7.974"/>
		<rect x="126.342" y="129.908" fill-rule="evenodd" clip-rule="evenodd" fill="#A7C8E3" width="61.568" height="7.975"/>
		<rect x="121.835" y="51.15" fill-rule="evenodd" clip-rule="evenodd" fill="#CACACA" width="114.718" height="7.975"/>
		<rect x="252.899" y="51.15" fill-rule="evenodd" clip-rule="evenodd" fill="#CACACA" width="54.783" height="7.975"/>
		<rect x="328.486" y="51.15" fill-rule="evenodd" clip-rule="evenodd" fill="#CACACA" width="73.953" height="7.975"/>
		<rect x="158.539" y="70.815" fill-rule="evenodd" clip-rule="evenodd" fill="#A7C8E3" width="64.542" height="7.974"/>
		<rect x="165.028" y="90.529" fill-rule="evenodd" clip-rule="evenodd" fill="#CACACA" width="36.95" height="7.975"/>
		<rect x="165.028" y="110.193" fill-rule="evenodd" clip-rule="evenodd" fill="#CACACA" width="63.303" height="7.974"/>
		<rect x="219.564" y="90.529" fill-rule="evenodd" clip-rule="evenodd" fill="#CACACA" width="70.337" height="7.975"/>
		<rect x="303.968" y="90.529" fill-rule="evenodd" clip-rule="evenodd" fill="#CACACA" width="36.901" height="7.975"/>
		<rect x="356.72" y="90.529" fill-rule="evenodd" clip-rule="evenodd" fill="#CACACA" width="45.719" height="7.975"/>
		<rect x="242.398" y="110.193" fill-rule="evenodd" clip-rule="evenodd" fill="#CACACA" width="79.946" height="7.974"/>
		<rect x="334.281" y="110.193" fill-rule="evenodd" clip-rule="evenodd" fill="#CACACA" width="23.875" height="7.974"/>
		<rect x="205.495" y="129.908" fill-rule="evenodd" clip-rule="evenodd" fill="#CACACA" width="45.769" height="7.975"/>
		<rect x="82.407" y="169.286" fill-rule="evenodd" clip-rule="evenodd" fill="#A7C8E3" width="63.302" height="7.974"/>
		<rect x="82.407" y="189" fill-rule="evenodd" clip-rule="evenodd" fill="#A7C8E3" width="63.302" height="7.975"/>
		<rect x="165.028" y="169.286" fill-rule="evenodd" clip-rule="evenodd" fill="#CACACA" width="36.95" height="7.974"/>
		<rect x="165.028" y="189" fill-rule="evenodd" clip-rule="evenodd" fill="#CACACA" width="57.012" height="7.975"/>
		<rect x="219.564" y="169.286" fill-rule="evenodd" clip-rule="evenodd" fill="#CACACA" width="54.089" height="7.974"/>
		<rect x="284.451" y="169.286" fill-rule="evenodd" clip-rule="evenodd" fill="#CACACA" width="28.432" height="7.974"/>
		<rect x="325.069" y="169.286" fill-rule="evenodd" clip-rule="evenodd" fill="#CACACA" width="35.168" height="7.974"/>
		<rect x="277.517" y="189" fill-rule="evenodd" clip-rule="evenodd" fill="#CACACA" width="63.352" height="7.975"/>
		<rect x="82.407" y="208.665" fill-rule="evenodd" clip-rule="evenodd" fill="#A7C8E3" width="63.302" height="7.974"/>
		<rect x="82.407" y="228.379" fill-rule="evenodd" clip-rule="evenodd" fill="#A7C8E3" width="63.302" height="7.975"/>
		<rect x="165.028" y="208.665" fill-rule="evenodd" clip-rule="evenodd" fill="#CACACA" width="36.95" height="7.974"/>
		<rect x="165.028" y="228.379" fill-rule="evenodd" clip-rule="evenodd" fill="#CACACA" width="116.055" height="7.975"/>
		<rect x="219.564" y="208.665" fill-rule="evenodd" clip-rule="evenodd" fill="#CACACA" width="70.337" height="7.974"/>
		<rect x="303.968" y="208.665" fill-rule="evenodd" clip-rule="evenodd" fill="#CACACA" width="36.901" height="7.974"/>
		<rect x="356.72" y="208.665" fill-rule="evenodd" clip-rule="evenodd" fill="#CACACA" width="45.719" height="7.974"/>
		<rect x="295.15" y="228.379" fill-rule="evenodd" clip-rule="evenodd" fill="#CACACA" width="65.087" height="7.975"/>
		<rect x="234.721" y="189" fill-rule="evenodd" clip-rule="evenodd" fill="#CACACA" width="26.946" height="7.975"/>
		<rect x="31.933" y="267.757" fill-rule="evenodd" clip-rule="evenodd" fill="#A7C8E3" width="67.266" height="7.975"/>
		<rect x="31.933" y="287.422" fill-rule="evenodd" clip-rule="evenodd" fill="#CACACA" width="108.477" height="7.974"/>
		<rect x="82.407" y="307.135" fill-rule="evenodd" clip-rule="evenodd" fill="#A7C8E3" width="63.302" height="7.976"/>
		<rect x="82.407" y="326.8" fill-rule="evenodd" clip-rule="evenodd" fill="#A7C8E3" width="63.302" height="8.025"/>
		<rect x="126.342" y="346.515" fill-rule="evenodd" clip-rule="evenodd" fill="#A7C8E3" width="61.568" height="7.974"/>
		<rect x="121.835" y="267.757" fill-rule="evenodd" clip-rule="evenodd" fill="#CACACA" width="63.65" height="7.975"/>
		<rect x="201.782" y="267.757" fill-rule="evenodd" clip-rule="evenodd" fill="#CACACA" width="32.146" height="7.975"/>
		<rect x="254.732" y="267.757" fill-rule="evenodd" clip-rule="evenodd" fill="#CACACA" width="102.235" height="7.975"/>
		<rect x="158.539" y="287.422" fill-rule="evenodd" clip-rule="evenodd" fill="#A7C8E3" width="64.542" height="7.974"/>
		<rect x="165.028" y="307.135" fill-rule="evenodd" clip-rule="evenodd" fill="#CACACA" width="72.12" height="7.976"/>
		<rect x="165.028" y="326.8" fill-rule="evenodd" clip-rule="evenodd" fill="#CACACA" width="49.236" height="8.025"/>
		<rect x="254.732" y="307.135" fill-rule="evenodd" clip-rule="evenodd" fill="#CACACA" width="53.594" height="7.976"/>
		<rect x="228.33" y="326.8" fill-rule="evenodd" clip-rule="evenodd" fill="#CACACA" width="94.014" height="8.025"/>
		<rect x="334.281" y="326.8" fill-rule="evenodd" clip-rule="evenodd" fill="#CACACA" width="23.875" height="8.025"/>
		<rect x="205.495" y="346.515" fill-rule="evenodd" clip-rule="evenodd" fill="#CACACA" width="45.769" height="7.974"/>
		<rect x="261.418" y="346.515" fill-rule="evenodd" clip-rule="evenodd" fill="#CACACA" width="85.198" height="7.974"/>
		<rect x="359.295" y="346.515" fill-rule="evenodd" clip-rule="evenodd" fill="#CACACA" width="25.461" height="7.974"/>
		<rect x="82.407" y="385.894" fill-rule="evenodd" clip-rule="evenodd" fill="#A7C8E3" width="63.302" height="7.974"/>
		<rect x="82.407" y="405.606" fill-rule="evenodd" clip-rule="evenodd" fill="#A7C8E3" width="63.302" height="7.976"/>
		<rect x="165.028" y="385.894" fill-rule="evenodd" clip-rule="evenodd" fill="#CACACA" width="104.218" height="7.974"/>
		<rect x="165.028" y="405.606" fill-rule="evenodd" clip-rule="evenodd" fill="#CACACA" width="57.012" height="7.976"/>
		<rect x="284.451" y="385.894" fill-rule="evenodd" clip-rule="evenodd" fill="#CACACA" width="28.432" height="7.974"/>
		<rect x="325.069" y="385.894" fill-rule="evenodd" clip-rule="evenodd" fill="#CACACA" width="35.168" height="7.974"/>
		<rect x="277.517" y="405.606" fill-rule="evenodd" clip-rule="evenodd" fill="#CACACA" width="63.352" height="7.976"/>
		<rect x="234.721" y="405.606" fill-rule="evenodd" clip-rule="evenodd" fill="#CACACA" width="26.946" height="7.976"/>
		<rect x="31.933" y="437.903" fill-rule="evenodd" clip-rule="evenodd" fill="#A7C8E3" width="67.266" height="7.975"/>
		<rect x="31.933" y="457.567" fill-rule="evenodd" clip-rule="evenodd" fill="#CACACA" width="108.477" height="7.974"/>
		<rect x="82.407" y="477.281" fill-rule="evenodd" clip-rule="evenodd" fill="#A7C8E3" width="63.302" height="7.974"/>
		<rect x="82.407" y="496.946" fill-rule="evenodd" clip-rule="evenodd" fill="#A7C8E3" width="63.302" height="7.974"/>
		<rect x="126.342" y="516.66" fill-rule="evenodd" clip-rule="evenodd" fill="#A7C8E3" width="61.568" height="7.974"/>
		<rect x="121.835" y="437.903" fill-rule="evenodd" clip-rule="evenodd" fill="#CACACA" width="63.65" height="7.975"/>
		<rect x="201.782" y="437.903" fill-rule="evenodd" clip-rule="evenodd" fill="#CACACA" width="32.146" height="7.975"/>
		<rect x="254.732" y="437.903" fill-rule="evenodd" clip-rule="evenodd" fill="#CACACA" width="147.707" height="7.975"/>
		<rect x="158.539" y="457.567" fill-rule="evenodd" clip-rule="evenodd" fill="#A7C8E3" width="64.542" height="7.974"/>
		<rect x="165.028" y="477.281" fill-rule="evenodd" clip-rule="evenodd" fill="#CACACA" width="72.12" height="7.974"/>
		<rect x="165.028" y="496.946" fill-rule="evenodd" clip-rule="evenodd" fill="#CACACA" width="49.236" height="7.974"/>
		<rect x="254.732" y="477.281" fill-rule="evenodd" clip-rule="evenodd" fill="#CACACA" width="53.594" height="7.974"/>
		<rect x="322.393" y="477.281" fill-rule="evenodd" clip-rule="evenodd" fill="#CACACA" width="32.592" height="7.974"/>
		<rect x="370.836" y="477.281" fill-rule="evenodd" clip-rule="evenodd" fill="#CACACA" width="31.602" height="7.974"/>
		<rect x="228.33" y="496.946" fill-rule="evenodd" clip-rule="evenodd" fill="#CACACA" width="94.014" height="7.974"/>
		<rect x="334.281" y="496.946" fill-rule="evenodd" clip-rule="evenodd" fill="#CACACA" width="23.875" height="7.974"/>
		<rect x="205.495" y="516.66" fill-rule="evenodd" clip-rule="evenodd" fill="#CACACA" width="45.769" height="7.974"/>
		<rect x="82.407" y="556.038" fill-rule="evenodd" clip-rule="evenodd" fill="#A7C8E3" width="63.302" height="7.974"/>
		<rect x="82.407" y="575.752" fill-rule="evenodd" clip-rule="evenodd" fill="#A7C8E3" width="63.302" height="7.975"/>
		<rect x="165.028" y="556.038" fill-rule="evenodd" clip-rule="evenodd" fill="#CACACA" width="104.218" height="7.974"/>
		<rect x="165.028" y="575.752" fill-rule="evenodd" clip-rule="evenodd" fill="#CACACA" width="57.012" height="7.975"/>
		<rect x="284.451" y="556.038" fill-rule="evenodd" clip-rule="evenodd" fill="#CACACA" width="28.432" height="7.974"/>
		<rect x="325.069" y="556.038" fill-rule="evenodd" clip-rule="evenodd" fill="#CACACA" width="35.168" height="7.974"/>
		<rect x="277.517" y="575.752" fill-rule="evenodd" clip-rule="evenodd" fill="#CACACA" width="63.352" height="7.975"/>
		<rect x="234.721" y="575.752" fill-rule="evenodd" clip-rule="evenodd" fill="#CACACA" width="26.946" height="7.975"/>
	</g>
</g>
<g>
</g>
<g>
</g>
<g>
</g>
<g>
</g>
<g>
</g>
<g>
</g>
</svg>
