<?xml version="1.0" encoding="utf-8"?>
<!-- Generator: Adobe Illustrator 17.0.0, SVG Export Plug-In . SVG Version: 6.00 Build 0)  -->
<!DOCTYPE svg PUBLIC "-//W3C//DTD SVG 1.1//EN" "http://www.w3.org/Graphics/SVG/1.1/DTD/svg11.dtd">
<svg version="1.1" id="Capa_1" xmlns="http://www.w3.org/2000/svg" xmlns:xlink="http://www.w3.org/1999/xlink" x="0px" y="0px"
	 width="850px" height="850px" viewBox="0 0 850 850" enable-background="new 0 0 850 850" xml:space="preserve">
<g id="tablet">
	<path fill="#DBCBA4" d="M695.893,398.518c51.328,39.293,61.085,112.753,21.795,164.082
		c-39.293,51.325-103.29,57.132-154.619,17.839c-51.325-39.29-57.228-151.343-17.934-202.668
		C584.424,326.445,644.568,359.228,695.893,398.518z"/>
	<path fill="#DBCBA4" d="M154.106,398.518c-51.325,39.293-61.082,112.753-21.791,164.082
		c39.29,51.325,103.291,57.132,154.619,17.839c51.325-39.29,57.224-151.343,17.934-202.668
		C265.578,326.445,205.435,359.228,154.106,398.518z"/>
	<polygon fill="#DBCBA4" points="147.227,526.922 120.556,736.172 280.242,736.172 303.018,557.444 	"/>
	<polygon fill="#EFEFEF" points="120.57,602.513 105.226,853.122 295.607,853.122 307.508,658.414 	"/>
	<path fill="#C5AC75" d="M153.147,465.972c-33.112,1.752-38.441,32.705-21.904,63.99c16.533,31.282,48.668,51.052,81.776,49.297
		c33.112-1.752,46.551-28.533,30.019-59.818C226.504,488.156,186.258,464.217,153.147,465.972z"/>
	<path fill="#C5AC75" d="M140.687,324.375c-7.045-0.86-8.206,5.269-9.055,12.311l-19.045,131.13
		c-1.472,12.216,6.348,31.685,18.56,33.179l0,0c12.209,1.493,25.74-7.272,27.198-19.484l14.823-115.97
		C175.706,345.689,155.712,326.212,140.687,324.375z"/>
	<path fill="#5D5D5D" d="M190.551,111.86h466.443c17.591,0,31.983,14.388,31.983,31.98v312.289
		c0,17.588-14.392,31.976-31.983,31.976H190.551c-17.591,0-31.98-14.388-31.98-31.976V143.84
		C158.571,126.248,172.959,111.86,190.551,111.86z"/>
	<g>
		<path fill="#FFFFFF" d="M202.302,463.962V136c0-0.637,0.352-1.16,0.779-1.16h435.442c0.427,0,0.779,0.523,0.779,1.16v327.963
			c0,0.637-0.352,1.164-0.779,1.164H203.081C202.654,465.126,202.302,464.599,202.302,463.962z"/>
		<path fill="#B2B2B2" d="M170.945,340.777v-81.59c0-2.214,1.808-4.021,4.021-4.021h0.004c2.21,0,4.021,1.808,4.021,4.021v81.59
			c0,2.21-1.811,4.021-4.021,4.021h-0.004C172.753,344.799,170.945,342.987,170.945,340.777z"/>
		<path fill="#B2B2B2" d="M649.417,299.983c0-7.509,6.086-13.594,13.595-13.594c7.506,0,13.591,6.085,13.591,13.594
			c0,7.513-6.085,13.591-13.591,13.591C655.503,313.574,649.417,307.496,649.417,299.983z"/>
	</g>
	<g>
		<rect x="202.302" y="133.049" fill="#CCCCCC" width="437.877" height="333.443"/>
		<path fill="#E7E5E8" d="M345.146,159.749c0,1.553-1.259,2.812-2.812,2.812h-92.206c-1.553,0-2.812-1.259-2.812-2.812v-14.153
			c0-1.553,1.259-2.812,2.812-2.812h92.206c1.553,0,2.812,1.259,2.812,2.812V159.749z"/>
		<path fill="#E7E5E8" d="M633.455,446.904c0,3.801-3.063,6.882-6.841,6.882H214.208c-3.778,0-6.841-3.081-6.841-6.882V165.741
			c0-3.801,3.063-6.882,6.841-6.882h412.405c3.779,0,6.841,3.081,6.841,6.882V446.904z"/>
		<circle fill="#D09B90" cx="213.304" cy="149.93" r="2.752"/>
		<circle fill="#E8DEA3" cx="224.149" cy="149.93" r="2.752"/>
		<circle fill="#B0C6AE" cx="234.995" cy="149.93" r="2.752"/>
		<rect x="270.62" y="174.392" fill="#FFFEFA" width="337.114" height="11.799"/>
		<rect x="216.493" y="221.585" fill="#D5D5D1" width="56.042" height="14.748"/>
		<rect x="216.493" y="256.888" fill="#D5D5D1" width="45.534" height="11.983"/>
		<rect x="216.493" y="174.731" fill="#D5D5D1" width="45.534" height="11.983"/>
		<rect x="259.987" y="149.493" fill="#D5D5D1" width="73.994" height="7.687"/>
		<rect x="216.493" y="277.534" fill="#D5D5D1" width="45.534" height="11.983"/>
		<rect x="216.493" y="298.18" fill="#D5D5D1" width="45.534" height="11.983"/>
		<rect x="216.493" y="318.826" fill="#D5D5D1" width="45.534" height="11.983"/>
		<rect x="289.182" y="224.535" fill="#CED4B2" width="318.552" height="20.647"/>
		<rect x="289.182" y="251.081" fill="#CED4B2" width="318.552" height="20.647"/>
		<rect x="289.182" y="277.627" fill="#CED4B2" width="318.552" height="20.647"/>
		<rect x="289.182" y="304.173" fill="#CED4B2" width="318.552" height="20.647"/>
		<rect x="289.182" y="330.719" fill="#CED4B2" width="318.552" height="20.647"/>
		<rect x="289.182" y="357.266" fill="#CED4B2" width="318.552" height="20.647"/>
		<rect x="289.182" y="383.811" fill="#CED4B2" width="318.552" height="20.648"/>
		<rect x="289.182" y="410.358" fill="#CED4B2" width="318.552" height="20.648"/>
		<rect x="578.964" y="230.49" fill="#ADAEAB" width="23.072" height="6.071"/>
		<rect x="578.964" y="258.297" fill="#ADAEAB" width="23.072" height="6.071"/>
		<rect x="578.964" y="286.104" fill="#ADAEAB" width="23.072" height="6.071"/>
		<rect x="578.964" y="311.944" fill="#ADAEAB" width="23.072" height="6.071"/>
		<rect x="578.964" y="338.768" fill="#ADAEAB" width="23.072" height="6.071"/>
		<rect x="578.964" y="364.869" fill="#ADAEAB" width="23.072" height="6.071"/>
		<rect x="578.964" y="390.97" fill="#ADAEAB" width="23.072" height="6.071"/>
		<rect x="578.964" y="417.07" fill="#ADAEAB" width="23.072" height="6.071"/>
	</g>
	<g>
		<g>
			<g>
				<defs>
					<path id="SVGID_1_" d="M191.551,111.86h466.443c17.591,0,31.983,14.388,31.983,31.98v312.289
						c0,17.588-14.392,31.976-31.983,31.976H191.551c-17.591,0-31.98-14.388-31.98-31.976V143.84
						C159.571,126.248,173.959,111.86,191.551,111.86z"/>
				</defs>
				<clipPath id="SVGID_2_">
					<use xlink:href="#SVGID_1_"  overflow="visible"/>
				</clipPath>
				<path opacity="0.3" clip-path="url(#SVGID_2_)" fill="#FFFFFF" enable-background="new    " d="M401.461,110.5h264.456
					c13.306,0,23.263,13.324,23.263,30.338v317.341c0,17.015-9.957,31.321-23.263,31.321H560.455L401.461,110.5z"/>
			</g>
		</g>
	</g>
	<path fill="#DBCBA4" d="M140.687,324.375c-6.242-0.761-11.978,3.719-12.732,9.958l-19.321,146.643
		c-1.306,10.822,5.623,28.069,16.437,29.393l0,0c10.818,1.32,23.069-6.441,24.356-17.262l15.323-133.214
		C166.775,342.281,153.996,326.003,140.687,324.375z"/>
	<path fill="#DBCBA4" d="M149.962,467.777c-29.01,3.22-39.477,32.814-23.38,66.103s52.659,57.667,81.669,54.446
		c29.01-3.217,39.474-32.811,23.38-66.103C215.534,488.935,178.969,464.56,149.962,467.777z"/>
	<path fill="#F1E8D6" d="M131.433,327.443c-1.865,1.766-3.149,4.161-3.478,6.89l-3.942,29.913
		c7.558-0.842,13.047-2.159,20.386-4.986C146.625,346.842,144.307,327.429,131.433,327.443z"/>
	<polygon fill="#DBCBA4" points="702.776,526.922 729.448,736.172 569.76,736.172 546.982,557.444 	"/>
	<polygon fill="#EFEFEF" points="729.43,610.987 744.773,850.698 554.396,850.698 542.495,664.458 	"/>
	<path fill="#C5AC75" d="M696.856,465.972c33.108,1.752,38.437,32.705,21.904,63.99c-16.533,31.282-48.667,51.052-81.779,49.297
		c-33.112-1.752-46.548-28.533-30.015-59.818C623.495,488.156,663.745,464.217,696.856,465.972z"/>
	<path fill="#C5AC75" d="M709.315,324.375c7.042-0.86,8.206,5.269,9.055,12.311l19.045,131.13
		c1.472,12.216-6.349,31.685-18.561,33.179l0,0c-12.208,1.493-25.744-7.272-27.198-19.484l-14.823-115.97
		C674.297,345.689,694.286,326.212,709.315,324.375z"/>
	<path fill="#DBCBA4" d="M709.315,324.375c6.242-0.761,11.979,3.719,12.732,9.958l19.318,146.643
		c1.306,10.822-5.62,28.069-16.437,29.393l0,0c-10.818,1.32-23.069-6.441-24.357-17.262l-15.319-133.214
		C683.229,342.281,696.007,326.003,709.315,324.375z"/>
	<path fill="#DBCBA4" d="M700.041,467.777c29.007,3.22,39.474,32.814,23.38,66.103c-16.098,33.289-52.659,57.667-81.669,54.446
		c-29.007-3.217-39.478-32.811-23.38-66.103C634.469,488.935,671.031,464.56,700.041,467.777z"/>
	<path fill="#F1E8D6" d="M718.57,327.443c1.865,1.766,3.149,4.161,3.479,6.89l3.942,29.913c-7.559-0.842-13.047-2.159-20.39-4.986
		C703.378,346.842,705.693,327.429,718.57,327.443z"/>
</g>
<circle fill="#A5B051" cx="710.5" cy="655.5" r="13"/>
<circle fill="#A5B051" cx="137.5" cy="654.5" r="13"/>
<ellipse fill="#EFEFEF" cx="133.92" cy="654.242" rx="1.129" ry="2.741"/>
<ellipse fill="#EFEFEF" cx="140.371" cy="654.242" rx="1.129" ry="2.741"/>
<ellipse fill="#EFEFEF" cx="713.506" cy="655.242" rx="1.129" ry="2.741"/>
<ellipse fill="#EFEFEF" cx="707.055" cy="655.242" rx="1.129" ry="2.741"/>
</svg>
