<?xml version="1.0" encoding="UTF-8" standalone="no"?>
<!-- Generator: Adobe Illustrator 17.0.0, SVG Export Plug-In . SVG Version: 6.00 Build 0)  -->
<!DOCTYPE svg  PUBLIC '-//W3C//DTD SVG 1.1//EN'  'http://www.w3.org/Graphics/SVG/1.1/DTD/svg11.dtd'>
<svg id="Capa_1" xmlns="http://www.w3.org/2000/svg" xml:space="preserve" height="1e3px" viewBox="0 0 800 1000" width="800px" version="1.1" y="0px" x="0px" xmlns:xlink="http://www.w3.org/1999/xlink" enable-background="new 0 0 800 1000">
	<path d="m810.82 407.68c0.739-4.065-2.778-5.463-7.423-5.636 1.122-4.414 1.734-7.373 1.734-7.373l4.333-8.347c4.18 5.545 6.849 10.279 6.849 10.279l15.6-7.799c-7.03-16.376-14.954-30.261-14.954-30.261l24.489-24.875-5.143 0.343-10.346 6.687 1.296-20.204-3.455-0.21-2.416 22.402-9.552 8.625c-0.836-3.511-17.743-20.191-21.176-26.146-3.434-5.956-12.055-17.795-16.03-29.312s-5.356-31.487-5.356-31.487c13.307-8.634 23.95-57.738 23.95-57.738l-4.959-0.939s-0.111 13.833-4.615 28.373c-4.503 14.539-17.606 25.649-17.458 24.623 0.147-1.025-3.974-10.477-11.362-20.532-8.764-11.929-20.004-20.687-22.456-24.158-2.449-3.47-10.531-19.989-13.628-26.422-3.096-6.433-1.897-7.314-0.63-10.538 1.268-3.224 1.983-2.603 4.429-14.027 2.448-11.424-7.426-37.856-7.426-37.856l-5.064 1.66c3.354 4.639 7.571 21.937 7.27 22.157 0.971 11.891-7.902 21.392-7.902 21.392-3.139-8.006-22.505-31.815-22.505-31.815l0.735 7.939c17.095 17.228 26.473 54.567 26.473 54.567s-10.242-10.805-32.177-26.081c-21.934-15.275-52.829-52.155-52.829-52.155l-2.046 6.775c1.856 5.74 49.031 50.592 49.031 50.592-4.539 1.732-20.833 3.165-59.523-1.857-38.694-5.022-49.356-18.497-49.356-18.497l-0.627 4.357c3.102 8.262 44.617 16.022 39.211 16.328-5.406 0.307-19.871 11.396-19.871 11.396l1.178 4.864c2.545-2.788 29.248-15.08 29.248-15.08 10.003 5.024 69.937 5.892 69.937 5.892s19.346 16.49 43.622 36.005c24.274 19.515 24.809 36.31 24.809 36.31-25.791 2.227-48.106-11.278-48.106-11.278l-0.162 1.948c6.11 9.718 49.566 17.085 50.88 17.265 0.894 14.871 7.348 36.539 7.348 36.539-11.034 2.151-46.045-2.368-60.306-13.199-14.262-10.831-35.443-38.807-35.443-38.807l-2.771 2.495c1.586 3.875 28.443 35.472 28.443 35.472l-11.199-2.435 0.954 2.631c7.946 8.14 83.43 23.934 83.43 23.934s1.584 2.174 5.533 10.115l0.232 9.513-15.65-19.251-1.461 1.135 17.122 26.375v21.424c-3.4-2.789-31.893-10.956-45.283-13.877-8.232-1.796-27.077-14.121-39.44-22.398-12.36-8.277-27.511-27.267-27.511-27.267 7.547-26.354-20.449-71.576-20.449-71.576l-3.5 2.134s10.638 13.268 16.889 30.429c6.25 17.161 0.61 35.235 0 34.145-0.608-1.089-3.76-6.23-18.016-11.686-19.72-7.547-42.735-3.89-47.69-5.502-4.956-1.611-25.029-11.806-32.793-15.811-7.766-4.005-9.527-5.855-10.649-9.85-1.119-3.996-0.996-4.978-6.979-17.691-5.985-12.714-31.768-29.949-31.768-29.949l-3.756 5.167c6.701 2.098 23.546 15.766 23.414 16.189 9.685 10.753 7.943 26.149 7.943 26.149-8.962-5.49-45.476-14.742-45.476-14.742l5.983 5.464c44.473 7.466 66.649 35.486 66.649 35.486s-17.487-1.357-50.256-0.59c-32.768 0.766-90.402-14.445-90.402-14.445l2.272 3.084c6.04 4.214 85.704 18.676 85.704 18.676-3.189 4.865-18.145 17.728-59.851 40.169-41.704 22.441-62.077 16.994-62.077 16.994l1.166 1.742c14.121 7.142 58.415-13.48 53.723-8.927-5.519 5.356-12.945 24.856-12.945 24.856l1.422 1.762c0.454-4.476 20.972-33.036 20.972-33.036 13.518-2.217 73.045-43.628 73.045-43.628s31.117 2.226 69.298 3.889c38.18 1.662 51.036 17.442 51.036 17.442-23.705 20.322-56.672 21.411-56.672 21.411l1.339 1.339c13.14 5.041 62.303-16.206 63.728-16.959 2.013 4.933 35.359 31.201 35.359 31.201-9.263 9.847-50.339 30.921-72.307 30.554-21.966-0.367-61.838-11.929-61.838-11.929l-0.324 1.96c4.406 2.608 61.554 14.109 61.554 14.109l-13.025 3.53c-10.616-0.009-30.635-2.277-30.635-2.277v1.811c10.616 0.711 18.203 1.319 23.462 1.788l2.715 2.523c1.755 0.284 4.682-0.087 8.444-0.947 7.943 0.631 23.484 14.036 16.892 16.56-7.435 2.847-65.055 33.381-65.055 33.381l-13.807-0.259-0.532 2.329h12.745s-5.045 6.469-13.011 14.491-48.941 17.439-62.218 14.592c-13.277-2.846-26.999-32.706-32.043-43.574-5.046-10.868-7.275-39.202-7.275-39.202l-2.815-0.389 1.593 37.003-33.457-16.819 0.108 3.252 37.066 21.589c1.328 7.504 26.907 40.281 26.907 40.281s-28.853 0.345-38.236 0.689c-9.383 0.345-21.949 1.035-42.839-3.45-20.889-4.485-49.118-14.719-49.118-14.719s-19.122-61.617-20.449-64.204c-1.328-2.588 3.718-9.057 3.718-9.057 25.137-15.526 30.8-48.906 30.8-48.906h-3.717c-2.656 23.547-35.05 46.319-35.05 46.319s-1.375-2.487-4.03-8.956-3.324-6.415-6.654-16.555c-2.832-8.626-3.653-12.269-2.945-30.9 0.757-19.915 9.924-37.431 9.924-37.431l-1.871-1.125c-13.011 13.455-16.462 49.165-14.869 60.033s7.17 23.289 17.259 50.977c9.45 25.932 15.171 53.151 15.387 55.991-0.525-0.506-6.536-5.899-15.121-9.672-13.542-5.952-22.835-17.596-32.925-26.653s-19.118-22.512-19.118-22.512c-40.891-51.494-90.81-74.524-90.81-74.524l1.328 5.693c13.542 0.777 93.2 70.642 83.11 72.195s-30.801-1.294-35.315-4.14-10.146-3.686-14.134-3.523c-5.965 0.243-9.764 3.006-13.481 3.782-3.717 0.777-10.356 0.259-10.356 0.259s-1.858 2.588 1.593 3.882c3.452 1.294 11.684-0.776 15.666-2.588 3.983-1.811 10.685-2.81 18.385 1.848s46.404 7.986 46.404 7.986c2.954 5.757 7.865 12.429 13.887 19.268-13.718 3.645-49.677 13.539-50.265 13.607-3.663 1.398-18.258 5.232-42.981-4.868-28.854-11.787-52.674-20.73-52.674-20.73s-27.944-43.016-38.914-58.24-3.277-30.996-2.055-34.563l-1.217 2.435s-1.648 17.057-1.582 23.737c0.053 5.403-25.778-27.904-34.533-26.629l0.206 1.918c-3.064-0.507 14.764 5.602 36.329 34.916 23.077 31.369 29.678 46.291 30.346 51.092 0 0-62.159-19.566-68.098-18.419l-0.402 2.77s44.533 9.514 68.533 21.302c24.001 11.79 36.643 17.487 36.643 17.487s-37.327 9.821-60.708 3.202l-7.329 3.188s33.195 4.512 41.742 3.391c0 0 5.843 6.817-21.546 20.937-6.573 1.948-10.671 3.205-19.343 1.54l0.985 5.224s27.984-4.127 36.84-11.776c8.856-7.648 7.661-10.462 9.881-13.125 2.221-2.662 4.541-4.47 11.686-4.869 7.145-0.398 23.281-0.587 27.511-0.122 4.231 0.467 27.06 13.78 39.521 12.701 7.417-0.642 24.454-7.315 30.513-8.602 4.683-1.31 20.274-5.069 26.618-6.168 3.352-0.581 13.796-3.084 19.593 4.231 6.122 5.643 12.582 11.004 18.876 15.625 19.383 14.232 67.444 24.065 67.444 24.065-10.621 13.714-54.368 22.709-62.334 24.003s-28.971-2.678-28.971-2.678c-55.584-7.59-73.763-34.177-73.763-34.177l-0.089 5.348c16.462 22.254 93.201 39.505 93.201 39.505-22.27 31.808-57.355 24.409-57.355 24.409l0.796 3.364c43.812 5.693 70.099-32.087 70.099-32.087 33.456-2.588 72.223-27.17 72.223-27.17 12.745 4.14 71.199 0.814 91.114-0.738 19.914-1.553 55.723-13.494 55.723-13.494-5.045 7.504-15.135 25.618-15.135 25.618l3.806 1.121c15.01-30.044 28.278-41.608 28.278-41.608 17.042-19.111 73.684-37.056 70.852-35.676-2.833 1.38-17.169 30.198-17.169 30.198l2.299 0.854c10.977-23.116 25.576-34.085 25.576-34.085 33.279-24.841 118.59-19.263 134.1-13.527 11.035 4.081 13.609 25.971 12.75 38.684-0.198 2.172-3.916 37.976-3.895 37.979-3.461 38.015-6.505 70.644-12.822 140.88-10.911 121.3-16.068 158.08-19.964 231.12s3.895 137.31-6.817 169.45c-10.712 32.136-9.738 33.11-27.267 37.979s115.89 7.791 119.78 8.764-15.581-407.06-20.45-450.88c-4.82-43.8-4.82-187.93-2.88-198.64zm-182.31-11.61c-1.08-2.282-9.977-8.966-15.923-13.113 10.921-3.185 25.694-8.704 39.843-14.336 4.367 6.403 17.768 15.546 17.768 15.546-13.01 1.04-40.09 15.27-41.69 11.9zm47.27-15c-6.513-1.494-15.515-9.452-20.022-13.77 21.897-8.801 41.397-17.443 41.397-17.443s38.2 15.625 43.799 17.573 10.469 4.626 12.66 10.225c-30.09 1.18-72.11 4.72-77.84 3.41zm105.83-15.83l-1.217-27.267c2.931 6.014 11.914 14.774 11.929 15.338 0 0-0.326 12.318 0.487 17.285-4.15-1.94-11.2-5.36-11.2-5.36z" fill="#69462D"/>
			<path d="m177.91 320.25c-18.493 9.264-31.237-20.085-23.496-51.837 0 0 57.77 31.07 23.5 51.84z" fill="#575C2B"/>
			<path d="m197.96 386.09c7.277-15.867-9.093-30.901-36.936-32.402 0.01-0.01 10.02 47.23 36.94 32.4z" fill="#575C2B"/>
			<path d="m110.47 368.32c16.153-6.708 14.391-28.831-5.011-48.798 0 0-24.846 41.44 5.01 48.8z" fill="#575C2B"/>
			<path d="m233.34 391.77c11.402-9.965-0.129-27.15-22.013-34.583 0 0-3.66 41.18 22.01 34.58z" fill="#8E8F42"/>
			<path d="m207.36 334.82c17.803-4.634 15.045-29.193-4.274-48.79-0.01-0.01-26.96 42.23 4.27 48.79z" fill="#8E8F42"/>
			<path d="m311.38 282.72c13.682-0.903 15.273-19.225 4.039-36.229 0 0-25.88 27.09-4.04 36.23z" fill="#8E8F42"/>
			<path d="m186.48 390c-0.67-13.348-19.437-15.241-37.094-4.615-0.01 0.01 27.3 25.74 37.09 4.62z" fill="#8E8F42"/>
			<path d="m59.939 385.98c-0.67-13.348-19.437-15.241-37.094-4.615 0 0 27.308 25.73 37.094 4.62z" fill="#8E8F42"/>
			<path d="m65.142 320.38c4.22-12.685-12.588-21.222-32.905-17.686-0.001 0 16.119 33.84 32.905 17.69z" fill="#8E8F42"/>
			<path d="m90.384 324.2c11.867-6.214 5.706-23.99-11.383-35.503 0.001 0-11.942 35.52 11.383 35.5z" fill="#8E8F42"/>
			<path d="m408.2 404.66c0.212-13.362-18.391-16.429-36.715-6.933 0 0 25.56 27.39 36.72 6.93z" fill="#8E8F42"/>
			<path d="m93.082 459.13c0.213-13.362-18.391-16.429-36.714-6.933-0.001 0 25.552 27.38 36.714 6.93z" fill="#8E8F42"/>
			<path d="m95.706 428.6c3.09-10.991-11.607-17.559-28.813-13.689 0 0.01 15.131 28.17 28.813 13.69z" fill="#8E8F42"/>
			<path d="m392.15 344.92c-5.308-12.323-23.611-7.856-36.482 8.008 0-0.01 34.68 15.09 36.48-8.01z" fill="#8E8F42"/>
			<path d="m414.63 340.45c6.456-11.79-8.651-22.804-29.402-22.518 0 0 9.88 35.74 29.4 22.52z" fill="#8E8F42"/>
			<path d="m426.41 267.26c0.031-13.375-18.597-16.37-36.773-6.793 0 0 25.89 27.3 36.77 6.79z" fill="#8E8F42"/>
			<path d="m508.13 209.77c5.19-9.48-6.957-18.337-23.643-18.107 0 0 7.95 28.74 23.64 18.11z" fill="#8E8F42"/>
			<path d="m675.11 263.17c9.752-5.017 4.785-18.986-9.168-27.909 0 0-9.94 28.14 9.17 27.91z" fill="#8E8F42"/>
			<path d="m688.65 278.96c8.633-0.952 9.106-12.593 1.498-23.046 0 0.01-15.59 17.87-1.5 23.05z" fill="#8E8F42"/>
			<path d="m618.7 375.26c6.264-4.298 1.825-13.471-8.357-18.393 0 0-4.65 20.21 8.36 18.39z" fill="#8E8F42"/>
			<path d="m773.45 256.5c2.924 8.178 14.359 5.942 22.765-3.881 0 0-21-11.03-22.77 3.88z" fill="#8E8F42"/>
			<path d="m718.97 192.5c8.352 2.33 13.348-8.254 10.409-20.745 0-0.01-21.41 10.71-10.41 20.74z" fill="#8E8F42"/>
			<path d="m718.7 300.64c12.571-6.468 6.167-24.479-11.821-35.982 0-0.01-12.83 36.27 11.82 35.98z" fill="#8E8F42"/>
			<path d="m737.56 305.67c8.581-4.415 4.21-16.708-8.066-24.559 0 0-8.75 24.77 8.07 24.56z" fill="#8E8F42"/>
			<path d="m714.31 254.6c8.715-10.293-3.831-23.989-24.197-27.714 0.01 0 2.41 36.88 24.2 27.71z" fill="#8E8F42"/>
			<path d="m589.7 194.31c-4.173-9.947-18.925-6.489-29.396 6.174 0 0 27.77 12.39 29.4-6.17z" fill="#8E8F42"/>
			<path d="m581.49 173.8c-5.365-9.388-19.584-4.233-28.425 9.559 0 0 29.09 9.05 28.43-9.56z" fill="#8E8F42"/>
			<path d="m505.45 244.56c1.951-10.577-12.401-15.366-28.206-10.15 0 0.01 16.63 24.97 28.21 10.15z" fill="#8E8F42"/>
			<path d="m645.14 234.26c3.964-10.028-9.204-17.371-25.736-15.155 0 0.01 11.5 27.58 25.74 15.16z" fill="#8E8F42"/>
			<path d="m631.49 179.49c6.973-8.326-3.192-19.301-19.611-22.215 0 0 2.11 29.69 19.61 22.21z" fill="#8E8F42"/>
			<path d="m596.45 174.28c8.511-6.832 0.752-19.536-14.761-25.531 0 0-3.91 29.51 14.76 25.53z" fill="#8E8F42"/>
			<path d="m661.7 181.77c4.613-5.509-2.114-12.772-12.978-14.701 0 0 1.39 19.65 12.98 14.7z" fill="#8E8F42"/>
			<path d="m624.63 319.59c4.634-16.549-17.497-26.137-43.383-20.014 0 0 22.82 41.98 43.38 20.01z" fill="#8E8F42"/>
			<path d="m593.8 329.53c0.339-10.74-14.58-13.429-29.43-6.012 0 0 20.2 22.32 29.43 6.01z" fill="#8E8F42"/>
			<path d="m558.97 364.65c0.831-10.715-13.949-14.05-29.126-7.287 0 0 19.16 23.18 29.13 7.29z" fill="#8E8F42"/>
			<path d="m576.33 380.86c-3.294-7.191-14.017-4.323-21.384 5.19-0.01 0 20.63 8.45 21.38-5.19z" fill="#8E8F42"/>
			<path d="m432.92 417.39c7.067-3.821 3.208-13.983-7.155-20.313 0.01 0-6.84 20.76 7.16 20.31z" fill="#8E8F42"/>
			<path d="m443.04 330.28c6.059-14.279-12.603-25.289-36.449-22.673 0 0 15.52 40.04 36.45 22.67z" fill="#8E8F42"/>
			<path d="m432.08 356.61c-9-6.209-19.541 4.424-21.402 20.585 0 0 30.26-4.08 21.4-20.59z" fill="#8E8F42"/>
			<path d="m534.38 236.56c0.687-10.725-14.136-13.872-29.221-6.916 0 0.01 19.46 22.94 29.22 6.92z" fill="#8E8F42"/>
			<path d="m543.49 252.73c15.034 4.879 24.978-14.029 20.62-37.013 0 0-39.86 17.9-20.62 37.01z" fill="#8E8F42"/>
			<path d="m571.89 273.08c11.512-3.894 8.485-19.968-5.23-31.99 0 0-15.69 29.12 5.23 31.99z" fill="#8E8F42"/>
			<path d="m528.67 254.28c-2.559-9.083-15.703-7.707-26.118 2.118 0-0.01 22.74 13.79 26.12-2.12z" fill="#8E8F42"/>
			<path d="m601.33 383.89c-11.951-7.722-25.219 6.507-26.981 27.585 0 0 39.16-6.47 26.98-27.59z" fill="#8E8F42"/>
			<path d="m611.06 435.8c-10.932 1.412-11.24 16.194-1.326 29.277 0 0 19.34-23.04 1.33-29.28z" fill="#8E8F42"/>
			<path d="m530.96 483.29c-10.276-3.893-17.851 8.917-15.63 25.035 0 0 28.33-11.11 15.63-25.03z" fill="#8E8F42"/>
			<path d="m455.3 270.55c9.244-9.872-2.608-24.179-22.789-28.894 0.01 0 0.53 37.01 22.79 28.89z" fill="#8E8F42"/>
			<path d="m488.74 275.95c11.829-12.634-3.337-30.944-29.164-36.978-0.01 0 0.66 47.37 29.16 36.98z" fill="#8E8F42"/>
			<path d="m217.81 467.12c7.106-11.43-7.363-23.229-28.098-24.046 0 0.01 7.87 36.22 28.1 24.05z" fill="#8E8F42"/>
			<path d="m204 340.44c1.708-17.881-22.888-23.87-48.445-12.999 0 0.01 31.31 39.28 48.44 13z" fill="#8E8F42"/>
			<path d="m300.38 298.77c14.106-11.555 0.92-32.656-25.105-42.419-0.01 0.01-6.04 49.39 25.1 42.42z" fill="#8E8F42"/>
			<path d="m298 338.14c9.481-11.083-4.01-25.957-26.012-30.092 0-0.01 2.4 39.89 26.01 30.09z" fill="#8E8F42"/>
			<path d="m455.95 442.75c-3.316-14.063-23.632-12.599-40.324 1.968-0.01 0 34.04 22.28 40.32-1.97z" fill="#8E8F42"/>
			<path d="m441.41 390.47c8.922-3.648 5.691-16.231-5.793-25.082 0 0-10.93 23.84 5.79 25.08z" fill="#8E8F42"/>
			<path d="m333.54 363.97c2.16 10.553 17.336 9.889 30.102-0.621 0 0-24.89-17.33-30.1 0.62z" fill="#8E8F42"/>
			<path d="m321.93 377.51c-0.411 7.872 10.46 10.194 21.436 5.099-0.01 0-14.45-16.85-21.44-5.1z" fill="#8E8F42"/>
			<path d="m307.17 368.98c5.64-13.342-11.802-23.596-34.065-21.12 0.01 0 14.56 37.37 34.07 21.12z" fill="#8E8F42"/>
			<path d="m253.06 533.01c-0.516-14.42-20.748-16.74-39.974-5.527-0.01 0 29.08 28.18 39.97 5.53z" fill="#8E8F42"/>
			<path d="m277.16 530.9c-10.228-6.281-21.203 6.029-22.338 23.891 0 0 32.99-6.29 22.34-23.89z" fill="#8E8F42"/>
			<path d="m219.28 390.67c-13.651-11.186-32.987 0.013-42.132 25.685 0 0 49.36 3.62 42.13-25.69z" fill="#575C2B"/>
			<path d="m97.238 356.87c-6.132-16.522-28.494-16.572-49.372 1 0 0 40.793 27.94 49.372-1z" fill="#575C2B"/>
			<path d="m455.44 275.88c-13.65-11.186-32.987 0.013-42.131 25.685-0.01 0 49.35 3.62 42.13-25.68z" fill="#575C2B"/>
			<path d="m487.57 280.84c-10.864-8.903-26.254 0.01-33.532 20.443 0 0 39.28 2.88 33.53-20.44z" fill="#575C2B"/>
			<path d="m298.72 517.49c-9.732 1.73-11.657 13.744-3.632 26.629 0 0 19.03-19.28 3.63-26.63z" fill="#575C2B"/>
			<path d="m130.78 444.21c-12.924 2.298-15.48 18.252-4.823 35.362-0.01 0 25.27-25.6 4.82-35.36z" fill="#575C2B"/>
			<path d="m246.14 393.74c-8.93-4.149-17.707 4.494-18.94 19.519 0 0 27.02-4.77 18.94-19.52z" fill="#575C2B"/>
			<path d="m75.091 330.6c-5.747-7.984-17.643-4.747-26.097 7.744 0 0 25.895 9.06 26.097-7.74z" fill="#575C2B"/>
			<path d="m118.59 393.1c-0.116-9.837-11.714-14.022-25.809-8.655-0.005 0.01 15.989 22.3 25.809 8.66z" fill="#575C2B"/>
			<path d="m72.477 388.85c-8.929-4.149-17.707 4.493-18.94 19.519 0 0 27.016-4.77 18.94-19.52z" fill="#575C2B"/>
			<path d="m114.5 455.51c-8.929-4.149-17.707 4.493-18.94 19.519 0.004 0 27.02-4.77 18.94-19.52z" fill="#575C2B"/>
			<path d="m113.54 432.35c-5.974-7.807-17.772-4.212-25.865 8.528 0.004 0 26.145 8.27 25.865-8.53z" fill="#575C2B"/>
			<path d="m256.96 487.5c-8.93-4.149-17.707 4.493-18.94 19.519 0 0 27.01-4.78 18.94-19.52z" fill="#575C2B"/>
			<path d="m438.23 343.49c-6.55 7.226-0.436 17.827 14.047 23.114 0 0 2.72-26.62-14.05-23.11z" fill="#575C2B"/>
			<path d="m464.94 318.86c-14.243 5.226-13.771 23.925 2.009 41.281 0 0 23.39-34.28-2.01-41.28z" fill="#575C2B"/>
			<path d="m607.76 326.44c-8.89-0.907-13.689 9.033-10.086 22.191 0 0 21.53-12 10.09-22.19z" fill="#575C2B"/>
			<path d="m640.83 314.16c-14.598-1.489-22.477 14.833-16.562 36.439 0-0.01 35.35-19.72 16.56-36.44z" fill="#575C2B"/>
			<path d="m726.76 304.18c-7.376-1.951-12.822 5.799-11.631 17.385 0 0 19.86-7.26 11.63-17.38z" fill="#575C2B"/>
			<path d="m707.69 175.84c-0.441-7.436-9.71-10.013-20.606-5.238 0 0.01 13.36 16.06 20.61 5.24z" fill="#575C2B"/>
			<path d="m675.43 187.43c-6.131-4.447-14.111 0.821-17.354 12.028 0 0 21.2 0.32 17.35-12.03z" fill="#575C2B"/>
			<path d="m681.2 272.33c-0.712-6.576-9.044-8.48-18.501-3.796 0 0 12.55 13.69 18.5 3.8z" fill="#575C2B"/>
			<path d="m515.55 216.12c-3.325-5.765-11.749-4.301-18.531 3.649-0.01 0 17.07 7.73 18.53-3.65z" fill="#575C2B"/>
			<path d="m544.63 261.51c-5.993-6.348-16.238-2.027-22.405 10.049 0 0 24.06 4.82 22.41-10.05z" fill="#575C2B"/>
			<path d="m740.1 261.22c-7.377-1.951-12.823 5.799-11.631 17.385-0.01 0.01 19.85-7.25 11.63-17.38z" fill="#575C2B"/>
			<path d="m604.39 183.36c-10.33 0.872-13.555 13.224-6.483 27.441-0.01 0 21.81-18.28 6.48-27.44z" fill="#575C2B"/>
			<path d="m701.2 295.44c-4.472-7.794-15.853-5.842-25.038 4.872 0 0 23.04 10.49 25.04-4.87z" fill="#575C2B"/>
			<path d="m769.6 330.81c-4.471-7.794-15.852-5.842-25.036 4.872 0 0 23.04 10.49 25.04-4.87z" fill="#575C2B"/>
			<path d="m654.46 185.68c-12.493-7.792-27.201 3.469-31.904 25.596 0-0.01 41.09-2.2 31.9-25.6z" fill="#575C2B"/>
			<path d="m762.22 310.01c-10.16-8.952-25.317-0.877-33.063 18.579 0 0 37.77 4.1 33.06-18.58z" fill="#575C2B"/>
			<path d="m620.09 424.28c-5.784 4.869-2.236 13.602 8.288 19.117 0 0 4.93-20.11-8.29-19.12z" fill="#575C2B"/>
			<path d="m625.37 414.98c-3.636-6.553-13.15-5.054-20.941 3.776-0.01-0.01 19.08 9 20.94-3.78z" fill="#575C2B"/>
			<path d="m661.94 376.1c-3.634-6.553-13.15-5.054-20.94 3.775 0-0.01 19.09 9 20.94-3.78z" fill="#575C2B"/>
			<path d="m343.82 352.58c6.169-4.398 3.354-13.382-6.681-19.706 0 0-6.58 19.65 6.68 19.71z" fill="#575C2B"/>
			<path d="m326.03 371.87c8.863-2.962 8.783-14.574-0.771-25.652 0 0-14.84 20.81 0.77 25.65z" fill="#575C2B"/>
			<path d="m655.5 368.46c4.905-5.713-0.04-13.775-11.339-17.567 0 0.01-1.53 20.62 11.34 17.57z" fill="#575C2B"/>
			<path d="m673.15 381.72c13.072-3.228 14.547-19.733 2.414-36.529 0 0-24.05 27.93-2.41 36.53z" fill="#575C2B"/>
			<path d="m734.2 260.45c9.678-6.998 5.141-21.135-10.75-30.999 0 0-10.14 31.05 10.75 31z" fill="#575C2B"/>
			<path d="m730.35 212.14c12.035 0.613 17.778-13.1 11.977-30.569 0 0.01-28.12 17.64-11.98 30.57z" fill="#575C2B"/>
			<path d="m585.67 370.32c9.762-11.983-0.893-28.387-24.377-35.719 0.01 0-1.95 42.55 24.38 35.72z" fill="#575C2B"/>
			<path d="m601.5 373.64c6.754-4.367 4.221-14.017-6.093-21.192-0.01 0-7.95 20.51 6.09 21.19z" fill="#575C2B"/>
			<path d="m540.27 461.98c-5.785 4.869-2.236 13.603 8.287 19.118 0 0 4.93-20.1-8.29-19.12z" fill="#575C2B"/>
			<path d="m423.09 414c-5.104-5.592-13.986-2.042-19.432 8.279 0 0 20.7 4.6 19.43-8.28z" fill="#575C2B"/>
			<path d="m534.92 471.18c-4.619-5.934-13.79-3.038-20.102 6.848-0.01 0 20.27 6.06 20.1-6.85z" fill="#575C2B"/>
			<path d="m549.76 435.6c1.86-7.287-6.047-12.761-17.728-11.695 0.01 0 7.63 19.74 17.73 11.7z" fill="#575C2B"/>
			<path d="m658.01 266.31c0.339-16.973-19.733-24.732-45.363-15.743-0.05-0.07 27.26 38.69 45.36 15.74z" fill="#575C2B"/>
			<path d="m234.51 477.96c-13.65-11.185-32.987 0.014-42.131 25.685 0 0.01 49.35 3.62 42.13-25.68z" fill="#575C2B"/>
			<path d="m249.31 484.67c10.995-7.844 5.973-23.861-11.919-35.132 0 0-11.71 35.04 11.92 35.13z" fill="#575C2B"/>
			<path d="m277.79 494.29c13.087-9.888 6.437-29.18-15.685-42.287 0.01 0-13.01 42.95 15.69 42.29z" fill="#575C2B"/>
			<path d="m355.12 333.45c17.801 0.074 16.22-26.166-2.038-46.706 0.01 0-32.35 43.92 2.04 46.71z" fill="#575C2B"/>
			<path d="m449.44 424.51c14.701 10.331 29.33-12.314 26.687-39.859 0 0-53.48 17.71-26.69 39.86z" fill="#575C2B"/>
			<path d="m655.88 252.8c15.147 4.158 20.156-18.555 9.581-40.252 0 0-38.2 29.97-9.58 40.25z" fill="#575C2B"/>
			<path d="m465.9 455.26c10.951 7.695 21.849-9.173 19.881-29.693 0-0.01-39.83 13.19-19.88 29.69z" fill="#575C2B"/>
			<path d="m301.11 322.88c16.631 6.278 31.207-10.418 31.333-37.593 0.01 0-47.9 12.15-31.33 37.59z" fill="#575C2B"/>
			<path d="m530.88 224.13c15.954-7.766 13.089-29.509-7.456-47.884 0 0-23.01 42.71 7.46 47.88z" fill="#575C2B"/>
			<path d="m302.97 349.7c12.216 4.611 22.923-7.653 23.015-27.614 0 0-35.18 8.92-23.01 27.61z" fill="#575C2B"/>
			<path d="m227.58 353.84c12.759-5.668 11.293-22.793-4.123-37.744-0.01 0-19.53 32.88 4.12 37.74z" fill="#575C2B"/>
			<path d="m289.08 523.2c1.404-13.554-14.578-20.81-35.676-15.242 0.01 0 19.4 32.75 35.68 15.24z" fill="#575C2B"/>
			<path d="m134.36 428.08c4.234-12.956-9.858-23.404-31.658-22.39 0.01 0.01 12.06 36.09 31.66 22.39z" fill="#575C2B"/>
			<path d="m243.56 370.19c19.062-0.04 26.929-22.181 16.228-49.292 0 0-42.87 30.21-16.23 49.29z" fill="#575C2B"/>
			<path d="m88.83 391.11c7.351-8.751-3.337-20.765-20.617-24.294 0-0.01 2.176 31.87 20.617 24.29z" fill="#8E8F42"/>
			<path d="m117.64 386.93c11.292 1.769 16.052-13.59 10.14-30.207 0 0-26.16 18.34-10.14 30.21z" fill="#8E8F42"/>
			<path d="m554.4 436.56c-4.888-6.219-14.64-0.917-19.572 10.057 0 0 22.04 3.37 19.57-10.06z" fill="#8E8F42"/>
			<defs>
				<path id="SVGID_1_" d="m380.7 430.94l5.934-5.721s6.145-5.722 2.543-19.495c-3.604-13.773 18.435-18.286 18.435-18.286s21.402-6.776 27.77 20.132c6.854 28.967-29.254 53.035-54.471 45.194 0 0-15.49-4.555-16.551-9.294-1.059-4.738-1.051-0.229-1.051-0.229l17.4-12.29z"/>
			</defs>
			<clipPath id="SVGID_2_">
				<use overflow="visible" xlink:href="#SVGID_1_"/>
			</clipPath>
			<path fill="#447294" d="m431.88 398.08l-9.156-11.401h-17.676s-16.826 8.794-17.678 9.056c-0.852 0.261-4.875 10.631-4.875 10.631l49.4-8.29z" clip-path="url(#SVGID_2_)"/>
			<defs>
				<path id="SVGID_3_" d="m380.7 430.94l5.934-5.721s6.145-5.722 2.543-19.495c-3.604-13.773 18.435-18.286 18.435-18.286s21.402-6.776 27.77 20.132c6.854 28.967-29.254 53.035-54.471 45.194 0 0-15.49-4.555-16.551-9.294-1.059-4.738-1.051-0.229-1.051-0.229l17.4-12.29z"/>
			</defs>
			<clipPath id="SVGID_4_">
				<use overflow="visible" xlink:href="#SVGID_3_"/>
			</clipPath>
			<path fill="#DCDDDF" d="m389.2 404.15s2.482-9.895 19.02-10.723c16.539-0.827 23.314 3.654 23.314 3.654l4.779 13.854-11.002 8.404-24.564 4.562-10.445-3.195-3.721-9.085 2.62-7.47z" clip-path="url(#SVGID_4_)"/>
			<defs>
				<path id="SVGID_5_" d="m380.7 430.94l5.934-5.721s6.145-5.722 2.543-19.495c-3.604-13.773 18.435-18.286 18.435-18.286s21.402-6.776 27.77 20.132c6.854 28.967-29.254 53.035-54.471 45.194 0 0-15.49-4.555-16.551-9.294-1.059-4.738-1.051-0.229-1.051-0.229l17.4-12.29z"/>
			</defs>
			<clipPath id="SVGID_6_">
				<use overflow="visible" xlink:href="#SVGID_5_"/>
			</clipPath>
			<path fill="#EDC047" d="m363.29 448.01c0-1.103-1.379-8.271 0-7.995s25.912-2.41 25.912-2.41l3.859-12.474 3.508-2.147 13.23 1.378 14.686-5.02 9.924-6.341h4.688l-2.508 19.543-13.76 17.11-32.53 8.27-22.326-5.239-4.68-4.68z" clip-path="url(#SVGID_6_)"/>
			<defs>
				<path id="SVGID_7_" d="m380.7 430.94l5.934-5.721s6.145-5.722 2.543-19.495c-3.604-13.773 18.435-18.286 18.435-18.286s21.402-6.776 27.77 20.132c6.854 28.967-29.254 53.035-54.471 45.194 0 0-15.49-4.555-16.551-9.294-1.059-4.738-1.051-0.229-1.051-0.229l17.4-12.29z"/>
			</defs>
			<clipPath id="SVGID_8_">
				<use overflow="visible" xlink:href="#SVGID_7_"/>
			</clipPath>
			<polygon fill="#426E8D" points="398.57 421.82 393.89 427.06 382.03 423.9 386.17 415.2" clip-path="url(#SVGID_8_)"/>
			<defs>
				<path id="SVGID_9_" d="m380.7 430.94l5.934-5.721s6.145-5.722 2.543-19.495c-3.604-13.773 18.435-18.286 18.435-18.286s21.402-6.776 27.77 20.132c6.854 28.967-29.254 53.035-54.471 45.194 0 0-15.49-4.555-16.551-9.294-1.059-4.738-1.051-0.229-1.051-0.229l17.4-12.29z"/>
			</defs>
			<clipPath id="SVGID_10_">
				<use overflow="visible" xlink:href="#SVGID_9_"/>
			</clipPath>
			<path fill="#33312B" d="m389.97 417.39s7.838 4.982 16.74 4.347v-5.296l2.754-3.815 2.543 2.541s4.873 7.262 12.078 2.042c0 0 6.146-3.311 10.383-9.033l2.117 1.272-1.059 5.72s-20.219 21.277-46.83 5.299l-2.117-3.076h3.391v0.01z" clip-path="url(#SVGID_10_)"/>
			<defs>
				<path id="SVGID_11_" d="m380.7 430.94l5.934-5.721s6.145-5.722 2.543-19.495c-3.604-13.773 18.435-18.286 18.435-18.286s21.402-6.776 27.77 20.132c6.854 28.967-29.254 53.035-54.471 45.194 0 0-15.49-4.555-16.551-9.294-1.059-4.738-1.051-0.229-1.051-0.229l17.4-12.29z"/>
			</defs>
			<clipPath id="SVGID_12_">
				<use overflow="visible" xlink:href="#SVGID_11_"/>
			</clipPath>
			<path fill="#343330" d="m415.86 399.53s0.021-4.411 15.998-1.517l7.158 4.55h-5.119s-13.9-2.75-18.04-3.03z" clip-path="url(#SVGID_12_)"/>
			<defs>
				<path id="SVGID_13_" d="m380.7 430.94l5.934-5.721s6.145-5.722 2.543-19.495c-3.604-13.773 18.435-18.286 18.435-18.286s21.402-6.776 27.77 20.132c6.854 28.967-29.254 53.035-54.471 45.194 0 0-15.49-4.555-16.551-9.294-1.059-4.738-1.051-0.229-1.051-0.229l17.4-12.29z"/>
			</defs>
			<clipPath id="SVGID_14_">
				<use overflow="visible" xlink:href="#SVGID_13_"/>
			</clipPath>
			<path fill="#343330" d="m388.3 412.01h1.945s6.324-5.311 7.701-5.588c1.379-0.275 2.453-1.378 2.453-1.378l-2.453-1.131s-9.373 0.855-11.025 5.266" clip-path="url(#SVGID_14_)"/>
		<path d="m365.72 445.73l-6.924 3.274s-4.406 3.525-6.17 0.503c-1.762-3.022 3.148-3.777 3.148-3.777l5.414-2.265s-11.334 3.649-12.971 0c-1.635-3.652 10.955-3.023 10.955-3.023s-9.065-0.881-10.072-4.28c-1.008-3.399 9.57 0.504 9.57 0.504s-5.541-4.156-2.771-5.667c2.771-1.511 11.963 6.286 11.963 6.286s6.432-4.649 7.375-6.474c1.078-2.091 4.09-3.75 6.059-4.762 3.221-1.658 7.557-2.684 10.797-0.514 1.807 1.209 3.119 3.6 3.813 5.597 1.115 3.215-1.242 7.293-2.928 9.958-1.736 2.74-4.213 4.808-7.264 5.935-3.137 1.158-7.228 1.219-10.477 0.468 0 0-7.627-1.763-9.77-5.413 0-0.02-1.01 0.11 0.25 3.63z" fill="#668F9E"/>
				<defs>
					<path id="SVGID_15_" d="m365.72 445.73l-6.924 3.274s-4.406 3.525-6.17 0.503c-1.762-3.022 3.148-3.777 3.148-3.777l5.414-2.265s-11.334 3.649-12.971 0c-1.635-3.652 10.955-3.023 10.955-3.023s-9.065-0.881-10.072-4.28c-1.008-3.399 9.57 0.504 9.57 0.504s-5.541-4.156-2.771-5.667c2.771-1.511 11.963 6.286 11.963 6.286s6.432-4.649 7.375-6.474c1.078-2.091 4.09-3.75 6.059-4.762 3.221-1.658 7.557-2.684 10.797-0.514 1.807 1.209 3.119 3.6 3.813 5.597 1.115 3.215-1.242 7.293-2.928 9.958-1.736 2.74-4.213 4.808-7.264 5.935-3.137 1.158-7.228 1.219-10.477 0.468 0 0-7.627-1.763-9.77-5.413 0-0.02-1.01 0.11 0.25 3.63z"/>
				</defs>
				<clipPath id="SVGID_16_">
					<use overflow="visible" xlink:href="#SVGID_15_"/>
				</clipPath>
				<g fill="#457497" clip-path="url(#SVGID_16_)">
					<polygon points="351.38 441.3 357.42 448.36 365.23 444.08 366.61 444.83 365.48 446.22 352.63 451.59 346.46 442.41"/>
						<path d="m379.14 437.34c-1.557 4.928-8.533 6.48-13.076 5.937-0.57-0.069-1.221 0.747-0.416 0.842 5.025 0.605 12.897-1.173 14.625-6.654 0.22-0.65-0.97-0.62-1.12-0.13z"/>
						<path d="m376.22 435.83c-2.684 0.778-5.131 3.342-8 3.235-0.461-0.017-1.262 0.664-0.457 0.693 3.266 0.121 5.642-2.449 8.621-3.311 0.72-0.19 0.56-0.81-0.16-0.61z"/>
				</g>
		<ellipse rx="3.489" ry="2.804" transform="matrix(-.2069 -.9784 .9784 -.2069 87.021 879.83)" cy="404.65" cx="400.13" fill="#50423C"/>
		<ellipse rx="3.8" ry="3.383" transform="matrix(-.207 -.9783 .9783 -.207 106.33 888.86)" cy="401.34" cx="413.4" fill="#50423C"/>
	<circle cy="403.64" cx="400.65" r="1.058" fill="#fff"/>
	<ellipse cy="410.75" cx="397.27" rx="3.89" ry="2.449" fill="#D1591C"/>
		<ellipse rx="2.449" ry="3.89" transform="matrix(-.3906 -.9206 .9206 -.3906 210.75 949.87)" cy="405.17" cx="419.78" fill="#D1591C"/>
<circle cy="399.91" cx="414.28" r="1.058" fill="#fff"/>
	<path d="m406.58 409.66c2.445-1.088 5.588-0.54 6.805 2.061 1.006 2.15-0.684 3.713-2.611 4.496-2.584 1.053-5.363 0.444-8.049 0.508-0.793 0.021 1.422-5.016 1.615-5.282 0.58-0.79 1.36-1.39 2.24-1.79z" fill="#93908A"/>
			<defs>
				<path id="SVGID_17_" d="m406.58 409.66c2.445-1.088 5.588-0.54 6.805 2.061 1.006 2.15-0.684 3.713-2.611 4.496-2.584 1.053-10.732 0.573-8.049 0.508 0.432-0.009-2.5 0.375 1.615-5.282 0.58-0.79 1.36-1.39 2.24-1.79z"/>
			</defs>
			<clipPath id="SVGID_18_">
				<use overflow="visible" xlink:href="#SVGID_17_"/>
			</clipPath>
			<path fill="#34322D" d="m413.38 411.72s-1.82 3.277-10.945 4.898l-0.328 1.796 6.074-0.375 6.498-2.279-1.3-4.04z" clip-path="url(#SVGID_18_)"/>
<polygon points="406.74 416.33 406.74 417.72 412.46 417.45 412.46 415.75 411.5 414.75" fill="#31312C"/>
<g fill="#424243">
	<path d="m395.84 453.44c2.045 3.077 3.17 6.007 2.646 9.752-0.426 3.048-2.178 5.69-2.475 8.802-0.016 0.168 1.156 0.044 1.189-0.32 0.322-3.382 2.127-6.302 2.594-9.652 0.459-3.289-1.004-6.246-2.766-8.898-0.21-0.3-1.29 0.17-1.19 0.32z"/>
	<path d="m397.78 466.34c1.393 1.795 2.484 3.946 2.391 6.272-0.02 0.449 1.168 0.192 1.182-0.165 0.102-2.451-0.992-4.659-2.465-6.557-0.22-0.29-1.36 0.12-1.1 0.46z"/>
	<path d="m397.6 465.27c2.742 1.334 5.381 3.627 6.037 6.726 0.049 0.234 1.244-0.055 1.188-0.32-0.66-3.12-3.342-5.459-6.1-6.8-0.31-0.16-1.24 0.33-1.13 0.39z"/>
	<path d="m402.47 452.84c2.697 4.816 4.225 9.407 1.02 14.425-0.217 0.341 0.285 0.469 0.508 0.469 2.357-0.001 1.9 4.233 1.885 5.706-0.004 0.601 1.197 0.401 1.201-0.103 0.025-2.422 0.359-6.432-2.969-6.428 0.168 0.155 0.338 0.311 0.508 0.467 3.313-5.188 1.758-10.015-1.061-15.049-0.24-0.43-1.38-0.01-1.09 0.51z"/>
	<path d="m404.22 467.34c2.699 0.534 5.213 2.485 5.305 5.422 0.016 0.563 1.209 0.331 1.195-0.122-0.101-3.239-2.773-5.42-5.791-6.02-0.44-0.09-1.41 0.58-0.71 0.72z"/>
</g>
		<path d="m502.46 387.07c-2.32-1.349-4.633-2.71-6.957-4.05-0.77-0.443-1.588-0.814-2.283-1.371-0.738-0.592-1.191-1.401-1.783-2.125-1.658-2.022-3.033-4.463-4.234-6.773-0.959-1.844-1.531-4.058-2.645-5.795-0.002-0.004-7.301-11.39-11.109-10.056-3.814 1.333-2.285 15.13 12.596 27.368 0 0-9.25-3.552-12.664-7.43 0 0-5.453-6.788-5.25 1.95s19.785 14.158 19.785 14.158 1.147 1.018-0.918 1.689-13.146-6.213-12.668-2.542c0.48 3.67 10.498 7.11 15.295 7.707 0 0 3.07 0.713 1.355 1.498 0 0-6.283-1.387-6.141 1.606 0.143 2.992 15.244 6.28 15.244 6.28l4.193-1.096-1.81-21.03z" fill="#A76527"/>
			<defs>
				<path id="SVGID_19_" d="m502.46 387.07l-9.248-5.376s-4.586-4.693-8.652-14.738c0 0-7.301-11.39-11.111-10.056-3.814 1.333-2.285 15.13 12.596 27.367 0 0-9.25-3.551-12.662-7.429 0 0-5.455-6.788-5.252 1.95 0.205 8.738 19.785 14.158 19.785 14.158s1.147 1.018-0.918 1.689-13.146-6.213-12.666-2.542c0.478 3.67 10.496 7.11 15.293 7.707 0 0 3.07 0.713 1.355 1.498 0 0-6.283-1.387-6.141 1.606 0.144 2.991 15.244 6.28 15.244 6.28l4.193-1.096-1.81-21.02z"/>
			</defs>
			<clipPath id="SVGID_20_">
				<use overflow="visible" xlink:href="#SVGID_19_"/>
			</clipPath>
			<path fill="none" d="m502.46 387.07l-9.248-5.376s-4.586-4.693-8.652-14.738c0 0-7.301-11.39-11.111-10.056-3.814 1.333-2.285 15.13 12.596 27.367 0 0-9.25-3.551-12.662-7.429 0 0-5.455-6.788-5.252 1.95 0.205 8.738 19.785 14.158 19.785 14.158s1.147 1.018-0.918 1.689-13.146-6.213-12.666-2.542c0.478 3.67 10.496 7.11 15.293 7.707 0 0 3.07 0.713 1.355 1.498 0 0-6.283-1.387-6.141 1.606 0.144 2.991 15.244 6.28 15.244 6.28l4.193-1.096-1.81-21.02z" clip-path="url(#SVGID_20_)"/>
			<g clip-path="url(#SVGID_20_)">
				<g fill="#83521A">
					<path d="m471.27 356.7c-1.258 7.452 1.647 15.979 6.045 21.955 0.445 0.603 2.67-0.895 2.324-1.364-4.359-5.916-7.252-14.317-6.008-21.688 0.09-0.52-2.23 0.32-2.36 1.09z"/>
					<path d="m467.86 371.36c-3.32 4.175 0.309 11.988 2.047 16.3 0.471 1.165 2.815-0.149 2.324-1.362-0.887-2.202-1.691-4.431-2.31-6.727-0.565-2.088-1.555-5.618-0.09-7.458 1.11-1.4-1.17-1.75-1.97-0.75z"/>
					<path d="m472.72 390.46c0.668 2.681 1.09 5.113 3.564 6.597 0.52 0.311 2.541-0.772 2.219-1.46-0.75-1.599-1.557-3.143-2.068-4.844-0.176-0.594-2.48 0.564-2.322 1.362 0.951 4.816 5.336 7.405 9.754 7.588 0.672 0.026 7.248 0.307 6.355 0.269-4.252-0.177-12.881-4.64-13.787-9.219-0.775 0.454-1.549 0.908-2.322 1.362 0.508 1.702 1.316 3.246 2.066 4.846 0.738-0.486 1.479-0.972 2.217-1.457-2.381-1.428-2.721-3.867-3.353-6.407-0.14-0.54-2.54 0.52-2.33 1.36z"/>
					<path d="m483.37 401.82c1.164 3.103 5.162 5.972 8.211 6.529 0.754 0.137 2.783-1.524 1.707-1.721-2.838-0.518-6.525-3.318-7.592-6.171-0.28-0.75-2.66 0.48-2.33 1.36z"/>
				</g>
			</g>
		<path d="m519.31 388.31c3.24-2.456 6.469-4.929 9.721-7.377 1.074-0.81 2.266-1.543 3.174-2.475 0.963-0.99 1.369-2.167 2.041-3.278 1.875-3.107 3.115-6.658 4.125-9.99 0.807-2.658 0.823-5.667 1.925-8.238 0.002-0.003 7.234-16.854 14.036-16.36 6.805 0.494 10.034 18.593-9.275 38.938 0 0 13.688-7.469 17.672-13.503 0 0 6.121-10.395 9.417 0.828 3.299 11.218-26.548 24.348-26.548 24.348s-1.458 1.665 2.206 1.867 18.97-12.102 19.71-7.264c0.739 4.838-14.252 12.407-21.872 14.691 0 0-4.735 1.881-1.598 2.34 0 0 9.725-3.761 10.734 0.105 1.012 3.866-22.381 12.852-22.381 12.852l-7.33-0.071-5.74-27.43z" fill="#A76527"/>
			<defs>
				<path id="SVGID_21_" d="m519.31 388.31l12.928-9.795s5.57-7.447 8.061-21.562c0 0 7.234-16.855 14.037-16.362 6.805 0.494 10.032 18.593-9.278 38.938 0 0 13.69-7.469 17.674-13.502 0 0 6.122-10.396 9.419 0.827 3.296 11.218-26.548 24.348-26.548 24.348s-1.458 1.665 2.205 1.867 18.971-12.102 19.708-7.264c0.741 4.838-14.25 12.407-21.87 14.691 0 0-4.735 1.881-1.598 2.34 0 0 9.725-3.761 10.734 0.105 1.01 3.866-22.381 12.852-22.381 12.852l-7.33-0.071-5.75-27.43z"/>
			</defs>
			<clipPath id="SVGID_22_">
				<use overflow="visible" xlink:href="#SVGID_21_"/>
			</clipPath>
			<path fill="none" d="m519.31 388.31l12.928-9.795s5.57-7.447 8.061-21.562c0 0 7.234-16.855 14.037-16.362 6.805 0.494 10.032 18.593-9.278 38.938 0 0 13.69-7.469 17.674-13.502 0 0 6.122-10.396 9.419 0.827 3.296 11.218-26.548 24.348-26.548 24.348s-1.458 1.665 2.205 1.867 18.971-12.102 19.708-7.264c0.741 4.838-14.25 12.407-21.87 14.691 0 0-4.735 1.881-1.598 2.34 0 0 9.725-3.761 10.734 0.105 1.01 3.866-22.381 12.852-22.381 12.852l-7.33-0.071-5.75-27.43z" clip-path="url(#SVGID_22_)"/>
			<g clip-path="url(#SVGID_22_)">
				<g fill="#83521A">
					<path d="m557.82 339.65c5.161 9.115 3.943 20.923-0.785 29.947-0.479 0.911-4.748-0.295-4.377-1.003 4.686-8.938 5.939-20.582 0.835-29.597-0.36-0.63 3.78-0.3 4.32 0.65z"/>
					<path d="m569.5 357.28c7.177 4.277 4.475 15.405 3.417 21.462-0.286 1.634-4.674 0.699-4.375-1.005 0.539-3.093 0.932-6.193 0.994-9.32 0.059-2.846 0.211-7.665-2.952-9.55-2.41-1.44 1.19-2.62 2.92-1.59z"/>
					<path d="m569.47 383.21c0.019 3.636 0.338 6.875-3.104 9.555-0.723 0.56-4.484-0.181-4.241-1.161 0.566-2.279 1.247-4.506 1.376-6.841 0.043-0.813 4.301-0.065 4.375 1.003 0.442 6.45-5.671 11.147-12.837 12.78-1.093 0.249-11.756 2.689-10.31 2.359 6.898-1.574 19.192-10.009 18.771-16.143 1.459 0.334 2.916 0.669 4.375 1.003-0.127 2.336-0.809 4.563-1.375 6.843-1.413-0.387-2.826-0.773-4.239-1.159 3.314-2.578 2.852-5.798 2.835-9.242-0.01-0.72 4.37-0.13 4.37 1.01z"/>
					<path d="m556.73 401.08c-0.616 4.331-5.979 9.261-10.746 10.938-1.179 0.414-5.197-1.063-3.512-1.656 4.439-1.562 9.316-6.305 9.88-10.286 0.15-1.02 4.55-0.21 4.38 1.01z"/>
				</g>
			</g>
	<path d="m524.91 424.44l4.07 3.41s11.03 8.961 8.301 12.055c0 0-1.566 1.819-5.969-3.638 0 0 4.924 8.368 2.535 10.188-2.387 1.818-6.209-9.461-6.209-9.461s0.547 11.46-2.729 11.46-1.09-12.006-1.09-12.006-1.457 9.097-5.643 7.641c-4.18-1.45 6.74-19.64 6.74-19.64" fill="#A76527"/>
		<path d="m516.36 356.12s14.637-1.541 19.771 11.298c5.136 12.84 4.109 45.655 1.797 49.02 0 0-2.31 10.555-13.096 12.865-10.785 2.311-19.516-16.948-19.516-16.948s-22.07-54.95 11.05-56.23z" fill="#C4B0B7"/>
			<defs>
				<path id="SVGID_23_" d="m516.36 356.12s14.637-1.541 19.771 11.298c5.136 12.84 4.109 45.655 1.797 49.02 0 0-2.31 10.555-13.096 12.865-10.785 2.311-19.516-16.948-19.516-16.948s-22.07-54.95 11.05-56.23z"/>
			</defs>
			<clipPath id="SVGID_24_">
				<use overflow="visible" xlink:href="#SVGID_23_"/>
			</clipPath>
			<path fill="#85511A" d="m539.08 414.83s-1.285-37.752-5.906-36.723l-41.893-7.425 21.092-19.021 25.68 4.877 5.906 55.209-4.88 3.08z" clip-path="url(#SVGID_24_)"/>
	<g fill="#D26145">
		<path d="m521.63 363.46s6.076-1.057 6.736 4.623c0.25 2.157 1.322 4.125 3.119 5.375 1.281 0.887 2.727 0.665 2.273 2.539-0.33 1.364-1.387 2.963-2.096 4.188-2.5 4.326-5.518 8.186-9.699 11.006-2.061 1.387-4.475 2.474-6.691 3.596-2.668 1.351-3.256 1.84-5.934 0.313-1.65-0.942-3.246-1.501-4.59-2.934-1.772-1.889-3.117-4.33-4.291-6.617-0.93-1.807-1.678-3.691-2.246-5.643-0.586-2.023-2.326-4.752-1.547-6.898 0.77-2.113 3.965-3.292 3.965-5.85 0-1.849 7.793-7.924 10.434-0.396 0 0 1.85 2.111 4.424 0 0.02-0.01 0.88-3.17 6.16-3.31z"/>
		<path d="m521.63 363.46s6.076-1.057 6.736 4.623c0.25 2.157 1.322 4.125 3.119 5.375 1.281 0.887 2.727 0.665 2.273 2.539-0.33 1.364-1.387 2.963-2.096 4.188-2.5 4.326-5.518 8.186-9.699 11.006-2.061 1.387-4.475 2.474-6.691 3.596-2.668 1.351-3.256 1.84-5.934 0.313-1.65-0.942-3.246-1.501-4.59-2.934-1.772-1.889-3.117-4.33-4.291-6.617-0.93-1.807-1.678-3.691-2.246-5.643-0.586-2.023-2.326-4.752-1.547-6.898 0.77-2.113 3.965-3.292 3.965-5.85 0-1.849 7.793-7.924 10.434-0.396 0 0 1.85 2.111 4.424 0 0.02-0.01 0.88-3.17 6.16-3.31z"/>
		<path d="m521.63 363.46s6.076-1.057 6.736 4.623c0.25 2.157 1.322 4.125 3.119 5.375 1.281 0.887 2.727 0.665 2.273 2.539-0.33 1.364-1.387 2.963-2.096 4.188-2.5 4.326-5.518 8.186-9.699 11.006-2.061 1.387-4.475 2.474-6.691 3.596-2.668 1.351-3.256 1.84-5.934 0.313-1.65-0.942-3.246-1.501-4.59-2.934-1.772-1.889-3.117-4.33-4.291-6.617-0.93-1.807-1.678-3.691-2.246-5.643-0.586-2.023-2.326-4.752-1.547-6.898 0.77-2.113 3.965-3.292 3.965-5.85 0-1.849 7.793-7.924 10.434-0.396 0 0 1.85 2.111 4.424 0 0.02-0.01 0.88-3.17 6.16-3.31z"/>
		<path d="m521.63 363.46s6.076-1.057 6.736 4.623c0.25 2.157 1.322 4.125 3.119 5.375 1.281 0.887 2.727 0.665 2.273 2.539-0.33 1.364-1.387 2.963-2.096 4.188-2.5 4.326-5.518 8.186-9.699 11.006-2.061 1.387-4.475 2.474-6.691 3.596-2.668 1.351-3.256 1.84-5.934 0.313-1.65-0.942-3.246-1.501-4.59-2.934-1.772-1.889-3.117-4.33-4.291-6.617-0.93-1.807-1.678-3.691-2.246-5.643-0.586-2.023-2.326-4.752-1.547-6.898 0.77-2.113 3.965-3.292 3.965-5.85 0-1.849 7.793-7.924 10.434-0.396 0 0 1.85 2.111 4.424 0 0.02-0.01 0.88-3.17 6.16-3.31z"/>
	</g>
		<g fill="#4B4338">
			<path d="m516.47 369.24c0 2.119 1.717 3.838 3.836 3.838 2.121 0 3.838-1.719 3.838-3.838 0-0.734-0.207-1.421-0.564-2.004-0.674-1.1-1.889-1.834-3.273-1.834-2.13-0.01-3.85 1.71-3.85 3.83z"/>
			<path d="m523.58 367.24s1.463 0.499 2.361-1.342c0 0-0.252 4.83-4.174 6.893l-0.27-2.81 2.08-2.74z"/>
		</g>
		<g fill="#4B4338">
			<path d="m509.49 369.34c0 1.82-1.477 3.296-3.295 3.296-1.822 0-3.297-1.475-3.297-3.296 0-0.631 0.176-1.221 0.482-1.722 0.58-0.944 1.623-1.575 2.814-1.575 1.82 0 3.3 1.48 3.3 3.3z"/>
			<path d="m503.38 367.62s-1.254 0.429-2.027-1.151c0 0-0.447 3.775 2.92 5.549l0.897-2.041-1.79-2.36z"/>
		</g>
	<circle cy="367.95" cx="507.37" r=".884" fill="#fff"/>
	<circle cy="367.95" cx="520.89" r=".884" fill="#fff"/>
		<path d="m511.05 371.6c2.582-0.217 5.277 1.341 5.557 4.197 0.229 2.361-1.815 3.276-3.828 3.378-2.699 0.138-5.043-1.357-7.518-2.184-0.73-0.244 2.906-4.264 3.17-4.451 0.78-0.56 1.69-0.87 2.62-0.95z" fill="#93908A"/>
			<defs>
				<path id="SVGID_25_" d="m511.05 371.6c2.582-0.217 5.277 1.341 5.557 4.197 0.229 2.361-1.815 3.276-3.828 3.378-2.699 0.138-9.99-3.011-7.518-2.184 0.398 0.133-2.402-0.476 3.17-4.451 0.78-0.56 1.69-0.87 2.62-0.95z"/>
			</defs>
			<clipPath id="SVGID_26_">
				<use overflow="visible" xlink:href="#SVGID_25_"/>
			</clipPath>
			<path fill="#333331" d="m516.6 375.8s-2.717 2.49-11.572 0.998l-0.875 1.589 5.672 1.655h6.666l0.1-4.24z" clip-path="url(#SVGID_26_)"/>
	<ellipse cy="375.06" cx="525.08" rx="3.881" ry="2.688" fill="#D05920"/>
	<ellipse cy="374.7" cx="501.28" rx="3.882" ry="2.688" fill="#D05920"/>
</svg>
