<?xml version="1.0" encoding="UTF-8" standalone="no"?>
<!-- Generator: Adobe Illustrator 17.0.0, SVG Export Plug-In . SVG Version: 6.00 Build 0)  -->
<!DOCTYPE svg  PUBLIC '-//W3C//DTD SVG 1.1//EN'  'http://www.w3.org/Graphics/SVG/1.1/DTD/svg11.dtd'>
<svg id="Capa_1" xmlns="http://www.w3.org/2000/svg" xml:space="preserve" height="100px" viewBox="0 0 300 100" width="300px" version="1.1" y="0px" x="0px" xmlns:xlink="http://www.w3.org/1999/xlink" enable-background="new 0 0 300 100">
		<g stroke-linejoin="round" stroke="#fff" stroke-linecap="round" fill="none">
			<polyline points="51.438 8.854 51.734 8.682 51.27 9.961 53.493 8.677 51.08 11.218 55.49 8.672 50.874 12.578 57.652 8.665 50.735 13.496 57.663 9.496 50.607 14.341 57.538 10.34 50.409 15.648 57.345 11.643 50.284 16.475 57.223 12.468 50.12 17.562 57.063 13.553 50.006 18.313 56.952 14.303 49.886 19.105 56.835 15.093 49.695 20.367 56.649 16.352 49.542 21.376 56.5 17.359 49.43 22.114 56.391 18.095 49.292 23.027 56.257 19.006 49.1 24.296 56.07 20.272 48.965 25.187 55.938 21.161 48.828 26.092 55.804 22.063 48.636 27.359 55.617 23.328 48.496 28.289 55.481 24.256 48.36 29.182 55.349 25.147 48.202 30.226 55.194 26.19 48.006 31.52 55.004 27.48 47.819 32.756 54.821 28.714 47.672 33.726 54.679 29.682 47.501 34.857 54.512 30.809 47.383 35.637 54.397 31.588 47.193 36.895 54.211 32.843 47.087 37.594 54.108 33.54 46.885 38.93 53.911 34.873 46.706 40.109 53.737 36.05"/>
			<polyline points="38.435 29.615 44.404 26.169 38.559 30.422 44.526 26.977 38.715 31.435 44.68 27.991 38.873 32.463 44.836 29.019 39.018 33.407 44.98 29.965 39.169 34.395 45.13 30.954 39.323 35.399 45.282 31.959 39.497 36.532 45.455 33.093 39.619 37.321 45.575 33.882 39.76 38.244 45.715 34.806 39.867 38.935 45.82 35.497 40.033 40.018 45.985 36.581 40.127 40.636 46.079 37.201 40.25 41.437 46.2 38.001 40.368 42.206 46.317 38.772 40.492 43.008 46.439 39.575 40.656 44.079 53.66 36.572 40.831 45.216 53.459 37.925 40.927 45.843 53.35 38.671 41.047 46.623 53.212 39.598 41.183 47.514 53.055 40.66 41.283 48.162 52.942 41.431 41.458 49.301 52.741 42.786 41.554 49.927 52.631 43.532 41.721 51.013 52.44 44.825 41.892 52.133 52.243 46.157 42.059 53.217 52.052 47.447 42.187 54.053 51.905 48.442 42.304 54.814 51.771 49.349 42.416 55.542 51.643 50.215 42.521 56.228 51.522 51.032 42.681 57.268 51.339 52.269 42.817 58.155 51.183 53.324 42.969 59.144 51.009 54.502 43.114 60.086 50.843 55.624 43.255 61.007 50.681 56.719 44.42 61.499 50.493 57.993 45.85 61.496 50.36 58.892 47.415 61.493 50.214 59.877 49.488 61.488 50.021 61.181"/>
			<polyline points="35.076 8.854 35.372 8.682 34.952 9.671 36.669 8.68 34.777 10.832 38.51 8.676 34.611 11.923 40.242 8.673 34.409 13.26 41.797 8.995 34.284 14.088 41.902 9.69 34.119 15.178 42.041 10.604 33.938 16.372 42.193 11.606 33.817 17.167 42.294 12.272 33.701 17.936 42.392 12.918 33.572 18.793 42.501 13.637 33.372 20.113 42.669 14.745 33.198 21.261 42.816 15.709 33.02 22.434 42.965 16.692 32.881 23.356 43.082 17.466 32.68 24.684 43.252 18.58 32.531 25.666 43.377 19.404 32.36 26.792 43.52 20.349 32.223 27.7 43.636 21.111 32.082 28.631 43.755 21.892 31.895 29.865 43.911 22.927 31.716 31.049 44.062 23.921 31.604 31.789 44.157 24.541 31.462 32.729 44.276 25.331 31.319 33.669 38.367 29.6 31.189 34.528 38.238 30.458 31.019 35.651 38.068 31.581 30.907 36.388 37.956 32.318 30.738 37.506 37.788 33.435 30.574 38.588 37.624 34.518 30.402 39.729 37.452 35.659 30.293 40.447 37.344 36.376"/>
			<polyline points="19.103 8.826 19.352 8.682 19.271 9.965 21.501 8.678 19.411 10.901 23.267 8.674 19.53 11.705 24.785 8.67 19.637 12.432 25.447 9.077 19.781 13.407 25.594 10.051 19.904 14.232 25.72 10.875 20.033 15.104 25.852 11.745 20.198 16.222 26.021 12.86 20.338 17.163 26.164 13.8 20.449 17.911 26.277 14.546 20.617 19.046 26.449 15.678 20.726 19.783 26.561 16.415 20.814 20.378 26.651 17.008 20.929 21.157 26.769 17.786 21.056 22.011 26.898 18.638 21.141 22.588 26.986 19.214 21.253 23.342 27.1 19.966 21.386 24.241 27.236 20.864 21.502 25.024 27.355 21.645 21.592 25.631 27.447 22.251 21.706 26.399 27.563 23.017 21.806 27.074 27.666 23.691 21.947 28.028 27.81 24.642 22.104 29.091 27.971 25.705 22.237 29.986 28.107 26.597 22.356 30.788 28.228 27.397 22.5 31.761 28.375 28.369 22.665 32.877 28.545 29.482 22.826 33.968 28.71 30.571 22.924 34.623 28.809 31.226 23.05 35.472 28.938 32.072 23.202 36.504 29.094 33.102 23.342 37.447 29.237 34.043 23.449 38.168 29.346 34.763 23.542 38.8 29.442 35.393 23.7 39.862 29.603 36.454 23.79 40.474 29.696 37.065 23.888 41.135 29.796 37.725 24.025 42.06 29.936 38.647 24.148 42.89 30.062 39.476 24.249 43.569 30.165 40.154 24.354 44.281 37.276 36.82 24.473 45.082 37.132 37.773 24.631 46.149 36.941 39.041 24.74 46.888 36.808 39.921 24.831 47.503 36.697 40.651 24.969 48.43 36.531 41.755 25.056 49.021 36.425 42.457 25.196 49.965 36.255 43.58 25.331 50.881 36.091 44.669 25.476 51.86 35.915 45.833 25.578 52.547 35.791 46.65 25.669 53.163 35.68 47.383 25.792 53.991 35.532 48.368 25.918 54.844 35.379 49.383 26.008 55.452 35.269 50.105 26.155 56.44 35.092 51.28 26.293 57.371 34.925 52.387 26.456 58.475 34.726 53.701 26.594 59.402 34.559 54.803 26.747 60.437 34.374 56.033 26.88 61.34 34.211 57.108 27.735 61.5 34.104 57.823 29.239 61.497 33.96 58.771 30.958 61.493 33.796 59.854 33.056 61.489 33.597 61.176"/>
			<polyline points="63.171 42.92 63.441 42.765 63.173 43.93 65.199 42.76 63.175 45.075 67.194 42.755 63.177 46.316 69.355 42.749 63.179 47.152 69.492 43.507 63.181 47.923 69.492 44.279 63.183 49.114 69.492 45.471 63.184 49.868 69.492 46.226 63.187 50.859 69.492 47.218 63.235 51.516 69.492 47.904 63.295 52.204 69.492 48.626 63.472 53.253 69.492 49.778 63.685 54.051 69.492 50.699 63.865 54.622 69.541 51.344 64.166 55.28 69.64 52.12 64.608 56.184 70.018 53.06 65.002 56.769 70.414 53.645 65.401 57.364 70.889 54.196 66.08 58.129 71.741 54.861 66.592 58.682 72.501 55.271 67.173 59.161 73.418 55.556 67.867 59.714 74.874 55.669 68.862 60.321 85.983 50.436 69.9 60.849 85.924 51.598 70.807 61.21 85.836 52.534 72.015 61.545 85.583 53.711 72.905 61.743 85.335 54.566 74.672 61.871 84.609 56.134 75.967 61.762 83.951 57.152 79.098 60.955 81.923 59.324"/>
			<polyline points="68.798 31.797 69.067 31.642 68.8 32.674 70.587 31.642 68.802 33.775 72.503 31.639 68.806 34.893 74.588 31.554 68.808 35.92 77.318 31.007 68.811 36.993 85.983 27.078 69.365 37.766 85.973 28.178 71.521 37.755 85.868 29.471 73.027 37.744 85.648 30.457 74.571 37.858 85.013 31.829 75.574 38.031 84.034 33.146 76.917 38.434 82.824 35.024 77.54 38.747 83.233 35.461 78.234 39.218 83.761 36.027 78.78 39.741 84.163 36.633 79.226 40.357 84.582 37.265 79.592 41.312 85.028 38.173 79.733 42.468 85.443 39.171 79.743 43.144 85.593 39.766 79.743 43.993 85.779 40.508 79.743 44.964 85.892 41.413 79.743 45.67 85.946 42.088 79.743 46.908 85.983 43.305 79.743 47.59 85.983 43.987 79.743 48.773 85.983 45.17 79.743 49.992 85.983 46.389 79.71 51.19 85.983 47.568 79.568 52.182 85.983 48.479 79.085 53.29 85.983 49.308"/>
			<polyline points="72.865 15.183 80.918 10.534 74.702 14.868 81.511 10.937 76.144 15.095 82.28 11.553 77.166 15.501 82.928 12.174 78.133 16.162 83.66 12.971 78.632 16.63 84.036 13.51 79.127 17.339 84.512 14.23 79.503 18.212 84.942 15.071 79.651 18.851 85.201 15.647 79.732 19.507 85.426 16.219 79.743 20.282 85.603 16.899 79.743 21.487 85.845 17.964 79.743 22.536 85.93 18.963 79.743 23.605 85.983 20.002 79.743 24.447 85.983 20.844 79.743 25.658 85.983 22.055 79.743 26.555 85.983 22.952 79.743 27.583 85.983 23.98 79.676 28.45 85.983 24.808 79.327 29.501 85.983 25.658"/>
			<polyline points="67.311 11.288 70.368 9.523 64.927 13.9 73.862 8.742 64.119 15.383 75.594 8.757 63.686 16.506 76.831 8.917 63.437 17.438 77.807 9.142 63.274 18.591 78.95 9.541 63.192 19.535 79.852 9.916 63.187 20.484 80.67 10.39 63.187 21.698 69.908 17.817 63.187 22.719 69.575 19.031 63.187 23.53 69.493 19.889 63.187 24.763 69.495 21.12 63.187 25.563 69.497 21.92 63.187 26.208 69.498 22.564 63.187 27.055 69.499 23.41 63.373 27.874 69.501 24.336 64.462 27.871 69.503 24.961 65.887 27.867 69.504 25.779 67.584 27.863 69.506 26.754 69.062 27.859 69.508 27.602"/>
			<polyline points="98.591 14.729 107.58 9.54 99.891 14.725 108.35 9.842 101.74 14.719 109.27 10.368 103.45 14.726 110.09 10.893 105.04 15.027 110.98 11.596 105.79 15.349 111.47 12.07 106.6 15.875 112.08 12.715 107.31 16.559 112.65 13.473 107.68 17.071 113 13.994 107.95 17.614 113.32 14.514 108.2 18.249 113.6 15.131 108.34 19.374 114.01 16.103 108.34 20.422 114.25 17.011 108.34 21.491 114.44 17.975 108.34 22.333 114.5 18.777 108.34 23.545 114.55 19.96 108.34 24.441 114.55 20.856 108.34 25.469 114.55 21.885 108.34 26.297 114.55 22.713 108.34 27.147 114.55 23.562 108.34 28.273 114.55 24.688 108.34 29.354 114.55 25.769 108.34 30.028 114.55 26.444 108.34 30.887 114.55 27.303 108.34 31.745 114.55 28.16 108.34 32.528 114.55 28.944 108.34 33.553 114.55 29.969 108.34 34.225 114.55 30.641 108.34 35.245 114.55 31.661 108.34 36.234 114.55 32.65 108.34 37.274 114.55 33.69 108.34 37.99 114.55 34.406 108.34 38.721 114.55 35.137 108.34 39.771 114.55 36.187 108.34 40.987 114.55 37.403 108.34 41.831 114.55 38.246 108.34 42.679 114.55 39.094 108.34 43.734 114.55 40.149 108.34 44.854 114.55 41.27 108.34 45.952 114.55 42.367 108.34 46.64 114.55 43.056 108.34 47.405 114.55 43.82 108.34 48.361 114.55 44.776 108.34 49.014 114.55 45.43 108.34 50.049 114.55 46.464 108.31 51.045 114.55 47.443 108.02 52.395 114.55 48.62 106.89 54.061 114.55 49.636"/>
			<polyline points="92.112 8.855 92.382 8.699 92.112 10.091 94.522 8.699 92.112 11.107 96.282 8.699 92.112 11.98 97.794 8.699 92.112 12.768 99.16 8.699 92.112 13.827 100.99 8.699 92.112 14.723 102.55 8.699 92.112 15.669 104.09 8.757 92.112 16.883 105.78 8.993 92.112 17.905 107 9.312 92.112 18.716 98.256 15.169 92.112 19.948 98.257 16.4 92.112 20.748 98.258 17.2 92.112 21.394 98.258 17.845 92.112 22.24 98.259 18.692 92.112 23.167 98.26 19.618 92.112 23.794 98.261 20.244 92.112 24.612 98.261 21.062 92.112 25.588 98.262 22.038 92.112 26.437 98.263 22.886 92.112 27.097 98.263 23.546 92.112 27.93 98.264 24.378 92.112 28.663 98.264 25.111 92.112 29.698 98.265 26.146 92.112 30.853 98.266 27.3 92.112 31.823 98.266 28.27 92.112 32.694 98.268 29.14 92.112 33.751 98.268 30.197 92.112 34.962 98.269 31.407 92.112 36.146 98.27 32.591 92.112 36.858 98.271 33.302 92.112 37.779 98.271 34.223 92.112 38.899 98.272 35.342 92.112 39.922 98.273 36.365 92.112 40.705 98.274 37.148 92.112 41.391 98.275 37.833 92.112 42.544 98.275 38.986 92.112 43.209 98.276 39.651 92.112 43.927 98.276 40.368 92.112 44.93 98.277 41.37 92.112 45.831 98.278 42.272 92.112 46.569 98.278 43.009 92.112 47.341 98.279 43.781 92.112 48.211 98.28 44.65 92.112 49.368 98.281 45.807 92.112 50.171 98.282 46.609 92.112 50.838 98.282 47.276 92.112 51.845 98.283 48.282 92.112 52.486 98.283 48.923 92.112 53.511 98.284 49.948 92.112 54.505 98.285 50.941 92.112 55.568 98.285 52.003 92.112 56.313 98.286 52.749 92.112 56.983 98.287 53.418 92.112 57.881 98.288 54.316 92.112 58.808 98.288 55.242 92.112 59.467 99.057 55.457 92.112 60.539 100.91 55.457 92.192 61.504 102.67 55.457 94.28 61.498 114.55 49.793 96.031 61.493 114.55 50.799 97.986 61.487 114.44 51.986 99.693 61.482 114.29 53.055 100.83 61.479 114.05 53.844 102.34 61.474 113.66 54.934 104.18 61.4 112.92 56.354 107.66 60.597 110.58 58.907"/>
			<polyline points="139.85 14.729 148.84 9.54 141.15 14.725 149.61 9.842 143 14.719 150.53 10.368 144.71 14.726 151.35 10.893 146.3 15.027 152.24 11.596 147.05 15.349 152.73 12.07 147.86 15.875 153.34 12.715 148.57 16.559 153.91 13.473 148.94 17.071 154.27 13.994 149.21 17.614 154.58 14.514 149.46 18.249 154.87 15.131 149.61 19.374 155.27 16.103 149.61 20.422 155.51 17.011 149.61 21.491 155.7 17.975 149.61 22.333 155.76 18.777 149.61 23.545 155.81 19.96 149.61 24.441 155.81 20.856 149.61 25.469 155.81 21.885 149.61 26.298 155.81 22.713 149.61 27.147 155.81 23.562 149.61 28.273 155.81 24.689 149.61 29.354 155.81 25.769 149.61 30.029 155.81 26.444 149.61 30.887 155.81 27.303 149.61 31.745 155.81 28.16 149.61 32.528 155.81 28.944 149.61 33.553 155.81 29.969 149.61 34.226 155.81 30.641 149.61 35.246 155.81 31.661 149.61 36.234 155.81 32.65 149.61 37.275 155.81 33.69 149.61 37.99 155.81 34.406 149.61 38.721 155.81 35.137 149.61 39.771 155.81 36.187 149.61 40.987 155.81 37.403 149.61 41.831 155.81 38.246 149.61 42.679 155.81 39.094 149.61 43.734 155.81 40.149 149.61 44.854 155.81 41.27 149.61 45.952 155.81 42.367 149.61 46.64 155.81 43.056 149.61 47.405 155.81 43.82 149.61 48.361 155.81 44.776 149.61 49.015 155.81 45.43 149.61 50.049 155.81 46.464 149.57 51.046 155.81 47.443 149.28 52.395 155.81 48.62 148.15 54.061 155.81 49.636"/>
			<polyline points="133.37 8.855 133.64 8.7 133.37 10.091 135.78 8.699 133.37 11.107 137.54 8.699 133.37 11.98 139.06 8.699 133.37 12.769 140.42 8.699 133.37 13.827 142.26 8.699 133.37 14.723 143.81 8.699 133.37 15.669 145.35 8.757 133.37 16.883 147.04 8.993 133.37 17.905 148.26 9.312 133.37 18.716 139.52 15.169 133.37 19.948 139.52 16.4 133.37 20.748 139.52 17.2 133.37 21.394 139.52 17.845 133.37 22.24 139.52 18.692 133.37 23.167 139.52 19.618 133.37 23.794 139.52 20.244 133.37 24.612 139.52 21.062 133.37 25.588 139.52 22.038 133.37 26.437 139.52 22.886 133.37 27.097 139.52 23.546 133.37 27.93 139.52 24.378 133.37 28.663 139.53 25.111 133.37 29.698 139.53 26.146 133.37 30.853 139.53 27.3 133.37 31.823 139.53 28.27 133.37 32.694 139.53 29.14 133.37 33.751 139.53 30.197 133.37 34.962 139.53 31.407 133.37 36.146 139.53 32.591 133.37 36.858 139.53 33.302 133.37 37.779 139.53 34.223 133.37 38.899 139.53 35.342 133.37 39.922 139.53 36.365 133.37 40.705 139.54 37.148 133.37 41.391 139.54 37.833 133.37 42.544 139.54 38.986 133.37 43.209 139.54 39.651 133.37 43.927 139.54 40.368 133.37 44.93 139.54 41.37 133.37 45.831 139.54 42.272 133.37 46.569 139.54 43.009 133.37 47.341 139.54 43.781 133.37 48.211 139.54 44.65 133.37 49.368 139.54 45.807 133.37 50.171 139.54 46.61 133.37 50.838 139.54 47.276 133.37 51.845 139.54 48.282 133.37 52.486 139.54 48.923 133.37 53.511 139.55 49.948 133.37 54.505 139.55 50.941 133.37 55.568 139.55 52.003 133.37 56.313 139.55 52.749 133.37 56.983 139.55 53.418 133.37 57.881 139.55 54.316 133.37 58.808 139.55 55.242 133.37 59.467 140.32 55.457 133.37 60.539 142.18 55.457 133.45 61.504 143.93 55.457 135.54 61.498 155.81 49.793 137.29 61.493 155.81 50.799 139.25 61.487 155.7 51.987 140.95 61.482 155.55 53.055 142.09 61.479 155.31 53.844 143.6 61.474 154.92 54.934 145.44 61.4 154.18 56.355 148.92 60.597 151.85 58.908"/>
			<polyline points="168.13 38.933 178.88 32.727 169.66 38.931 180.21 32.835 171.57 38.928 180.22 33.937 173.51 38.926 180.22 35.054 175.3 38.924 180.22 36.081 177.16 38.921 180.22 37.154 179.06 38.919 180.23 38.246"/>
			<polyline points="168.13 14.875 178.88 8.669 169.42 14.874 180.17 8.668 171.26 14.872 181.96 8.696 172.99 14.87 181.96 9.691 175.11 14.867 181.96 10.909 176.42 14.866 181.97 11.663 178.15 14.864 181.97 12.657 180.04 14.861 181.97 13.745 181.3 14.86 181.97 14.469"/>
			<polyline points="161.68 8.839 161.95 8.683 161.68 10.074 164.1 8.681 161.68 11.09 165.86 8.68 161.68 11.963 167.37 8.679 161.68 12.752 168.74 8.677 161.68 13.811 170.58 8.676 161.68 14.707 172.13 8.675 161.68 15.653 173.77 8.674 161.68 16.867 175.88 8.672 161.68 17.889 177.65 8.67 161.68 18.7 167.86 15.134 161.68 19.932 167.86 16.365 161.68 20.732 167.86 17.165 161.68 21.377 167.86 17.81 161.68 22.224 167.86 18.657 161.68 23.151 167.86 19.583 161.68 23.777 167.86 20.209 161.68 24.596 167.86 21.027 161.68 25.572 167.87 22.002 161.68 26.421 167.87 22.851 161.68 27.081 167.87 23.51 161.68 27.914 167.87 24.343 161.68 28.647 167.87 25.076 161.68 29.682 167.87 26.11 161.68 30.837 167.87 27.264 161.68 31.807 167.87 28.234 161.68 32.678 167.87 29.105 161.68 33.735 167.87 30.161 161.68 34.946 167.88 31.371 161.68 36.13 167.88 32.555 161.68 36.842 168.79 32.74 161.68 37.763 170.39 32.738 161.68 38.883 172.33 32.735 161.68 39.906 174.11 32.733 161.68 40.689 175.47 32.731 161.68 41.375 176.66 32.729 161.68 42.528 167.86 38.962 161.68 43.193 167.86 39.626 161.68 43.91 167.86 40.344 161.68 44.913 167.86 41.346 161.68 45.815 167.86 42.247 161.68 46.552 167.86 42.985 161.68 47.325 167.86 43.756 161.68 48.195 167.87 44.626 161.68 49.352 167.87 45.782 161.68 50.155 167.87 46.585 161.68 50.822 167.87 47.251 161.68 51.829 167.87 48.258 161.68 52.47 167.87 48.899 161.68 53.495 167.87 49.923 161.68 54.489 167.87 50.916 161.68 55.551 167.87 51.978 161.68 56.297 167.87 52.723 161.68 56.967 167.88 53.392 161.68 57.865 167.88 54.291 161.68 58.792 167.88 55.217 161.68 59.451 168.86 55.31 161.68 60.523 170.72 55.308 161.74 61.504 172.47 55.306 163.82 61.502 174.55 55.304 165.56 61.501 176.3 55.302 167.51 61.499 178.25 55.3 169.21 61.498 179.95 55.298 170.34 61.497 181.08 55.296 171.84 61.496 181.96 55.655 173.56 61.494 181.96 56.642 175.65 61.493 181.96 57.847 176.81 61.492 181.97 58.512 178.02 61.491 181.97 59.209 179.55 61.49 181.97 60.09 181.7 61.488 181.98 61.327"/>
			<polyline points="186.5 45.572 186.77 45.416 186.51 46.448 188.3 45.412 186.51 47.55 190.22 45.407 186.51 48.666 192.17 45.402 186.52 49.693 192.7 46.126 186.54 50.755 192.7 47.201 186.63 51.797 192.7 48.294 186.83 52.916 192.7 49.527 187.02 53.663 192.7 50.386 187.32 54.496 192.8 51.328 187.58 55.094 192.98 51.977 188.06 56 193.42 52.901 188.38 56.489 193.77 53.377 188.79 57.121 194.3 53.943 189.28 57.673 194.87 54.449 189.8 58.247 195.63 54.884 190.6 58.951 196.84 55.348 191.52 59.661 198.65 55.544 192.1 60.005 200.47 55.177 192.83 60.433 210.22 50.394 193.81 60.841 210.14 51.409 194.53 61.13 210.08 52.152 196.04 61.499 209.74 53.59 196.98 61.638 209.44 54.442 198.9 61.708 208.6 56.11 201.82 61.241 206.82 58.354"/>
			<polyline points="196.51 15.185 204.72 10.446 198.36 14.864 205.36 10.823 199.86 15.054 206.12 11.44 200.94 15.427 206.83 12.029 201.98 16.046 207.55 12.833 202.5 16.504 207.99 13.335 203.08 17.165 208.46 14.058 203.57 17.971 208.96 14.86 203.81 18.558 209.21 15.438 203.95 19.181 209.46 15.998 204.04 19.907 209.69 16.644 204.04 21.111 209.96 17.694 204.04 22.159 210.12 18.655 204.04 23.229 210.2 19.675 204.04 24.071 210.22 20.504 204.15 25.223 210.23 21.713 205.71 25.218 210.23 22.608 207.5 25.214 210.23 23.634 208.94 25.21 210.24 24.461"/>
			<polyline points="190.78 11.337 193.81 9.588 188.36 13.971 197.38 8.761 187.52 15.466 199.17 8.742 187.06 16.608 200.47 8.863 186.82 17.535 201.45 9.09 186.62 18.708 202.65 9.454 186.54 19.651 203.57 9.821 186.52 20.61 204.42 10.272 186.52 21.824 193.24 17.946 186.52 22.845 192.85 19.189 186.52 23.657 192.76 20.054 186.52 24.889 192.76 21.286 186.52 25.69 192.76 22.087 186.52 26.334 192.76 22.732 186.52 27.181 192.76 23.578 186.56 28.087 192.76 24.505 186.61 28.682 192.76 25.131 186.68 29.461 192.76 25.95 186.91 30.304 192.76 26.926 187.11 31.037 192.77 27.768 187.34 31.564 192.86 28.377 187.65 32.217 193.06 29.095 187.94 32.783 193.32 29.675 188.46 33.519 193.89 30.383 189.08 34.315 194.71 31.067 189.68 34.936 195.56 31.544 190.26 35.473 196.46 31.893 191.06 36.071 197.78 32.189 192.07 36.7 199.48 32.418 193.15 37.259 201.02 32.715 193.9 37.538 201.87 32.935 194.91 37.874 202.84 33.294 196.32 38.181 203.96 33.771 197.88 38.307 204.87 34.266 199.06 38.405 205.52 34.674 199.97 38.564 206.05 35.057 201.21 39.003 206.88 35.73 201.83 39.312 207.31 36.147 202.36 39.723 207.77 36.599 203 40.358 208.3 37.295 203.45 40.996 208.77 37.926 203.71 41.582 209.07 38.491 203.88 42.256 209.37 39.089 203.98 43.07 209.66 39.791 203.98 44.228 209.95 40.782 203.98 45.03 210.09 41.505 203.98 45.698 210.15 42.138 203.98 46.704 210.22 43.102 203.98 47.346 210.22 43.743 203.98 48.371 210.22 44.768 203.98 49.365 210.22 45.762 203.98 50.427 210.22 46.824 203.89 51.226 210.22 47.57 203.69 52.008 210.22 48.239 203 53.307 210.22 49.138"/>
			<polyline points="216.14 8.839 216.41 8.682 216.14 10.074 218.56 8.677 216.14 11.09 220.33 8.672 216.14 11.963 221.85 8.668 216.14 12.752 222.32 9.186 216.14 13.811 222.32 10.245 216.14 14.707 222.32 11.141 216.14 15.653 222.32 12.087 216.14 16.867 222.32 13.3 216.14 17.889 222.32 14.322 216.14 18.7 222.32 15.133 216.14 19.932 222.32 16.365 216.14 20.732 222.32 17.165 216.14 21.377 222.32 17.81 216.14 22.224 222.32 18.657 216.14 23.151 222.32 19.583 216.14 23.777 222.32 20.209 216.14 24.596 222.32 21.028 216.14 25.572 222.32 22.004 216.14 26.421 222.32 22.852 216.14 27.081 222.32 23.512 216.14 27.914 222.32 24.345 216.14 28.647 222.32 25.078 216.14 29.682 222.32 26.113 216.14 30.837 222.32 27.268 216.14 31.807 222.32 28.238 216.14 32.678 222.32 29.109 216.14 33.735 222.32 30.166 216.14 34.946 222.32 31.376 216.14 36.13 222.32 32.56 216.14 36.842 222.32 33.272 216.14 37.763 222.32 34.193 216.14 38.883 222.32 35.312 216.14 39.906 222.32 36.336 216.14 40.689 222.32 37.118 216.14 41.375 222.32 37.804 216.14 42.528 222.32 38.956 216.14 43.193 222.32 39.622 216.14 43.91 222.32 40.339 216.14 44.913 222.32 41.342 216.14 45.815 222.32 42.244 216.14 46.552 222.33 42.981 216.14 47.325 222.33 43.753 216.14 48.195 222.33 44.622 216.14 49.352 222.33 45.78 216.14 50.155 222.33 46.582 216.14 50.822 222.33 47.249 216.14 51.829 222.33 48.256 216.14 52.47 222.33 48.897 216.14 53.495 222.33 49.922 216.14 54.489 222.33 50.915 216.14 55.551 222.33 51.978 216.14 56.297 222.33 52.723 216.14 56.967 222.33 53.393 216.14 57.865 222.33 54.291 216.14 58.792 222.33 55.218 216.14 59.451 222.33 55.876 216.14 60.523 222.33 56.948 216.19 61.504 222.33 57.959 218.28 61.498 222.33 59.158 220.03 61.494 222.33 60.164 221.98 61.488 222.33 61.287"/>
			<polyline points="241.34 32.767 241.62 32.611 241.35 33.644 243.14 32.61 241.35 34.746 245.05 32.607 241.35 35.863 247 32.605 241.36 36.89 248.78 32.602 241.36 37.963 250.65 32.6 241.91 38.738 252.55 32.598 244.06 38.733 254.13 32.914 245.55 38.729 254.13 33.773 247.3 38.725 254.13 34.778 247.94 39.105 254.13 35.53 247.94 40.282 254.13 36.708 247.94 40.955 254.13 37.382 247.94 41.826 254.13 38.253 247.95 42.663 254.13 39.091 247.95 43.536 254.13 39.964 247.95 44.701 254.13 41.131 247.95 45.938 254.13 42.369 247.95 46.619 254.13 43.05 247.95 47.468 254.13 43.899 247.95 48.437 254.13 44.869 247.96 49.143 254.13 45.575 247.96 50.381 254.13 46.814 247.96 51.062 254.13 47.496 247.8 52.335 254.13 48.679 246.56 54.269 254.13 49.898"/>
			<polyline points="239.26 15.37 248.18 10.222 241.3 14.941 248.83 10.596 243.12 14.95 249.66 11.174 244.33 15.248 250.38 11.752 245.48 15.8 251.16 12.525 246.07 16.217 251.61 13.017 246.74 16.825 252.13 13.712 247.31 17.585 252.66 14.497 247.58 18.157 252.96 15.052 247.81 18.726 253.21 15.607 247.91 19.449 253.49 16.226 247.96 20.627 253.78 17.264 247.96 21.675 253.99 18.19 247.96 22.744 254.08 19.208 247.96 23.587 254.13 20.02 247.96 24.798 254.14 21.23 247.96 25.694 254.14 22.125 247.96 26.722 254.14 23.152 248.18 27.421 254.14 23.98 249.66 27.417 254.14 24.828 251.62 27.413 254.15 25.953 253.5 27.408 254.15 27.032"/>
			<polyline points="233.46 11.626 236.58 9.823 230.81 14.387 240.48 8.807 229.97 15.891 242.43 8.697 229.55 17.006 243.76 8.799 229.26 17.961 244.81 8.982 229.14 19.088 246.1 9.3 229.07 20.025 247.02 9.665 229.07 20.97 247.94 10.08 229.07 22.184 235.66 18.38 229.07 23.206 235.35 19.582 229.07 24.017 235.31 20.413 229.07 25.249 235.31 21.645 229.07 26.05 235.31 22.446 229.07 26.695 235.32 23.091 229.07 27.541 235.31 23.938 229.07 28.468 235.31 24.865 229.07 29.094 235.31 25.491 229.07 29.913 235.31 26.309 229.07 30.889 235.32 27.285 229.07 31.738 235.32 28.135 229.07 32.398 235.31 28.794 229.07 33.231 235.32 29.627 229.07 33.964 235.32 30.36 229.07 34.999 235.32 31.395 229.07 36.154 235.32 32.55 229.07 37.125 235.32 33.521 229.07 37.995 235.32 34.391 229.07 39.052 235.32 35.448 229.07 40.263 235.32 36.659 229.07 41.447 235.32 37.843 229.07 42.159 235.32 38.555 229.07 43.08 235.32 39.477 229.07 44.2 235.32 40.596 229.07 45.223 235.32 41.619 229.07 46.006 235.32 42.403 229.07 46.691 235.32 43.088 229.07 47.845 235.32 44.241 229.07 48.51 235.32 44.906 229.07 49.228 235.32 45.624 229.07 50.23 235.32 46.627 229.07 51.132 235.32 47.528 229.13 51.837 235.32 48.266 229.21 52.565 235.32 49.038 229.35 53.352 235.32 49.908 229.66 54.33 235.32 51.066 229.92 54.98 235.4 51.82 230.2 55.487 235.54 52.404 230.62 56.253 235.94 53.181 230.97 56.693 236.31 53.61 231.53 57.395 236.99 54.24 232.15 58.03 237.79 54.771 232.86 58.68 238.81 55.249 233.42 59.106 239.61 55.53 233.95 59.466 240.46 55.71 234.68 59.948 241.76 55.86 235.54 60.373 243.52 55.769 236.16 60.676 254.13 50.299 237.3 61.093 254.12 51.376 238.43 61.45 254.03 52.445 239.97 61.757 253.76 53.799 241.49 61.89 253.33 55.049 243.5 61.849 252.43 56.694 246.11 61.326 250.77 58.632"/>
			<polyline points="278.79 8.839 279.06 8.682 278.79 9.717 280.59 8.679 278.79 10.819 282.51 8.673 278.79 11.938 284.46 8.668 278.79 12.966 284.98 9.392 278.79 14.041 284.98 10.467 278.79 15.134 284.98 11.56 278.8 16.367 284.98 12.793 278.8 17.225 284.98 13.651 278.8 18.23 284.98 14.657 278.8 18.982 284.99 15.408 278.8 20.16 284.99 16.587 278.8 20.834 284.99 17.26 278.8 21.705 284.99 18.131 278.8 22.542 284.99 18.969 278.8 23.415 284.99 19.842 278.8 24.581 284.99 21.008 278.8 25.818 284.99 22.246 278.8 26.5 284.99 22.927 278.8 27.348 284.99 23.776 278.8 28.319 284.99 24.746 278.8 29.025 284.99 25.452 278.8 30.263 284.99 26.691 278.8 30.945 284.99 27.373 278.8 32.127 284.99 28.555 278.8 33.345 284.99 29.774 278.8 34.525 284.99 30.953 278.8 35.435 284.99 31.863 278.8 36.264 284.99 32.692 278.8 37.056 284.99 33.484 278.8 37.803 284.99 34.231 278.81 38.934 284.99 35.363 278.81 39.9 284.99 36.328 278.81 40.976 284.99 37.405 278.81 42.002 284.99 38.43"/>
			<polyline points="266.95 26.824 272.44 23.651 267.17 27.442 272.65 24.275 267.48 28.322 272.95 25.162 267.77 29.148 273.24 25.996 268.13 30.161 273.58 27.016 268.36 30.788 273.79 27.649 268.65 31.613 274.07 28.482 268.97 32.518 274.38 29.394 269.18 33.119 274.58 30.001 269.39 33.702 274.78 30.589 269.62 34.351 275 31.243 269.98 35.351 275.34 32.252 270.28 36.221 275.64 33.129 270.6 37.108 275.94 34.024 270.85 37.807 276.18 34.729 271.2 38.813 276.52 35.743 271.47 39.556 276.77 36.493 271.77 40.409 277.06 37.354 272.02 41.097 277.3 38.048 272.27 41.802 277.54 38.759 272.6 42.737 277.86 39.701 272.92 43.633 278.16 40.606 273.12 44.193 278.35 41.17 273.37 44.906 278.59 41.889 273.62 45.617 284.99 39.052 273.85 46.268 284.99 39.835 274.15 47.119 284.99 40.861 274.35 47.677 284.99 41.533 274.65 48.523 284.99 42.552 274.94 49.343 285 43.541 275.25 50.207 285 44.581 275.46 50.8 285 45.296 275.68 51.407 285 46.028 275.99 52.279 285 47.077 276.34 53.288 285 48.293 276.59 53.988 285 49.136 276.84 54.692 285 49.985 277.15 55.568 285 51.039 277.48 56.497 285 52.159 277.81 57.408 285 53.257 278.01 57.979 285 53.945 278.24 58.614 285 54.71 278.52 59.407 285 55.665 278.71 59.95 285 56.319 279.01 60.808 285 57.353 279.51 61.498 285 58.331 281.56 61.494 285 59.509 283.56 61.491 285 60.659 284.7 61.488 285 61.318"/>
			<polyline points="260.7 8.839 260.97 8.683 260.7 10.074 263.12 8.679 260.7 11.09 264.88 8.676 260.7 11.963 266.4 8.674 260.7 12.752 267.45 8.852 260.7 13.811 267.75 9.738 260.7 14.707 268.01 10.488 260.7 15.653 268.27 11.28 260.7 16.867 268.62 12.296 260.7 17.889 268.9 13.151 260.7 18.7 269.13 13.83 260.7 19.932 269.48 14.862 260.7 20.732 269.71 15.532 260.7 21.377 269.89 16.072 260.7 22.224 270.13 16.781 260.7 23.151 270.39 17.556 260.7 23.777 270.57 18.081 260.7 24.596 270.8 18.766 260.7 25.572 271.07 19.583 260.7 26.421 271.31 20.294 260.7 27.081 271.5 20.845 260.7 27.914 271.73 21.543 260.7 28.647 271.94 22.157 260.7 29.682 272.23 23.023 260.7 30.837 266.88 27.271 260.7 31.807 266.88 28.241 260.7 32.678 266.88 29.111 260.7 33.735 266.88 30.168 260.7 34.946 266.88 31.379 260.7 36.13 266.88 32.562 260.7 36.842 266.88 33.274 260.7 37.763 266.88 34.195 260.7 38.883 266.88 35.315 260.7 39.906 266.88 36.338 260.7 40.689 266.88 37.12 260.7 41.375 266.88 37.806 260.7 42.528 266.88 38.959 260.7 43.193 266.88 39.624 260.7 43.91 266.88 40.341 260.7 44.913 266.88 41.343 260.7 45.815 266.88 42.245 260.7 46.552 266.88 42.982 260.7 47.325 266.88 43.754 260.7 48.195 266.88 44.624 260.7 49.352 266.88 45.781 260.7 50.155 266.88 46.584 260.7 50.822 266.88 47.25 260.7 51.829 266.88 48.257 260.7 52.47 266.88 48.898 260.7 53.495 266.89 49.923 260.7 54.489 266.89 50.916 260.7 55.551 266.89 51.979 260.7 56.297 266.89 52.725 260.7 56.967 266.89 53.393 260.7 57.865 266.89 54.292 260.7 58.792 266.89 55.218 260.7 59.451 266.89 55.877 260.7 60.523 266.89 56.949 260.75 61.504 266.89 57.96 262.84 61.498 266.89 59.159 264.59 61.494 266.89 60.164 266.54 61.488 266.89 61.287"/>
			<polyline points="109.8 72.221 110.1 72.047 109.63 73.332 111.66 72.157 109.43 74.593 111.48 73.41 109.22 75.959 111.28 74.768 109.07 76.88 111.14 75.683 108.94 77.728 111.02 76.526 108.73 79.039 110.83 77.83 108.6 79.87 110.71 78.655 108.43 80.96 110.54 79.739 108.31 81.714 110.44 80.488 108.19 82.509 110.32 81.278 107.99 83.775 110.13 82.537 107.83 84.788 109.98 83.544 107.71 85.529 109.88 84.28 107.57 86.445 109.74 85.191 107.37 87.718 109.56 86.456 107.26 88.41 109.45 87.145"/>
			<polyline points="103.49 78.037 105.19 77.055 103.63 78.834 105.33 77.853 103.81 79.836 105.51 78.855 103.99 80.851 105.68 79.872 104.15 81.785 105.85 80.806 104.32 82.761 106.02 81.782 104.5 83.754 106.19 82.776 104.69 84.874 106.38 83.897 104.83 85.653 106.52 84.676 104.99 86.565 106.68 85.589 105.11 87.248 106.8 86.273 105.3 88.318 106.99 87.344 105.4 88.93 107.09 87.955 105.54 89.721 109.4 87.494 105.68 90.482 109.27 88.41 105.82 91.274 109.13 89.364 106 92.333 108.94 90.639 106.2 93.457 108.74 91.992 106.31 94.075 108.63 92.737 107.08 94.481 108.49 93.665"/>
			<polyline points="102.57 72.223 102.87 72.048 102.43 73.052 104.18 72.037 102.22 74.229 104.47 72.93 102.03 75.336 104.63 73.835 101.8 76.692 104.82 74.943 101.65 77.532 104.94 75.63 101.46 78.637 105.1 76.534 101.25 79.848 103.31 78.658 101.11 80.654 103.17 79.464 100.97 81.435 103.03 80.245 100.82 82.303 102.88 81.113 100.59 83.643 102.65 82.452 100.39 84.808 102.45 83.617 100.18 85.996 102.24 84.805 100.02 86.932 102.08 85.741 99.784 88.278 101.85 87.087"/>
			<polyline points="95.275 72.193 95.527 72.048 95.444 73.332 97.138 72.354 95.583 74.267 97.285 73.285 95.702 75.072 97.411 74.084 95.809 75.798 97.525 74.808 95.954 76.774 97.679 75.778 96.076 77.599 97.808 76.599 96.205 78.471 97.945 77.466 96.37 79.589 98.12 78.579 96.51 80.53 98.269 79.515 96.621 81.277 98.386 80.258 96.789 82.412 98.564 81.388 96.898 83.15 98.68 82.121 96.986 83.744 98.773 82.712 97.102 84.524 98.895 83.489 97.228 85.378 99.03 84.338 97.314 85.955 99.12 84.912 97.425 86.709 99.239 85.662 97.558 87.608 99.379 86.557 97.674 88.39 99.502 87.335 97.764 88.998 99.598 87.939 97.878 89.766 101.77 87.517 97.978 90.441 101.63 88.332 98.119 91.394 101.43 89.481 98.277 92.458 101.21 90.765 98.409 93.353 101.02 91.843 98.528 94.154 100.86 92.811 99.8 94.477 100.65 93.986"/>
			<polyline points="116.35 82.147 119 80.617 117.88 82.143 120.53 80.613 119.8 82.138 122.16 80.777 121.75 82.133 122.17 81.889"/>
			<polyline points="116.35 73.847 119.48 72.04 117.65 73.844 120.78 72.038 119.49 73.839 122.62 72.034 121.22 73.835 122.9 72.865 122.64 73.832 122.91 73.676"/>
			<polyline points="114.3 72.206 114.57 72.049 114.3 73.44 116.72 72.046 114.3 74.455 118.48 72.042 114.3 75.328 116.08 74.301 114.3 76.116 116.08 75.089 114.31 77.174 116.09 76.146 114.31 78.07 116.09 77.041 114.31 79.015 116.09 77.986 114.31 80.228 116.09 79.198 114.31 81.249 116.1 80.218 114.31 82.059 116.8 80.623 114.31 83.291 116.08 82.27 114.31 84.091 116.08 83.07 114.32 84.735 116.08 83.714 114.32 85.581 116.08 84.561 114.32 86.508 116.09 85.486 114.32 87.134 116.09 86.112 114.32 87.952 116.09 86.93 114.32 88.927 116.09 87.905 114.32 89.775 116.09 88.754 114.32 90.435 116.09 89.413 114.32 91.267 116.09 90.245 114.32 91.999 116.1 90.977 114.32 93.033 116.1 92.011 114.33 94.188 116.92 92.688 115.49 94.486 118.61 92.684 117 94.483 120.13 92.68 118.84 94.479 121.96 92.676 120.94 94.476 122.9 93.345 122.64 94.472 122.91 94.317"/>
			<polyline points="127.21 73.83 130.27 72.066 128.74 73.823 131.55 72.204 130.62 73.84 132.66 72.663 131.95 74.194 133.53 73.283 132.75 74.759 134.16 73.949 133.27 75.536 134.64 74.745 133.42 76.544 134.98 75.644 133.42 77.777 135.16 76.77 133.42 78.635 135.2 77.61 133.42 79.64 135.2 78.615 133.32 80.447 135.2 79.367 132.54 81.909 135.12 80.42"/>
			<polyline points="127.21 84.356 129.79 82.867 128.51 84.351 131.35 82.71 130.36 84.343 134.55 81.924 131.81 84.505 133.49 83.533 132.89 85.099 134.4 84.226 133.38 85.571 134.82 84.739 133.86 86.292 135.34 85.438 134.14 87.215 135.73 86.299 134.22 87.899 135.87 86.941 134.22 88.601 135.97 87.587 134.22 89.383 135.99 88.357 134.06 90.68 135.93 89.597"/>
			<polyline points="125.12 72.222 125.39 72.066 125.12 73.456 127.53 72.066 125.12 74.471 129.29 72.066 125.12 75.344 126.87 74.336 125.12 76.132 126.87 75.123 125.12 77.19 126.88 76.179 125.12 78.086 126.88 77.073 125.13 79.031 126.88 78.018 125.13 80.244 126.89 79.229 125.13 81.265 126.89 80.248 125.13 82.075 126.89 81.058 125.13 83.307 126.9 82.287 125.13 84.107 127.28 82.867 125.13 84.751 128.4 82.867 125.13 85.598 126.87 84.597 125.14 86.524 126.87 85.522 125.14 87.15 126.87 86.146 125.14 87.968 126.88 86.963 125.14 88.943 126.88 87.937 125.14 89.792 126.88 88.784 125.14 90.451 126.89 89.442 125.14 91.283 126.89 90.273 125.14 92.015 126.89 91.005 125.14 93.05 126.9 92.037 125.14 94.204 127.74 92.706 126.35 94.481 129.42 92.706 127.87 94.472 130.96 92.689 129.72 94.462 135.59 91.07 132.17 94.256 134.3 93.029"/>
			<polyline points="144.11 87.816 144.38 87.658 144.11 88.69 145.9 87.656 144.12 89.788 145.9 88.76 144.25 90.831 145.91 89.872 144.56 91.684 146.11 90.789 145.03 92.486 146.59 91.585 145.67 93.209 147.34 92.243 146.62 93.897 148.66 92.72 147.46 94.27 150.58 92.466 148.74 94.536 153.77 91.632 150.15 94.472 153.07 92.786"/>
			<polyline points="148.32 73.938 150.98 72.401 149.68 73.896 151.7 72.731 150.84 74.288 152.53 73.312 151.57 74.864 153.16 73.947 152.15 75.748 153.72 74.844 152.33 76.399 153.95 75.466 152.39 77.358 154.12 76.361 152.39 78.448 154.18 77.417 152.58 79.068 154.18 78.138 153.81 79.057 154.19 78.838"/>
			<polyline points="145.64 73.439 147.59 72.315 144.37 75.409 150.03 72.144 144.15 76.551 146.45 75.223 144.12 77.443 146 76.361 144.12 78.232 145.93 77.187 144.12 79.291 145.93 78.246 144.13 80.182 145.93 79.142 144.25 81.058 145.93 80.088 144.66 82.037 146.24 81.126 145.2 82.746 146.84 81.801 145.76 83.233 147.52 82.219 146.8 83.863 148.99 82.598 147.68 84.157 150.1 82.763 148.54 84.303 150.86 82.966 149.79 84.43 151.73 83.31 150.88 84.727 152.53 83.775 151.42 85.043 153.01 84.126 151.96 85.552 153.48 84.67 152.3 86.328 153.91 85.402 152.37 87.141 154.1 86.136 152.37 87.8 154.18 86.755 152.37 88.633 154.18 87.589 152.37 89.366 154.18 88.321 152.28 90.454 154.18 89.356 151.52 91.805 154.12 90.309"/>
			<polyline points="161.98 73.846 165.12 72.035 163.28 73.841 165.62 72.493 165.13 73.833 165.62 73.547"/>
			<polyline points="155.91 72.206 156.18 72.049 155.91 73.441 158.33 72.046 156.98 73.843 160.1 72.043 158.5 73.837 161.61 72.041 159.88 73.832 162.98 72.038 159.91 74.87 164.82 72.035 159.91 75.766 161.71 74.728 159.91 76.711 161.71 75.674 159.91 77.924 161.71 76.887 159.91 78.946 161.71 77.908 159.92 79.756 161.71 78.719 159.92 80.988 161.71 79.951 159.92 81.788 161.71 80.751 159.92 82.433 161.71 81.396 159.92 83.279 161.71 82.242 159.92 84.206 161.72 83.168 159.92 84.832 161.72 83.794 159.92 85.65 161.72 84.613 159.92 86.625 161.72 85.588 159.92 87.474 161.72 86.437 159.92 88.133 161.72 87.096 159.92 88.967 161.72 87.929 159.92 89.699 161.72 88.661 159.92 90.733 161.72 89.696 159.92 91.888 161.72 90.851 159.92 92.858 161.72 91.821 159.93 93.729 161.72 92.691 160.45 94.483 161.72 93.748"/>
			<polyline points="176.26 72.206 176.54 72.048 176.26 72.951 177.85 72.036 176.27 74.01 178.09 72.957 176.27 75.005 178.09 73.953 176.27 76.225 178.09 75.173 176.27 76.98 178.09 75.929 176.27 77.974 178.09 76.923 176.27 79.063 178.09 78.013 176.27 79.788 178.09 78.738 176.27 80.49 178.09 79.44 176.27 81.271 178.09 80.221 176.27 82.475 178.09 81.427 176.27 83.523 178.09 82.475 176.28 84.592 178.09 83.545 176.28 85.434 178.09 84.387 176.28 86.644 178.09 85.598 176.28 87.54 178.09 86.494 176.28 88.568 178.09 87.523 176.28 89.396 178.09 88.351 176.21 90.284 178.09 89.2 175.41 91.819 178.04 90.3"/>
			<polyline points="168.12 72.206 168.39 72.047 168.12 73.441 169.9 72.413 168.12 74.457 169.9 73.428 168.12 75.33 169.9 74.302 168.12 76.119 169.9 75.091 168.12 77.178 169.9 76.149 168.12 78.074 169.9 77.045 168.12 79.02 169.9 77.991 168.12 80.233 169.9 79.205 168.12 81.255 169.9 80.227 168.12 82.066 169.9 81.038 168.12 83.298 169.9 82.27 168.12 84.099 169.9 83.07 168.12 84.744 169.9 83.715 168.12 85.591 169.9 84.562 168.12 86.517 169.9 85.489 168.12 87.144 169.9 86.115 168.12 87.962 169.9 86.934 168.12 88.938 169.9 87.91 168.12 89.788 169.9 88.759 168.18 90.41 169.9 89.419 168.32 91.162 169.95 90.22 168.55 91.762 170.1 90.871 169.01 92.532 170.56 91.64 169.7 93.293 171.38 92.323 170.43 93.839 172.37 92.718 171.24 94.243 173.92 92.696 172.54 94.55 177.74 91.544 174.62 94.348 176.59 93.213"/>
			<polyline points="183.09 73.775 186 72.093 184.39 73.768 187.02 72.254 186.14 73.819 188.09 72.691 187.24 74.178 188.89 73.229 188.12 74.89 189.63 74.021 188.45 75.457 190 74.563 188.68 76.32 190.32 75.375 188.72 77.385 190.47 76.373 188.72 78.11 190.5 77.084 188.72 78.813 190.5 77.786 188.72 79.594 190.5 78.568 188.72 80.799 190.5 79.773 188.72 81.847 190.5 80.821 188.72 82.917 190.5 81.891 188.72 83.759 190.5 82.733 188.72 84.97 190.5 83.945 188.72 85.866 190.5 84.84 188.72 86.895 190.5 85.869 188.72 87.724 190.5 86.698 188.72 88.573 190.5 87.546 188.72 89.698 190.5 88.673 188.56 90.874 190.5 89.753"/>
			<polyline points="181 72.222 181.27 72.066 181 73.456 183.41 72.066 181 74.471 185.17 72.066 181 75.344 182.75 74.336 181 76.132 182.75 75.124 181 77.19 182.75 76.182 181 78.086 182.75 77.077 181.01 79.031 182.75 78.022 181.01 80.244 182.76 79.235 181.01 81.265 182.76 80.255 181.01 82.075 182.76 81.066 181.01 83.307 182.76 82.297 181.01 84.107 182.76 83.096 181.01 84.751 182.76 83.741 181.01 85.598 182.76 84.587 181.02 86.524 182.77 85.513 181.02 87.15 182.77 86.138 181.02 87.968 182.77 86.956 181.02 88.943 182.77 87.931 181.02 89.792 182.77 88.779 181.02 90.451 182.77 89.439 181.02 91.283 182.77 90.271 181.02 92.015 182.78 91.003 181.02 93.05 182.78 92.037 181.02 94.204 183.52 92.761 182.23 94.48 185.2 92.761 183.75 94.469 190.4 90.633 185.61 94.457 189.97 91.936 187.25 94.19 189.1 93.121"/>
			<polyline points="193.43 72.205 193.7 72.048 193.43 73.44 195.32 72.349 193.44 74.455 195.32 73.364 193.44 75.328 195.32 74.237 193.44 76.116 195.33 75.025 193.44 77.174 195.33 76.084 193.44 78.07 195.33 76.98 193.44 79.015 195.33 77.925 193.44 80.228 195.33 79.138 193.44 81.249 195.33 80.16 193.44 82.059 195.33 80.971 193.44 83.291 195.33 82.202 193.45 84.091 195.33 83.002 193.45 84.735 195.33 83.647 193.45 85.581 195.33 84.494 193.45 86.508 195.33 85.42 193.45 87.134 195.33 86.046 193.45 87.952 195.33 86.864 193.45 88.927 195.34 87.84 193.45 89.775 195.34 88.688 193.45 90.434 195.34 89.348 193.46 91.267 195.34 90.181 193.46 91.999 195.34 90.913 193.46 93.033 195.34 91.947 193.46 94.188 195.34 93.102 194.64 94.478 195.34 94.073"/>
			<polyline points="202.73 73.933 205.57 72.297 204.27 73.793 206.41 72.559 205.62 74.072 207.37 73.061 206.54 74.539 208.09 73.64 207.28 75.33 208.78 74.461 207.57 75.92 209.08 75.047 207.68 76.847 209.34 75.892 207.68 77.936 209.44 76.926 207.68 78.661 209.44 77.651 207.68 79.363 209.44 78.353 207.68 80.145 209.44 79.134 207.68 81.35 209.44 80.339 207.68 82.398 209.44 81.388 207.68 83.468 209.44 82.457 207.68 84.31 209.44 83.299 207.68 85.521 209.44 84.511 207.68 86.417 209.44 85.407 207.68 87.446 209.44 86.435 207.68 88.274 209.44 87.264 207.68 89.123 209.44 88.113 207.66 90.265 209.44 89.239 206.98 91.733 209.4 90.336"/>
			<polyline points="199.86 73.6 201.9 72.423 198.6 75.566 204.56 72.124 198.45 76.666 200.54 75.462 198.45 77.539 200.21 76.524 198.45 78.328 200.2 77.318 198.45 79.387 200.2 78.377 198.45 80.283 200.2 79.273 198.45 81.229 200.2 80.219 198.45 82.442 200.2 81.432 198.45 83.464 200.2 82.454 198.45 84.275 200.2 83.265 198.45 85.507 200.2 84.497 198.45 86.308 200.2 85.298 198.45 86.953 200.2 85.943 198.45 87.8 200.2 86.79 198.45 88.727 200.2 87.717 198.45 89.352 200.2 88.342 198.46 90.167 200.2 89.161 198.6 91.063 200.2 90.135 198.88 91.751 200.35 90.902 199.15 92.254 200.64 91.395 199.6 92.823 201.13 91.941 200.1 93.27 201.71 92.341 200.92 93.829 202.77 92.764 202.08 94.316 204.6 92.862 203.34 94.563 209.29 91.123 204.9 94.531 208.69 92.341"/>
		</g>
</svg>
