<?xml version="1.0" encoding="UTF-8" standalone="no"?>
<!-- Generator: Adobe Illustrator 17.0.0, SVG Export Plug-In . SVG Version: 6.00 Build 0)  -->
<!DOCTYPE svg  PUBLIC '-//W3C//DTD SVG 1.1//EN'  'http://www.w3.org/Graphics/SVG/1.1/DTD/svg11.dtd'>
<svg id="Capa_1" xmlns="http://www.w3.org/2000/svg" xml:space="preserve" height="200px" viewBox="0 0 750 200" width="750px" version="1.1" y="0px" x="0px" xmlns:xlink="http://www.w3.org/1999/xlink" enable-background="new 0 0 750 200">
		<g stroke-linejoin="round" stroke="#fff" stroke-linecap="round" fill="none">
			<polyline points="197.36 22.534 197.91 22.216 197.05 24.588 201.17 22.206 196.7 26.92 204.88 22.196 196.31 29.445 208.89 22.184 196.06 31.147 208.91 23.726 195.82 32.716 208.68 25.291 195.45 35.14 208.32 27.71 195.22 36.675 208.09 29.241 194.91 38.691 207.8 31.253 194.7 40.085 207.59 32.644 194.48 41.554 207.38 34.11 194.13 43.896 207.03 36.446 193.84 45.769 206.75 38.315 193.64 47.138 206.55 39.681 193.38 48.832 206.3 41.371 193.02 51.186 205.95 43.72 192.77 52.84 205.71 45.37 192.52 54.518 205.46 47.044 192.16 56.87 205.12 49.391 191.9 58.595 204.86 51.112 191.65 60.252 204.62 52.766 191.36 62.19 204.33 54.7 190.99 64.591 203.98 57.095 190.65 66.884 203.64 59.383 190.37 68.684 203.37 61.179 190.06 70.781 203.06 63.271 189.84 72.229 202.85 64.716 189.48 74.563 202.5 67.045 189.29 75.861 202.31 68.339 188.91 78.339 201.95 70.812 188.58 80.527 201.63 72.995"/>
			<polyline points="173.23 61.055 184.31 54.662 173.46 62.552 184.54 56.16 173.75 64.432 184.82 58.042 174.05 66.339 185.11 59.95 174.32 68.092 185.38 61.705 174.6 69.924 185.66 63.539 174.88 71.788 185.94 65.404 175.2 73.89 186.26 67.508 175.43 75.353 186.48 68.973 175.69 77.066 186.74 70.687 175.89 78.348 186.94 71.97 176.2 80.357 187.24 73.981 176.37 81.505 187.42 75.13 176.6 82.99 187.64 76.616 176.82 84.418 187.86 78.045 177.05 85.906 188.08 79.535 177.36 87.893 201.48 73.963 177.68 90.003 201.11 76.475 177.86 91.165 200.91 77.858 178.08 92.612 200.65 79.579 178.33 94.266 200.36 81.548 178.52 95.469 200.15 82.98 178.84 97.581 199.78 85.494 179.02 98.743 199.57 86.877 179.33 100.76 199.22 89.276 179.65 102.84 198.85 91.748 179.96 104.85 198.5 94.142 180.2 106.4 198.23 95.988 180.41 107.81 197.98 97.67 180.62 109.16 197.74 99.278 180.82 110.44 197.52 100.79 181.11 112.36 197.18 103.09 181.36 114.01 196.89 105.05 181.65 115.84 196.56 107.23 181.92 117.59 196.26 109.31 182.18 119.3 195.96 111.34 184.34 120.22 195.61 113.71 186.99 120.21 195.36 115.38 189.9 120.2 195.09 117.2 193.74 120.2 194.73 119.62"/>
			<polyline points="167 22.534 167.55 22.216 166.77 24.05 169.96 22.212 166.45 26.204 173.37 22.204 166.14 28.229 176.59 22.198 165.76 30.71 179.47 22.796 165.53 32.246 179.67 24.085 165.22 34.269 179.92 25.782 164.89 36.484 180.21 27.641 164.67 37.958 180.39 28.877 164.45 39.386 180.58 30.076 164.21 40.975 180.78 31.409 163.84 43.425 181.09 33.465 163.52 45.556 181.36 35.253 163.19 47.731 181.64 37.077 162.93 49.443 181.86 38.514 162.56 51.906 182.17 40.58 162.28 53.728 182.4 42.109 161.96 55.818 182.67 43.863 161.71 57.503 182.88 45.277 161.45 59.23 183.1 46.725 161.1 61.519 183.4 48.647 160.77 63.717 183.68 50.491 160.56 65.089 183.85 51.641 160.3 66.834 184.07 53.106 160.03 68.578 173.11 61.027 159.79 70.171 172.87 62.62 159.47 72.255 172.55 64.704 159.27 73.623 172.35 66.071 158.95 75.696 172.03 68.144 158.65 77.705 171.73 70.153 158.33 79.821 171.41 72.269 158.13 81.153 171.21 73.601"/>
			<polyline points="137.36 22.483 137.83 22.216 137.68 24.596 141.81 22.208 137.94 26.332 145.09 22.201 138.16 27.824 147.91 22.194 138.36 29.173 149.14 22.949 138.62 30.983 149.41 24.755 138.85 32.514 149.64 26.284 139.09 34.131 149.89 27.898 139.4 36.206 150.2 29.968 139.66 37.952 150.46 31.712 139.86 39.339 150.68 33.095 140.17 41.445 150.99 35.197 140.38 42.813 151.2 36.563 140.54 43.916 151.37 37.663 140.75 45.363 151.59 39.108 140.99 46.947 151.83 40.689 141.15 48.018 151.99 41.757 141.35 49.417 152.2 43.153 141.6 51.085 152.46 44.818 141.82 52.537 152.68 46.267 141.98 53.664 152.85 47.392 142.19 55.088 153.06 48.814 142.38 56.341 153.25 50.064 142.64 58.11 153.52 51.829 142.93 60.084 153.82 53.8 143.18 61.743 154.07 55.456 143.4 63.232 154.3 56.941 143.67 65.038 154.57 58.744 143.97 67.108 154.88 60.809 144.27 69.132 155.19 62.829 144.45 70.348 155.37 64.044 144.69 71.923 155.61 65.615 144.97 73.837 155.9 67.526 145.23 75.587 156.17 69.271 145.43 76.925 156.37 70.607 145.6 78.097 156.55 71.777 145.89 80.068 156.85 73.744 146.06 81.204 157.02 74.878 146.24 82.431 157.2 76.103 146.5 84.146 157.46 77.813 146.72 85.687 157.7 79.352 146.91 86.947 157.89 80.61 147.11 88.267 171.08 74.424 147.33 89.754 170.82 76.192 147.62 91.733 170.46 78.545 147.82 93.105 170.22 80.177 147.99 94.245 170.01 81.533 148.25 95.966 169.7 83.58 148.41 97.062 169.5 84.883 148.67 98.814 169.19 86.967 148.92 100.51 168.88 88.987 149.19 102.33 168.56 91.147 149.38 103.6 168.33 92.663 149.55 104.75 168.12 94.023 149.78 106.28 167.85 95.85 150.01 107.87 167.56 97.734 150.18 108.99 167.36 99.073 150.45 110.83 167.03 101.25 150.7 112.56 166.72 103.31 151.01 114.6 166.35 105.74 151.26 116.32 166.04 107.79 151.55 118.24 165.7 110.07 151.8 119.92 165.4 112.07 153.38 120.22 165.2 113.39 156.17 120.21 164.93 115.15 159.36 120.2 164.63 117.16 163.25 120.2 164.26 119.62"/>
			<polyline points="219.13 85.743 219.63 85.454 219.13 87.616 222.89 85.445 219.14 89.741 226.6 85.436 219.14 92.043 230.6 85.425 219.14 93.595 230.86 86.832 219.15 95.025 230.86 88.264 219.15 97.234 230.86 90.476 219.16 98.633 230.86 91.876 219.16 100.47 230.86 93.717 219.25 101.69 230.86 94.989 219.36 102.97 230.86 96.33 219.69 104.92 230.86 98.467 220.08 106.4 230.86 100.18 220.42 107.45 230.95 101.37 220.98 108.68 231.13 102.81 221.8 110.35 231.83 104.56 222.53 111.44 232.57 105.64 223.27 112.54 233.45 106.66 224.53 113.96 235.03 107.9 225.48 114.99 236.44 108.66 226.56 115.88 238.14 109.19 227.84 116.9 240.84 109.4 229.69 118.03 261.46 99.687 231.62 119.01 261.35 101.84 233.3 119.68 261.18 103.58 235.54 120.3 260.72 105.76 237.19 120.67 260.26 107.35 240.47 120.9 258.91 110.26 242.87 120.7 257.69 112.15 248.68 119.2 253.92 116.18"/>
			<polyline points="229.57 65.104 230.07 64.816 229.57 66.731 232.89 64.816 229.58 68.775 236.44 64.811 229.58 70.848 240.31 64.653 229.59 72.754 245.38 63.638 229.6 74.745 261.46 56.349 230.62 76.18 261.44 58.389 234.62 76.159 261.24 60.789 237.42 76.139 260.84 62.618 240.28 76.35 259.66 65.164 242.14 76.67 257.84 67.607 244.64 77.418 255.6 71.091 245.79 78 256.35 71.902 247.08 78.874 257.33 72.953 248.09 79.844 258.08 74.077 248.92 80.987 258.86 75.249 249.6 82.758 259.68 76.935 249.86 84.903 260.46 78.786 249.88 86.158 260.73 79.891 249.88 87.733 261.08 81.267 249.88 89.534 261.29 82.946 249.88 90.844 261.39 84.199 249.88 93.142 261.46 86.457 249.88 94.408 261.46 87.722 249.88 96.602 261.46 89.917 249.88 98.863 261.46 92.178 249.82 101.09 261.46 94.367 249.55 102.93 261.46 96.056 248.66 104.98 261.46 97.594"/>
			<polyline points="237.12 34.278 252.06 25.651 240.52 33.694 253.16 26.399 243.2 34.115 254.58 27.542 245.1 34.867 255.79 28.695 246.89 36.095 257.15 30.174 247.82 36.962 257.84 31.174 248.74 38.278 258.73 32.509 249.43 39.897 259.53 34.07 249.71 41.084 260 35.139 249.86 42.3 260.42 36.2 249.88 43.739 260.75 37.461 249.88 45.975 261.2 39.438 249.88 47.92 261.36 41.292 249.88 49.904 261.46 43.219 249.88 51.467 261.46 44.782 249.88 53.714 261.46 47.029 249.88 55.377 261.46 48.692 249.88 57.285 261.46 50.6 249.75 58.894 261.46 52.137 249.11 60.844 261.46 53.713"/>
			<polyline points="226.81 27.051 232.48 23.776 222.39 31.898 238.97 22.326 220.89 34.648 242.18 22.355 220.08 36.732 244.48 22.651 219.62 38.462 246.29 23.069 219.32 40.601 248.41 23.809 219.17 42.352 250.08 24.505 219.16 44.113 251.6 25.384 219.16 46.365 231.63 39.165 219.16 48.261 231.01 41.417 219.16 49.765 230.86 43.01 219.16 52.052 230.86 45.294 219.16 53.537 230.87 46.778 219.16 54.734 230.87 47.973 219.16 56.305 230.87 49.543 219.5 57.825 230.88 51.26 221.53 57.82 230.88 52.421 224.17 57.813 230.88 53.938 227.32 57.805 230.88 55.747 230.06 57.798 230.89 57.321"/>
			<polyline points="284.85 33.435 301.53 23.808 287.26 33.428 302.95 24.368 290.68 33.417 304.67 25.344 293.86 33.43 306.18 26.317 296.82 33.988 307.84 27.622 298.21 34.586 308.75 28.502 299.72 35.562 309.87 29.699 301.02 36.83 310.94 31.105 301.71 37.78 311.59 32.071 302.22 38.788 312.18 33.037 302.69 39.967 312.71 34.182 302.95 42.053 313.46 35.984 302.95 43.998 313.91 37.669 302.95 45.982 314.25 39.458 302.95 47.545 314.38 40.946 302.95 49.792 314.47 43.141 302.95 51.455 314.47 44.804 302.95 53.363 314.47 46.712 302.95 54.9 314.47 48.25 302.95 56.476 314.47 49.825 302.95 58.565 314.47 51.914 302.95 60.571 314.47 53.92 302.95 61.822 314.47 55.172 302.95 63.415 314.47 56.765 302.95 65.007 314.47 58.356 302.95 66.46 314.47 59.81 302.95 68.363 314.47 61.712 302.95 69.61 314.47 62.96 302.95 71.502 314.47 64.852 302.95 73.336 314.47 66.686 302.95 75.267 314.47 68.617 302.95 76.594 314.47 69.944 302.95 77.952 314.47 71.301 302.95 79.9 314.47 73.249 302.95 82.155 314.47 75.505 302.95 83.721 314.47 77.07 302.95 85.295 314.47 78.644 302.95 87.252 314.47 80.601 302.95 89.331 314.47 82.68 302.95 91.367 314.47 84.717 302.95 92.645 314.47 85.994 302.95 94.064 314.47 87.413 302.95 95.837 314.47 89.186 302.95 97.05 314.47 90.4 302.95 98.969 314.47 92.318 302.89 100.82 314.47 94.134 302.34 103.32 314.47 96.319 300.25 106.41 314.47 98.204"/>
			<polyline points="272.83 22.536 273.33 22.247 272.83 24.829 277.3 22.247 272.83 26.714 280.56 22.247 272.83 28.334 283.37 22.247 272.83 29.797 285.91 22.247 272.83 31.762 289.31 22.247 272.83 33.425 292.19 22.247 272.83 35.18 295.04 22.354 272.83 37.432 298.18 22.793 272.83 39.328 300.44 23.385 272.83 40.833 284.23 34.251 272.83 43.119 284.23 36.536 272.83 44.604 284.23 38.021 272.83 45.801 284.23 39.217 272.83 47.372 284.23 40.788 272.83 49.092 284.24 42.506 272.83 50.254 284.24 43.668 272.83 51.773 284.24 45.186 272.83 53.583 284.24 46.996 272.83 55.159 284.24 48.571 272.83 56.383 284.24 49.794 272.83 57.929 284.24 51.339 272.83 59.289 284.24 52.698 272.83 61.209 284.24 54.618 272.83 63.352 284.25 56.76 272.83 65.153 284.25 58.56 272.83 66.769 284.25 60.175 272.83 68.73 284.25 62.135 272.83 70.976 284.25 64.38 272.83 73.173 284.26 66.577 272.83 74.494 284.26 67.897 272.83 76.203 284.26 69.605 272.83 78.281 284.26 71.682 272.83 80.18 284.26 73.58 272.83 81.633 284.26 75.032 272.83 82.905 284.26 76.304 272.83 85.045 284.26 78.442 272.83 86.278 284.26 79.676 272.83 87.61 284.27 81.007 272.83 89.471 284.27 82.867 272.83 91.144 284.27 84.539 272.83 92.512 284.27 85.907 272.83 93.945 284.27 87.339 272.83 95.559 284.27 88.952 272.83 97.707 284.27 91.099 272.83 99.196 284.28 92.587 272.83 100.43 284.28 93.825 272.83 102.3 284.28 95.692 272.83 103.49 284.28 96.881 272.83 105.39 284.28 98.782 272.83 107.24 284.28 100.62 272.83 109.21 284.28 102.6 272.83 110.59 284.28 103.98 272.83 111.84 284.29 105.22 272.83 113.5 284.29 106.89 272.83 115.22 284.29 108.6 272.83 116.44 285.72 109 272.83 118.43 289.16 109 272.98 120.22 292.41 109 276.85 120.21 314.47 98.494 280.1 120.2 314.47 100.36 283.73 120.19 314.26 102.56 286.9 120.18 313.98 104.55 289 120.18 313.54 106.01 291.8 120.17 312.82 108.03 295.22 120.03 311.43 110.67 301.68 118.54 307.1 115.41"/>
			<polyline points="361.41 33.435 378.08 23.808 363.82 33.428 379.51 24.368 367.24 33.417 381.22 25.344 370.42 33.43 382.74 26.317 373.38 33.988 384.4 27.622 374.77 34.586 385.31 28.502 376.28 35.562 386.43 29.699 377.58 36.83 387.5 31.105 378.26 37.78 388.15 32.071 378.78 38.788 388.74 33.037 379.24 39.967 389.26 34.182 379.5 42.053 390.02 35.985 379.5 43.998 390.47 37.669 379.5 45.982 390.8 39.459 379.5 47.545 390.93 40.946 379.5 49.792 391.02 43.141 379.5 51.455 391.02 44.804 379.5 53.363 391.02 46.712 379.5 54.901 391.02 48.25 379.5 56.476 391.02 49.825 379.5 58.565 391.02 51.915 379.5 60.571 391.02 53.92 379.5 61.823 391.02 55.172 379.5 63.416 391.02 56.765 379.5 65.007 391.02 58.356 379.51 66.461 391.02 59.81 379.51 68.363 391.02 61.712 379.51 69.611 391.02 62.96 379.51 71.503 391.02 64.852 379.51 73.337 391.02 66.686 379.51 75.268 391.02 68.617 379.51 76.595 391.02 69.944 379.51 77.952 391.02 71.301 379.51 79.9 391.02 73.25 379.51 82.156 391.02 75.505 379.51 83.721 391.02 77.07 379.51 85.295 391.02 78.644 379.51 87.252 391.02 80.601 379.51 89.331 391.02 82.68 379.51 91.368 391.02 84.717 379.51 92.645 391.02 85.994 379.51 94.064 391.02 87.413 379.51 95.837 391.02 89.186 379.51 97.051 391.02 90.4 379.51 98.969 391.02 92.318 379.45 100.82 391.02 94.134 378.89 103.32 391.02 96.319 376.81 106.41 391.02 98.204"/>
			<polyline points="349.39 22.536 349.89 22.248 349.39 24.829 353.86 22.247 349.39 26.714 357.12 22.247 349.39 28.334 359.93 22.247 349.39 29.798 362.46 22.247 349.39 31.762 365.87 22.247 349.39 33.425 368.75 22.247 349.39 35.18 371.6 22.354 349.39 37.432 374.74 22.793 349.39 39.328 377 23.385 349.39 40.833 360.79 34.251 349.39 43.119 360.79 36.536 349.39 44.604 360.79 38.021 349.39 45.801 360.79 39.217 349.39 47.372 360.79 40.788 349.39 49.092 360.79 42.506 349.39 50.254 360.8 43.668 349.39 51.773 360.8 45.186 349.39 53.584 360.8 46.996 349.39 55.159 360.8 48.571 349.39 56.383 360.8 49.794 349.39 57.929 360.8 51.339 349.39 59.289 360.8 52.698 349.39 61.209 360.8 54.618 349.39 63.352 360.8 56.76 349.39 65.153 360.81 58.56 349.39 66.769 360.81 60.175 349.39 68.73 360.81 62.135 349.39 70.976 360.81 64.38 349.39 73.173 360.81 66.577 349.39 74.494 360.81 67.897 349.39 76.203 360.82 69.605 349.39 78.281 360.82 71.682 349.39 80.18 360.82 73.58 349.39 81.633 360.82 75.032 349.39 82.905 360.82 76.304 349.39 85.045 360.82 78.442 349.39 86.278 360.82 79.676 349.39 87.61 360.82 81.007 349.39 89.471 360.83 82.867 349.39 91.144 360.83 84.539 349.39 92.512 360.83 85.907 349.39 93.945 360.83 87.339 349.39 95.559 360.83 88.952 349.39 97.707 360.83 91.099 349.39 99.196 360.83 92.588 349.39 100.43 360.84 93.825 349.39 102.3 360.84 95.692 349.39 103.49 360.84 96.881 349.39 105.39 360.84 98.782 349.39 107.24 360.84 100.62 349.39 109.21 360.84 102.6 349.39 110.59 360.84 103.98 349.39 111.84 360.84 105.22 349.39 113.5 360.84 106.89 349.39 115.22 360.85 108.6 349.39 116.44 362.27 109 349.39 118.43 365.72 109 349.54 120.22 368.97 109 353.41 120.21 391.02 98.495 356.66 120.2 391.02 100.36 360.29 120.19 390.82 102.56 363.45 120.18 390.53 104.55 365.56 120.18 390.1 106.01 368.36 120.17 389.38 108.03 371.77 120.03 387.99 110.67 378.24 118.54 383.66 115.41"/>
			<polyline points="413.88 78.345 433.82 66.829 416.7 78.341 436.3 67.03 420.26 78.336 436.3 69.074 423.86 78.332 436.31 71.147 427.18 78.327 436.31 73.053 430.64 78.323 436.32 75.044 434.16 78.318 436.32 77.069"/>
			<polyline points="413.88 33.706 433.82 22.192 416.28 33.704 436.22 22.19 419.69 33.7 439.53 22.242 422.9 33.696 439.54 24.087 426.82 33.692 439.54 26.348 429.26 33.689 439.55 27.747 432.46 33.685 439.55 29.59 435.97 33.681 439.56 31.609 438.3 33.679 439.56 32.952"/>
			<polyline points="401.92 22.506 402.42 22.217 401.92 24.799 406.39 22.214 401.92 26.684 409.66 22.211 401.92 28.304 412.47 22.209 401.92 29.768 415.01 22.207 401.92 31.732 418.42 22.204 401.92 33.395 421.3 22.202 401.92 35.15 424.35 22.2 401.92 37.402 428.25 22.196 401.92 39.298 431.54 22.194 401.92 40.803 413.38 34.186 401.92 43.089 413.38 36.471 401.92 44.574 413.38 37.956 401.92 45.771 413.38 39.152 401.92 47.342 413.38 40.723 401.92 49.062 413.38 42.441 401.92 50.224 413.38 43.603 401.92 51.743 413.38 45.121 401.92 53.553 413.39 46.93 401.92 55.129 413.39 48.505 401.92 56.353 413.39 49.728 401.92 57.899 413.39 51.274 401.92 59.259 413.39 52.633 401.92 61.179 413.39 54.552 401.92 63.322 413.4 56.694 401.92 65.123 413.4 58.494 401.92 66.739 413.4 60.109 401.92 68.7 413.4 62.069 401.92 70.946 413.4 64.314 401.92 73.143 413.4 66.51 401.92 74.464 415.1 66.853 401.92 76.173 418.06 66.85 401.92 78.251 421.67 66.845 401.92 80.15 424.97 66.841 401.92 81.603 427.49 66.837 401.92 82.875 429.7 66.834 401.92 85.015 413.38 78.398 401.92 86.248 413.38 79.631 401.92 87.58 413.38 80.963 401.92 89.441 413.38 82.822 401.92 91.114 413.38 84.494 401.92 92.482 413.38 85.862 401.92 93.915 413.38 87.294 401.92 95.529 413.39 88.907 401.92 97.677 413.39 91.053 401.92 99.166 413.39 92.542 401.92 100.4 413.39 93.779 401.92 102.27 413.39 95.646 401.92 103.46 413.39 96.835 401.92 105.36 413.4 98.736 401.92 107.21 413.4 100.58 401.92 109.18 413.4 102.55 401.92 110.56 413.4 103.93 401.92 111.8 413.4 105.17 401.92 113.47 413.4 106.84 401.92 115.19 413.4 108.56 401.92 116.41 415.22 108.73 401.92 118.4 418.67 108.73 402.01 120.22 421.93 108.72 405.87 120.22 425.79 108.72 409.11 120.22 429.03 108.72 412.72 120.22 432.65 108.71 415.88 120.21 435.8 108.71 417.98 120.21 437.91 108.71 420.76 120.21 439.54 109.37 423.95 120.21 439.54 111.2 427.83 120.2 439.55 113.44 429.97 120.2 439.55 114.67 432.22 120.2 439.55 115.96 435.06 120.2 439.56 117.6 439.05 120.19 439.56 119.9"/>
			<polyline points="447.97 90.663 448.47 90.373 447.97 92.289 451.3 90.366 447.98 94.332 454.86 90.357 447.98 96.404 458.48 90.347 447.99 98.31 459.46 91.691 448.04 100.28 459.46 93.685 448.2 102.21 459.46 95.714 448.56 104.29 459.46 98.002 448.92 105.68 459.46 99.595 449.48 107.22 459.66 101.34 449.97 108.33 459.99 102.55 450.85 110.01 460.81 104.26 451.44 110.92 461.44 105.14 452.21 112.09 462.42 106.2 453.13 113.12 463.49 107.13 454.09 114.18 464.9 107.94 455.58 115.49 467.16 108.8 457.27 116.8 470.5 109.16 458.36 117.44 473.88 108.48 459.71 118.24 491.97 99.609 461.52 118.99 491.83 101.49 462.86 119.53 491.71 102.87 465.66 120.21 491.07 105.54 467.4 120.47 490.52 107.12 470.98 120.6 488.97 110.22 476.39 119.74 485.67 114.38"/>
			<polyline points="466.54 34.281 481.76 25.488 469.96 33.685 482.95 26.188 472.76 34.039 484.37 27.332 474.76 34.73 485.68 28.426 476.69 35.879 487.02 29.917 477.65 36.729 487.83 30.849 478.72 37.956 488.7 32.191 479.63 39.45 489.63 33.679 480.08 40.539 490.1 34.751 480.33 41.695 490.56 35.789 480.51 43.042 491 36.988 480.51 45.277 491.5 38.936 480.51 47.222 491.78 40.719 480.51 49.206 491.94 42.612 480.51 50.768 491.98 44.15 480.7 52.906 491.98 46.394 483.6 52.898 491.99 48.054 486.92 52.89 491.99 49.958 489.59 52.883 492 51.493"/>
			<polyline points="455.9 27.142 461.52 23.897 451.4 32.028 468.15 22.362 449.86 34.803 471.47 22.326 449 36.921 473.89 22.552 448.55 38.642 475.7 22.973 448.19 40.819 477.93 23.647 448.04 42.568 479.63 24.329 448 44.347 481.22 25.166 448 46.599 460.46 39.405 448 48.495 459.75 41.71 448 50 459.57 43.315 448 52.286 459.57 45.601 448 53.772 459.58 47.087 448 54.968 459.58 48.284 448 56.54 459.58 49.855 448.06 58.22 459.58 51.574 448.16 59.325 459.58 52.736 448.29 60.77 459.58 54.255 448.72 62.334 459.58 56.066 449.09 63.693 459.6 57.629 449.52 64.671 459.76 58.759 450.1 65.884 460.13 60.091 450.63 66.933 460.62 61.166 451.59 68.3 461.67 62.481 452.75 69.776 463.19 63.749 453.87 70.929 464.77 64.634 454.94 71.924 466.45 65.283 456.42 73.035 468.9 65.831 458.29 74.201 472.05 66.256 460.3 75.239 474.9 66.807 461.69 75.757 476.48 67.215 463.57 76.38 478.29 67.881 466.18 76.949 480.36 68.766 469.07 77.183 482.05 69.685 471.27 77.364 483.26 70.443 472.96 77.659 484.23 71.152 475.25 78.474 485.77 72.401 476.4 79.048 486.57 73.176 477.38 79.811 487.42 74.013 478.57 80.989 488.41 75.306 479.41 82.172 489.28 76.476 479.9 83.26 489.84 77.524 480.22 84.511 490.39 78.634 480.39 86.021 490.93 79.936 480.39 88.169 491.47 81.776 480.39 89.658 491.72 83.117 480.39 90.896 491.83 84.291 480.39 92.764 491.97 86.079 480.39 93.954 491.97 87.269 480.39 95.856 491.97 89.171 480.39 97.7 491.97 91.015 480.39 99.671 491.97 92.986 480.22 101.15 491.97 94.37 479.86 102.6 491.97 95.612 478.58 105.01 491.97 97.279"/>
			<polyline points="502.95 22.506 503.46 22.216 502.95 24.799 507.45 22.206 502.95 26.684 510.72 22.197 502.95 28.304 513.54 22.19 502.95 29.767 514.41 23.151 502.95 31.732 514.41 25.115 502.95 33.395 514.42 26.778 502.95 35.15 514.42 28.533 502.95 37.402 514.42 30.784 502.95 39.298 514.42 32.68 502.95 40.803 514.42 34.184 502.95 43.089 514.42 36.47 502.95 44.574 514.42 37.955 502.95 45.771 514.42 39.152 502.95 47.342 514.42 40.723 502.95 49.062 514.42 42.442 502.95 50.224 514.42 43.604 502.95 51.743 514.42 45.123 502.95 53.553 514.42 46.933 502.95 55.129 514.42 48.508 502.95 56.353 514.42 49.732 502.95 57.899 514.42 51.278 502.95 59.259 514.42 52.637 502.95 61.179 514.42 54.557 502.95 63.322 514.42 56.7 502.95 65.123 514.42 58.501 502.95 66.739 514.42 60.116 502.95 68.7 514.43 62.077 502.95 70.946 514.43 64.322 502.95 73.143 514.43 66.519 502.95 74.464 514.43 67.84 502.95 76.173 514.43 69.549 502.95 78.251 514.43 71.626 502.95 80.15 514.43 73.525 502.95 81.603 514.43 74.977 502.95 82.875 514.43 76.249 502.95 85.015 514.43 78.388 502.95 86.248 514.43 79.622 502.95 87.58 514.43 80.954 502.95 89.441 514.43 82.814 502.95 91.114 514.43 84.487 502.95 92.482 514.43 85.855 502.95 93.915 514.43 87.287 502.95 95.529 514.43 88.901 502.95 97.677 514.43 91.048 502.95 99.166 514.44 92.537 502.95 100.4 514.44 93.775 502.95 102.27 514.44 95.643 502.95 103.46 514.44 96.832 502.95 105.36 514.44 98.734 502.95 107.21 514.44 100.58 502.95 109.18 514.44 102.55 502.95 110.56 514.44 103.93 502.95 111.8 514.44 105.17 502.95 113.47 514.44 106.84 502.95 115.19 514.44 108.56 502.95 116.41 514.44 109.78 502.95 118.4 514.44 111.77 503.05 120.22 514.44 113.65 506.92 120.21 514.44 115.87 510.17 120.2 514.44 117.74 513.8 120.2 514.44 119.82"/>
			<polyline points="549.72 66.904 550.22 66.615 549.73 68.531 553.05 66.612 549.73 70.575 556.6 66.607 549.74 72.648 560.21 66.603 549.74 74.553 563.52 66.598 549.75 76.544 566.98 66.594 550.77 77.983 570.5 66.59 554.75 77.973 573.45 67.177 557.52 77.966 573.45 68.77 560.77 77.958 573.45 70.635 561.96 78.663 573.45 72.03 561.97 80.848 573.45 74.217 561.97 82.097 573.45 75.467 561.97 83.713 573.45 77.083 561.97 85.266 573.45 78.638 561.97 86.885 573.45 80.258 561.98 89.047 573.45 82.422 561.98 91.342 573.45 84.719 561.98 92.606 573.45 85.984 561.98 94.18 573.45 87.558 561.98 95.979 573.45 89.359 561.99 97.288 573.45 90.669 561.99 99.585 573.45 92.968 561.99 100.85 573.45 94.233 561.7 103.21 573.45 96.427 559.4 106.8 573.45 98.689"/>
			<polyline points="545.86 34.625 562.41 25.073 549.64 33.829 563.6 25.766 553.01 33.846 565.15 26.839 555.26 34.399 566.49 27.912 557.4 35.423 567.93 29.345 558.49 36.196 568.78 30.259 559.73 37.325 569.74 31.548 560.79 38.735 570.72 33.005 561.29 39.796 571.26 34.035 561.71 40.852 571.74 35.065 561.9 42.193 572.26 36.212 561.99 44.378 572.8 38.139 561.99 46.323 573.19 39.857 561.99 48.307 573.36 41.746 561.99 49.87 573.45 43.253 561.99 52.117 573.46 45.498 561.99 53.78 573.46 47.158 561.99 55.688 573.46 49.064 562.41 56.985 573.47 50.6 565.15 56.978 573.47 52.173 568.78 56.969 573.48 54.26 572.27 56.96 573.48 56.263"/>
			<polyline points="535.08 27.678 540.88 24.333 530.18 32.8 548.11 22.447 528.61 35.591 551.73 22.243 527.84 37.66 554.21 22.432 527.3 39.432 556.16 22.772 527.08 41.523 558.54 23.363 526.95 43.261 560.24 24.04 526.95 45.016 561.95 24.809 526.95 47.268 539.18 40.21 526.95 49.164 538.6 42.439 526.95 50.668 538.53 43.982 526.95 52.955 538.53 46.268 526.95 54.44 538.53 47.754 526.95 55.637 538.53 48.951 526.95 57.208 538.53 50.522 526.95 58.928 538.53 52.242 526.95 60.089 538.53 53.403 526.95 61.608 538.53 54.922 526.95 63.419 538.53 56.733 526.95 64.995 538.53 58.309 526.95 66.219 538.53 59.532 526.95 67.765 538.53 61.078 526.95 69.124 538.53 62.438 526.95 71.045 538.53 64.358 526.95 73.188 538.53 66.502 526.95 74.989 538.53 68.303 526.95 76.604 538.53 69.918 526.95 78.566 538.53 71.879 526.95 80.812 538.53 74.125 526.95 83.009 538.53 76.323 526.95 84.33 538.53 77.643 526.95 86.039 538.53 79.353 526.95 88.117 538.53 81.431 526.95 90.016 538.53 83.329 526.95 91.468 538.53 84.782 526.95 92.74 538.53 86.054 526.95 94.88 538.53 88.194 526.95 96.114 538.53 89.428 526.95 97.446 538.53 90.759 526.95 99.306 538.53 92.62 526.95 100.98 538.53 94.293 527.06 102.29 538.53 95.662 527.2 103.64 538.53 97.094 527.47 105.1 538.53 98.708 528.04 106.91 538.53 100.86 528.53 108.12 538.69 102.26 529.05 109.06 538.96 103.34 529.82 110.48 539.7 104.78 530.47 111.3 540.38 105.58 531.51 112.6 541.65 106.74 532.66 113.78 543.13 107.73 533.99 114.98 545.01 108.62 535.01 115.78 546.51 109.14 536.01 116.44 548.08 109.47 537.35 117.34 550.48 109.75 538.96 118.13 553.76 109.58 540.1 118.69 573.45 99.433 542.21 119.46 573.44 101.43 544.31 120.12 573.25 103.42 547.18 120.69 572.75 105.93 549.98 120.94 571.97 108.25 553.72 120.86 570.29 111.3 558.56 119.89 567.21 114.9"/>
			<polyline points="619.2 22.506 619.7 22.216 619.2 24.135 622.54 22.209 619.2 26.181 626.1 22.199 619.2 28.257 629.71 22.19 619.21 30.165 630.69 23.533 619.21 32.158 630.69 25.527 619.21 34.187 630.69 27.556 619.21 36.475 630.69 29.844 619.21 38.067 630.7 31.436 619.21 39.932 630.7 33.301 619.21 41.327 630.7 34.696 619.21 43.513 630.7 36.883 619.21 44.762 630.7 38.132 619.21 46.378 630.7 39.748 619.21 47.932 630.7 41.302 619.22 49.552 630.7 42.922 619.22 51.715 630.7 45.086 619.22 54.011 630.7 47.382 619.22 55.276 630.7 48.647 619.22 56.85 630.7 50.221 619.22 58.65 630.7 52.022 619.22 59.96 630.7 53.331 619.22 62.258 630.7 55.63 619.22 63.523 630.7 56.895 619.22 65.717 630.7 59.089 619.22 67.977 630.7 61.35 619.22 70.166 630.7 63.538 619.23 71.854 630.7 65.227 619.23 73.392 630.7 66.765 619.23 74.862 630.71 68.235 619.23 76.248 630.71 69.621 619.23 78.347 630.71 71.721 619.23 80.138 630.71 73.511 619.23 82.136 630.71 75.51 619.23 84.038 630.71 77.412"/>
			<polyline points="597.23 55.876 607.42 49.989 597.64 57.024 607.82 51.147 598.22 58.656 608.37 52.793 598.76 60.189 608.89 54.34 599.43 62.068 609.53 56.234 599.84 63.231 609.93 57.408 600.38 64.763 610.45 58.953 600.98 66.441 611.02 60.645 601.38 67.557 611.4 61.771 601.76 68.639 611.76 62.862 602.19 69.842 612.17 64.076 602.85 71.698 612.81 65.948 603.42 73.312 613.35 67.576 604 74.959 613.92 69.237 604.46 76.256 614.36 70.545 605.13 78.121 614.99 72.426 605.62 79.501 615.46 73.818 606.18 81.084 616 75.415 606.63 82.36 616.43 76.702 607.1 83.668 616.88 78.021 607.71 85.402 617.47 79.77 608.3 87.066 618.03 81.448 608.67 88.105 618.38 82.496 609.14 89.427 618.84 83.83 609.61 90.747 630.71 78.565 610.04 91.954 630.71 80.019 610.6 93.533 630.71 81.921 610.96 94.568 630.71 83.168 611.52 96.138 630.71 85.06 612.06 97.66 630.71 86.894 612.63 99.263 630.71 88.824 613.02 100.36 630.71 90.151 613.42 101.49 630.71 91.508 614 103.11 630.71 93.456 614.66 104.98 630.71 95.711 615.12 106.28 630.72 97.276 615.59 107.58 630.72 98.85 616.16 109.21 630.72 100.81 616.78 110.93 630.72 102.88 617.38 112.62 630.72 104.92 617.75 113.68 630.72 106.2 618.17 114.86 630.72 107.62 618.69 116.33 630.72 109.39 619.05 117.34 630.72 110.6 619.62 118.93 630.72 112.52 620.54 120.21 630.72 114.34 624.34 120.21 630.72 116.52 628.05 120.2 630.72 118.66 630.17 120.2 630.72 119.88"/>
			<polyline points="585.63 22.506 586.13 22.217 585.63 24.799 590.12 22.21 585.63 26.684 593.39 22.205 585.63 28.304 596.2 22.2 585.63 29.767 598.17 22.531 585.63 31.732 598.72 24.175 585.63 33.395 599.19 25.567 585.63 35.15 599.69 27.036 585.63 37.402 600.32 28.921 585.63 39.298 600.86 30.508 585.63 40.803 601.28 31.768 585.63 43.089 601.93 33.682 585.63 44.574 602.35 34.925 585.63 45.771 602.68 35.927 585.63 47.342 603.13 37.242 585.63 49.062 603.61 38.681 585.63 50.224 603.94 39.654 585.63 51.743 604.37 40.925 585.63 53.553 604.88 42.441 585.63 55.129 605.32 43.76 585.63 56.353 605.67 44.784 585.63 57.899 606.11 46.078 585.63 59.259 606.49 47.217 585.63 61.179 607.03 48.824 585.63 63.322 597.09 56.706 585.63 65.123 597.09 58.506 585.63 66.739 597.09 60.121 585.63 68.7 597.1 62.082 585.63 70.946 597.1 64.328 585.63 73.143 597.1 66.524 585.63 74.464 597.1 67.845 585.63 76.173 597.1 69.553 585.63 78.251 597.1 71.631 585.63 80.15 597.1 73.529 585.63 81.603 597.1 74.981 585.63 82.875 597.1 76.253 585.63 85.015 597.1 78.392 585.63 86.248 597.1 79.626 585.63 87.58 597.1 80.957 585.63 89.441 597.1 82.817 585.63 91.114 597.1 84.49 585.63 92.482 597.11 85.858 585.63 93.915 597.11 87.29 585.63 95.529 597.11 88.904 585.63 97.677 597.11 91.051 585.63 99.166 597.11 92.54 585.63 100.4 597.11 93.777 585.63 102.27 597.11 95.645 585.63 103.46 597.11 96.834 585.63 105.36 597.11 98.736 585.63 107.21 597.11 100.58 585.63 109.18 597.11 102.55 585.63 110.56 597.11 103.93 585.63 111.8 597.12 105.18 585.63 113.47 597.12 106.84 585.63 115.19 597.12 108.56 585.63 116.41 597.12 109.78 585.63 118.4 597.12 111.77 585.73 120.22 597.12 113.65 589.6 120.21 597.12 115.87 592.85 120.2 597.12 117.74 596.47 120.2 597.12 119.82"/>
			<polyline points="305.65 140.11 306.21 139.79 305.33 142.17 309.11 139.99 304.96 144.51 308.76 142.32 304.56 147.04 308.39 144.83 304.3 148.75 308.14 146.53 304.05 150.33 307.91 148.1 303.67 152.76 307.55 150.52 303.42 154.3 307.33 152.05 303.11 156.32 307.03 154.06 302.89 157.72 306.83 155.45 302.66 159.2 306.61 156.91 302.29 161.55 306.26 159.25 301.99 163.43 305.99 161.12 301.78 164.8 305.79 162.48 301.51 166.5 305.54 164.17 301.14 168.86 305.19 166.52 300.94 170.15 305 167.8"/>
			<polyline points="293.94 150.9 297.1 149.08 294.2 152.38 297.36 150.56 294.53 154.24 297.68 152.42 294.86 156.12 298.01 154.3 295.16 157.86 298.31 156.04 295.48 159.66 298.63 157.85 295.81 161.51 298.95 159.69 296.17 163.58 299.31 161.77 296.43 165.03 299.56 163.22 296.72 166.72 299.86 164.91 296.95 167.99 300.08 166.18 297.3 169.98 300.43 168.17 297.49 171.11 300.63 169.3 297.75 172.58 304.91 168.45 298 173.99 304.66 170.15 298.26 175.46 304.4 171.92 298.6 177.42 304.05 174.28 298.97 179.51 303.68 176.79 299.17 180.66 303.47 178.18 300.6 181.41 303.22 179.9"/>
			<polyline points="292.24 140.11 292.8 139.79 291.97 141.65 295.23 139.77 291.59 143.84 295.76 141.42 291.23 145.89 296.06 143.1 290.8 148.4 296.42 145.16 290.52 149.96 296.64 146.43 290.17 152.01 296.93 148.11 289.78 154.26 293.6 152.05 289.52 155.76 293.34 153.55 289.27 157.2 293.09 155 288.99 158.82 292.81 156.61 288.56 161.3 292.38 159.09 288.18 163.46 292.01 161.25 287.8 165.67 291.62 163.46 287.5 167.4 291.32 165.2 287.06 169.9 290.89 167.69"/>
			<polyline points="278.7 140.06 279.16 139.79 279.01 142.17 282.16 140.36 279.27 143.9 282.43 142.08 279.49 145.4 282.66 143.57 279.69 146.75 282.87 144.91 279.96 148.56 283.16 146.71 280.18 150.09 283.4 148.23 280.42 151.7 283.65 149.84 280.73 153.78 283.98 151.9 280.99 155.53 284.25 153.64 281.19 156.91 284.47 155.02 281.51 159.02 284.8 157.12 281.71 160.39 285.02 158.48 281.87 161.49 285.19 159.58 282.09 162.94 285.42 161.02 282.32 164.52 285.66 162.59 282.48 165.59 285.83 163.66 282.69 166.99 286.05 165.05 282.93 168.66 286.31 166.71 283.15 170.11 286.54 168.15 283.32 171.24 286.72 169.27 283.53 172.66 290.75 168.49 283.71 173.91 290.49 170 283.98 175.68 290.12 172.13 284.27 177.66 289.71 174.52 284.51 179.32 289.36 176.52 284.73 180.8 289.05 178.31 287.09 181.4 288.67 180.49"/>
			<polyline points="317.8 158.53 322.72 155.69 320.64 158.52 325.56 155.68 324.2 158.51 328.58 155.98 327.81 158.5 328.6 158.05"/>
			<polyline points="317.8 143.12 323.61 139.77 320.21 143.12 326.01 139.77 323.63 143.11 329.43 139.76 326.84 143.1 329.96 141.3 329.48 143.1 329.98 142.81"/>
			<polyline points="314 140.08 314.5 139.79 314 142.37 318.48 139.78 314 144.25 321.76 139.78 314 145.87 317.3 143.97 314 147.34 317.31 145.43 314.01 149.3 317.31 147.39 314.01 150.96 317.32 149.05 314.01 152.72 317.32 150.8 314.02 154.96 317.32 153.05 314.02 156.86 317.33 154.95 314.02 158.36 318.64 155.7 314.02 160.65 317.3 158.75 314.02 162.13 317.3 160.24 314.02 163.33 317.31 161.43 314.03 164.9 317.31 163 314.03 166.62 317.31 164.72 314.03 167.78 317.31 165.88 314.03 169.3 317.32 167.4 314.03 171.1 317.32 169.21 314.04 172.68 317.32 170.78 314.04 173.9 317.32 172.01 314.04 175.45 317.32 173.55 314.04 176.81 317.33 174.91 314.04 178.72 317.33 176.83 314.05 180.87 318.87 178.08 316.21 181.42 322 178.08 319.02 181.41 324.81 178.07 322.42 181.41 328.22 178.06 326.33 181.4 329.96 179.3 329.48 181.4 329.98 181.11"/>
			<polyline points="337.95 143.09 343.62 139.82 340.8 143.08 346 140.08 344.29 143.11 348.07 140.93 346.75 143.77 349.67 142.08 348.24 144.82 350.84 143.32 349.19 146.26 351.73 144.79 349.47 148.13 352.36 146.46 349.47 150.42 352.71 148.55 349.47 152.01 352.77 150.11 349.47 153.88 352.77 151.97 349.29 155.37 352.77 153.37 347.85 158.08 352.63 155.32"/>
			<polyline points="337.95 162.62 342.74 159.86 340.37 162.62 345.64 159.57 343.8 162.6 351.57 158.11 346.48 162.9 349.6 161.1 348.49 164 351.3 162.38 349.4 164.88 352.07 163.34 350.28 166.22 353.03 164.63 350.82 167.93 353.76 166.23 350.95 169.2 354.03 167.42 350.95 170.5 354.21 168.62 350.95 171.95 354.24 170.05 350.65 174.36 354.13 172.35"/>
			<polyline points="334.07 140.11 334.57 139.82 334.07 142.4 338.54 139.82 334.07 144.28 341.8 139.82 334.08 145.9 337.32 144.03 334.08 147.37 337.32 145.49 334.08 149.33 337.33 147.45 334.08 150.99 337.34 149.11 334.08 152.74 337.34 150.86 334.09 155 337.35 153.11 334.09 156.89 337.36 155 334.09 158.39 337.36 156.5 334.09 160.68 337.37 158.79 334.1 162.16 338.08 159.86 334.1 163.36 340.15 159.86 334.1 164.93 337.32 163.07 334.1 166.65 337.32 164.79 334.1 167.81 337.33 165.95 334.1 169.33 337.33 167.46 334.11 171.14 337.34 169.27 334.11 172.71 337.35 170.84 334.11 173.93 337.35 172.06 334.11 175.48 337.36 173.6 334.11 176.84 337.36 174.96 334.12 178.76 337.37 176.88 334.12 180.9 338.93 178.12 336.35 181.41 342.05 178.12 339.17 181.4 344.91 178.08 342.6 181.38 353.5 175.08 347.16 180.99 351.1 178.72"/>
			<polyline points="369.3 169.04 369.81 168.75 369.31 170.67 372.64 168.75 369.33 172.7 372.64 170.8 369.57 174.64 372.66 172.86 370.14 176.22 373.02 174.56 371.02 177.71 373.91 176.04 372.21 179.05 375.31 177.26 373.96 180.33 377.74 178.14 375.52 181.02 381.32 177.67 377.9 181.51 387.23 176.12 380.52 181.4 385.94 178.26"/>
			<polyline points="377.12 143.3 382.06 140.44 379.65 143.22 383.4 141.06 381.8 143.94 384.94 142.13 383.15 145.01 386.09 143.31 384.23 146.65 387.13 144.98 384.56 147.86 387.56 146.13 384.68 149.64 387.88 147.79 384.68 151.66 387.99 149.75 385.02 152.81 388 151.09 387.31 152.79 388.01 152.39"/>
			<polyline points="372.16 142.37 375.77 140.28 369.8 146.02 380.29 139.97 369.39 148.14 373.66 145.68 369.33 149.8 372.81 147.79 369.33 151.26 372.69 149.32 369.33 153.23 372.69 151.29 369.35 154.88 372.69 152.95 369.57 156.51 372.69 154.71 370.32 158.32 373.25 156.63 371.33 159.64 374.37 157.88 372.37 160.54 375.63 158.66 374.31 161.71 378.37 159.36 375.93 162.26 380.42 159.67 377.54 162.53 381.84 160.04 379.85 162.76 383.45 160.68 381.88 163.31 384.94 161.55 382.87 163.9 385.82 162.2 383.87 164.84 386.7 163.21 384.51 166.28 387.48 164.57 384.63 167.79 387.85 165.93 384.63 169.01 387.98 167.08 384.63 170.56 387.98 168.62 384.63 171.92 387.98 169.98 384.46 173.94 387.98 171.9 383.07 176.44 387.87 173.67"/>
			<polyline points="402.46 143.12 408.28 139.76 404.88 143.11 409.21 140.61 408.31 143.1 409.23 142.57"/>
			<polyline points="391.21 140.08 391.71 139.79 391.21 142.37 395.69 139.78 393.18 143.12 398.97 139.78 396.01 143.11 401.78 139.77 398.56 143.1 404.32 139.77 398.63 145.02 407.74 139.76 398.63 146.69 401.96 144.76 398.63 148.44 401.96 146.52 398.63 150.69 401.96 148.77 398.63 152.59 401.96 150.66 398.63 154.09 401.97 152.16 398.63 156.38 401.97 154.45 398.64 157.86 401.97 155.94 398.64 159.06 401.97 157.13 398.64 160.63 401.97 158.7 398.64 162.35 401.97 160.42 398.64 163.51 401.97 161.58 398.64 165.02 401.98 163.1 398.64 166.84 401.98 164.91 398.64 168.41 401.98 166.49 398.64 169.63 401.98 167.71 398.65 171.18 401.98 169.25 398.65 172.54 401.98 170.61 398.65 174.46 401.98 172.53 398.65 176.6 401.98 174.68 398.65 178.4 401.98 176.48 398.65 180.02 401.99 178.09 399.62 181.42 401.99 180.05"/>
			<polyline points="428.97 140.08 429.48 139.79 428.97 141.46 431.91 139.76 428.97 143.43 432.36 141.47 428.97 145.28 432.36 143.32 428.98 147.54 432.36 145.59 428.98 148.94 432.36 146.99 428.98 150.78 432.36 148.83 428.98 152.8 432.36 150.86 428.98 154.15 432.36 152.2 428.98 155.45 432.36 153.5 428.98 156.9 432.36 154.95 428.98 159.14 432.36 157.19 428.99 161.08 432.36 159.14 428.99 163.06 432.36 161.12 428.99 164.62 432.36 162.68 428.99 166.87 432.36 164.93 428.99 168.53 432.36 166.59 429 170.44 432.36 168.5 429 171.98 432.36 170.04 428.87 173.62 432.36 171.61 427.39 176.47 432.27 173.65"/>
			<polyline points="413.85 140.08 414.36 139.79 413.85 142.37 417.16 140.46 413.85 144.26 417.16 142.35 413.85 145.88 417.16 143.97 413.85 147.34 417.16 145.43 413.85 149.31 417.16 147.4 413.85 150.97 417.16 149.06 413.85 152.72 417.16 150.82 413.85 154.98 417.16 153.07 413.85 156.87 417.16 154.96 413.85 158.38 417.16 156.47 413.85 160.66 417.16 158.75 413.85 162.15 417.16 160.24 413.85 163.34 417.16 161.44 413.85 164.92 417.16 163.01 413.85 166.64 417.16 164.73 413.85 167.8 417.16 165.89 413.85 169.32 417.16 167.41 413.85 171.13 417.16 169.22 413.85 172.7 417.16 170.79 413.97 173.86 417.16 172.02 414.23 175.25 417.26 173.5 414.66 176.36 417.52 174.71 415.51 177.8 418.38 176.14 416.78 179.21 419.9 177.41 418.14 180.22 421.75 178.14 419.64 180.97 424.62 178.1 422.05 181.54 431.71 175.96 425.92 181.16 429.57 179.06"/>
			<polyline points="441.63 142.99 447.03 139.87 444.05 142.98 448.92 140.17 447.29 143.07 450.92 140.98 449.34 143.74 452.39 141.98 450.97 145.06 453.76 143.45 451.58 146.11 454.45 144.45 452 147.72 455.04 145.96 452.08 149.69 455.33 147.81 452.08 151.04 455.38 149.13 452.08 152.34 455.38 150.44 452.08 153.79 455.38 151.88 452.08 156.02 455.38 154.12 452.08 157.97 455.38 156.07 452.08 159.95 455.38 158.05 452.08 161.52 455.38 159.61 452.08 163.76 455.38 161.86 452.08 165.43 455.38 163.52 452.08 167.34 455.38 165.43 452.08 168.87 455.38 166.97 452.08 170.45 455.38 168.54 452.08 172.54 455.38 170.63 451.78 174.72 455.38 172.64"/>
			<polyline points="437.75 140.11 438.25 139.82 437.75 142.4 442.22 139.82 437.76 144.28 445.49 139.82 437.76 145.9 441 144.03 437.76 147.37 441 145.5 437.76 149.33 441 147.46 437.76 150.99 441.01 149.12 437.77 152.74 441.01 150.87 437.77 155 441.01 153.12 437.77 156.89 441.02 155.02 437.77 158.39 441.02 156.52 437.78 160.68 441.02 158.8 437.78 162.16 441.02 160.29 437.78 163.36 441.03 161.48 437.78 164.93 441.03 163.05 437.78 166.65 441.03 164.77 437.78 167.81 441.04 165.93 437.79 169.33 441.04 167.45 437.79 171.14 441.04 169.26 437.79 172.71 441.04 170.83 437.79 173.93 441.04 172.06 437.79 175.48 441.05 173.6 437.8 176.84 441.05 174.96 437.8 178.76 441.05 176.88 437.8 180.9 442.44 178.22 440.03 181.41 445.56 178.22 442.87 181.39 455.19 174.27 446.3 181.37 454.4 176.69 449.35 180.87 452.79 178.89"/>
			<polyline points="460.82 140.08 461.33 139.79 460.82 142.37 464.33 140.35 460.83 144.25 464.33 142.23 460.83 145.87 464.34 143.85 460.83 147.34 464.34 145.31 460.83 149.3 464.34 147.28 460.84 150.96 464.34 148.94 460.84 152.71 464.34 150.69 460.84 154.96 464.34 152.94 460.84 156.86 464.34 154.84 460.84 158.36 464.34 156.34 460.85 160.65 464.35 158.63 460.85 162.13 464.35 160.11 460.85 163.33 464.35 161.31 460.85 164.9 464.35 162.88 460.86 166.62 464.35 164.6 460.86 167.78 464.35 165.76 460.86 169.3 464.35 167.28 460.86 171.1 464.35 169.09 460.86 172.68 464.36 170.66 460.86 173.9 464.36 171.89 460.86 175.45 464.36 173.43 460.87 176.81 464.36 174.79 460.87 178.72 464.36 176.71 460.87 180.87 464.36 178.85 463.06 181.4 464.36 180.65"/>
			<polyline points="478.08 143.29 483.34 140.25 480.93 143.02 484.9 140.74 483.44 143.54 486.68 141.67 485.14 144.41 488.03 142.74 486.51 145.88 489.31 144.26 487.05 146.97 489.85 145.35 487.27 148.69 490.34 146.92 487.27 150.71 490.52 148.84 487.27 152.06 490.52 150.18 487.27 153.36 490.52 151.49 487.27 154.81 490.52 152.94 487.27 157.05 490.52 155.17 487.27 158.99 490.52 157.12 487.27 160.98 490.52 159.1 487.27 162.54 490.52 160.66 487.27 164.79 490.52 162.91 487.27 166.45 490.52 164.57 487.27 168.36 490.52 166.48 487.27 169.89 490.52 168.02 487.27 171.47 490.52 169.6 487.22 173.59 490.52 171.68 485.96 176.31 490.46 173.72"/>
			<polyline points="472.75 142.67 476.53 140.48 470.4 146.32 481.47 139.93 470.14 148.36 474 146.12 470.14 149.98 473.4 148.09 470.14 151.44 473.38 149.56 470.14 153.4 473.38 151.53 470.14 155.07 473.38 153.19 470.14 156.82 473.38 154.95 470.14 159.07 473.38 157.2 470.14 160.97 473.38 159.1 470.14 162.47 473.38 160.6 470.14 164.76 473.38 162.89 470.14 166.25 473.38 164.37 470.14 167.44 473.38 165.57 470.14 169.01 473.38 167.14 470.14 170.73 473.38 168.86 470.14 171.9 473.38 170.02 470.15 173.41 473.38 171.54 470.4 175.07 473.38 173.35 470.92 176.35 473.65 174.77 471.43 177.28 474.19 175.68 472.28 178.34 475.11 176.7 473.2 179.16 476.18 177.44 474.72 180.2 478.15 178.22 476.87 181.1 481.54 178.41 479.2 181.56 490.25 175.18 482.1 181.5 489.14 177.44"/>
		</g>
</svg>
