<?xml version="1.0" encoding="utf-8"?>
<!-- Generator: Adobe Illustrator 17.0.0, SVG Export Plug-In . SVG Version: 6.00 Build 0)  -->
<!DOCTYPE svg PUBLIC "-//W3C//DTD SVG 1.1//EN" "http://www.w3.org/Graphics/SVG/1.1/DTD/svg11.dtd">
<svg version="1.1" id="Capa_1" xmlns="http://www.w3.org/2000/svg" xmlns:xlink="http://www.w3.org/1999/xlink" x="0px" y="0px"
	 width="900px" height="300px" viewBox="0 0 900 300" enable-background="new 0 0 900 300" xml:space="preserve">
<g>
	<g>
		<path fill="#4A4B4B" d="M606,273H216V23.304c0-5.192,5.171-8.304,10.363-8.304H597.65c5.192,0,8.35,3.113,8.35,8.304V273z"/>
		<rect x="231" y="33" fill="#F2F2F2" width="361" height="220"/>
		<path fill="#807F7F" d="M637.6,292H188.763c-7.049,0-18.798-9-18.798-9H656.4C656.4,283,644.649,292,637.6,292z"/>
		<path fill="#B1B1B1" d="M656,283H170v-10.604c0-2.594,2.068-3.396,4.665-3.396h477.033c2.597,0,4.302,0.802,4.302,3.396V283z"/>
		<path fill="#E6E6E5" d="M455.481,277h-84.599c-7.049,0-7.049-8-7.049-8h98.697C462.53,269,462.53,277,455.481,277z"/>
	</g>
	<g>
		<rect x="283" y="62" fill="#506661" width="108" height="20"/>
		<rect x="481" y="62" fill="#506661" width="58" height="9"/>
		<rect x="283" y="186" fill="#E5CD8F" width="81" height="40"/>
		<rect x="370" y="186" fill="#E5CD8F" width="80" height="40"/>
		<rect x="458" y="186" fill="#E5CD8F" width="81" height="40"/>
		<rect x="283" y="92" fill="#99A350" width="256" height="61"/>
		<rect x="339" y="162" fill="#506661" width="145" height="2"/>
		<rect x="358" y="173" fill="#506661" width="104" height="5"/>
	</g>
	<path opacity="0.3" fill="#FFFFFF" d="M500.206,292H637.6c7.049,0,18.8-9,18.8-9H656v-10.604c0-2.594-1.705-3.396-4.302-3.396H606
		V23.304c0-5.192-3.159-8.304-8.35-8.304H362.358L500.206,292z"/>
</g>
<g>
	<g>
		<path fill-rule="evenodd" clip-rule="evenodd" fill="#EED2B5" d="M65.793,120.605L65.793,120.605
			c-4.689,4.744-4.583,12.404,0.097,17.146l85.601,86.755c4.678,4.742,12.457,4.645,17.146-0.097l0,0
			c4.69-4.744,4.586-12.397-0.099-17.144l-85.602-86.757C78.252,115.76,70.481,115.863,65.793,120.605z"/>
		<polygon fill-rule="evenodd" clip-rule="evenodd" fill="#EED2B5" points="217.084,276.897 151.312,289.743 141.219,238.069 
			94.962,171.287 192.726,152.191 		"/>
		<path fill-rule="evenodd" clip-rule="evenodd" fill="#EED2B5" d="M66.954,159.584L66.954,159.584
			c-4.689,4.743-4.581,12.404,0.098,17.146l85.601,86.755c4.678,4.742,12.457,4.646,17.146-0.097l0,0
			c4.689-4.744,4.585-12.396-0.099-17.144l-85.603-86.756C79.413,154.738,71.643,154.841,66.954,159.584z"/>
		<path fill-rule="evenodd" clip-rule="evenodd" fill="#EED2B5" d="M57.747,72.828L57.747,72.828
			c-4.688,4.742-4.586,12.405,0.097,17.145l82.473,83.49c4.684,4.741,12.457,4.645,17.145-0.097l0,0
			c4.69-4.743,4.589-12.4-0.099-17.144L74.891,72.73C70.203,67.986,62.435,68.085,57.747,72.828z"/>
		<g>
			<path fill-rule="evenodd" clip-rule="evenodd" fill="#4C4D4D" d="M163.925,17.693h-59.96c-11.611,0-21.112,9.5-21.112,21.113
				v159.188c0,11.612,9.501,21.112,21.112,21.112h59.96c11.612,0,21.113-9.5,21.113-21.112V38.806
				C185.038,27.192,175.537,17.693,163.925,17.693z"/>
			<path fill-rule="evenodd" clip-rule="evenodd" fill="#FFFFFF" d="M175.755,34.583H92.137c-0.164,0-0.296,0.133-0.296,0.295
				v165.354c0,0.162,0.132,0.295,0.296,0.295h83.618c0.163,0,0.295-0.133,0.295-0.295V34.878
				C176.05,34.716,175.918,34.583,175.755,34.583z"/>
			<path fill-rule="evenodd" clip-rule="evenodd" fill="#B3B2B2" d="M149.436,22.675h-30.982c-0.84,0-1.527,0.687-1.527,1.527v0.001
				c0,0.84,0.687,1.527,1.527,1.527h30.982c0.84,0,1.527-0.686,1.527-1.527v-0.001C150.963,23.362,150.276,22.675,149.436,22.675z"
				/>
			<circle fill-rule="evenodd" clip-rule="evenodd" fill="#B3B2B2" cx="133.945" cy="209.529" r="5.162"/>
		</g>
		<path fill-rule="evenodd" clip-rule="evenodd" fill="#EED2B5" d="M58.924,151.609L58.924,151.609
			c-4.69,4.744-4.627,12.455,0.097,17.146l16.061,15.948c4.724,4.692,12.457,4.646,17.146-0.097l0,0
			c4.69-4.744,4.635-12.444-0.099-17.144l-16.06-15.95C71.334,146.812,63.613,146.867,58.924,151.609z"/>
		<path fill-rule="evenodd" clip-rule="evenodd" fill="#EED2B5" d="M56.632,111.509L56.632,111.509
			c-4.688,4.742-4.627,12.454,0.098,17.145l13.677,13.583c4.724,4.692,12.457,4.645,17.146-0.097l0,0
			c4.689-4.743,4.635-12.445-0.099-17.144l-13.679-13.584C69.043,106.711,61.32,106.765,56.632,111.509z"/>
		<polygon fill-rule="evenodd" clip-rule="evenodd" fill="#FFFFFF" points="221.889,255.417 138.777,271.651 144.314,300 
			230.598,300 		"/>
		<path fill-rule="evenodd" clip-rule="evenodd" fill="#EED2B5" d="M198.972,226.759l-8.404,1.642l-1.117-10.577l-9.017-84.905
			c-1.527-14.384,5.724-20.152,14.404-22.957c4.78-1.543,5.919-2.868,6.384,1.514l10.324,97.19
			C212.44,217.083,206.784,225.233,198.972,226.759z"/>
	</g>
	<path fill-rule="evenodd" clip-rule="evenodd" fill="#F9EFE6" d="M86.061,125.903l-4.058-3.955
		c-8.353,1.23-12.864,6.235-14.167,14.396l3.806,3.853C82.023,150.657,94.845,134.246,86.061,125.903z"/>
	<path fill-rule="evenodd" clip-rule="evenodd" fill="#F9EFE6" d="M197.08,109.308c3.186-0.844,3.726-1.745,4.031,1.121
		l1.907,17.983C196.021,127.56,196.574,116.505,197.08,109.308z"/>
	<path fill-rule="evenodd" clip-rule="evenodd" fill="#F9EFE6" d="M90.77,169.306l-4.058-3.954
		c-8.353,1.23-12.865,6.235-14.168,14.396l3.806,3.853C86.733,194.059,99.555,177.648,90.77,169.306z"/>
</g>
<g>
	<g>
		<rect x="101" y="63" fill="#546B67" width="65" height="16"/>
		<rect x="114" y="49" fill="#546B67" width="37" height="6"/>
		<rect x="101" y="156" fill="#F2D995" width="65" height="27"/>
		<rect x="101" y="87" fill="#A5B051" width="65" height="44"/>
		<rect x="109" y="136" fill="#546B67" width="50" height="4"/>
		<rect x="101" y="144" fill="#546B67" width="65" height="5"/>
	</g>
</g>
<path opacity="0.3" fill="#FFFFFF" d="M115.157,34h49.039C170.025,34,176,39.7,176,45.524v144.172
	c0,5.822-5.975,11.304-11.804,11.304h-15.592L115.157,34z"/>
<g>
	<polygon fill-rule="evenodd" clip-rule="evenodd" fill="#EED2B5" points="592.183,269.894 648.772,282.329 658.542,237.868 
		699.876,181.081 615.76,162.598 	"/>
	<path fill-rule="evenodd" clip-rule="evenodd" fill="#CFB499" d="M620.685,182.095c8.44,13.149,20.993,33.186,7.206,48.58
		C621.751,225.933,613.776,200.7,620.685,182.095z"/>
	<g>
		<path fill-rule="evenodd" clip-rule="evenodd" fill="#5D5D5D" d="M650.308,10.157h81.669c15.815,0,28.754,9.254,28.754,20.566
			v155.072c0,11.311-12.939,20.566-28.754,20.566h-81.669c-15.816,0-28.755-9.256-28.755-20.566V30.723
			C621.553,19.411,634.492,10.157,650.308,10.157z"/>
		<path fill-rule="evenodd" clip-rule="evenodd" fill="#FFFFFF" d="M630.483,26.609h121.318c0.235,0,0.43,0.13,0.43,0.289v161.075
			c0,0.159-0.195,0.289-0.43,0.289H630.483c-0.236,0-0.429-0.13-0.429-0.289V26.898C630.054,26.739,630.247,26.609,630.483,26.609z"
			/>
		<path fill-rule="evenodd" clip-rule="evenodd" fill="#B1B1B1" d="M676.052,15.01h30.18c0.819,0,1.488,0.669,1.488,1.487v0.001
			c0,0.818-0.669,1.487-1.488,1.487h-30.18c-0.819,0-1.488-0.669-1.488-1.487v-0.001C674.564,15.68,675.233,15.01,676.052,15.01z"/>
		<circle fill-rule="evenodd" clip-rule="evenodd" fill="#B1B1B1" cx="691.142" cy="197.032" r="5.027"/>
		<g>
			<g>
				<rect x="638" y="43" fill="#526964" width="45" height="15"/>
				<rect x="720" y="43" fill="#526964" width="24" height="7"/>
				<rect x="638" y="138" fill="#ECD493" width="34" height="30"/>
				<rect x="675" y="138" fill="#ECD493" width="33" height="30"/>
				<rect x="711" y="138" fill="#ECD493" width="33" height="30"/>
				<rect x="638" y="66" fill="#9FA951" width="106" height="47"/>
				<rect x="662" y="118" fill="#526964" width="59" height="5"/>
				<rect x="670" y="128" fill="#526964" width="43" height="4"/>
			</g>
		</g>
	</g>
	<polygon fill-rule="evenodd" clip-rule="evenodd" fill="#FFFFFF" points="589.222,240.492 662.003,256.386 652.329,300.681 
		576.079,300.681 	"/>
	<g opacity="0.3">
		<path fill="#FFFFFF" d="M667.392,26h74.854c5.439,0,9.754,5.375,9.754,10.816v140.427c0,5.441-4.315,9.757-9.754,9.757H715.66
			L667.392,26z"/>
	</g>
	<path fill-rule="evenodd" clip-rule="evenodd" fill="#EED2B5" d="M601.558,227.231l9.209,5.184l2.252-14.214l15.328-72.212
		c3.189-15.019-6.161-20.051-15.419-22.877l-16.308,76.829C595.102,207.098,595.561,223.857,601.558,227.231z"/>
	<g>
		<g>
			<path fill-rule="evenodd" clip-rule="evenodd" fill="#EED2B5" d="M749.973,240.024l25.461,60.657h53.913
				c2.378-2.117,4.707-4.288,6.98-6.511l-26.276-65.57L749.973,240.024z"/>
			<polygon fill-rule="evenodd" clip-rule="evenodd" fill="#FFFFFF" points="828.992,254.153 847.142,300.681 769.727,300.681 
				761.846,280.895 			"/>
		</g>
		<g>
			<path fill-rule="evenodd" clip-rule="evenodd" fill="#EED2B5" d="M696.949,192.506l29.343,41.66
				c3.776,5.362,23.425,21.951,29.074,18.618c5.645-3.331-2.324-21.676-6.24-26.946l-22.492-28.201
				C713.74,181.468,702.648,188.229,696.949,192.506z"/>
			<path fill-rule="evenodd" clip-rule="evenodd" fill="#EED2B5" d="M706.019,109.727l23.652,54.01
				c1.888-9.781,16.799-11.278,22.195-2.05c0.558-10.289,14.475-12.853,20.997-5.441c2.075-9.398,17.036-10.307,21.456-0.31
				l20.243,45.782c5.683,12.854,6.04,32.466,3.457,41.449c-7.66,26.628-42.856,27.472-55.246,19.288
				c-9.66-6.38-17.258-9.858-20.396-16.697l-58.004-126.799C677.022,102.936,700.333,96.395,706.019,109.727z"/>
			<path fill-rule="evenodd" clip-rule="evenodd" fill="#CFB499" d="M780.631,171.976c0,0-3.835-9.158-7.278-17.278
				c-0.203,0.487-0.369,1.003-0.49,1.548c-0.573-0.65-1.204-1.224-1.876-1.721C775.282,162.434,780.631,171.976,780.631,171.976
				L780.631,171.976z M729.731,163.459c0.193-0.864,0.487-1.662,0.87-2.39c3.827,9.113,10.016,24.839,10.016,24.839
				s-7.894-15.478-10.946-22.17C729.719,163.84,729.735,163.721,729.731,163.459L729.731,163.459z M748.995,158.35
				c1.109,0.893,2.091,2.003,2.871,3.336c0.036-0.684,0.135-1.334,0.284-1.948c3.888,8.953,8.659,20.064,8.659,20.064
				S753.385,166.64,748.995,158.35z"/>
		</g>
	</g>
	<path fill-rule="evenodd" clip-rule="evenodd" fill="#F9EFE6" d="M616.17,124.211c-1.069-0.406-2.156-0.768-3.241-1.1
		l-3.644,17.168C615.444,140.171,615.962,130.512,616.17,124.211z"/>
	<path fill-rule="evenodd" clip-rule="evenodd" fill="#F9EFE6" d="M703.073,110.282l2.016,4.638
		c-3.67,6.582-9.276,8.764-16.499,7.268l-2.011-4.396C681.136,105.817,698.89,100.31,703.073,110.282z"/>
	<path fill-rule="evenodd" clip-rule="evenodd" fill="#EED2B5" d="M620.685,182.095c5.791,10.197,14.018,28.816,8.822,45.271
		C624.311,243.82,609.589,207.014,620.685,182.095z"/>
	<path fill-rule="evenodd" clip-rule="evenodd" fill="#F9EFE6" d="M699.959,190.878c-1.023,0.507-2.029,1.059-3.01,1.629
		l10.107,14.349C711.165,202.266,704.437,195.317,699.959,190.878z"/>
	<polygon fill-rule="evenodd" clip-rule="evenodd" fill="#CFB499" points="716.38,188.923 730.697,220.222 712.313,188.262 	"/>
</g>
<g>
</g>
<g>
</g>
<g>
</g>
<g>
</g>
<g>
</g>
<g>
</g>
</svg>
