<?xml version="1.0" encoding="utf-8"?>
<!-- Generator: Adobe Illustrator 17.0.0, SVG Export Plug-In . SVG Version: 6.00 Build 0)  -->
<!DOCTYPE svg PUBLIC "-//W3C//DTD SVG 1.1//EN" "http://www.w3.org/Graphics/SVG/1.1/DTD/svg11.dtd">
<svg version="1.1" id="Capa_1" xmlns="http://www.w3.org/2000/svg" xmlns:xlink="http://www.w3.org/1999/xlink" x="0px" y="0px"
	 width="825px" height="725px" viewBox="0 0 825 725" style="enable-background:new 0 0 825 725;" xml:space="preserve">
<style type="text/css">
	.st0{fill:#EED2B5;}
	.st1{fill:#4C4D4D;}
	.st2{fill:#FFFFFF;}
	.st3{fill:#B3B2B2;}
	.st4{fill:#F9EFE6;}
	.st5{fill:#546B67;}
	.st6{fill:#F2D995;}
	.st7{fill:#A5B051;}
	.st8{opacity:0.3;fill:#FFFFFF;enable-background:new    ;}
</style>
<g>
	<g>
		<path class="st0" d="M244.843,315.888L244.843,315.888c-10.719,10.845-10.476,28.357,0.221,39.198l195.692,198.329
			c10.694,10.84,28.477,10.619,39.196-0.223l0,0c10.721-10.844,10.485-28.34-0.226-39.193L284.034,315.665
			C273.325,304.811,255.56,305.047,244.843,315.888z"/>
		<polygon class="st0" points="590.705,673.184 440.345,702.551 417.273,584.421 311.526,431.75 535.022,388.096 		"/>
		<path class="st0" d="M247.496,404.998L247.496,404.998c-10.719,10.843-10.473,28.357,0.224,39.196l195.691,198.329
			c10.694,10.841,28.477,10.622,39.198-0.223l0,0c10.719-10.844,10.481-28.339-0.226-39.193L286.687,404.775
			C275.979,393.919,258.215,394.153,247.496,404.998z"/>
		<path class="st0" d="M226.447,206.666L226.447,206.666c-10.717,10.841-10.483,28.358,0.223,39.194l188.541,190.866
			c10.707,10.839,28.479,10.62,39.196-0.223l0,0c10.721-10.843,10.49-28.347-0.226-39.193L265.642,206.441
			C254.923,195.596,237.166,195.822,226.447,206.666z"/>
		<g>
			<path class="st1" d="M469.181,80.621H332.107c-26.544,0-48.264,21.717-48.264,48.266v363.918
				c0,26.546,21.72,48.264,48.264,48.264h137.074c26.546,0,48.266-21.719,48.266-48.264V128.887
				C517.447,102.338,495.727,80.621,469.181,80.621z"/>
			<path class="st2" d="M496.224,119.233H305.066c-0.375,0-0.677,0.304-0.677,0.675v378.013c0,0.371,0.302,0.675,0.677,0.675
				h191.158c0.373,0,0.675-0.304,0.675-0.675V119.908C496.899,119.537,496.597,119.233,496.224,119.233z"/>
			<path class="st3" d="M436.058,92.01h-70.827c-1.921,0-3.492,1.571-3.492,3.492v0.002c0,1.921,1.57,3.49,3.492,3.49h70.827
				c1.92,0,3.49-1.568,3.49-3.49v-0.002C439.548,93.582,437.978,92.01,436.058,92.01z"/>
			<circle class="st3" cx="400.644" cy="519.176" r="11.802"/>
		</g>
		<path class="st0" d="M229.138,386.766L229.138,386.766c-10.721,10.844-10.577,28.472,0.221,39.198l36.717,36.458
			c10.8,10.727,28.477,10.622,39.196-0.221l0,0c10.721-10.844,10.595-28.449-0.226-39.193l-36.715-36.463
			C257.51,375.799,239.859,375.925,229.138,386.766z"/>
		<path class="st0" d="M223.898,295.094L223.898,295.094c-10.717,10.841-10.577,28.471,0.224,39.196l31.267,31.051
			c10.8,10.726,28.477,10.62,39.198-0.223l0,0c10.719-10.843,10.595-28.449-0.226-39.193l-31.27-31.054
			C252.272,284.125,234.617,284.249,223.898,295.094z"/>
		<polygon class="st2" points="601.692,624.079 411.69,661.191 424.349,726 621.6,726 		"/>
		<path class="st0" d="M549.3,558.564l-19.213,3.754l-2.554-24.18l-20.614-194.101c-3.492-32.883,13.086-46.07,32.929-52.482
			c10.929-3.528,13.532-6.557,14.595,3.46L578.045,517.2C580.089,536.445,567.159,555.076,549.3,558.564z"/>
	</g>
	<path class="st4" d="M291.176,328l-9.278-9.042c-19.096,2.811-29.408,14.253-32.386,32.91l8.7,8.807
		C281.944,384.588,311.257,347.072,291.176,328z"/>
	<path class="st4" d="M544.977,290.062c7.284-1.93,8.518-3.99,9.215,2.564l4.36,41.11
		C542.555,331.787,543.818,306.514,544.977,290.062z"/>
	<path class="st4" d="M301.942,427.221l-9.276-9.04c-19.096,2.812-29.41,14.253-32.388,32.91l8.702,8.807
		C292.712,483.809,322.025,446.294,301.942,427.221z"/>
</g>
<g>
	<g>
		<rect x="327.002" y="185" class="st5" width="147" height="36"/>
		<rect x="354.002" y="151" class="st5" width="87" height="15"/>
		<rect x="327.002" y="396" class="st6" width="147" height="63"/>
		<rect x="327.002" y="238" class="st7" width="147" height="102"/>
		<rect x="343.002" y="351" class="st5" width="115" height="8"/>
		<rect x="327.002" y="368" class="st5" width="147" height="12"/>
	</g>
</g>
<path class="st8" d="M357.692,119H469.8c13.326,0,26.202,11.933,26.202,25.247v329.589c0,13.31-12.876,25.164-26.202,25.164h-35.644
	L357.692,119z"/>
</svg>
