<?xml version="1.0" encoding="utf-8"?>
<!-- Generator: Adobe Illustrator 17.0.0, SVG Export Plug-In . SVG Version: 6.00 Build 0)  -->
<!DOCTYPE svg PUBLIC "-//W3C//DTD SVG 1.1//EN" "http://www.w3.org/Graphics/SVG/1.1/DTD/svg11.dtd">
<svg version="1.1" id="Capa_1" xmlns="http://www.w3.org/2000/svg" xmlns:xlink="http://www.w3.org/1999/xlink" x="0px" y="0px"
	 width="825px" height="725px" viewBox="0 0 825 725" style="enable-background:new 0 0 825 725;" xml:space="preserve">
<style type="text/css">
	.st0{fill-rule:evenodd;clip-rule:evenodd;fill:#EED2B5;}
	.st1{fill-rule:evenodd;clip-rule:evenodd;fill:#CFB499;}
	.st2{fill-rule:evenodd;clip-rule:evenodd;fill:#4B4C4C;}
	.st3{fill-rule:evenodd;clip-rule:evenodd;fill:#FFFFFF;}
	.st4{fill-rule:evenodd;clip-rule:evenodd;fill:#B1B1B1;}
	.st5{fill:#526964;}
	.st6{fill:#ECD493;}
	.st7{fill:#9FA951;}
	.st8{opacity:0.3;}
	.st9{fill:#FFFFFF;}
	.st10{fill-rule:evenodd;clip-rule:evenodd;fill:#F9EFE6;}
</style>
<g>
	<polygon class="st0" points="156.516,659.069 278.951,685.975 300.09,589.78 389.518,466.917 207.527,426.926 	"/>
	<path class="st1" d="M218.182,469.11c18.262,28.45,45.421,71.8,15.591,105.108C220.488,563.958,203.235,509.364,218.182,469.11z"/>
	<g>
		<path class="st2" d="M282.274,97.107h176.698c34.217,0,62.212,20.022,62.212,44.495v335.511c0,24.472-27.995,44.497-62.212,44.497
			H282.274c-34.219,0-62.214-20.025-62.214-44.497V141.602C220.06,117.129,248.056,97.107,282.274,97.107z"/>
		<path class="st3" d="M239.382,132.703h262.482c0.508,0,0.929,0.281,0.929,0.625v348.499c0,0.344-0.421,0.625-0.929,0.625H239.382
			c-0.51,0-0.929-0.281-0.929-0.625V133.328C238.453,132.983,238.872,132.703,239.382,132.703z"/>
		<path class="st4" d="M337.974,107.607h65.298c1.772,0,3.219,1.448,3.219,3.218v0.002c0,1.77-1.448,3.218-3.219,3.218h-65.298
			c-1.772,0-3.22-1.448-3.22-3.218v-0.002C334.755,109.055,336.202,107.607,337.974,107.607z"/>
		<path class="st4" d="M370.623,490.549c6.007,0,10.878,4.867,10.878,10.875c0,6.011-4.871,10.878-10.878,10.878
			c-6.013,0-10.879-4.867-10.879-10.878C359.745,495.417,364.61,490.549,370.623,490.549z"/>
		<g>
			<g>
				<rect x="257" y="167" class="st5" width="96" height="34"/>
				<rect x="433" y="167" class="st5" width="51" height="16"/>
				<rect x="257" y="375" class="st6" width="72" height="64"/>
				<rect x="337" y="375" class="st6" width="70" height="64"/>
				<rect x="415" y="375" class="st6" width="69" height="64"/>
				<rect x="257" y="218" class="st7" width="227" height="101"/>
				<rect x="308" y="330" class="st5" width="128" height="11"/>
				<rect x="324" y="351" class="st5" width="93" height="11"/>
			</g>
		</g>
	</g>
	<polygon class="st3" points="150.111,595.457 307.577,629.844 286.647,725.681 121.674,725.681 	"/>
	<g class="st8">
		<path class="st9" d="M319.238,133h161.954C492.959,133,502,143.013,502,154.785v303.826c0,11.772-9.041,21.389-20.809,21.389
			H423.67L319.238,133z"/>
	</g>
	<path class="st0" d="M176.8,566.766l19.925,11.216l4.872-30.753l33.164-156.238c6.899-32.495-13.331-43.382-33.359-49.497
		L166.119,507.72C162.833,523.205,163.824,559.464,176.8,566.766z"/>
	<g>
		<g>
			<path class="st0" d="M497.909,594.444l55.088,131.238h116.645c5.145-4.58,10.183-9.277,15.101-14.088l-56.85-141.865
				L497.909,594.444z"/>
			<polygon class="st3" points="668.873,625.013 708.142,725.681 540.648,725.681 523.598,682.872 			"/>
		</g>
		<g>
			<path class="st0" d="M383.187,491.636l63.486,90.134c8.171,11.601,50.682,47.493,62.904,40.281
				c12.213-7.208-5.028-46.897-13.5-58.301l-48.662-61.016C419.516,467.753,395.516,482.382,383.187,491.636z"/>
			<path class="st0" d="M402.811,312.535l51.173,116.855c4.085-21.162,36.347-24.401,48.021-4.436
				c1.207-22.262,31.318-27.808,45.43-11.771c4.49-20.334,36.858-22.3,46.422-0.672l43.799,99.053
				c12.296,27.811,13.068,70.243,7.479,89.679c-16.572,57.612-92.722,59.437-119.53,41.732
				c-20.901-13.804-37.339-21.329-44.129-36.126L355.977,332.51C340.072,297.842,390.508,283.69,402.811,312.535z"/>
			<path class="st1" d="M564.24,447.216c0,0-8.297-19.815-15.746-37.383c-0.438,1.053-0.799,2.17-1.06,3.35
				c-1.24-1.407-2.604-2.648-4.058-3.724C552.666,426.572,564.24,447.216,564.24,447.216L564.24,447.216z M454.114,428.788
				c0.418-1.869,1.053-3.597,1.882-5.172c8.281,19.718,21.67,53.741,21.67,53.741s-17.08-33.488-23.683-47.967
				C454.088,429.614,454.121,429.357,454.114,428.788L454.114,428.788z M495.793,417.736c2.4,1.932,4.523,4.333,6.212,7.218
				c0.077-1.481,0.291-2.885,0.615-4.216c8.411,19.37,18.735,43.41,18.735,43.41S505.291,435.672,495.793,417.736z"/>
		</g>
	</g>
	<path class="st10" d="M208.415,343.873c-2.313-0.878-4.664-1.662-7.012-2.379l-7.885,37.146
		C206.844,378.404,207.963,357.506,208.415,343.873z"/>
	<path class="st10" d="M396.435,313.736l4.363,10.035c-7.94,14.242-20.069,18.961-35.696,15.724l-4.351-9.511
		C348.973,304.075,387.385,292.16,396.435,313.736z"/>
	<path class="st0" d="M218.182,469.11c12.53,22.061,30.33,62.346,19.088,97.947C226.028,602.658,194.175,523.024,218.182,469.11z"/>
	<path class="st10" d="M389.699,488.112c-2.213,1.097-4.389,2.29-6.512,3.524l21.867,31.044
		C413.943,512.751,399.387,497.717,389.699,488.112z"/>
	<polygon class="st1" points="425.227,483.883 456.204,551.601 416.427,482.452 	"/>
</g>
</svg>
