<?xml version="1.0" encoding="utf-8"?>
<!-- Generator: Adobe Illustrator 17.0.0, SVG Export Plug-In . SVG Version: 6.00 Build 0)  -->
<!DOCTYPE svg PUBLIC "-//W3C//DTD SVG 1.1//EN" "http://www.w3.org/Graphics/SVG/1.1/DTD/svg11.dtd">
<svg version="1.1" id="Capa_1" xmlns="http://www.w3.org/2000/svg" xmlns:xlink="http://www.w3.org/1999/xlink" x="0px" y="0px"
	 width="1920px" height="1200px" viewBox="0 0 1920 1200" enable-background="new 0 0 1920 1200" xml:space="preserve">
<linearGradient id="cielo_1_" gradientUnits="userSpaceOnUse" x1="-665.5051" y1="1644.3201" x2="-665.5051" y2="443.3201" gradientTransform="matrix(1 0 0 1 1628.0801 -443.3201)">
	<stop  offset="0.5108" style="stop-color:#B7D0BB"/>
	<stop  offset="1" style="stop-color:#A6CCD2"/>
</linearGradient>
<rect id="cielo" x="0.002" fill="url(#cielo_1_)" width="1925.146" height="1201"/>
<g>
	<path fill="#7EBECC" d="M1462.23,629.779l29.204-42.928c0,0,5.078-6.977,14.063-0.743c8.985,6.232,12.436,18.374,12.436,18.374
		l18.048,64.911l-1.155,18.613L1462.23,629.779z"/>
	<path fill="#2B5761" d="M1465.578,628.772l29.203-42.926c0,0,5.077-6.976,14.063-0.744c8.985,6.232,12.436,18.375,12.436,18.375
		l18.048,64.911l-1.155,18.613L1465.578,628.772z"/>
	<path fill="#7EBECC" d="M1507.151,584.054c0.547,0.298,1.111,0.645,1.692,1.048c8.986,6.232,12.437,18.375,12.437,18.375
		l18.05,64.911l-1.156,18.613l-19.834-15.909L1507.151,584.054z"/>
	<path fill="#7EBECC" d="M1466.252,627.78l119.902-13.943c37.835-4.401,41.473,13.496,22.53,22.571l-68.227,32.681L1466.252,627.78z
		"/>
	<path fill="#2B5761" d="M1466.117,630.138l119.901-13.943c37.835-4.401,41.473,13.496,22.53,22.571l-68.228,32.682
		L1466.117,630.138z"/>
	<path fill="#7F9AC9" d="M1415.154,657.497l-34.847,28.847c-8.924,7.391,4.421,24.076,38.617,14.836l75.51-20.404L1415.154,657.497z
		"/>
	<path fill="#2B5761" d="M1414.996,660.218l-34.846,28.848c-8.926,7.389,4.42,24.073,38.615,14.835l75.51-20.404L1414.996,660.218z"
		/>
	<path fill="#7EBECC" d="M971.551,547.714l530.432-183.655c67.154-23.251,116.327,34.55,57.513,54.621l-484.598,165.383
		C997.5,610.478,923.307,564.418,971.551,547.714z"/>
	<path fill="#2B5761" d="M971.272,552.55l530.431-183.656c67.155-23.251,116.328,34.549,57.513,54.621l-484.597,165.384
		C997.219,615.315,923.028,569.255,971.272,552.55z"/>
	<path fill="#13272B" d="M1221.763,537.212c0.573,0.428,1.386,0.31,1.813-0.264c0.429-0.574,0.31-1.386-0.264-1.815l-47.276-35.923
		c-0.574-0.428-1.386-0.31-1.814,0.264c-0.429,0.574-0.31,1.386,0.263,1.814L1221.763,537.212z"/>
	<polygon fill="#13272B" points="1207.179,525.909 1081.628,657.567 1078.13,661.234 1080.757,656.902 1175.14,501.257 
		1176.084,501.826 1084.327,653.139 1206.381,525.15 	"/>
	<path fill="#13272B" d="M1035.687,540.897c-0.34-0.915,0.124-1.931,1.038-2.271c0.913-0.34,1.929,0.125,2.269,1.039l39.974,106.478
		l-3.862-85.842c-0.044-0.972,0.71-1.795,1.683-1.838c0.783-0.035,1.47,0.448,1.73,1.144h0.001l33.919,90.233
		c0.34,0.913-0.124,1.93-1.036,2.27c-0.914,0.339-1.931-0.125-2.271-1.038l-30.005-79.821l3.858,85.766
		c0.076,0.779-0.373,1.539-1.14,1.824c-0.913,0.34-1.93-0.124-2.27-1.037L1035.687,540.897z"/>
	<g>
		<path fill="#7EBECC" d="M1013.936,668.131l207.043-71.686c6.03,3.986,12.86,7.434,20.528,10.154l76.18,27.027l-203.954,69.606
			C1038.993,728.74,967.349,684.261,1013.936,668.131z"/>
		<path fill="#2B5761" d="M1013.655,672.969l212.274-73.498c4.754,2.715,9.932,5.125,15.577,7.128l82.991,29.443l-211.043,72.026
			C1038.712,733.577,967.068,689.098,1013.655,672.969z"/>
	</g>
	<path fill="#13272B" d="M1448.514,395.695c-0.2-0.952,0.407-1.886,1.359-2.087c0.95-0.2,1.884,0.408,2.084,1.358l24.45,115.321
		l12.957-92.104c0.133-0.968,1.023-1.642,1.989-1.511c0.76,0.103,1.34,0.676,1.489,1.386h0.001l20.471,97.13
		c0.201,0.953-0.411,1.891-1.365,2.092s-1.893-0.411-2.092-1.365l-18.396-87.283l-12.949,92.051l-0.005-0.002
		c-0.098,0.717-0.635,1.327-1.382,1.485c-0.949,0.201-1.884-0.408-2.084-1.359L1448.514,395.695z"/>
	<path fill="#3E4247" d="M1181.224,650.27c8.757-3.212,20.325,6.311,25.837,21.268c5.476,14.861,2.915,29.495-5.705,32.833v0.002
		l-10.347,4.006c-8.757,3.212-20.325-6.312-25.837-21.268c-5.479-14.861-2.916-29.497,5.705-32.833v-0.003L1181.224,650.27z"/>
	<path fill="#7D838D" d="M1184.848,655.796c6.809-2.498,15.801,4.906,20.087,16.534c4.286,11.629,2.242,23.081-4.565,25.576
		c-6.808,2.499-15.801-4.904-20.089-16.534C1175.996,669.743,1178.041,658.291,1184.848,655.796z"/>
	<path fill="#ABB1BA" d="M1187.86,663.966c4.166-1.528,9.67,3.002,12.292,10.118c2.622,7.117,1.372,14.125-2.793,15.653
		c-4.167,1.528-9.67-3.004-12.293-10.118C1182.442,672.501,1183.694,665.494,1187.86,663.966z"/>
	<circle fill="#56616E" cx="1192.609" cy="676.851" r="4.013"/>
	<polygon fill="#56616E" points="1211.264,588.99 1189.733,673.837 1191.66,676.995 1217.762,590.118 	"/>
	<polygon fill="#3E4247" points="1191.66,676.995 1197.387,677.128 1231.743,599.6 1217.762,590.118 	"/>
	<path fill="#CC7F02" d="M1246.236,505.52c-50.992-28.335-99.228,70.346-37.213,91.861l311.617,108.112
		c38.647,13.409,49.539-19.963,18.689-37.105L1246.236,505.52z"/>
	<path fill="#FF9F00" d="M1556.677,696.545c2.335-8.659-2.974-20.17-17.348-28.157l-143.47-79.724l-44.687,13.002L1556.677,696.545z
		"/>
	<path fill="#FF9F00" d="M1246.236,505.52c-21.36-11.869-42.231-1.446-54.722,16.251l47.834,28.438c0,0,33.176,15.343,48.569,21.362
		c15.396,6.019,2.925-41.265-11.087-49.051L1246.236,505.52z"/>
	<path fill="#13272B" d="M1264.241,525.346c-0.403,0.886-1.448,1.278-2.333,0.874c-0.886-0.402-1.276-1.446-0.874-2.332
		l32.75-73.713c0.402-0.885,1.448-1.275,2.332-0.874c0.885,0.404,1.277,1.447,0.876,2.333L1264.241,525.346z"/>
	<path fill="#13272B" d="M1295.543,543.25c-0.536,0.814-1.629,1.039-2.442,0.503c-0.812-0.536-1.037-1.629-0.501-2.443
		l41.048-65.933c0.535-0.813,1.628-1.037,2.442-0.502c0.812,0.537,1.035,1.63,0.502,2.443L1295.543,543.25z"/>
	<path fill="#A16403" d="M1222.886,502.137c15.433,0.894,22.895,18.726,16.667,39.829c-6.23,21.104-23.791,37.486-39.226,36.592
		c-15.437-0.894-22.897-18.725-16.668-39.828C1189.887,517.627,1207.45,501.244,1222.886,502.137z"/>
	<polygon fill="#13272B" points="1295.545,450.376 1511.744,515.023 1511.466,516.088 1511.427,516.078 1511.427,516.08 
		1511.422,516.078 1335.001,476.885 1335.237,475.81 1496.757,511.693 1295.228,451.432 	"/>
	
		<ellipse transform="matrix(-0.0578 0.9983 -0.9983 -0.0578 1979.0182 -764.515)" fill="#2B5761" cx="1350.275" cy="551.618" rx="10.213" ry="8.589"/>
	<path fill="#F5E6DA" d="M1350.974,561.725c-0.424,0.053-0.858,0.066-1.297,0.04c-4.736-0.274-8.311-5.061-7.985-10.692
		c0.106-1.805,0.599-3.48,1.377-4.911c3.963,0.388,10.287,1.601,9.603,6.066C1352.152,555.61,1351.444,559.348,1350.974,561.725z"/>
	<path fill="#FF9F00" d="M1341.967,547.397c1.622,0.094,1.878,1.245,2.742,1.295c1.03,0.059,1.487-1.127,3.189-1.029
		c0.744,0.043,1.363,0.557,1.656,1.275l6.936,1.809l-0.065,1.121l-6.703-1.749c-0.108,1.2-1.027,2.112-2.084,2.05
		c-2.511-0.145-2.313-2.288-2.905-2.428c-0.611-0.035-0.537,2.307-3.027,2.162c-1.083-0.062-1.903-1.122-1.83-2.366
		C1339.946,548.293,1340.883,547.334,1341.967,547.397z"/>
	<path fill="#7EBECC" d="M1290.2,572.478l235.952-81.695c64.85-22.454,112.332,33.362,55.538,52.744l-218.983,74.737l-51.346-22.67
		l0.681-6.273l-22.123-12.006L1290.2,572.478z"/>
	<path fill="#2B5761" d="M1289.919,577.315l235.954-81.696c64.849-22.452,112.331,33.363,55.538,52.746L1368.61,620.99
		l-64.892-28.786l-11.542-6.504L1289.919,577.315L1289.919,577.315z"/>
	<path fill="#2B5761" d="M1273.972,561.501l24.313,55.05l-1.702,5.893l-29.375-55.098
		C1263.555,560.496,1271.841,556.675,1273.972,561.501z"/>
	<polygon fill="#7EBECC" points="1274.577,565.512 1272.718,559.935 1290.2,572.478 1289.919,577.315 1292.175,585.7 
		1303.718,592.204 1292.175,585.7 1303.442,616.849 1298.286,616.551 	"/>
	<path fill="#3E4247" d="M1315.134,597.93c9.957-2.18,21.068,9.839,24.822,26.847c3.73,16.898-1.21,32.361-11.036,34.699v0.003
		l-11.794,2.805c-9.955,2.179-21.067-9.841-24.82-26.848c-3.73-16.899,1.21-32.363,11.036-34.7v-0.002L1315.134,597.93z"/>
	<path fill="#2B5761" d="M1217.135,524.407c8.558,0.496,13.53,8.761,11.104,18.463c-2.424,9.7-11.329,17.162-19.89,16.667
		c-8.556-0.497-13.528-8.762-11.102-18.462C1199.673,531.373,1208.578,523.91,1217.135,524.407z"/>
	<path fill="#7EBECC" d="M1209.835,528.61c5.342,0.31,8.444,5.468,6.93,11.523c-1.514,6.055-7.071,10.711-12.413,10.403
		c-5.341-0.31-8.443-5.468-6.93-11.523C1198.937,532.958,1204.493,528.301,1209.835,528.61z"/>
	<path fill="#2B5761" d="M1512.463,702.657c21.058,8.563,36.868,8.882,42.688-2.482c5.871-11.469-0.865-23.475-15.822-31.787
		l-13.373-7.43C1542.945,669.925,1528.921,707.349,1512.463,702.657z"/>
	<path fill="#7D838D" d="M1318.339,604.893c7.595-1.663,16.072,7.507,18.937,20.482c2.865,12.977-0.97,24.845-8.566,26.507
		c-7.594,1.665-16.073-7.505-18.935-20.482C1306.91,618.425,1310.745,606.557,1318.339,604.893z"/>
	<path fill="#ABB1BA" d="M1327.711,617.465c1.879,2.25,3.42,5.416,4.229,9.08c1.62,7.339-0.264,14.1-4.229,15.884v-11.71
		l2.431,0.536c0.034-1.309-0.093-2.71-0.403-4.142l-2.028,0.757L1327.711,617.465L1327.711,617.465z M1323.319,614.209
		c1.542,0.52,3.054,1.655,4.392,3.256v10.405l-2.416,0.901c0.041,0.496,0.033,0.971-0.022,1.412l2.438,0.536v11.71
		c-0.326,0.146-0.663,0.26-1.014,0.337c-1.114,0.244-2.258,0.106-3.379-0.352v-3.719c0.843,0.355,1.704,0.465,2.542,0.28
		c0.114-0.024,0.226-0.056,0.337-0.091l-2.576-6.042c-0.046,0.016-0.094,0.028-0.145,0.04c-0.052,0.011-0.105,0.021-0.158,0.027
		v-8.533c0.141,0.122,0.278,0.259,0.411,0.41l2.738-4.607c-0.966-1.111-2.047-1.895-3.149-2.251v-3.719H1323.319z M1320.351,614.01
		c0.978-0.214,1.979-0.133,2.968,0.199v3.72c-0.71-0.23-1.428-0.281-2.131-0.127c-0.356,0.077-0.693,0.205-1.012,0.379v-4.129
		L1320.351,614.01L1320.351,614.01z M1323.319,642.414c-1.087-0.444-2.151-1.189-3.143-2.185V630.14l0.005-0.005l-0.005-0.013
		V618.21l1.343,5.553c0.604-0.111,1.231,0.124,1.8,0.615v8.533c-0.405,0.047-0.82-0.059-1.219-0.29l-1.474,4.025
		c0.833,0.948,1.752,1.653,2.693,2.051L1323.319,642.414L1323.319,642.414z M1320.176,640.229c-0.572-0.574-1.121-1.229-1.635-1.957
		v-6.698l1.635-1.435V640.229L1320.176,640.229z M1318.541,614.789c0.505-0.338,1.051-0.586,1.635-0.737v4.129l-0.006,0.003
		l0.006,0.025v11.912c-0.15-0.379-0.275-0.784-0.37-1.21c-0.216-0.976-0.237-1.92-0.093-2.729l-1.173-1.984L1318.541,614.789
		L1318.541,614.789z M1318.541,638.273c-1.515-2.143-2.74-4.911-3.43-8.04c-1.507-6.83,0.018-13.158,3.43-15.443v9.41l-1.162-1.967
		c-0.595,2.106-0.658,4.754-0.05,7.514c0.178,0.805,0.404,1.576,0.669,2.308l0.544-0.478L1318.541,638.273L1318.541,638.273z"/>
	<path fill="#B8DBE3" d="M1153.15,609.002c-44.226-46.334-2.28-139.11,52.358-155.49
		C1154.208,471.557,1114.311,562.775,1153.15,609.002z"/>
	<path fill="#B8DBE3" d="M1201.198,621.854c51.789-18.215,91.402-112.925,53.315-158.255
		C1297.042,509.214,1256.071,605.688,1201.198,621.854z"/>
	<path fill="#B8DBE3" d="M1162.075,596.308c-36.354-38.088-1.875-114.35,43.038-127.816
		C1162.945,483.325,1130.149,558.308,1162.075,596.308z"/>
	<path fill="#B8DBE3" d="M1201.572,606.872c42.571-14.974,75.132-92.824,43.824-130.087
		C1280.356,514.279,1246.677,593.582,1201.572,606.872z"/>
	<path fill="#2B5761" d="M1446.23,679.677c33.318,13.717,44.578-38.251,23.502-49.96l-30.507-16.956
		c25.095,13.945,8.946,69.747-24.371,56.031L1446.23,679.677z"/>
	<path fill="#B8DBE3" d="M1215.707,476.468l8.336-41.016c1.364-0.033,2.725-0.019,4.083,0.055l-12.418,51.029v-10.068H1215.707z
		 M1215.707,511.718l33.564-69.866c-1.088-0.644-2.202-1.242-3.339-1.795l-30.224,69.114L1215.707,511.718L1215.707,511.718z
		 M1215.707,507.17l27.854-68.18c-0.69-0.288-1.391-0.559-2.1-0.813l-25.754,67.056V507.17L1215.707,507.17z M1215.707,502.714
		l23.284-65.345c-1.027-0.305-2.069-0.574-3.127-0.808l-20.157,62.5L1215.707,502.714L1215.707,502.714z M1215.707,495.58
		l17.601-59.51c-0.852-0.139-1.715-0.256-2.584-0.351l-15.017,55.748V495.58z M1203.289,537.566l12.418-61.098v10.069
		L1203.289,537.566L1203.289,537.566z M1215.707,491.466l-12.418,46.1l12.418-41.986V491.466L1215.707,491.466z M1215.707,499.061
		l-12.418,38.505l12.418-34.852V499.061L1215.707,499.061z M1215.707,505.233l-12.418,32.334l12.418-30.397V505.233
		L1215.707,505.233z M1215.707,509.171l-12.418,28.395l12.418-25.848V509.171z"/>
	<path fill="#B8DBE3" d="M1203.289,537.566l-12.418,61.1v-10.071L1203.289,537.566L1203.289,537.566z M1190.87,583.664
		l12.418-46.098l-12.418,41.987V583.664L1190.87,583.664z M1190.87,576.07l12.418-38.504l-12.418,34.852V576.07L1190.87,576.07z
		 M1190.87,569.899l12.418-32.333l-12.418,30.398V569.899L1190.87,569.899z M1190.87,565.963l12.418-28.397l-12.418,25.849V565.963z
		 M1190.87,598.666l-8.336,41.016c-1.365,0.033-2.726,0.018-4.083-0.056l12.419-51.031L1190.87,598.666L1190.87,598.666z
		 M1190.87,563.415l-33.566,69.869c1.088,0.643,2.203,1.241,3.342,1.793l30.224-69.113V563.415L1190.87,563.415z M1190.87,567.964
		l-27.854,68.18c0.691,0.287,1.391,0.558,2.1,0.813l25.755-67.058L1190.87,567.964L1190.87,567.964z M1190.87,572.418
		l-23.285,65.348c1.026,0.304,2.069,0.572,3.126,0.807l20.158-62.504v-3.651H1190.87z M1190.87,579.554l-17.601,59.51
		c0.852,0.14,1.712,0.258,2.583,0.35l15.018-55.75V579.554z"/>
	<path fill="#B8DBE3" d="M1144.2,621.857c-51.829-54.66-1.533-164.104,63.114-183.426
		C1146.594,459.715,1098.731,567.322,1144.2,621.857z"/>
	<path fill="#B8DBE3" d="M1200.821,637.021c60.69-21.524,105.48-133.408,59.66-186.956
		C1311.544,503.946,1265.188,617.917,1200.821,637.021z"/>
	<path fill="#2B5761" d="M1203.85,534.543c1.473,0.085,2.33,1.509,1.912,3.179c-0.417,1.671-1.953,2.956-3.426,2.868
		c-1.473-0.083-2.329-1.507-1.911-3.179C1200.844,535.743,1202.377,534.458,1203.85,534.543z"/>
	<path fill="#7EBECC" d="M1479.353,660.846c2.881-12.046,0.002-25.784-9.621-31.128l-30.507-16.956
		c11.431,6.352,14.302,21.391,10.891,34.587L1479.353,660.846z"/>
	<path fill="#7EBECC" d="M1556.436,697.06c3.136-9.96-2.838-20.036-15.093-27.5c6.316,4.497,7.207,14.171,4.691,22.697
		L1556.436,697.06z"/>
</g>
<rect x="298.651" y="580.081" fill="none" width="564.865" height="282.432"/>
<g id="clouds">
	<path fill="#FFFFFF" d="M1612.094,221.155c18.653,0.024,35.519-6.524,47.529-17.06c13.41,10.728,30.373,17.205,48.881,17.228
		c20.877,0.048,39.772-8.095,53.908-21.312c8.336,10.003,20.901,16.382,34.939,16.382c25.226,0.074,45.715-20.344,45.764-45.57
		c0.024-20.782-13.822-38.298-32.788-43.88c1.522-4.592,2.416-9.447,2.416-14.545c0.049-25.226-20.345-45.718-45.595-45.765
		c-8.264,0-15.971,2.199-22.689,6.042c-10.705-5.485-22.81-8.651-35.664-8.675c-33.078-0.074-61.374,20.344-73.068,49.245
		c-7.272-2.37-15.174-3.722-23.437-3.746c-36.438-0.074-66.037,24.886-66.086,55.719
		C1546.153,196.05,1575.656,221.107,1612.094,221.155z"/>
	<path fill="#FFFFFF" d="M1902.653,909.864c-80.08,0-148.2,51.086-173.613,122.444c-11.605-4.636-24.255-7.213-37.512-7.213
		c-34.389,0-64.746,17.165-83.035,43.378c-13.818-6.526-29.258-10.189-45.554-10.189c-16.11,0-31.368,3.584-45.065,9.969
		c-21.093-26.302-53.478-43.158-89.815-43.158c-48.536,0-90.021,30.055-106.942,72.557c-14.66-7.67-31.334-12.028-49.038-12.028
		c-8.715,0-17.169,1.069-25.272,3.052c-16.818-36.213-53.522-61.33-96.124-61.33c-39.279,0-73.533,21.35-91.829,53.052
		c-24.364-23.938-57.78-38.725-94.664-38.725c-19.777,0-38.536,4.278-55.461,11.907c-19.694-32.182-55.207-53.664-95.743-53.664
		c-26.44,0-50.726,9.158-69.894,24.44c-21.045-66.382-83.217-114.496-156.664-114.496c-81.842,0-149.685,59.75-162.211,137.946
		c-18.11-8.732-38.423-13.626-59.884-13.626c-64.509,0-118.653,44.224-133.726,103.953c-10.316-3.261-21.299-5.028-32.695-5.028
		c-22.557,0-43.495,6.89-60.835,18.674c-18.715-32.32-53.681-54.083-93.767-54.083c-16.186,0-31.523,3.577-45.31,9.938V1201h1928.37
		V911.431C1918.598,910.435,1910.694,909.864,1902.653,909.864z"/>
</g>
</svg>
