<?xml version="1.0" encoding="utf-8"?>
<!-- Generator: Adobe Illustrator 17.0.0, SVG Export Plug-In . SVG Version: 6.00 Build 0)  -->
<!DOCTYPE svg PUBLIC "-//W3C//DTD SVG 1.1//EN" "http://www.w3.org/Graphics/SVG/1.1/DTD/svg11.dtd">
<svg version="1.1" id="Capa_1" xmlns="http://www.w3.org/2000/svg" xmlns:xlink="http://www.w3.org/1999/xlink" x="0px" y="0px"
	 width="350px" height="50px" viewBox="0 0 350 50" enable-background="new 0 0 350 50" xml:space="preserve">
<g>
	<path d="M14.975,13.301c-1.371,0.144-2.559,0.411-3.565,0.804c-0.616,0.001-0.993,0.086-1.132,0.254
		c-0.14,0.532-0.488,1.05-1.046,1.555c-0.335,0.309-0.727,0.757-1.172,1.345c-0.279,0.672-0.71,1.512-1.296,2.521
		c-0.195,0.477-0.474,1.176-0.835,2.1c0.168,0.057,0.321,0.083,0.462,0.083c0.14,0,0.44-0.084,0.902-0.253
		c0.461-0.168,0.803-0.267,1.027-0.295c0.615-0.085,1.063-0.226,1.342-0.423c0.391-0.112,2.711-0.97,6.961-2.573l1.721,0.165
		c-0.922,0.925-1.592,1.388-2.012,1.389c-0.531,0.504-1.327,0.967-2.389,1.39c-1.482,0.59-2.335,0.956-2.558,1.096
		c-0.587,0.142-1.482,0.507-2.684,1.096c-0.755,0.001-1.958,0.326-3.607,0.973c-1.087,2.296-1.628,4.396-1.625,6.298
		c0.001,0.392,0.029,0.755,0.086,1.091c0.366,1.342,0.997,2.055,1.893,2.137c1.398,0.109,2.867-0.397,4.403-1.52
		c0.754-0.589,2.179-1.668,4.274-3.239c0.028,0.556-0.152,1.099-0.543,1.627c-0.111,0.139-0.517,0.557-1.214,1.254
		c-2.177,2.59-4.525,3.804-7.043,3.641c-2.156-0.778-3.417-1.906-3.784-3.386c-0.284-2.15-0.189-3.825,0.284-5.028
		c0.278-0.697,0.584-1.663,0.918-2.892c-0.561-0.25-0.827-0.725-0.8-1.423c0.168-0.168,0.447-0.315,0.839-0.441
		c0.391-0.127,0.643-0.231,0.754-0.315c0.027-0.419,0.25-1.006,0.668-1.761c0.418-0.755,0.641-1.341,0.668-1.761
		c0.224-0.084,0.363-0.259,0.418-0.524c0.055-0.265,0.125-0.44,0.209-0.524c0.418-0.728,1.088-1.775,2.008-3.146
		c-0.057-0.056-0.49-0.166-1.302-0.333c-0.112-0.167-0.267-0.405-0.462-0.711c-0.029-0.111-0.042-0.209-0.043-0.293
		c-0.001-0.642,0.739-0.95,2.223-0.926c0.979,0.026,1.58,0.012,1.804-0.045c2.601-0.535,4.978-0.806,7.132-0.81
		c1.427-0.003,2.784,0.107,4.072,0.328l0.252,0.587C20.373,12.661,18.303,12.959,14.975,13.301z"/>
	<path d="M20.657,22.48c0.336,0.503,0.506,1.174,0.507,2.014c0.002,0.951-0.248,1.973-0.75,3.065
		c0.001,0.363-0.089,0.943-0.269,1.741c-0.181,0.798-0.243,1.406-0.186,1.826c0.865-1.064,2.205-2.648,4.02-4.75
		c1.479-1.737,2.973-3.111,4.482-4.121c0.812,0.307,1.219,0.991,1.221,2.054c0,0.196-0.027,0.629-0.081,1.301
		c-0.055,0.532-0.069,0.952-0.04,1.26c-0.333,1.12-0.778,2.855-1.333,5.206c0.027,0.028,0.069,0.028,0.126,0
		c0.781-0.729,1.724-1.919,2.826-3.573c1.102-1.652,1.974-2.773,2.617-3.362c1.256-1.149,1.996-1.822,2.22-2.019
		c0.335-0.252,0.963-0.645,1.886-1.179c0.447,0,0.756,0.236,0.925,0.712c0.086,1.035-0.094,2.224-0.539,3.568
		c-0.696,1.96-1.072,3.107-1.126,3.443c-0.582,3.079-0.844,5.163-0.786,6.254h0.042c0.111,0,0.294,0.055,0.546,0.167
		c-0.055,0.363-0.208,0.63-0.46,0.799c-0.028,0-0.321,0.111-0.88,0.337c-0.673-0.587-1.01-1.454-1.012-2.602
		c0-0.336,0.026-0.819,0.08-1.449c0.054-0.629,0.08-1.112,0.08-1.448c0.191-0.98,0.533-2.255,1.026-3.823
		c0.623-1.872,1.02-3.129,1.189-3.772l-0.084-0.001c-0.084,0.057-0.182,0.183-0.293,0.379C36.5,24.702,36.416,24.8,36.36,24.8
		c-0.503,0.365-0.937,0.785-1.299,1.262c-0.753,0.952-1.326,1.639-1.717,2.06c-0.81,1.036-1.969,2.479-3.476,4.328
		c-0.726,0.897-1.215,1.443-1.466,1.64c-0.894,0.785-1.565,1.137-2.013,1.054c-0.056-0.196-0.057-0.462-0.001-0.798
		c0.083-0.475,0.125-0.769,0.125-0.881c-0.001-0.392,0.095-1.302,0.289-2.729c0.083-0.447,0.319-1.315,0.708-2.604
		c0.11-0.308,0.18-0.644,0.208-1.008c0-0.224-0.016-0.517-0.044-0.881c-0.029-0.364-0.043-0.602-0.043-0.714
		c0-0.251-0.016-0.489-0.043-0.713c-0.559,0.337-1.229,1.038-2.01,2.102c-0.865,1.15-1.521,1.906-1.968,2.271
		c-0.559,0.813-1.438,1.794-2.638,2.943c-1.062,0.981-1.801,1.892-2.219,2.731c-0.028-0.056-0.133,0-0.314,0.169
		c-0.182,0.168-0.287,0.252-0.314,0.252c-0.056,0-0.126,0.001-0.209,0.001c-0.196,0-0.336,0-0.42,0.001
		c-0.224,0-0.434-0.07-0.63-0.209c0.138-1.315,0.554-3.051,1.249-5.206c0.751-2.352,1.167-4.087,1.25-5.207
		c-0.058-0.699-0.213-1.37-0.466-2.013C19.37,22.231,19.957,22.175,20.657,22.48z"/>
	<path d="M44.43,33.094c-0.251,0.421-0.669,1.022-1.256,1.808c-1.089,0.674-1.886,0.996-2.39,0.969
		c-0.504-0.027-1.064-0.445-1.681-1.255c-0.057-0.504-0.086-1.007-0.087-1.511c-0.005-2.938,0.423-5.834,1.284-8.689
		c0.139-0.448,0.515-1.372,1.128-2.772c0.167-0.195,0.391-0.294,0.671-0.294c0.279,0,0.545,0.097,0.798,0.292
		c0.252,0.196,0.378,0.419,0.379,0.671c0,0.14-0.042,0.266-0.125,0.378c-0.502,0.813-0.976,1.876-1.42,3.192l-0.915,4.366
		c-0.194,0.924-0.234,2.085-0.119,3.483c0.056,0.168,0.196,0.392,0.42,0.671c0.112,0.027,0.279-0.063,0.503-0.273
		c0.224-0.211,0.377-0.329,0.461-0.358c0.335-0.224,0.796-0.658,1.382-1.304c0.586-0.644,1.103-1.064,1.55-1.262l0.963-1.135
		C45.476,31.749,44.96,32.757,44.43,33.094z M45.072,18.237l-0.125,0.084c-0.057,0.057-0.112,0.196-0.167,0.42
		c-1.342,0.115-2.056-0.206-2.142-0.961c-0.001-0.447,0.152-0.728,0.459-0.84c0.112-0.028,0.447-0.029,1.007-0.002
		c0.14,0,0.321-0.043,0.545-0.127c0.224,0.083,0.462,0.334,0.715,0.754C45.393,17.789,45.295,18.013,45.072,18.237z"/>
	<path d="M51.816,11.971c-0.308,0.336-0.418,0.659-0.334,0.966c-0.391,0.477-0.711,1.233-0.961,2.268
		c-0.278,1.148-0.542,1.931-0.792,2.352c-0.195,0.616-0.5,1.624-0.917,3.023c0.084,0.196,0.042,0.377-0.125,0.546
		c-0.028,0.112-0.32,1.162-0.875,3.149c-0.362,1.204-0.583,2.254-0.666,3.149c-0.167,0.224-0.271,0.608-0.313,1.154
		c-0.041,0.546-0.145,0.917-0.313,1.112c-0.276,1.735-0.358,2.841-0.245,3.315c-0.083,0.31-0.013,0.755,0.212,1.343
		c0.279-0.028,0.588-0.183,0.922-0.463c0.447-0.364,0.726-0.574,0.838-0.632c0.307-0.168,0.727-0.225,1.258-0.17
		c-0.501,0.925-1.129,1.723-1.883,2.396c-0.168,0-0.385,0.056-0.65,0.168c-0.266,0.113-0.455,0.169-0.566,0.169
		c-0.167,0-0.364-0.069-0.588-0.209c-0.561-0.502-0.869-0.795-0.925-0.879c-0.225-0.391-0.337-1.006-0.339-1.846
		c0-0.392,0.012-0.854,0.04-1.385c0.056-0.111,0.152-0.573,0.291-1.386c0.333-1.959,0.65-3.61,0.956-4.954
		c0.582-2.743,1.304-5.626,2.166-8.649c0.222-0.812,0.556-1.707,1.002-2.688c0.529-1.232,0.807-1.875,0.835-1.932
		c0.111-0.336,0.376-0.784,0.795-1.344c0.251-0.308,0.53-0.462,0.838-0.463c0.279,0,0.56,0.167,0.84,0.502
		C52.402,11.033,52.235,11.495,51.816,11.971z"/>
	<path d="M55.005,33.073c-0.251,0.421-0.669,1.022-1.256,1.808c-1.089,0.674-1.886,0.996-2.39,0.969
		c-0.504-0.027-1.064-0.445-1.681-1.255c-0.057-0.504-0.086-1.007-0.087-1.511c-0.005-2.938,0.423-5.834,1.284-8.689
		c0.139-0.448,0.515-1.372,1.128-2.772c0.167-0.195,0.391-0.294,0.671-0.294c0.279,0,0.545,0.097,0.798,0.292
		c0.252,0.196,0.378,0.419,0.379,0.671c0,0.14-0.042,0.266-0.125,0.378c-0.502,0.813-0.976,1.876-1.42,3.192l-0.915,4.366
		c-0.194,0.924-0.234,2.085-0.119,3.483c0.056,0.168,0.196,0.392,0.42,0.671c0.112,0.027,0.279-0.063,0.503-0.273
		c0.224-0.211,0.377-0.329,0.461-0.358c0.335-0.224,0.796-0.658,1.382-1.304c0.586-0.644,1.103-1.064,1.55-1.262l0.963-1.135
		C56.051,31.729,55.535,32.736,55.005,33.073z M55.647,18.216L55.522,18.3c-0.057,0.057-0.112,0.196-0.167,0.42
		c-1.342,0.115-2.056-0.206-2.142-0.961c-0.001-0.447,0.152-0.728,0.459-0.84c0.112-0.028,0.447-0.029,1.007-0.002
		c0.14,0,0.321-0.043,0.545-0.127c0.224,0.083,0.462,0.334,0.715,0.754C55.968,17.769,55.871,17.992,55.647,18.216z"/>
	<path d="M65.953,30.66c-0.224,0.112-0.405,0.337-0.544,0.673c-0.195,0.476-0.321,0.742-0.376,0.798
		c-0.335,0.448-0.949,1.079-1.843,1.892c-0.837,1.204-2.067,1.893-3.689,2.063c-0.448,0.028-0.896,0.002-1.343-0.081
		c-1.092-0.529-1.793-1.563-2.104-3.102c0.082-0.896,0.318-1.86,0.708-2.896c0.251-0.615,0.612-1.526,1.086-2.73
		c0.223-0.252,0.516-0.7,0.879-1.344c0.362-0.561,0.739-0.952,1.13-1.178c0.362-0.615,0.935-1.008,1.719-1.178
		c0.279,0.056,0.74-0.225,1.383-0.842c-0.028-0.111,0.042-0.279,0.209-0.504c0.308-0.028,0.587-0.043,0.839-0.043
		c0.419-0.001,0.755,0.041,1.007,0.124c1.148,0.81,1.725,2.165,1.729,4.067c0.001,0.477-0.033,0.973-0.102,1.49
		C66.57,28.387,66.342,29.316,65.953,30.66z M65.228,24.66c-0.085-0.615-0.366-1.034-0.842-1.257l-1.845,0.675l0.42,0.502
		c0.028,0.309,0.057,0.755,0.086,1.343c0.001,0.504-0.152,0.909-0.459,1.218c-0.141,0.084-0.28,0.141-0.419,0.169
		c-0.392,0.029-0.645-0.433-0.758-1.384c-0.252,0.112-0.573,0.407-0.963,0.884c-0.475,0.561-0.81,0.91-1.005,1.051
		c-0.781,1.68-1.199,2.66-1.254,2.939c-0.25,0.729-0.375,1.428-0.373,2.099c0,0.336,0.028,0.672,0.086,1.008
		c0.196,0.279,0.615,0.446,1.26,0.501c3.188-0.93,5.294-3.479,6.322-7.649C65.398,25.975,65.313,25.276,65.228,24.66z"/>
	<path d="M95.471,18.307c-0.083,0.28-0.53,0.868-1.34,1.765c-1.146,0.954-2.598,2.048-4.358,3.282
		c-0.363,0.225-1.006,0.618-1.928,1.178C87.175,24.87,86,25.306,84.323,25.84c-0.14,0.028-0.503,0.183-1.09,0.464
		c-0.308,0.084-0.461,0.252-0.461,0.504c0.84,0.53,1.997,1.521,3.468,2.974c1.471,1.451,2.627,2.428,3.467,2.931
		c0.476,0.278,1.386,0.599,2.73,0.959c0.391,0.112,0.923,0.181,1.595,0.208c0.587,0.025,1.272,0.095,2.057,0.205
		c-0.419,0.42-1.062,0.771-1.929,1.053c-2.042,0.144-3.945-0.314-5.71-1.373c-1.205-0.726-2.62-1.939-4.245-3.644
		c-0.197-0.084-0.771-0.46-1.723-1.129c-0.672-0.475-1.289-0.781-1.848-0.92l-0.084,0.126c0,0.279-0.124,0.854-0.374,1.721
		c-0.223,0.756-0.292,1.302-0.207,1.638c0.056-0.085,0.223-0.392,0.502-0.925c0.195-0.363,0.545-0.547,1.048-0.548
		c0.085,0.588-0.089,1.28-0.521,2.078c-0.433,0.799-0.648,1.381-0.647,1.744c-0.224,0.419-0.698,0.966-1.424,1.639
		c-0.952-0.194-1.429-0.781-1.431-1.76c0-0.42,0.138-1.146,0.416-2.183c0.25-0.951,0.36-1.651,0.331-2.1
		c0.307-0.672,0.417-1.231,0.333-1.679l-3.021,0.006c-0.028-0.252-0.19-0.461-0.484-0.629c-0.294-0.167-0.441-0.335-0.442-0.502
		c0-0.14,0.042-0.309,0.125-0.505c0.951-0.589,2.391-0.857,4.321-0.806l0.168-0.126c0.026-0.28,0.151-0.797,0.375-1.553
		c0.194-0.644,0.277-1.161,0.249-1.553l0.502-0.882c0.639-1.959,1.459-4.927,2.458-8.901c-0.419-0.139-0.63-0.488-0.631-1.048
		c-0.057-0.279,0.068-0.518,0.376-0.714c0.251-0.112,0.503-0.238,0.755-0.379c0.252,0.251,0.686,0.447,1.302,0.585
		c0.336,0.083,0.77,0.292,1.302,0.627c0.923,0.11,2.294,0.388,4.114,0.831c2.268,0.891,3.597,1.462,3.99,1.713
		c1.344,0.865,2.032,2.108,2.063,3.73L95.471,18.307z M87.993,13.999c-0.167,0.057-0.335,0.084-0.503,0.085
		c-0.252,0-0.602-0.076-1.049-0.229c-0.448-0.153-0.771-0.229-0.966-0.229c-0.196,0-0.377,0.042-0.545,0.127
		c-0.083,0.308-0.258,0.777-0.522,1.407s-0.369,1.169-0.311,1.616l-0.21,0c-0.139,0.587-0.473,1.624-1.001,3.107
		c-0.473,1.344-0.737,2.408-0.791,3.19c-0.028,0.141-0.174,0.441-0.439,0.903c-0.265,0.462-0.383,0.805-0.354,1.029
		c1.063-0.17,2.628-0.76,4.697-1.771c1.816-0.899,3.297-1.741,4.443-2.526c0.363-0.253,1.368-1.206,3.016-2.86
		c0.223-0.448,0.334-0.84,0.334-1.175c0-0.252-0.071-0.462-0.211-0.629C92.206,15.292,90.344,14.61,87.993,13.999z"/>
	<path d="M103.174,30.588c-0.224,0.112-0.405,0.337-0.544,0.673c-0.195,0.476-0.321,0.742-0.376,0.798
		c-0.335,0.448-0.949,1.079-1.843,1.892c-0.837,1.205-2.067,1.893-3.689,2.063c-0.448,0.028-0.896,0.002-1.343-0.081
		c-1.092-0.529-1.793-1.563-2.104-3.102c0.082-0.896,0.318-1.86,0.708-2.896c0.251-0.615,0.612-1.526,1.086-2.729
		c0.223-0.253,0.516-0.701,0.879-1.345c0.362-0.56,0.739-0.952,1.13-1.177c0.362-0.616,0.935-1.009,1.719-1.178
		c0.279,0.056,0.74-0.225,1.383-0.842c-0.028-0.111,0.042-0.279,0.209-0.504c0.308-0.028,0.587-0.043,0.839-0.043
		c0.419-0.001,0.755,0.041,1.007,0.124c1.148,0.81,1.725,2.165,1.729,4.067c0.001,0.477-0.033,0.973-0.102,1.49
		C103.792,28.314,103.563,29.244,103.174,30.588z M102.449,24.588c-0.085-0.614-0.366-1.034-0.842-1.257l-1.845,0.675l0.42,0.502
		c0.028,0.309,0.057,0.755,0.086,1.343c0.001,0.504-0.152,0.909-0.459,1.218c-0.141,0.084-0.28,0.141-0.419,0.169
		c-0.392,0.029-0.645-0.433-0.758-1.384c-0.252,0.112-0.573,0.407-0.963,0.884c-0.475,0.561-0.81,0.91-1.005,1.051
		c-0.781,1.68-1.199,2.66-1.254,2.939c-0.25,0.729-0.375,1.428-0.373,2.1c0,0.336,0.028,0.672,0.086,1.007
		c0.196,0.279,0.615,0.446,1.26,0.501c3.188-0.929,5.294-3.479,6.322-7.649C102.619,25.903,102.534,25.204,102.449,24.588z"/>
	<path d="M111.736,31.872c-0.698,0.925-1.381,1.85-2.051,2.774c-0.894,1.008-1.83,1.514-2.809,1.516
		c-0.419,0.001-0.854-0.082-1.301-0.249c-0.672-0.586-1.01-1.368-1.012-2.349c-0.001-0.643,0.096-1.356,0.29-2.141
		c0.11-0.84,0.512-2.448,1.208-4.828c0.139-0.504,0.501-1.232,1.087-2.184l1.046-1.723c0.529-0.84,1.173-1.261,1.928-1.262
		c0.447-0.001,1.049,0.474,1.807,1.423c0.028,0.224,0.127,0.447,0.295,0.67c0.221-1.336,0.707-3.286,1.458-5.85
		c0-0.195,0.25-0.975,0.75-2.339c0.167-0.307,0.405-0.461,0.713-0.461c0.503-0.001,0.854,0.249,1.051,0.751
		c0.088,2.428-0.284,5.235-1.117,8.418c-0.223,0.81-0.668,1.872-1.336,3.185c-0.391,0.755-0.584,1.621-0.583,2.597
		c0.002,1.006,0.199,1.912,0.593,2.721c0.28,0.335,0.588,0.501,0.924,0.501c0.168-0.001,0.335-0.057,0.503-0.169
		c0.391-0.141,0.796-0.435,1.215-0.884c0.307-0.363,0.628-0.742,0.963-1.135c0.195-0.225,0.586-0.49,1.174-0.8
		c0.056,0.252,0.085,0.476,0.085,0.671c-0.056,0.196-0.25,0.7-0.585,1.512c-0.837,0.87-1.34,1.374-1.508,1.515
		c-0.642,0.532-1.271,0.799-1.886,0.801c-0.28,0-0.574-0.055-0.882-0.167C112.887,33.885,112.214,33.047,111.736,31.872z
		 M111.685,26.795c-0.057-0.224,0.012-0.756,0.207-1.595c-0.42-0.14-0.784-0.446-1.093-0.921l-0.21-0.335
		c-0.141-0.251-0.309-0.433-0.505-0.544c-0.837,0.925-1.647,2.227-2.426,3.908l-0.041,0.419c-0.335,0.393-0.669,1.372-1.002,2.939
		c-0.193,1.568-0.289,2.477-0.288,2.729c0,0.364,0.043,0.713,0.128,1.049c0.028,0.141,0.21,0.21,0.546,0.209
		c1.537-0.73,3.002-2.454,4.396-5.17c-0.029-0.252,0.054-0.882,0.248-1.89C111.671,27.452,111.685,27.187,111.685,26.795z"/>
	<path d="M120.872,25.602c0.893-1.176,1.828-2.276,2.806-3.3c0.977-1.023,2.053-1.591,3.228-1.706
		c0.531-0.057,1.021,0.026,1.469,0.249c0.309,0.419,0.491,0.867,0.549,1.342c0,0.252-0.11,1.022-0.332,2.309l-0.587,0.085
		c-0.084-0.167-0.169-0.727-0.255-1.678c-0.058-0.531-0.184-0.881-0.38-1.049c-1.37,0.422-2.627,1.292-3.771,2.609
		c-0.531,0.561-1.047,1.122-1.55,1.682c-0.586,0.673-0.977,1.317-1.171,1.934c-0.196,0.028-0.376,0.393-0.543,1.092
		c-0.139,0.504-0.264,0.826-0.375,0.966c-0.251,0.448-0.627,1.386-1.128,2.813c0.028,0.225,0.029,0.687,0.003,1.385
		c-0.111,0.589-0.39,0.952-0.837,1.094c-0.112-0.196-0.225-0.252-0.336-0.167c-0.14,0.111-0.265,0.168-0.377,0.168
		c-0.224,0.001-0.42-0.181-0.588-0.542c0.445-1.618,1.417-5.371,2.916-11.259c-0.113-0.25-0.168-0.459-0.169-0.627
		c0-0.307,0.194-0.502,0.587-0.587c0.922-0.169,1.412,0.012,1.47,0.543c0,0.057-0.042,0.217-0.125,0.483
		c-0.083,0.266-0.111,0.609-0.082,1.028c-0.168,0.029-0.266,0.071-0.294,0.127c0,0.057,0.014,0.196,0.043,0.419l-0.125,0.378
		C120.914,25.476,120.9,25.546,120.872,25.602z"/>
	<path d="M131.042,32.926c-0.251,0.421-0.669,1.022-1.256,1.808c-1.089,0.674-1.886,0.996-2.39,0.969
		c-0.504-0.027-1.064-0.444-1.681-1.255c-0.057-0.504-0.086-1.007-0.087-1.511c-0.005-2.938,0.423-5.834,1.284-8.689
		c0.139-0.447,0.515-1.372,1.128-2.772c0.167-0.196,0.391-0.294,0.671-0.295c0.279,0,0.545,0.097,0.798,0.292
		c0.252,0.196,0.378,0.419,0.379,0.671c0,0.14-0.042,0.266-0.125,0.378c-0.502,0.813-0.976,1.876-1.42,3.192l-0.915,4.366
		c-0.194,0.924-0.234,2.085-0.119,3.484c0.056,0.167,0.196,0.391,0.42,0.67c0.112,0.028,0.279-0.063,0.503-0.273
		c0.224-0.211,0.377-0.329,0.461-0.358c0.335-0.224,0.796-0.658,1.382-1.303c0.586-0.645,1.103-1.065,1.55-1.263l0.963-1.135
		C132.088,31.581,131.572,32.59,131.042,32.926z M131.685,18.069l-0.125,0.084c-0.057,0.056-0.112,0.196-0.167,0.419
		c-1.342,0.115-2.056-0.206-2.142-0.961c-0.001-0.447,0.152-0.728,0.459-0.84c0.112-0.028,0.447-0.029,1.007-0.002
		c0.14,0,0.321-0.042,0.545-0.127c0.224,0.083,0.462,0.334,0.715,0.754C132.005,17.621,131.908,17.845,131.685,18.069z"/>
	<path d="M137.441,21.708c1.091-0.142,1.805,0.109,2.142,0.751c0.196,0.419,0.296,1.216,0.298,2.392l0.004,2.015
		c-0.196,0.168-0.321,0.378-0.376,0.63c-0.14,0.309-0.307,0.742-0.501,1.302l-0.125,0.336c0,0.057-0.028,0.168-0.083,0.336
		c-0.585,1.26-1.017,2.548-1.293,3.863c-0.279,0.505-0.459,1.12-0.542,1.848c-0.167,0.085-0.259,0.267-0.272,0.546
		s-0.048,0.462-0.104,0.546c-0.973,3.555-1.612,5.737-1.917,6.551c-1.586,4.283-3.429,6.427-5.527,6.431
		c-0.224,0-0.447-0.041-0.671-0.125l-0.967-0.963c1.483,0.108,2.462-0.327,2.935-1.307c0.587-0.533,1.061-1.177,1.423-1.933
		c1.561-3.249,2.645-6.552,3.254-9.91c-0.615,0.309-1.413,0.311-2.392,0.005c-1.26-0.778-2.003-1.655-2.229-2.632
		c-0.197-0.836-0.296-1.561-0.297-2.175c-0.001-0.642,0.096-1.213,0.29-1.716c1.058-2.651,2.201-4.494,3.431-5.529
		c0.642-0.391,1.369-0.699,2.18-0.924C136.546,21.934,136.994,21.821,137.441,21.708z M138.285,23.638l-0.084-0.084
		c0-0.168-0.057-0.251-0.168-0.251c-0.084,0.028-0.755,0.281-2.013,0.759c-0.922,0.338-1.412,0.632-1.467,0.884
		c-0.615,0.393-1.298,1.429-2.05,3.11c-0.391,0.84-0.585,1.609-0.583,2.309c0.001,0.448,0.086,0.979,0.255,1.595
		c0.141,0.503,0.618,1.104,1.431,1.802c0.587,0.166,1.202-0.198,1.844-1.095c0.558-0.784,0.948-1.694,1.17-2.73
		c0.054-0.615,0.318-1.371,0.793-2.268c0.167-0.308,0.362-0.657,0.585-1.05c0-0.14-0.183-0.294-0.546-0.461
		c0.559-0.253,0.838-0.617,0.837-1.093L138.285,23.638z"/>
	<path d="M149.041,30.499c-0.224,0.112-0.405,0.337-0.544,0.673c-0.195,0.476-0.321,0.742-0.376,0.798
		c-0.335,0.448-0.949,1.079-1.843,1.892c-0.837,1.205-2.067,1.893-3.689,2.063c-0.448,0.028-0.896,0.002-1.343-0.081
		c-1.092-0.529-1.793-1.563-2.104-3.102c0.082-0.896,0.318-1.86,0.708-2.896c0.251-0.615,0.612-1.526,1.086-2.73
		c0.223-0.252,0.516-0.7,0.879-1.344c0.362-0.56,0.739-0.952,1.13-1.178c0.362-0.615,0.935-1.008,1.719-1.178
		c0.279,0.056,0.74-0.225,1.383-0.842c-0.028-0.111,0.042-0.279,0.209-0.504c0.308-0.028,0.587-0.043,0.839-0.043
		c0.419-0.001,0.755,0.041,1.007,0.124c1.148,0.81,1.725,2.165,1.729,4.067c0.001,0.477-0.033,0.973-0.102,1.49
		C149.658,28.226,149.43,29.155,149.041,30.499z M148.315,24.499c-0.085-0.614-0.366-1.034-0.842-1.257l-1.845,0.675l0.42,0.502
		c0.028,0.309,0.057,0.755,0.086,1.343c0.001,0.504-0.152,0.909-0.459,1.218c-0.141,0.084-0.28,0.141-0.419,0.169
		c-0.392,0.029-0.645-0.433-0.758-1.384c-0.252,0.112-0.573,0.407-0.963,0.884c-0.475,0.561-0.81,0.91-1.005,1.051
		c-0.781,1.68-1.199,2.66-1.254,2.939c-0.25,0.729-0.375,1.428-0.373,2.1c0,0.336,0.028,0.672,0.086,1.007
		c0.196,0.279,0.615,0.446,1.26,0.501c3.188-0.929,5.294-3.479,6.322-7.649C148.486,25.814,148.4,25.115,148.315,24.499z"/>
</g>
<g>
	<path d="M199.593,35.875c-0.526,0.065-0.929,0.026-1.208-0.117c-0.279-0.143-0.467-0.334-0.563-0.572
		c-0.097-0.238-0.113-0.489-0.05-0.753s0.187-0.475,0.369-0.634c0.183-0.16,0.41-0.244,0.682-0.254
		c0.271-0.008,0.558,0.124,0.86,0.395c0.78-0.321,1.438-0.82,1.97-1.499c0.533-0.678,0.989-1.376,1.371-2.094
		c-0.128,0-0.308,0-0.538,0.001c-0.231,0-0.475-0.015-0.729-0.047c-0.255-0.031-0.49-0.082-0.706-0.154
		c-0.215-0.071-0.374-0.174-0.479-0.31c-0.104-0.135-0.119-0.318-0.049-0.549c0.071-0.231,0.267-0.515,0.584-0.851
		c0.494,0.031,1.017,0.038,1.566,0.021c0.55-0.018,1.063-0.105,1.542-0.267c0.253-0.414,0.526-1.021,0.82-1.818
		c0.293-0.798,0.595-1.679,0.903-2.644c0.31-0.964,0.626-1.945,0.95-2.942c0.325-0.996,0.646-1.905,0.964-2.727
		c0.316-0.821,0.63-1.495,0.94-2.021c0.31-0.527,0.607-0.791,0.895-0.791c0.638,0.573,1.162,1.237,1.569,1.993
		c0.408,0.756,0.756,1.564,1.045,2.425c0.289,0.86,0.558,1.752,0.806,2.676c0.249,0.924,0.55,1.832,0.902,2.723l3.87-1.346
		c0.191,0,0.354,0.075,0.491,0.226c0.135,0.151,0.234,0.326,0.299,0.525c0.064,0.199,0.084,0.39,0.062,0.573
		c-0.024,0.183-0.116,0.299-0.275,0.347c-0.381,0.24-0.76,0.404-1.135,0.492c-0.373,0.088-0.728,0.178-1.063,0.266
		s-0.638,0.217-0.907,0.384c-0.271,0.168-0.485,0.468-0.644,0.897c0.001,0.542,0.094,1.108,0.277,1.697
		c0.185,0.589,0.385,1.183,0.601,1.78c0.218,0.597,0.418,1.19,0.602,1.779c0.185,0.59,0.277,1.155,0.278,1.696
		c0.001,0.16-0.02,0.331-0.059,0.516c-0.039,0.183-0.099,0.351-0.179,0.502c-0.079,0.151-0.187,0.278-0.321,0.383
		c-0.136,0.104-0.308,0.155-0.515,0.156h-0.119c-0.336-0.573-0.588-1.229-0.756-1.971c-0.17-0.74-0.322-1.493-0.459-2.258
		c-0.137-0.766-0.294-1.518-0.471-2.259c-0.177-0.74-0.433-1.405-0.769-1.994c-0.59,0.256-1.18,0.46-1.769,0.613
		c-0.589,0.152-1.183,0.297-1.779,0.434c-0.598,0.137-1.199,0.285-1.804,0.445c-0.606,0.16-1.212,0.385-1.816,0.673
		c-0.334,0.129-0.637,0.372-0.907,0.731c-0.271,0.358-0.528,0.77-0.774,1.232s-0.504,0.945-0.774,1.447
		c-0.27,0.502-0.575,0.966-0.918,1.389c-0.342,0.423-0.728,0.771-1.157,1.042C200.691,35.738,200.182,35.874,199.593,35.875z
		 M209.695,18.619c-0.334,0.67-0.663,1.396-0.988,2.178s-0.627,1.567-0.904,2.356c-0.276,0.79-0.519,1.559-0.724,2.309
		c-0.206,0.749-0.365,1.419-0.475,2.009c0.892-0.161,1.852-0.386,2.879-0.675c1.028-0.289,1.995-0.546,2.903-0.771
		c-0.001-0.526-0.077-1.124-0.23-1.793c-0.153-0.669-0.354-1.346-0.602-2.031c-0.248-0.685-0.537-1.341-0.864-1.971
		C210.362,19.602,210.03,19.065,209.695,18.619z"/>
	<path d="M218.354,21.089c0.126-0.526,0.301-0.801,0.523-0.826c0.224-0.024,0.435,0.079,0.635,0.309
		c0.199,0.231,0.352,0.526,0.456,0.884c0.104,0.358,0.101,0.642-0.011,0.849c0.049,0.446,0.054,1.012,0.016,1.697
		c-0.039,0.686-0.089,1.415-0.151,2.188c-0.062,0.772-0.121,1.558-0.175,2.354c-0.055,0.798-0.08,1.539-0.079,2.224
		c0.002,0.686,0.047,1.275,0.135,1.769c0.089,0.494,0.24,0.829,0.457,1.004c0.215,0.175,0.518,0.146,0.908-0.086
		c0.389-0.23,0.886-0.73,1.491-1.497c0.35,0.271,0.499,0.604,0.444,1.003c-0.057,0.399-0.215,0.794-0.477,1.185
		c-0.262,0.392-0.585,0.743-0.966,1.054c-0.382,0.312-0.725,0.516-1.027,0.611c-0.605,0.129-1.072,0.025-1.398-0.308
		c-0.328-0.334-0.576-0.768-0.744-1.301c-0.168-0.534-0.269-1.092-0.302-1.674c-0.033-0.581-0.05-1.048-0.051-1.398L218.354,21.089z
		 M218.7,15.016c-0.001-0.271,0.07-0.502,0.214-0.693c0.143-0.191,0.35-0.288,0.621-0.288c0.111,0,0.251,0.012,0.418,0.035
		c0.168,0.023,0.335,0.063,0.502,0.118c0.168,0.056,0.312,0.131,0.432,0.227c0.119,0.095,0.195,0.215,0.227,0.358
		c0.081,0.525,0.018,0.908-0.188,1.148c-0.208,0.239-0.459,0.359-0.754,0.359c-0.295,0.001-0.589-0.11-0.884-0.333
		C218.992,15.725,218.797,15.415,218.7,15.016z"/>
	<path d="M227.274,35.319c-0.066-1.067-0.08-2.06-0.042-2.976c0.039-0.917,0.089-1.821,0.15-2.714s0.128-1.802,0.198-2.726
		c0.07-0.924,0.104-1.929,0.102-3.013l-4.878-0.325c-0.19-0.015-0.362-0.115-0.515-0.298c-0.151-0.183-0.234-0.382-0.252-0.597
		c-0.016-0.215,0.051-0.415,0.202-0.598c0.152-0.183,0.434-0.291,0.848-0.324c0.145,0.111,0.411,0.183,0.802,0.214
		c0.391,0.031,0.833,0.045,1.327,0.045c0.494-0.001,0.988-0.01,1.482-0.026c0.493-0.017,0.916-0.018,1.267-0.002
		c-0.017-0.431-0.034-0.789-0.05-1.076c-0.017-0.287-0.034-0.577-0.05-0.873c-0.017-0.294-0.017-0.521-0.001-0.681
		c0.015-0.239,0.022-0.542,0.022-0.908c-0.001-0.367,0.006-0.753,0.021-1.16c0.016-0.406,0.051-0.816,0.105-1.231
		c0.055-0.415,0.153-0.785,0.297-1.112c0.143-0.327,0.33-0.594,0.561-0.802s0.537-0.312,0.92-0.313c0,0.462-0.006,0.989-0.021,1.578
		c-0.016,0.59-0.034,1.196-0.058,1.817c-0.021,0.622-0.041,1.231-0.056,1.829s-0.021,1.136-0.021,1.614l0.002,1.076
		c0.541-0.033,0.992-0.054,1.351-0.062c0.358-0.009,0.701-0.005,1.027,0.01c0.327,0.015,0.678,0.031,1.053,0.045
		c0.374,0.016,0.849,0.031,1.422,0.045c0.159,0.032,0.244,0.135,0.252,0.31c0.008,0.176,0.013,0.311,0.013,0.407
		c-0.238,0.319-0.533,0.535-0.883,0.647c-0.352,0.112-0.718,0.168-1.1,0.169c-0.383,0-0.766-0.018-1.148-0.058
		c-0.382-0.039-0.732-0.054-1.052-0.046c-0.318,0.009-0.585,0.077-0.8,0.205c-0.215,0.128-0.339,0.368-0.369,0.718
		c-0.19,0.606-0.288,1.279-0.295,2.021c-0.007,0.741,0.015,1.506,0.064,2.295c0.049,0.789,0.091,1.565,0.123,2.33
		c0.034,0.765,0.003,1.462-0.091,2.092s-0.288,1.165-0.582,1.603C228.329,34.907,227.88,35.191,227.274,35.319z"/>
	<path d="M233.459,31.507c0.014-0.845,0.131-1.749,0.353-2.715c0.221-0.964,0.539-1.913,0.951-2.846s0.913-1.814,1.501-2.645
		s1.247-1.532,1.979-2.107c0.207,0.047,0.339,0.123,0.396,0.226c0.056,0.104,0.084,0.211,0.084,0.323
		c0.001,0.112,0.009,0.223,0.024,0.334c0.016,0.112,0.088,0.215,0.217,0.311c1.067,0.03,1.964,0.243,2.69,0.64
		c0.726,0.397,1.293,0.914,1.7,1.551s0.664,1.349,0.769,2.138c0.105,0.789,0.087,1.598-0.055,2.427s-0.403,1.638-0.784,2.428
		c-0.382,0.789-0.857,1.492-1.431,2.106c-0.572,0.614-1.233,1.113-1.981,1.498c-0.748,0.384-1.561,0.585-2.437,0.603
		c-0.622,0.001-1.176-0.113-1.663-0.344c-0.486-0.229-0.901-0.54-1.244-0.93c-0.344-0.39-0.607-0.844-0.792-1.361
		C233.553,32.627,233.46,32.08,233.459,31.507z M234.916,31.36c0.002,0.749,0.21,1.358,0.626,1.828
		c0.415,0.469,0.98,0.703,1.698,0.701c0.846,0.047,1.629-0.146,2.354-0.577c0.724-0.433,1.337-0.991,1.838-1.678
		s0.865-1.448,1.095-2.285s0.284-1.638,0.163-2.403c-0.121-0.765-0.441-1.434-0.96-2.006s-1.281-0.945-2.286-1.119
		c-0.525,0.001-0.999,0.138-1.421,0.41c-0.422,0.271-0.799,0.623-1.134,1.054c-0.334,0.431-0.624,0.922-0.87,1.473
		c-0.246,0.55-0.452,1.104-0.617,1.662c-0.166,0.559-0.289,1.097-0.367,1.614C234.955,30.552,234.916,30.994,234.916,31.36z"/>
	<path d="M245.608,21.825c0.51-0.224,0.903-0.281,1.183-0.17c0.279,0.111,0.483,0.33,0.61,0.656
		c0.129,0.327,0.209,0.722,0.242,1.184s0.046,0.928,0.039,1.398c-0.007,0.47-0.011,0.913-0.01,1.327
		c0.001,0.414,0.05,0.726,0.146,0.933c0.284-1.101,0.697-2.074,1.237-2.919s1.18-1.517,1.92-2.012
		c0.74-0.495,1.568-0.792,2.485-0.889c0.915-0.097,1.9,0.052,2.952,0.449c-0.015,0.016-0.026,0.072-0.034,0.167
		c-0.009,0.096-0.013,0.196-0.013,0.299c0.001,0.104-0.003,0.196-0.011,0.275c-0.008,0.08-0.021,0.12-0.036,0.12
		c-1.498,0.003-2.744,0.237-3.739,0.701c-0.996,0.464-1.787,1.195-2.374,2.192c-0.588,0.998-0.98,2.281-1.176,3.852
		c-0.196,1.57-0.245,3.471-0.145,5.702c-0.08,0.175-0.191,0.318-0.334,0.431c-0.144,0.112-0.295,0.18-0.454,0.204
		s-0.308,0.004-0.442-0.059c-0.136-0.063-0.235-0.191-0.3-0.383c-0.16-0.462-0.277-1.026-0.35-1.695
		c-0.072-0.67-0.131-1.395-0.171-2.176c-0.042-0.78-0.08-1.602-0.113-2.462c-0.033-0.861-0.091-1.713-0.172-2.558
		c-0.082-0.845-0.195-1.657-0.34-2.438C246.065,23.171,245.864,22.462,245.608,21.825z"/>
	<path d="M271.862,37.265c0.014-1.02,0.024-1.88,0.031-2.582c0.007-0.701-0.003-1.374-0.028-2.02
		c-0.024-0.645-0.065-1.318-0.123-2.02s-0.143-1.562-0.256-2.581c-0.415,0.001-0.825,0.045-1.231,0.134
		c-0.406,0.088-0.816,0.133-1.23,0.134c-0.128,0-0.259-0.007-0.396-0.023c-0.135-0.016-0.259-0.047-0.37-0.095
		s-0.203-0.119-0.275-0.215c-0.071-0.096-0.108-0.23-0.108-0.406c-0.001-0.303,0.091-0.518,0.274-0.646
		c0.183-0.128,0.405-0.212,0.668-0.253c0.263-0.04,0.554-0.061,0.873-0.062c0.318,0,0.609-0.024,0.872-0.072
		c0.264-0.049,0.486-0.141,0.669-0.276s0.274-0.372,0.273-0.707c-0.274-1.752-0.532-3.509-0.774-5.27
		c-0.243-1.76-0.334-3.534-0.273-5.319c0.397-0.24,0.725-0.264,0.979-0.074c0.255,0.191,0.463,0.517,0.624,0.979
		c0.16,0.462,0.28,1.027,0.361,1.696s0.15,1.371,0.207,2.103c0.058,0.733,0.118,1.467,0.185,2.2
		c0.064,0.732,0.158,1.394,0.278,1.983s0.28,1.075,0.481,1.458c0.199,0.382,0.459,0.581,0.777,0.596
		c0.271-0.001,0.661-0.025,1.172-0.074c0.51-0.049,1.015-0.125,1.517-0.23s0.94-0.245,1.314-0.421
		c0.374-0.176,0.562-0.4,0.561-0.671c-0.002-0.861-0.067-1.705-0.196-2.534c-0.13-0.828-0.27-1.661-0.423-2.497
		c-0.154-0.837-0.299-1.677-0.436-2.521c-0.138-0.845-0.214-1.713-0.232-2.606c0.478-0.415,0.872-0.531,1.183-0.349
		c0.312,0.183,0.563,0.565,0.755,1.146c0.193,0.582,0.342,1.298,0.447,2.151c0.104,0.853,0.187,1.732,0.244,2.641
		c0.058,0.908,0.111,1.785,0.16,2.629c0.05,0.845,0.114,1.554,0.195,2.128c0.191,0,0.506-0.009,0.944-0.026
		c0.438-0.017,0.896-0.05,1.374-0.099c0.479-0.048,0.925-0.125,1.339-0.229c0.415-0.104,0.692-0.236,0.836-0.396
		c0.367,0.557,0.536,0.971,0.504,1.242c-0.031,0.271-0.19,0.463-0.476,0.575c-0.287,0.112-0.65,0.176-1.088,0.193
		c-0.438,0.017-0.869,0.038-1.291,0.062c-0.423,0.025-0.797,0.09-1.124,0.194c-0.325,0.104-0.521,0.308-0.583,0.61
		c0.05,0.972,0.114,1.785,0.194,2.438c0.082,0.654,0.159,1.279,0.231,1.876c0.072,0.598,0.138,1.231,0.195,1.9
		c0.057,0.67,0.086,1.49,0.088,2.463c-0.03,0.558-0.146,0.92-0.344,1.088c-0.2,0.168-0.411,0.172-0.634,0.014
		c-0.224-0.16-0.428-0.466-0.611-0.92c-0.185-0.454-0.285-1.03-0.302-1.732c-0.002-0.876-0.023-1.59-0.064-2.14
		c-0.042-0.55-0.086-1.06-0.135-1.529c-0.048-0.47-0.093-0.976-0.135-1.518c-0.041-0.542-0.062-1.251-0.063-2.128
		c-0.239,0-0.649,0.018-1.231,0.05c-0.582,0.033-1.187,0.095-1.815,0.183c-0.63,0.09-1.216,0.21-1.758,0.362
		c-0.541,0.152-0.883,0.341-1.025,0.563c-0.031,0.909-0.054,1.635-0.068,2.177s-0.021,1.044-0.021,1.506s0.01,0.956,0.026,1.482
		c0.017,0.525,0.042,1.234,0.076,2.127c0.064,0.271,0.053,0.594-0.034,0.968c-0.087,0.375-0.218,0.701-0.393,0.981
		c-0.176,0.278-0.386,0.463-0.632,0.551C272.345,37.699,272.103,37.583,271.862,37.265z"/>
	<path d="M282.073,26.345c0.224-0.001,0.438,0.026,0.646,0.082s0.419,0.111,0.634,0.166c0.215,0.056,0.431,0.111,0.646,0.166
		c0.216,0.056,0.435,0.083,0.658,0.083c0.111-0.001,0.238-0.132,0.382-0.396c0.143-0.263,0.321-0.59,0.535-0.981
		c0.215-0.391,0.477-0.814,0.786-1.269c0.311-0.455,0.681-0.878,1.11-1.27c0.429-0.391,0.93-0.719,1.504-0.983
		c0.572-0.264,1.233-0.396,1.983-0.398c0.334-0.001,0.657,0.066,0.969,0.201c0.311,0.135,0.582,0.317,0.813,0.548
		s0.416,0.493,0.551,0.788c0.137,0.295,0.204,0.602,0.205,0.92c0.001,0.717-0.104,1.303-0.318,1.757
		c-0.215,0.455-0.505,0.818-0.87,1.09c-0.367,0.271-0.793,0.476-1.278,0.611c-0.486,0.137-1.009,0.245-1.565,0.326
		c-0.558,0.081-1.135,0.158-1.732,0.23c-0.598,0.073-1.184,0.182-1.757,0.326c-0.206,0.813-0.24,1.587-0.104,2.319
		c0.138,0.732,0.39,1.374,0.757,1.923c0.368,0.549,0.823,0.983,1.366,1.3c0.541,0.318,1.108,0.48,1.698,0.487
		c0.589,0.007,1.174-0.169,1.756-0.529c0.581-0.36,1.102-0.946,1.562-1.76c0.144-0.001,0.251,0.043,0.323,0.13
		c0.072,0.088,0.12,0.191,0.145,0.312c0.023,0.119,0.035,0.247,0.036,0.382c0,0.136-0.008,0.26-0.023,0.371
		c-0.731,1.005-1.475,1.695-2.23,2.072c-0.757,0.375-1.485,0.521-2.188,0.434c-0.701-0.086-1.354-0.367-1.961-0.845
		c-0.606-0.477-1.134-1.069-1.582-1.778c-0.447-0.707-0.796-1.488-1.044-2.34c-0.249-0.853-0.358-1.7-0.328-2.545
		c-0.191-0.191-0.406-0.326-0.646-0.406c-0.239-0.079-0.467-0.166-0.683-0.261c-0.215-0.096-0.395-0.234-0.538-0.418
		C282.146,27.01,282.073,26.727,282.073,26.345z M290.696,23.22c-0.7,0.049-1.302,0.206-1.804,0.47
		c-0.501,0.264-0.918,0.583-1.253,0.958c-0.334,0.375-0.596,0.766-0.786,1.173c-0.191,0.408-0.326,0.778-0.404,1.113
		c-0.016-0.048,0.111-0.08,0.383-0.097c0.271-0.016,0.613-0.053,1.026-0.109c0.414-0.057,0.864-0.129,1.351-0.218
		c0.486-0.088,0.948-0.225,1.386-0.409c0.438-0.184,0.815-0.42,1.135-0.708c0.317-0.288,0.508-0.654,0.572-1.101
		c-0.001-0.207-0.054-0.378-0.157-0.513c-0.104-0.135-0.236-0.243-0.396-0.322c-0.159-0.079-0.334-0.139-0.525-0.178
		C291.032,23.239,290.855,23.219,290.696,23.22z"/>
	<path d="M294.854,21.729c0.51-0.224,0.903-0.28,1.183-0.17c0.279,0.111,0.483,0.33,0.61,0.656c0.129,0.327,0.209,0.721,0.242,1.183
		c0.033,0.462,0.046,0.929,0.039,1.398c-0.007,0.47-0.011,0.913-0.01,1.327c0.001,0.415,0.05,0.726,0.146,0.933
		c0.284-1.101,0.697-2.073,1.237-2.919c0.54-0.846,1.18-1.516,1.92-2.012c0.74-0.495,1.568-0.792,2.485-0.889
		c0.915-0.098,1.9,0.052,2.952,0.448c-0.015,0.016-0.026,0.072-0.034,0.167c-0.009,0.096-0.013,0.196-0.013,0.299
		c0.001,0.104-0.003,0.196-0.011,0.275c-0.008,0.08-0.021,0.12-0.036,0.12c-1.498,0.003-2.744,0.237-3.739,0.7
		c-0.996,0.464-1.787,1.195-2.374,2.192c-0.588,0.998-0.98,2.282-1.176,3.851c-0.196,1.57-0.245,3.472-0.145,5.702
		c-0.08,0.176-0.191,0.319-0.334,0.431c-0.144,0.112-0.295,0.181-0.454,0.204c-0.159,0.024-0.308,0.005-0.442-0.059
		c-0.136-0.063-0.235-0.191-0.3-0.383c-0.16-0.461-0.277-1.026-0.35-1.695c-0.072-0.67-0.131-1.395-0.171-2.176
		c-0.042-0.78-0.08-1.602-0.113-2.462s-0.091-1.713-0.172-2.558c-0.082-0.845-0.195-1.657-0.34-2.438S295.11,22.367,294.854,21.729z
		"/>
	<path d="M306.329,21.708c0.51-0.224,0.903-0.281,1.183-0.17c0.279,0.111,0.483,0.33,0.61,0.656
		c0.129,0.327,0.209,0.722,0.242,1.184s0.046,0.928,0.039,1.398c-0.007,0.47-0.011,0.913-0.01,1.327
		c0.001,0.415,0.05,0.726,0.146,0.933c0.284-1.1,0.697-2.073,1.237-2.919s1.18-1.517,1.92-2.012c0.74-0.495,1.568-0.792,2.485-0.889
		c0.915-0.097,1.9,0.052,2.952,0.449c-0.015,0.016-0.026,0.072-0.034,0.167c-0.009,0.096-0.013,0.196-0.013,0.299
		c0.001,0.104-0.003,0.196-0.011,0.275c-0.008,0.08-0.021,0.12-0.036,0.12c-1.498,0.003-2.744,0.237-3.739,0.701
		c-0.996,0.464-1.787,1.195-2.374,2.192c-0.588,0.998-0.98,2.282-1.176,3.851c-0.196,1.571-0.245,3.472-0.145,5.703
		c-0.08,0.175-0.191,0.318-0.334,0.43c-0.144,0.113-0.295,0.181-0.454,0.204c-0.159,0.024-0.308,0.005-0.442-0.059
		c-0.136-0.063-0.235-0.191-0.3-0.382c-0.16-0.462-0.277-1.027-0.35-1.696c-0.072-0.67-0.131-1.395-0.171-2.176
		c-0.042-0.78-0.08-1.602-0.113-2.462s-0.091-1.713-0.172-2.558c-0.082-0.845-0.195-1.657-0.34-2.438
		C306.786,23.053,306.585,22.345,306.329,21.708z"/>
	<path d="M315.542,26.279c0.224,0,0.438,0.027,0.646,0.082c0.207,0.057,0.419,0.111,0.634,0.167s0.431,0.11,0.646,0.166
		c0.216,0.056,0.435,0.083,0.658,0.082c0.111,0,0.238-0.132,0.382-0.396c0.143-0.263,0.321-0.59,0.535-0.981
		c0.215-0.391,0.477-0.814,0.786-1.269c0.311-0.455,0.681-0.878,1.11-1.269c0.429-0.391,0.93-0.719,1.504-0.983
		c0.572-0.265,1.233-0.397,1.983-0.398c0.334-0.001,0.657,0.066,0.969,0.201c0.311,0.135,0.582,0.318,0.813,0.548
		c0.231,0.231,0.416,0.493,0.551,0.788c0.137,0.295,0.204,0.602,0.205,0.92c0.001,0.717-0.104,1.303-0.318,1.757
		c-0.215,0.456-0.505,0.818-0.87,1.089c-0.367,0.272-0.793,0.477-1.278,0.612c-0.486,0.137-1.009,0.245-1.565,0.326
		c-0.558,0.081-1.135,0.157-1.732,0.23c-0.598,0.072-1.184,0.182-1.757,0.326c-0.206,0.813-0.24,1.587-0.104,2.319
		c0.138,0.732,0.39,1.373,0.757,1.923c0.368,0.549,0.823,0.982,1.366,1.3c0.541,0.318,1.108,0.48,1.698,0.487
		c0.589,0.007,1.174-0.17,1.756-0.53c0.581-0.359,1.102-0.945,1.562-1.76c0.144,0,0.251,0.044,0.323,0.131
		c0.072,0.088,0.12,0.191,0.145,0.311c0.023,0.12,0.035,0.247,0.036,0.383c0,0.135-0.008,0.259-0.023,0.37
		c-0.731,1.006-1.475,1.696-2.23,2.073c-0.757,0.375-1.485,0.521-2.188,0.434c-0.701-0.087-1.354-0.367-1.961-0.845
		c-0.606-0.477-1.134-1.069-1.582-1.778c-0.447-0.708-0.796-1.488-1.044-2.341c-0.249-0.852-0.358-1.7-0.328-2.545
		c-0.191-0.19-0.406-0.326-0.646-0.405s-0.467-0.166-0.683-0.262c-0.215-0.095-0.395-0.233-0.538-0.417
		C315.615,26.945,315.542,26.662,315.542,26.279z M324.165,23.155c-0.7,0.049-1.302,0.206-1.804,0.47
		c-0.501,0.264-0.918,0.584-1.253,0.958c-0.334,0.375-0.596,0.766-0.786,1.173c-0.191,0.407-0.326,0.777-0.404,1.113
		c-0.016-0.048,0.111-0.08,0.383-0.097c0.271-0.017,0.613-0.053,1.026-0.109c0.414-0.057,0.864-0.129,1.351-0.218
		s0.948-0.226,1.386-0.409c0.438-0.185,0.815-0.42,1.135-0.708c0.317-0.288,0.508-0.654,0.572-1.101
		c-0.001-0.207-0.054-0.378-0.157-0.513c-0.104-0.135-0.236-0.243-0.396-0.322c-0.159-0.08-0.334-0.139-0.525-0.178
		C324.501,23.174,324.324,23.154,324.165,23.155z"/>
	<path d="M328.322,21.665c0.51-0.224,0.903-0.28,1.183-0.169s0.483,0.33,0.61,0.656c0.129,0.327,0.209,0.721,0.242,1.183
		c0.033,0.462,0.046,0.929,0.039,1.398c-0.007,0.47-0.011,0.913-0.01,1.327c0.001,0.414,0.05,0.726,0.146,0.933
		c0.284-1.101,0.697-2.074,1.237-2.919c0.54-0.846,1.18-1.517,1.92-2.012c0.74-0.495,1.568-0.792,2.485-0.889
		c0.915-0.098,1.9,0.052,2.952,0.448c-0.015,0.016-0.026,0.072-0.034,0.167c-0.009,0.096-0.013,0.196-0.013,0.299
		c0.001,0.104-0.003,0.196-0.011,0.275c-0.008,0.08-0.021,0.12-0.036,0.12c-1.498,0.003-2.744,0.237-3.739,0.701
		c-0.996,0.464-1.787,1.195-2.374,2.192c-0.588,0.997-0.98,2.281-1.176,3.852c-0.196,1.57-0.245,3.471-0.145,5.702
		c-0.08,0.175-0.191,0.318-0.334,0.431c-0.144,0.112-0.295,0.18-0.454,0.203c-0.159,0.025-0.308,0.005-0.442-0.059
		c-0.136-0.063-0.235-0.19-0.3-0.382c-0.16-0.462-0.277-1.026-0.35-1.695c-0.072-0.67-0.131-1.396-0.171-2.177
		c-0.042-0.779-0.08-1.601-0.113-2.461c-0.033-0.861-0.091-1.714-0.172-2.558c-0.082-0.845-0.195-1.658-0.34-2.438
		S328.578,22.302,328.322,21.665z"/>
	<path d="M337.928,31.304c0.014-0.844,0.131-1.748,0.353-2.714c0.221-0.964,0.539-1.913,0.951-2.847
		c0.412-0.933,0.913-1.814,1.501-2.645c0.588-0.83,1.247-1.532,1.979-2.107c0.207,0.047,0.339,0.123,0.396,0.227
		c0.056,0.104,0.084,0.211,0.084,0.322c0.001,0.112,0.009,0.223,0.024,0.334c0.016,0.112,0.088,0.215,0.217,0.311
		c1.067,0.03,1.964,0.244,2.69,0.641c0.726,0.397,1.293,0.914,1.7,1.55c0.407,0.637,0.664,1.349,0.769,2.139
		c0.105,0.788,0.087,1.598-0.055,2.426c-0.142,0.83-0.403,1.639-0.784,2.429c-0.382,0.789-0.857,1.492-1.431,2.106
		c-0.572,0.614-1.233,1.113-1.981,1.498c-0.748,0.384-1.561,0.585-2.437,0.602c-0.622,0.002-1.176-0.112-1.663-0.343
		c-0.486-0.229-0.901-0.54-1.244-0.931c-0.344-0.389-0.607-0.844-0.792-1.36C338.021,32.424,337.929,31.878,337.928,31.304z
		 M339.385,31.158c0.002,0.749,0.21,1.358,0.626,1.827c0.415,0.469,0.98,0.703,1.698,0.702c0.846,0.046,1.629-0.146,2.354-0.578
		c0.724-0.432,1.337-0.99,1.838-1.677s0.865-1.448,1.095-2.286c0.229-0.837,0.284-1.638,0.163-2.402
		c-0.121-0.765-0.441-1.434-0.96-2.007s-1.281-0.945-2.286-1.119c-0.525,0.001-0.999,0.138-1.421,0.41s-0.799,0.623-1.134,1.054
		c-0.334,0.431-0.624,0.922-0.87,1.472c-0.246,0.551-0.452,1.104-0.617,1.663c-0.166,0.558-0.289,1.097-0.367,1.614
		C339.424,30.349,339.385,30.791,339.385,31.158z"/>
</g>
<g>
	<path d="M179.617,33.543c-1.015,1.129-2.119,1.975-3.316,2.538c-1.195,0.564-2.489,0.847-3.879,0.847
		c-2.563,0-4.598-0.866-6.102-2.598c-1.219-1.413-1.828-2.991-1.828-4.734c0-1.549,0.498-2.948,1.495-4.195
		c0.997-1.248,2.487-2.344,4.47-3.29c-1.129-1.299-1.881-2.353-2.256-3.162c-0.377-0.809-0.564-1.589-0.564-2.341
		c0-1.504,0.59-2.812,1.769-3.922c1.18-1.111,2.663-1.667,4.452-1.667c1.709,0,3.107,0.524,4.195,1.572
		c1.088,1.048,1.633,2.307,1.633,3.777c0,2.381-1.579,4.415-4.734,6.101l4.494,5.725c0.514-1.003,0.912-2.165,1.197-3.486
		l3.195,0.684c-0.547,2.188-1.288,3.987-2.222,5.4c1.15,1.526,2.455,2.809,3.913,3.845l-2.067,2.444
		C182.22,36.283,180.938,35.104,179.617,33.543z M177.686,31.117l-5.64-6.99c-1.664,0.991-2.786,1.912-3.366,2.76
		c-0.582,0.85-0.872,1.689-0.872,2.521c0,1.014,0.404,2.067,1.214,3.161c0.809,1.094,1.953,1.641,3.435,1.641
		c0.923,0,1.877-0.288,2.862-0.863S177.093,32.028,177.686,31.117z M173.361,20.487c1.334-0.786,2.196-1.475,2.59-2.068
		c0.393-0.592,0.59-1.248,0.59-1.965c0-0.854-0.271-1.552-0.813-2.093s-1.216-0.812-2.025-0.812c-0.831,0-1.523,0.268-2.076,0.803
		c-0.553,0.536-0.828,1.191-0.828,1.965c0,0.388,0.099,0.794,0.299,1.222c0.199,0.427,0.498,0.88,0.896,1.358L173.361,20.487z"/>
</g>
<g>
</g>
<g>
</g>
<g>
</g>
<g>
</g>
<g>
</g>
<g>
</g>
</svg>
