<?xml version="1.0" encoding="utf-8"?>
<!-- Generator: Adobe Illustrator 17.0.0, SVG Export Plug-In . SVG Version: 6.00 Build 0)  -->
<!DOCTYPE svg PUBLIC "-//W3C//DTD SVG 1.1//EN" "http://www.w3.org/Graphics/SVG/1.1/DTD/svg11.dtd">
<svg version="1.1" id="Capa_1" xmlns="http://www.w3.org/2000/svg" xmlns:xlink="http://www.w3.org/1999/xlink" x="0px" y="0px"
	 width="43px" height="31px" viewBox="0 0 43 31" enable-background="new 0 0 43 31" xml:space="preserve">
<path fill="#FFFFFF" d="M38.796,3.809H28.071v2.602h10.725V3.809z M33.507,12.751c-1.259,0-2.281,0.368-3.064,1.103
	c-0.784,0.735-1.217,1.732-1.301,2.991h8.564c-0.252-2.728-1.651-4.093-4.197-4.093L33.507,12.751z M33.843,25.029
	c0.881,0,1.735-0.224,2.561-0.671s1.358-1.056,1.595-1.827h4.638c-1.399,4.296-4.387,6.444-8.962,6.444
	c-2.994,0-5.376-0.923-7.146-2.77s-2.655-4.275-2.655-7.283c0-2.91,0.913-5.328,2.739-7.252s4.18-2.886,7.063-2.886
	c1.931,0,3.614,0.476,5.048,1.427c1.435,0.951,2.505,2.203,3.211,3.757c0.706,1.553,1.059,3.288,1.06,5.206
	c0,0.238-0.014,0.567-0.042,0.986H29.142c0,1.553,0.402,2.753,1.207,3.6C31.153,24.606,32.318,25.03,33.843,25.029z M5.822,23.979
	h6.213c2.869,0,4.303-1.168,4.303-3.505c0-2.518-1.392-3.778-4.177-3.778H5.822C5.822,16.696,5.822,23.979,5.822,23.979z
	 M5.822,12.708h5.898c1.091,0,1.955-0.255,2.592-0.766s0.955-1.305,0.956-2.383c0-2.015-1.329-3.022-3.988-3.022H5.822V12.708z
	 M0.008,2.025h12.467c1.218,0,2.302,0.098,3.253,0.294s1.836,0.528,2.655,0.997s1.448,1.144,1.889,2.025
	c0.44,0.882,0.661,1.959,0.662,3.232c0,2.533-1.203,4.372-3.61,5.52c1.595,0.447,2.799,1.252,3.61,2.414s1.217,2.589,1.218,4.282
	c0,1.049-0.172,2.004-0.515,2.866c-0.343,0.861-0.805,1.585-1.386,2.172s-1.27,1.084-2.068,1.49s-1.644,0.701-2.54,0.882
	s-1.833,0.272-2.813,0.273H0.005V2.026h0.003V2.025z"/>
</svg>
