<?xml version="1.0" encoding="utf-8"?>
<!-- Generator: Adobe Illustrator 17.0.0, SVG Export Plug-In . SVG Version: 6.00 Build 0)  -->
<!DOCTYPE svg PUBLIC "-//W3C//DTD SVG 1.1//EN" "http://www.w3.org/Graphics/SVG/1.1/DTD/svg11.dtd">
<svg version="1.1" id="Capa_1" xmlns="http://www.w3.org/2000/svg" xmlns:xlink="http://www.w3.org/1999/xlink" x="0px" y="0px"
	 width="1924px" height="300px" viewBox="0 0 1924 300" enable-background="new 0 0 1924 300" xml:space="preserve">
<g id="montañas">
	<g>
		<defs>
			<polygon id="SVGID_1_" points="197.805,280.469 289.8,103.546 381.795,280.469 			"/>
		</defs>
		<clipPath id="SVGID_2_">
			<use xlink:href="#SVGID_1_"  overflow="visible"/>
		</clipPath>
		<g clip-path="url(#SVGID_2_)">
			<polygon fill="#95817B" points="197.805,280.469 289.8,280.469 289.8,103.546 			"/>
			<polygon fill="#7D6E69" points="289.8,103.546 289.8,280.469 381.795,280.469 			"/>
		</g>
	</g>
	<g>
		<defs>
			<polygon id="SVGID_3_" points="197.805,280.469 289.8,103.546 381.795,280.469 			"/>
		</defs>
		<clipPath id="SVGID_4_">
			<use xlink:href="#SVGID_3_"  overflow="visible"/>
		</clipPath>
		<g clip-path="url(#SVGID_4_)">
			<path fill="#E5E5E4" d="M248.027,171.521c0.538,6.327,6.103,11.023,12.429,10.488c2.329-0.199,4.433-1.08,6.141-2.427
				c1.265,5.487,6.389,9.356,12.162,8.866c4.089-0.348,7.486-2.799,9.242-6.193c0.525,0.696,1.133,1.32,1.797,1.879v-80.579
				c-5.297,0.448-42.31,61.637-41.773,67.974L248.027,171.521z"/>
			<path fill="#CAC9C9" d="M330.054,169.453c-0.535-6.327-33.921-66.439-40.25-65.904v80.583c2.244,1.892,5.198,2.939,8.352,2.673
				c5.306-0.449,9.449-4.437,10.34-9.441c2.313,2.323,5.597,3.649,9.121,3.351c6.336-0.536,12.986-4.928,12.449-11.254
				L330.054,169.453z"/>
		</g>
	</g>
	<g>
		<defs>
			<polygon id="SVGID_5_" points="486.787,258.118 561.684,114.091 636.581,258.118 			"/>
		</defs>
		<clipPath id="SVGID_6_">
			<use xlink:href="#SVGID_5_"  overflow="visible"/>
		</clipPath>
		<g clip-path="url(#SVGID_6_)">
			<polygon fill="#95817B" points="486.787,258.118 561.684,258.118 561.684,114.091 			"/>
			<polygon fill="#7D6E69" points="561.684,114.091 561.684,258.118 636.581,258.118 			"/>
		</g>
	</g>
	<g>
		<defs>
			<polygon id="SVGID_7_" points="486.787,258.118 561.684,114.091 636.581,258.118 			"/>
		</defs>
		<clipPath id="SVGID_8_">
			<use xlink:href="#SVGID_7_"  overflow="visible"/>
		</clipPath>
		<g clip-path="url(#SVGID_8_)">
			<path fill="#E5E5E4" d="M527.677,169.42c0.439,5.151,4.969,8.974,10.119,8.539c1.895-0.162,3.61-0.88,4.999-1.977
				c1.03,4.467,5.202,7.616,9.901,7.218c3.329-0.284,6.094-2.279,7.523-5.043c0.428,0.567,0.922,1.075,1.463,1.529v-65.601
				c-4.325,0.358-34.442,50.177-34.006,55.329L527.677,169.42z"/>
			<path fill="#CAC9C9" d="M594.45,167.732c-0.436-5.151-27.615-54.087-32.767-53.65v65.601c1.826,1.54,4.231,2.393,6.799,2.176
				c4.319-0.364,7.694-3.611,8.419-7.685c1.883,1.892,4.556,2.972,7.424,2.73c5.163-0.425,10.572-4.001,10.136-9.164L594.45,167.732
				z"/>
		</g>
	</g>
	<g>
		<defs>
			<polygon id="SVGID_9_" points="38.964,289.409 130.966,112.482 222.961,289.409 			"/>
		</defs>
		<clipPath id="SVGID_10_">
			<use xlink:href="#SVGID_9_"  overflow="visible"/>
		</clipPath>
		<g clip-path="url(#SVGID_10_)">
			<polygon fill="#AE9892" points="38.964,289.409 130.966,289.409 130.966,112.482 			"/>
			<polygon fill="#938581" points="130.966,112.482 130.966,289.409 222.961,289.409 			"/>
		</g>
	</g>
	<g>
		<defs>
			<polygon id="SVGID_11_" points="38.964,289.409 130.966,112.482 222.961,289.409 			"/>
		</defs>
		<clipPath id="SVGID_12_">
			<use xlink:href="#SVGID_11_"  overflow="visible"/>
		</clipPath>
		<g clip-path="url(#SVGID_12_)">
			<path fill="#FFFFFF" d="M89.194,180.461c0.538,6.327,6.102,11.023,12.43,10.488c2.328-0.199,4.432-1.08,6.14-2.427
				c1.265,5.487,6.389,9.356,12.162,8.866c4.089-0.348,7.485-2.799,9.241-6.193c0.525,0.696,1.134,1.32,1.798,1.879v-80.583
				c-5.297,0.458-42.296,61.643-41.761,67.979L89.194,180.461z"/>
			<path fill="#E2E2E2" d="M171.208,178.393c-0.535-6.327-33.921-66.439-40.25-65.904v80.583c2.244,1.892,5.198,2.939,8.352,2.673
				c5.305-0.449,9.449-4.437,10.339-9.441c2.314,2.323,5.597,3.649,9.12,3.351c6.348-0.548,12.986-4.939,12.449-11.265
				L171.208,178.393z"/>
		</g>
	</g>
	<g>
		<defs>
			<polygon id="SVGID_13_" points="384.634,264.823 476.629,87.9 568.624,264.823 			"/>
		</defs>
		<clipPath id="SVGID_14_">
			<use xlink:href="#SVGID_13_"  overflow="visible"/>
		</clipPath>
		<g clip-path="url(#SVGID_14_)">
			<polygon fill="#95817B" points="384.634,264.823 476.629,264.823 476.629,87.9 			"/>
			<polygon fill="#7D6E69" points="476.629,87.9 476.629,264.823 568.624,264.823 			"/>
		</g>
	</g>
	<g>
		<defs>
			<polygon id="SVGID_15_" points="384.634,264.823 476.629,87.9 568.624,264.823 			"/>
		</defs>
		<clipPath id="SVGID_16_">
			<use xlink:href="#SVGID_15_"  overflow="visible"/>
		</clipPath>
		<g clip-path="url(#SVGID_16_)">
			<path fill="#E5E5E4" d="M434.855,155.875c0.538,6.327,6.103,11.023,12.429,10.488c2.329-0.199,4.433-1.08,6.141-2.427
				c1.265,5.487,6.389,9.356,12.162,8.866c4.089-0.348,7.486-2.799,9.242-6.193c0.525,0.696,1.133,1.32,1.797,1.879V87.908
				c-5.308,0.448-42.31,61.637-41.773,67.974L434.855,155.875z"/>
			<path fill="#CAC9C9" d="M516.882,153.808c-0.535-6.327-33.922-66.439-40.25-65.904v80.583c2.244,1.892,5.198,2.939,8.352,2.673
				c5.306-0.449,9.449-4.437,10.34-9.441c2.313,2.323,5.597,3.649,9.121,3.351c6.336-0.536,12.986-4.928,12.449-11.254
				L516.882,153.808z"/>
		</g>
	</g>
	<g>
		<defs>
			<polygon id="SVGID_17_" points="268.914,274.881 381.46,58.461 493.995,274.881 			"/>
		</defs>
		<clipPath id="SVGID_18_">
			<use xlink:href="#SVGID_17_"  overflow="visible"/>
		</clipPath>
		<g clip-path="url(#SVGID_18_)">
			<polygon fill="#AE9892" points="268.914,274.881 381.46,274.881 381.46,58.461 			"/>
			<polygon fill="#938581" points="381.46,58.461 381.46,274.881 493.995,274.881 			"/>
		</g>
	</g>
	<g>
		<defs>
			<polygon id="SVGID_19_" points="268.914,274.881 381.46,58.461 493.995,274.881 			"/>
		</defs>
		<clipPath id="SVGID_20_">
			<use xlink:href="#SVGID_19_"  overflow="visible"/>
		</clipPath>
		<g clip-path="url(#SVGID_20_)">
			<path fill="#FFFFFF" d="M330.355,141.604c0.657,7.739,7.464,13.483,15.205,12.828c2.849-0.244,5.422-1.322,7.511-2.97
				c1.547,6.713,7.816,11.445,14.877,10.847c5.001-0.425,9.156-3.424,11.303-7.576c0.643,0.852,1.388,1.614,2.199,2.297V58.455
				c-6.482,0.549-51.742,75.397-51.093,83.142L330.355,141.604z"/>
			<path fill="#E2E2E2" d="M430.687,139.079c-0.657-7.74-41.493-81.272-49.235-80.617v98.572c2.746,2.316,6.357,3.595,10.218,3.271
				c6.489-0.55,11.556-5.429,12.647-11.549c2.83,2.842,6.846,4.463,11.157,4.1c7.744-0.671,15.88-6.046,15.221-13.79
				L430.687,139.079z"/>
		</g>
	</g>
	<g>
		<defs>
			<polygon id="SVGID_21_" points="546.05,261.471 658.585,45.051 771.12,261.471 			"/>
		</defs>
		<clipPath id="SVGID_22_">
			<use xlink:href="#SVGID_21_"  overflow="visible"/>
		</clipPath>
		<g clip-path="url(#SVGID_22_)">
			<polygon fill="#AE9892" points="546.05,261.471 658.585,261.471 658.585,45.051 			"/>
			<polygon fill="#938581" points="658.585,45.051 658.585,261.471 771.12,261.471 			"/>
		</g>
	</g>
	<g>
		<defs>
			<polygon id="SVGID_23_" points="546.05,261.471 658.585,45.051 771.12,261.471 			"/>
		</defs>
		<clipPath id="SVGID_24_">
			<use xlink:href="#SVGID_23_"  overflow="visible"/>
		</clipPath>
		<g clip-path="url(#SVGID_24_)">
			<path fill="#FFFFFF" d="M607.491,128.194c0.656,7.739,7.464,13.483,15.204,12.828c2.849-0.244,5.423-1.322,7.512-2.97
				c1.547,6.713,7.815,11.445,14.877,10.847c5-0.425,9.156-3.424,11.303-7.576c0.643,0.852,1.388,1.614,2.199,2.297V45.044
				c-6.482,0.549-51.742,75.397-51.082,83.142L607.491,128.194z"/>
			<path fill="#E2E2E2" d="M707.823,125.668c-0.657-7.74-41.494-81.272-49.236-80.617v98.572c2.746,2.316,6.357,3.595,10.218,3.271
				c6.49-0.55,11.556-5.429,12.647-11.549c2.83,2.842,6.846,4.463,11.157,4.1c7.744-0.671,15.869-6.046,15.221-13.79
				L707.823,125.668z"/>
		</g>
	</g>
</g>
<g id="arboles">
	<rect x="400.01" y="222.303" fill="#69462E" width="3.213" height="28.72"/>
	<path fill="#68754E" d="M401.61,184.77c-6.997,0-12.673,5.676-12.673,12.676v18.942c0,7.004,5.676,12.673,12.673,12.673
		c7.003,0,12.673-5.669,12.673-12.673v-18.942c0.01-7-5.66-12.68-12.67-12.68L401.61,184.77z"/>
	<rect x="464.7" y="221.032" fill="#69462E" width="2.958" height="26.431"/>
	<path fill="#68754E" d="M466.18,187.26c-6.44,0-11.664,5.223-11.664,11.665v17.432c0,6.444,5.224,11.661,11.664,11.661
		c6.443,0,11.661-5.217,11.661-11.661v-17.432c0-6.44-5.22-11.66-11.66-11.66L466.18,187.26z"/>
	<rect x="624.42" y="218.314" fill="#69462E" width="2.956" height="26.429"/>
	<path fill="#68754E" d="M625.9,185.57c-6.44,0-11.664,5.224-11.664,11.666v17.431c0,6.446,5.224,11.662,11.664,11.662
		c6.443,0,11.661-5.216,11.661-11.662v-17.431c0-6.45-5.22-11.67-11.66-11.67L625.9,185.57z"/>
	<rect x="660.97" y="218.314" fill="#69462E" width="2.957" height="26.429"/>
	<path fill="#68754E" d="M662.45,185.57c-6.439,0-11.663,5.224-11.663,11.666v17.431c0,6.446,5.224,11.662,11.663,11.662
		c6.445,0,11.661-5.216,11.661-11.662v-17.431c0-6.45-5.22-11.67-11.66-11.67L662.45,185.57z"/>
	<rect x="437.22" y="226.307" fill="#69462E" width="3.531" height="28.821"/>
	<polygon fill="#68754E" points="438.99,171.74 421.86,229.79 438.99,229.79 456.12,229.79 	"/>
	<rect x="500.55" y="218.427" fill="#69462E" width="3.099" height="25.297"/>
	<polygon fill="#68754E" points="502.1,173.76 487.06,224.72 502.1,224.72 517.14,224.72 	"/>
	<rect x="582.85" y="217.478" fill="#69462E" width="2.883" height="23.53"/>
	<polygon fill="#68754E" points="584.29,176.65 570.31,224.04 584.29,224.04 598.28,224.04 	"/>
	<rect x="517.03" y="216.03" fill="#69462E" width="3.214" height="28.716"/>
	<path fill="#8B8C43" d="M518.64,180.88c-6.997,0-12.673,5.675-12.673,12.676v18.942c0,7.005,5.676,12.672,12.673,12.672
		c7.005,0,12.674-5.667,12.674-12.672v-18.942c0-7.01-5.67-12.68-12.67-12.68L518.64,180.88z"/>
	<rect x="450.05" y="219.681" fill="#69462E" width="3.214" height="28.72"/>
	<path fill="#8B8C43" d="M451.66,183.14c-6.998,0-12.674,5.678-12.674,12.678v18.941c0,7.004,5.676,12.673,12.674,12.673
		c7.003,0,12.673-5.669,12.673-12.673v-18.941c0-7-5.67-12.68-12.67-12.68L451.66,183.14z"/>
	<rect x="385.56" y="228.044" fill="#69462E" width="3.215" height="28.718"/>
	<path fill="#8B8C43" d="M387.16,188.34c-6.999,0-12.674,5.677-12.674,12.678v18.941c0,7.004,5.675,12.673,12.674,12.673
		c7.003,0,12.673-5.669,12.673-12.673v-18.941c0.01-7-5.67-12.68-12.67-12.68L387.16,188.34z"/>
	<rect x="195.96" y="241.728" fill="#69462E" width="3.215" height="28.718"/>
	<path fill="#8B8C43" d="M197.56,197.47c-6.999,0-12.674,5.677-12.674,12.678v18.941c0,7.004,5.675,12.673,12.674,12.673
		c7.003,0,12.673-5.669,12.673-12.673v-18.941c0.01-7.01-5.66-12.68-12.67-12.68L197.56,197.47z"/>
	<rect x="479.21" y="219.408" fill="#69462E" width="3.531" height="28.821"/>
	<polygon fill="#8B8C43" points="480.98,167.45 463.84,225.5 480.98,225.5 498.11,225.5 	"/>
	<rect x="563.8" y="213.28" fill="#69462E" width="3.532" height="28.821"/>
	<polygon fill="#8B8C43" points="565.57,163.63 548.44,221.69 565.57,221.69 582.7,221.69 	"/>
	<rect x="604.96" y="213.28" fill="#69462E" width="3.531" height="28.821"/>
	<polygon fill="#8B8C43" points="606.73,163.63 589.6,221.69 606.73,221.69 623.86,221.69 	"/>
	<rect x="641.28" y="214.567" fill="#69462E" width="3.247" height="26.495"/>
	<polygon fill="#8B8C43" points="642.9,169.01 627.15,222.38 642.9,222.38 658.65,222.38 	"/>
	<rect x="418.59" y="221.354" fill="#69462E" width="3.531" height="28.821"/>
	<polygon fill="#8B8C43" points="420.35,168.65 403.22,226.71 420.35,226.71 437.48,226.71 	"/>
</g>
<g id="pisos">
	<rect x="1469.4" y="123.01" fill="#EBE3CB" width="67.658" height="117.62"/>
	<g>
		<rect x="1474.9" y="131.3" fill="#A1C4CA" width="6.092" height="10.157"/>
		<rect x="1491.8" y="131.3" fill="#A1C4CA" width="6.092" height="10.157"/>
		<rect x="1508.6" y="131.3" fill="#A1C4CA" width="6.092" height="10.157"/>
		<rect x="1525.5" y="131.3" fill="#A1C4CA" width="6.092" height="10.157"/>
		<rect x="1474.9" y="146.75" fill="#A1C4CA" width="6.092" height="10.155"/>
		<rect x="1491.8" y="146.75" fill="#A1C4CA" width="6.092" height="10.155"/>
		<rect x="1508.6" y="146.75" fill="#A1C4CA" width="6.092" height="10.155"/>
		<rect x="1525.5" y="146.75" fill="#A1C4CA" width="6.092" height="10.155"/>
		<rect x="1474.9" y="162.21" fill="#A1C4CA" width="6.092" height="10.156"/>
		<rect x="1491.8" y="162.21" fill="#A1C4CA" width="6.092" height="10.156"/>
		<rect x="1508.6" y="162.21" fill="#A1C4CA" width="6.092" height="10.156"/>
		<rect x="1525.5" y="162.21" fill="#A1C4CA" width="6.092" height="10.156"/>
	</g>
	<g>
		<rect x="1474.9" y="177.67" fill="#A1C4CA" width="6.092" height="10.155"/>
		<rect x="1491.8" y="177.67" fill="#A1C4CA" width="6.092" height="10.155"/>
		<rect x="1508.6" y="177.67" fill="#A1C4CA" width="6.092" height="10.155"/>
		<rect x="1525.5" y="177.67" fill="#A1C4CA" width="6.092" height="10.155"/>
		<rect x="1474.9" y="193.12" fill="#A1C4CA" width="6.092" height="10.155"/>
		<rect x="1491.8" y="193.12" fill="#A1C4CA" width="6.092" height="10.155"/>
		<rect x="1508.6" y="193.12" fill="#A1C4CA" width="6.092" height="10.155"/>
		<rect x="1525.5" y="193.12" fill="#A1C4CA" width="6.092" height="10.155"/>
		<rect x="1474.9" y="208.58" fill="#A1C4CA" width="6.092" height="10.156"/>
		<rect x="1491.8" y="208.58" fill="#A1C4CA" width="6.092" height="10.156"/>
		<rect x="1508.6" y="208.58" fill="#A1C4CA" width="6.092" height="10.156"/>
		<rect x="1525.5" y="208.58" fill="#A1C4CA" width="6.092" height="10.156"/>
	</g>
	<rect x="1465.7" y="174.36" fill="#4B3339" width="73.615" height="1.311"/>
	<rect x="1465.7" y="119.14" fill="#4B3339" width="73.615" height="3.87"/>
	<path fill="#795148" d="M1526,107.3c-3.267-9.417-12.211-16.18-22.739-16.18c-10.53,0-19.474,6.763-22.74,16.18h-11.09v11.848
		h67.658V107.3h-11.2H1526z"/>
	<path fill="#4B3339" d="M1521.3,115.18c0-9.965-8.078-18.044-18.042-18.044c-9.966,0-18.044,8.078-18.044,18.044"/>
	<rect x="1469.4" y="232.75" fill="#E5D3B8" width="67.658" height="7.884"/>
	<rect x="1516.5" y="157.86" fill="#D19048" width="92.938" height="84.767"/>
	<rect x="1516.5" y="192.5" fill="#68441D" width="92.938" height="30.7"/>
	<g>
		<rect x="1526.4" y="163.97" fill="#A1C4CA" width="6.025" height="10.047"/>
		<rect x="1537.6" y="163.97" fill="#A1C4CA" width="6.029" height="10.047"/>
		<rect x="1548.9" y="163.97" fill="#A1C4CA" width="6.027" height="10.047"/>
		<rect x="1560.1" y="163.97" fill="#A1C4CA" width="6.027" height="10.047"/>
		<rect x="1572.6" y="163.97" fill="#A1C4CA" width="6.025" height="10.047"/>
		<rect x="1583.8" y="163.97" fill="#A1C4CA" width="6.03" height="10.047"/>
		<rect x="1595.1" y="163.97" fill="#A1C4CA" width="6.025" height="10.047"/>
		<rect x="1526.4" y="178.45" fill="#A1C4CA" width="6.025" height="10.047"/>
		<rect x="1537.6" y="178.45" fill="#A1C4CA" width="6.029" height="10.047"/>
		<rect x="1548.9" y="178.45" fill="#A1C4CA" width="6.027" height="10.047"/>
		<rect x="1560.1" y="178.45" fill="#A1C4CA" width="6.027" height="10.047"/>
		<rect x="1572.6" y="178.45" fill="#A1C4CA" width="6.025" height="10.047"/>
		<rect x="1583.8" y="178.45" fill="#A1C4CA" width="6.03" height="10.047"/>
		<rect x="1595.1" y="178.45" fill="#A1C4CA" width="6.025" height="10.047"/>
	</g>
	<g>
		<rect x="1526.4" y="196.12" fill="#A1C4CA" width="6.025" height="10.046"/>
		<rect x="1537.6" y="196.12" fill="#A1C4CA" width="6.029" height="10.046"/>
		<rect x="1548.9" y="196.12" fill="#A1C4CA" width="6.027" height="10.046"/>
		<rect x="1560.1" y="196.12" fill="#A1C4CA" width="6.027" height="10.046"/>
		<rect x="1572.6" y="196.12" fill="#A1C4CA" width="6.025" height="10.046"/>
		<rect x="1583.8" y="196.12" fill="#A1C4CA" width="6.03" height="10.046"/>
		<rect x="1595.1" y="196.12" fill="#A1C4CA" width="6.025" height="10.046"/>
		<rect x="1526.4" y="210.6" fill="#A1C4CA" width="6.025" height="10.046"/>
		<rect x="1537.6" y="210.6" fill="#A1C4CA" width="6.029" height="10.046"/>
		<rect x="1548.9" y="210.6" fill="#A1C4CA" width="6.027" height="10.046"/>
		<rect x="1560.1" y="210.6" fill="#A1C4CA" width="6.027" height="10.046"/>
		<rect x="1572.6" y="210.6" fill="#A1C4CA" width="6.025" height="10.046"/>
		<rect x="1583.8" y="210.6" fill="#A1C4CA" width="6.03" height="10.046"/>
		<rect x="1595.1" y="210.6" fill="#A1C4CA" width="6.025" height="10.046"/>
	</g>
	<rect x="1514.8" y="151.35" fill="#563918" width="96.203" height="6.515"/>
	<polygon fill="#68441D" points="1609.4,151.35 1591.2,132.92 1534.7,132.92 1516.5,151.35 	"/>
	<rect x="1516.5" y="237.78" fill="#D7D0B2" width="92.938" height="4.849"/>
	<rect x="1576.3" y="224.48" fill="#68441D" width="12.378" height="18.153"/>
	<rect x="1263" y="141.84" fill="#EBE3CB" width="83.227" height="75.91"/>
	<rect x="1263" y="172.85" fill="#68441D" width="83.227" height="27.493"/>
	<g>
		<rect x="1271.9" y="147.31" fill="#A1C4CA" width="5.396" height="8.998"/>
		<rect x="1282" y="147.31" fill="#A1C4CA" width="5.399" height="8.998"/>
		<rect x="1292" y="147.31" fill="#A1C4CA" width="5.397" height="8.998"/>
		<rect x="1302.1" y="147.31" fill="#A1C4CA" width="5.397" height="8.998"/>
		<rect x="1313.3" y="147.31" fill="#A1C4CA" width="5.396" height="8.998"/>
		<rect x="1323.3" y="147.31" fill="#A1C4CA" width="5.4" height="8.998"/>
		<rect x="1333.4" y="147.31" fill="#A1C4CA" width="5.395" height="8.998"/>
		<rect x="1271.9" y="160.28" fill="#A1C4CA" width="5.396" height="8.997"/>
		<rect x="1282" y="160.28" fill="#A1C4CA" width="5.399" height="8.997"/>
		<rect x="1292" y="160.28" fill="#A1C4CA" width="5.397" height="8.997"/>
		<rect x="1302.1" y="160.28" fill="#A1C4CA" width="5.397" height="8.997"/>
		<rect x="1313.3" y="160.28" fill="#A1C4CA" width="5.396" height="8.997"/>
		<rect x="1323.3" y="160.28" fill="#A1C4CA" width="5.4" height="8.997"/>
		<rect x="1333.4" y="160.28" fill="#A1C4CA" width="5.395" height="8.997"/>
	</g>
	<g>
		<rect x="1271.9" y="176.1" fill="#A1C4CA" width="5.396" height="8.996"/>
		<rect x="1282" y="176.1" fill="#A1C4CA" width="5.399" height="8.996"/>
		<rect x="1292" y="176.1" fill="#A1C4CA" width="5.397" height="8.996"/>
		<rect x="1302.1" y="176.1" fill="#A1C4CA" width="5.397" height="8.996"/>
		<rect x="1313.3" y="176.1" fill="#A1C4CA" width="5.396" height="8.996"/>
		<rect x="1323.3" y="176.1" fill="#A1C4CA" width="5.4" height="8.996"/>
		<rect x="1333.4" y="176.1" fill="#A1C4CA" width="5.395" height="8.996"/>
		<rect x="1271.9" y="189.06" fill="#A1C4CA" width="5.396" height="8.997"/>
		<rect x="1282" y="189.06" fill="#A1C4CA" width="5.399" height="8.997"/>
		<rect x="1292" y="189.06" fill="#A1C4CA" width="5.397" height="8.997"/>
		<rect x="1302.1" y="189.06" fill="#A1C4CA" width="5.397" height="8.997"/>
		<rect x="1313.3" y="189.06" fill="#A1C4CA" width="5.396" height="8.997"/>
		<rect x="1323.3" y="189.06" fill="#A1C4CA" width="5.4" height="8.997"/>
		<rect x="1333.4" y="189.06" fill="#A1C4CA" width="5.395" height="8.997"/>
	</g>
	<rect x="1261.5" y="136.01" fill="#4B3339" width="86.151" height="5.834"/>
	<polygon fill="#795148" points="1346.2,136.01 1329.9,119.5 1279.3,119.5 1263,136.01 	"/>
	<rect x="1263" y="213.41" fill="#D7D0B2" width="83.227" height="4.342"/>
	<rect x="1316.6" y="201.49" fill="#68441D" width="11.085" height="16.256"/>
	<polygon fill="#5A7339" points="1273.8,178.3 1301.2,161.32 1328.6,178.3 	"/>
	<rect x="1273.8" y="181.62" fill="#8C946D" width="54.802" height="24.796"/>
	<rect x="1273.8" y="209.13" fill="#8C946D" width="54.802" height="23.755"/>
	<g>
		<rect x="1278.4" y="187.44" fill="#A1C4CA" width="11.947" height="4.457"/>
		<rect x="1295.6" y="187.44" fill="#A1C4CA" width="11.946" height="4.457"/>
		<rect x="1312.8" y="187.44" fill="#A1C4CA" width="11.946" height="4.457"/>
		<rect x="1278.4" y="197.31" fill="#A1C4CA" width="11.947" height="4.457"/>
		<rect x="1295.6" y="197.31" fill="#A1C4CA" width="11.946" height="4.457"/>
		<rect x="1312.8" y="197.31" fill="#A1C4CA" width="11.946" height="4.457"/>
	</g>
	<rect x="1272.8" y="177.77" fill="#405829" width="56.728" height="3.842"/>
	<rect x="1272.8" y="205.76" fill="#424243" width="56.728" height="3.842"/>
	<rect x="1297.6" y="223.58" fill="#424243" width="7.089" height="9.3"/>
	<rect x="1283.3" y="214.95" fill="#A1C4CA" width="11.947" height="4.457"/>
	<rect x="1306.3" y="214.95" fill="#A1C4CA" width="11.947" height="4.457"/>
	<path fill="#424243" d="M1304.3,168.98c-0.52-1.231-1.739-2.095-3.159-2.095c-1.894,0-3.43,1.535-3.43,3.43
		c0,1.412,0.855,2.622,2.074,3.148c0.007,0.003,0.014,0.008,0.021,0.011c0.169,0.072,0.349,0.121,0.531,0.165
		c0.039,0.009,0.073,0.027,0.112,0.035c0.224,0.046,0.455,0.07,0.691,0.07c1.894,0,3.429-1.534,3.429-3.429
		c0.1-0.47,0-0.92-0.2-1.34L1304.3,168.98z"/>
	<rect x="1651.1" y="132.27" fill="#795148" width="65.076" height="124.79"/>
	<path fill="#424243" d="M1683.6,84.351c-1.927,0-3.488,1.562-3.488,3.489c0,1.477,0.922,2.733,2.219,3.242v16.885h2.539V91.079
		c1.297-0.509,2.219-1.765,2.219-3.242c0.1-1.927-1.4-3.489-3.4-3.489L1683.6,84.351z"/>
	<path fill="#4B3339" d="M1716.2,129.08c-3.812-9.583-14.568-22.38-32.537-22.38s-28.726,12.797-32.537,22.38h65H1716.2z"/>
	<rect x="1647.8" y="125.88" fill="#4B3339" width="71.555" height="6.389"/>
	<rect x="1647.8" y="188.07" fill="#4B3339" width="71.555" height="2.182"/>
	<g>
		<rect x="1656.6" y="138.94" fill="#A1C4CA" width="15.194" height="6.97"/>
		<rect x="1676" y="138.94" fill="#A1C4CA" width="15.194" height="6.97"/>
		<rect x="1695.5" y="138.94" fill="#A1C4CA" width="15.195" height="6.97"/>
		<rect x="1656.6" y="151.42" fill="#A1C4CA" width="15.194" height="6.97"/>
		<rect x="1676" y="151.42" fill="#A1C4CA" width="15.194" height="6.97"/>
		<rect x="1695.5" y="151.42" fill="#A1C4CA" width="15.195" height="6.97"/>
		<rect x="1656.6" y="163.9" fill="#A1C4CA" width="15.194" height="6.97"/>
		<rect x="1676" y="163.9" fill="#A1C4CA" width="15.194" height="6.97"/>
		<rect x="1695.5" y="163.9" fill="#A1C4CA" width="15.195" height="6.97"/>
		<rect x="1656.6" y="176.38" fill="#A1C4CA" width="15.194" height="6.97"/>
		<rect x="1676" y="176.38" fill="#A1C4CA" width="15.194" height="6.97"/>
		<rect x="1695.5" y="176.38" fill="#A1C4CA" width="15.195" height="6.97"/>
	</g>
	<g>
		<rect x="1656.6" y="221.7" fill="#A1C4CA" width="15.194" height="6.97"/>
		<rect x="1676" y="221.7" fill="#A1C4CA" width="15.194" height="6.97"/>
		<rect x="1695.5" y="221.7" fill="#A1C4CA" width="15.195" height="6.97"/>
		<rect x="1656.6" y="234.18" fill="#A1C4CA" width="15.194" height="6.97"/>
		<rect x="1676" y="234.18" fill="#A1C4CA" width="15.194" height="6.97"/>
		<rect x="1695.5" y="234.18" fill="#A1C4CA" width="15.195" height="6.97"/>
	</g>
	<g>
		<rect x="1656.6" y="196.74" fill="#A1C4CA" width="15.195" height="6.97"/>
		<rect x="1676" y="196.74" fill="#A1C4CA" width="15.195" height="6.97"/>
		<rect x="1695.5" y="196.74" fill="#A1C4CA" width="15.194" height="6.97"/>
		<rect x="1656.6" y="209.22" fill="#A1C4CA" width="15.195" height="6.97"/>
		<rect x="1676" y="209.22" fill="#A1C4CA" width="15.195" height="6.97"/>
		<rect x="1695.5" y="209.22" fill="#A1C4CA" width="15.194" height="6.97"/>
	</g>
	<rect x="1651.1" y="248.36" fill="#E5D3B8" width="65.076" height="10"/>
	<rect x="1337.8" y="125.95" fill="#141E29" width="9.647" height="18.183"/>
	<rect x="1319.9" y="165.05" fill="#795148" width="54.979" height="70.456"/>
	<rect x="1319.9" y="226.85" fill="#E5D3B8" width="54.979" height="8.653"/>
	<rect x="1325.9" y="175.75" fill="#A1C4CA" width="10.531" height="13.97"/>
	<path fill="#424243" d="M1336.9,190.22h-11.531v-14.97h11.531V190.22z M1326.4,189.22h9.531v-12.97h-9.531V189.22z"/>
	<rect x="1342.1" y="175.75" fill="#A1C4CA" width="10.531" height="13.97"/>
	<path fill="#424243" d="M1353.2,190.22h-11.531v-14.97h11.531V190.22z M1342.6,189.22h9.531v-12.97h-9.531V189.22z"/>
	<rect x="1358.4" y="175.75" fill="#A1C4CA" width="10.53" height="13.97"/>
	<path fill="#424243" d="M1369.4,190.22h-11.53v-14.97h11.53V190.22z M1358.9,189.22h9.53v-12.97h-9.53V189.22z"/>
	<rect x="1325.4" y="206.54" fill="#A1C4CA" width="10.531" height="13.97"/>
	<path fill="#424243" d="M1336.5,221.01h-11.531v-14.97h11.531V221.01z M1326,220.01h9.531v-12.97H1326V220.01z"/>
	<rect x="1341.7" y="206.54" fill="#A1C4CA" width="10.53" height="13.97"/>
	<path fill="#424243" d="M1352.7,221.01h-11.53v-14.97h11.53V221.01z M1342.2,220.01h9.53v-12.97h-9.53V220.01z"/>
	<rect x="1357.9" y="206.54" fill="#A1C4CA" width="10.53" height="13.97"/>
	<path fill="#424243" d="M1369,221.01h-11.53v-14.97H1369V221.01z M1358.4,220.01h9.53v-12.97h-9.53V220.01z"/>
	<rect x="1319.9" y="137.11" fill="#172836" width="54.979" height="29.706"/>
	<g>
		<defs>
			<rect id="SVGID_25_" x="1319.9" y="137.11" width="54.979" height="29.706"/>
		</defs>
		<clipPath id="SVGID_26_">
			<use xlink:href="#SVGID_25_"  overflow="visible"/>
		</clipPath>
		<g clip-path="url(#SVGID_26_)">
			<path fill="#141E29" d="M1327.7,138.6c0,1.083-0.862,1.962-1.927,1.962c-1.064,0-1.927-0.878-1.927-1.962
				s-0.491-1.962,1.927-1.962s1.9,0.88,1.9,1.96L1327.7,138.6z"/>
			<path fill="#141E29" d="M1327.7,144.14c0,1.083-0.862,1.962-1.927,1.962c-1.064,0-1.927-0.878-1.927-1.962
				s-0.491-1.962,1.927-1.962s1.9,0.87,1.9,1.96L1327.7,144.14z"/>
			<path fill="#141E29" d="M1327.7,150.2c0,1.083-0.862,1.962-1.927,1.962c-1.064,0-1.927-0.878-1.927-1.962
				s-0.491-1.962,1.927-1.962s1.9,0.88,1.9,1.96L1327.7,150.2z"/>
			<path fill="#141E29" d="M1327.7,155.73c0,1.083-0.862,1.962-1.927,1.962c-1.064,0-1.927-0.878-1.927-1.962
				s-0.491-1.961,1.927-1.961s1.9,0.88,1.9,1.96L1327.7,155.73z"/>
			<path fill="#141E29" d="M1327.7,161.8c0,1.083-0.862,1.961-1.927,1.961c-1.064,0-1.927-0.878-1.927-1.961
				c0-1.084-0.491-1.963,1.927-1.963s1.9,0.87,1.9,1.96L1327.7,161.8z"/>
			<path fill="#141E29" d="M1327.7,167.33c0,1.085-0.862,1.962-1.927,1.962c-1.064,0-1.927-0.877-1.927-1.962
				c0-1.083-0.491-1.962,1.927-1.962s1.9,0.88,1.9,1.96L1327.7,167.33z"/>
			<path fill="#141E29" d="M1331.6,141.37c0,1.084-0.862,1.962-1.926,1.962s-1.927-0.878-1.927-1.962s-0.491-1.962,1.927-1.962
				s1.9,0.88,1.9,1.96L1331.6,141.37z"/>
			<path fill="#141E29" d="M1331.6,146.9c0,1.084-0.862,1.962-1.926,1.962s-1.927-0.878-1.927-1.962
				c0-1.083-0.491-1.962,1.927-1.962s1.9,0.88,1.9,1.96L1331.6,146.9z"/>
			<path fill="#141E29" d="M1331.6,152.97c0,1.083-0.862,1.961-1.926,1.961s-1.927-0.878-1.927-1.961s-0.491-1.962,1.927-1.962
				s1.9,0.87,1.9,1.96L1331.6,152.97z"/>
			<path fill="#141E29" d="M1331.6,158.5c0,1.083-0.862,1.962-1.926,1.962s-1.927-0.879-1.927-1.962
				c0-1.084-0.491-1.962,1.927-1.962s1.9,0.88,1.9,1.96L1331.6,158.5z"/>
			<path fill="#141E29" d="M1331.6,164.56c0,1.083-0.862,1.962-1.926,1.962s-1.927-0.879-1.927-1.962
				c0-1.084-0.491-1.961,1.927-1.961s1.9,0.88,1.9,1.96L1331.6,164.56z"/>
			<path fill="#141E29" d="M1331.6,170.1c0,1.085-0.862,1.962-1.926,1.962s-1.927-0.877-1.927-1.962
				c0-1.083-0.491-1.961,1.927-1.961s1.9,0.87,1.9,1.96L1331.6,170.1z"/>
			<path fill="#141E29" d="M1335.6,138.6c0,1.083-0.863,1.962-1.927,1.962c-1.065,0-1.927-0.878-1.927-1.962
				s-0.491-1.962,1.927-1.962c2.3,0,1.9,0.88,1.9,1.96L1335.6,138.6z"/>
			<path fill="#141E29" d="M1335.6,144.14c0,1.083-0.863,1.962-1.927,1.962c-1.065,0-1.927-0.878-1.927-1.962
				s-0.491-1.962,1.927-1.962c2.3,0,1.9,0.87,1.9,1.96L1335.6,144.14z"/>
			<path fill="#141E29" d="M1335.6,150.2c0,1.083-0.863,1.962-1.927,1.962c-1.065,0-1.927-0.878-1.927-1.962
				s-0.491-1.962,1.927-1.962c2.3,0,1.9,0.88,1.9,1.96L1335.6,150.2z"/>
			<path fill="#141E29" d="M1335.6,155.73c0,1.083-0.863,1.962-1.927,1.962c-1.065,0-1.927-0.878-1.927-1.962
				s-0.491-1.961,1.927-1.961c2.3,0,1.9,0.88,1.9,1.96L1335.6,155.73z"/>
			<path fill="#141E29" d="M1335.6,161.8c0,1.083-0.863,1.961-1.927,1.961c-1.065,0-1.927-0.878-1.927-1.961
				c0-1.084-0.491-1.963,1.927-1.963c2.3-0.01,1.9,0.87,1.9,1.96L1335.6,161.8z"/>
			<path fill="#141E29" d="M1335.6,167.33c0,1.085-0.863,1.962-1.927,1.962c-1.065,0-1.927-0.877-1.927-1.962
				c0-1.083-0.491-1.962,1.927-1.962c2.3,0,1.9,0.88,1.9,1.96L1335.6,167.33z"/>
			<path fill="#141E29" d="M1339.5,141.37c0,1.084-0.862,1.962-1.927,1.962c-1.063,0-1.926-0.878-1.926-1.962
				s-0.49-1.962,1.926-1.962c2.4,0,1.9,0.88,1.9,1.96L1339.5,141.37z"/>
			<path fill="#141E29" d="M1339.5,146.9c0,1.084-0.862,1.962-1.927,1.962c-1.063,0-1.926-0.878-1.926-1.962
				c0-1.083-0.49-1.962,1.926-1.962c2.4,0,1.9,0.88,1.9,1.96L1339.5,146.9z"/>
			<path fill="#141E29" d="M1339.5,152.97c0,1.083-0.862,1.961-1.927,1.961c-1.063,0-1.926-0.878-1.926-1.961
				s-0.49-1.962,1.926-1.962c2.4-0.01,1.9,0.87,1.9,1.96L1339.5,152.97z"/>
			<path fill="#141E29" d="M1339.5,158.5c0,1.083-0.862,1.962-1.927,1.962c-1.063,0-1.926-0.879-1.926-1.962
				c0-1.084-0.49-1.962,1.926-1.962c2.4,0,1.9,0.88,1.9,1.96L1339.5,158.5z"/>
			<path fill="#141E29" d="M1339.5,164.56c0,1.083-0.862,1.962-1.927,1.962c-1.063,0-1.926-0.879-1.926-1.962
				c0-1.084-0.49-1.961,1.926-1.961c2.4,0,1.9,0.88,1.9,1.96L1339.5,164.56z"/>
			<path fill="#141E29" d="M1339.5,170.1c0,1.085-0.862,1.962-1.927,1.962c-1.063,0-1.926-0.877-1.926-1.962
				c0-1.083-0.49-1.961,1.926-1.961c2.4,0,1.9,0.87,1.9,1.96L1339.5,170.1z"/>
			<path fill="#141E29" d="M1343.4,138.6c0,1.083-0.863,1.962-1.927,1.962s-1.927-0.878-1.927-1.962s-0.491-1.962,1.927-1.962
				c2.4,0,1.9,0.88,1.9,1.96L1343.4,138.6z"/>
			<path fill="#141E29" d="M1343.4,144.14c0,1.083-0.863,1.962-1.927,1.962s-1.927-0.878-1.927-1.962s-0.491-1.962,1.927-1.962
				c2.4,0,1.9,0.87,1.9,1.96L1343.4,144.14z"/>
			<path fill="#141E29" d="M1343.4,150.2c0,1.083-0.863,1.962-1.927,1.962s-1.927-0.878-1.927-1.962s-0.491-1.962,1.927-1.962
				c2.4,0,1.9,0.88,1.9,1.96L1343.4,150.2z"/>
			<path fill="#141E29" d="M1343.4,155.73c0,1.083-0.863,1.962-1.927,1.962s-1.927-0.878-1.927-1.962s-0.491-1.961,1.927-1.961
				c2.4,0,1.9,0.88,1.9,1.96L1343.4,155.73z"/>
			<path fill="#141E29" d="M1343.4,161.8c0,1.083-0.863,1.961-1.927,1.961s-1.927-0.878-1.927-1.961
				c0-1.084-0.491-1.963,1.927-1.963c2.4-0.01,1.9,0.87,1.9,1.96L1343.4,161.8z"/>
			<path fill="#141E29" d="M1343.4,167.33c0,1.085-0.863,1.962-1.927,1.962s-1.927-0.877-1.927-1.962
				c0-1.083-0.491-1.962,1.927-1.962c2.4,0,1.9,0.88,1.9,1.96L1343.4,167.33z"/>
			<path fill="#141E29" d="M1347.4,141.37c0,1.084-0.862,1.962-1.926,1.962s-1.926-0.878-1.926-1.962s-0.492-1.962,1.926-1.962
				c2.4,0,1.9,0.88,1.9,1.96L1347.4,141.37z"/>
			<path fill="#141E29" d="M1347.4,146.9c0,1.084-0.862,1.962-1.926,1.962s-1.926-0.878-1.926-1.962
				c0-1.083-0.492-1.962,1.926-1.962c2.4,0,1.9,0.88,1.9,1.96L1347.4,146.9z"/>
			<path fill="#141E29" d="M1347.4,152.97c0,1.083-0.862,1.961-1.926,1.961s-1.926-0.878-1.926-1.961s-0.492-1.962,1.926-1.962
				c2.4-0.01,1.9,0.87,1.9,1.96L1347.4,152.97z"/>
			<path fill="#141E29" d="M1347.4,158.5c0,1.083-0.862,1.962-1.926,1.962s-1.926-0.879-1.926-1.962
				c0-1.084-0.492-1.962,1.926-1.962c2.4,0,1.9,0.88,1.9,1.96L1347.4,158.5z"/>
			<path fill="#141E29" d="M1347.4,164.56c0,1.083-0.862,1.962-1.926,1.962s-1.926-0.879-1.926-1.962
				c0-1.084-0.492-1.961,1.926-1.961c2.4,0,1.9,0.88,1.9,1.96L1347.4,164.56z"/>
			<path fill="#141E29" d="M1347.4,170.1c0,1.085-0.862,1.962-1.926,1.962s-1.926-0.877-1.926-1.962
				c0-1.083-0.492-1.961,1.926-1.961c2.4,0,1.9,0.87,1.9,1.96L1347.4,170.1z"/>
			<path fill="#141E29" d="M1351.3,138.6c0,1.083-0.864,1.962-1.927,1.962c-1.064,0-1.927-0.878-1.927-1.962
				s-0.491-1.962,1.927-1.962c2.4,0,1.9,0.88,1.9,1.96L1351.3,138.6z"/>
			<path fill="#141E29" d="M1351.3,144.14c0,1.083-0.864,1.962-1.927,1.962c-1.064,0-1.927-0.878-1.927-1.962
				s-0.491-1.962,1.927-1.962c2.4,0,1.9,0.87,1.9,1.96L1351.3,144.14z"/>
			<path fill="#141E29" d="M1351.3,150.2c0,1.083-0.864,1.962-1.927,1.962c-1.064,0-1.927-0.878-1.927-1.962
				s-0.491-1.962,1.927-1.962c2.4,0,1.9,0.88,1.9,1.96L1351.3,150.2z"/>
			<path fill="#141E29" d="M1351.3,155.73c0,1.083-0.864,1.962-1.927,1.962c-1.064,0-1.927-0.878-1.927-1.962
				s-0.491-1.961,1.927-1.961c2.4,0,1.9,0.88,1.9,1.96L1351.3,155.73z"/>
			<path fill="#141E29" d="M1351.3,161.8c0,1.083-0.864,1.961-1.927,1.961c-1.064,0-1.927-0.878-1.927-1.961
				c0-1.084-0.491-1.963,1.927-1.963c2.4-0.01,1.9,0.87,1.9,1.96L1351.3,161.8z"/>
			<path fill="#141E29" d="M1351.3,167.33c0,1.085-0.864,1.962-1.927,1.962c-1.064,0-1.927-0.877-1.927-1.962
				c0-1.083-0.491-1.962,1.927-1.962c2.4,0,1.9,0.88,1.9,1.96L1351.3,167.33z"/>
			<path fill="#141E29" d="M1355.2,141.37c0,1.084-0.863,1.962-1.928,1.962c-1.064,0-1.926-0.878-1.926-1.962
				s-0.491-1.962,1.926-1.962c2.4,0,1.9,0.88,1.9,1.96L1355.2,141.37z"/>
			<path fill="#141E29" d="M1355.2,146.9c0,1.084-0.863,1.962-1.928,1.962c-1.064,0-1.926-0.878-1.926-1.962
				c0-1.083-0.491-1.962,1.926-1.962c2.4,0,1.9,0.88,1.9,1.96L1355.2,146.9z"/>
			<path fill="#141E29" d="M1355.2,152.97c0,1.083-0.863,1.961-1.928,1.961c-1.064,0-1.926-0.878-1.926-1.961
				s-0.491-1.962,1.926-1.962c2.4-0.01,1.9,0.87,1.9,1.96L1355.2,152.97z"/>
			<path fill="#141E29" d="M1355.2,158.5c0,1.083-0.863,1.962-1.928,1.962c-1.064,0-1.926-0.879-1.926-1.962
				c0-1.084-0.491-1.962,1.926-1.962c2.4,0,1.9,0.88,1.9,1.96L1355.2,158.5z"/>
			<path fill="#141E29" d="M1355.2,164.56c0,1.083-0.863,1.962-1.928,1.962c-1.064,0-1.926-0.879-1.926-1.962
				c0-1.084-0.491-1.961,1.926-1.961c2.4,0,1.9,0.88,1.9,1.96L1355.2,164.56z"/>
			<path fill="#141E29" d="M1355.2,170.1c0,1.085-0.863,1.962-1.928,1.962c-1.064,0-1.926-0.877-1.926-1.962
				c0-1.083-0.491-1.961,1.926-1.961c2.4,0,1.9,0.87,1.9,1.96L1355.2,170.1z"/>
			<path fill="#141E29" d="M1359.2,138.6c0,1.083-0.862,1.962-1.927,1.962s-1.927-0.878-1.927-1.962s-0.491-1.962,1.927-1.962
				c2.4,0,1.9,0.88,1.9,1.96L1359.2,138.6z"/>
			<path fill="#141E29" d="M1359.2,144.14c0,1.083-0.862,1.962-1.927,1.962s-1.927-0.878-1.927-1.962s-0.491-1.962,1.927-1.962
				c2.4,0,1.9,0.87,1.9,1.96L1359.2,144.14z"/>
			<path fill="#141E29" d="M1359.2,150.2c0,1.083-0.862,1.962-1.927,1.962s-1.927-0.878-1.927-1.962s-0.491-1.962,1.927-1.962
				c2.4,0,1.9,0.88,1.9,1.96L1359.2,150.2z"/>
			<path fill="#141E29" d="M1359.2,155.73c0,1.083-0.862,1.962-1.927,1.962s-1.927-0.878-1.927-1.962s-0.491-1.961,1.927-1.961
				c2.4,0,1.9,0.88,1.9,1.96L1359.2,155.73z"/>
			<path fill="#141E29" d="M1359.2,161.8c0,1.083-0.862,1.961-1.927,1.961s-1.927-0.878-1.927-1.961
				c0-1.084-0.491-1.963,1.927-1.963c2.4-0.01,1.9,0.87,1.9,1.96L1359.2,161.8z"/>
			<path fill="#141E29" d="M1359.2,167.33c0,1.085-0.862,1.962-1.927,1.962s-1.927-0.877-1.927-1.962
				c0-1.083-0.491-1.962,1.927-1.962c2.4,0,1.9,0.88,1.9,1.96L1359.2,167.33z"/>
			<path fill="#141E29" d="M1363.1,141.37c0,1.084-0.862,1.962-1.927,1.962c-1.063,0-1.926-0.878-1.926-1.962
				s-0.491-1.962,1.926-1.962s1.9,0.88,1.9,1.96L1363.1,141.37z"/>
			<path fill="#141E29" d="M1363.1,146.9c0,1.084-0.862,1.962-1.927,1.962c-1.063,0-1.926-0.878-1.926-1.962
				c0-1.083-0.491-1.962,1.926-1.962s1.9,0.88,1.9,1.96L1363.1,146.9z"/>
			<path fill="#141E29" d="M1363.1,152.97c0,1.083-0.862,1.961-1.927,1.961c-1.063,0-1.926-0.878-1.926-1.961
				s-0.491-1.962,1.926-1.962s1.9,0.87,1.9,1.96L1363.1,152.97z"/>
			<path fill="#141E29" d="M1363.1,158.5c0,1.083-0.862,1.962-1.927,1.962c-1.063,0-1.926-0.879-1.926-1.962
				c0-1.084-0.491-1.962,1.926-1.962s1.9,0.88,1.9,1.96L1363.1,158.5z"/>
			<path fill="#141E29" d="M1363.1,164.56c0,1.083-0.862,1.962-1.927,1.962c-1.063,0-1.926-0.879-1.926-1.962
				c0-1.084-0.491-1.961,1.926-1.961s1.9,0.88,1.9,1.96L1363.1,164.56z"/>
			<path fill="#141E29" d="M1363.1,170.1c0,1.085-0.862,1.962-1.927,1.962c-1.063,0-1.926-0.877-1.926-1.962
				c0-1.083-0.491-1.961,1.926-1.961s1.9,0.87,1.9,1.96L1363.1,170.1z"/>
			<path fill="#141E29" d="M1367,138.6c0,1.083-0.863,1.962-1.926,1.962c-1.064,0-1.928-0.878-1.928-1.962s-0.49-1.962,1.928-1.962
				c2.4,0,1.9,0.88,1.9,1.96L1367,138.6z"/>
			<path fill="#141E29" d="M1367,144.14c0,1.083-0.863,1.962-1.926,1.962c-1.064,0-1.928-0.878-1.928-1.962s-0.49-1.962,1.928-1.962
				c2.4,0,1.9,0.87,1.9,1.96L1367,144.14z"/>
			<path fill="#141E29" d="M1367,150.2c0,1.083-0.863,1.962-1.926,1.962c-1.064,0-1.928-0.878-1.928-1.962s-0.49-1.962,1.928-1.962
				c2.4,0,1.9,0.88,1.9,1.96L1367,150.2z"/>
			<path fill="#141E29" d="M1367,155.73c0,1.083-0.863,1.962-1.926,1.962c-1.064,0-1.928-0.878-1.928-1.962s-0.49-1.961,1.928-1.961
				c2.4,0,1.9,0.88,1.9,1.96L1367,155.73z"/>
			<path fill="#141E29" d="M1367,161.8c0,1.083-0.863,1.961-1.926,1.961c-1.064,0-1.928-0.878-1.928-1.961
				c0-1.084-0.49-1.963,1.928-1.963c2.4-0.01,1.9,0.87,1.9,1.96L1367,161.8z"/>
			<path fill="#141E29" d="M1367,167.33c0,1.085-0.863,1.962-1.926,1.962c-1.064,0-1.928-0.877-1.928-1.962
				c0-1.083-0.49-1.962,1.928-1.962c2.4,0,1.9,0.88,1.9,1.96L1367,167.33z"/>
			<path fill="#141E29" d="M1371,141.37c0,1.084-0.862,1.962-1.925,1.962c-1.065,0-1.927-0.878-1.927-1.962
				s-0.491-1.962,1.927-1.962c2.4,0,1.9,0.88,1.9,1.96L1371,141.37z"/>
			<path fill="#141E29" d="M1371,146.9c0,1.084-0.862,1.962-1.925,1.962c-1.065,0-1.927-0.878-1.927-1.962
				c0-1.083-0.491-1.962,1.927-1.962c2.4,0,1.9,0.88,1.9,1.96L1371,146.9z"/>
			<path fill="#141E29" d="M1371,152.97c0,1.083-0.862,1.961-1.925,1.961c-1.065,0-1.927-0.878-1.927-1.961
				s-0.491-1.962,1.927-1.962c2.4-0.01,1.9,0.87,1.9,1.96L1371,152.97z"/>
			<path fill="#141E29" d="M1371,158.5c0,1.083-0.862,1.962-1.925,1.962c-1.065,0-1.927-0.879-1.927-1.962
				c0-1.084-0.491-1.962,1.927-1.962c2.4,0,1.9,0.88,1.9,1.96L1371,158.5z"/>
			<path fill="#141E29" d="M1371,164.56c0,1.083-0.862,1.962-1.925,1.962c-1.065,0-1.927-0.879-1.927-1.962
				c0-1.084-0.491-1.961,1.927-1.961c2.4,0,1.9,0.88,1.9,1.96L1371,164.56z"/>
			<path fill="#141E29" d="M1371,170.1c0,1.085-0.862,1.962-1.925,1.962c-1.065,0-1.927-0.877-1.927-1.962
				c0-1.083-0.491-1.961,1.927-1.961c2.4,0,1.9,0.87,1.9,1.96L1371,170.1z"/>
		</g>
	</g>
	<rect x="1319.9" y="134.55" fill="#213340" width="4.428" height="32.267"/>
	<rect x="1370.4" y="134.55" fill="#213340" width="4.428" height="32.267"/>
	<rect x="1318.1" y="166.81" fill="#213340" width="58.131" height="3.201"/>
	<rect x="1324.5" y="189.72" fill="#424243" width="13.292" height="1.123"/>
	<rect x="1340.7" y="189.72" fill="#424243" width="13.292" height="1.123"/>
	<rect x="1356.9" y="189.72" fill="#424243" width="13.292" height="1.123"/>
	<rect x="1324.1" y="220.34" fill="#424243" width="13.292" height="1.123"/>
	<rect x="1340.3" y="220.34" fill="#424243" width="13.292" height="1.123"/>
	<rect x="1356.5" y="220.34" fill="#424243" width="13.292" height="1.123"/>
	<path fill="#5D4A3C" d="M1322.6,201.22c0,0.801-0.739,1.45-1.653,1.45c-0.913,0-1.652-0.649-1.652-1.45v-1.615l3.306,0.011
		c0.1,0.01,0.1,0.81,0.1,1.61L1322.6,201.22z"/>
	<path fill="#B08740" d="M1325.9,201.22c0,0.801-0.74,1.45-1.653,1.45c-0.914,0-1.654-0.649-1.654-1.45v-1.615l3.307,0.011
		c0.1,0.01,0.1,0.81,0.1,1.61L1325.9,201.22z"/>
	<path fill="#5D4A3C" d="M1329.2,201.22c0,0.801-0.74,1.45-1.652,1.45c-0.913,0-1.653-0.649-1.653-1.45v-1.615l3.306,0.011
		c0.1,0.01,0.1,0.81,0.1,1.61L1329.2,201.22z"/>
	<path fill="#B08740" d="M1332.5,201.22c0,0.801-0.741,1.45-1.653,1.45c-0.914,0-1.654-0.649-1.654-1.45v-1.615l3.308,0.011
		c0.1,0.01,0.1,0.81,0.1,1.61L1332.5,201.22z"/>
	<path fill="#5D4A3C" d="M1335.8,201.22c0,0.801-0.74,1.45-1.653,1.45s-1.653-0.649-1.653-1.45v-1.615l3.306,0.011
		c0.1,0.01,0.1,0.81,0.1,1.61L1335.8,201.22z"/>
	<path fill="#B08740" d="M1339.1,201.22c0,0.801-0.74,1.45-1.654,1.45s-1.653-0.649-1.653-1.45v-1.615l3.307,0.011
		c0.1,0.01,0.1,0.81,0.1,1.61L1339.1,201.22z"/>
	<path fill="#5D4A3C" d="M1342.4,201.22c0,0.801-0.74,1.45-1.653,1.45c-0.914,0-1.653-0.649-1.653-1.45v-1.615l3.306,0.011
		c0.1,0.01,0.1,0.81,0.1,1.61L1342.4,201.22z"/>
	<path fill="#B08740" d="M1345.7,201.22c0,0.801-0.74,1.45-1.653,1.45s-1.653-0.649-1.653-1.45c-0.001-0.242,0-1.615,0-1.615
		l3.307,0.011c0.1,0.01,0.1,0.81,0.1,1.61L1345.7,201.22z"/>
	<path fill="#5D4A3C" d="M1349,201.22c0,0.801-0.739,1.45-1.653,1.45c-0.913,0-1.653-0.649-1.653-1.45v-1.615l3.306,0.011
		c0.1,0.01,0.1,0.81,0.1,1.61L1349,201.22z"/>
	<path fill="#B08740" d="M1352.3,201.22c0,0.801-0.74,1.45-1.654,1.45c-0.913,0-1.653-0.649-1.653-1.45v-1.615l3.307,0.011
		c0.1,0.01,0.1,0.81,0.1,1.61L1352.3,201.22z"/>
	<path fill="#5D4A3C" d="M1355.6,201.22c0,0.801-0.741,1.45-1.653,1.45c-0.914,0-1.654-0.649-1.654-1.45v-1.615l3.307,0.011
		c0.1,0.01,0.1,0.81,0.1,1.61L1355.6,201.22z"/>
	<path fill="#B08740" d="M1358.9,201.22c0,0.801-0.741,1.45-1.654,1.45s-1.652-0.649-1.652-1.45c-0.001-0.242,0-1.615,0-1.615
		l3.307,0.011c0.1,0.01,0.1,0.81,0.1,1.61L1358.9,201.22z"/>
	<path fill="#5D4A3C" d="M1362.2,201.22c0,0.801-0.741,1.45-1.654,1.45c-0.914,0-1.653-0.649-1.653-1.45v-1.615l3.307,0.011
		c0.1,0.01,0.1,0.81,0.1,1.61L1362.2,201.22z"/>
	<path fill="#B08740" d="M1365.5,201.22c0,0.801-0.739,1.45-1.652,1.45s-1.653-0.649-1.653-1.45v-1.615l3.305,0.011
		c0.1,0.01,0.1,0.81,0.1,1.61L1365.5,201.22z"/>
	<path fill="#5D4A3C" d="M1368.8,201.22c0,0.801-0.74,1.45-1.653,1.45c-0.915,0-1.654-0.649-1.654-1.45v-1.615l3.307,0.011
		c0.1,0.01,0.1,0.81,0.1,1.61L1368.8,201.22z"/>
	<path fill="#B08740" d="M1372.2,201.22c0,0.801-0.739,1.45-1.653,1.45c-0.913,0-1.652-0.649-1.652-1.45v-1.615l3.306,0.011
		c0.1,0.01,0.1,0.81,0.1,1.61L1372.2,201.22z"/>
	<path fill="#5D4A3C" d="M1375.5,201.22c0,0.801-0.741,1.45-1.654,1.45s-1.654-0.649-1.654-1.45v-1.615l3.308,0.011
		c0.1,0.01,0.1,0.81,0.1,1.61L1375.5,201.22z"/>
	<rect x="1319.2" y="197.88" fill="#E5D3B8" width="56.21" height="1.731"/>
	<polygon fill="#D19048" points="1283.5,232.54 1220.3,232.54 1220.3,172.77 1251.6,129.24 1283.5,172.77 	"/>
	<g>
		<rect x="1220.3" y="172.77" fill="#E5D3B8" width="2.816" height="5.256"/>
		<rect x="1220.3" y="178.81" fill="#E5D3B8" width="4.79" height="5.255"/>
	</g>
	<g>
		<rect x="1220.3" y="184.89" fill="#E5D3B8" width="2.816" height="5.256"/>
		<rect x="1220.3" y="190.92" fill="#E5D3B8" width="4.79" height="5.254"/>
	</g>
	<rect x="1220.3" y="203.04" fill="#E5D3B8" width="4.79" height="5.255"/>
	<g>
		<rect x="1220.3" y="209.13" fill="#E5D3B8" width="2.816" height="5.254"/>
		<rect x="1220.3" y="215.16" fill="#E5D3B8" width="4.79" height="5.256"/>
	</g>
	<rect x="1220.3" y="221.25" fill="#E5D3B8" width="2.816" height="5.254"/>
	<g>
		<rect x="1280.7" y="172.77" fill="#E5D3B8" width="2.815" height="5.256"/>
		<rect x="1278.8" y="178.81" fill="#E5D3B8" width="4.79" height="5.255"/>
	</g>
	<g>
		<rect x="1280.7" y="184.89" fill="#E5D3B8" width="2.815" height="5.256"/>
		<rect x="1278.8" y="190.92" fill="#E5D3B8" width="4.79" height="5.254"/>
	</g>
	<g>
		<rect x="1280.7" y="197.01" fill="#E5D3B8" width="2.815" height="5.254"/>
		<rect x="1278.8" y="203.04" fill="#E5D3B8" width="4.79" height="5.255"/>
	</g>
	<g>
		<rect x="1280.7" y="209.13" fill="#E5D3B8" width="2.815" height="5.254"/>
		<rect x="1278.8" y="215.16" fill="#E5D3B8" width="4.79" height="5.256"/>
	</g>
	<rect x="1280.7" y="221.25" fill="#E5D3B8" width="2.815" height="5.254"/>
	<path fill="#A1C4CA" d="M1256.5,152.72c-0.059-2.163-1.84-3.9-4.034-3.9s-3.975,1.737-4.034,3.9h-0.007v6.793h8.08v-6.793h-0.1
		H1256.5z"/>
	<path fill="#424243" d="M1257,160.01h-9.08l0.046-7.793c0.297-2.223,2.186-3.9,4.495-3.9s4.198,1.677,4.495,3.9h0.039l0.006,0.5
		l0.1,7.29L1257,160.01z M1248.9,159.01h7.08l-0.006-6.279c-0.052-1.914-1.604-3.414-3.534-3.414s-3.481,1.5-3.534,3.414
		l-0.007,0.244v6.035h-0.1H1248.9z"/>
	<path fill="#A1C4CA" d="M1239.8,177.32c-0.058-2.164-1.839-3.901-4.032-3.901c-2.194,0-3.975,1.737-4.034,3.901h-0.006v12.118
		h8.079V177.32h-0.1H1239.8z"/>
	<path fill="#424243" d="M1240.4,189.94h-9.079l0.045-13.118c0.296-2.223,2.185-3.901,4.495-3.901s4.198,1.678,4.494,3.901h0.039
		l0.007,0.5l0.1,12.62L1240.4,189.94z M1232.3,188.94h7.079l-0.007-11.605c-0.051-1.915-1.603-3.414-3.532-3.414
		c-1.93,0-3.482,1.5-3.534,3.415l-0.006,0.228v11.37V188.94z"/>
	<path fill="#A1C4CA" d="M1275.2,176.78c-0.059-2.164-1.841-3.9-4.034-3.9c-2.194,0-3.976,1.737-4.035,3.9h-0.006v12.12h8.08
		v-12.118h-0.1L1275.2,176.78z"/>
	<path fill="#424243" d="M1275.7,189.4h-9.08l0.045-13.118c0.297-2.223,2.186-3.9,4.496-3.9c2.309,0,4.198,1.678,4.495,3.9h0.039
		l0.005,0.5v12.62V189.4z M1267.6,188.4h7.08l-0.005-11.604c-0.052-1.915-1.604-3.414-3.534-3.414s-3.482,1.5-3.535,3.414
		l-0.006,0.226l-0.1,11.37L1267.6,188.4z"/>
	<path fill="#A1C4CA" d="M1274.6,209.57c-0.059-2.163-1.841-3.9-4.034-3.9c-2.194,0-3.975,1.737-4.034,3.9h-0.004v12.12h8.078
		v-12.12h-0.1H1274.6z"/>
	<path fill="#424243" d="M1275.1,222.19h-9.078l0.044-13.12c0.297-2.223,2.185-3.9,4.495-3.9c2.309,0,4.197,1.678,4.495,3.9h0.039
		l0.005,0.5l0.1,12.62H1275.1z M1267,221.19h7.078l-0.005-11.606c-0.052-1.915-1.604-3.414-3.534-3.414s-3.482,1.499-3.534,3.414
		l-0.004,0.154l-0.1,11.46L1267,221.19z"/>
	<path fill="#A1C4CA" d="M1262.7,209.57c-0.058-2.163-1.84-3.9-4.033-3.9s-3.975,1.737-4.034,3.9h-0.007v12.12h8.08v-12.12h-0.1
		H1262.7z"/>
	<path fill="#424243" d="M1263.2,222.19h-9.08l0.046-13.12c0.297-2.223,2.186-3.9,4.495-3.9c2.31,0,4.198,1.678,4.494,3.9h0.039
		l0.007,0.5l0.1,12.62H1263.2z M1255.1,221.19h7.08l-0.007-11.606c-0.051-1.915-1.603-3.414-3.533-3.414
		c-1.929,0-3.481,1.499-3.534,3.414l-0.007,0.244l-0.1,11.37L1255.1,221.19z"/>
	<path fill="#A1C4CA" d="M1250.8,209.57c-0.06-2.163-1.84-3.9-4.034-3.9s-3.975,1.737-4.033,3.9h-0.007v12.12h8.079v-12.12h-0.1
		H1250.8z"/>
	<path fill="#424243" d="M1251.3,222.19h-9.079l0.046-13.12c0.296-2.223,2.184-3.9,4.494-3.9c2.309,0,4.197,1.678,4.495,3.9h0.039
		l0.006,0.5l0.1,12.62H1251.3z M1243.2,221.19h7.079l-0.006-11.606c-0.053-1.915-1.605-3.414-3.534-3.414
		c-1.93,0-3.482,1.499-3.533,3.414l-0.007,0.248l-0.1,11.36L1243.2,221.19z"/>
	<path fill="#A1C4CA" d="M1238.9,209.57c-0.059-2.163-1.84-3.9-4.034-3.9c-2.193,0-3.975,1.737-4.034,3.9h-0.006v12.12h8.079v-12.12
		h-0.1H1238.9z"/>
	<path fill="#424243" d="M1239.4,222.19h-9.079l0.045-13.12c0.297-2.223,2.186-3.9,4.495-3.9s4.198,1.678,4.495,3.9h0.039l0.006,0.5
		l0.1,12.62H1239.4z M1231.4,221.19h7.079l-0.006-11.606c-0.052-1.915-1.604-3.414-3.534-3.414s-3.482,1.499-3.534,3.414
		l-0.006,0.208v11.398h-0.1L1231.4,221.19z"/>
	<path fill="#A1C4CA" d="M1259.2,178.72c-0.088-3.239-3.641-5.839-6.925-5.839c-3.282,0-6.601,2.6-6.689,5.839h-0.008v18.141h13.63
		v-18.14L1259.2,178.72z"/>
	<path fill="#424243" d="M1259.7,197.36h-14.63l0.044-19.141c0.382-3.163,3.596-5.839,7.153-5.839c3.268,0,6.974,2.465,7.388,5.839
		h0.037l0.008,0.5v18.64L1259.7,197.36z M1246.1,196.36h12.63l-0.008-17.627c-0.082-3.015-3.521-5.353-6.425-5.353
		c-2.853,0-6.105,2.289-6.189,5.353l-0.008,0.297L1246.1,196.36L1246.1,196.36z"/>
	<g>
		<rect x="1273.6" y="186.9" fill="#68441D" width="1.27" height="9.837"/>
		<rect x="1270.9" y="186.9" fill="#68441D" width="0.81" height="9.837"/>
		<rect x="1268.2" y="186.9" fill="#68441D" width="0.811" height="9.837"/>
		<rect x="1265.5" y="186.9" fill="#68441D" width="0.81" height="9.837"/>
		<rect x="1262.8" y="186.9" fill="#68441D" width="0.809" height="9.837"/>
		<rect x="1260.1" y="186.9" fill="#68441D" width="0.811" height="9.837"/>
		<rect x="1257.4" y="186.9" fill="#68441D" width="0.811" height="9.837"/>
		<rect x="1254.7" y="186.9" fill="#68441D" width="0.81" height="9.837"/>
		<rect x="1252" y="186.9" fill="#68441D" width="0.81" height="9.837"/>
		<rect x="1249.3" y="186.9" fill="#68441D" width="0.81" height="9.837"/>
		<rect x="1246.6" y="186.9" fill="#68441D" width="0.811" height="9.837"/>
		<rect x="1243.9" y="186.9" fill="#68441D" width="0.811" height="9.837"/>
		<rect x="1241.2" y="186.9" fill="#68441D" width="0.809" height="9.837"/>
		<rect x="1238.5" y="186.9" fill="#68441D" width="0.811" height="9.837"/>
		<rect x="1235.8" y="186.9" fill="#68441D" width="0.811" height="9.837"/>
		<rect x="1233.1" y="186.9" fill="#68441D" width="0.809" height="9.837"/>
		<rect x="1229.9" y="186.9" fill="#68441D" width="1.267" height="9.837"/>
	</g>
	<rect x="1228.5" y="196.18" fill="#68441D" width="47.638" height="1.585"/>
	<rect x="1228.5" y="186.69" fill="#68441D" width="47.638" height="0.83"/>
	<polygon fill="#68441D" points="1218.4,175.4 1208.6,175.4 1252,119.17 1295.3,175.36 1285.4,175.41 1251.8,131.17 	"/>
	<rect x="1220.3" y="197.01" fill="#68441D" width="63.219" height="5.254"/>
	<polyline fill="#E5D3B8" points="1220.3,232.54 1220.3,227.13 1283.5,227.13 1283.5,232.54 	"/>
	<rect x="1635.3" y="128.02" fill="#405829" width="7.949" height="11.677"/>
	<rect x="1578.7" y="150.04" fill="#8C946D" width="79.113" height="98.324"/>
	<rect x="1579.1" y="199.28" fill="#252223" width="78.984" height="1.893"/>
	<rect x="1579.1" y="201.18" fill="#424243" width="78.984" height="1.891"/>
	<polygon fill="#A1C4CA" points="1589,168.65 1589,160.19 1596.1,160.19 1596.1,168.65 	"/>
	<polygon fill="#A1C4CA" points="1598.5,168.65 1598.5,160.19 1605.6,160.19 1605.6,168.65 	"/>
	<path fill="#424243" d="M1587.4,158.84v10.556h19.922V158.84h-19.9H1587.4z M1596.1,168.65h-7.07v-8.468h7.07v8.475V168.65z
		 M1605.6,168.65h-7.061v-8.468h7.061v8.475V168.65z"/>
	<polygon fill="#A1C4CA" points="1589,178.61 1589,170.15 1596.1,170.15 1596.1,178.61 	"/>
	<polygon fill="#A1C4CA" points="1598.5,178.61 1598.5,170.15 1605.6,170.15 1605.6,178.61 	"/>
	<path fill="#424243" d="M1587.4,169.4v9.961h19.922V169.4h-19.9H1587.4z M1596.1,178.61h-7.07v-8.467h7.07v8.464V178.61z
		 M1605.6,178.61h-7.061v-8.467h7.061v8.464V178.61z"/>
	<polygon fill="#A1C4CA" points="1589,188.57 1589,180.1 1596.1,180.1 1596.1,188.57 	"/>
	<polygon fill="#A1C4CA" points="1598.5,188.57 1598.5,180.1 1605.6,180.1 1605.6,188.57 	"/>
	<path fill="#424243" d="M1587.4,179.36v10.555h19.922V179.36h-19.9L1587.4,179.36z M1596.1,188.57h-7.07v-8.466h7.07v8.475V188.57z
		 M1605.6,188.57h-7.061v-8.466h7.061v8.475V188.57z"/>
	<polygon fill="#424243" points="1583.8,192.01 1583.8,189.98 1609.6,189.98 1609.6,192.01 	"/>
	<polygon fill="#A1C4CA" points="1629.2,168.65 1629.2,160.19 1636.2,160.19 1636.2,168.65 	"/>
	<polygon fill="#A1C4CA" points="1638.6,168.65 1638.6,160.19 1645.7,160.19 1645.7,168.65 	"/>
	<path fill="#424243" d="M1627.5,158.84v10.556h19.92V158.84h-19.9H1627.5z M1636.2,168.65h-7.068v-8.468h7.068v8.475V168.65z
		 M1645.7,168.65h-7.063v-8.468h7.063v8.475V168.65z"/>
	<polygon fill="#A1C4CA" points="1629.2,178.61 1629.2,170.15 1636.2,170.15 1636.2,178.61 	"/>
	<polygon fill="#A1C4CA" points="1638.6,178.61 1638.6,170.15 1645.7,170.15 1645.7,178.61 	"/>
	<path fill="#424243" d="M1627.5,169.4v9.961h19.92V169.4h-19.9H1627.5z M1636.2,178.61h-7.068v-8.467h7.068v8.464V178.61z
		 M1645.7,178.61h-7.063v-8.467h7.063v8.464V178.61z"/>
	<polygon fill="#A1C4CA" points="1629.2,188.57 1629.2,180.1 1636.2,180.1 1636.2,188.57 	"/>
	<polygon fill="#A1C4CA" points="1638.6,188.57 1638.6,180.1 1645.7,180.1 1645.7,188.57 	"/>
	<path fill="#424243" d="M1627.5,179.36v10.555h19.92V179.36h-19.9L1627.5,179.36z M1636.2,188.57h-7.068v-8.466h7.068v8.475V188.57
		z M1645.7,188.57h-7.063v-8.466h7.063v8.475V188.57z"/>
	<polygon fill="#424243" points="1623.9,192.01 1623.9,189.98 1649.7,189.98 1649.7,192.01 	"/>
	<polygon fill="#424243" points="1619.5,217.81 1616.9,217.81 1593.2,217.81 1593.2,218.85 1593.2,241.74 1593.2,242.78 
		1594.7,242.78 1616.9,242.78 1618.4,242.78 1619.5,242.78 1643.3,242.78 1643.3,241.74 1643.3,219.35 1643.3,218.85 1643.3,217.81 
			"/>
	<polygon fill="#A1C4CA" points="1614.9,219.49 1610.6,219.49 1595.4,219.49 1595.4,240.94 1610.6,240.94 1614.9,240.94 
		1621.6,240.94 1641,240.94 1641,219.49 	"/>
	<polygon fill="#424243" points="1593.2,217.81 1593.2,218.78 1593.2,242.88 1595.5,240.77 1595.5,219.65 1640.9,219.65 
		1643.3,217.81 	"/>
	<polygon opacity="0.5" fill="#CBCBCB" enable-background="new    " points="1590.3,226.09 1590.3,229.01 1598.3,229.01 
		1598.4,229.01 1606.3,229.01 1606.3,229.01 1614.2,229.01 1614.3,229.01 1622.2,229.01 1622.2,229.01 1630.1,229.01 1630.2,229.01 
		1638.1,229.01 1638.1,229.01 1646.1,229.01 1646.1,226.09 	"/>
	<rect x="1590.3" y="213.16" fill="#C9AA56" width="8.016" height="12.856"/>
	<rect x="1590.3" y="211.82" fill="#DEBA5E" width="8.016" height="11.271"/>
	<rect x="1598.3" y="213.16" fill="#D7D0B2" width="8.016" height="12.856"/>
	<rect x="1598.3" y="211.82" fill="#FFFFFF" width="8.016" height="11.271"/>
	<rect x="1606.3" y="213.16" fill="#C9AA56" width="8.018" height="12.856"/>
	<rect x="1606.3" y="211.82" fill="#DEBA5E" width="8.018" height="11.271"/>
	<rect x="1614.2" y="213.16" fill="#D7D0B2" width="8.012" height="12.856"/>
	<rect x="1614.2" y="211.82" fill="#FFFFFF" width="8.012" height="11.271"/>
	<rect x="1622.2" y="213.16" fill="#C9AA56" width="8.021" height="12.856"/>
	<rect x="1622.2" y="211.82" fill="#DEBA5E" width="8.021" height="11.271"/>
	<rect x="1630.1" y="213.16" fill="#D7D0B2" width="8.02" height="12.856"/>
	<rect x="1630.1" y="211.82" fill="#FFFFFF" width="8.02" height="11.271"/>
	<rect x="1638.1" y="213.16" fill="#C9AA56" width="8.021" height="12.856"/>
	<rect x="1638.1" y="211.82" fill="#DEBA5E" width="8.021" height="11.271"/>
	<g>
		<polygon fill="#536965" points="1610.1,238.56 1616.9,238.56 1616.9,241.02 1619,241.02 1619,238.56 1625.8,238.56 1625.8,236.59 
			1610.1,236.59 		"/>
		<rect x="1630.9" y="230.58" fill="#536965" width="1.4" height="10.439"/>
		<rect x="1603.5" y="230.58" fill="#536965" width="1.398" height="10.439"/>
	</g>
	<rect x="1578.7" y="146.78" fill="#405829" width="79.115" height="3.395"/>
	<polygon fill="#5A7339" points="1657.8,146.78 1578.7,146.78 1584.8,136.33 1651.6,136.33 	"/>
	<rect x="1578.6" y="242.88" fill="#D7D0B2" width="79.161" height="5.482"/>
	<polygon fill="#D19048" points="1742.3,258.83 1685.5,258.83 1685.5,210.7 1713.6,174.77 1742.3,210.7 	"/>
	<rect x="1685.5" y="253.96" fill="#D7D0B2" width="56.815" height="4.862"/>
	<rect x="1693.8" y="238.56" fill="#A1C4CA" width="9.067" height="9.41"/>
	<path fill="#424243" d="M1703.4,248.47h-10.067v-10.41h10.067V248.47z M1694.3,247.47h8.067v-8.41h-8.067V247.47z"/>
	<rect x="1725.6" y="238.56" fill="#A1C4CA" width="9.066" height="9.41"/>
	<path fill="#424243" d="M1735.2,248.47h-10.066v-10.41h10.066V248.47z M1726.1,247.47h8.066v-8.41h-8.066V247.47z"/>
	<circle fill="#A1C4CA" cx="1714.1" cy="196.04" r="3.789"/>
	<path fill="#424243" d="M1714.1,200.32c-2.365,0-4.29-1.924-4.29-4.29c0-2.365,1.925-4.289,4.29-4.289
		c2.364,0,4.288,1.924,4.288,4.289c-0.1,2.37-2,4.29-4.3,4.29H1714.1z M1714.1,192.75c-1.814,0-3.29,1.475-3.29,3.289
		s1.476,3.29,3.29,3.29c1.813,0,3.288-1.476,3.288-3.29c-0.1-1.82-1.5-3.29-3.3-3.29L1714.1,192.75z"/>
	<rect x="1691" y="214.01" fill="#A1C4CA" width="9.921" height="10.297"/>
	<path fill="#424243" d="M1701.4,224.8h-10.921v-11.297h10.921v11.3V224.8z M1691.5,223.8h8.921v-9.297h-8.921v9.3V223.8z"/>
	<rect x="1715.7" y="214.01" fill="#A1C4CA" width="9.921" height="10.297"/>
	<path fill="#424243" d="M1726.1,224.8h-10.921v-11.297h10.921v11.3V224.8z M1716.2,223.8h8.921v-9.297h-8.921v9.3V223.8z"/>
	<rect x="1728" y="214.01" fill="#A1C4CA" width="9.921" height="10.297"/>
	<path fill="#424243" d="M1738.5,224.8h-10.921v-11.297h10.921v11.3V224.8z M1728.5,223.8h8.921v-9.297h-8.921v9.3V223.8z"/>
	<rect x="1703.3" y="214.01" fill="#A1C4CA" width="9.921" height="10.297"/>
	<path fill="#424243" d="M1713.7,224.8h-10.921v-11.297h10.921v11.3V224.8z M1703.8,223.8h8.921v-9.297h-8.921v9.3V223.8z"/>
	<polygon fill="#D7D0B2" points="1686.9,253.96 1685.5,253.96 1685.5,210.7 1686.9,208.84 	"/>
	<polygon fill="#D7D0B2" points="1742.3,253.96 1740.9,253.96 1740.9,208.84 1742.3,210.96 	"/>
	<rect x="1686.3" y="229.54" fill="#68441D" width="54.705" height="1.843"/>
	<polygon fill="#68441D" points="1683.7,213.06 1674.9,213.06 1714,165.72 1752.9,213.03 1743.9,213.07 1713.8,176.5 	"/>
	<path fill="#68441D" d="M1719.9,243.96c0-3.662-2.969-6.63-6.631-6.63s-6.631,2.969-6.631,6.63v14.954h13.262v-14.95V243.96z"/>
	<rect x="1399.5" y="152.59" fill="#8C946D" width="93.568" height="87.768"/>
	<rect x="1456.2" y="133.94" fill="#405829" width="8.682" height="9.907"/>
	<polygon fill="#5A7339" points="1399.5,152.5 1493,152.5 1482.5,142.26 1408.7,142.26 	"/>
	<rect x="1412.3" y="164.91" fill="#A1C4CA" width="10.87" height="28.479"/>
	<path fill="#424243" d="M1423.7,193.88h-11.87v-29.479h11.87V193.88L1423.7,193.88z M1412.8,192.88h9.87v-27.479h-9.87V192.88
		L1412.8,192.88z"/>
	<rect x="1417.5" y="158.84" fill="#424243" width="0.819" height="34.885"/>
	<rect x="1412.2" y="177.51" fill="#424243" width="12.153" height="0.465"/>
	<rect x="1412.2" y="185.92" fill="#424243" width="12.153" height="0.466"/>
	<path fill="#FFFFFF" d="M1409.2,170.04h17.141c0,0,1.01-9.232-8.066-10.386c0.1,0.01-8,0.39-9,10.39L1409.2,170.04z"/>
	<path fill="#D19048" d="M1418.3,159.66c0,0-5.81,0.113-6.22,10.386h2.856c0-0.01-0.3-8.51,3.3-10.39L1418.3,159.66z"/>
	<path fill="#D19048" d="M1417.9,159.66c0,0,4.709,0.113,4.996,10.386h-2.624c0-0.01,0.1-8.51-2.4-10.39L1417.9,159.66z"/>
	<rect x="1441.1" y="164.91" fill="#A1C4CA" width="10.867" height="28.479"/>
	<path fill="#424243" d="M1452.4,193.88h-11.867v-29.479h11.867V193.88L1452.4,193.88z M1441.6,192.88h9.867v-27.479h-9.867V192.88
		L1441.6,192.88z"/>
	<rect x="1446.3" y="158.84" fill="#424243" width="0.814" height="34.546"/>
	<rect x="1441.1" y="177.51" fill="#424243" width="10.828" height="0.465"/>
	<rect x="1441.1" y="185.92" fill="#424243" width="10.828" height="0.466"/>
	<path fill="#FFFFFF" d="M1437.7,170.04h17.143c0,0,1.01-9.232-8.064-10.386c0.1,0.01-8,0.39-9,10.39L1437.7,170.04z"/>
	<path fill="#D19048" d="M1447,159.66c0,0-5.813,0.113-6.222,10.386h2.854c-0.1-0.01-0.3-8.51,3.3-10.39L1447,159.66z"/>
	<path fill="#D19048" d="M1446.6,159.66c0,0,4.708,0.113,4.998,10.386h-2.625c-0.1-0.01,0.1-8.51-2.4-10.39L1446.6,159.66z"/>
	<rect x="1469.4" y="164.91" fill="#A1C4CA" width="10.868" height="28.479"/>
	<path fill="#424243" d="M1480.7,193.88h-11.868v-29.479h11.868V193.88L1480.7,193.88z M1469.9,192.88h9.868v-27.479h-9.868V192.88
		L1469.9,192.88z"/>
	<rect x="1474.4" y="158.84" fill="#424243" width="0.813" height="34.546"/>
	<rect x="1469.4" y="177.51" fill="#424243" width="10.662" height="0.465"/>
	<rect x="1469.4" y="185.92" fill="#424243" width="10.662" height="0.466"/>
	<path fill="#FFFFFF" d="M1466.2,170.04h17.139c0,0,1.009-9.232-8.062-10.386c0,0.01-8,0.39-9,10.39L1466.2,170.04z"/>
	<path fill="#D19048" d="M1475.4,159.66c0,0-5.811,0.113-6.216,10.386h2.854c0-0.01-0.2-8.51,3.3-10.39L1475.4,159.66z"/>
	<path fill="#D19048" d="M1475,159.66c0,0,4.708,0.113,4.996,10.386h-2.627c0-0.01,0.1-8.51-2.4-10.39L1475,159.66z"/>
	<path fill="#EDE2C7" d="M1446.3,214.64h-31.071v25.724h62.142V214.64h-31.1H1446.3z"/>
	<g>
		<rect x="1417.2" y="216.15" fill="#A1C4CA" width="27.765" height="16.201"/>
		<rect x="1446.3" y="216.15" fill="#A1C4CA" width="28.431" height="16.201"/>
	</g>
	<rect x="1415.2" y="219.56" opacity="0.5" fill="#CBCBCB" enable-background="new    " width="62.333" height="5.5"/>
	<rect x="1413.9" y="205.2" fill="#BC8442" width="9.305" height="14.922"/>
	<rect x="1413.9" y="203.65" fill="#D19048" width="9.305" height="13.084"/>
	<rect x="1423.2" y="205.2" fill="#D7D0B2" width="9.309" height="14.922"/>
	<rect x="1423.2" y="203.65" fill="#FFFFFF" width="9.309" height="13.084"/>
	<rect x="1432.4" y="205.2" fill="#BC8442" width="9.307" height="14.922"/>
	<rect x="1432.4" y="203.65" fill="#D19048" width="9.307" height="13.084"/>
	<rect x="1441.6" y="205.2" fill="#D7D0B2" width="9.303" height="14.922"/>
	<rect x="1441.6" y="203.65" fill="#FFFFFF" width="9.303" height="13.084"/>
	<rect x="1450.9" y="205.2" fill="#BC8442" width="9.311" height="14.922"/>
	<rect x="1450.9" y="203.65" fill="#D19048" width="9.311" height="13.084"/>
	<rect x="1460.1" y="205.2" fill="#D7D0B2" width="9.31" height="14.922"/>
	<rect x="1460.1" y="203.65" fill="#FFFFFF" width="9.31" height="13.084"/>
	<rect x="1469.3" y="205.2" fill="#BC8442" width="9.313" height="14.922"/>
	<rect x="1469.3" y="203.65" fill="#D19048" width="9.313" height="13.084"/>
	<polygon fill="#FFFFFF" points="1299.3,181.46 1303.8,181.46 1305.5,171.46 1297.6,171.46 	"/>
	<path fill="#424243" d="M1305.4,170.95l-3.086-2.787v-1.807h-1.449v1.807l-3.082,2.787h-1.766v0.98h1.279l1.74,9.881v0.035h1.533
		v41.193h-1.533v15.32h5.107v-15.32h-1.531v-41.193h1.531v-0.035l1.744-9.881h1.279v-0.98l-1.7,0.01L1305.4,170.95z M1299.3,180.49
		l-1.51-8.555h3.52v8.555h-2H1299.3z M1303.8,180.49h-2.014v-8.555h3.52l-1.5,8.55L1303.8,180.49z"/>
	<polygon fill="#FFFFFF" points="1421.7,181.46 1426.2,181.46 1427.9,171.46 1420,171.46 	"/>
	<path fill="#424243" d="M1427.8,170.95l-3.086-2.787v-1.807h-1.449v1.807l-3.082,2.787h-1.766v0.98h1.279l1.74,9.881v0.035h1.533
		v41.193h-1.533v15.32h5.107v-15.32h-1.531v-41.193h1.531v-0.035l1.744-9.881h1.279v-0.98l-1.7,0.01L1427.8,170.95z M1421.7,180.49
		l-1.51-8.555h3.52v8.555h-2H1421.7z M1426.3,180.49h-2.014v-8.555h3.519l-1.5,8.55L1426.3,180.49z"/>
	<polygon fill="#FFFFFF" points="1544.2,187.46 1548.7,187.46 1550.4,177.46 1542.5,177.46 	"/>
	<path fill="#424243" d="M1550.3,176.95l-3.086-2.787v-1.807h-1.449v1.807l-3.082,2.787h-1.766v0.98h1.279l1.74,9.881v0.035h1.533
		v41.193h-1.533v15.32h5.107v-15.32h-1.531v-41.193h1.531v-0.035l1.744-9.881h1.279v-0.98l-1.7,0.01L1550.3,176.95z M1544.2,186.49
		l-1.51-8.555h3.52v8.555h-2H1544.2z M1548.8,186.49h-2.014v-8.555h3.519l-1.5,8.55L1548.8,186.49z"/>
	<polygon fill="#FFFFFF" points="1666.7,193.46 1671.2,193.46 1672.9,183.46 1665,183.46 	"/>
	<path fill="#424243" d="M1672.8,182.95l-3.086-2.787v-1.807h-1.449v1.807l-3.082,2.787h-1.766v0.98h1.279l1.74,9.881v0.035h1.533
		v41.193h-1.533v15.32h5.107v-15.32h-1.531v-41.193h1.531v-0.035l1.744-9.881h1.279v-0.98l-1.7,0.01L1672.8,182.95z M1666.7,192.49
		l-1.51-8.555h3.52v8.555h-2H1666.7z M1671.2,192.49h-2.014v-8.555h3.52l-1.5,8.55L1671.2,192.49z"/>
	<polygon fill="#FFFFFF" points="1789.1,206.46 1793.7,206.46 1795.4,196.46 1787.4,196.46 	"/>
	<path fill="#424243" d="M1795.2,195.95l-3.086-2.787v-1.807h-1.449v1.807l-3.082,2.787h-1.766v0.98h1.279l1.74,9.881v0.035h1.533
		v41.193h-1.533v15.32h5.107v-15.32h-1.531v-41.193h1.531v-0.035l1.744-9.881h1.4v-0.98l-1.8,0.01L1795.2,195.95z M1789.2,205.49
		l-1.51-8.555h3.52v8.555h-2H1789.2z M1793.7,205.49h-2.014v-8.555h3.52l-1.5,8.55L1793.7,205.49z"/>
	<g>
		<rect x="1385.4" y="233.14" fill="#424243" width="2.594" height="3.773"/>
		<rect x="1393.7" y="233.14" fill="#424243" width="2.595" height="3.773"/>
	</g>
	<rect x="1382.1" y="211.92" fill="#424243" width="17.453" height="21.934"/>
	<rect x="1384.7" y="214.57" fill="#EDE2C7" width="12.151" height="16.633"/>
	<g id="sample_text_10_">
		<rect x="1386.3" y="217.15" fill="#B1AA95" width="8.955" height="0.9"/>
		<rect x="1386.3" y="219.9" fill="#B1AA95" width="8.955" height="0.9"/>
		<rect x="1386.3" y="222.66" fill="#B1AA95" width="8.955" height="0.9"/>
		<rect x="1386.3" y="225.41" fill="#B1AA95" width="8.955" height="0.9"/>
	</g>
	<rect x="1771.3" y="244.74" fill="#69462E" width="2.476" height="13.752"/>
	<path fill="#8B8C43" d="M1772.5,213.07c-5.391,0-9.761,4.372-9.761,9.763v14.588c0,5.395,4.37,9.76,9.761,9.76
		c5.393,0,9.759-4.365,9.759-9.76v-14.588c0-5.39-4.4-9.76-9.8-9.76L1772.5,213.07z"/>
</g>
</svg>
