<?xml version="1.0" encoding="UTF-8" standalone="no"?>
<!-- Generator: Adobe Illustrator 17.0.0, SVG Export Plug-In . SVG Version: 6.00 Build 0)  -->
<!DOCTYPE svg  PUBLIC '-//W3C//DTD SVG 1.1//EN'  'http://www.w3.org/Graphics/SVG/1.1/DTD/svg11.dtd'>
<svg id="Capa_1" xmlns="http://www.w3.org/2000/svg" xml:space="preserve" height="300px" viewBox="0 0 1400 300" width="1400px" version="1.1" y="0px" x="0px" xmlns:xlink="http://www.w3.org/1999/xlink" enable-background="new 0 0 1400 300">
<g id="montañas">
							<defs>
								<polygon id="SVGID_1_" points="39.462 278.44 127.23 88.764 214.99 278.44"/>
							</defs>
							<clipPath id="SVGID_2_">
								<use overflow="visible" xlink:href="#SVGID_1_"/>
							</clipPath>
							<g clip-path="url(#SVGID_2_)">
								<polygon points="39.462 278.44 127.23 278.44 127.23 88.764" fill="#927F79"/>
								<polygon points="127.23 88.764 127.23 278.44 214.99 278.44" fill="#7C6D68"/>
							</g>
							<defs>
								<polygon id="SVGID_3_" points="39.462 278.44 127.23 88.764 214.99 278.44"/>
							</defs>
							<clipPath id="SVGID_4_">
								<use overflow="visible" xlink:href="#SVGID_3_"/>
							</clipPath>
							<g clip-path="url(#SVGID_4_)">
								<path d="m87.379 161.63c0.513 6.783 5.822 11.818 11.857 11.244 2.222-0.213 4.229-1.157 5.858-2.602 1.207 5.882 6.095 10.03 11.602 9.505 3.901-0.373 7.142-3.001 8.817-6.64 0.501 0.746 1.081 1.415 1.714 2.014v-86.39c-5.05 0.486-40.353 66.09-39.841 72.87z" fill="#E4E4E3"/>
								<path d="m165.62 159.42c-0.511-6.783-32.36-71.227-38.397-70.653v86.39c2.141 2.028 4.958 3.151 7.968 2.866 5.062-0.482 9.014-4.756 9.865-10.121 2.207 2.491 5.339 3.912 8.701 3.593 6.04-0.58 12.37-5.3 11.86-12.08z" fill="#C9C8C8"/>
							</g>
							<defs>
								<polygon id="SVGID_5_" points="315.14 254.48 386.59 100.06 458.04 254.48"/>
							</defs>
							<clipPath id="SVGID_6_">
								<use overflow="visible" xlink:href="#SVGID_5_"/>
							</clipPath>
							<g clip-path="url(#SVGID_6_)">
								<polygon points="315.14 254.48 386.59 254.48 386.59 100.06" fill="#927F79"/>
								<polygon points="386.59 100.06 386.59 254.48 458.04 254.48" fill="#7C6D68"/>
							</g>
							<defs>
								<polygon id="SVGID_7_" points="315.14 254.48 386.59 100.06 458.04 254.48"/>
							</defs>
							<clipPath id="SVGID_8_">
								<use overflow="visible" xlink:href="#SVGID_7_"/>
							</clipPath>
							<g clip-path="url(#SVGID_8_)">
								<path d="m354.15 159.39c0.419 5.522 4.74 9.62 9.653 9.154 1.808-0.174 3.443-0.943 4.769-2.119 0.983 4.789 4.963 8.165 9.446 7.738 3.176-0.304 5.813-2.443 7.177-5.407 0.408 0.607 0.88 1.153 1.396 1.639v-70.329c-4.13 0.4-32.87 53.8-32.45 59.33z" fill="#E4E4E3"/>
								<path d="m417.85 157.58c-0.416-5.522-26.344-57.985-31.259-57.517v70.329c1.742 1.651 4.036 2.565 6.486 2.333 4.12-0.391 7.34-3.871 8.032-8.239 1.796 2.028 4.346 3.186 7.082 2.927 4.92-0.47 10.08-4.3 9.66-9.83z" fill="#C9C8C8"/>
							</g>
							<defs>
								<polygon id="SVGID_9_" points="217.69 261.66 305.45 71.991 393.22 261.66"/>
							</defs>
							<clipPath id="SVGID_10_">
								<use overflow="visible" xlink:href="#SVGID_9_"/>
							</clipPath>
							<g clip-path="url(#SVGID_10_)">
								<polygon points="217.69 261.66 305.45 261.66 305.45 71.991" fill="#927F79"/>
								<polygon points="305.45 71.991 305.45 261.66 393.22 261.66" fill="#7C6D68"/>
							</g>
							<defs>
								<polygon id="SVGID_11_" points="217.69 261.66 305.45 71.991 393.22 261.66"/>
							</defs>
							<clipPath id="SVGID_12_">
								<use overflow="visible" xlink:href="#SVGID_11_"/>
							</clipPath>
							<g clip-path="url(#SVGID_12_)">
								<path d="m265.6 144.86c0.513 6.783 5.822 11.818 11.857 11.244 2.222-0.213 4.229-1.157 5.858-2.602 1.207 5.882 6.095 10.03 11.602 9.505 3.901-0.373 7.142-3.001 8.817-6.64 0.501 0.746 1.081 1.415 1.714 2.014v-86.39c-5.06 0.493-40.36 66.1-39.85 72.88z" fill="#E4E4E3"/>
								<path d="m343.85 142.64c-0.511-6.783-32.36-71.227-38.397-70.653v86.39c2.141 2.028 4.958 3.151 7.968 2.866 5.062-0.482 9.014-4.756 9.865-10.121 2.207 2.491 5.339 3.912 8.701 3.593 6.04-0.58 12.38-5.29 11.87-12.08z" fill="#C9C8C8"/>
							</g>
							<defs>
								<polygon id="SVGID_13_" points="107.3 272.45 214.66 40.431 322.02 272.45"/>
							</defs>
							<clipPath id="SVGID_14_">
								<use overflow="visible" xlink:href="#SVGID_13_"/>
							</clipPath>
							<g clip-path="url(#SVGID_14_)">
								<polygon points="107.3 272.45 214.66 272.45 214.66 40.431" fill="#AA958F"/>
								<polygon points="214.66 40.431 214.66 272.45 322.02 272.45" fill="#91837F"/>
							</g>
							<defs>
								<polygon id="SVGID_15_" points="107.3 272.45 214.66 40.431 322.02 272.45"/>
							</defs>
							<clipPath id="SVGID_16_">
								<use overflow="visible" xlink:href="#SVGID_15_"/>
							</clipPath>
							<g clip-path="url(#SVGID_16_)">
								<path d="m165.92 129.57c0.627 8.297 7.12 14.455 14.505 13.753 2.717-0.261 5.173-1.417 7.165-3.184 1.475 7.197 7.456 12.269 14.192 11.628 4.771-0.455 8.734-3.671 10.782-8.122 0.613 0.913 1.324 1.73 2.098 2.462v-105.68c-6.18 0.59-49.36 80.84-48.73 89.14z" fill="#fff"/>
								<path d="m261.63 126.86c-0.627-8.298-39.583-87.129-46.969-86.427v105.68c2.619 2.482 6.064 3.854 9.747 3.507 6.191-0.589 11.024-5.82 12.065-12.381 2.699 3.047 6.531 4.785 10.644 4.396 7.38-0.72 15.14-6.48 14.51-14.78z" fill="#E1E1E1"/>
							</g>
							<defs>
								<polygon id="SVGID_17_" points="371.68 258.07 479.03 26.054 586.39 258.07"/>
							</defs>
							<clipPath id="SVGID_18_">
								<use overflow="visible" xlink:href="#SVGID_17_"/>
							</clipPath>
							<g clip-path="url(#SVGID_18_)">
								<polygon points="371.68 258.07 479.03 258.07 479.03 26.054" fill="#AA958F"/>
								<polygon points="479.03 26.054 479.03 258.07 586.39 258.07" fill="#91837F"/>
							</g>
							<defs>
								<polygon id="SVGID_19_" points="371.68 258.07 479.03 26.054 586.39 258.07"/>
							</defs>
							<clipPath id="SVGID_20_">
								<use overflow="visible" xlink:href="#SVGID_19_"/>
							</clipPath>
							<g clip-path="url(#SVGID_20_)">
								<path d="m430.29 115.19c0.626 8.297 7.12 14.455 14.504 13.753 2.717-0.261 5.174-1.417 7.166-3.184 1.475 7.197 7.455 12.269 14.192 11.628 4.77-0.455 8.734-3.671 10.782-8.122 0.613 0.913 1.324 1.73 2.098 2.462v-105.68c-6.19 0.593-49.37 80.84-48.74 89.14z" fill="#fff"/>
								<path d="m526 112.48c-0.627-8.298-39.584-87.129-46.97-86.427v105.68c2.619 2.482 6.064 3.854 9.747 3.507 6.191-0.589 11.024-5.82 12.065-12.381 2.699 3.047 6.531 4.785 10.644 4.396 7.39-0.71 15.15-6.48 14.52-14.78z" fill="#E1E1E1"/>
							</g>
</g>
<g id="arboles">
		<rect y="228.89" x="241.98" height="17.857" width="3.213" fill="#67452D"/>
		<path d="m243.58 187.77c-6.997 0-12.673 5.676-12.673 12.676v18.942c0 7.004 5.676 12.673 12.673 12.673 7.003 0 12.673-5.669 12.673-12.673v-18.94c0.01-7-5.66-12.68-12.67-12.68z" fill="#66724D"/>
		<rect y="228.1" x="306.67" height="16.434" width="2.958" fill="#67452D"/>
		<path d="m308.15 190.26c-6.44 0-11.664 5.223-11.664 11.665v17.432c0 6.444 5.224 11.661 11.664 11.661 6.443 0 11.661-5.217 11.661-11.661v-17.432c0-6.43-5.22-11.66-11.66-11.66z" fill="#66724D"/>
		<rect y="226.41" x="466.39" height="16.433" width="2.956" fill="#67452D"/>
		<path d="m467.87 188.57c-6.44 0-11.664 5.224-11.664 11.666v17.431c0 6.446 5.224 11.662 11.664 11.662 6.443 0 11.661-5.216 11.661-11.662v-17.431c0-6.45-5.22-11.67-11.66-11.67z" fill="#66724D"/>
		<rect y="226.41" x="502.94" height="16.433" width="2.957" fill="#67452D"/>
		<path d="m504.42 188.57c-6.439 0-11.663 5.224-11.663 11.666v17.431c0 6.446 5.224 11.662 11.663 11.662 6.445 0 11.661-5.216 11.661-11.662v-17.431c0-6.45-5.22-11.67-11.66-11.67z" fill="#66724D"/>
		<rect y="231.39" x="279.19" height="17.92" width="3.531" fill="#67452D"/>
		<polygon points="280.96 174.74 263.83 232.8 280.96 232.8 298.09 232.8" fill="#66724D"/>
		<rect y="226.49" x="342.52" height="15.729" width="3.099" fill="#67452D"/>
		<polygon points="344.07 176.76 329.03 227.72 344.07 227.72 359.11 227.72" fill="#66724D"/>
		<rect y="225.89" x="424.82" height="14.63" width="2.883" fill="#67452D"/>
		<polygon points="426.26 179.65 412.28 227.04 426.26 227.04 440.25 227.04" fill="#66724D"/>
		<rect y="225" x="359" height="17.855" width="3.214" fill="#67452D"/>
		<path d="m360.61 183.88c-6.997 0-12.673 5.675-12.673 12.676v18.942c0 7.005 5.676 12.672 12.673 12.672 7.005 0 12.674-5.667 12.674-12.672v-18.942c0-7.01-5.67-12.68-12.67-12.68z" fill="#878742"/>
		<rect y="227.26" x="292.02" height="17.857" width="3.214" fill="#67452D"/>
		<path d="m293.63 186.14c-6.998 0-12.674 5.678-12.674 12.678v18.941c0 7.004 5.676 12.673 12.674 12.673 7.003 0 12.673-5.669 12.673-12.673v-18.941c0-7-5.67-12.68-12.67-12.68z" fill="#878742"/>
		<rect y="232.46" x="227.53" height="17.856" width="3.215" fill="#67452D"/>
		<path d="m229.13 191.34c-6.999 0-12.674 5.677-12.674 12.678v18.941c0 7.004 5.675 12.673 12.674 12.673 7.003 0 12.673-5.669 12.673-12.673v-18.94c0.01-7-5.66-12.68-12.67-12.68z" fill="#878742"/>
		<rect y="241.59" x="37.927" height="17.856" width="3.215" fill="#67452D"/>
		<path d="m39.533 200.47c-6.999 0-12.674 5.677-12.674 12.678v18.941c0 7.004 5.675 12.673 12.674 12.673 7.003 0 12.673-5.669 12.673-12.673v-18.941c0-7-5.669-12.68-12.673-12.68z" fill="#878742"/>
		<rect y="227.1" x="321.18" height="17.92" width="3.531" fill="#67452D"/>
		<polygon points="322.95 170.45 305.82 228.5 322.95 228.5 340.08 228.5" fill="#878742"/>
		<rect y="223.28" x="405.77" height="17.92" width="3.532" fill="#67452D"/>
		<polygon points="407.54 166.63 390.41 224.69 407.54 224.69 424.67 224.69" fill="#878742"/>
		<rect y="223.28" x="446.93" height="17.92" width="3.531" fill="#67452D"/>
		<polygon points="448.7 166.63 431.57 224.69 448.7 224.69 465.83 224.69" fill="#878742"/>
		<rect y="224.09" x="483.25" height="16.474" width="3.247" fill="#67452D"/>
		<polygon points="484.87 172.01 469.12 225.38 484.87 225.38 500.62 225.38" fill="#878742"/>
		<rect y="228.3" x="260.56" height="17.92" width="3.531" fill="#67452D"/>
		<polygon points="262.32 171.66 245.19 229.71 262.32 229.71 279.46 229.71" fill="#878742"/>
</g>
<g id="pisos">
				<rect y="120.02" x="1031.4" height="117.62" width="67.658" fill="#E7DFC8"/>
				<g fill="#9BBCC1">
					<rect y="128.3" x="1036.9" height="10.157" width="6.092"/>
					<rect y="128.3" x="1053.8" height="10.157" width="6.092"/>
					<rect y="128.3" x="1070.6" height="10.157" width="6.092"/>
					<rect y="128.3" x="1087.5" height="10.157" width="6.092"/>
					<rect y="143.76" x="1036.9" height="10.155" width="6.092"/>
					<rect y="143.76" x="1053.8" height="10.155" width="6.092"/>
					<rect y="143.76" x="1070.6" height="10.155" width="6.092"/>
					<rect y="143.76" x="1087.5" height="10.155" width="6.092"/>
					<rect y="159.21" x="1036.9" height="10.156" width="6.092"/>
					<rect y="159.21" x="1053.8" height="10.156" width="6.092"/>
					<rect y="159.21" x="1070.6" height="10.156" width="6.092"/>
					<rect y="159.21" x="1087.5" height="10.156" width="6.092"/>
				</g>
				<g fill="#9BBCC1">
					<rect y="174.67" x="1036.9" height="10.155" width="6.092"/>
					<rect y="174.67" x="1053.8" height="10.155" width="6.092"/>
					<rect y="174.67" x="1070.6" height="10.155" width="6.092"/>
					<rect y="174.67" x="1087.5" height="10.155" width="6.092"/>
					<rect y="190.13" x="1036.9" height="10.155" width="6.092"/>
					<rect y="190.13" x="1053.8" height="10.155" width="6.092"/>
					<rect y="190.13" x="1070.6" height="10.155" width="6.092"/>
					<rect y="190.13" x="1087.5" height="10.155" width="6.092"/>
					<rect y="205.58" x="1036.9" height="10.156" width="6.092"/>
					<rect y="205.58" x="1053.8" height="10.156" width="6.092"/>
					<rect y="205.58" x="1070.6" height="10.156" width="6.092"/>
					<rect y="205.58" x="1087.5" height="10.156" width="6.092"/>
				</g>
				<rect y="171.36" x="1027.7" height="1.311" width="73.615" fill="#4A3238"/>
				<rect y="116.15" x="1027.7" height="3.87" width="73.615" fill="#4A3238"/>
				<path d="m1088 104.3c-3.267-9.417-12.211-16.18-22.739-16.18-10.53 0-19.474 6.763-22.74 16.18h-11.09v11.848h67.658v-11.848h-11.2z" fill="#775047"/>
				<path d="m1083.3 112.19c0-9.965-8.078-18.044-18.042-18.044-9.966 0-18.044 8.078-18.044 18.044" fill="#4A3238"/>
		<rect y="229.75" x="1031.4" height="7.884" width="67.658" fill="#E1CFB5"/>
			<rect y="154.87" x="1078.5" height="84.767" width="92.938" fill="#C88B49"/>
			<rect y="189.5" x="1078.5" height="30.7" width="92.938" fill="#66431C"/>
			<g fill="#9BBCC1">
				<rect y="160.98" x="1088.4" height="10.047" width="6.025"/>
				<rect y="160.98" x="1099.6" height="10.047" width="6.029"/>
				<rect y="160.98" x="1110.9" height="10.047" width="6.027"/>
				<rect y="160.98" x="1122.1" height="10.047" width="6.027"/>
				<rect y="160.98" x="1134.6" height="10.047" width="6.025"/>
				<rect y="160.98" x="1145.8" height="10.047" width="6.03"/>
				<rect y="160.98" x="1157.1" height="10.047" width="6.025"/>
				<rect y="175.46" x="1088.4" height="10.047" width="6.025"/>
				<rect y="175.46" x="1099.6" height="10.047" width="6.029"/>
				<rect y="175.46" x="1110.9" height="10.047" width="6.027"/>
				<rect y="175.46" x="1122.1" height="10.047" width="6.027"/>
				<rect y="175.46" x="1134.6" height="10.047" width="6.025"/>
				<rect y="175.46" x="1145.8" height="10.047" width="6.03"/>
				<rect y="175.46" x="1157.1" height="10.047" width="6.025"/>
			</g>
			<g fill="#9BBCC1">
				<rect y="193.12" x="1088.4" height="10.046" width="6.025"/>
				<rect y="193.12" x="1099.6" height="10.046" width="6.029"/>
				<rect y="193.12" x="1110.9" height="10.046" width="6.027"/>
				<rect y="193.12" x="1122.1" height="10.046" width="6.027"/>
				<rect y="193.12" x="1134.6" height="10.046" width="6.025"/>
				<rect y="193.12" x="1145.8" height="10.046" width="6.03"/>
				<rect y="193.12" x="1157.1" height="10.046" width="6.025"/>
				<rect y="207.6" x="1088.4" height="10.046" width="6.025"/>
				<rect y="207.6" x="1099.6" height="10.046" width="6.029"/>
				<rect y="207.6" x="1110.9" height="10.046" width="6.027"/>
				<rect y="207.6" x="1122.1" height="10.046" width="6.027"/>
				<rect y="207.6" x="1134.6" height="10.046" width="6.025"/>
				<rect y="207.6" x="1145.8" height="10.046" width="6.03"/>
				<rect y="207.6" x="1157.1" height="10.046" width="6.025"/>
			</g>
			<rect y="148.35" x="1076.8" height="6.515" width="96.203" fill="#543816"/>
				<polygon points="1171.4 148.35 1153.2 129.92 1096.7 129.92 1078.5 148.35" fill="#66431C"/>
		<rect y="234.78" x="1078.5" height="4.849" width="92.938" fill="#D3CCAF"/>
		<rect y="221.48" x="1138.3" height="18.153" width="12.378" fill="#66431C"/>
			<rect y="140.84" x="825" height="75.91" width="83.227" fill="#E7DFC8"/>
			<rect y="171.86" x="825" height="27.493" width="83.227" fill="#66431C"/>
			<g fill="#9BBCC1">
				<rect y="146.31" x="833.88" height="8.998" width="5.396"/>
				<rect y="146.31" x="843.95" height="8.998" width="5.399"/>
				<rect y="146.31" x="854.02" height="8.998" width="5.397"/>
				<rect y="146.31" x="864.08" height="8.998" width="5.397"/>
				<rect y="146.31" x="875.26" height="8.998" width="5.396"/>
				<rect y="146.31" x="885.33" height="8.998" width="5.4"/>
				<rect y="146.31" x="895.4" height="8.998" width="5.395"/>
				<rect y="159.28" x="833.88" height="8.997" width="5.396"/>
				<rect y="159.28" x="843.95" height="8.997" width="5.399"/>
				<rect y="159.28" x="854.02" height="8.997" width="5.397"/>
				<rect y="159.28" x="864.08" height="8.997" width="5.397"/>
				<rect y="159.28" x="875.26" height="8.997" width="5.396"/>
				<rect y="159.28" x="885.33" height="8.997" width="5.4"/>
				<rect y="159.28" x="895.4" height="8.997" width="5.395"/>
			</g>
			<g fill="#9BBCC1">
				<rect y="175.1" x="833.88" height="8.996" width="5.396"/>
				<rect y="175.1" x="843.95" height="8.996" width="5.399"/>
				<rect y="175.1" x="854.02" height="8.996" width="5.397"/>
				<rect y="175.1" x="864.08" height="8.996" width="5.397"/>
				<rect y="175.1" x="875.26" height="8.996" width="5.396"/>
				<rect y="175.1" x="885.33" height="8.996" width="5.4"/>
				<rect y="175.1" x="895.4" height="8.996" width="5.395"/>
				<rect y="188.06" x="833.88" height="8.997" width="5.396"/>
				<rect y="188.06" x="843.95" height="8.997" width="5.399"/>
				<rect y="188.06" x="854.02" height="8.997" width="5.397"/>
				<rect y="188.06" x="864.08" height="8.997" width="5.397"/>
				<rect y="188.06" x="875.26" height="8.997" width="5.396"/>
				<rect y="188.06" x="885.33" height="8.997" width="5.4"/>
				<rect y="188.06" x="895.4" height="8.997" width="5.395"/>
			</g>
			<rect y="135.01" x="823.54" height="5.834" width="86.151" fill="#4A3238"/>
				<polygon points="908.23 135.01 891.92 118.5 841.3 118.5 825 135.01" fill="#775047"/>
		<rect y="212.41" x="825" height="4.342" width="83.227" fill="#D3CCAF"/>
		<rect y="200.5" x="878.63" height="16.256" width="11.085" fill="#66431C"/>
			<polygon points="835.78 177.3 863.18 160.32 890.58 177.3" fill="#597038"/>
		<rect y="180.62" x="835.78" height="24.796" width="54.802" fill="#89906C"/>
		<rect y="208.13" x="835.78" height="23.755" width="54.802" fill="#89906C"/>
		<g fill="#9BBCC1">
			<rect y="186.44" x="840.38" height="4.457" width="11.947"/>
			<rect y="186.44" x="857.57" height="4.457" width="11.946"/>
			<rect y="186.44" x="874.76" height="4.457" width="11.946"/>
			<rect y="196.31" x="840.38" height="4.457" width="11.947"/>
			<rect y="196.31" x="857.57" height="4.457" width="11.946"/>
			<rect y="196.31" x="874.76" height="4.457" width="11.946"/>
		</g>
		<rect y="176.78" x="834.82" height="3.842" width="56.728" fill="#3F5628"/>
		<rect y="204.76" x="834.82" height="3.842" width="56.728" fill="#414242"/>
		<rect y="222.58" x="859.64" height="9.3" width="7.089" fill="#414242"/>
		<rect y="213.95" x="845.26" height="4.457" width="11.947" fill="#9BBCC1"/>
		<rect y="213.95" x="868.26" height="4.457" width="11.947" fill="#9BBCC1"/>
		<path d="m866.34 167.99c-0.52-1.231-1.739-2.095-3.159-2.095-1.894 0-3.43 1.535-3.43 3.43 0 1.412 0.855 2.622 2.074 3.148 0.007 0.003 0.014 0.008 0.021 0.011 0.169 0.072 0.349 0.121 0.531 0.165 0.039 0.009 0.073 0.027 0.112 0.035 0.224 0.046 0.455 0.07 0.691 0.07 1.894 0 3.429-1.534 3.429-3.429 0.01-0.49-0.08-0.94-0.26-1.35z" fill="#414242"/>
			<rect y="124.28" x="1213.1" height="124.79" width="65.076" fill="#775047"/>
				<path d="m1245.6 76.354c-1.927 0-3.488 1.562-3.488 3.489 0 1.477 0.922 2.733 2.219 3.242v16.885h2.539v-16.885c1.297-0.509 2.219-1.765 2.219-3.242 0.1-1.927-1.5-3.489-3.4-3.489z" fill="#414242"/>
				<path d="m1278.2 121.08c-3.812-9.583-14.568-22.38-32.537-22.38s-28.726 12.797-32.537 22.38h65z" fill="#4A3238"/>
				<rect y="117.89" x="1209.8" height="6.389" width="71.555" fill="#4A3238"/>
			<rect y="180.08" x="1209.8" height="2.182" width="71.555" fill="#4A3238"/>
				<g fill="#9BBCC1">
					<rect y="130.95" x="1218.5" height="6.97" width="15.194"/>
					<rect y="130.95" x="1238" height="6.97" width="15.194"/>
					<rect y="130.95" x="1257.5" height="6.97" width="15.195"/>
					<rect y="143.42" x="1218.5" height="6.97" width="15.194"/>
					<rect y="143.42" x="1238" height="6.97" width="15.194"/>
					<rect y="143.42" x="1257.5" height="6.97" width="15.195"/>
					<rect y="155.9" x="1218.5" height="6.97" width="15.194"/>
					<rect y="155.9" x="1238" height="6.97" width="15.194"/>
					<rect y="155.9" x="1257.5" height="6.97" width="15.195"/>
					<rect y="168.38" x="1218.5" height="6.97" width="15.194"/>
					<rect y="168.38" x="1238" height="6.97" width="15.194"/>
					<rect y="168.38" x="1257.5" height="6.97" width="15.195"/>
				</g>
				<g fill="#9BBCC1">
					<rect y="213.7" x="1218.5" height="6.97" width="15.194"/>
					<rect y="213.7" x="1238" height="6.97" width="15.194"/>
					<rect y="213.7" x="1257.5" height="6.97" width="15.195"/>
					<rect y="226.18" x="1218.5" height="6.97" width="15.194"/>
					<rect y="226.18" x="1238" height="6.97" width="15.194"/>
					<rect y="226.18" x="1257.5" height="6.97" width="15.195"/>
				</g>
				<g fill="#9BBCC1">
					<rect y="188.74" x="1218.5" height="6.97" width="15.195"/>
					<rect y="188.74" x="1238" height="6.97" width="15.195"/>
					<rect y="188.74" x="1257.5" height="6.97" width="15.194"/>
					<rect y="201.22" x="1218.5" height="6.97" width="15.195"/>
					<rect y="201.22" x="1238" height="6.97" width="15.195"/>
					<rect y="201.22" x="1257.5" height="6.97" width="15.194"/>
				</g>
		<rect y="240.36" x="1213.1" height="10" width="65.076" fill="#E1CFB5"/>
			<rect y="124.96" x="899.79" height="18.183" width="9.647" fill="#131D28"/>
			<rect y="164.05" x="881.86" height="70.456" width="54.979" fill="#775047"/>
			<rect y="225.85" x="881.86" height="8.653" width="54.979" fill="#E1CFB5"/>
					<rect y="174.75" x="887.89" height="13.97" width="10.531" fill="#9BBCC1"/>
					<path d="m898.92 189.22h-11.531v-14.97h11.531v14.97zm-10.53-1h9.531v-12.97h-9.531v12.97z" fill="#414242"/>
					<rect y="174.75" x="904.13" height="13.97" width="10.531" fill="#9BBCC1"/>
					<path d="m915.16 189.22h-11.531v-14.97h11.531v14.97zm-10.53-1h9.531v-12.97h-9.531v12.97z" fill="#414242"/>
					<rect y="174.75" x="920.37" height="13.97" width="10.53" fill="#9BBCC1"/>
					<path d="m931.4 189.22h-11.53v-14.97h11.53v14.97zm-10.53-1h9.53v-12.97h-9.53v12.97z" fill="#414242"/>
					<rect y="205.55" x="887.44" height="13.97" width="10.531" fill="#9BBCC1"/>
					<path d="m898.47 220.02h-11.531v-14.97h11.531v14.97zm-10.53-1h9.531v-12.97h-9.531v12.97z" fill="#414242"/>
					<rect y="205.55" x="903.68" height="13.97" width="10.53" fill="#9BBCC1"/>
					<path d="m914.71 220.02h-11.53v-14.97h11.53v14.97zm-10.53-1h9.53v-12.97h-9.53v12.97z" fill="#414242"/>
					<rect y="205.55" x="919.92" height="13.97" width="10.53" fill="#9BBCC1"/>
					<path d="m930.95 220.02h-11.53v-14.97h11.53v14.97zm-10.53-1h9.53v-12.97h-9.53v12.97z" fill="#414242"/>
				<rect y="136.11" x="881.86" height="29.706" width="54.979" fill="#152634"/>
									<defs>
										<rect id="SVGID_21_" y="136.11" x="881.86" height="29.706" width="54.979"/>
									</defs>
									<clipPath id="SVGID_22_">
										<use overflow="visible" xlink:href="#SVGID_21_"/>
									</clipPath>
									<g fill="#131D28" clip-path="url(#SVGID_22_)">
											<path d="m889.68 137.6c0 1.083-0.862 1.962-1.927 1.962-1.064 0-1.927-0.878-1.927-1.962s-0.491-1.962 1.927-1.962c2.42 0 1.93 0.88 1.93 1.96z"/>
											<path d="m889.68 143.14c0 1.083-0.862 1.962-1.927 1.962-1.064 0-1.927-0.878-1.927-1.962s-0.491-1.962 1.927-1.962c2.42 0 1.93 0.88 1.93 1.96z"/>
											<path d="m889.68 149.2c0 1.083-0.862 1.962-1.927 1.962-1.064 0-1.927-0.878-1.927-1.962s-0.491-1.962 1.927-1.962c2.42 0 1.93 0.88 1.93 1.96z"/>
											<path d="m889.68 154.74c0 1.083-0.862 1.962-1.927 1.962-1.064 0-1.927-0.878-1.927-1.962s-0.491-1.961 1.927-1.961c2.42 0 1.93 0.87 1.93 1.96z"/>
											<path d="m889.68 160.8c0 1.083-0.862 1.961-1.927 1.961-1.064 0-1.927-0.878-1.927-1.961 0-1.084-0.491-1.963 1.927-1.963 2.42 0 1.93 0.87 1.93 1.96z"/>
											<path d="m889.68 166.33c0 1.085-0.862 1.962-1.927 1.962-1.064 0-1.927-0.877-1.927-1.962 0-1.083-0.491-1.962 1.927-1.962 2.42 0 1.93 0.88 1.93 1.96z"/>
											<path d="m893.61 140.37c0 1.084-0.862 1.962-1.926 1.962s-1.927-0.878-1.927-1.962-0.491-1.962 1.927-1.962c2.42 0 1.93 0.88 1.93 1.96z"/>
											<path d="m893.61 145.91c0 1.084-0.862 1.962-1.926 1.962s-1.927-0.878-1.927-1.962c0-1.083-0.491-1.962 1.927-1.962 2.42 0 1.93 0.87 1.93 1.96z"/>
											<path d="m893.61 151.97c0 1.083-0.862 1.961-1.926 1.961s-1.927-0.878-1.927-1.961-0.491-1.962 1.927-1.962c2.42 0 1.93 0.88 1.93 1.96z"/>
											<path d="m893.61 157.5c0 1.083-0.862 1.962-1.926 1.962s-1.927-0.879-1.927-1.962c0-1.084-0.491-1.962 1.927-1.962 2.42 0 1.93 0.88 1.93 1.96z"/>
											<path d="m893.61 163.56c0 1.083-0.862 1.962-1.926 1.962s-1.927-0.879-1.927-1.962c0-1.084-0.491-1.961 1.927-1.961 2.42 0 1.93 0.88 1.93 1.96z"/>
											<path d="m893.61 169.1c0 1.085-0.862 1.962-1.926 1.962s-1.927-0.877-1.927-1.962c0-1.083-0.491-1.961 1.927-1.961 2.42 0 1.93 0.88 1.93 1.96z"/>
											<path d="m897.55 137.6c0 1.083-0.863 1.962-1.927 1.962-1.065 0-1.927-0.878-1.927-1.962s-0.491-1.962 1.927-1.962c2.42 0 1.93 0.88 1.93 1.96z"/>
											<path d="m897.55 143.14c0 1.083-0.863 1.962-1.927 1.962-1.065 0-1.927-0.878-1.927-1.962s-0.491-1.962 1.927-1.962c2.42 0 1.93 0.88 1.93 1.96z"/>
											<path d="m897.55 149.2c0 1.083-0.863 1.962-1.927 1.962-1.065 0-1.927-0.878-1.927-1.962s-0.491-1.962 1.927-1.962c2.42 0 1.93 0.88 1.93 1.96z"/>
											<path d="m897.55 154.74c0 1.083-0.863 1.962-1.927 1.962-1.065 0-1.927-0.878-1.927-1.962s-0.491-1.961 1.927-1.961c2.42 0 1.93 0.87 1.93 1.96z"/>
											<path d="m897.55 160.8c0 1.083-0.863 1.961-1.927 1.961-1.065 0-1.927-0.878-1.927-1.961 0-1.084-0.491-1.963 1.927-1.963 2.42 0 1.93 0.87 1.93 1.96z"/>
											<path d="m897.55 166.33c0 1.085-0.863 1.962-1.927 1.962-1.065 0-1.927-0.877-1.927-1.962 0-1.083-0.491-1.962 1.927-1.962 2.42 0 1.93 0.88 1.93 1.96z"/>
											<path d="m901.48 140.37c0 1.084-0.862 1.962-1.927 1.962-1.063 0-1.926-0.878-1.926-1.962s-0.49-1.962 1.926-1.962c2.43 0 1.93 0.88 1.93 1.96z"/>
											<path d="m901.48 145.91c0 1.084-0.862 1.962-1.927 1.962-1.063 0-1.926-0.878-1.926-1.962 0-1.083-0.49-1.962 1.926-1.962 2.43 0 1.93 0.87 1.93 1.96z"/>
											<path d="m901.48 151.97c0 1.083-0.862 1.961-1.927 1.961-1.063 0-1.926-0.878-1.926-1.961s-0.49-1.962 1.926-1.962c2.43 0 1.93 0.88 1.93 1.96z"/>
											<path d="m901.48 157.5c0 1.083-0.862 1.962-1.927 1.962-1.063 0-1.926-0.879-1.926-1.962 0-1.084-0.49-1.962 1.926-1.962 2.43 0 1.93 0.88 1.93 1.96z"/>
											<path d="m901.48 163.56c0 1.083-0.862 1.962-1.927 1.962-1.063 0-1.926-0.879-1.926-1.962 0-1.084-0.49-1.961 1.926-1.961 2.43 0 1.93 0.88 1.93 1.96z"/>
											<path d="m901.48 169.1c0 1.085-0.862 1.962-1.927 1.962-1.063 0-1.926-0.877-1.926-1.962 0-1.083-0.49-1.961 1.926-1.961 2.43 0 1.93 0.88 1.93 1.96z"/>
											<path d="m905.42 137.6c0 1.083-0.863 1.962-1.927 1.962s-1.927-0.878-1.927-1.962-0.491-1.962 1.927-1.962c2.42 0 1.93 0.88 1.93 1.96z"/>
											<path d="m905.42 143.14c0 1.083-0.863 1.962-1.927 1.962s-1.927-0.878-1.927-1.962-0.491-1.962 1.927-1.962c2.42 0 1.93 0.88 1.93 1.96z"/>
											<path d="m905.42 149.2c0 1.083-0.863 1.962-1.927 1.962s-1.927-0.878-1.927-1.962-0.491-1.962 1.927-1.962c2.42 0 1.93 0.88 1.93 1.96z"/>
											<path d="m905.42 154.74c0 1.083-0.863 1.962-1.927 1.962s-1.927-0.878-1.927-1.962-0.491-1.961 1.927-1.961c2.42 0 1.93 0.87 1.93 1.96z"/>
											<path d="m905.42 160.8c0 1.083-0.863 1.961-1.927 1.961s-1.927-0.878-1.927-1.961c0-1.084-0.491-1.963 1.927-1.963 2.42 0 1.93 0.87 1.93 1.96z"/>
											<path d="m905.42 166.33c0 1.085-0.863 1.962-1.927 1.962s-1.927-0.877-1.927-1.962c0-1.083-0.491-1.962 1.927-1.962 2.42 0 1.93 0.88 1.93 1.96z"/>
											<path d="m909.36 140.37c0 1.084-0.862 1.962-1.926 1.962s-1.926-0.878-1.926-1.962-0.492-1.962 1.926-1.962c2.42 0 1.93 0.88 1.93 1.96z"/>
											<path d="m909.36 145.91c0 1.084-0.862 1.962-1.926 1.962s-1.926-0.878-1.926-1.962c0-1.083-0.492-1.962 1.926-1.962 2.42 0 1.93 0.87 1.93 1.96z"/>
											<path d="m909.36 151.97c0 1.083-0.862 1.961-1.926 1.961s-1.926-0.878-1.926-1.961-0.492-1.962 1.926-1.962c2.42 0 1.93 0.88 1.93 1.96z"/>
											<path d="m909.36 157.5c0 1.083-0.862 1.962-1.926 1.962s-1.926-0.879-1.926-1.962c0-1.084-0.492-1.962 1.926-1.962 2.42 0 1.93 0.88 1.93 1.96z"/>
											<path d="m909.36 163.56c0 1.083-0.862 1.962-1.926 1.962s-1.926-0.879-1.926-1.962c0-1.084-0.492-1.961 1.926-1.961 2.42 0 1.93 0.88 1.93 1.96z"/>
											<path d="m909.36 169.1c0 1.085-0.862 1.962-1.926 1.962s-1.926-0.877-1.926-1.962c0-1.083-0.492-1.961 1.926-1.961 2.42 0 1.93 0.88 1.93 1.96z"/>
											<path d="m913.29 137.6c0 1.083-0.864 1.962-1.927 1.962-1.064 0-1.927-0.878-1.927-1.962s-0.491-1.962 1.927-1.962c2.42 0 1.93 0.88 1.93 1.96z"/>
											<path d="m913.29 143.14c0 1.083-0.864 1.962-1.927 1.962-1.064 0-1.927-0.878-1.927-1.962s-0.491-1.962 1.927-1.962c2.42 0 1.93 0.88 1.93 1.96z"/>
											<path d="m913.29 149.2c0 1.083-0.864 1.962-1.927 1.962-1.064 0-1.927-0.878-1.927-1.962s-0.491-1.962 1.927-1.962c2.42 0 1.93 0.88 1.93 1.96z"/>
											<path d="m913.29 154.74c0 1.083-0.864 1.962-1.927 1.962-1.064 0-1.927-0.878-1.927-1.962s-0.491-1.961 1.927-1.961c2.42 0 1.93 0.87 1.93 1.96z"/>
											<path d="m913.29 160.8c0 1.083-0.864 1.961-1.927 1.961-1.064 0-1.927-0.878-1.927-1.961 0-1.084-0.491-1.963 1.927-1.963 2.42 0 1.93 0.87 1.93 1.96z"/>
											<path d="m913.29 166.33c0 1.085-0.864 1.962-1.927 1.962-1.064 0-1.927-0.877-1.927-1.962 0-1.083-0.491-1.962 1.927-1.962 2.42 0 1.93 0.88 1.93 1.96z"/>
											<path d="m917.23 140.37c0 1.084-0.863 1.962-1.928 1.962-1.064 0-1.926-0.878-1.926-1.962s-0.491-1.962 1.926-1.962c2.42 0 1.93 0.88 1.93 1.96z"/>
											<path d="m917.23 145.91c0 1.084-0.863 1.962-1.928 1.962-1.064 0-1.926-0.878-1.926-1.962 0-1.083-0.491-1.962 1.926-1.962 2.42 0 1.93 0.87 1.93 1.96z"/>
											<path d="m917.23 151.97c0 1.083-0.863 1.961-1.928 1.961-1.064 0-1.926-0.878-1.926-1.961s-0.491-1.962 1.926-1.962c2.42 0 1.93 0.88 1.93 1.96z"/>
											<path d="m917.23 157.5c0 1.083-0.863 1.962-1.928 1.962-1.064 0-1.926-0.879-1.926-1.962 0-1.084-0.491-1.962 1.926-1.962 2.42 0 1.93 0.88 1.93 1.96z"/>
											<path d="m917.23 163.56c0 1.083-0.863 1.962-1.928 1.962-1.064 0-1.926-0.879-1.926-1.962 0-1.084-0.491-1.961 1.926-1.961 2.42 0 1.93 0.88 1.93 1.96z"/>
											<path d="m917.23 169.1c0 1.085-0.863 1.962-1.928 1.962-1.064 0-1.926-0.877-1.926-1.962 0-1.083-0.491-1.961 1.926-1.961 2.42 0 1.93 0.88 1.93 1.96z"/>
											<path d="m921.16 137.6c0 1.083-0.862 1.962-1.927 1.962s-1.927-0.878-1.927-1.962-0.491-1.962 1.927-1.962c2.42 0 1.93 0.88 1.93 1.96z"/>
											<path d="m921.16 143.14c0 1.083-0.862 1.962-1.927 1.962s-1.927-0.878-1.927-1.962-0.491-1.962 1.927-1.962c2.42 0 1.93 0.88 1.93 1.96z"/>
											<path d="m921.16 149.2c0 1.083-0.862 1.962-1.927 1.962s-1.927-0.878-1.927-1.962-0.491-1.962 1.927-1.962c2.42 0 1.93 0.88 1.93 1.96z"/>
											<path d="m921.16 154.74c0 1.083-0.862 1.962-1.927 1.962s-1.927-0.878-1.927-1.962-0.491-1.961 1.927-1.961c2.42 0 1.93 0.87 1.93 1.96z"/>
											<path d="m921.16 160.8c0 1.083-0.862 1.961-1.927 1.961s-1.927-0.878-1.927-1.961c0-1.084-0.491-1.963 1.927-1.963 2.42 0 1.93 0.87 1.93 1.96z"/>
											<path d="m921.16 166.33c0 1.085-0.862 1.962-1.927 1.962s-1.927-0.877-1.927-1.962c0-1.083-0.491-1.962 1.927-1.962 2.42 0 1.93 0.88 1.93 1.96z"/>
											<path d="m925.1 140.37c0 1.084-0.862 1.962-1.927 1.962-1.063 0-1.926-0.878-1.926-1.962s-0.491-1.962 1.926-1.962c2.42 0 1.93 0.88 1.93 1.96z"/>
											<path d="m925.1 145.91c0 1.084-0.862 1.962-1.927 1.962-1.063 0-1.926-0.878-1.926-1.962 0-1.083-0.491-1.962 1.926-1.962 2.42 0 1.93 0.87 1.93 1.96z"/>
											<path d="m925.1 151.97c0 1.083-0.862 1.961-1.927 1.961-1.063 0-1.926-0.878-1.926-1.961s-0.491-1.962 1.926-1.962c2.42 0 1.93 0.88 1.93 1.96z"/>
											<path d="m925.1 157.5c0 1.083-0.862 1.962-1.927 1.962-1.063 0-1.926-0.879-1.926-1.962 0-1.084-0.491-1.962 1.926-1.962 2.42 0 1.93 0.88 1.93 1.96z"/>
											<path d="m925.1 163.56c0 1.083-0.862 1.962-1.927 1.962-1.063 0-1.926-0.879-1.926-1.962 0-1.084-0.491-1.961 1.926-1.961 2.42 0 1.93 0.88 1.93 1.96z"/>
											<path d="m925.1 169.1c0 1.085-0.862 1.962-1.927 1.962-1.063 0-1.926-0.877-1.926-1.962 0-1.083-0.491-1.961 1.926-1.961 2.42 0 1.93 0.88 1.93 1.96z"/>
											<path d="m929.03 137.6c0 1.083-0.863 1.962-1.926 1.962-1.064 0-1.928-0.878-1.928-1.962s-0.49-1.962 1.928-1.962c2.42 0 1.93 0.88 1.93 1.96z"/>
											<path d="m929.03 143.14c0 1.083-0.863 1.962-1.926 1.962-1.064 0-1.928-0.878-1.928-1.962s-0.49-1.962 1.928-1.962c2.42 0 1.93 0.88 1.93 1.96z"/>
											<path d="m929.03 149.2c0 1.083-0.863 1.962-1.926 1.962-1.064 0-1.928-0.878-1.928-1.962s-0.49-1.962 1.928-1.962c2.42 0 1.93 0.88 1.93 1.96z"/>
											<path d="m929.03 154.74c0 1.083-0.863 1.962-1.926 1.962-1.064 0-1.928-0.878-1.928-1.962s-0.49-1.961 1.928-1.961c2.42 0 1.93 0.87 1.93 1.96z"/>
											<path d="m929.03 160.8c0 1.083-0.863 1.961-1.926 1.961-1.064 0-1.928-0.878-1.928-1.961 0-1.084-0.49-1.963 1.928-1.963 2.42 0 1.93 0.87 1.93 1.96z"/>
											<path d="m929.03 166.33c0 1.085-0.863 1.962-1.926 1.962-1.064 0-1.928-0.877-1.928-1.962 0-1.083-0.49-1.962 1.928-1.962 2.42 0 1.93 0.88 1.93 1.96z"/>
											<path d="m932.97 140.37c0 1.084-0.862 1.962-1.925 1.962-1.065 0-1.927-0.878-1.927-1.962s-0.491-1.962 1.927-1.962c2.42 0 1.93 0.88 1.93 1.96z"/>
											<path d="m932.97 145.91c0 1.084-0.862 1.962-1.925 1.962-1.065 0-1.927-0.878-1.927-1.962 0-1.083-0.491-1.962 1.927-1.962 2.42 0 1.93 0.87 1.93 1.96z"/>
											<path d="m932.97 151.97c0 1.083-0.862 1.961-1.925 1.961-1.065 0-1.927-0.878-1.927-1.961s-0.491-1.962 1.927-1.962c2.42 0 1.93 0.88 1.93 1.96z"/>
											<path d="m932.97 157.5c0 1.083-0.862 1.962-1.925 1.962-1.065 0-1.927-0.879-1.927-1.962 0-1.084-0.491-1.962 1.927-1.962 2.42 0 1.93 0.88 1.93 1.96z"/>
											<path d="m932.97 163.56c0 1.083-0.862 1.962-1.925 1.962-1.065 0-1.927-0.879-1.927-1.962 0-1.084-0.491-1.961 1.927-1.961 2.42 0 1.93 0.88 1.93 1.96z"/>
											<path d="m932.97 169.1c0 1.085-0.862 1.962-1.925 1.962-1.065 0-1.927-0.877-1.927-1.962 0-1.083-0.491-1.961 1.927-1.961 2.42 0 1.93 0.88 1.93 1.96z"/>
									</g>
			<rect y="133.55" x="881.86" height="32.267" width="4.428" fill="#1F323F"/>
			<rect y="133.55" x="932.41" height="32.267" width="4.428" fill="#1F323F"/>
			<rect y="165.82" x="880.07" height="3.201" width="58.131" fill="#1F323F"/>
			<rect y="188.72" x="886.51" height="1.123" width="13.292" fill="#414242"/>
			<rect y="188.72" x="902.7" height="1.123" width="13.292" fill="#414242"/>
			<rect y="188.72" x="918.89" height="1.123" width="13.292" fill="#414242"/>
			<rect y="219.35" x="886.11" height="1.123" width="13.292" fill="#414242"/>
			<rect y="219.35" x="902.3" height="1.123" width="13.292" fill="#414242"/>
			<rect y="219.35" x="918.49" height="1.123" width="13.292" fill="#414242"/>
					<path d="m884.55 200.23c0 0.801-0.739 1.45-1.653 1.45-0.913 0-1.652-0.649-1.652-1.45v-1.615l3.306 0.011c-0.01-0.01-0.01 0.8-0.01 1.6z" fill="#5C493B"/>
					<path d="m887.85 200.23c0 0.801-0.74 1.45-1.653 1.45-0.914 0-1.654-0.649-1.654-1.45v-1.615l3.307 0.011c-0.01-0.01-0.01 0.8-0.01 1.6z" fill="#A98341"/>
					<path d="m891.16 200.23c0 0.801-0.74 1.45-1.652 1.45-0.913 0-1.653-0.649-1.653-1.45v-1.615l3.306 0.011c-0.01-0.01-0.01 0.8-0.01 1.6z" fill="#5C493B"/>
					<path d="m894.47 200.23c0 0.801-0.741 1.45-1.653 1.45-0.914 0-1.654-0.649-1.654-1.45v-1.615l3.308 0.011c-0.01-0.01-0.01 0.8-0.01 1.6z" fill="#A98341"/>
					<path d="m897.77 200.23c0 0.801-0.74 1.45-1.653 1.45s-1.653-0.649-1.653-1.45v-1.615l3.306 0.011c-0.01-0.01-0.01 0.8-0.01 1.6z" fill="#5C493B"/>
					<path d="m901.08 200.23c0 0.801-0.74 1.45-1.654 1.45s-1.653-0.649-1.653-1.45v-1.615l3.307 0.011c-0.01-0.01-0.01 0.8-0.01 1.6z" fill="#A98341"/>
					<path d="m904.38 200.23c0 0.801-0.74 1.45-1.653 1.45-0.914 0-1.653-0.649-1.653-1.45v-1.615l3.306 0.011c-0.01-0.01-0.01 0.8-0.01 1.6z" fill="#5C493B"/>
					<path d="m907.69 200.23c0 0.801-0.74 1.45-1.653 1.45s-1.653-0.649-1.653-1.45c-0.001-0.242 0-1.615 0-1.615l3.307 0.011c-0.01-0.01-0.01 0.8-0.01 1.6z" fill="#A98341"/>
					<path d="m911 200.23c0 0.801-0.739 1.45-1.653 1.45-0.913 0-1.653-0.649-1.653-1.45v-1.615l3.306 0.011c-0.01-0.01-0.01 0.8-0.01 1.6z" fill="#5C493B"/>
					<path d="m914.3 200.23c0 0.801-0.74 1.45-1.654 1.45-0.913 0-1.653-0.649-1.653-1.45v-1.615l3.307 0.011c-0.01-0.01-0.01 0.8-0.01 1.6z" fill="#A98341"/>
					<path d="m917.61 200.23c0 0.801-0.741 1.45-1.653 1.45-0.914 0-1.654-0.649-1.654-1.45v-1.615l3.307 0.011c-0.01-0.01-0.01 0.8-0.01 1.6z" fill="#5C493B"/>
					<path d="m920.92 200.23c0 0.801-0.741 1.45-1.654 1.45s-1.652-0.649-1.652-1.45c-0.001-0.242 0-1.615 0-1.615l3.307 0.011c-0.01-0.01-0.01 0.8-0.01 1.6z" fill="#A98341"/>
					<path d="m924.22 200.23c0 0.801-0.741 1.45-1.654 1.45-0.914 0-1.653-0.649-1.653-1.45v-1.615l3.307 0.011c-0.01-0.01-0.01 0.8-0.01 1.6z" fill="#5C493B"/>
					<path d="m927.53 200.23c0 0.801-0.739 1.45-1.652 1.45s-1.653-0.649-1.653-1.45v-1.615l3.305 0.011c-0.01-0.01-0.01 0.8-0.01 1.6z" fill="#A98341"/>
					<path d="m930.84 200.23c0 0.801-0.74 1.45-1.653 1.45-0.915 0-1.654-0.649-1.654-1.45v-1.615l3.307 0.011c-0.01-0.01-0.01 0.8-0.01 1.6z" fill="#5C493B"/>
					<path d="m934.14 200.23c0 0.801-0.739 1.45-1.653 1.45-0.913 0-1.652-0.649-1.652-1.45v-1.615l3.306 0.011c-0.01-0.01-0.01 0.8-0.01 1.6z" fill="#A98341"/>
					<path d="m937.45 200.23c0 0.801-0.741 1.45-1.654 1.45s-1.654-0.649-1.654-1.45v-1.615l3.308 0.011c-0.01-0.01-0.01 0.8-0.01 1.6z" fill="#5C493B"/>
				<rect y="196.88" x="881.24" height="1.731" width="56.21" fill="#E1CFB5"/>
		<polygon points="845.54 231.54 782.32 231.54 782.32 171.78 813.58 128.25 845.54 171.78" fill="#C88B49"/>
			<g fill="#E1CFB5">
				<rect y="171.78" x="782.32" height="5.256" width="2.816"/>
				<rect y="177.81" x="782.32" height="5.255" width="4.79"/>
			</g>
			<g fill="#E1CFB5">
				<rect y="183.89" x="782.32" height="5.256" width="2.816"/>
				<rect y="189.93" x="782.32" height="5.254" width="4.79"/>
			</g>
				<rect y="202.05" x="782.32" height="5.255" width="4.79" fill="#E1CFB5"/>
			<g fill="#E1CFB5">
				<rect y="208.13" x="782.32" height="5.254" width="2.816"/>
				<rect y="214.16" x="782.32" height="5.256" width="4.79"/>
			</g>
				<rect y="220.25" x="782.32" height="5.254" width="2.816" fill="#E1CFB5"/>
			<g fill="#E1CFB5">
				<rect y="171.78" x="842.72" height="5.256" width="2.815"/>
				<rect y="177.81" x="840.75" height="5.255" width="4.79"/>
			</g>
			<g fill="#E1CFB5">
				<rect y="183.89" x="842.72" height="5.256" width="2.815"/>
				<rect y="189.93" x="840.75" height="5.254" width="4.79"/>
			</g>
			<g fill="#E1CFB5">
				<rect y="196.01" x="842.72" height="5.254" width="2.815"/>
				<rect y="202.05" x="840.75" height="5.255" width="4.79"/>
			</g>
			<g fill="#E1CFB5">
				<rect y="208.13" x="842.72" height="5.254" width="2.815"/>
				<rect y="214.16" x="840.75" height="5.256" width="4.79"/>
			</g>
				<rect y="220.25" x="842.72" height="5.254" width="2.815" fill="#E1CFB5"/>
			<path d="m818.46 151.72c-0.059-2.163-1.84-3.9-4.034-3.9s-3.975 1.737-4.034 3.9h-0.007v6.793h8.08v-6.793h-0.01z" fill="#9BBCC1"/>
			<path d="m818.96 159.01h-9.08l0.046-7.793c0.297-2.223 2.186-3.9 4.495-3.9s4.198 1.677 4.495 3.9h0.039l0.006 0.5-0.01 7.29zm-8.08-1h7.08l-0.006-6.279c-0.052-1.914-1.604-3.414-3.534-3.414s-3.481 1.5-3.534 3.414l-0.007 0.244v6.04z" fill="#414242"/>
					<path d="m801.84 176.33c-0.058-2.164-1.839-3.901-4.032-3.901-2.194 0-3.975 1.737-4.034 3.901h-0.006v12.118h8.079v-12.118h-0.01z" fill="#9BBCC1"/>
					<path d="m802.34 188.95h-9.079l0.045-13.118c0.296-2.223 2.185-3.901 4.495-3.901s4.198 1.678 4.494 3.901h0.039l0.007 0.5v12.62zm-8.07-1h7.079l-0.007-11.605c-0.051-1.915-1.603-3.414-3.532-3.414-1.93 0-3.482 1.5-3.534 3.415l-0.006 0.228v11.38z" fill="#414242"/>
					<path d="m837.15 175.78c-0.059-2.164-1.841-3.9-4.034-3.9-2.194 0-3.976 1.737-4.035 3.9h-0.006v12.119h8.08v-12.118z" fill="#9BBCC1"/>
					<path d="m837.66 188.4h-9.08l0.045-13.118c0.297-2.223 2.186-3.9 4.496-3.9 2.309 0 4.198 1.678 4.495 3.9h0.039l0.005 0.5v12.62zm-8.08-1h7.08l-0.005-11.604c-0.052-1.915-1.604-3.414-3.534-3.414s-3.482 1.5-3.535 3.414l-0.006 0.226v11.37h-0.01z" fill="#414242"/>
						<path d="m836.56 208.57c-0.059-2.163-1.841-3.9-4.034-3.9-2.194 0-3.975 1.737-4.034 3.9h-0.004v12.12h8.078v-12.12h-0.02z" fill="#9BBCC1"/>
						<path d="m837.06 221.19h-9.078l0.044-13.12c0.297-2.223 2.185-3.9 4.495-3.9 2.309 0 4.197 1.678 4.495 3.9h0.039l0.005 0.5v12.62zm-8.07-1h7.078l-0.005-11.606c-0.052-1.915-1.604-3.414-3.534-3.414s-3.482 1.499-3.534 3.414l-0.004 0.154-0.01 11.46z" fill="#414242"/>
						<path d="m824.68 208.57c-0.058-2.163-1.84-3.9-4.033-3.9s-3.975 1.737-4.034 3.9h-0.007v12.12h8.08v-12.12h-0.01z" fill="#9BBCC1"/>
						<path d="m825.19 221.19h-9.08l0.046-13.12c0.297-2.223 2.186-3.9 4.495-3.9 2.31 0 4.198 1.678 4.494 3.9h0.039l0.007 0.5-0.01 12.62zm-8.09-1h7.08l-0.007-11.606c-0.051-1.915-1.603-3.414-3.533-3.414-1.929 0-3.481 1.499-3.534 3.414l-0.007 0.244v11.37z" fill="#414242"/>
						<path d="m812.8 208.57c-0.06-2.163-1.84-3.9-4.034-3.9s-3.975 1.737-4.033 3.9h-0.007v12.12h8.079v-12.12h-0.01z" fill="#9BBCC1"/>
						<path d="m813.31 221.19h-9.079l0.046-13.12c0.296-2.223 2.184-3.9 4.494-3.9 2.309 0 4.197 1.678 4.495 3.9h0.039l0.006 0.5v12.62zm-8.08-1h7.079l-0.006-11.606c-0.053-1.915-1.605-3.414-3.534-3.414-1.93 0-3.482 1.499-3.533 3.414l-0.007 0.248v11.36z" fill="#414242"/>
						<path d="m800.92 208.57c-0.059-2.163-1.84-3.9-4.034-3.9-2.193 0-3.975 1.737-4.034 3.9h-0.006v12.12h8.079v-12.12h-0.01z" fill="#9BBCC1"/>
						<path d="m801.43 221.19h-9.079l0.045-13.12c0.297-2.223 2.186-3.9 4.495-3.9s4.198 1.678 4.495 3.9h0.039l0.006 0.5-0.02 12.62zm-8.08-1h7.079l-0.006-11.606c-0.052-1.915-1.604-3.414-3.534-3.414s-3.482 1.499-3.534 3.414l-0.006 0.208v11.4z" fill="#414242"/>
					<path d="m821.23 177.72c-0.088-3.239-3.641-5.839-6.925-5.839-3.282 0-6.601 2.6-6.689 5.839h-0.008v18.141h13.63v-18.141z" fill="#9BBCC1"/>
					<path d="m821.74 196.36h-14.63l0.044-19.141c0.382-3.163 3.596-5.839 7.153-5.839 3.268 0 6.974 2.465 7.388 5.839h0.037l0.008 0.5v18.64zm-13.63-1h12.63l-0.008-17.627c-0.082-3.015-3.521-5.353-6.425-5.353-2.853 0-6.105 2.289-6.189 5.353l-0.008 0.297v17.33h0.01z" fill="#414242"/>
					<g fill="#66431C">
						<rect y="185.9" x="835.55" height="9.837" width="1.27"/>
						<rect y="185.9" x="832.85" height="9.837" width=".81"/>
						<rect y="185.9" x="830.15" height="9.837" width=".811"/>
						<rect y="185.9" x="827.45" height="9.837" width=".81"/>
						<rect y="185.9" x="824.75" height="9.837" width=".809"/>
						<rect y="185.9" x="822.05" height="9.837" width=".811"/>
						<rect y="185.9" x="819.35" height="9.837" width=".811"/>
						<rect y="185.9" x="816.65" height="9.837" width=".81"/>
						<rect y="185.9" x="813.95" height="9.837" width=".81"/>
						<rect y="185.9" x="811.25" height="9.837" width=".81"/>
						<rect y="185.9" x="808.55" height="9.837" width=".811"/>
						<rect y="185.9" x="805.85" height="9.837" width=".811"/>
						<rect y="185.9" x="803.15" height="9.837" width=".809"/>
						<rect y="185.9" x="800.45" height="9.837" width=".811"/>
						<rect y="185.9" x="797.75" height="9.837" width=".811"/>
						<rect y="185.9" x="795.05" height="9.837" width=".809"/>
						<rect y="185.9" x="791.89" height="9.837" width="1.267"/>
					</g>
					<rect y="195.18" x="790.54" height="1.585" width="47.638" fill="#66431C"/>
					<rect y="185.69" x="790.54" height=".83" width="47.638" fill="#66431C"/>
		<polygon points="780.4 174.4 770.58 174.4 814.03 118.18 857.32 174.36 847.39 174.41 813.82 130.17" fill="#66431C"/>
		<rect y="196.01" x="782.32" height="5.254" width="63.219" fill="#66431C"/>
		<polyline points="782.32 231.54 782.32 226.13 845.54 226.13 845.54 231.54" fill="#E1CFB5"/>
			<rect y="122.03" x="1197.3" height="11.677" width="7.949" fill="#3F5628"/>
					<rect y="144.04" x="1140.7" height="98.324" width="79.113" fill="#89906C"/>
						<rect y="193.29" x="1141.1" height="1.893" width="78.984" fill="#242122"/>
						<rect y="195.18" x="1141.1" height="1.891" width="78.984" fill="#414242"/>
									<polygon points="1151 162.66 1151 154.19 1158.1 154.19 1158.1 162.66" fill="#9BBCC1"/>
									<polygon points="1160.5 162.66 1160.5 154.19 1167.6 154.19 1167.6 162.66" fill="#9BBCC1"/>
									<path d="m1149.4 152.84v10.556h19.922v-10.556h-19.9zm8.7 9.82h-7.07v-8.468h7.07v8.465zm9.5 0h-7.061v-8.468h7.061v8.465z" fill="#414242"/>
									<polygon points="1151 172.62 1151 164.15 1158.1 164.15 1158.1 172.62" fill="#9BBCC1"/>
									<polygon points="1160.5 172.62 1160.5 164.15 1167.6 164.15 1167.6 172.62" fill="#9BBCC1"/>
									<path d="m1149.4 163.4v9.961h19.922v-9.961h-19.9zm8.7 9.22h-7.07v-8.467h7.07v8.464zm9.5 0h-7.061v-8.467h7.061v8.464z" fill="#414242"/>
									<polygon points="1151 182.57 1151 174.11 1158.1 174.11 1158.1 182.57" fill="#9BBCC1"/>
									<polygon points="1160.5 182.57 1160.5 174.11 1167.6 174.11 1167.6 182.57" fill="#9BBCC1"/>
									<path d="m1149.4 173.36v10.555h19.922v-10.555h-19.9zm8.7 9.21h-7.07v-8.466h7.07v8.475zm9.5 0h-7.061v-8.466h7.061v8.475z" fill="#414242"/>
							<polygon points="1145.8 186.01 1145.8 183.98 1171.6 183.98 1171.6 186.01" fill="#414242"/>
								<polygon points="1191.1 162.66 1191.1 154.19 1198.2 154.19 1198.2 162.66" fill="#9BBCC1"/>
								<polygon points="1200.6 162.66 1200.6 154.19 1207.7 154.19 1207.7 162.66" fill="#9BBCC1"/>
								<path d="m1189.5 152.84v10.556h19.92v-10.556h-19.9zm8.7 9.82h-7.068v-8.468h7.068v8.465zm9.5 0h-7.063v-8.468h7.063v8.465z" fill="#414242"/>
								<polygon points="1191.1 172.62 1191.1 164.15 1198.2 164.15 1198.2 172.62" fill="#9BBCC1"/>
								<polygon points="1200.6 172.62 1200.6 164.15 1207.7 164.15 1207.7 172.62" fill="#9BBCC1"/>
								<path d="m1189.5 163.4v9.961h19.92v-9.961h-19.9zm8.7 9.22h-7.068v-8.467h7.068v8.464zm9.5 0h-7.063v-8.467h7.063v8.464z" fill="#414242"/>
								<polygon points="1191.1 182.57 1191.1 174.11 1198.2 174.11 1198.2 182.57" fill="#9BBCC1"/>
								<polygon points="1200.6 182.57 1200.6 174.11 1207.7 174.11 1207.7 182.57" fill="#9BBCC1"/>
								<path d="m1189.5 173.36v10.555h19.92v-10.555h-19.9zm8.7 9.21h-7.068v-8.466h7.068v8.475zm9.5 0h-7.063v-8.466h7.063v8.475z" fill="#414242"/>
							<polygon points="1185.9 186.01 1185.9 183.98 1211.7 183.98 1211.7 186.01" fill="#414242"/>
						<polygon points="1181.5 211.82 1178.9 211.82 1155.2 211.82 1155.2 212.86 1155.2 235.75 1155.2 236.79 1156.7 236.79 1178.9 236.79 1180.4 236.79 1181.5 236.79 1205.3 236.79 1205.3 235.75 1205.3 213.36 1205.3 212.86 1205.3 211.82" fill="#414242"/>
						<polygon points="1176.9 213.5 1172.6 213.5 1157.4 213.5 1157.4 234.94 1172.6 234.94 1176.9 234.94 1183.6 234.94 1203 234.94 1203 213.5" fill="#9BBCC1"/>
						<polygon points="1155.2 211.82 1155.2 212.79 1155.2 236.88 1157.5 234.77 1157.5 213.65 1202.9 213.65 1205.3 211.82" fill="#414242"/>
					<polygon opacity=".5" enable-background="new    " points="1152.3 220.1 1152.3 223.01 1160.3 223.01 1160.4 223.01 1168.2 223.01 1168.3 223.01 1176.2 223.01 1176.3 223.01 1184.2 223.01 1184.2 223.01 1192.1 223.01 1192.2 223.01 1200.1 223.01 1200.1 223.01 1208.1 223.01 1208.1 220.1" fill="#CACAC9"/>
						<rect y="207.16" x="1152.3" height="12.856" width="8.016" fill="#C1A456"/>
						<rect y="205.82" x="1152.3" height="11.271" width="8.016" fill="#D5B35E"/>
						<rect y="207.16" x="1160.3" height="12.856" width="8.016" fill="#D3CCAF"/>
						<rect y="205.82" x="1160.3" height="11.271" width="8.016" fill="#fff"/>
						<rect y="207.16" x="1168.2" height="12.856" width="8.018" fill="#C1A456"/>
						<rect y="205.82" x="1168.2" height="11.271" width="8.018" fill="#D5B35E"/>
						<rect y="207.16" x="1176.2" height="12.856" width="8.012" fill="#D3CCAF"/>
						<rect y="205.82" x="1176.2" height="11.271" width="8.012" fill="#fff"/>
						<rect y="207.16" x="1184.2" height="12.856" width="8.021" fill="#C1A456"/>
						<rect y="205.82" x="1184.2" height="11.271" width="8.021" fill="#D5B35E"/>
						<rect y="207.16" x="1192.1" height="12.856" width="8.02" fill="#D3CCAF"/>
						<rect y="205.82" x="1192.1" height="11.271" width="8.02" fill="#fff"/>
						<rect y="207.16" x="1200.1" height="12.856" width="8.021" fill="#C1A456"/>
						<rect y="205.82" x="1200.1" height="11.271" width="8.021" fill="#D5B35E"/>
					<g fill="#526763">
						<polygon points="1172.1 232.57 1178.8 232.57 1178.8 235.02 1181 235.02 1181 232.57 1187.8 232.57 1187.8 230.6 1172.1 230.6"/>
						<rect y="224.58" x="1192.9" height="10.439" width="1.4"/>
						<rect y="224.58" x="1165.5" height="10.439" width="1.398"/>
					</g>
						<rect y="140.78" x="1140.7" height="3.395" width="79.115" fill="#3F5628"/>
						<polygon points="1219.8 140.78 1140.7 140.78 1146.8 130.33 1213.6 130.33" fill="#597038"/>
		<rect y="236.88" x="1140.6" height="5.482" width="79.161" fill="#D3CCAF"/>
			<polygon points="1304.3 250.83 1247.4 250.83 1247.4 202.7 1275.5 166.77 1304.3 202.7" fill="#C88B49"/>
			<rect y="245.97" x="1247.4" height="4.862" width="56.815" fill="#D3CCAF"/>
						<rect y="230.57" x="1255.8" height="9.41" width="9.067" fill="#9BBCC1"/>
						<path d="m1265.3 240.48h-10.067v-10.41h10.067v10.41zm-9-1h8.067v-8.41h-8.067v8.41z" fill="#414242"/>
						<rect y="230.57" x="1287.6" height="9.41" width="9.066" fill="#9BBCC1"/>
						<path d="m1297.2 240.48h-10.066v-10.41h10.066v10.41zm-9.1-1h8.066v-8.41h-8.066v8.41z" fill="#414242"/>
			<circle cy="188.04" cx="1276" r="3.789" fill="#9BBCC1"/>
			<path d="m1276 192.33c-2.365 0-4.29-1.924-4.29-4.29 0-2.365 1.925-4.289 4.29-4.289 2.364 0 4.288 1.924 4.288 4.289 0 2.36-1.9 4.29-4.3 4.29zm0-7.58c-1.814 0-3.29 1.475-3.29 3.289s1.476 3.29 3.29 3.29c1.813 0 3.288-1.476 3.288-3.29s-1.4-3.29-3.3-3.29z" fill="#414242"/>
					<rect y="206.01" x="1253" height="10.297" width="9.921" fill="#9BBCC1"/>
					<path d="m1263.4 216.81h-10.921v-11.297h10.921v11.3zm-9.9-1h8.921v-9.297h-8.921v9.3z" fill="#414242"/>
					<rect y="206.01" x="1277.7" height="10.297" width="9.921" fill="#9BBCC1"/>
					<path d="m1288.1 216.81h-10.921v-11.297h10.921v11.3zm-9.9-1h8.921v-9.297h-8.921v9.3z" fill="#414242"/>
					<rect y="206.01" x="1290" height="10.297" width="9.921" fill="#9BBCC1"/>
					<path d="m1300.5 216.81h-10.921v-11.297h10.921v11.3zm-10-1h8.921v-9.297h-8.921v9.3z" fill="#414242"/>
					<rect y="206.01" x="1265.3" height="10.297" width="9.921" fill="#9BBCC1"/>
					<path d="m1275.7 216.81h-10.921v-11.297h10.921v11.3zm-9.9-1h8.921v-9.297h-8.921v9.3z" fill="#414242"/>
		<polygon points="1248.9 245.97 1247.4 245.97 1247.4 202.7 1248.9 200.84" fill="#D3CCAF"/>
		<polygon points="1304.3 245.97 1302.9 245.97 1302.9 200.84 1304.3 202.97" fill="#D3CCAF"/>
		<rect y="221.54" x="1248.3" height="1.843" width="54.705" fill="#66431C"/>
		<polygon points="1245.7 205.06 1236.9 205.06 1275.9 157.72 1314.9 205.03 1305.9 205.07 1275.8 168.5" fill="#66431C"/>
		<path d="m1281.9 235.97c0-3.662-2.969-6.63-6.631-6.63s-6.631 2.969-6.631 6.63v14.954h13.262v-14.95z" fill="#66431C"/>
		<rect y="147.6" x="961.49" height="87.768" width="93.568" fill="#89906C"/>
			<rect y="128.94" x="1018.2" height="9.907" width="8.682" fill="#3F5628"/>
			<polygon points="961.54 147.51 1055 147.51 1044.5 137.27 970.74 137.27" fill="#597038"/>
					<rect y="159.91" x="974.29" height="28.479" width="10.87" fill="#9BBCC1"/>
					<path d="m985.66 188.89h-11.87v-29.479h11.87v29.48zm-10.87-1h9.87v-27.479h-9.87v27.48z" fill="#414242"/>
				<rect y="153.84" x="979.49" height="34.885" width=".819" fill="#414242"/>
				<rect y="172.52" x="974.22" height=".465" width="12.153" fill="#414242"/>
				<rect y="180.92" x="974.22" height=".466" width="12.153" fill="#414242"/>
				<path d="m971.23 165.04h17.141s1.01-9.232-8.066-10.386c0.01 0.01-8.06 0.39-9.07 10.39z" fill="#fff"/>
				<path d="m980.31 154.66s-5.81 0.113-6.22 10.386h2.856c-0.01-0.01-0.21-8.51 3.36-10.39z" fill="#C88B49"/>
				<path d="m979.9 154.66s4.709 0.113 4.996 10.386h-2.624c-0.01-0.01 0.14-8.51-2.38-10.39z" fill="#C88B49"/>
					<rect y="159.91" x="1003.1" height="28.479" width="10.867" fill="#9BBCC1"/>
					<path d="m1014.4 188.89h-11.867v-29.479h11.867v29.48zm-10.8-1h9.867v-27.479h-9.867v27.48z" fill="#414242"/>
				<rect y="153.84" x="1008.3" height="34.546" width=".814" fill="#414242"/>
				<rect y="172.52" x="1003.1" height=".465" width="10.828" fill="#414242"/>
				<rect y="180.92" x="1003.1" height=".466" width="10.828" fill="#414242"/>
				<path d="m999.69 165.04h17.143s1.01-9.232-8.064-10.386c0.1 0.01-8 0.39-9.01 10.39z" fill="#fff"/>
				<path d="m1009 154.66s-5.813 0.113-6.222 10.386h2.854c-0.1-0.01-0.3-8.51 3.3-10.39z" fill="#C88B49"/>
				<path d="m1008.6 154.66s4.708 0.113 4.998 10.386h-2.625c-0.1-0.01 0.1-8.51-2.4-10.39z" fill="#C88B49"/>
					<rect y="159.91" x="1031.4" height="28.479" width="10.868" fill="#9BBCC1"/>
					<path d="m1042.7 188.89h-11.868v-29.479h11.868v29.48zm-10.8-1h9.868v-27.479h-9.868v27.48z" fill="#414242"/>
				<rect y="153.84" x="1036.4" height="34.546" width=".813" fill="#414242"/>
				<rect y="172.52" x="1031.4" height=".465" width="10.662" fill="#414242"/>
				<rect y="180.92" x="1031.4" height=".466" width="10.662" fill="#414242"/>
				<path d="m1028.1 165.04h17.139s1.009-9.232-8.062-10.386c0.1 0.01-7.9 0.39-9 10.39z" fill="#fff"/>
				<path d="m1037.4 154.66s-5.811 0.113-6.216 10.386h2.854c0-0.01-0.2-8.51 3.3-10.39z" fill="#C88B49"/>
				<path d="m1037 154.66s4.708 0.113 4.996 10.386h-2.627c0-0.01 0.1-8.51-2.4-10.39z" fill="#C88B49"/>
			<path d="m1008.3 209.64h-31.071v25.724h62.142v-25.72h-31z" fill="#E9DEC4"/>
			<g fill="#9BBCC1">
				<rect y="211.15" x="979.19" height="16.201" width="27.765"/>
				<rect y="211.15" x="1008.3" height="16.201" width="28.431"/>
			</g>
			<rect opacity=".5" height="5.5" width="62.333" y="214.56" x="977.18" enable-background="new    " fill="#CACAC9"/>
				<rect y="200.2" x="975.92" height="14.922" width="9.305" fill="#B48043"/>
				<rect y="198.65" x="975.92" height="13.084" width="9.305" fill="#C88B49"/>
				<rect y="200.2" x="985.15" height="14.922" width="9.309" fill="#D3CCAF"/>
				<rect y="198.65" x="985.15" height="13.084" width="9.309" fill="#fff"/>
				<rect y="200.2" x="994.39" height="14.922" width="9.307" fill="#B48043"/>
				<rect y="198.65" x="994.39" height="13.084" width="9.307" fill="#C88B49"/>
				<rect y="200.2" x="1003.6" height="14.922" width="9.303" fill="#D3CCAF"/>
				<rect y="198.65" x="1003.6" height="13.084" width="9.303" fill="#fff"/>
				<rect y="200.2" x="1012.9" height="14.922" width="9.311" fill="#B48043"/>
				<rect y="198.65" x="1012.9" height="13.084" width="9.311" fill="#C88B49"/>
				<rect y="200.2" x="1022.1" height="14.922" width="9.31" fill="#D3CCAF"/>
				<rect y="198.65" x="1022.1" height="13.084" width="9.31" fill="#fff"/>
				<rect y="200.2" x="1031.3" height="14.922" width="9.313" fill="#B48043"/>
				<rect y="198.65" x="1031.3" height="13.084" width="9.313" fill="#C88B49"/>
			<polygon points="861.25 173.47 865.76 173.47 867.46 163.47 859.54 163.47" fill="#fff"/>
			<path d="m867.34 162.95l-3.086-2.787v-1.807h-1.449v1.807l-3.082 2.787h-1.766v0.98h1.279l1.74 9.881v0.035h1.533v41.193h-1.533v15.32h5.107v-15.32h-1.531v-41.18h1.531v-0.035l1.744-9.881h1.279v-0.98h-1.76v-0.01zm-6.07 9.54l-1.51-8.555h3.52v8.555h-2.01zm4.53 0h-2.014v-8.555h3.52l-1.51 8.55z" fill="#414242"/>
			<polygon points="983.72 178.47 988.24 178.47 989.94 168.47 982.02 168.47" fill="#fff"/>
			<path d="m989.82 167.95l-3.086-2.787v-1.807h-1.449v1.807l-3.082 2.787h-1.766v0.98h1.279l1.74 9.881v0.035h1.533v41.193h-1.533v15.32h5.107v-15.32h-1.531v-41.18h1.531v-0.035l1.744-9.881h1.279v-0.98h-1.76v-0.01zm-6.08 9.54l-1.51-8.555h3.52v8.555h-2.01zm4.54 0h-2.014v-8.555h3.519l-1.51 8.55z" fill="#414242"/>
			<polygon points="1106.2 181.47 1110.7 181.47 1112.4 171.47 1104.5 171.47" fill="#fff"/>
			<path d="m1112.3 170.95l-3.086-2.787v-1.807h-1.449v1.807l-3.082 2.787h-1.766v0.98h1.279l1.74 9.881v0.035h1.533v41.193h-1.533v15.32h5.107v-15.32h-1.531v-41.18h1.531v-0.035l1.744-9.881h1.279v-0.98h-1.7v-0.01zm-6.1 9.54l-1.51-8.555h3.52v8.555h-2zm4.5 0h-2.014v-8.555h3.519l-1.5 8.55z" fill="#414242"/>
			<polygon points="1228.7 186.47 1233.2 186.47 1234.9 176.47 1227 176.47" fill="#fff"/>
			<path d="m1234.8 175.95l-3.086-2.787v-1.807h-1.449v1.807l-3.082 2.787h-1.766v0.98h1.279l1.74 9.881v0.035h1.533v41.193h-1.533v15.32h5.107v-15.32h-1.531v-41.18h1.531v-0.035l1.744-9.881h1.279v-0.98h-1.7v-0.01zm-6.1 9.54l-1.51-8.555h3.52v8.555h-2zm4.5 0h-2.014v-8.555h3.52l-1.5 8.55z" fill="#414242"/>
			<polygon points="1351.1 194.47 1355.6 194.47 1357.3 184.47 1349.4 184.47" fill="#fff"/>
			<path d="m1357.2 183.95l-3.086-2.787v-1.807h-1.449v1.807l-3.082 2.787h-1.766v0.98h1.279l1.74 9.881v0.035h1.533v41.193h-1.533v15.32h5.107v-15.32h-1.531v-41.18h1.531v-0.035l1.744-9.881h1.279v-0.98h-1.7v-0.01zm-6.1 9.54l-1.51-8.555h3.52v8.555h-2zm4.6 0h-2.014v-8.555h3.52l-1.5 8.55z" fill="#414242"/>
		<g fill="#414242">
			<rect y="231.15" x="946.39" height="3.773" width="2.594"/>
			<rect y="231.15" x="954.64" height="3.773" width="2.595"/>
		</g>
			<rect y="209.92" x="943.09" height="21.934" width="17.453" fill="#414242"/>
			<rect y="212.57" x="945.74" height="16.633" width="12.151" fill="#E9DEC4"/>
			<g id="sample_text_10_" fill="#ADA793">
				<rect y="215.16" x="947.33" height=".9" width="8.955"/>
				<rect y="217.91" x="947.33" height=".9" width="8.955"/>
				<rect y="220.66" x="947.33" height=".9" width="8.955"/>
				<rect y="223.42" x="947.33" height=".9" width="8.955"/>
			</g>
		<rect y="236.74" x="1333.3" height="13.752" width="2.476" fill="#67452D"/>
		<path d="m1334.5 205.07c-5.391 0-9.761 4.372-9.761 9.763v14.588c0 5.395 4.37 9.76 9.761 9.76 5.393 0 9.759-4.365 9.759-9.76v-14.588c0-5.39-4.4-9.76-9.8-9.76z" fill="#878742"/>
</g>
</svg>
