<?xml version="1.0" encoding="UTF-8" standalone="no"?>
<!-- Generator: Adobe Illustrator 17.0.0, SVG Export Plug-In . SVG Version: 6.00 Build 0)  -->
<!DOCTYPE svg  PUBLIC '-//W3C//DTD SVG 1.1//EN'  'http://www.w3.org/Graphics/SVG/1.1/DTD/svg11.dtd'>
<svg id="Capa_1" xmlns="http://www.w3.org/2000/svg" xml:space="preserve" height="375px" viewBox="0 0 1100 375" width="1100px" version="1.1" y="0px" x="0px" xmlns:xlink="http://www.w3.org/1999/xlink" enable-background="new 0 0 1100 375">
<g id="montañas">
							<defs>
								<polygon id="SVGID_1_" points="54.567 319.35 120.01 177.91 185.46 319.35"/>
							</defs>
							<clipPath id="SVGID_2_">
								<use overflow="visible" xlink:href="#SVGID_1_"/>
							</clipPath>
							<g clip-path="url(#SVGID_2_)">
								<polygon points="54.567 319.35 120.01 319.35 120.01 177.91" fill="#8F7D77"/>
								<polygon points="120.01 177.91 120.01 319.35 185.46 319.35" fill="#7B6C67"/>
							</g>
							<defs>
								<polygon id="SVGID_3_" points="54.567 319.35 120.01 177.91 185.46 319.35"/>
							</defs>
							<clipPath id="SVGID_4_">
								<use overflow="visible" xlink:href="#SVGID_3_"/>
							</clipPath>
							<g clip-path="url(#SVGID_4_)">
								<path d="m90.298 232.25c0.382 5.058 4.341 8.812 8.841 8.384 1.657-0.159 3.153-0.863 4.368-1.94 0.9 4.387 4.545 7.48 8.652 7.088 2.909-0.278 5.325-2.237 6.575-4.951 0.374 0.557 0.806 1.055 1.279 1.502v-64.419c-3.78 0.36-30.103 49.28-29.722 54.34z" fill="#E3E3E1"/>
								<path d="m148.64 230.6c-0.38-5.058-24.13-53.113-28.632-52.685v64.419c1.597 1.512 3.697 2.35 5.941 2.137 3.775-0.359 6.721-3.546 7.356-7.547 1.646 1.857 3.982 2.917 6.488 2.679 4.5-0.44 9.22-3.95 8.84-9.01z" fill="#C9C7C7"/>
							</g>
							<defs>
								<polygon id="SVGID_5_" points="260.14 301.48 313.41 186.34 366.69 301.48"/>
							</defs>
							<clipPath id="SVGID_6_">
								<use overflow="visible" xlink:href="#SVGID_5_"/>
							</clipPath>
							<g clip-path="url(#SVGID_6_)">
								<polygon points="260.14 301.48 313.41 301.48 313.41 186.34" fill="#8F7D77"/>
								<polygon points="313.41 186.34 313.41 301.48 366.69 301.48" fill="#7B6C67"/>
							</g>
							<defs>
								<polygon id="SVGID_7_" points="260.14 301.48 313.41 186.34 366.69 301.48"/>
							</defs>
							<clipPath id="SVGID_8_">
								<use overflow="visible" xlink:href="#SVGID_7_"/>
							</clipPath>
							<g clip-path="url(#SVGID_8_)">
								<path d="m289.22 230.58c0.312 4.117 3.535 7.174 7.198 6.827 1.349-0.129 2.568-0.703 3.556-1.58 0.733 3.571 3.7 6.089 7.043 5.77 2.368-0.227 4.335-1.822 5.352-4.032 0.305 0.452 0.656 0.86 1.041 1.222v-52.443c-3.07 0.28-24.5 40.11-24.19 44.23z" fill="#E3E3E1"/>
								<path d="m336.72 229.23c-0.31-4.117-19.644-43.239-23.309-42.888v52.443c1.299 1.231 3.01 1.913 4.837 1.74 3.072-0.291 5.474-2.886 5.99-6.144 1.339 1.512 3.242 2.375 5.281 2.183 3.67-0.35 7.51-3.21 7.2-7.33z" fill="#C9C7C7"/>
							</g>
							<defs>
								<polygon id="SVGID_9_" points="187.47 306.84 252.91 165.41 318.36 306.84"/>
							</defs>
							<clipPath id="SVGID_10_">
								<use overflow="visible" xlink:href="#SVGID_9_"/>
							</clipPath>
							<g clip-path="url(#SVGID_10_)">
								<polygon points="187.47 306.84 252.91 306.84 252.91 165.41" fill="#8F7D77"/>
								<polygon points="252.91 165.41 252.91 306.84 318.36 306.84" fill="#7B6C67"/>
							</g>
							<defs>
								<polygon id="SVGID_11_" points="187.47 306.84 252.91 165.41 318.36 306.84"/>
							</defs>
							<clipPath id="SVGID_12_">
								<use overflow="visible" xlink:href="#SVGID_11_"/>
							</clipPath>
							<g clip-path="url(#SVGID_12_)">
								<path d="m223.2 219.74c0.382 5.058 4.341 8.812 8.841 8.384 1.657-0.159 3.153-0.863 4.368-1.94 0.9 4.387 4.545 7.48 8.652 7.088 2.909-0.278 5.325-2.238 6.575-4.951 0.374 0.557 0.806 1.055 1.279 1.502v-64.42c-3.78 0.36-30.1 49.28-29.72 54.34z" fill="#E3E3E1"/>
								<path d="m281.54 218.09c-0.38-5.058-24.13-53.113-28.632-52.685v64.419c1.597 1.512 3.697 2.35 5.941 2.137 3.775-0.359 6.721-3.546 7.356-7.547 1.646 1.857 3.982 2.917 6.488 2.679 4.5-0.43 9.22-3.94 8.84-9z" fill="#C9C7C7"/>
							</g>
							<defs>
								<polygon id="SVGID_13_" points="105.16 314.88 185.21 141.87 265.26 314.88"/>
							</defs>
							<clipPath id="SVGID_14_">
								<use overflow="visible" xlink:href="#SVGID_13_"/>
							</clipPath>
							<g clip-path="url(#SVGID_14_)">
								<polygon points="105.16 314.88 185.21 314.88 185.21 141.87" fill="#A7928C"/>
								<polygon points="185.21 141.87 185.21 314.88 265.26 314.88" fill="#8E817E"/>
							</g>
							<defs>
								<polygon id="SVGID_15_" points="105.16 314.88 185.21 141.87 265.26 314.88"/>
							</defs>
							<clipPath id="SVGID_16_">
								<use overflow="visible" xlink:href="#SVGID_15_"/>
							</clipPath>
							<g clip-path="url(#SVGID_16_)">
								<path d="m148.86 208.34c0.468 6.187 5.31 10.778 10.816 10.255 2.026-0.195 3.857-1.057 5.343-2.374 1.1 5.367 5.56 9.149 10.582 8.671 3.557-0.339 6.513-2.737 8.041-6.056 0.457 0.681 0.988 1.29 1.564 1.836v-78.799c-4.61 0.43-36.8 60.27-36.34 66.46z" fill="#fff"/>
								<path d="m220.23 206.32c-0.468-6.188-29.516-64.97-35.023-64.447v78.799c1.953 1.851 4.521 2.874 7.268 2.615 4.616-0.44 8.221-4.34 8.996-9.232 2.012 2.272 4.87 3.568 7.937 3.278 5.5-0.52 11.28-4.82 10.81-11.01z" fill="#E0E0DF"/>
							</g>
							<defs>
								<polygon id="SVGID_17_" points="302.29 304.16 382.35 131.15 462.4 304.16"/>
							</defs>
							<clipPath id="SVGID_18_">
								<use overflow="visible" xlink:href="#SVGID_17_"/>
							</clipPath>
							<g clip-path="url(#SVGID_18_)">
								<polygon points="302.29 304.16 382.35 304.16 382.35 131.15" fill="#A7928C"/>
								<polygon points="382.35 131.15 382.35 304.16 462.4 304.16" fill="#8E817E"/>
							</g>
							<defs>
								<polygon id="SVGID_19_" points="302.29 304.16 382.35 131.15 462.4 304.16"/>
							</defs>
							<clipPath id="SVGID_20_">
								<use overflow="visible" xlink:href="#SVGID_19_"/>
							</clipPath>
							<g clip-path="url(#SVGID_20_)">
								<path d="m346 197.62c0.466 6.187 5.31 10.778 10.816 10.255 2.026-0.195 3.858-1.057 5.343-2.374 1.1 5.367 5.559 9.149 10.582 8.671 3.557-0.339 6.513-2.737 8.041-6.056 0.457 0.681 0.988 1.29 1.564 1.836v-78.798c-4.61 0.43-36.81 60.27-36.34 66.46z" fill="#fff"/>
								<path d="m417.37 195.6c-0.468-6.188-29.517-64.97-35.024-64.447v78.799c1.953 1.851 4.521 2.874 7.268 2.615 4.616-0.44 8.221-4.34 8.996-9.232 2.012 2.272 4.87 3.568 7.937 3.278 5.49-0.52 11.28-4.82 10.81-11.01z" fill="#E0E0DF"/>
							</g>
</g>
<g id="arboles">
		<rect y="277.47" x="194.75" height="12.36" width="2.224" fill="#65442C"/>
		<path d="m195.86 249.01c-4.843 0-8.772 3.929-8.772 8.774v13.111c0 4.848 3.929 8.772 8.772 8.772 4.847 0 8.772-3.924 8.772-8.772v-13.111c0-4.84-3.92-8.77-8.77-8.77z" fill="#64704C"/>
		<rect y="276.93" x="239.52" height="11.375" width="2.048" fill="#65442C"/>
		<path d="m240.55 250.73c-4.458 0-8.074 3.615-8.074 8.074v12.066c0 4.46 3.616 8.072 8.074 8.072 4.46 0 8.072-3.611 8.072-8.072v-12.066c0-4.45-3.61-8.07-8.07-8.07z" fill="#64704C"/>
		<rect y="275.75" x="350.08" height="11.375" width="2.046" fill="#65442C"/>
		<path d="m351.1 249.56c-4.458 0-8.074 3.616-8.074 8.075v12.066c0 4.462 3.616 8.072 8.074 8.072 4.46 0 8.072-3.61 8.072-8.072v-12.066c0.01-4.46-3.61-8.08-8.07-8.08z" fill="#64704C"/>
		<rect y="275.75" x="375.38" height="11.375" width="2.047" fill="#65442C"/>
		<path d="m376.4 249.56c-4.457 0-8.073 3.616-8.073 8.075v12.066c0 4.462 3.616 8.072 8.073 8.072 4.461 0 8.072-3.61 8.072-8.072v-12.066c0.01-4.46-3.6-8.08-8.07-8.08z" fill="#64704C"/>
		<rect y="279.2" x="220.51" height="12.404" width="2.444" fill="#65442C"/>
		<polygon points="221.73 239.99 209.87 280.18 221.73 280.18 233.59 280.18" fill="#64704C"/>
		<rect y="275.81" x="264.34" height="10.887" width="2.145" fill="#65442C"/>
		<polygon points="265.42 241.39 255.01 276.66 265.42 276.66 275.83 276.66" fill="#64704C"/>
		<rect y="275.4" x="321.31" height="10.127" width="1.996" fill="#65442C"/>
		<polygon points="322.31 243.39 312.63 276.19 322.31 276.19 331.99 276.19" fill="#64704C"/>
		<rect y="274.78" x="275.75" height="12.359" width="2.225" fill="#65442C"/>
		<path d="m276.86 246.32c-4.843 0-8.772 3.928-8.772 8.774v13.11c0 4.849 3.929 8.771 8.772 8.771 4.849 0 8.773-3.923 8.773-8.771v-13.111c0-4.85-3.92-8.77-8.77-8.77z" fill="#838342"/>
		<rect y="276.34" x="229.39" height="12.36" width="2.225" fill="#65442C"/>
		<path d="m230.5 247.88c-4.844 0-8.773 3.93-8.773 8.776v13.111c0 4.848 3.929 8.772 8.773 8.772 4.847 0 8.772-3.924 8.772-8.772v-13.111c0-4.85-3.92-8.78-8.77-8.78z" fill="#838342"/>
		<rect y="279.94" x="184.74" height="12.36" width="2.225" fill="#65442C"/>
		<path d="m185.86 251.48c-4.845 0-8.773 3.93-8.773 8.776v13.111c0 4.848 3.928 8.772 8.773 8.772 4.847 0 8.772-3.924 8.772-8.772v-13.111c0-4.85-3.93-8.78-8.77-8.78z" fill="#838342"/>
		<rect y="286.26" x="53.504" height="12.36" width="2.225" fill="#65442C"/>
		<path d="m54.616 257.8c-4.845 0-8.773 3.93-8.773 8.776v13.111c0 4.848 3.928 8.772 8.773 8.772 4.847 0 8.772-3.924 8.772-8.772v-13.111c0-4.85-3.924-8.78-8.772-8.78z" fill="#838342"/>
		<rect y="276.23" x="249.57" height="12.404" width="2.444" fill="#65442C"/>
		<polygon points="250.79 237.02 238.93 277.2 250.79 277.2 262.65 277.2" fill="#838342"/>
		<rect y="273.59" x="308.12" height="12.404" width="2.445" fill="#65442C"/>
		<polygon points="309.35 234.38 297.49 274.56 309.35 274.56 321.21 274.56" fill="#838342"/>
		<rect y="273.59" x="336.61" height="12.404" width="2.444" fill="#65442C"/>
		<polygon points="337.84 234.38 325.98 274.56 337.84 274.56 349.7 274.56" fill="#838342"/>
		<rect y="274.15" x="361.75" height="11.403" width="2.248" fill="#65442C"/>
		<polygon points="362.88 238.1 351.98 275.04 362.88 275.04 373.78 275.04" fill="#838342"/>
		<rect y="277.06" x="207.61" height="12.404" width="2.444" fill="#65442C"/>
		<polygon points="208.83 237.85 196.97 278.04 208.83 278.04 220.69 278.04" fill="#838342"/>
</g>
<g id="pisos">
				<rect y="208.21" x="797.47" height="86.955" width="50.02" fill="#E4DCC6"/>
				<g fill="#95B4B9">
					<rect y="214.33" x="801.53" height="7.51" width="4.504"/>
					<rect y="214.33" x="813.99" height="7.51" width="4.504"/>
					<rect y="214.33" x="826.46" height="7.51" width="4.504"/>
					<rect y="214.33" x="838.93" height="7.51" width="4.504"/>
					<rect y="225.76" x="801.53" height="7.507" width="4.504"/>
					<rect y="225.76" x="813.99" height="7.507" width="4.504"/>
					<rect y="225.76" x="826.46" height="7.507" width="4.504"/>
					<rect y="225.76" x="838.93" height="7.507" width="4.504"/>
					<rect y="237.19" x="801.53" height="7.508" width="4.504"/>
					<rect y="237.19" x="813.99" height="7.508" width="4.504"/>
					<rect y="237.19" x="826.46" height="7.508" width="4.504"/>
					<rect y="237.19" x="838.93" height="7.508" width="4.504"/>
				</g>
				<g fill="#95B4B9">
					<rect y="248.62" x="801.53" height="7.507" width="4.504"/>
					<rect y="248.62" x="813.99" height="7.507" width="4.504"/>
					<rect y="248.62" x="826.46" height="7.507" width="4.504"/>
					<rect y="248.62" x="838.93" height="7.507" width="4.504"/>
					<rect y="260.04" x="801.53" height="7.507" width="4.504"/>
					<rect y="260.04" x="813.99" height="7.507" width="4.504"/>
					<rect y="260.04" x="826.46" height="7.507" width="4.504"/>
					<rect y="260.04" x="838.93" height="7.507" width="4.504"/>
					<rect y="271.47" x="801.53" height="7.508" width="4.504"/>
					<rect y="271.47" x="813.99" height="7.508" width="4.504"/>
					<rect y="271.47" x="826.46" height="7.508" width="4.504"/>
					<rect y="271.47" x="838.93" height="7.508" width="4.504"/>
				</g>
				<rect y="246.17" x="794.76" height=".969" width="54.424" fill="#493037"/>
				<rect y="205.35" x="794.76" height="2.861" width="54.424" fill="#493037"/>
				<path d="m839.29 196.59c-2.415-6.962-9.027-11.962-16.811-11.962-7.785 0-14.397 5-16.811 11.962h-8.198v8.759h50.02v-8.759h-8.2z" fill="#744F46"/>
				<path d="m835.82 202.42c0-7.368-5.972-13.34-13.339-13.34s-13.34 5.973-13.34 13.34" fill="#493037"/>
		<rect y="289.34" x="797.47" height="5.828" width="50.02" fill="#DDCBB2"/>
			<rect y="233.98" x="832.25" height="62.669" width="68.71" fill="#C0864A"/>
			<rect y="259.58" x="832.25" height="22.696" width="68.71" fill="#64431B"/>
			<g fill="#95B4B9">
				<rect y="238.49" x="839.59" height="7.427" width="4.454"/>
				<rect y="238.49" x="847.9" height="7.427" width="4.457"/>
				<rect y="238.49" x="856.21" height="7.427" width="4.456"/>
				<rect y="238.49" x="864.52" height="7.427" width="4.456"/>
				<rect y="238.49" x="873.75" height="7.427" width="4.454"/>
				<rect y="238.49" x="882.06" height="7.427" width="4.458"/>
				<rect y="238.49" x="890.37" height="7.427" width="4.454"/>
				<rect y="249.2" x="839.59" height="7.427" width="4.454"/>
				<rect y="249.2" x="847.9" height="7.427" width="4.457"/>
				<rect y="249.2" x="856.21" height="7.427" width="4.456"/>
				<rect y="249.2" x="864.52" height="7.427" width="4.456"/>
				<rect y="249.2" x="873.75" height="7.427" width="4.454"/>
				<rect y="249.2" x="882.06" height="7.427" width="4.458"/>
				<rect y="249.2" x="890.37" height="7.427" width="4.454"/>
			</g>
			<g fill="#95B4B9">
				<rect y="262.26" x="839.59" height="7.427" width="4.454"/>
				<rect y="262.26" x="847.9" height="7.427" width="4.457"/>
				<rect y="262.26" x="856.21" height="7.427" width="4.456"/>
				<rect y="262.26" x="864.52" height="7.427" width="4.456"/>
				<rect y="262.26" x="873.75" height="7.427" width="4.454"/>
				<rect y="262.26" x="882.06" height="7.427" width="4.458"/>
				<rect y="262.26" x="890.37" height="7.427" width="4.454"/>
				<rect y="272.96" x="839.59" height="7.427" width="4.454"/>
				<rect y="272.96" x="847.9" height="7.427" width="4.457"/>
				<rect y="272.96" x="856.21" height="7.427" width="4.456"/>
				<rect y="272.96" x="864.52" height="7.427" width="4.456"/>
				<rect y="272.96" x="873.75" height="7.427" width="4.454"/>
				<rect y="272.96" x="882.06" height="7.427" width="4.458"/>
				<rect y="272.96" x="890.37" height="7.427" width="4.454"/>
			</g>
			<rect y="229.16" x="831.05" height="4.817" width="71.124" fill="#523715"/>
				<polygon points="900.96 229.16 887.5 215.53 845.71 215.53 832.25 229.16" fill="#64431B"/>
		<rect y="293.06" x="832.25" height="3.584" width="68.71" fill="#D0C8AC"/>
		<rect y="283.22" x="876.53" height="13.42" width="9.151" fill="#64431B"/>
			<rect y="223.61" x="644.87" height="56.12" width="61.53" fill="#E4DCC6"/>
			<rect y="246.54" x="644.87" height="20.325" width="61.53" fill="#64431B"/>
			<g fill="#95B4B9">
				<rect y="227.65" x="651.44" height="6.652" width="3.989"/>
				<rect y="227.65" x="658.88" height="6.652" width="3.991"/>
				<rect y="227.65" x="666.32" height="6.652" width="3.99"/>
				<rect y="227.65" x="673.77" height="6.652" width="3.99"/>
				<rect y="227.65" x="682.04" height="6.652" width="3.989"/>
				<rect y="227.65" x="689.47" height="6.652" width="3.992"/>
				<rect y="227.65" x="696.92" height="6.652" width="3.988"/>
				<rect y="237.24" x="651.44" height="6.652" width="3.989"/>
				<rect y="237.24" x="658.88" height="6.652" width="3.991"/>
				<rect y="237.24" x="666.32" height="6.652" width="3.99"/>
				<rect y="237.24" x="673.77" height="6.652" width="3.99"/>
				<rect y="237.24" x="682.04" height="6.652" width="3.989"/>
				<rect y="237.24" x="689.47" height="6.652" width="3.992"/>
				<rect y="237.24" x="696.92" height="6.652" width="3.988"/>
			</g>
			<g fill="#95B4B9">
				<rect y="248.93" x="651.44" height="6.651" width="3.989"/>
				<rect y="248.93" x="658.88" height="6.651" width="3.991"/>
				<rect y="248.93" x="666.32" height="6.651" width="3.99"/>
				<rect y="248.93" x="673.77" height="6.651" width="3.99"/>
				<rect y="248.93" x="682.04" height="6.651" width="3.989"/>
				<rect y="248.93" x="689.47" height="6.651" width="3.992"/>
				<rect y="248.93" x="696.92" height="6.651" width="3.988"/>
				<rect y="258.52" x="651.44" height="6.652" width="3.989"/>
				<rect y="258.52" x="658.88" height="6.652" width="3.991"/>
				<rect y="258.52" x="666.32" height="6.652" width="3.99"/>
				<rect y="258.52" x="673.77" height="6.652" width="3.99"/>
				<rect y="258.52" x="682.04" height="6.652" width="3.989"/>
				<rect y="258.52" x="689.47" height="6.652" width="3.992"/>
				<rect y="258.52" x="696.92" height="6.652" width="3.988"/>
			</g>
			<rect y="219.3" x="643.79" height="4.313" width="63.692" fill="#493037"/>
				<polygon points="706.4 219.3 694.35 207.09 656.92 207.09 644.87 219.3" fill="#744F46"/>
		<rect y="276.52" x="644.87" height="3.21" width="61.53" fill="#D0C8AC"/>
		<rect y="267.71" x="684.52" height="12.018" width="8.195" fill="#64431B"/>
			<polygon points="652.84 250.56 673.1 238.01 693.36 250.56" fill="#576D37"/>
		<rect y="253.01" x="652.84" height="18.332" width="40.515" fill="#868D6B"/>
		<rect y="273.35" x="652.84" height="17.562" width="40.515" fill="#868D6B"/>
		<g fill="#95B4B9">
			<rect y="257.32" x="656.24" height="3.295" width="8.833"/>
			<rect y="257.32" x="668.95" height="3.295" width="8.832"/>
			<rect y="257.32" x="681.66" height="3.295" width="8.832"/>
			<rect y="264.62" x="656.24" height="3.295" width="8.833"/>
			<rect y="264.62" x="668.95" height="3.295" width="8.832"/>
			<rect y="264.62" x="681.66" height="3.295" width="8.832"/>
		</g>
		<rect y="250.17" x="652.13" height="2.84" width="41.94" fill="#3E5427"/>
		<rect y="270.86" x="652.13" height="2.84" width="41.94" fill="#414141"/>
		<rect y="284.04" x="670.48" height="6.875" width="5.241" fill="#414141"/>
		<rect y="277.66" x="659.85" height="3.295" width="8.833" fill="#95B4B9"/>
		<rect y="277.66" x="676.86" height="3.295" width="8.833" fill="#95B4B9"/>
		<path d="m675.44 243.68c-0.385-0.91-1.286-1.549-2.336-1.549-1.4 0-2.536 1.135-2.536 2.536 0 1.044 0.632 1.939 1.534 2.327 0.005 0.002 0.011 0.006 0.016 0.009 0.125 0.053 0.258 0.09 0.393 0.122 0.029 0.006 0.055 0.02 0.083 0.026 0.166 0.034 0.336 0.051 0.511 0.051 1.4 0 2.534-1.134 2.534-2.536 0.02-0.36-0.05-0.69-0.18-0.99z" fill="#414141"/>
			<rect y="211.36" x="931.78" height="92.256" width="48.111" fill="#744F46"/>
				<path d="m955.84 175.93c-1.425 0-2.578 1.155-2.578 2.579 0 1.092 0.681 2.021 1.641 2.397v12.484h1.877v-12.484c0.959-0.376 1.641-1.305 1.641-2.397 0-1.43-1.16-2.58-2.58-2.58z" fill="#414141"/>
				<path d="m979.89 209c-2.819-7.084-10.77-16.545-24.055-16.545s-21.237 9.461-24.055 16.545h48.11z" fill="#493037"/>
				<rect y="206.64" x="929.39" height="4.723" width="52.901" fill="#493037"/>
			<rect y="252.61" x="929.39" height="1.613" width="52.901" fill="#493037"/>
				<g fill="#95B4B9">
					<rect y="216.29" x="935.83" height="5.153" width="11.233"/>
					<rect y="216.29" x="950.22" height="5.153" width="11.233"/>
					<rect y="216.29" x="964.62" height="5.153" width="11.234"/>
					<rect y="225.52" x="935.83" height="5.153" width="11.233"/>
					<rect y="225.52" x="950.22" height="5.153" width="11.233"/>
					<rect y="225.52" x="964.62" height="5.153" width="11.234"/>
					<rect y="234.74" x="935.83" height="5.153" width="11.233"/>
					<rect y="234.74" x="950.22" height="5.153" width="11.233"/>
					<rect y="234.74" x="964.62" height="5.153" width="11.234"/>
					<rect y="243.97" x="935.83" height="5.153" width="11.233"/>
					<rect y="243.97" x="950.22" height="5.153" width="11.233"/>
					<rect y="243.97" x="964.62" height="5.153" width="11.234"/>
				</g>
				<g fill="#95B4B9">
					<rect y="277.47" x="935.83" height="5.153" width="11.233"/>
					<rect y="277.47" x="950.22" height="5.153" width="11.233"/>
					<rect y="277.47" x="964.62" height="5.153" width="11.234"/>
					<rect y="286.7" x="935.83" height="5.153" width="11.233"/>
					<rect y="286.7" x="950.22" height="5.153" width="11.233"/>
					<rect y="286.7" x="964.62" height="5.153" width="11.234"/>
				</g>
				<g fill="#95B4B9">
					<rect y="259.02" x="935.82" height="5.153" width="11.234"/>
					<rect y="259.02" x="950.22" height="5.153" width="11.234"/>
					<rect y="259.02" x="964.62" height="5.153" width="11.233"/>
					<rect y="268.24" x="935.82" height="5.153" width="11.234"/>
					<rect y="268.24" x="950.22" height="5.153" width="11.234"/>
					<rect y="268.24" x="964.62" height="5.153" width="11.233"/>
				</g>
		<rect y="297.18" x="931.78" height="7.393" width="48.111" fill="#DDCBB2"/>
			<rect y="211.86" x="700.17" height="13.443" width="7.133" fill="#111C27"/>
			<rect y="240.77" x="686.91" height="52.088" width="40.646" fill="#744F46"/>
			<rect y="286.46" x="686.91" height="6.398" width="40.646" fill="#DDCBB2"/>
					<rect y="248.68" x="691.37" height="10.328" width="7.785" fill="#95B4B9"/>
					<path d="m699.52 259.38h-8.52v-11.067h8.525v11.07zm-7.78-0.74h7.046v-9.589h-7.046v9.59z" fill="#414141"/>
					<rect y="248.68" x="703.38" height="10.328" width="7.785" fill="#95B4B9"/>
					<path d="m711.53 259.38h-8.525v-11.067h8.525v11.07zm-7.78-0.74h7.046v-9.589h-7.046v9.59z" fill="#414141"/>
					<rect y="248.68" x="715.38" height="10.328" width="7.785" fill="#95B4B9"/>
					<path d="m723.54 259.38h-8.524v-11.067h8.524v11.07zm-7.79-0.74h7.046v-9.589h-7.046v9.59z" fill="#414141"/>
					<rect y="271.44" x="691.04" height="10.328" width="7.785" fill="#95B4B9"/>
					<path d="m699.19 282.14h-8.525v-11.067h8.525v11.07zm-7.78-0.74h7.046v-9.589h-7.046v9.59z" fill="#414141"/>
					<rect y="271.44" x="703.04" height="10.328" width="7.785" fill="#95B4B9"/>
					<path d="m711.2 282.14h-8.524v-11.067h8.524v11.07zm-7.78-0.74h7.046v-9.589h-7.046v9.59z" fill="#414141"/>
					<rect y="271.44" x="715.05" height="10.328" width="7.785" fill="#95B4B9"/>
					<path d="m723.21 282.14h-8.524v-11.067h8.524v11.07zm-7.79-0.74h7.046v-9.589h-7.046v9.59z" fill="#414141"/>
				<rect y="220.11" x="686.91" height="21.962" width="40.646" fill="#132433"/>
									<defs>
										<rect id="SVGID_21_" y="220.11" x="686.91" height="21.962" width="40.646"/>
									</defs>
									<clipPath id="SVGID_22_">
										<use overflow="visible" xlink:href="#SVGID_21_"/>
									</clipPath>
									<g fill="#111C27" clip-path="url(#SVGID_22_)">
											<path d="m692.69 221.21c0 0.801-0.638 1.45-1.425 1.45s-1.425-0.649-1.425-1.45c0-0.801-0.363-1.45 1.425-1.45 1.79 0 1.43 0.65 1.43 1.45z"/>
											<path d="m692.69 225.31c0 0.801-0.638 1.45-1.425 1.45s-1.425-0.649-1.425-1.45c0-0.801-0.363-1.45 1.425-1.45 1.79 0 1.43 0.64 1.43 1.45z"/>
											<path d="m692.69 229.79c0 0.801-0.638 1.45-1.425 1.45s-1.425-0.649-1.425-1.45c0-0.801-0.363-1.45 1.425-1.45 1.79 0 1.43 0.65 1.43 1.45z"/>
											<path d="m692.69 233.88c0 0.801-0.638 1.45-1.425 1.45s-1.425-0.649-1.425-1.45c0-0.801-0.363-1.449 1.425-1.449 1.79 0 1.43 0.65 1.43 1.45z"/>
											<path d="m692.69 238.36c0 0.801-0.638 1.449-1.425 1.449s-1.425-0.649-1.425-1.449c0-0.801-0.363-1.451 1.425-1.451 1.79 0 1.43 0.65 1.43 1.45z"/>
											<path d="m692.69 242.45c0 0.802-0.638 1.45-1.425 1.45s-1.425-0.648-1.425-1.45c0-0.801-0.363-1.45 1.425-1.45 1.79 0 1.43 0.65 1.43 1.45z"/>
											<path d="m695.6 223.26c0 0.801-0.638 1.45-1.424 1.45-0.787 0-1.425-0.649-1.425-1.45s-0.363-1.45 1.425-1.45 1.42 0.65 1.42 1.45z"/>
											<path d="m695.6 227.35c0 0.801-0.638 1.45-1.424 1.45-0.787 0-1.425-0.649-1.425-1.45s-0.363-1.45 1.425-1.45 1.42 0.65 1.42 1.45z"/>
											<path d="m695.6 231.83c0 0.801-0.638 1.449-1.424 1.449-0.787 0-1.425-0.649-1.425-1.449s-0.363-1.45 1.425-1.45 1.42 0.65 1.42 1.45z"/>
											<path d="m695.6 235.93c0 0.801-0.638 1.45-1.424 1.45-0.787 0-1.425-0.649-1.425-1.45s-0.363-1.45 1.425-1.45 1.42 0.64 1.42 1.45z"/>
											<path d="m695.6 240.41c0 0.801-0.638 1.45-1.424 1.45-0.787 0-1.425-0.649-1.425-1.45s-0.363-1.449 1.425-1.449 1.42 0.64 1.42 1.45z"/>
											<path d="m695.6 244.5c0 0.802-0.638 1.45-1.424 1.45-0.787 0-1.425-0.648-1.425-1.45 0-0.801-0.363-1.449 1.425-1.449s1.42 0.65 1.42 1.45z"/>
											<path d="m698.51 221.21c0 0.801-0.638 1.45-1.425 1.45s-1.425-0.649-1.425-1.45-0.363-1.45 1.425-1.45c1.79 0 1.43 0.65 1.43 1.45z"/>
											<path d="m698.51 225.31c0 0.801-0.638 1.45-1.425 1.45s-1.425-0.649-1.425-1.45-0.363-1.45 1.425-1.45c1.79 0 1.43 0.64 1.43 1.45z"/>
											<path d="m698.51 229.79c0 0.801-0.638 1.45-1.425 1.45s-1.425-0.649-1.425-1.45-0.363-1.45 1.425-1.45c1.79 0 1.43 0.65 1.43 1.45z"/>
											<path d="m698.51 233.88c0 0.801-0.638 1.45-1.425 1.45s-1.425-0.649-1.425-1.45-0.363-1.449 1.425-1.449c1.79 0 1.43 0.65 1.43 1.45z"/>
											<path d="m698.51 238.36c0 0.801-0.638 1.449-1.425 1.449s-1.425-0.649-1.425-1.449c0-0.801-0.363-1.451 1.425-1.451 1.79 0 1.43 0.65 1.43 1.45z"/>
											<path d="m698.51 242.45c0 0.802-0.638 1.45-1.425 1.45s-1.425-0.648-1.425-1.45c0-0.801-0.363-1.45 1.425-1.45 1.79 0 1.43 0.65 1.43 1.45z"/>
											<path d="m701.42 223.26c0 0.801-0.638 1.45-1.425 1.45-0.786 0-1.424-0.649-1.424-1.45s-0.362-1.45 1.424-1.45c1.78 0 1.42 0.65 1.42 1.45z"/>
											<path d="m701.42 227.35c0 0.801-0.638 1.45-1.425 1.45-0.786 0-1.424-0.649-1.424-1.45s-0.362-1.45 1.424-1.45c1.78 0 1.42 0.65 1.42 1.45z"/>
											<path d="m701.42 231.83c0 0.801-0.638 1.449-1.425 1.449-0.786 0-1.424-0.649-1.424-1.449s-0.362-1.45 1.424-1.45c1.78 0 1.42 0.65 1.42 1.45z"/>
											<path d="m701.42 235.93c0 0.801-0.638 1.45-1.425 1.45-0.786 0-1.424-0.649-1.424-1.45s-0.362-1.45 1.424-1.45c1.78 0 1.42 0.64 1.42 1.45z"/>
											<path d="m701.42 240.41c0 0.801-0.638 1.45-1.425 1.45-0.786 0-1.424-0.649-1.424-1.45s-0.362-1.449 1.424-1.449c1.78 0 1.42 0.64 1.42 1.45z"/>
											<path d="m701.42 244.5c0 0.802-0.638 1.45-1.425 1.45-0.786 0-1.424-0.648-1.424-1.45 0-0.801-0.362-1.449 1.424-1.449 1.78 0 1.42 0.65 1.42 1.45z"/>
											<path d="m704.33 221.21c0 0.801-0.638 1.45-1.425 1.45-0.786 0-1.425-0.649-1.425-1.45s-0.363-1.45 1.425-1.45c1.79 0 1.43 0.65 1.43 1.45z"/>
											<path d="m704.33 225.31c0 0.801-0.638 1.45-1.425 1.45-0.786 0-1.425-0.649-1.425-1.45s-0.363-1.45 1.425-1.45c1.79 0 1.43 0.64 1.43 1.45z"/>
											<path d="m704.33 229.79c0 0.801-0.638 1.45-1.425 1.45-0.786 0-1.425-0.649-1.425-1.45s-0.363-1.45 1.425-1.45c1.79 0 1.43 0.65 1.43 1.45z"/>
											<path d="m704.33 233.88c0 0.801-0.638 1.45-1.425 1.45-0.786 0-1.425-0.649-1.425-1.45s-0.363-1.449 1.425-1.449c1.79 0 1.43 0.65 1.43 1.45z"/>
											<path d="m704.33 238.36c0 0.801-0.638 1.449-1.425 1.449-0.786 0-1.425-0.649-1.425-1.449 0-0.801-0.363-1.451 1.425-1.451 1.79 0 1.43 0.65 1.43 1.45z"/>
											<path d="m704.33 242.45c0 0.802-0.638 1.45-1.425 1.45-0.786 0-1.425-0.648-1.425-1.45 0-0.801-0.363-1.45 1.425-1.45 1.79 0 1.43 0.65 1.43 1.45z"/>
											<path d="m707.24 223.26c0 0.801-0.638 1.45-1.424 1.45s-1.424-0.649-1.424-1.45-0.364-1.45 1.424-1.45c1.78 0 1.42 0.65 1.42 1.45z"/>
											<path d="m707.24 227.35c0 0.801-0.638 1.45-1.424 1.45s-1.424-0.649-1.424-1.45c0-0.801-0.364-1.45 1.424-1.45 1.78 0 1.42 0.65 1.42 1.45z"/>
											<path d="m707.24 231.83c0 0.801-0.638 1.449-1.424 1.449s-1.424-0.649-1.424-1.449-0.364-1.45 1.424-1.45c1.78 0 1.42 0.65 1.42 1.45z"/>
											<path d="m707.24 235.93c0 0.801-0.638 1.45-1.424 1.45s-1.424-0.649-1.424-1.45c0-0.801-0.364-1.45 1.424-1.45 1.78 0 1.42 0.64 1.42 1.45z"/>
											<path d="m707.24 240.41c0 0.801-0.638 1.45-1.424 1.45s-1.424-0.649-1.424-1.45c0-0.801-0.364-1.449 1.424-1.449 1.78 0 1.42 0.64 1.42 1.45z"/>
											<path d="m707.24 244.5c0 0.802-0.638 1.45-1.424 1.45s-1.424-0.648-1.424-1.45c0-0.801-0.364-1.449 1.424-1.449 1.78 0 1.42 0.65 1.42 1.45z"/>
											<path d="m710.15 221.21c0 0.801-0.639 1.45-1.425 1.45s-1.425-0.649-1.425-1.45c0-0.801-0.363-1.45 1.425-1.45 1.79 0 1.43 0.65 1.43 1.45z"/>
											<path d="m710.15 225.31c0 0.801-0.639 1.45-1.425 1.45s-1.425-0.649-1.425-1.45c0-0.801-0.363-1.45 1.425-1.45 1.79 0 1.43 0.64 1.43 1.45z"/>
											<path d="m710.15 229.79c0 0.801-0.639 1.45-1.425 1.45s-1.425-0.649-1.425-1.45c0-0.801-0.363-1.45 1.425-1.45 1.79 0 1.43 0.65 1.43 1.45z"/>
											<path d="m710.15 233.88c0 0.801-0.639 1.45-1.425 1.45s-1.425-0.649-1.425-1.45c0-0.801-0.363-1.449 1.425-1.449 1.79 0 1.43 0.65 1.43 1.45z"/>
											<path d="m710.15 238.36c0 0.801-0.639 1.449-1.425 1.449s-1.425-0.649-1.425-1.449c0-0.801-0.363-1.451 1.425-1.451 1.79 0 1.43 0.65 1.43 1.45z"/>
											<path d="m710.15 242.45c0 0.802-0.639 1.45-1.425 1.45s-1.425-0.648-1.425-1.45c0-0.801-0.363-1.45 1.425-1.45 1.79 0 1.43 0.65 1.43 1.45z"/>
											<path d="m713.06 223.26c0 0.801-0.638 1.45-1.426 1.45-0.786 0-1.424-0.649-1.424-1.45s-0.363-1.45 1.424-1.45c1.79 0 1.43 0.65 1.43 1.45z"/>
											<path d="m713.06 227.35c0 0.801-0.638 1.45-1.426 1.45-0.786 0-1.424-0.649-1.424-1.45s-0.363-1.45 1.424-1.45c1.79 0 1.43 0.65 1.43 1.45z"/>
											<path d="m713.06 231.83c0 0.801-0.638 1.449-1.426 1.449-0.786 0-1.424-0.649-1.424-1.449s-0.363-1.45 1.424-1.45c1.79 0 1.43 0.65 1.43 1.45z"/>
											<path d="m713.06 235.93c0 0.801-0.638 1.45-1.426 1.45-0.786 0-1.424-0.649-1.424-1.45s-0.363-1.45 1.424-1.45c1.79 0 1.43 0.64 1.43 1.45z"/>
											<path d="m713.06 240.41c0 0.801-0.638 1.45-1.426 1.45-0.786 0-1.424-0.649-1.424-1.45s-0.363-1.449 1.424-1.449c1.79 0 1.43 0.64 1.43 1.45z"/>
											<path d="m713.06 244.5c0 0.802-0.638 1.45-1.426 1.45-0.786 0-1.424-0.648-1.424-1.45 0-0.801-0.363-1.449 1.424-1.449 1.79 0 1.43 0.65 1.43 1.45z"/>
											<path d="m715.97 221.21c0 0.801-0.638 1.45-1.425 1.45s-1.425-0.649-1.425-1.45c0-0.801-0.363-1.45 1.425-1.45 1.79 0 1.43 0.65 1.43 1.45z"/>
											<path d="m715.97 225.31c0 0.801-0.638 1.45-1.425 1.45s-1.425-0.649-1.425-1.45c0-0.801-0.363-1.45 1.425-1.45 1.79 0 1.43 0.64 1.43 1.45z"/>
											<path d="m715.97 229.79c0 0.801-0.638 1.45-1.425 1.45s-1.425-0.649-1.425-1.45c0-0.801-0.363-1.45 1.425-1.45 1.79 0 1.43 0.65 1.43 1.45z"/>
											<path d="m715.97 233.88c0 0.801-0.638 1.45-1.425 1.45s-1.425-0.649-1.425-1.45c0-0.801-0.363-1.449 1.425-1.449 1.79 0 1.43 0.65 1.43 1.45z"/>
											<path d="m715.97 238.36c0 0.801-0.638 1.449-1.425 1.449s-1.425-0.649-1.425-1.449c0-0.801-0.363-1.451 1.425-1.451 1.79 0 1.43 0.65 1.43 1.45z"/>
											<path d="m715.97 242.45c0 0.802-0.638 1.45-1.425 1.45s-1.425-0.648-1.425-1.45c0-0.801-0.363-1.45 1.425-1.45 1.79 0 1.43 0.65 1.43 1.45z"/>
											<path d="m718.88 223.26c0 0.801-0.638 1.45-1.425 1.45-0.786 0-1.424-0.649-1.424-1.45s-0.363-1.45 1.424-1.45 1.42 0.65 1.42 1.45z"/>
											<path d="m718.88 227.35c0 0.801-0.638 1.45-1.425 1.45-0.786 0-1.424-0.649-1.424-1.45s-0.363-1.45 1.424-1.45 1.42 0.65 1.42 1.45z"/>
											<path d="m718.88 231.83c0 0.801-0.638 1.449-1.425 1.449-0.786 0-1.424-0.649-1.424-1.449s-0.363-1.45 1.424-1.45 1.42 0.65 1.42 1.45z"/>
											<path d="m718.88 235.93c0 0.801-0.638 1.45-1.425 1.45-0.786 0-1.424-0.649-1.424-1.45s-0.363-1.45 1.424-1.45 1.42 0.64 1.42 1.45z"/>
											<path d="m718.88 240.41c0 0.801-0.638 1.45-1.425 1.45-0.786 0-1.424-0.649-1.424-1.45s-0.363-1.449 1.424-1.449c1.78 0 1.42 0.64 1.42 1.45z"/>
											<path d="m718.88 244.5c0 0.802-0.638 1.45-1.425 1.45-0.786 0-1.424-0.648-1.424-1.45 0-0.801-0.363-1.449 1.424-1.449s1.42 0.65 1.42 1.45z"/>
											<path d="m721.79 221.21c0 0.801-0.638 1.45-1.424 1.45s-1.426-0.649-1.426-1.45-0.362-1.45 1.426-1.45c1.78 0 1.42 0.65 1.42 1.45z"/>
											<path d="m721.79 225.31c0 0.801-0.638 1.45-1.424 1.45s-1.426-0.649-1.426-1.45-0.362-1.45 1.426-1.45c1.78 0 1.42 0.64 1.42 1.45z"/>
											<path d="m721.79 229.79c0 0.801-0.638 1.45-1.424 1.45s-1.426-0.649-1.426-1.45-0.362-1.45 1.426-1.45c1.78 0 1.42 0.65 1.42 1.45z"/>
											<path d="m721.79 233.88c0 0.801-0.638 1.45-1.424 1.45s-1.426-0.649-1.426-1.45-0.362-1.449 1.426-1.449c1.78 0 1.42 0.65 1.42 1.45z"/>
											<path d="m721.79 238.36c0 0.801-0.638 1.449-1.424 1.449s-1.426-0.649-1.426-1.449c0-0.801-0.362-1.451 1.426-1.451 1.78 0 1.42 0.65 1.42 1.45z"/>
											<path d="m721.79 242.45c0 0.802-0.638 1.45-1.424 1.45s-1.426-0.648-1.426-1.45c0-0.801-0.362-1.45 1.426-1.45 1.78 0 1.42 0.65 1.42 1.45z"/>
											<path d="m724.7 223.26c0 0.801-0.638 1.45-1.424 1.45-0.787 0-1.425-0.649-1.425-1.45s-0.363-1.45 1.425-1.45c1.78 0 1.42 0.65 1.42 1.45z"/>
											<path d="m724.7 227.35c0 0.801-0.638 1.45-1.424 1.45-0.787 0-1.425-0.649-1.425-1.45s-0.363-1.45 1.425-1.45c1.78 0 1.42 0.65 1.42 1.45z"/>
											<path d="m724.7 231.83c0 0.801-0.638 1.449-1.424 1.449-0.787 0-1.425-0.649-1.425-1.449s-0.363-1.45 1.425-1.45c1.78 0 1.42 0.65 1.42 1.45z"/>
											<path d="m724.7 235.93c0 0.801-0.638 1.45-1.424 1.45-0.787 0-1.425-0.649-1.425-1.45s-0.363-1.45 1.425-1.45c1.78 0 1.42 0.64 1.42 1.45z"/>
											<path d="m724.7 240.41c0 0.801-0.638 1.45-1.424 1.45-0.787 0-1.425-0.649-1.425-1.45s-0.363-1.449 1.425-1.449c1.78 0 1.42 0.64 1.42 1.45z"/>
											<path d="m724.7 244.5c0 0.802-0.638 1.45-1.424 1.45-0.787 0-1.425-0.648-1.425-1.45 0-0.801-0.363-1.449 1.425-1.449 1.78 0 1.42 0.65 1.42 1.45z"/>
									</g>
			<rect y="218.22" x="686.91" height="23.855" width="3.274" fill="#1D313D"/>
			<rect y="218.22" x="724.28" height="23.855" width="3.274" fill="#1D313D"/>
			<rect y="242.07" x="685.59" height="2.367" width="42.977" fill="#1D313D"/>
			<rect y="259.01" x="690.35" height=".83" width="9.827" fill="#414141"/>
			<rect y="259.01" x="702.32" height=".83" width="9.827" fill="#414141"/>
			<rect y="259.01" x="714.29" height=".83" width="9.827" fill="#414141"/>
			<rect y="281.65" x="690.06" height=".83" width="9.827" fill="#414141"/>
			<rect y="281.65" x="702.02" height=".83" width="9.827" fill="#414141"/>
			<rect y="281.65" x="713.99" height=".83" width="9.827" fill="#414141"/>
					<path d="m688.9 267.51c0 0.592-0.547 1.072-1.222 1.072s-1.221-0.48-1.221-1.072v-1.194l2.444 0.009v1.18z" fill="#5B483A"/>
					<path d="m691.34 267.51c0 0.592-0.547 1.072-1.222 1.072-0.676 0-1.223-0.48-1.223-1.072v-1.194l2.445 0.009v1.18z" fill="#A38041"/>
					<path d="m693.78 267.51c0 0.592-0.547 1.072-1.221 1.072-0.675 0-1.222-0.48-1.222-1.072v-1.194l2.444 0.009v1.18z" fill="#5B483A"/>
					<path d="m696.23 267.51c0 0.592-0.548 1.072-1.222 1.072-0.676 0-1.223-0.48-1.223-1.072v-1.194l2.446 0.009c-0.01-0.01-0.01 0.59-0.01 1.18z" fill="#A38041"/>
					<path d="m698.68 267.51c0 0.592-0.547 1.072-1.222 1.072s-1.222-0.48-1.222-1.072v-1.194l2.444 0.009v1.18z" fill="#5B483A"/>
					<path d="m701.12 267.51c0 0.592-0.547 1.072-1.223 1.072s-1.222-0.48-1.222-1.072v-1.194l2.445 0.009v1.18z" fill="#A38041"/>
					<path d="m703.56 267.51c0 0.592-0.547 1.072-1.222 1.072-0.676 0-1.222-0.48-1.222-1.072v-1.194l2.444 0.009v1.18z" fill="#5B483A"/>
					<path d="m706.01 267.51c0 0.592-0.547 1.072-1.222 1.072s-1.222-0.48-1.222-1.072c-0.001-0.179 0-1.194 0-1.194l2.445 0.009c-0.01-0.01-0.01 0.59-0.01 1.18z" fill="#A38041"/>
					<path d="m708.45 267.51c0 0.592-0.547 1.072-1.222 1.072s-1.222-0.48-1.222-1.072v-1.194l2.444 0.009v1.18z" fill="#5B483A"/>
					<path d="m710.9 267.51c0 0.592-0.547 1.072-1.223 1.072-0.675 0-1.222-0.48-1.222-1.072v-1.194l2.445 0.009v1.18z" fill="#A38041"/>
					<path d="m713.34 267.51c0 0.592-0.548 1.072-1.222 1.072-0.676 0-1.223-0.48-1.223-1.072v-1.194l2.445 0.009v1.18z" fill="#5B483A"/>
					<path d="m715.79 267.51c0 0.592-0.548 1.072-1.223 1.072s-1.221-0.48-1.221-1.072c-0.001-0.179 0-1.194 0-1.194l2.445 0.009c-0.01-0.01-0.01 0.59-0.01 1.18z" fill="#A38041"/>
					<path d="m718.23 267.51c0 0.592-0.548 1.072-1.223 1.072-0.676 0-1.222-0.48-1.222-1.072v-1.194l2.445 0.009c-0.01-0.01-0.01 0.59-0.01 1.18z" fill="#5B483A"/>
					<path d="m720.68 267.51c0 0.592-0.547 1.072-1.221 1.072s-1.222-0.48-1.222-1.072v-1.194l2.444 0.009v1.18z" fill="#A38041"/>
					<path d="m723.12 267.51c0 0.592-0.547 1.072-1.222 1.072-0.676 0-1.223-0.48-1.223-1.072v-1.194l2.445 0.009v1.18z" fill="#5B483A"/>
					<path d="m725.56 267.51c0 0.592-0.547 1.072-1.222 1.072s-1.221-0.48-1.221-1.072v-1.194l2.444 0.009v1.18z" fill="#A38041"/>
					<path d="m728.01 267.51c0 0.592-0.548 1.072-1.223 1.072s-1.223-0.48-1.223-1.072v-1.194l2.446 0.009c-0.01-0.01-0.01 0.59-0.01 1.18z" fill="#5B483A"/>
				<rect y="265.04" x="686.45" height="1.28" width="41.556" fill="#DDCBB2"/>
		<polygon points="660.06 290.66 613.32 290.66 613.32 246.48 636.44 214.3 660.06 246.48" fill="#C0864A"/>
			<g fill="#DDCBB2">
				<rect y="246.48" x="613.32" height="3.886" width="2.082"/>
				<rect y="250.94" x="613.32" height="3.885" width="3.542"/>
			</g>
			<g fill="#DDCBB2">
				<rect y="255.44" x="613.32" height="3.886" width="2.082"/>
				<rect y="259.9" x="613.32" height="3.885" width="3.542"/>
			</g>
				<rect y="268.86" x="613.32" height="3.885" width="3.542" fill="#DDCBB2"/>
			<g fill="#DDCBB2">
				<rect y="273.36" x="613.32" height="3.885" width="2.082"/>
				<rect y="277.82" x="613.32" height="3.886" width="3.542"/>
			</g>
				<rect y="282.31" x="613.32" height="3.885" width="2.082" fill="#DDCBB2"/>
			<g fill="#DDCBB2">
				<rect y="246.48" x="657.98" height="3.886" width="2.081"/>
				<rect y="250.94" x="656.52" height="3.885" width="3.542"/>
			</g>
			<g fill="#DDCBB2">
				<rect y="255.44" x="657.98" height="3.886" width="2.081"/>
				<rect y="259.9" x="656.52" height="3.885" width="3.542"/>
			</g>
			<g fill="#DDCBB2">
				<rect y="264.4" x="657.98" height="3.885" width="2.081"/>
				<rect y="268.86" x="656.52" height="3.885" width="3.542"/>
			</g>
			<g fill="#DDCBB2">
				<rect y="273.36" x="657.98" height="3.885" width="2.081"/>
				<rect y="277.82" x="656.52" height="3.886" width="3.542"/>
			</g>
				<rect y="282.31" x="657.98" height="3.885" width="2.081" fill="#DDCBB2"/>
			<path d="m640.04 231.65c-0.044-1.599-1.361-2.884-2.982-2.884s-2.938 1.284-2.982 2.884h-0.005v5.022h5.974v-5.022h-0.01z" fill="#95B4B9"/>
			<path d="m640.41 237.04h-6.713l0.034-5.761c0.22-1.644 1.616-2.884 3.323-2.884s3.104 1.24 3.323 2.884h0.029l0.004 0.37 0.01 5.39zm-5.97-0.74h5.235l-0.004-4.642c-0.038-1.415-1.186-2.524-2.612-2.524-1.427 0-2.573 1.109-2.612 2.524l-0.005 0.181v4.46h-0.02z" fill="#414141"/>
					<path d="m627.75 249.84c-0.043-1.6-1.36-2.884-2.981-2.884-1.622 0-2.938 1.284-2.982 2.884h-0.004v8.959h5.973v-8.959h-0.01z" fill="#95B4B9"/>
					<path d="m628.12 259.17h-6.712l0.033-9.698c0.219-1.644 1.615-2.884 3.323-2.884s3.104 1.24 3.323 2.884h0.029l0.005 0.37v9.33zm-5.97-0.74h5.234l-0.005-8.58c-0.037-1.416-1.186-2.524-2.611-2.524-1.427 0-2.574 1.109-2.612 2.525l-0.004 0.169v8.4z" fill="#414141"/>
					<path d="m653.86 249.44c-0.044-1.6-1.361-2.884-2.982-2.884-1.622 0-2.939 1.284-2.983 2.884h-0.004v8.96h5.974v-8.959h-0.01z" fill="#95B4B9"/>
					<path d="m654.23 258.77h-6.713l0.033-9.698c0.22-1.644 1.616-2.884 3.324-2.884 1.707 0 3.104 1.24 3.323 2.884h0.029l0.003 0.37v9.328h0.01zm-5.97-0.74h5.235l-0.003-8.579c-0.038-1.416-1.186-2.524-2.612-2.524s-2.574 1.109-2.614 2.524l-0.004 0.167-0.02 8.41z" fill="#414141"/>
						<path d="m653.42 273.68c-0.044-1.599-1.361-2.884-2.982-2.884-1.622 0-2.938 1.284-2.982 2.884h-0.003v8.96h5.973v-8.96h-0.01z" fill="#95B4B9"/>
						<path d="m653.79 283.01h-6.712l0.032-9.7c0.22-1.644 1.615-2.884 3.323-2.884 1.707 0 3.103 1.24 3.323 2.884h0.029l0.003 0.37 0.01 9.33zm-5.97-0.74h5.232l-0.003-8.581c-0.039-1.416-1.186-2.524-2.612-2.524s-2.574 1.109-2.612 2.524l-0.003 0.114-0.01 8.47z" fill="#414141"/>
						<path d="m644.64 273.68c-0.043-1.599-1.361-2.884-2.982-2.884s-2.938 1.284-2.982 2.884h-0.005v8.96h5.974v-8.96h-0.01z" fill="#95B4B9"/>
						<path d="m645.01 283.01h-6.713l0.034-9.7c0.22-1.644 1.616-2.884 3.323-2.884 1.708 0 3.104 1.24 3.323 2.884h0.029l0.005 0.37 0.01 9.33zm-5.97-0.74h5.235l-0.005-8.581c-0.037-1.416-1.186-2.524-2.611-2.524-1.426 0-2.573 1.109-2.612 2.524l-0.005 0.18v8.4h-0.02z" fill="#414141"/>
						<path d="m635.86 273.68c-0.045-1.599-1.361-2.884-2.982-2.884-1.622 0-2.938 1.284-2.982 2.884h-0.005v8.96h5.973v-8.96h-0.01z" fill="#95B4B9"/>
						<path d="m636.23 283.01h-6.712l0.034-9.7c0.219-1.644 1.615-2.884 3.323-2.884 1.707 0 3.103 1.24 3.323 2.884h0.029l0.004 0.37 0.01 9.33zm-5.97-0.74h5.234l-0.004-8.581c-0.039-1.416-1.187-2.524-2.612-2.524-1.427 0-2.574 1.109-2.611 2.524l-0.005 0.184v8.4z" fill="#414141"/>
						<path d="m627.07 273.68c-0.044-1.599-1.361-2.884-2.982-2.884s-2.938 1.284-2.982 2.884h-0.004v8.96h5.973v-8.96h-0.01z" fill="#95B4B9"/>
						<path d="m627.45 283.01h-6.712l0.033-9.7c0.22-1.644 1.616-2.884 3.323-2.884s3.104 1.24 3.323 2.884h0.029l0.004 0.37 0.01 9.33zm-5.98-0.74h5.234l-0.004-8.581c-0.038-1.416-1.186-2.524-2.612-2.524-1.427 0-2.574 1.109-2.612 2.524l-0.004 0.154v8.43h-0.01z" fill="#414141"/>
					<path d="m642.09 250.87c-0.065-2.395-2.692-4.317-5.119-4.317s-4.88 1.923-4.945 4.317h-0.006v13.412h10.077v-13.412z" fill="#95B4B9"/>
					<path d="m642.46 264.66h-10.816l0.032-14.151c0.282-2.338 2.658-4.317 5.288-4.317 2.416 0 5.156 1.822 5.462 4.317h0.028l0.006 0.37v13.78zm-10.08-0.74h9.337l-0.006-13.031c-0.061-2.229-2.603-3.957-4.75-3.957-2.109 0-4.514 1.692-4.576 3.957l-0.006 0.22 0.01 12.81z" fill="#414141"/>
					<g fill="#64431B">
						<rect y="256.92" x="652.67" height="7.272" width=".939"/>
						<rect y="256.92" x="650.68" height="7.272" width=".599"/>
						<rect y="256.92" x="648.68" height="7.272" width=".599"/>
						<rect y="256.92" x="646.69" height="7.272" width=".599"/>
						<rect y="256.92" x="644.69" height="7.272" width=".598"/>
						<rect y="256.92" x="642.69" height="7.272" width=".599"/>
						<rect y="256.92" x="640.7" height="7.272" width=".599"/>
						<rect y="256.92" x="638.7" height="7.272" width=".599"/>
						<rect y="256.92" x="636.7" height="7.272" width=".599"/>
						<rect y="256.92" x="634.71" height="7.272" width=".599"/>
						<rect y="256.92" x="632.71" height="7.272" width=".599"/>
						<rect y="256.92" x="630.72" height="7.272" width=".599"/>
						<rect y="256.92" x="628.72" height="7.272" width=".598"/>
						<rect y="256.92" x="626.72" height="7.272" width=".599"/>
						<rect y="256.92" x="624.73" height="7.272" width=".599"/>
						<rect y="256.92" x="622.73" height="7.272" width=".598"/>
						<rect y="256.92" x="620.4" height="7.272" width=".937"/>
					</g>
					<rect y="263.78" x="619.4" height="1.172" width="35.219" fill="#64431B"/>
					<rect y="256.76" x="619.4" height=".614" width="35.219" fill="#64431B"/>
		<polygon points="611.9 248.42 604.64 248.42 636.76 206.85 668.77 248.39 661.43 248.42 636.61 215.72" fill="#64431B"/>
		<rect y="264.4" x="613.32" height="3.885" width="46.739" fill="#64431B"/>
		<polyline points="613.32 290.66 613.32 286.66 660.06 286.66 660.06 290.66" fill="#DDCBB2"/>
			<rect y="209.7" x="920.12" height="8.633" width="5.877" fill="#3E5427"/>
					<rect y="225.97" x="878.24" height="72.691" width="58.488" fill="#868D6B"/>
						<rect y="262.38" x="878.55" height="1.399" width="58.393" fill="#231F20"/>
						<rect y="263.78" x="878.55" height="1.398" width="58.393" fill="#414141"/>
									<polygon points="885.91 239.74 885.91 233.48 891.14 233.48 891.14 239.74" fill="#95B4B9"/>
									<polygon points="892.94 239.74 892.94 233.48 898.16 233.48 898.16 239.74" fill="#95B4B9"/>
									<path d="m884.67 232.48v7.805h14.728v-7.805h-14.73v-0.01zm6.47 7.26h-5.227v-6.261h5.227v6.258zm7.02 0h-5.221v-6.261h5.221v6.258z" fill="#414141"/>
									<polygon points="885.91 247.1 885.91 240.84 891.14 240.84 891.14 247.1" fill="#95B4B9"/>
									<polygon points="892.94 247.1 892.94 240.84 898.16 240.84 898.16 247.1" fill="#95B4B9"/>
									<path d="m884.67 240.28v7.365h14.728v-7.366h-14.73zm6.47 6.82h-5.227v-6.26h5.227v6.257zm7.02 0h-5.221v-6.26h5.221v6.257z" fill="#414141"/>
									<polygon points="885.91 254.46 885.91 248.2 891.14 248.2 891.14 254.46" fill="#95B4B9"/>
									<polygon points="892.94 254.46 892.94 248.2 898.16 248.2 898.16 254.46" fill="#95B4B9"/>
									<path d="m884.67 247.65v7.805h14.728v-7.804h-14.729zm6.47 6.81h-5.227v-6.261h5.227v6.258zm7.02 0h-5.221v-6.261h5.221v6.258z" fill="#414141"/>
							<polygon points="882.07 257 882.07 255.5 901.14 255.5 901.14 257" fill="#414141"/>
								<polygon points="915.57 239.74 915.57 233.48 920.79 233.48 920.79 239.74" fill="#95B4B9"/>
								<polygon points="922.58 239.74 922.58 233.48 927.81 233.48 927.81 239.74" fill="#95B4B9"/>
								<path d="m914.32 232.48v7.805h14.727v-7.805h-14.73v-0.01zm6.47 7.26h-5.225v-6.261h5.225v6.258zm7.02 0h-5.222v-6.261h5.222v6.258z" fill="#414141"/>
								<polygon points="915.57 247.1 915.57 240.84 920.79 240.84 920.79 247.1" fill="#95B4B9"/>
								<polygon points="922.58 247.1 922.58 240.84 927.81 240.84 927.81 247.1" fill="#95B4B9"/>
								<path d="m914.32 240.28v7.365h14.727v-7.366h-14.73zm6.47 6.82h-5.225v-6.26h5.225v6.257zm7.02 0h-5.222v-6.26h5.222v6.257z" fill="#414141"/>
								<polygon points="915.57 254.46 915.57 248.2 920.79 248.2 920.79 254.46" fill="#95B4B9"/>
								<polygon points="922.58 254.46 922.58 248.2 927.81 248.2 927.81 254.46" fill="#95B4B9"/>
								<path d="m914.32 247.65v7.805h14.727v-7.804h-14.728zm6.47 6.81h-5.225v-6.261h5.225v6.258zm7.02 0h-5.222v-6.261h5.222v6.258z" fill="#414141"/>
							<polygon points="911.72 257 911.72 255.5 930.79 255.5 930.79 257" fill="#414141"/>
						<polygon points="908.43 276.08 906.54 276.08 888.97 276.08 888.97 276.85 888.97 293.77 888.97 294.54 890.07 294.54 906.54 294.54 907.65 294.54 908.43 294.54 926 294.54 926 293.77 926 277.22 926 276.85 926 276.08" fill="#414141"/>
						<polygon points="905.01 277.32 901.84 277.32 890.61 277.32 890.61 293.18 901.84 293.18 905.01 293.18 909.96 293.18 924.36 293.18 924.36 277.32" fill="#95B4B9"/>
						<polygon points="888.97 276.08 888.97 276.8 888.97 294.61 890.72 293.05 890.72 277.43 924.25 277.43 926 276.08" fill="#414141"/>
					<polygon opacity=".5" enable-background="new    " points="886.88 282.2 886.88 284.36 892.76 284.36 892.81 284.36 898.64 284.36 898.68 284.36 904.52 284.36 904.57 284.36 910.4 284.36 910.45 284.36 916.28 284.36 916.33 284.36 922.16 284.36 922.21 284.36 928.09 284.36 928.09 282.2" fill="#C9C9C8"/>
						<rect y="272.64" x="886.88" height="9.505" width="5.927" fill="#BA9F56"/>
						<rect y="271.65" x="886.88" height="8.333" width="5.927" fill="#CDAD5E"/>
						<rect y="272.64" x="892.76" height="9.505" width="5.927" fill="#D0C8AC"/>
						<rect y="271.65" x="892.76" height="8.333" width="5.927" fill="#fff"/>
						<rect y="272.64" x="898.64" height="9.505" width="5.928" fill="#BA9F56"/>
						<rect y="271.65" x="898.64" height="8.333" width="5.928" fill="#CDAD5E"/>
						<rect y="272.64" x="904.52" height="9.505" width="5.924" fill="#D0C8AC"/>
						<rect y="271.65" x="904.52" height="8.333" width="5.924" fill="#fff"/>
						<rect y="272.64" x="910.4" height="9.505" width="5.93" fill="#BA9F56"/>
						<rect y="271.65" x="910.4" height="8.333" width="5.93" fill="#CDAD5E"/>
						<rect y="272.64" x="916.28" height="9.505" width="5.929" fill="#D0C8AC"/>
						<rect y="271.65" x="916.28" height="8.333" width="5.929" fill="#fff"/>
						<rect y="272.64" x="922.16" height="9.505" width="5.93" fill="#BA9F56"/>
						<rect y="271.65" x="922.16" height="8.333" width="5.93" fill="#CDAD5E"/>
					<g fill="#516561">
						<polygon points="901.48 291.42 906.48 291.42 906.48 293.23 908.1 293.23 908.1 291.42 913.09 291.42 913.09 289.96 901.48 289.96"/>
						<rect y="285.52" x="916.84" height="7.718" width="1.035"/>
						<rect y="285.52" x="896.61" height="7.718" width="1.034"/>
					</g>
						<rect y="223.56" x="878.24" height="2.51" width="58.49" fill="#3E5427"/>
						<polygon points="936.73 223.56 878.24 223.56 882.79 215.84 932.18 215.84" fill="#576D37"/>
		<rect y="294.61" x="878.21" height="4.053" width="58.525" fill="#D0C8AC"/>
			<polygon points="999.2 304.92 957.19 304.92 957.19 269.34 977.97 242.78 999.2 269.34" fill="#C0864A"/>
			<rect y="301.33" x="957.19" height="3.594" width="42.004" fill="#D0C8AC"/>
						<rect y="289.94" x="963.35" height="6.957" width="6.703" fill="#95B4B9"/>
						<path d="m970.42 297.27h-7.442v-7.696h7.442v7.7zm-6.7-0.74h5.964v-6.217h-5.964v6.22z" fill="#414141"/>
						<rect y="289.94" x="986.9" height="6.957" width="6.702" fill="#95B4B9"/>
						<path d="m993.97 297.27h-7.442v-7.696h7.442v7.7zm-6.7-0.74h5.963v-6.217h-5.963v6.22z" fill="#414141"/>
			<circle cy="258.5" cx="978.34" r="2.802" fill="#95B4B9"/>
			<path d="m978.34 261.67c-1.748 0-3.172-1.423-3.172-3.171s1.424-3.171 3.172-3.171c1.747 0 3.17 1.423 3.17 3.171 0 1.75-1.43 3.17-3.17 3.17zm0-5.6c-1.341 0-2.432 1.091-2.432 2.432s1.092 2.432 2.432 2.432 2.431-1.092 2.431-2.432-1.09-2.43-2.43-2.43z" fill="#414141"/>
					<rect y="271.79" x="961.3" height="7.612" width="7.334" fill="#95B4B9"/>
					<path d="m969 279.77h-8.074v-8.352h8.074v8.35zm-7.33-0.74h6.595v-6.873h-6.595v6.87z" fill="#414141"/>
					<rect y="271.79" x="979.57" height="7.612" width="7.334" fill="#95B4B9"/>
					<path d="m987.28 279.77h-8.073v-8.352h8.073v8.35zm-7.34-0.74h6.595v-6.873h-6.595v6.87z" fill="#414141"/>
					<rect y="271.79" x="988.67" height="7.612" width="7.334" fill="#95B4B9"/>
					<path d="m996.38 279.77h-8.073v-8.352h8.073v8.35zm-7.34-0.74h6.595v-6.873h-6.595v6.87z" fill="#414141"/>
					<rect y="271.79" x="970.39" height="7.612" width="7.334" fill="#95B4B9"/>
					<path d="m978.09 279.77h-8.073v-8.352h8.073v8.35zm-7.33-0.74h6.595v-6.873h-6.595v6.87z" fill="#414141"/>
		<polygon points="958.23 301.33 957.19 301.33 957.19 269.34 958.23 267.96" fill="#D0C8AC"/>
		<polygon points="999.2 301.33 998.16 301.33 998.16 267.96 999.2 269.54" fill="#D0C8AC"/>
		<rect y="283.27" x="957.84" height="1.363" width="40.443" fill="#64431B"/>
		<polygon points="955.92 271.09 949.39 271.09 978.26 236.09 1007 271.06 1000.4 271.09 978.12 244.06" fill="#64431B"/>
		<path d="m982.63 293.94c0-2.708-2.195-4.901-4.902-4.901s-4.902 2.195-4.902 4.901v11.056h9.805l-0.01-11.06z" fill="#64431B"/>
		<rect y="228.6" x="745.78" height="64.887" width="69.175" fill="#868D6B"/>
			<rect y="214.81" x="787.67" height="7.325" width="6.419" fill="#3E5427"/>
			<polygon points="745.82 228.53 814.92 228.53 807.18 220.96 752.62 220.96" fill="#576D37"/>
					<rect y="237.7" x="755.25" height="21.055" width="8.036" fill="#95B4B9"/>
					<path d="m763.65 259.13h-8.775v-21.794h8.775v21.79zm-8.03-0.74h7.297v-20.316h-7.297v20.32z" fill="#414141"/>
				<rect y="233.22" x="759.09" height="25.791" width=".606" fill="#414141"/>
				<rect y="247.02" x="755.2" height=".344" width="8.985" fill="#414141"/>
				<rect y="253.24" x="755.2" height=".345" width="8.985" fill="#414141"/>
				<path d="m752.98 241.5h12.673s0.747-6.825-5.963-7.678c0 0-5.96 0.29-6.71 7.68z" fill="#fff"/>
				<path d="m759.69 233.82s-4.296 0.083-4.598 7.678h2.112c0.01 0-0.15-6.29 2.49-7.68z" fill="#C0864A"/>
				<path d="m759.4 233.82s3.482 0.083 3.693 7.678h-1.94s0.11-6.29-1.75-7.68z" fill="#C0864A"/>
					<rect y="237.7" x="776.52" height="21.055" width="8.034" fill="#95B4B9"/>
					<path d="m784.92 259.13h-8.773v-21.794h8.773v21.79zm-8.04-0.74h7.295v-20.316h-7.295v20.32z" fill="#414141"/>
				<rect y="233.22" x="780.36" height="25.54" width=".601" fill="#414141"/>
				<rect y="247.02" x="776.52" height=".344" width="8.005" fill="#414141"/>
				<rect y="253.24" x="776.52" height=".345" width="8.005" fill="#414141"/>
				<path d="m774.02 241.5h12.674s0.747-6.825-5.962-7.678c0 0-5.96 0.29-6.71 7.68z" fill="#fff"/>
				<path d="m780.88 233.82s-4.298 0.083-4.6 7.678h2.11c0.01 0-0.15-6.29 2.49-7.68z" fill="#C0864A"/>
				<path d="m780.58 233.82s3.481 0.083 3.696 7.678h-1.941s0.1-6.29-1.76-7.68z" fill="#C0864A"/>
					<rect y="237.7" x="797.43" height="21.055" width="8.035" fill="#95B4B9"/>
					<path d="m805.84 259.13h-8.774v-21.794h8.774v21.79zm-8.04-0.74h7.296v-20.316h-7.296v20.32z" fill="#414141"/>
				<rect y="233.22" x="801.17" height="25.54" width=".601" fill="#414141"/>
				<rect y="247.02" x="797.44" height=".344" width="7.882" fill="#414141"/>
				<rect y="253.24" x="797.44" height=".345" width="7.882" fill="#414141"/>
				<path d="m795.06 241.5h12.672s0.745-6.825-5.96-7.678c0 0-5.96 0.29-6.71 7.68z" fill="#fff"/>
				<path d="m801.92 233.82s-4.296 0.083-4.596 7.678h2.11c0.01 0-0.15-6.29 2.49-7.68z" fill="#C0864A"/>
				<path d="m801.62 233.82s3.481 0.083 3.693 7.678h-1.942s0.11-6.29-1.75-7.68z" fill="#C0864A"/>
			<path d="m780.37 274.47h-22.971v19.018h45.942v-19.02h-22.99z" fill="#E5DAC1"/>
			<g fill="#95B4B9">
				<rect y="275.59" x="758.87" height="11.977" width="20.527"/>
				<rect y="275.59" x="780.37" height="11.977" width="21.02"/>
			</g>
			<rect opacity=".5" height="4.066" width="46.083" y="278.11" x="757.38" enable-background="new    " fill="#C9C9C8"/>
				<rect y="267.49" x="756.45" height="11.032" width="6.879" fill="#AD7D42"/>
				<rect y="266.35" x="756.45" height="9.673" width="6.879" fill="#C0864A"/>
				<rect y="267.49" x="763.27" height="11.032" width="6.883" fill="#D0C8AC"/>
				<rect y="266.35" x="763.27" height="9.673" width="6.883" fill="#fff"/>
				<rect y="267.49" x="770.1" height="11.032" width="6.88" fill="#AD7D42"/>
				<rect y="266.35" x="770.1" height="9.673" width="6.88" fill="#C0864A"/>
				<rect y="267.49" x="776.93" height="11.032" width="6.877" fill="#D0C8AC"/>
				<rect y="266.35" x="776.93" height="9.673" width="6.877" fill="#fff"/>
				<rect y="267.49" x="783.76" height="11.032" width="6.884" fill="#AD7D42"/>
				<rect y="266.35" x="783.76" height="9.673" width="6.884" fill="#C0864A"/>
				<rect y="267.49" x="790.58" height="11.032" width="6.883" fill="#D0C8AC"/>
				<rect y="266.35" x="790.58" height="9.673" width="6.883" fill="#fff"/>
				<rect y="267.49" x="797.41" height="11.032" width="6.885" fill="#AD7D42"/>
				<rect y="266.35" x="797.41" height="9.673" width="6.885" fill="#C0864A"/>
			<polygon points="671.67 247.73 675.01 247.73 676.27 240.33 670.41 240.33" fill="#fff"/>
			<path d="m676.18 239.96l-2.281-2.06v-1.336h-1.071v1.336l-2.278 2.06h-1.305v0.724h0.945l1.286 7.306v0.026h1.133v30.454h-1.133v11.326h3.776v-11.326h-1.132v-30.46h1.132v-0.026l1.289-7.306h0.945v-0.724h-1.3v0.01zm-4.49 7.04l-1.116-6.325h2.603v6.325h-1.48zm3.35 0h-1.489v-6.325h2.603l-1.11 6.32z" fill="#414141"/>
			<polygon points="762.21 251.42 765.56 251.42 766.81 244.03 760.96 244.03" fill="#fff"/>
			<path d="m766.72 243.65l-2.281-2.06v-1.336h-1.071v1.336l-2.278 2.06h-1.305v0.724h0.945l1.286 7.306v0.026h1.133v30.454h-1.133v11.326h3.776v-11.33h-1.132v-30.454h1.132v-0.026l1.289-7.306h0.945v-0.724h-1.3zm-4.49 7.05l-1.116-6.325h2.603v6.325h-1.48zm3.35 0h-1.489v-6.325h2.602l-1.11 6.32z" fill="#414141"/>
			<polygon points="852.76 253.64 856.1 253.64 857.36 246.25 851.5 246.25" fill="#fff"/>
			<path d="m857.27 245.87l-2.281-2.06v-1.336h-1.071v1.336l-2.278 2.06h-1.305v0.724h0.945l1.286 7.306v0.026h1.133v30.454h-1.133v11.326h3.776v-11.326h-1.132v-30.454h1.132v-0.026l1.289-7.306h0.945v-0.724h-1.31zm-4.5 7.05l-1.116-6.325h2.603v6.325h-1.48zm3.36 0h-1.489v-6.325h2.602l-1.11 6.32z" fill="#414141"/>
			<polygon points="943.3 257.34 946.64 257.34 947.9 249.94 942.04 249.94" fill="#fff"/>
			<path d="m947.81 249.56l-2.281-2.06v-1.336h-1.071v1.336l-2.278 2.06h-1.305v0.724h0.945l1.286 7.306v0.026h1.133v30.454h-1.133v11.33h3.776v-11.326h-1.132v-30.45h1.132v-0.026l1.289-7.306h0.945v-0.724h-1.31zm-4.49 7.05l-1.116-6.325h2.603v6.325h-1.48zm3.35 0h-1.489v-6.325h2.603l-1.11 6.33z" fill="#414141"/>
			<polygon points="1033.8 263.25 1037.2 263.25 1038.4 255.86 1032.6 255.86" fill="#fff"/>
			<path d="m1038.4 255.48l-2.281-2.06v-1.336h-1.1v1.336l-2.278 2.06h-1.305v0.724h0.945l1.286 7.306v0.026h1.133v30.454h-1.133v11.326h3.776v-11.326h-1.132v-30.454h1.132v-0.026l1.289-7.306h0.945v-0.724h-1.2zm-4.5 7.05l-1.116-6.325h2.603v6.325h-1.5zm3.3 0h-1.489v-6.325h2.603l-1.1 6.33z" fill="#414141"/>
		<g fill="#414141">
			<rect y="290.37" x="734.62" height="2.79" width="1.918"/>
			<rect y="290.37" x="740.72" height="2.79" width="1.918"/>
		</g>
			<rect y="274.68" x="732.18" height="16.216" width="12.903" fill="#414141"/>
			<rect y="276.64" x="734.14" height="12.297" width="8.984" fill="#E5DAC1"/>
			<g id="sample_text_10_" fill="#AAA491">
				<rect y="278.55" x="735.31" height=".665" width="6.621"/>
				<rect y="280.58" x="735.31" height=".665" width="6.621"/>
				<rect y="282.62" x="735.31" height=".665" width="6.621"/>
				<rect y="284.65" x="735.31" height=".665" width="6.621"/>
			</g>
		<rect y="294.5" x="1020.6" height="10.167" width="1.831" fill="#65442C"/>
		<path d="m1021.6 271.09c-3.986 0-7.216 3.232-7.216 7.218v10.785c0 3.988 3.231 7.216 7.216 7.216 3.987 0 7.215-3.227 7.215-7.216v-10.79c0-3.99-3.3-7.22-7.2-7.22z" fill="#838342"/>
</g>
</svg>
