<?xml version="1.0" encoding="utf-8"?>
<!-- Generator: Adobe Illustrator 17.0.0, SVG Export Plug-In . SVG Version: 6.00 Build 0)  -->
<!DOCTYPE svg PUBLIC "-//W3C//DTD SVG 1.1//EN" "http://www.w3.org/Graphics/SVG/1.1/DTD/svg11.dtd">
<svg version="1.1" id="Capa_1" xmlns="http://www.w3.org/2000/svg" xmlns:xlink="http://www.w3.org/1999/xlink" x="0px" y="0px"
	 width="1100px" height="300px" viewBox="0 0 1100 300" enable-background="new 0 0 1100 300" xml:space="preserve">
<g id="campo">
	<path fill="#A5B051" d="M-554.353,179.151c687.587-81.058,1412.86-81.049,2100.448,0c0,40.497,0,80.995,0,121.493
		c-700.149,0-1400.297,0-2100.448,0C-554.353,260.147-554.353,219.649-554.353,179.151z"/>
</g>
<path id="camino" fill="#E8E6E5" d="M477.275,302.999H338.294c55.369-41.579-208.502-45.85-274.9-90.138
	C9.35,176.827,11.45,145.794,18.579,130.487c6.148-0.891,13.338-0.913,19.547-1.724c-6.99,12.463-12.499,37.388,30.489,63.192
	c60.973,36.592,196.838,24.394,344.902,55.756C462.746,258.139,478.238,279.442,477.275,302.999z"/>
<g>
	<polygon fill="#A09999" points="267.476,245.887 255.244,248.657 304.518,266.317 319.177,262.997 	"/>
	<g>
		<polygon fill="none" points="298.314,237.088 300.533,247.106 298.313,237.088 		"/>
		<polygon fill="none" points="295.38,246.633 288.375,244.571 288.377,244.57 		"/>
		<polygon fill="none" points="316.926,252.971 316.925,252.971 316.926,252.969 		"/>
		<polygon fill="none" points="308.625,229.259 316.259,223.476 308.633,229.259 		"/>
		<polygon fill="none" points="299.606,247.876 299.214,246.107 299.607,247.876 		"/>
		<polygon fill="#C38281" points="296.216,237.475 296.216,237.476 275.22,231.85 		"/>
		<polygon fill="#BB903F" points="288.377,244.57 288.375,244.571 265.68,237.894 273.971,232.641 275.836,240.877 		"/>
		<polygon fill="#C38281" points="298.314,237.087 298.314,237.088 298.313,237.088 298.309,237.074 308.625,229.259 
			308.633,229.259 		"/>
		<polygon fill="#C38281" points="297.371,237.785 297.371,237.784 297.371,237.784 		"/>
		<polygon fill="#C38281" points="319.147,262.996 319.147,262.995 319.148,262.995 		"/>
		<path fill="#C7A562" d="M316.928,252.971l2.22,10.025l20.302-19.439l-1.994-8.804v0.001l0,0l-20.531,18.217l0.001,0.002
			L316.928,252.971z M335.52,240.579c-0.332-1.466-0.068-2.774,0.59-2.923c0.659-0.149,1.461,0.918,1.793,2.384
			s0.067,2.774-0.591,2.923C336.653,243.112,335.852,242.045,335.52,240.579z M319.147,255.04c-0.371-1.636-0.033-3.104,0.753-3.282
			c0.786-0.178,1.723,1.002,2.093,2.637c0.371,1.636,0.033,3.106-0.752,3.284C320.455,257.856,319.517,256.676,319.147,255.04z"/>
		<polygon fill="#D7D5DA" points="300.533,247.106 298.314,237.088 298.314,237.088 298.314,237.087 308.633,229.259 
			316.259,223.476 316.991,222.921 318.985,231.724 318.404,232.208 		"/>
		<path fill="#BB903F" d="M265.679,237.894l0.002-0.001l22.695,6.677l7.004,2.062l3.043,0.895l-2.207-10.051l-0.001-0.001
			l1.155,0.309l0.001,0.001h0.001l1.842,8.322l0.392,1.768h0.001h0.001l-0.001,0.001l17.317,5.094l0,0h0.001l0.002-0.001
			l2.22,10.025h-0.001l-12.283-4.068c-0.066-1.199-0.391-2.492-0.992-3.713c-1.509-3.064-4.164-4.5-5.929-3.207
			c-1.056,0.772-1.55,2.347-1.457,4.143l-15.618-5.173c-0.037-1.257-0.365-2.632-1.002-3.926c-1.51-3.065-4.164-4.5-5.929-3.208
			c-1.098,0.805-1.592,2.474-1.447,4.359l-7.002-2.32L265.679,237.894z"/>
		
			<ellipse transform="matrix(-0.2209 -0.9753 0.9753 -0.2209 142.9521 623.6242)" fill="#D7D5DA" cx="320.562" cy="254.715" rx="3.035" ry="1.459"/>
		
			<ellipse transform="matrix(-0.2209 -0.9753 0.9753 -0.2209 176.7105 621.7735)" fill="#D7D5DA" cx="336.702" cy="240.306" rx="2.721" ry="1.222"/>
		<polygon fill="#DFDFE2" points="275.22,231.85 296.216,237.476 298.423,247.528 295.38,246.633 288.377,244.57 275.836,240.877 
			273.971,232.641 273.699,231.442 273.821,231.476 		"/>
		<polygon fill="#D2B881" points="316.926,252.969 316.925,252.971 316.925,252.971 299.608,247.877 299.609,247.876 
			299.607,247.876 299.214,246.107 297.373,237.785 297.371,237.785 297.371,237.784 297.371,237.784 296.216,237.475 
			275.22,231.85 273.821,231.476 273.699,231.442 293.332,219.089 316.992,222.92 316.991,222.921 316.259,223.476 308.625,229.259 
			298.309,237.074 298.313,237.088 300.533,247.106 318.404,232.208 318.985,231.724 337.457,234.753 337.457,234.753 		"/>
		<path fill="#726D6C" d="M299.943,252.007c1.765-1.293,4.42,0.143,5.929,3.207c0.601,1.221,0.926,2.514,0.992,3.713
			c0.101,1.809-0.393,3.399-1.455,4.178c-1.765,1.292-4.419-0.143-5.93-3.208c-0.607-1.233-0.931-2.538-0.993-3.745
			C298.393,254.355,298.887,252.78,299.943,252.007z"/>
		<path fill="#726D6C" d="M275.936,243.844c1.765-1.292,4.42,0.143,5.929,3.208c0.637,1.294,0.965,2.668,1.002,3.926
			c0.051,1.72-0.445,3.217-1.466,3.964c-1.765,1.294-4.419-0.142-5.929-3.207c-0.571-1.159-0.896-2.387-0.984-3.532
			C274.345,246.317,274.838,244.648,275.936,243.844z"/>
	</g>
</g>
<path fill="#644234" d="M206.394,183.256c-0.298-0.52-0.962-0.703-1.482-0.402l-13.934,7.993v-3.915
	c0-0.599-0.486-1.086-1.086-1.086s-1.086,0.486-1.086,1.086v5.038l-18.817,7.062v-4.139c0-0.599-0.486-1.086-1.086-1.086
	s-1.086,0.486-1.086,1.086v4.162L149,189.871v-4.387c0-0.599-0.486-1.086-1.086-1.086s-1.086,0.486-1.086,1.086v4.146l-23.884,3.981
	v-5.956c0-0.599-0.486-1.086-1.086-1.086s-1.086,0.486-1.086,1.086v5.51l-17.37-8.364v-5.107c0-0.599-0.486-1.086-1.086-1.086
	s-1.086,0.486-1.086,1.086v2.311l-6.514-9.417v-5.921c0-0.599-0.486-1.086-1.086-1.086s-1.086,0.486-1.086,1.086v3.287
	c-0.287-0.066-0.598-0.019-0.858,0.163c-0.494,0.341-0.617,1.017-0.276,1.51l1.134,1.64v4.979c0,0.599,0.486,1.086,1.086,1.086
	s1.086-0.486,1.086-1.086v-1.841l6.514,9.418v5.451c0,0.599,0.486,1.086,1.086,1.086s1.086-0.486,1.086-1.086v-4.062l17.37,8.363
	v3.66c0,0.599,0.486,1.086,1.086,1.086s1.086-0.486,1.086-1.086v-3.423l23.884-3.981v5.232c0,0.599,0.486,1.086,1.086,1.086
	s1.086-0.486,1.086-1.086v-4.776l18.817,9.183v5.002c0,0.599,0.486,1.086,1.086,1.086s1.086-0.486,1.086-1.086v-5.123l18.817-7.062
	v4.223c0,0.599,0.486,1.086,1.086,1.086s1.086-0.486,1.086-1.086v-5.177l15.016-8.597
	C206.513,184.439,206.693,183.776,206.394,183.256z"/>
<g>
	<g>
		<path fill="none" d="M137.05,154.931c0.007,0.052,0.002,0.109,0.02,0.155c0.088,0.232,0.339,0.38,0.748,0.439
			c0.724,0.103,1.206-0.391,1.296-0.937c0.069-0.421-0.106-0.939-0.727-1.251C138.289,154.063,137.76,154.575,137.05,154.931z"/>
		<path fill="#363739" d="M138.338,152.539c0.051,0.177,0.08,0.364,0.08,0.566c0,0.083-0.021,0.156-0.031,0.234
			c0.622,0.311,0.797,0.829,0.727,1.251c-0.09,0.546-0.572,1.039-1.296,0.937c-0.408-0.059-0.66-0.208-0.748-0.439
			c-0.017-0.046-0.013-0.104-0.02-0.155c-0.217,0.109-0.45,0.2-0.691,0.283c0.012,0.043,0.018,0.087,0.034,0.128
			c0.13,0.342,0.463,0.774,1.32,0.9c0.106,0.015,0.208,0.022,0.307,0.022c1.01,0,1.677-0.763,1.809-1.557
			C139.966,153.875,139.541,152.936,138.338,152.539z"/>
		<path fill="#FFFFFF" d="M138.387,153.339c0.011-0.077,0.031-0.151,0.031-0.234c0-0.202-0.03-0.389-0.08-0.566
			c-0.693-2.423-5.847-2.537-7.599-2.503c-0.834-1.225-0.971-3.253-0.971-3.253c-0.989,1.704-0.614,3.072-0.18,3.874
			c-0.612-0.159-1.702-0.168-2.427,1.395c0,0,0.833,0.571,1.734,0.502l-0.548,1.084h-10.483c-0.355,0-0.685,0.028-0.98,0.18
			c0.244-0.06,0.593-0.18,0.96-0.18c0.935,0,2.236,0,2.236,0c0.008,0,0.02,0.199,0.02,0.269c0,0.99-0.803,1.827-1.794,1.827
			c-1.822,0-1.752-1.686-1.752-1.732c0-0.004,0.009-0.002,0.014-0.007c-0.787,0.02-1.931,0.253-2.484,1.329
			c-0.289,0.562-0.911,0.937-1.625,0.947c-0.318,0.001-0.608-0.066-0.872-0.177c-0.09,0.168-0.238,0.333-0.471,0.484
			c-0.08,0.052-0.155,0.085-0.229,0.114c0.441,0.342,0.975,0.565,1.545,0.565c0.012,0,0.024,0,0.035,0
			c0.982,0,1.848-0.664,2.26-1.466c0.254-0.494,0.718-0.755,1.18-0.893c-0.126,0.274-0.2,0.575-0.2,0.896v4.358v0.016v8.669h2.171
			v-6.514h8.685v6.514h2.171v-6.514h0.016c0.958,0,1.76-0.63,2.04-1.494l0.193,0.274l1.804-5.338c0,0,1.962-0.004,3.57-0.554
			c0.24-0.083,0.474-0.174,0.691-0.283C137.76,154.575,138.289,154.063,138.387,153.339z M122.188,161.535
			c-1.297,0-2.349-1.051-2.349-2.348c0-1.297,1.052-2.348,2.349-2.348c1.298,0,2.349,1.051,2.349,2.348
			C124.537,160.484,123.486,161.535,122.188,161.535z M128.844,158.873c-0.929,0-1.683-0.753-1.683-1.683
			c0-0.929,0.753-1.683,1.683-1.683c0.93,0,1.683,0.753,1.683,1.683S129.774,158.873,128.844,158.873z M132.407,154.019
			c-0.692,0-1.252-0.559-1.252-1.252c0-0.691,0.561-1.252,1.252-1.252c0.692,0,1.254,0.561,1.254,1.252
			C133.66,153.459,133.099,154.019,132.407,154.019z"/>
		<path fill="#363739" d="M111.588,156.095c0.512-0.951-1.057-2.045-2.436-1.943c0,0,0.371,3.086,1.736,2.542
			c0.074-0.03,0.149-0.062,0.229-0.114C111.35,156.427,111.498,156.263,111.588,156.095z"/>
		<path fill="#363739" d="M118.306,155.767c0.991,0,1.794-0.869,1.794-1.859c0-0.069-0.013-0.269-0.02-0.269c0,0-1.301,0-2.236,0
			c-0.366,0-0.716,0.12-0.96,0.18c-0.171,0.043-0.286,0.119-0.316,0.151c-0.005,0.005-0.014,0.028-0.014,0.032
			C116.554,154.048,116.483,155.767,118.306,155.767z"/>
		<circle fill="#363739" cx="122.188" cy="159.187" r="2.348"/>
		<circle fill="#363739" cx="128.844" cy="157.19" r="1.683"/>
		<circle fill="#363739" cx="132.407" cy="152.767" r="1.252"/>
	</g>
	<g>
		<path fill="none" d="M144.681,162.951c0.09,0.546,0.568,1.044,1.296,0.936c0.408-0.059,0.66-0.207,0.748-0.439
			c0.017-0.046,0.013-0.103,0.02-0.155c-0.71-0.356-1.238-0.868-1.337-1.593C144.786,162.01,144.611,162.529,144.681,162.951z"/>
		<path fill="#363739" d="M146.724,163.447c-0.088,0.232-0.339,0.38-0.748,0.439c-0.728,0.107-1.206-0.39-1.296-0.936
			c-0.069-0.421,0.106-0.94,0.727-1.251c-0.011-0.077-0.031-0.15-0.031-0.233c0-0.203,0.03-0.39,0.08-0.567
			c-1.204,0.397-1.628,1.336-1.491,2.168c0.132,0.794,0.798,1.557,1.808,1.557c0.099,0,0.201-0.008,0.307-0.022
			c0.857-0.124,1.191-0.557,1.32-0.899c0.016-0.042,0.022-0.085,0.034-0.128c-0.241-0.083-0.474-0.174-0.691-0.283
			C146.738,163.344,146.742,163.401,146.724,163.447z"/>
		<path fill="#FFFFFF" d="M172.186,164.413c-0.259,0.114-0.543,0.185-0.85,0.18c-0.714-0.009-1.336-0.367-1.625-0.929
			c-0.56-1.09-1.727-1.309-2.515-1.323c0.027,0.015,0.046,0.028,0.046,0.039c0,0.046,0.07,1.749-1.752,1.749
			c-0.991,0-1.794-0.803-1.794-1.794c0-0.004,0.001-0.007,0.001-0.011h-8.084l-0.711-1.41c0.901,0.069,1.734-0.502,1.734-0.502
			c-0.724-1.563-1.815-1.554-2.427-1.395c0.435-0.802,0.809-2.17-0.18-3.875c0,0-0.136,2.029-0.971,3.253
			c-1.752-0.033-6.905,0.08-7.599,2.503c-0.051,0.177-0.08,0.364-0.08,0.567c0,0.083,0.021,0.155,0.031,0.233
			c0.098,0.724,0.626,1.237,1.337,1.593c0.217,0.109,0.45,0.2,0.691,0.283c1.608,0.549,3.57,0.554,3.57,0.554l1.62,4.795
			c0.038,1.158,0.981,2.086,2.148,2.086h0.017v6.514h2.171v-6.514h8.685v6.514h2.171v-8.669v-0.015v-4.358
			c0-0.553-0.214-1.052-0.557-1.433c0.608,0.015,1.432,0.179,1.805,0.905c0.412,0.801,1.278,1.268,2.26,1.268
			c0.012,0,0.024,0,0.035,0c0.465,0,0.906-0.106,1.293-0.298C172.417,164.761,172.268,164.59,172.186,164.413z M151.388,162.38
			c-0.692,0-1.254-0.56-1.254-1.252c0-0.691,0.561-1.252,1.254-1.252c0.692,0,1.252,0.561,1.252,1.252
			C152.641,161.82,152.08,162.38,151.388,162.38z M153.269,165.552c0-0.929,0.753-1.683,1.683-1.683
			c0.929,0,1.683,0.753,1.683,1.683c0,0.929-0.753,1.683-1.683,1.683C154.022,167.234,153.269,166.481,153.269,165.552z
			 M161.607,169.896c-1.298,0-2.349-1.052-2.349-2.348c0-1.297,1.052-2.349,2.349-2.349s2.349,1.052,2.349,2.349
			C163.955,168.845,162.904,169.896,161.607,169.896z"/>
		<path fill="#363739" d="M172.186,164.413c0.083,0.177,0.232,0.348,0.469,0.508c0.009,0.006,0.014,0.013,0.024,0.018
			c1.555,1.01,1.965-2.427,1.965-2.427C173.285,162.413,171.742,163.473,172.186,164.413z"/>
		<path fill="#363739" d="M165.489,164.129c1.822,0,1.752-1.703,1.752-1.749c0-0.011-0.019,0.072-0.046,0.057
			c-0.151-0.081-0.68-0.113-1.244-0.113c-0.935,0-2.236,0-2.236,0c-0.007,0-0.018,0.03-0.02,0.096c0,0.004-0.001-0.041-0.001-0.038
			C163.695,163.373,164.498,164.129,165.489,164.129z"/>
		<circle fill="#363739" cx="161.607" cy="167.548" r="2.349"/>
		<circle fill="#363739" cx="154.951" cy="165.552" r="1.683"/>
		<circle fill="#363739" cx="151.388" cy="161.128" r="1.252"/>
	</g>
	<g>
		<path fill="none" d="M141.851,168.442c0.007,0.051,0.002,0.109,0.02,0.155c0.088,0.232,0.339,0.38,0.748,0.439
			c0.72,0.114,1.209-0.404,1.296-0.937c0.069-0.421-0.106-0.939-0.727-1.25C143.089,167.573,142.562,168.086,141.851,168.442z"/>
		<path fill="#363739" d="M143.138,166.05c0.051,0.177,0.08,0.364,0.08,0.566c0,0.083-0.021,0.156-0.031,0.233
			c0.622,0.311,0.797,0.829,0.727,1.25c-0.088,0.533-0.576,1.05-1.296,0.937c-0.408-0.059-0.66-0.207-0.748-0.439
			c-0.017-0.046-0.014-0.104-0.02-0.155c-0.217,0.109-0.45,0.2-0.691,0.284c0.012,0.043,0.018,0.086,0.034,0.128
			c0.13,0.342,0.463,0.774,1.32,0.9c0.106,0.015,0.208,0.022,0.307,0.022c1.01,0,1.677-0.764,1.809-1.558
			C144.766,167.384,144.342,166.446,143.138,166.05z"/>
		<path fill="#FFFFFF" d="M143.188,166.849c0.011-0.078,0.031-0.151,0.031-0.233c0-0.202-0.03-0.389-0.08-0.566
			c-0.693-2.423-5.847-2.537-7.599-2.503c-0.834-1.225-0.971-3.253-0.971-3.253c-0.989,1.704-0.614,3.072-0.18,3.874
			c-0.612-0.158-1.702-0.168-2.427,1.395c0,0,0.833,0.571,1.734,0.502l-0.669,1.325h-8.136c0.004,0.031,0.009,0.062,0.009,0.094
			c0,0.99-0.803,1.793-1.793,1.793c-1.822,0-1.752-1.703-1.752-1.749c0-0.01,0.015-0.022,0.038-0.035
			c-0.788,0.012-1.95,0.228-2.508,1.314c-0.289,0.562-0.911,0.905-1.625,0.913c-0.297-0.006-0.575-0.081-0.832-0.195
			c-0.072,0.174-0.214,0.344-0.434,0.502c0.374,0.166,0.795,0.255,1.239,0.255c0.012,0,0.024,0,0.035,0
			c0.982,0,1.848-0.427,2.26-1.227c0.358-0.698,1.135-0.856,1.734-0.863c-0.301,0.371-0.489,0.837-0.489,1.351v4.36v0.016v8.669
			h2.171v-6.514h8.685v6.514h1.447v-6.514h0.74c1.121,0,2.032-0.86,2.135-1.953l1.637-4.843c0,0,1.962-0.005,3.57-0.554
			c0.24-0.083,0.474-0.174,0.691-0.284C142.562,168.086,143.089,167.573,143.188,166.849z M126.989,175.046
			c-1.297,0-2.349-1.052-2.349-2.348c0-1.297,1.052-2.349,2.349-2.349s2.349,1.052,2.349,2.349
			C129.337,173.994,128.286,175.046,126.989,175.046z M133.644,172.384c-0.929,0-1.683-0.753-1.683-1.683
			c0-0.929,0.753-1.683,1.683-1.683s1.683,0.753,1.683,1.683C135.327,171.63,134.574,172.384,133.644,172.384z M137.207,167.53
			c-0.691,0-1.252-0.559-1.252-1.252c0-0.691,0.561-1.252,1.252-1.252c0.693,0,1.254,0.561,1.254,1.252
			C138.46,166.97,137.899,167.53,137.207,167.53z"/>
		<path fill="#363739" d="M116.428,169.528c0.389-0.931-1.134-1.964-2.476-1.865c0,0,0.41,3.437,1.965,2.427
			c0.03-0.019,0.05-0.041,0.077-0.06C116.214,169.872,116.355,169.702,116.428,169.528z"/>
		<path fill="#363739" d="M121.354,167.53c0,0.046-0.07,1.749,1.752,1.749c0.991,0,1.793-0.803,1.793-1.793
			c0-0.032-0.006-0.009-0.009-0.04c-0.004-0.036-0.007-0.054-0.011-0.054c0,0-1.301,0-2.236,0c-0.571,0-1.109,0.077-1.251,0.159
			C121.369,167.562,121.354,167.52,121.354,167.53z"/>
		<circle fill="#363739" cx="126.989" cy="172.697" r="2.349"/>
		<circle fill="#363739" cx="133.644" cy="170.701" r="1.683"/>
		<circle fill="#363739" cx="137.207" cy="166.278" r="1.252"/>
	</g>
</g>
</svg>
