<?xml version="1.0" encoding="utf-8"?>
<!-- Generator: Adobe Illustrator 17.0.0, SVG Export Plug-In . SVG Version: 6.00 Build 0)  -->
<!DOCTYPE svg PUBLIC "-//W3C//DTD SVG 1.1//EN" "http://www.w3.org/Graphics/SVG/1.1/DTD/svg11.dtd">
<svg version="1.1" id="Capa_1" xmlns="http://www.w3.org/2000/svg" xmlns:xlink="http://www.w3.org/1999/xlink" x="0px" y="0px"
	 width="1920px" height="500px" viewBox="0 0 1920 500" enable-background="new 0 0 1920 500" xml:space="preserve">
<g id="campo">
	<path fill="#A5B051" d="M-549.38,326.559c993.347-117.104,2041.14-117.091,3034.489,0c0,58.506,0,117.013,0,175.519
		c-1011.496,0-2022.991,0-3034.489,0C-549.38,443.573-549.38,385.065-549.38,326.559z"/>
</g>
<path id="camino" fill="#E9E8E8" d="M696.095,502.956H507.516c75.129-56.417-282.91-62.212-373.004-122.305
	c-73.33-48.893-70.481-91.001-60.808-111.771c8.342-1.209,18.098-1.239,26.523-2.339c-9.484,16.91-16.959,50.731,41.369,85.743
	c82.732,49.65,267.084,33.1,467.987,75.653C676.381,442.087,697.402,470.992,696.095,502.956z"/>
<g>
	<polygon fill="#A39C9B" points="417.698,426.458 400.797,430.286 468.879,454.686 489.133,450.099 	"/>
	<g>
		<polygon fill="none" points="460.306,414.301 463.372,428.143 460.305,414.301 		"/>
		<polygon fill="none" points="456.253,427.489 446.574,424.64 446.576,424.639 		"/>
		<polygon fill="none" points="486.022,436.247 486.021,436.246 486.022,436.244 		"/>
		<polygon fill="none" points="474.553,403.483 485.101,395.493 474.564,403.484 		"/>
		<polygon fill="none" points="462.092,429.206 461.55,426.763 462.093,429.206 		"/>
		<polygon fill="#D68C8B" points="457.407,414.835 457.408,414.837 428.398,407.064 		"/>
		<polygon fill="#CC9C3C" points="446.576,424.639 446.574,424.64 415.216,415.414 426.672,408.157 429.249,419.536 		"/>
		<polygon fill="#D68C8B" points="460.306,414.3 460.306,414.301 460.305,414.301 460.3,414.281 474.553,403.483 474.564,403.484 		
			"/>
		<polygon fill="#D68C8B" points="459.004,415.264 459.003,415.262 459.004,415.262 		"/>
		<polygon fill="#D68C8B" points="489.091,450.098 489.091,450.097 489.093,450.097 		"/>
		<path fill="#D6B064" d="M486.025,436.246l3.068,13.851l28.052-26.859l-2.755-12.165v0.002l0,0l-28.368,25.17l0.001,0.003
			L486.025,436.246z M511.714,419.125c-0.459-2.025-0.094-3.833,0.815-4.039c0.91-0.206,2.019,1.268,2.478,3.294
			c0.459,2.025,0.093,3.833-0.817,4.039C513.28,422.624,512.172,421.15,511.714,419.125z M489.091,439.105
			c-0.512-2.26-0.046-4.289,1.04-4.535s2.381,1.385,2.892,3.644c0.512,2.26,0.046,4.292-1.039,4.537
			S489.603,441.366,489.091,439.105z"/>
		<polygon fill="#D9D8DE" points="463.372,428.143 460.306,414.301 460.306,414.301 460.306,414.3 474.564,403.484 485.101,395.493 
			486.113,394.726 488.868,406.89 488.065,407.558 		"/>
		<path fill="#CC9C3C" d="M415.214,415.414l0.003-0.001l31.358,9.226l9.678,2.849l4.205,1.237l-3.05-13.888l-0.001-0.002
			l1.596,0.427l0.001,0.001h0.002l2.545,11.499l0.541,2.443h0.002h0.002l-0.001,0.002l23.927,7.038l0,0h0.002l0.003-0.001
			l3.068,13.851h-0.002l-16.972-5.621c-0.091-1.656-0.54-3.443-1.37-5.13c-2.085-4.234-5.753-6.218-8.192-4.431
			c-1.459,1.067-2.142,3.243-2.013,5.725l-21.58-7.148c-0.051-1.737-0.504-3.636-1.384-5.425c-2.086-4.235-5.753-6.217-8.192-4.432
			c-1.517,1.112-2.2,3.418-2,6.023l-9.674-3.205L415.214,415.414z"/>
		
			<ellipse transform="matrix(0.9753 -0.2209 0.2209 0.9753 -84.7678 119.3076)" fill="#D9D8DE" cx="491.045" cy="438.654" rx="2.016" ry="4.194"/>
		
			<ellipse transform="matrix(0.9753 -0.2209 0.2209 0.9753 -79.8191 123.7421)" fill="#D9D8DE" cx="513.346" cy="418.745" rx="1.689" ry="3.759"/>
		<polygon fill="#E1E1E5" points="428.398,407.064 457.408,414.837 460.457,428.726 456.253,427.489 446.576,424.639 
			429.249,419.536 426.672,408.157 426.296,406.5 426.465,406.547 		"/>
		<polygon fill="#E0C488" points="486.022,436.244 486.021,436.246 486.021,436.246 462.094,429.208 462.095,429.206 
			462.093,429.206 461.55,426.763 459.006,415.264 459.004,415.264 459.004,415.262 459.003,415.262 457.407,414.835 
			428.398,407.064 426.465,406.547 426.296,406.5 453.423,389.431 486.114,394.725 486.113,394.726 485.101,395.493 
			474.553,403.483 460.3,414.281 460.305,414.301 463.372,428.143 488.065,407.558 488.868,406.89 514.39,411.074 514.39,411.074 		
			"/>
		<path fill="#726E6E" d="M462.557,434.915c2.439-1.787,6.107,0.197,8.192,4.431c0.83,1.687,1.279,3.474,1.37,5.13
			c0.139,2.499-0.543,4.696-2.011,5.773c-2.439,1.785-6.106-0.198-8.193-4.433c-0.838-1.703-1.286-3.507-1.372-5.175
			C460.415,438.158,461.098,435.982,462.557,434.915z"/>
		<path fill="#726E6E" d="M429.387,423.635c2.439-1.785,6.107,0.198,8.192,4.432c0.88,1.788,1.333,3.687,1.384,5.425
			c0.071,2.377-0.615,4.445-2.025,5.477c-2.439,1.788-6.106-0.196-8.192-4.431c-0.789-1.602-1.238-3.298-1.36-4.88
			C427.188,427.053,427.87,424.746,429.387,423.635z"/>
	</g>
</g>
<path fill="#664436" d="M401.301,295.921c-0.412-0.719-1.329-0.971-2.048-0.555L380,306.41V301c0-0.828-0.671-1.5-1.5-1.5
	s-1.5,0.672-1.5,1.5v6.961l-26,9.758V312c0-0.828-0.671-1.5-1.5-1.5s-1.5,0.672-1.5,1.5v5.751l-26-12.689V299
	c0-0.828-0.671-1.5-1.5-1.5s-1.5,0.672-1.5,1.5v5.729l-33,5.5V302c0-0.828-0.671-1.5-1.5-1.5s-1.5,0.672-1.5,1.5v7.613l-24-11.557
	V291c0-0.828-0.671-1.5-1.5-1.5s-1.5,0.672-1.5,1.5v3.193l-9-13.012V273c0-0.828-0.671-1.5-1.5-1.5s-1.5,0.672-1.5,1.5v4.542
	c-0.396-0.091-0.826-0.026-1.186,0.225c-0.682,0.471-0.852,1.405-0.381,2.087L244,282.12V289c0,0.828,0.671,1.5,1.5,1.5
	s1.5-0.672,1.5-1.5v-2.544l9,13.013V307c0,0.828,0.671,1.5,1.5,1.5s1.5-0.672,1.5-1.5v-5.612l24,11.555V318
	c0,0.828,0.671,1.5,1.5,1.5s1.5-0.672,1.5-1.5v-4.729l33-5.5V315c0,0.828,0.671,1.5,1.5,1.5s1.5-0.672,1.5-1.5v-6.599l26,12.688V328
	c0,0.828,0.671,1.5,1.5,1.5s1.5-0.672,1.5-1.5v-7.078l26-9.757V317c0,0.828,0.671,1.5,1.5,1.5s1.5-0.672,1.5-1.5v-7.153
	l20.747-11.879C401.465,297.556,401.713,296.64,401.301,295.921z"/>
<g>
	<g>
		<path fill="none" d="M305.488,256.784c0.009,0.072,0.003,0.151,0.027,0.214c0.122,0.321,0.469,0.525,1.033,0.607
			c1,0.142,1.666-0.54,1.791-1.294c0.096-0.582-0.146-1.298-1.005-1.728C307.199,255.585,306.469,256.293,305.488,256.784z"/>
		<path fill="#38393B" d="M307.267,253.48c0.07,0.244,0.111,0.503,0.111,0.782c0,0.115-0.029,0.215-0.043,0.323
			c0.859,0.43,1.101,1.146,1.005,1.728c-0.125,0.754-0.791,1.436-1.791,1.294c-0.564-0.082-0.912-0.287-1.033-0.607
			c-0.024-0.063-0.018-0.143-0.027-0.214c-0.3,0.15-0.622,0.277-0.955,0.391c0.016,0.059,0.025,0.12,0.047,0.177
			c0.179,0.472,0.64,1.07,1.824,1.243c0.146,0.021,0.287,0.031,0.424,0.031c1.395,0,2.317-1.054,2.499-2.151
			C309.517,255.325,308.93,254.028,307.267,253.48z"/>
		<path fill="#FFFFFF" d="M307.335,254.585c0.015-0.107,0.043-0.208,0.043-0.323c0-0.279-0.042-0.538-0.111-0.782
			c-0.958-3.348-8.079-3.505-10.5-3.459c-1.153-1.692-1.341-4.494-1.341-4.494c-1.366,2.355-0.849,4.244-0.249,5.353
			c-0.845-0.219-2.352-0.232-3.353,1.928c0,0,1.151,0.789,2.396,0.694L293.463,255h-14.485c-0.49,0-0.946,0.039-1.354,0.249
			c0.337-0.083,0.82-0.249,1.326-0.249c1.292,0,3.09,0,3.09,0c0.011,0,0.028,0.275,0.028,0.371c0,1.368-1.11,2.524-2.479,2.524
			c-2.518,0-2.421-2.33-2.421-2.393c0-0.006,0.013-0.003,0.02-0.01c-1.088,0.028-2.668,0.35-3.432,1.836
			c-0.399,0.776-1.259,1.295-2.245,1.308c-0.439,0.001-0.84-0.091-1.205-0.244c-0.125,0.232-0.329,0.46-0.651,0.669
			c-0.11,0.072-0.214,0.117-0.316,0.158c0.609,0.473,1.347,0.781,2.135,0.781c0.017,0,0.033,0,0.049,0
			c1.357,0,2.554-0.918,3.123-2.025c0.351-0.683,0.992-1.043,1.631-1.234c-0.174,0.378-0.277,0.794-0.277,1.238V264v0.022V276h3v-9
			h12v9h3v-9h0.022c1.323,0,2.432-0.87,2.819-2.064l0.267,0.379l2.493-7.375c0,0,2.711-0.006,4.933-0.765
			c0.332-0.114,0.655-0.241,0.955-0.391C306.469,256.293,307.199,255.585,307.335,254.585z M284.953,265.909
			c-1.792,0-3.245-1.452-3.245-3.244s1.453-3.244,3.245-3.244c1.793,0,3.245,1.452,3.245,3.244S286.746,265.909,284.953,265.909z
			 M294.149,262.231c-1.284,0-2.325-1.041-2.325-2.325c0-1.284,1.041-2.325,2.325-2.325c1.285,0,2.326,1.041,2.326,2.325
			C296.475,261.19,295.434,262.231,294.149,262.231z M299.072,255.524c-0.956,0-1.73-0.773-1.73-1.73c0-0.955,0.775-1.73,1.73-1.73
			c0.956,0,1.732,0.775,1.732,1.73C300.804,254.751,300.028,255.524,299.072,255.524z"/>
		<path fill="#38393B" d="M270.307,258.393c0.707-1.314-1.46-2.825-3.366-2.685c0,0,0.512,4.264,2.399,3.512
			c0.102-0.041,0.206-0.086,0.316-0.158C269.978,258.852,270.182,258.625,270.307,258.393z"/>
		<path fill="#38393B" d="M279.589,257.94c1.369,0,2.479-1.201,2.479-2.569c0-0.096-0.018-0.371-0.028-0.371c0,0-1.797,0-3.09,0
			c-0.506,0-0.989,0.166-1.326,0.249c-0.236,0.059-0.395,0.165-0.436,0.209c-0.007,0.007-0.02,0.039-0.02,0.044
			C277.168,255.565,277.071,257.94,279.589,257.94z"/>
		<circle fill="#38393B" cx="284.953" cy="262.665" r="3.244"/>
		<circle fill="#38393B" cx="294.149" cy="259.906" r="2.325"/>
		<circle fill="#38393B" cx="299.072" cy="253.794" r="1.73"/>
	</g>
	<g>
		<path fill="none" d="M316.031,267.865c0.125,0.754,0.785,1.442,1.791,1.293c0.564-0.082,0.912-0.286,1.033-0.607
			c0.024-0.064,0.018-0.142,0.027-0.214c-0.981-0.492-1.711-1.2-1.847-2.201C316.177,266.566,315.935,267.283,316.031,267.865z"/>
		<path fill="#38393B" d="M318.855,268.551c-0.122,0.321-0.469,0.525-1.033,0.607c-1.006,0.148-1.666-0.539-1.791-1.293
			c-0.096-0.581,0.146-1.299,1.005-1.728c-0.015-0.107-0.043-0.207-0.043-0.322c0-0.28,0.041-0.539,0.111-0.783
			c-1.663,0.549-2.25,1.846-2.06,2.996c0.182,1.097,1.103,2.151,2.498,2.151c0.137,0,0.278-0.011,0.424-0.031
			c1.184-0.172,1.645-0.77,1.824-1.242c0.022-0.058,0.031-0.118,0.047-0.177c-0.333-0.114-0.655-0.241-0.955-0.391
			C318.874,268.409,318.879,268.487,318.855,268.551z"/>
		<path fill="#FFFFFF" d="M354.035,269.886c-0.358,0.157-0.75,0.256-1.175,0.249c-0.986-0.012-1.846-0.507-2.245-1.283
			c-0.774-1.506-2.386-1.809-3.475-1.828c0.037,0.021,0.063,0.039,0.063,0.054c0,0.064,0.097,2.416-2.421,2.416
			c-1.369,0-2.479-1.11-2.479-2.479c0-0.005,0.001-0.01,0.001-0.015h-11.17l-0.983-1.948c1.245,0.096,2.396-0.693,2.396-0.693
			c-1.001-2.16-2.508-2.147-3.354-1.928c0.601-1.108,1.118-2.998-0.249-5.354c0,0-0.188,2.803-1.341,4.495
			c-2.421-0.046-9.541,0.11-10.5,3.458c-0.07,0.244-0.111,0.503-0.111,0.783c0,0.114,0.029,0.214,0.043,0.322
			c0.136,1,0.865,1.709,1.847,2.201c0.3,0.15,0.622,0.277,0.955,0.391c2.222,0.759,4.933,0.765,4.933,0.765l2.239,6.625
			c0.052,1.6,1.356,2.882,2.968,2.882H330v9h3v-9h12v9h3v-11.978V276v-6.022c0-0.764-0.296-1.453-0.769-1.98
			c0.84,0.021,1.979,0.248,2.494,1.25c0.569,1.107,1.766,1.752,3.123,1.752c0.017,0,0.033,0,0.049,0
			c0.643,0,1.252-0.146,1.786-0.412C354.354,270.367,354.149,270.13,354.035,269.886z M325.299,267.077
			c-0.956,0-1.732-0.774-1.732-1.73c0-0.955,0.775-1.73,1.732-1.73c0.956,0,1.73,0.775,1.73,1.73
			C327.03,266.303,326.255,267.077,325.299,267.077z M327.897,271.459c0-1.284,1.04-2.325,2.325-2.325
			c1.284,0,2.325,1.041,2.325,2.325c0,1.284-1.041,2.325-2.325,2.325C328.938,273.784,327.897,272.743,327.897,271.459z
			 M339.418,277.462c-1.793,0-3.245-1.453-3.245-3.244c0-1.792,1.453-3.245,3.245-3.245s3.245,1.453,3.245,3.245
			C342.663,276.009,341.21,277.462,339.418,277.462z"/>
		<path fill="#38393B" d="M354.035,269.886c0.115,0.244,0.32,0.481,0.648,0.702c0.012,0.008,0.02,0.018,0.033,0.025
			c2.148,1.395,2.715-3.353,2.715-3.353C355.553,267.123,353.422,268.587,354.035,269.886z"/>
		<path fill="#38393B" d="M344.782,269.493c2.518,0,2.421-2.353,2.421-2.416c0-0.015-0.026,0.1-0.063,0.079
			c-0.208-0.112-0.939-0.156-1.719-0.156c-1.292,0-3.09,0-3.09,0c-0.01,0-0.025,0.042-0.027,0.133c0,0.005-0.001-0.057-0.001-0.052
			C342.303,268.449,343.413,269.493,344.782,269.493z"/>
		<circle fill="#38393B" cx="339.418" cy="274.217" r="3.245"/>
		<circle fill="#38393B" cx="330.222" cy="271.459" r="2.325"/>
		<circle fill="#38393B" cx="325.299" cy="265.347" r="1.73"/>
	</g>
	<g>
		<path fill="none" d="M312.121,275.452c0.009,0.071,0.003,0.15,0.027,0.214c0.122,0.321,0.469,0.525,1.033,0.607
			c0.995,0.157,1.671-0.558,1.791-1.294c0.096-0.582-0.146-1.298-1.005-1.727C313.832,274.252,313.103,274.961,312.121,275.452z"/>
		<path fill="#38393B" d="M313.9,272.147c0.07,0.244,0.111,0.503,0.111,0.782c0,0.114-0.029,0.215-0.043,0.322
			c0.859,0.43,1.101,1.145,1.005,1.727c-0.121,0.736-0.796,1.451-1.791,1.294c-0.564-0.082-0.912-0.286-1.033-0.607
			c-0.024-0.063-0.019-0.143-0.027-0.214c-0.3,0.15-0.622,0.277-0.955,0.392c0.016,0.059,0.025,0.119,0.047,0.177
			c0.179,0.472,0.64,1.07,1.824,1.243c0.146,0.021,0.287,0.031,0.424,0.031c1.395,0,2.317-1.055,2.499-2.152
			C316.149,273.991,315.563,272.695,313.9,272.147z"/>
		<path fill="#FFFFFF" d="M313.968,273.252c0.015-0.108,0.043-0.208,0.043-0.322c0-0.279-0.042-0.538-0.111-0.782
			c-0.958-3.348-8.079-3.505-10.5-3.459c-1.153-1.692-1.342-4.494-1.342-4.494c-1.366,2.355-0.849,4.244-0.249,5.353
			c-0.845-0.219-2.352-0.232-3.353,1.928c0,0,1.151,0.789,2.396,0.693L299.928,274h-11.241c0.005,0.043,0.013,0.086,0.013,0.13
			c0,1.368-1.109,2.478-2.478,2.478c-2.518,0-2.421-2.353-2.421-2.416c0-0.014,0.021-0.03,0.053-0.049
			c-1.089,0.017-2.694,0.315-3.465,1.816c-0.399,0.776-1.259,1.25-2.245,1.262c-0.411-0.008-0.795-0.112-1.15-0.269
			c-0.1,0.24-0.296,0.475-0.599,0.693c0.517,0.23,1.099,0.353,1.712,0.353c0.017,0,0.033,0,0.049,0c1.357,0,2.554-0.59,3.123-1.696
			c0.495-0.964,1.568-1.183,2.396-1.193c-0.416,0.513-0.675,1.156-0.675,1.867V283v0.022V295h3v-9h12v9h2v-9h1.022
			c1.549,0,2.807-1.188,2.95-2.699l2.262-6.692c0,0,2.711-0.007,4.933-0.765c0.332-0.114,0.655-0.241,0.955-0.392
			C313.103,274.961,313.832,274.252,313.968,273.252z M291.586,284.577c-1.792,0-3.245-1.453-3.245-3.244
			c0-1.792,1.453-3.245,3.245-3.245s3.245,1.453,3.245,3.245C294.831,283.124,293.378,284.577,291.586,284.577z M300.782,280.899
			c-1.284,0-2.325-1.041-2.325-2.325c0-1.284,1.041-2.325,2.325-2.325c1.285,0,2.326,1.041,2.326,2.325
			C303.107,279.858,302.066,280.899,300.782,280.899z M305.705,274.192c-0.955,0-1.73-0.773-1.73-1.73c0-0.955,0.775-1.73,1.73-1.73
			c0.957,0,1.732,0.775,1.732,1.73C307.436,273.419,306.661,274.192,305.705,274.192z"/>
		<path fill="#38393B" d="M276.994,276.953c0.537-1.287-1.567-2.714-3.421-2.577c0,0,0.566,4.749,2.715,3.353
			c0.041-0.026,0.069-0.056,0.107-0.083C276.698,277.428,276.894,277.193,276.994,276.953z"/>
		<path fill="#38393B" d="M283.801,274.192c0,0.063-0.097,2.416,2.421,2.416c1.369,0,2.478-1.11,2.478-2.478
			c0-0.044-0.008-0.012-0.013-0.055c-0.006-0.05-0.009-0.075-0.015-0.075c0,0-1.797,0-3.09,0c-0.789,0-1.533,0.106-1.728,0.219
			C283.822,274.237,283.801,274.179,283.801,274.192z"/>
		<circle fill="#38393B" cx="291.586" cy="281.332" r="3.245"/>
		<circle fill="#38393B" cx="300.782" cy="278.574" r="2.325"/>
		<circle fill="#38393B" cx="305.705" cy="272.462" r="1.73"/>
	</g>
</g>
</svg>
