<?xml version="1.0" encoding="utf-8"?>
<!-- Generator: Adobe Illustrator 17.0.0, SVG Export Plug-In . SVG Version: 6.00 Build 0)  -->
<!DOCTYPE svg PUBLIC "-//W3C//DTD SVG 1.1//EN" "http://www.w3.org/Graphics/SVG/1.1/DTD/svg11.dtd">
<svg version="1.1" id="Capa_1" xmlns="http://www.w3.org/2000/svg" xmlns:xlink="http://www.w3.org/1999/xlink" x="0px" y="0px"
	 width="300px" height="95px" viewBox="0 0 300 95" enable-background="new 0 0 300 95" xml:space="preserve">
<g>
	<g>
		<g>
			<polyline fill="none" stroke="#FFFFFF" stroke-linecap="round" stroke-linejoin="round" points="44.851,1.728 45.382,1.421 
				44.656,3.014 47.432,1.411 44.295,5.409 51.251,1.393 43.997,7.375 51.459,3.067 43.784,8.791 51.251,4.479 43.562,10.253 
				51.035,5.939 43.377,11.483 50.853,7.167 43.121,13.177 50.604,8.857 42.865,14.873 50.354,10.548 42.597,16.645 50.093,12.316 
				42.323,18.458 49.826,14.127 42.094,19.974 49.603,15.639 41.888,21.337 49.402,16.999 41.627,23.07 49.147,18.728 
				41.314,25.135 48.843,20.789 40.977,27.366 48.514,23.015 40.761,28.798 48.303,24.445 40.446,30.879 47.996,26.521 
				40.253,32.157 47.807,27.796 39.948,34.177 47.51,29.811 39.738,35.565 47.305,31.196 			"/>
			<polyline fill="none" stroke="#FFFFFF" stroke-linecap="round" stroke-linejoin="round" points="30.864,24.084 37.283,20.379 
				31.154,25.966 37.569,22.262 31.451,27.902 37.864,24.2 31.673,29.349 38.083,25.649 31.903,30.849 38.311,27.15 32.168,32.574 
				38.573,28.875 32.458,34.463 38.86,30.767 32.64,35.648 39.04,31.953 32.825,36.851 39.223,33.157 33.133,38.86 39.528,35.167 
				33.374,40.429 47.114,32.497 33.575,41.745 46.883,34.062 33.846,43.501 46.574,36.153 34.118,45.279 46.261,38.268 
				34.386,47.018 45.955,40.339 34.601,48.422 45.709,42.009 34.874,50.201 45.396,44.126 35.089,51.603 45.15,45.794 
				35.291,52.914 44.919,47.355 35.551,54.609 44.622,49.371 35.781,56.105 44.359,51.153 36.081,58.06 44.015,53.48 37.714,58.394 
				43.809,54.875 39.71,58.387 43.624,56.128 42.808,58.376 43.337,58.071 			"/>
			<polyline fill="none" stroke="#FFFFFF" stroke-linecap="round" stroke-linejoin="round" points="27.197,1.728 27.727,1.422 
				26.897,3.713 30.885,1.411 26.561,5.937 34.403,1.409 26.336,7.423 34.592,2.657 26.009,9.586 34.868,4.472 25.794,11.018 
				35.05,5.673 25.482,13.079 35.313,7.403 25.127,15.428 35.612,9.375 24.766,17.819 35.917,11.381 24.493,19.622 36.147,12.894 
				24.201,21.552 36.393,14.513 23.957,23.173 36.599,15.874 23.714,24.784 36.804,17.226 23.518,26.074 36.969,18.308 
				23.204,28.158 37.234,20.057 22.851,30.493 30.432,26.116 22.61,32.087 30.193,27.709 22.42,33.348 30.002,28.97 22.14,35.2 
				29.723,30.822 			"/>
			<polyline fill="none" stroke="#FFFFFF" stroke-linecap="round" stroke-linejoin="round" points="10.009,1.679 10.455,1.422 
				10.224,3.131 13.203,1.412 10.49,4.93 16.604,1.4 10.646,5.976 16.895,2.368 10.81,7.087 17.063,3.477 11.062,8.789 
				17.321,5.176 11.294,10.36 17.559,6.743 11.552,12.098 17.822,8.479 11.818,13.889 18.094,10.266 12.12,15.932 18.404,12.304 
				12.367,17.603 18.657,13.972 12.576,19.009 18.869,15.375 12.867,20.98 19.168,17.342 13.076,22.39 19.382,18.751 13.337,24.15 
				19.649,20.507 13.558,25.646 19.876,22 13.843,27.566 20.166,23.915 14.101,29.305 20.43,25.651 14.367,31.104 20.702,27.447 
				14.619,32.805 20.96,29.144 14.917,34.818 21.265,31.152 15.087,35.964 21.439,32.297 15.289,37.331 21.646,33.661 
				15.532,38.967 21.894,35.294 15.786,40.681 29.424,32.806 15.984,42.023 29.183,34.402 16.278,44.007 28.827,36.762 
				16.531,45.715 28.52,38.794 16.708,46.909 28.307,40.213 16.876,48.045 28.103,41.563 17.154,49.921 27.767,43.794 
				17.364,51.341 27.512,45.483 17.65,53.275 27.166,47.782 17.896,54.935 26.867,49.756 18.152,56.666 26.558,51.814 
				18.306,57.702 26.372,53.045 19.088,58.397 26.182,54.301 21.654,58.389 25.939,55.914 24.817,58.377 25.639,57.903 			"/>
			<polyline fill="none" stroke="#FFFFFF" stroke-linecap="round" stroke-linejoin="round" points="57.525,38.474 58.009,38.194 
				57.529,39.645 60.057,38.186 57.535,41.827 63.87,38.17 57.542,43.619 64.334,39.698 57.546,44.908 64.334,40.989 57.55,46.241 
				64.334,42.325 57.586,47.342 64.334,43.448 57.745,48.797 64.334,44.994 58.056,50.166 64.334,46.542 58.511,51.52 
				64.489,48.069 59.207,52.774 65.002,49.427 59.838,53.793 65.734,50.389 60.57,54.614 66.614,51.124 61.557,55.625 
				68.104,51.845 62.96,56.702 71.161,51.966 64.794,57.679 82.044,47.719 66.189,58.181 81.874,49.124 68.627,58.673 81.18,51.426 
				70.567,58.72 80.319,53.089 74.024,58.025 78.117,55.662 			"/>
			<polyline fill="none" stroke="#FFFFFF" stroke-linecap="round" stroke-linejoin="round" points="63.596,26.472 64.076,26.195 
				63.604,28.515 67.632,26.19 63.614,30.618 72.06,25.741 63.621,32.19 82.128,21.504 65.427,32.779 82.05,23.182 68.673,32.782 
				81.6,25.318 71.485,33.215 79.101,28.819 72.82,33.735 79.003,30.165 73.876,34.434 79.776,31.028 74.995,35.976 80.784,32.633 
				75.349,37.479 81.391,33.992 75.416,38.873 81.776,35.2 75.416,40.785 82.027,36.968 75.416,42.72 82.128,38.846 75.416,44.615 
				82.128,40.739 75.416,46.143 82.128,42.268 75.216,48.195 82.128,44.205 73.974,50.432 82.128,45.724 			"/>
			<polyline fill="none" stroke="#FFFFFF" stroke-linecap="round" stroke-linejoin="round" points="68.416,8.278 76.755,3.463 
				71.517,8.3 78.1,4.499 73.385,9.251 79.361,5.801 74.301,10.079 80.108,6.727 75.137,11.571 80.963,8.207 75.343,12.758 
				81.386,9.27 75.416,14.598 81.882,10.865 75.416,16.742 82.096,12.885 75.416,18.924 82.128,15.049 75.417,20.571 82.128,16.695 
				75.4,22.34 82.128,18.457 74.711,24.218 82.128,19.936 			"/>
			<polyline fill="none" stroke="#FFFFFF" stroke-linecap="round" stroke-linejoin="round" points="61.67,4.505 65.693,2.182 
				59.153,7.535 69.711,1.439 58.028,10.136 72.574,1.737 57.743,11.437 73.884,2.118 57.604,12.723 75.128,2.605 57.553,14.6 
				65.631,9.936 57.553,16.305 64.49,12.3 57.553,18.193 64.337,14.276 57.553,20.136 64.343,16.216 57.962,22.117 64.35,18.429 
				61.127,22.104 64.356,20.239 63.791,22.092 64.361,21.763 			"/>
			<polyline fill="none" stroke="#FFFFFF" stroke-linecap="round" stroke-linejoin="round" points="95.96,7.922 105.55,2.385 
				99.128,7.905 107.233,3.226 102.293,8.107 108.798,4.352 103.66,8.675 109.701,5.187 105.102,9.817 110.849,6.499 
				105.702,10.777 111.427,7.472 106.19,12.376 112.144,8.939 106.285,14.466 112.705,10.759 106.285,16.648 112.928,12.812 
				106.285,18.295 112.939,14.453 106.285,20.055 112.939,16.213 106.285,21.535 112.939,17.693 106.285,23.005 112.939,19.163 
				106.286,24.183 112.939,20.341 106.286,26.085 112.939,22.243 106.286,28.216 112.939,24.375 106.286,29.671 112.939,25.83 
				106.286,30.822 112.94,26.981 106.286,32.513 112.94,28.671 106.286,34.358 112.94,30.517 106.286,36.265 112.94,32.423 
				106.286,37.952 112.94,34.11 106.286,39.332 112.94,35.49 106.286,40.793 112.94,36.951 106.286,42.121 112.94,38.279 
				106.286,43.244 112.94,39.402 106.286,44.563 112.94,40.722 106.286,45.731 112.94,41.89 106.104,47.903 112.94,43.957 
				104.874,50.181 112.94,45.524 			"/>
			<polyline fill="none" stroke="#FFFFFF" stroke-linecap="round" stroke-linejoin="round" points="88.771,1.73 89.252,1.452 
				88.771,3.306 91.983,1.452 88.771,5.258 95.364,1.452 88.771,6.395 97.333,1.452 88.771,7.599 99.42,1.452 88.771,9.448 
				102.371,1.596 88.771,11.153 104.523,2.059 88.771,13.04 95.357,9.238 88.771,14.984 95.359,11.181 88.771,17.202 95.362,13.396 
				88.771,19.015 95.365,15.208 88.771,20.542 95.367,16.734 88.771,22.681 95.369,18.872 88.771,24.213 95.371,20.402 
				88.771,26.122 95.374,22.311 88.771,27.747 95.376,23.934 88.771,29.831 95.379,26.016 88.771,31.718 95.381,27.902 
				88.771,33.671 95.384,29.854 88.771,35.518 95.386,31.698 88.771,37.703 95.389,33.881 88.771,38.947 95.391,35.125 
				88.771,40.43 95.392,36.608 88.771,42.206 95.395,38.383 88.771,44.066 95.397,40.24 88.771,45.523 95.399,41.696 88.771,47.677 
				95.402,43.849 88.771,49.532 95.405,45.702 88.771,50.828 95.406,46.997 88.771,52.06 95.408,48.228 88.771,54.097 
				95.411,50.264 88.771,55.639 95.413,51.804 88.771,57.738 98.879,51.902 90.757,58.394 102.398,51.673 94.038,58.379 
				112.862,47.51 96,58.369 112.712,48.72 98.003,58.36 112.436,50.027 100.575,58.347 111.697,51.926 104.889,57.603 
				109.039,55.206 			"/>
			<polyline fill="none" stroke="#FFFFFF" stroke-linecap="round" stroke-linejoin="round" points="140.477,7.922 150.067,2.385 
				143.645,7.905 151.749,3.226 146.81,8.107 153.315,4.352 148.176,8.675 154.217,5.187 149.618,9.817 155.366,6.499 
				150.218,10.777 155.944,7.472 150.706,12.376 156.66,8.939 150.802,14.466 157.221,10.759 150.802,16.648 157.445,12.812 
				150.802,18.295 157.456,14.453 150.802,20.055 157.456,16.213 150.802,21.535 157.456,17.693 150.802,23.005 157.456,19.163 
				150.802,24.183 157.456,20.341 150.802,26.085 157.456,22.243 150.802,28.216 157.456,24.375 150.802,29.671 157.456,25.83 
				150.802,30.822 157.456,26.981 150.802,32.513 157.456,28.671 150.802,34.358 157.456,30.517 150.802,36.265 157.456,32.423 
				150.803,37.952 157.456,34.11 150.803,39.332 157.456,35.49 150.803,40.793 157.456,36.951 150.803,42.121 157.456,38.279 
				150.803,43.244 157.456,39.402 150.803,44.563 157.456,40.722 150.803,45.731 157.456,41.89 150.621,47.903 157.456,43.957 
				149.391,50.181 157.456,45.524 			"/>
			<polyline fill="none" stroke="#FFFFFF" stroke-linecap="round" stroke-linejoin="round" points="133.288,1.73 133.769,1.452 
				133.288,3.306 136.5,1.452 133.288,5.258 139.88,1.452 133.288,6.395 141.849,1.452 133.288,7.599 143.936,1.452 133.288,9.448 
				146.888,1.596 133.288,11.153 149.039,2.059 133.288,13.04 139.873,9.238 133.288,14.984 139.876,11.181 133.288,17.202 
				139.879,13.396 133.288,19.015 139.881,15.208 133.288,20.542 139.882,16.734 133.288,22.681 139.886,18.872 133.288,24.213 
				139.887,20.402 133.288,26.122 139.89,22.311 133.288,27.747 139.892,23.934 133.288,29.831 139.895,26.016 133.288,31.718 
				139.898,27.902 133.288,33.671 139.9,29.854 133.288,35.518 139.903,31.698 133.288,37.703 139.906,33.881 133.288,38.947 
				139.907,35.125 133.288,40.43 139.909,36.608 133.288,42.206 139.911,38.383 133.288,44.066 139.914,40.241 133.288,45.523 
				139.916,41.696 133.288,47.677 139.919,43.849 133.288,49.532 139.921,45.702 133.288,50.828 139.923,46.997 133.288,52.06 
				139.924,48.228 133.288,54.097 139.927,50.264 133.288,55.639 139.929,51.805 133.288,57.738 143.396,51.902 135.273,58.394 
				146.915,51.673 138.554,58.379 157.379,47.511 140.517,58.369 157.229,48.72 142.519,58.36 156.952,50.027 145.091,58.347 
				156.214,51.926 149.405,57.603 153.555,55.206 			"/>
			<polyline fill="none" stroke="#FFFFFF" stroke-linecap="round" stroke-linejoin="round" points="170.944,34.049 182.54,27.355 
				174.506,34.042 183.795,28.679 178.171,34.034 183.804,30.781 180.91,34.028 183.811,32.353 183.335,34.023 183.817,33.744 			
				"/>
			<polyline fill="none" stroke="#FFFFFF" stroke-linecap="round" stroke-linejoin="round" points="170.944,8.092 182.537,1.399 
				174.094,8.085 185.673,1.4 177.62,8.08 185.682,3.425 179.977,8.075 185.688,4.779 183.409,8.068 185.696,6.748 			"/>
			<polyline fill="none" stroke="#FFFFFF" stroke-linecap="round" stroke-linejoin="round" points="163.819,1.701 164.301,1.423 
				163.819,3.278 167.039,1.419 163.819,5.229 170.426,1.415 163.819,6.366 172.401,1.412 163.819,7.571 174.492,1.409 
				163.819,9.419 177.7,1.405 163.819,11.124 180.661,1.401 163.819,13.011 170.463,9.176 163.819,14.955 170.466,11.118 
				163.819,17.173 170.469,13.333 163.819,18.986 170.471,15.145 163.819,20.513 170.474,16.671 163.819,22.652 170.477,18.808 
				163.819,24.184 170.479,20.338 163.819,26.094 170.482,22.247 163.819,27.718 170.485,23.869 163.819,29.802 170.488,25.951 
				163.819,31.689 171.285,27.379 163.819,33.643 174.681,27.372 163.819,35.489 177.89,27.366 163.819,37.673 181.688,27.357 
				163.819,38.918 170.463,35.083 163.819,40.401 170.465,36.564 163.819,42.178 170.469,38.34 163.819,44.037 170.471,40.197 
				163.819,45.494 170.473,41.652 163.819,47.648 170.477,43.805 163.819,49.503 170.48,45.658 163.819,50.799 170.482,46.953 
				163.819,52.031 170.484,48.183 163.819,54.069 170.488,50.218 163.819,55.61 170.534,51.734 163.819,57.708 174.182,51.727 
				165.743,58.401 177.314,51.72 169.004,58.397 180.579,51.714 170.956,58.394 182.532,51.71 172.945,58.391 184.524,51.707 
				175.503,58.389 185.676,52.514 178.654,58.384 185.684,54.325 181.993,58.38 185.693,56.244 184.519,58.376 185.699,57.695 			
				"/>
			<polyline fill="none" stroke="#FFFFFF" stroke-linecap="round" stroke-linejoin="round" points="190.586,41.335 191.07,41.056 
				190.597,43.377 194.645,41.04 190.608,45.479 197.255,41.641 190.665,47.022 197.255,43.217 190.828,48.56 197.255,44.849 
				191.266,50.183 197.281,46.711 191.955,51.844 197.737,48.506 192.51,52.813 198.288,49.477 193.17,53.741 199.049,50.347 
				194.459,55.185 200.897,51.467 195.717,56.167 203.001,51.961 196.898,56.917 216.165,45.792 198.708,57.783 216.032,47.781 
				200.959,58.419 215.573,49.981 203.914,58.607 214.408,52.548 207.83,57.856 211.867,55.525 			"/>
			<polyline fill="none" stroke="#FFFFFF" stroke-linecap="round" stroke-linejoin="round" points="201.76,8.272 210.291,3.347 
				204.939,8.25 211.677,4.359 206.93,9.129 213.013,5.617 207.923,9.913 213.795,6.522 208.928,11.307 214.693,7.978 
				209.345,12.373 215.223,8.979 209.524,14.151 215.737,10.564 209.524,16.295 216.058,12.522 209.524,18.477 216.171,14.639 
				211.035,19.251 216.18,16.281 214.108,19.238 216.188,18.037 			"/>
			<polyline fill="none" stroke="#FFFFFF" stroke-linecap="round" stroke-linejoin="round" points="194.889,4.558 198.916,2.233 
				192.301,7.628 202.974,1.466 191.153,10.243 206.003,1.669 190.823,11.57 207.31,2.052 190.686,12.854 208.635,2.492 
				190.614,14.744 198.826,10.003 190.614,16.449 197.482,12.484 190.614,18.337 197.325,14.461 190.614,20.28 197.325,16.406 
				190.675,22.462 197.325,18.623 190.866,24.165 197.325,20.436 191.281,25.453 197.332,21.958 192.046,27.15 197.837,23.808 
				192.739,28.282 198.625,24.883 193.865,29.542 200.085,25.95 194.965,30.53 201.771,26.601 196.625,31.656 204.603,27.05 
				198.416,32.51 206.975,27.568 200.7,33.144 209.029,28.335 203.437,33.41 210.702,29.216 206.219,33.989 212.382,30.43 
				207.31,34.604 213.164,31.223 208.32,35.504 214.04,32.201 209.134,36.81 214.878,33.493 209.454,38.485 215.519,34.983 
				209.454,39.942 215.913,36.212 209.454,42.096 216.148,38.231 209.454,43.951 216.165,40.075 209.454,45.247 216.165,41.372 
				209.454,46.478 216.165,42.604 208.818,48.883 216.165,44.641 			"/>
			<polyline fill="none" stroke="#FFFFFF" stroke-linecap="round" stroke-linejoin="round" points="222.57,1.701 223.055,1.421 
				222.57,3.278 225.806,1.409 222.57,5.229 229.212,1.395 222.57,6.366 229.212,2.531 222.57,7.571 229.213,3.736 222.57,9.419 
				229.214,5.583 222.57,11.124 229.215,7.288 222.57,13.011 229.216,9.175 222.57,14.955 229.216,11.118 222.57,17.172 
				229.218,13.334 222.57,18.986 229.218,15.147 222.57,20.513 229.219,16.674 222.57,22.652 229.22,18.813 222.57,24.184 
				229.221,20.344 222.57,26.094 229.222,22.253 222.57,27.718 229.223,23.877 222.57,29.802 229.224,25.96 222.57,31.689 
				229.225,27.847 222.57,33.643 229.226,29.8 222.57,35.489 229.227,31.645 222.57,37.673 229.228,33.829 222.57,38.918 
				229.228,35.073 222.57,40.401 229.229,36.557 222.57,42.178 229.23,38.332 222.57,44.037 229.231,40.191 222.57,45.494 
				229.232,41.647 222.57,47.648 229.233,43.802 222.57,49.503 229.234,45.656 222.57,50.799 229.235,46.952 222.57,52.031 
				229.235,48.182 222.57,54.069 229.236,50.219 222.57,55.61 229.237,51.76 222.57,57.708 229.238,53.859 224.503,58.395 
				229.239,55.661 227.781,58.381 229.24,57.539 			"/>
			<polyline fill="none" stroke="#FFFFFF" stroke-linecap="round" stroke-linejoin="round" points="249.755,27.519 250.237,27.24 
				249.765,29.562 253.798,27.233 249.773,31.664 257.462,27.225 249.78,33.236 260.202,27.219 251.574,33.834 263.04,27.214 
				254.847,33.82 263.542,28.8 256.873,34.708 263.542,30.858 256.876,35.996 263.542,32.147 256.879,37.304 263.542,33.457 
				256.884,39.488 263.542,35.644 256.887,41.194 263.542,37.352 256.89,42.624 263.542,38.784 256.894,44.535 263.542,40.697 
				256.898,46.468 263.542,42.632 256.668,48.495 263.542,44.525 255.647,50.361 263.542,45.803 			"/>
			<polyline fill="none" stroke="#FFFFFF" stroke-linecap="round" stroke-linejoin="round" points="247.906,8.532 257.223,3.153 
				251.659,8.177 258.69,4.118 253.928,8.897 260.105,5.331 255.015,9.626 260.902,6.227 256.141,10.951 261.875,7.64 
				256.652,11.962 262.449,8.616 256.9,13.7 263.005,10.175 256.9,15.844 263.398,12.093 256.9,18.026 263.544,14.19 256.9,19.672 
				263.55,15.833 256.9,21.434 263.557,17.591 259.139,21.621 263.562,19.067 261.705,21.609 263.567,20.534 			"/>
			<polyline fill="none" stroke="#FFFFFF" stroke-linecap="round" stroke-linejoin="round" points="240.689,5.023 245.239,2.396 
				238.102,8.093 249.463,1.534 236.923,10.725 252.708,1.612 236.699,11.992 254.145,1.919 236.539,13.289 255.532,2.323 
				236.526,15.145 244.516,10.531 236.526,16.85 243.33,12.921 236.526,18.737 243.236,14.864 236.526,20.682 243.236,16.807 
				236.526,22.898 243.236,19.024 236.526,24.712 243.236,20.837 236.526,26.239 243.236,22.364 236.526,28.379 243.236,24.504 
				236.526,29.909 243.236,26.035 236.526,31.82 243.236,27.946 236.526,33.443 243.236,29.569 236.526,35.527 243.236,31.653 
				236.526,37.415 243.236,33.541 236.526,39.368 243.236,35.495 236.526,41.214 243.236,37.34 236.526,43.399 243.236,39.525 
				236.526,44.644 243.236,40.769 236.526,46.127 243.236,42.253 236.589,47.867 243.236,44.029 236.813,49.597 243.236,45.889 
				237.253,50.799 243.236,47.345 238.085,52.473 243.805,49.171 239.009,53.794 244.877,50.407 239.84,54.611 245.885,51.122 
				240.65,55.375 247.035,51.689 242.262,56.482 249.577,52.259 243.635,57.231 252.46,52.136 245.788,58.086 263.485,47.87 
				247.969,58.63 263.243,49.812 250.835,58.854 262.284,52.244 253.148,58.643 261.087,54.059 			"/>
			<polyline fill="none" stroke="#FFFFFF" stroke-linecap="round" stroke-linejoin="round" points="290.155,1.701 290.64,1.422 
				290.157,3.749 294.215,1.405 290.159,5.855 296.825,2.007 290.16,7.43 296.826,3.583 290.162,9.063 296.827,5.214 
				290.163,10.938 296.828,7.091 290.165,12.995 296.828,9.148 290.166,14.284 296.829,10.437 290.167,15.593 296.829,11.746 
				290.169,17.779 296.831,13.932 290.17,19.487 296.832,15.64 290.171,20.917 296.832,17.072 290.172,22.829 296.833,18.983 
				290.174,24.764 296.834,20.918 290.175,26.656 296.835,22.812 290.176,28.184 296.836,24.34 290.178,30.12 296.837,26.275 
				290.179,31.645 296.838,27.8 290.18,33.072 296.839,29.228 290.182,34.916 296.84,31.073 290.183,36.544 296.841,32.701 			"/>
			<polyline fill="none" stroke="#FFFFFF" stroke-linecap="round" stroke-linejoin="round" points="277.418,21.065 283.326,17.654 
				277.952,22.569 283.837,19.171 278.551,24.253 284.41,20.87 278.95,25.379 284.793,22.006 279.531,27.017 285.35,23.658 
				279.917,28.102 285.719,24.752 280.471,29.663 286.25,26.326 281.102,31.443 286.855,28.122 281.746,33.254 287.471,29.948 
				282.231,34.62 287.935,31.327 282.75,36.082 288.433,32.801 283.185,37.309 288.85,34.039 283.618,38.529 289.265,35.269 
				283.966,39.507 289.598,36.256 284.527,41.086 290.183,37.819 285.154,42.854 296.842,36.107 285.583,44.061 296.843,37.56 
				285.922,45.017 296.844,38.711 286.42,46.42 296.845,40.401 286.964,47.951 296.846,42.246 287.526,49.534 296.847,44.153 
				288.022,50.934 296.848,45.839 288.429,52.079 296.848,47.218 288.859,53.291 296.849,48.679 289.251,54.394 296.85,50.006 
				289.582,55.325 296.85,51.129 289.97,56.42 296.851,52.448 290.315,57.39 296.852,53.616 292.163,58.39 296.853,55.682 
				295.635,58.379 296.854,57.675 			"/>
			<polyline fill="none" stroke="#FFFFFF" stroke-linecap="round" stroke-linejoin="round" points="270.647,1.701 271.13,1.422 
				270.647,3.278 273.873,1.415 270.646,5.229 277.269,1.405 270.646,6.366 278.074,2.078 270.647,7.571 278.414,3.086 
				270.647,9.419 278.936,4.633 270.647,11.124 279.417,6.06 270.647,13.011 279.95,7.64 270.647,14.955 280.498,9.268 
				270.647,17.173 281.124,11.123 270.647,18.986 281.635,12.641 270.647,20.513 282.066,13.92 270.647,22.652 282.671,15.71 
				270.647,24.184 283.103,16.992 270.647,26.094 277.289,22.26 270.647,27.718 277.29,23.883 270.647,29.802 277.29,25.966 
				270.647,31.689 277.292,27.852 270.647,33.643 277.294,29.805 270.647,35.489 277.295,31.65 270.647,37.673 277.297,33.834 
				270.647,38.918 277.298,35.078 270.647,40.401 277.299,36.561 270.647,42.178 277.301,38.336 270.647,44.037 277.302,40.195 
				270.647,45.494 277.303,41.65 270.647,47.648 277.305,43.805 270.647,49.503 277.306,45.658 270.647,50.799 277.307,46.954 
				270.647,52.031 277.308,48.185 270.647,54.069 277.31,50.221 270.647,55.61 277.311,51.762 270.647,57.708 277.313,53.86 
				272.58,58.395 277.314,55.662 275.858,58.381 277.315,57.54 			"/>
			<polyline fill="none" stroke="#FFFFFF" stroke-linecap="round" stroke-linejoin="round" points="191.128,70.095 191.67,69.781 
				190.926,71.385 193.109,70.125 190.549,73.788 192.757,72.513 190.242,75.761 192.469,74.474 190.019,77.181 192.261,75.886 
				189.789,78.648 192.046,77.345 189.597,79.883 191.867,78.572 189.33,81.583 191.617,80.262 189.065,83.284 191.369,81.953 
				188.787,85.061 191.109,83.721 188.502,86.881 190.843,85.529 			"/>
			<polyline fill="none" stroke="#FFFFFF" stroke-linecap="round" stroke-linejoin="round" points="184.362,76.325 186.177,75.277 
				184.689,78.184 186.502,77.139 185.026,80.098 186.836,79.053 185.277,81.529 187.085,80.485 185.538,83.011 187.343,81.969 
				185.837,84.714 187.641,83.673 186.166,86.583 187.967,85.542 186.371,87.754 188.172,86.714 186.581,88.942 190.69,86.569 
				186.93,90.928 190.339,88.959 187.202,92.479 190.063,90.827 187.43,93.779 189.833,92.391 189.113,93.966 189.648,93.657 			"/>
			<polyline fill="none" stroke="#FFFFFF" stroke-linecap="round" stroke-linejoin="round" points="183.322,70.098 183.867,69.783 
				182.973,72.111 185.382,70.721 182.584,74.367 185.703,72.566 182.322,75.873 185.919,73.798 181.943,78.067 184.146,76.795 
				181.692,79.519 183.895,78.247 181.33,81.609 183.534,80.337 180.917,83.991 183.123,82.718 180.498,86.416 182.704,85.142 			
				"/>
			<polyline fill="none" stroke="#FFFFFF" stroke-linecap="round" stroke-linejoin="round" points="175.499,70.045 175.953,69.783 
				175.714,71.497 177.524,70.452 175.98,73.295 177.806,72.24 176.136,74.343 177.97,73.282 176.299,75.452 178.145,74.387 
				176.552,77.155 178.412,76.08 176.784,78.725 178.659,77.644 177.042,80.465 178.932,79.373 177.308,82.255 179.214,81.155 
				177.61,84.298 179.534,83.187 177.857,85.968 179.796,84.848 178.066,87.375 180.017,86.248 178.357,89.346 182.379,87.024 
				178.566,90.757 182.085,88.725 178.827,92.516 181.719,90.846 179.096,93.985 181.407,92.65 			"/>
			<polyline fill="none" stroke="#FFFFFF" stroke-linecap="round" stroke-linejoin="round" points="198.392,80.672 201.24,79.027 
				201.968,80.656 204.465,79.214 204.005,80.647 204.485,80.369 			"/>
			<polyline fill="none" stroke="#FFFFFF" stroke-linecap="round" stroke-linejoin="round" points="198.392,71.717 201.761,69.772 
				201.552,71.704 204.918,69.761 204.806,71.692 205.286,71.414 			"/>
			<polyline fill="none" stroke="#FFFFFF" stroke-linecap="round" stroke-linejoin="round" points="196.007,70.067 196.491,69.788 
				196.009,71.642 199.236,69.779 196.011,73.592 197.911,72.496 196.013,74.728 197.914,73.631 196.014,75.932 197.919,74.832 
				196.017,77.779 197.927,76.677 196.019,79.483 197.934,78.378 196.021,81.369 200.068,79.033 196.024,83.312 197.912,82.222 
				196.027,85.526 197.916,84.435 196.029,87.339 197.921,86.246 196.031,88.865 197.925,87.771 196.034,91.003 197.931,89.908 
				196.035,92.533 197.935,91.437 196.826,93.987 200.176,92.053 199.654,93.978 203.009,92.041 203.282,93.966 205.273,92.818 			
				"/>
			<polyline fill="none" stroke="#FFFFFF" stroke-linecap="round" stroke-linejoin="round" points="210.149,71.685 213.384,69.818 
				213.666,71.704 215.763,70.492 215.79,72.585 217.264,71.733 216.502,73.75 217.968,72.902 216.644,75.3 218.38,74.298 
				216.645,77.176 218.518,76.095 216.406,79.372 218.519,78.153 			"/>
			<polyline fill="none" stroke="#FFFFFF" stroke-linecap="round" stroke-linejoin="round" points="210.148,83.043 212.868,81.473 
				213.325,83.022 217.768,80.456 215.743,83.655 217.337,82.734 216.664,84.481 218.202,83.593 217.37,86.047 219.055,85.074 
				217.504,87.276 219.288,86.246 217.463,89.182 219.378,88.076 216.836,90.662 219.198,89.298 			"/>
			<polyline fill="none" stroke="#FFFFFF" stroke-linecap="round" stroke-linejoin="round" points="207.69,70.096 208.171,69.818 
				207.692,71.671 210.901,69.818 207.695,73.621 209.536,72.558 207.696,74.757 209.543,73.691 207.697,75.961 209.55,74.892 
				207.699,77.808 209.561,76.734 207.701,79.512 209.571,78.433 207.704,81.398 209.582,80.314 207.706,83.341 210.94,81.473 
				207.709,85.556 209.54,84.499 207.711,87.368 209.551,86.306 207.713,88.894 209.561,87.827 207.716,91.032 209.576,89.959 
				207.718,92.563 209.585,91.484 208.568,93.982 211.845,92.089 211.428,93.955 215.012,91.885 215.056,93.727 217.704,92.198 			
				"/>
			<polyline fill="none" stroke="#FFFFFF" stroke-linecap="round" stroke-linejoin="round" points="228.156,86.91 228.647,86.627 
				228.182,88.944 230.081,87.847 228.601,90.811 230.29,89.835 229.265,92.003 230.993,91.005 230.335,93.018 232.257,91.908 
				232.135,93.855 238.83,89.989 234.944,93.873 237.536,92.376 			"/>
			<polyline fill="none" stroke="#FFFFFF" stroke-linecap="round" stroke-linejoin="round" points="232.934,71.819 235.689,70.229 
				235.389,72.214 237.211,71.162 236.703,73.485 238.329,72.546 237.046,74.644 238.792,73.635 237.108,76.583 239.015,75.481 
				238.062,77.338 239.031,76.779 			"/>
			<polyline fill="none" stroke="#FFFFFF" stroke-linecap="round" stroke-linejoin="round" points="229.649,71.492 232.235,69.999 
				228.371,73.806 234.97,69.996 228.182,75.867 230.153,74.728 228.182,77.004 230.111,75.89 228.182,78.209 230.112,77.094 
				228.454,79.899 230.218,78.881 229.214,81.166 230.95,80.164 230.583,82.263 232.703,81.039 232.773,82.942 235.276,81.497 
				235.587,83.535 237.323,82.532 236.827,84.633 238.433,83.705 237.078,86.014 238.897,84.964 237.079,88.153 239.009,87.039 
				236.897,89.79 239.009,88.571 			"/>
			<polyline fill="none" stroke="#FFFFFF" stroke-linecap="round" stroke-linejoin="round" points="248.153,71.715 251.538,69.761 
				251.33,71.694 251.902,71.364 			"/>
			<polyline fill="none" stroke="#FFFFFF" stroke-linecap="round" stroke-linejoin="round" points="241.438,70.067 241.922,69.788 
				241.438,71.643 244.665,69.78 244.726,71.697 248.061,69.771 245.739,72.248 250.04,69.766 245.741,73.453 247.667,72.34 
				245.743,75.299 247.67,74.187 245.745,77.003 247.672,75.891 245.748,78.889 247.675,77.777 245.751,80.831 247.677,79.719 
				245.753,83.047 247.68,81.934 245.756,84.859 247.682,83.747 245.757,86.385 247.685,85.272 245.76,88.523 247.687,87.41 
				245.762,90.052 247.689,88.94 245.764,91.961 247.691,90.849 245.767,93.584 247.693,92.472 247.202,93.968 247.695,93.683 			
				"/>
			<polyline fill="none" stroke="#FFFFFF" stroke-linecap="round" stroke-linejoin="round" points="263.383,70.067 263.876,69.782 
				263.386,71.878 265.342,70.749 263.389,73.906 265.342,72.778 263.391,75.261 265.342,74.135 263.394,77.234 265.342,76.109 
				263.396,78.539 265.342,77.416 263.399,80.419 265.342,79.298 263.402,82.561 265.342,81.441 263.405,84.741 265.342,83.623 
				263.408,86.387 265.342,85.271 263.411,88.146 265.342,87.031 263.258,89.714 265.342,88.51 			"/>
			<polyline fill="none" stroke="#FFFFFF" stroke-linecap="round" stroke-linejoin="round" points="254.604,70.067 255.098,69.781 
				254.604,71.643 256.504,70.546 254.604,73.594 256.504,72.498 254.604,74.731 256.504,73.635 254.604,75.936 256.504,74.84 
				254.604,77.784 256.504,76.687 254.604,79.489 256.504,78.393 254.604,81.377 256.504,80.28 254.604,83.321 256.504,82.224 
				254.604,85.538 256.505,84.441 254.604,87.352 256.505,86.255 254.604,88.879 256.505,87.782 254.972,90.806 256.681,89.819 
				255.615,91.965 257.323,90.979 256.86,93.157 258.866,92 258.427,93.876 265.183,89.975 261.305,93.901 263.901,92.402 			"/>
			<polyline fill="none" stroke="#FFFFFF" stroke-linecap="round" stroke-linejoin="round" points="270.819,71.625 273.847,69.876 
				273.869,71.676 275.929,70.486 275.799,72.591 277.433,71.648 276.453,73.57 278.05,72.648 276.695,75.405 278.515,74.354 
				276.695,76.711 278.568,75.63 276.695,78.592 278.568,77.511 276.695,80.737 278.568,79.656 276.696,82.919 278.568,81.838 
				276.696,84.565 278.568,83.484 276.696,86.326 278.568,85.245 276.696,87.805 278.569,86.724 276.651,89.302 278.569,88.194 
				276.048,90.827 278.514,89.404 			"/>
			<polyline fill="none" stroke="#FFFFFF" stroke-linecap="round" stroke-linejoin="round" points="268.364,70.096 268.844,69.819 
				268.366,71.671 271.573,69.819 268.368,73.621 270.207,72.559 268.369,74.757 270.21,73.694 268.371,75.961 270.214,74.897 
				268.372,77.808 270.219,76.742 268.374,79.512 270.224,78.444 268.377,81.398 270.229,80.329 268.379,83.341 270.235,82.27 
				268.382,85.556 270.241,84.483 268.384,87.369 270.246,86.293 268.386,88.895 270.251,87.818 268.389,91.033 270.256,89.954 
				268.391,92.563 270.26,91.483 269.245,93.98 272.416,92.149 272.113,93.947 278.352,90.346 274.699,93.744 277.237,92.279 			"/>
			<polyline fill="none" stroke="#FFFFFF" stroke-linecap="round" stroke-linejoin="round" points="281.768,70.066 282.261,69.782 
				281.77,71.642 283.787,70.477 281.772,73.592 283.79,72.427 281.774,74.728 283.791,73.563 281.775,75.932 283.793,74.768 
				281.778,77.778 283.794,76.614 281.78,79.482 283.796,78.318 281.782,81.369 283.798,80.204 281.785,83.311 283.801,82.147 
				281.786,85.526 283.803,84.362 281.789,87.339 283.806,86.175 281.791,88.865 283.808,87.701 281.794,91.003 283.81,89.839 
				281.796,92.533 283.812,91.369 282.601,93.978 283.815,93.277 			"/>
			<polyline fill="none" stroke="#FFFFFF" stroke-linecap="round" stroke-linejoin="round" points="292.084,71.752 294.976,70.081 
				294.881,71.95 296.728,70.883 296.505,73.041 298.071,72.137 297.034,74.092 298.695,73.133 297.157,75.997 298.999,74.932 
				297.157,77.303 298.999,76.239 297.157,79.184 298.999,78.12 297.157,81.328 298.999,80.265 297.157,83.51 299,82.446 
				297.158,85.157 299,84.093 297.158,86.918 299,85.854 297.158,88.397 299,87.332 296.967,89.977 299,88.804 			"/>
			<polyline fill="none" stroke="#FFFFFF" stroke-linecap="round" stroke-linejoin="round" points="288.41,71.743 291.338,70.052 
				287.338,73.938 294.219,69.965 287.192,75.973 289.035,74.909 287.193,77.111 289.035,76.047 287.193,78.315 289.035,77.251 
				287.193,80.164 289.035,79.099 287.193,81.868 289.035,80.804 287.193,83.756 289.036,82.692 287.193,85.7 289.036,84.636 
				287.193,87.916 289.036,86.852 287.267,89.688 289.036,88.666 287.645,90.996 289.217,90.089 288.769,92.488 290.428,91.529 
				289.97,93.325 291.935,92.19 292.108,94 298.832,90.119 294.885,93.874 297.774,92.206 			"/>
		</g>
	</g>
</g>
</svg>
