<?xml version="1.0" encoding="utf-8"?>
<!-- Generator: Adobe Illustrator 17.0.0, SVG Export Plug-In . SVG Version: 6.00 Build 0)  -->
<!DOCTYPE svg PUBLIC "-//W3C//DTD SVG 1.1//EN" "http://www.w3.org/Graphics/SVG/1.1/DTD/svg11.dtd">
<svg version="1.1" id="Capa_1" xmlns="http://www.w3.org/2000/svg" xmlns:xlink="http://www.w3.org/1999/xlink" x="0px" y="0px"
	 width="625px" height="500px" viewBox="0 0 625 500" enable-background="new 0 0 625 500" xml:space="preserve">
<g id="sol">
	<g>
		<g display="none">
			<rect id="XMLID_1_" x="36" y="-203" display="inline" fill="#FBF7ED" width="554" height="554"/>
		</g>
		<g>
			<g>
				<g>
					<defs>
						<rect id="SVGID_1_" x="36" y="-203" width="554" height="554"/>
					</defs>
					<clipPath id="SVGID_2_">
						<use xlink:href="#SVGID_1_"  overflow="visible"/>
					</clipPath>
					<g clip-path="url(#SVGID_2_)">
						<circle fill="none" cx="312.977" cy="240.721" r="362.708"/>
					</g>
				</g>
			</g>
		</g>
		<g>
			<g>
				<g>
					<defs>
						<rect id="SVGID_3_" x="36" y="-203" width="554" height="554"/>
					</defs>
					<clipPath id="SVGID_4_">
						<use xlink:href="#SVGID_3_"  overflow="visible"/>
					</clipPath>
					
						<circle opacity="0.3" clip-path="url(#SVGID_4_)" fill="#E6CF91" enable-background="new    " cx="312.977" cy="240.721" r="235.345"/>
				</g>
			</g>
		</g>
		<g>
			<g>
				<g>
					<defs>
						<rect id="SVGID_5_" x="36" y="-203" width="554" height="554"/>
					</defs>
					<clipPath id="SVGID_6_">
						<use xlink:href="#SVGID_5_"  overflow="visible"/>
					</clipPath>
					<circle clip-path="url(#SVGID_6_)" fill="#DBB962" cx="312.977" cy="240.721" r="130.824"/>
				</g>
			</g>
		</g>
	</g>
</g>
<g id="montañas">
	<g>
		<g>
			<g>
				<g>
					<defs>
						<polygon id="SVGID_7_" points="24.691,325.453 101.772,177.219 178.854,325.453 						"/>
					</defs>
					<clipPath id="SVGID_8_">
						<use xlink:href="#SVGID_7_"  overflow="visible"/>
					</clipPath>
					<g clip-path="url(#SVGID_8_)">
						<polygon fill="#99837C" points="24.691,325.453 101.772,325.453 101.772,177.219 						"/>
						<polygon fill="#7F6F6B" points="101.772,177.219 101.772,325.453 178.854,325.453 						"/>
					</g>
				</g>
			</g>
			<g>
				<g>
					<defs>
						<polygon id="SVGID_9_" points="24.691,325.453 101.772,177.219 178.854,325.453 						"/>
					</defs>
					<clipPath id="SVGID_10_">
						<use xlink:href="#SVGID_9_"  overflow="visible"/>
					</clipPath>
					<g clip-path="url(#SVGID_10_)">
						<path fill="#E6E6E5" d="M66.775,234.169c0.45,5.301,5.113,9.236,10.414,8.787c1.951-0.166,3.715-0.905,5.145-2.034
							c1.06,4.598,5.353,7.839,10.19,7.429c3.426-0.291,6.272-2.345,7.743-5.19c0.44,0.583,0.95,1.106,1.505,1.574v-67.516
							C97.328,177.595,66.327,228.865,66.775,234.169z"/>
						<path fill="#CACACA" d="M135.496,232.436c-0.449-5.301-28.421-55.666-33.723-55.217v67.516
							c1.88,1.585,4.354,2.462,6.998,2.239c4.446-0.376,7.917-3.717,8.664-7.91c1.938,1.947,4.689,3.057,7.642,2.808
							C130.377,241.423,135.944,237.74,135.496,232.436z"/>
					</g>
				</g>
			</g>
		</g>
	</g>
	<g>
		<g>
			<g>
				<g>
					<defs>
						<polygon id="SVGID_11_" points="266.812,306.726 329.564,186.05 392.316,306.726 						"/>
					</defs>
					<clipPath id="SVGID_12_">
						<use xlink:href="#SVGID_11_"  overflow="visible"/>
					</clipPath>
					<g clip-path="url(#SVGID_12_)">
						<polygon fill="#99837C" points="266.812,306.726 329.564,306.726 329.564,186.05 						"/>
						<polygon fill="#7F6F6B" points="329.564,186.05 329.564,306.726 392.316,306.726 						"/>
					</g>
				</g>
			</g>
			<g>
				<g>
					<defs>
						<polygon id="SVGID_13_" points="266.812,306.726 329.564,186.05 392.316,306.726 						"/>
					</defs>
					<clipPath id="SVGID_14_">
						<use xlink:href="#SVGID_13_"  overflow="visible"/>
					</clipPath>
					<g clip-path="url(#SVGID_14_)">
						<path fill="#E6E6E5" d="M301.073,232.413c0.368,4.315,4.163,7.519,8.479,7.154c1.588-0.136,3.024-0.737,4.188-1.656
							c0.863,3.742,4.359,6.381,8.296,6.048c2.789-0.237,5.106-1.909,6.303-4.226c0.359,0.475,0.773,0.9,1.226,1.281V186.05
							C325.947,186.356,300.708,228.094,301.073,232.413z"/>
						<path fill="#CACACA" d="M357.018,231.001c-0.365-4.315-23.137-45.317-27.454-44.951v54.964c1.53,1.29,3.545,2.005,5.696,1.823
							c3.619-0.305,6.446-3.025,7.054-6.439c1.578,1.585,3.817,2.49,6.22,2.287C352.852,238.317,357.384,235.319,357.018,231.001z"
							/>
					</g>
				</g>
			</g>
		</g>
	</g>
	<g>
		<g>
			<g>
				<g>
					<defs>
						<polygon id="SVGID_15_" points="181.222,306.726 258.304,158.493 335.385,306.726 						"/>
					</defs>
					<clipPath id="SVGID_16_">
						<use xlink:href="#SVGID_15_"  overflow="visible"/>
					</clipPath>
					<g clip-path="url(#SVGID_16_)">
						<polygon fill="#99837C" points="181.222,306.726 258.304,306.726 258.304,158.493 						"/>
						<polygon fill="#7F6F6B" points="258.304,158.493 258.304,306.726 335.385,306.726 						"/>
					</g>
				</g>
			</g>
			<g>
				<g>
					<defs>
						<polygon id="SVGID_17_" points="181.222,306.726 258.304,158.493 335.385,306.726 						"/>
					</defs>
					<clipPath id="SVGID_18_">
						<use xlink:href="#SVGID_17_"  overflow="visible"/>
					</clipPath>
					<g clip-path="url(#SVGID_18_)">
						<path fill="#E6E6E5" d="M223.307,215.442c0.45,5.301,5.113,9.236,10.414,8.787c1.951-0.166,3.714-0.905,5.145-2.034
							c1.06,4.598,5.353,7.839,10.19,7.429c3.426-0.291,6.272-2.345,7.743-5.19c0.44,0.583,0.95,1.106,1.506,1.574v-67.516
							C253.859,158.869,222.858,210.138,223.307,215.442z"/>
						<path fill="#CACACA" d="M292.027,213.71c-0.449-5.301-28.421-55.666-33.723-55.217v67.516c1.88,1.585,4.354,2.462,6.998,2.239
							c4.446-0.376,7.917-3.717,8.664-7.91c1.938,1.947,4.689,3.057,7.642,2.808C286.908,222.696,292.475,219.014,292.027,213.71z"
							/>
					</g>
				</g>
			</g>
		</g>
	</g>
	<g>
		<g>
			<g>
				<g>
					<defs>
						<polygon id="SVGID_19_" points="444.888,306.726 521.97,158.493 599.051,306.726 						"/>
					</defs>
					<clipPath id="SVGID_20_">
						<use xlink:href="#SVGID_19_"  overflow="visible"/>
					</clipPath>
					<g clip-path="url(#SVGID_20_)">
						<polygon fill="#99837C" points="444.888,306.726 521.97,306.726 521.97,158.493 						"/>
						<polygon fill="#7F6F6B" points="521.97,158.493 521.97,306.726 599.051,306.726 						"/>
					</g>
				</g>
			</g>
			<g>
				<g>
					<defs>
						<polygon id="SVGID_21_" points="444.888,306.726 521.97,158.493 599.051,306.726 						"/>
					</defs>
					<clipPath id="SVGID_22_">
						<use xlink:href="#SVGID_21_"  overflow="visible"/>
					</clipPath>
					<g clip-path="url(#SVGID_22_)">
						<path fill="#E6E6E5" d="M486.973,215.442c0.45,5.301,5.113,9.236,10.414,8.787c1.951-0.166,3.714-0.905,5.145-2.034
							c1.06,4.598,5.353,7.839,10.19,7.429c3.426-0.291,6.272-2.345,7.743-5.19c0.44,0.583,0.95,1.106,1.505,1.574v-67.516
							C517.525,158.869,486.524,210.138,486.973,215.442z"/>
						<path fill="#CACACA" d="M555.693,213.71c-0.449-5.301-28.42-55.666-33.723-55.217v67.516c1.88,1.585,4.354,2.462,6.998,2.239
							c4.446-0.376,7.917-3.717,8.664-7.91c1.938,1.947,4.689,3.057,7.642,2.808C550.574,222.696,556.141,219.014,555.693,213.71z"
							/>
					</g>
				</g>
			</g>
		</g>
	</g>
	<g>
		<g>
			<g>
				<g>
					<defs>
						<polygon id="SVGID_23_" points="84.275,325.453 178.564,144.127 272.852,325.453 						"/>
					</defs>
					<clipPath id="SVGID_24_">
						<use xlink:href="#SVGID_23_"  overflow="visible"/>
					</clipPath>
					<g clip-path="url(#SVGID_24_)">
						<polygon fill="#B29C95" points="84.275,325.453 178.564,325.453 178.564,144.127 						"/>
						<polygon fill="#978783" points="178.564,144.127 178.564,325.453 272.852,325.453 						"/>
					</g>
				</g>
			</g>
			<g>
				<g>
					<defs>
						<polygon id="SVGID_25_" points="84.275,325.453 178.564,144.127 272.852,325.453 						"/>
					</defs>
					<clipPath id="SVGID_26_">
						<use xlink:href="#SVGID_25_"  overflow="visible"/>
					</clipPath>
					<g clip-path="url(#SVGID_26_)">
						<path fill="#FFFFFF" d="M135.754,213.791c0.551,6.484,6.254,11.297,12.74,10.748c2.386-0.204,4.543-1.107,6.293-2.489
							c1.296,5.624,6.548,9.589,12.465,9.088c4.19-0.356,7.671-2.869,9.47-6.348c0.539,0.714,1.162,1.352,1.843,1.924v-82.587
							C173.126,144.587,135.205,207.303,135.754,213.791z"/>
						<path fill="#E3E3E3" d="M219.815,211.672c-0.55-6.485-34.765-68.093-41.251-67.545v82.588c2.3,1.94,5.326,3.013,8.561,2.74
							c5.437-0.46,9.683-4.548,10.596-9.676c2.371,2.381,5.735,3.739,9.349,3.435C213.553,222.665,220.365,218.16,219.815,211.672z"
							/>
					</g>
				</g>
			</g>
		</g>
	</g>
	<g>
		<g>
			<g>
				<g>
					<defs>
						<polygon id="SVGID_27_" points="316.465,306.726 410.754,125.401 505.043,306.726 						"/>
					</defs>
					<clipPath id="SVGID_28_">
						<use xlink:href="#SVGID_27_"  overflow="visible"/>
					</clipPath>
					<g clip-path="url(#SVGID_28_)">
						<polygon fill="#B29C95" points="316.465,306.726 410.754,306.726 410.754,125.401 						"/>
						<polygon fill="#978783" points="410.754,125.401 410.754,306.726 505.043,306.726 						"/>
					</g>
				</g>
			</g>
			<g>
				<g>
					<defs>
						<polygon id="SVGID_29_" points="316.465,306.726 410.754,125.401 505.043,306.726 						"/>
					</defs>
					<clipPath id="SVGID_30_">
						<use xlink:href="#SVGID_29_"  overflow="visible"/>
					</clipPath>
					<g clip-path="url(#SVGID_30_)">
						<path fill="#FFFFFF" d="M367.944,195.065c0.55,6.484,6.254,11.297,12.739,10.748c2.387-0.204,4.544-1.107,6.294-2.489
							c1.296,5.624,6.547,9.589,12.464,9.088c4.189-0.356,7.671-2.869,9.47-6.348c0.539,0.714,1.162,1.352,1.843,1.924v-82.587
							C405.317,125.861,367.396,188.577,367.944,195.065z"/>
						<path fill="#E3E3E3" d="M452.006,192.945c-0.55-6.485-34.765-68.093-41.252-67.545v82.588c2.3,1.94,5.326,3.013,8.561,2.74
							c5.437-0.46,9.683-4.548,10.596-9.676c2.371,2.381,5.735,3.739,9.349,3.435C445.744,203.938,452.556,199.433,452.006,192.945z
							"/>
					</g>
				</g>
			</g>
		</g>
	</g>
</g>
<g id="arboles">
	<g>
		<rect x="267.904" y="277.103" fill="#64442C" width="2.224" height="12.36"/>
		<path fill="#636F4C" d="M269.016,248.641c-4.843,0-8.772,3.929-8.772,8.774v13.111c0,4.848,3.929,8.772,8.772,8.772
			c4.847,0,8.772-3.924,8.772-8.772v-13.111C277.788,252.57,273.863,248.641,269.016,248.641z"/>
	</g>
	<g>
		<rect x="312.682" y="276.556" fill="#64442C" width="2.048" height="11.375"/>
		<path fill="#636F4C" d="M313.707,250.365c-4.458,0-8.074,3.615-8.074,8.074v12.066c0,4.46,3.616,8.072,8.074,8.072
			c4.46,0,8.072-3.611,8.072-8.072v-12.066C321.779,253.98,318.167,250.365,313.707,250.365z"/>
	</g>
	<g>
		<rect x="423.239" y="279.384" fill="#64442C" width="2.046" height="11.375"/>
		<path fill="#636F4C" d="M424.262,253.193c-4.458,0-8.074,3.616-8.074,8.075v12.066c0,4.462,3.616,8.072,8.074,8.072
			c4.46,0,8.072-3.61,8.072-8.072v-12.066C432.334,256.808,428.722,253.193,424.262,253.193z"/>
	</g>
	<g>
		<rect x="448.54" y="279.384" fill="#64442C" width="2.047" height="11.375"/>
		<path fill="#636F4C" d="M449.562,253.193c-4.457,0-8.073,3.616-8.073,8.075v12.066c0,4.462,3.616,8.072,8.073,8.072
			c4.461,0,8.072-3.61,8.072-8.072v-12.066C457.634,256.808,454.023,253.193,449.562,253.193z"/>
	</g>
	<g>
		<rect x="293.663" y="278.83" fill="#64442C" width="2.444" height="12.404"/>
		<polygon fill="#636F4C" points="294.886,239.62 283.027,279.806 294.886,279.806 306.745,279.806 		"/>
	</g>
	<g>
		<rect x="337.5" y="277.437" fill="#64442C" width="2.145" height="10.887"/>
		<polygon fill="#636F4C" points="338.573,243.018 328.163,278.293 338.573,278.293 348.983,278.293 		"/>
	</g>
	<g>
		<rect x="394.466" y="279.027" fill="#64442C" width="1.996" height="10.127"/>
		<polygon fill="#636F4C" points="395.465,247.018 385.784,279.823 395.465,279.823 405.147,279.823 		"/>
	</g>
	<g>
		<rect x="348.908" y="276.406" fill="#64442C" width="2.225" height="12.359"/>
		<path fill="#808042" d="M350.019,247.945c-4.843,0-8.772,3.928-8.772,8.774v13.111c0,4.849,3.929,8.771,8.772,8.771
			c4.849,0,8.773-3.923,8.773-8.771v-13.111C358.791,251.873,354.867,247.945,350.019,247.945z"/>
	</g>
	<g>
		<rect x="302.545" y="275.972" fill="#64442C" width="2.225" height="12.36"/>
		<path fill="#808042" d="M303.658,247.51c-4.844,0-8.773,3.93-8.773,8.776v13.111c0,4.848,3.929,8.772,8.773,8.772
			c4.847,0,8.772-3.924,8.772-8.772v-13.111C312.43,251.44,308.505,247.51,303.658,247.51z"/>
	</g>
	<g>
		<rect x="257.901" y="277.574" fill="#64442C" width="2.225" height="12.36"/>
		<path fill="#808042" d="M259.013,249.111c-4.845,0-8.773,3.93-8.773,8.776v13.111c0,4.848,3.928,8.772,8.773,8.772
			c4.847,0,8.772-3.924,8.772-8.772v-13.111C267.785,253.04,263.86,249.111,259.013,249.111z"/>
	</g>
	<g>
		<rect x="126.661" y="278.893" fill="#64442C" width="2.225" height="12.36"/>
		<path fill="#808042" d="M127.773,250.43c-4.845,0-8.773,3.93-8.773,8.776v13.111c0,4.848,3.928,8.772,8.773,8.772
			c4.847,0,8.772-3.924,8.772-8.772v-13.111C136.545,254.359,132.621,250.43,127.773,250.43z"/>
	</g>
	<g>
		<rect x="322.727" y="275.859" fill="#64442C" width="2.444" height="12.404"/>
		<polygon fill="#808042" points="323.949,236.65 312.091,276.835 323.949,276.835 335.81,276.835 		"/>
	</g>
	<g>
		<rect x="381.281" y="277.219" fill="#64442C" width="2.445" height="12.404"/>
		<polygon fill="#808042" points="382.503,238.008 370.645,278.195 382.503,278.195 394.364,278.195 		"/>
	</g>
	<g>
		<rect x="409.771" y="277.219" fill="#64442C" width="2.444" height="12.404"/>
		<polygon fill="#808042" points="410.993,238.008 399.135,278.195 410.993,278.195 422.853,278.195 		"/>
	</g>
	<g>
		<rect x="434.909" y="277.777" fill="#64442C" width="2.248" height="11.403"/>
		<polygon fill="#808042" points="436.034,241.73 425.132,278.673 436.034,278.673 446.937,278.673 		"/>
	</g>
	<g>
		<rect x="280.764" y="276.694" fill="#64442C" width="2.444" height="12.404"/>
		<polygon fill="#808042" points="281.986,237.484 270.128,277.669 281.986,277.669 293.845,277.669 		"/>
	</g>
</g>
<g id="campo">
	<path fill="#A5B051" d="M-739.339,348.632c687.587-81.058,1412.86-81.049,2100.448,0c0,40.497,0,80.995,0,121.493
		c-700.149,0-1400.297,0-2100.448,0C-739.339,429.628-739.339,389.13-739.339,348.632z"/>
	<rect x="-3" y="457.333" fill="#A5B051" width="634.667" height="107"/>
</g>
</svg>
