<?xml version="1.0" encoding="utf-8"?>
<!-- Generator: Adobe Illustrator 17.0.0, SVG Export Plug-In . SVG Version: 6.00 Build 0)  -->
<!DOCTYPE svg PUBLIC "-//W3C//DTD SVG 1.1//EN" "http://www.w3.org/Graphics/SVG/1.1/DTD/svg11.dtd">
<svg version="1.1" id="Capa_1" xmlns="http://www.w3.org/2000/svg" xmlns:xlink="http://www.w3.org/1999/xlink" x="0px" y="0px"
	 width="38px" height="31px" viewBox="0 0 38 31" enable-background="new 0 0 38 31" xml:space="preserve">
<path fill="#FFFFFF" d="M37.806,3.836c-1.383,0.614-2.872,1.028-4.432,1.215c1.593-0.956,2.816-2.467,3.393-4.269
	c-1.492,0.884-3.143,1.527-4.9,1.872c-1.408-1.5-3.413-2.437-5.632-2.437c-4.262,0-7.716,3.454-7.716,7.716
	c0,0.605,0.068,1.194,0.2,1.758C12.306,9.369,6.62,6.296,2.814,1.628c-0.664,1.14-1.045,2.465-1.045,3.88
	c0,2.678,1.362,5.039,3.433,6.424c-1.265-0.04-2.454-0.387-3.496-0.965c-0.001,0.032-0.001,0.065-0.001,0.098
	c0,3.739,2.66,6.857,6.19,7.566c-0.648,0.176-1.329,0.27-2.033,0.27c-0.497,0-0.98-0.048-1.452-0.139
	c0.981,3.065,3.832,5.296,7.209,5.359c-2.641,2.07-5.969,3.303-9.584,3.303c-0.623,0-1.236-0.036-1.841-0.108
	c3.415,2.19,7.471,3.467,11.829,3.467c14.194,0,21.955-11.759,21.955-21.956c0-0.335-0.007-0.668-0.022-0.998
	C35.464,6.741,36.772,5.382,37.806,3.836L37.806,3.836L37.806,3.836z"/>
</svg>
