<?xml version="1.0" encoding="utf-8"?>
<!-- Generator: Adobe Illustrator 17.0.0, SVG Export Plug-In . SVG Version: 6.00 Build 0)  -->
<!DOCTYPE svg PUBLIC "-//W3C//DTD SVG 1.1//EN" "http://www.w3.org/Graphics/SVG/1.1/DTD/svg11.dtd">
<svg version="1.1" id="Capa_1" xmlns="http://www.w3.org/2000/svg" xmlns:xlink="http://www.w3.org/1999/xlink" x="0px" y="0px"
	 width="333px" height="100px" viewBox="0 0 333 100" style="enable-background:new 0 0 333 100;" xml:space="preserve">
<style type="text/css">
	.st0{fill:#C43F30;}
</style>
<g>
	<path class="st0" d="M95.655,68.331h-19.15c-0.634,0-1.125-0.208-1.475-0.625s-0.525-0.892-0.525-1.425c0-0.533,0.175-1,0.525-1.4
		s0.841-0.6,1.475-0.6h3v-26.95h-3c-0.6,0-1.075-0.2-1.425-0.6c-0.35-0.4-0.525-0.883-0.525-1.45c0-0.533,0.175-1,0.525-1.4
		c0.35-0.4,0.825-0.6,1.425-0.6h19.15c1.333,0,2.425,0.025,3.275,0.075s1.867,0.242,3.05,0.575s2.116,0.8,2.8,1.4
		c0.683,0.6,1.283,1.492,1.8,2.675c0.516,1.184,0.775,2.625,0.775,4.325c0,1.833-0.475,3.417-1.425,4.75s-2.192,2.184-3.725,2.55
		c2.033,0.268,3.8,1.059,5.3,2.375c1.5,1.317,2.25,3.309,2.25,5.975c0,1.5-0.2,2.843-0.6,4.025c-0.4,1.184-0.967,2.134-1.7,2.85
		c-0.734,0.718-1.534,1.317-2.4,1.801c-0.867,0.483-1.875,0.842-3.025,1.074c-1.15,0.234-2.2,0.393-3.15,0.476
		C97.93,68.29,96.855,68.331,95.655,68.331z M83.805,47.931h11.85c4.767,0,7.15-1.767,7.15-5.3c0-1-0.142-1.841-0.425-2.525
		c-0.284-0.683-0.625-1.208-1.025-1.575s-0.958-0.642-1.675-0.825c-0.717-0.183-1.342-0.292-1.875-0.325s-1.25-0.05-2.15-0.05
		h-11.85C83.805,37.331,83.805,47.931,83.805,47.931z M95.655,51.981h-11.85v12.3h11.85c1.2,0,2.242-0.059,3.125-0.176
		c0.883-0.116,1.867-0.366,2.95-0.75c1.083-0.383,1.925-1.032,2.525-1.949c0.6-0.917,0.9-2.075,0.9-3.476
		c0-2.3-0.792-3.866-2.375-4.7C101.196,52.398,98.821,51.981,95.655,51.981z"/>
	<path class="st0" d="M132.305,49.981c2.167,2.1,3.25,4.717,3.25,7.85c0,3.134-1.083,5.759-3.25,7.875
		c-2.167,2.117-4.967,3.175-8.4,3.175c-3.434,0-6.225-1.058-8.375-3.175c-2.15-2.116-3.225-4.741-3.225-7.875
		c0-3.133,1.075-5.75,3.225-7.85s4.941-3.15,8.375-3.15C127.337,46.831,130.138,47.881,132.305,49.981z M131.255,57.831
		c0-2.066-0.692-3.825-2.075-5.275c-1.383-1.45-3.142-2.175-5.275-2.175c-2.134,0-3.884,0.725-5.25,2.175
		c-1.367,1.45-2.05,3.208-2.05,5.275c0,2.1,0.683,3.875,2.05,5.325c1.366,1.449,3.116,2.175,5.25,2.175
		c2.133,0,3.892-0.726,5.275-2.175C130.563,61.706,131.255,59.931,131.255,57.831z"/>
	<path class="st0" d="M140.005,51.031h-2.1c-0.633,0-1.108-0.175-1.425-0.525c-0.317-0.35-0.475-0.791-0.475-1.325
		c0-0.5,0.167-0.941,0.5-1.325c0.333-0.383,0.8-0.575,1.4-0.575h4.25c0.6,0,1.083,0.167,1.45,0.5c0.366,0.333,0.55,0.8,0.55,1.4
		v8.799c0,4.567,2.15,6.851,6.45,6.851c1.8,0,3.233-0.583,4.3-1.75c1.066-1.167,1.633-2.8,1.7-4.9v-7.149h-2.15
		c-0.6,0-1.059-0.183-1.375-0.55c-0.317-0.366-0.475-0.8-0.475-1.3s0.167-0.941,0.5-1.325c0.333-0.383,0.783-0.575,1.35-0.575h4.3
		c0.533,0,1,0.167,1.4,0.5s0.6,0.8,0.6,1.4v15.4h2.1c0.6,0,1.058,0.184,1.375,0.55c0.316,0.367,0.475,0.8,0.475,1.3
		c0,0.534-0.159,0.983-0.475,1.351c-0.317,0.367-0.775,0.55-1.375,0.55h-4.3c-0.5,0-0.95-0.167-1.35-0.5c-0.4-0.333-0.6-0.8-0.6-1.4
		v-2.649c-0.1,1.367-0.8,2.55-2.1,3.55c-1.3,1-2.917,1.5-4.85,1.5c-6.434,0-9.65-3.566-9.65-10.7V51.031z"/>
	<path class="st0" d="M167.605,47.281h4.15c0.566,0,1.058,0.175,1.475,0.525c0.417,0.35,0.625,0.825,0.625,1.425v2.15
		c0.633-1.3,1.625-2.4,2.976-3.3c1.35-0.9,2.875-1.3,4.574-1.2c1.133,0.067,2.042,0.409,2.726,1.025
		c0.683,0.617,0.975,1.358,0.875,2.225c-0.067,0.467-0.2,0.867-0.4,1.2c-0.434,0.767-1.075,1.192-1.925,1.275s-1.575-0.15-2.175-0.7
		c-0.601-0.55-0.8-1.242-0.601-2.075c-1.533,0.233-2.858,1-3.975,2.3s-1.809,3.134-2.075,5.5v6.95h2.101
		c0.6,0,1.066,0.184,1.399,0.55c0.333,0.367,0.5,0.817,0.5,1.35c0,0.5-0.167,0.934-0.5,1.301s-0.8,0.55-1.399,0.55h-8.35
		c-0.6,0-1.067-0.183-1.4-0.55c-0.334-0.367-0.5-0.801-0.5-1.301c0-0.532,0.166-0.982,0.5-1.35c0.333-0.366,0.8-0.55,1.4-0.55h2.1
		v-13.55h-2.1c-0.6,0-1.067-0.183-1.4-0.55c-0.334-0.366-0.5-0.816-0.5-1.35c0-0.5,0.166-0.933,0.5-1.3
		C166.538,47.465,167.005,47.281,167.605,47.281z"/>
	<path class="st0" d="M200.704,46.831c3.2,0,5.791,1.075,7.774,3.225s2.976,4.742,2.976,7.775s-0.992,5.625-2.976,7.774
		c-1.983,2.15-4.574,3.226-7.774,3.226c-3.601,0-6.334-1.383-8.2-4.15v1.75c0,0.601-0.2,1.067-0.6,1.4c-0.4,0.333-0.867,0.5-1.4,0.5
		h-4.25c-0.6,0-1.067-0.183-1.4-0.55c-0.333-0.367-0.5-0.801-0.5-1.301c0-0.532,0.167-0.982,0.5-1.35
		c0.333-0.366,0.801-0.55,1.4-0.55h2.1V35.73h-2.1c-0.6,0-1.067-0.183-1.4-0.55c-0.333-0.367-0.5-0.816-0.5-1.35
		c0-0.5,0.167-0.933,0.5-1.3c0.333-0.367,0.801-0.55,1.4-0.55h4.25c0.533,0,1,0.167,1.4,0.5c0.399,0.333,0.6,0.8,0.6,1.4v17.15
		C194.404,48.231,197.137,46.831,200.704,46.831z M205.079,52.556c-1.384-1.417-3.108-2.125-5.175-2.125s-3.801,0.659-5.2,1.975
		c-1.4,1.316-2.134,3.024-2.2,5.125v0.399c0.033,2.167,0.758,3.934,2.175,5.3c1.417,1.367,3.175,2.051,5.275,2.051
		c2.066,0,3.782-0.708,5.149-2.125s2.051-3.191,2.051-5.325C207.154,55.73,206.462,53.973,205.079,52.556z"/>
	<path class="st0" d="M234.254,49.981c2.166,2.1,3.25,4.717,3.25,7.85c0,3.134-1.084,5.759-3.25,7.875
		c-2.167,2.117-4.968,3.175-8.4,3.175c-3.434,0-6.225-1.058-8.375-3.175c-2.149-2.116-3.225-4.741-3.225-7.875
		c0-3.133,1.075-5.75,3.225-7.85c2.15-2.1,4.941-3.15,8.375-3.15C229.286,46.831,232.087,47.881,234.254,49.981z M233.204,57.831
		c0-2.066-0.692-3.825-2.075-5.275c-1.384-1.45-3.143-2.175-5.275-2.175c-2.134,0-3.884,0.725-5.25,2.175
		c-1.367,1.45-2.05,3.208-2.05,5.275c0,2.1,0.683,3.875,2.05,5.325c1.366,1.449,3.116,2.175,5.25,2.175
		c2.133,0,3.892-0.726,5.275-2.175C232.512,61.706,233.204,59.931,233.204,57.831z"/>
	<path class="st0" d="M265.805,68.331h-4.15c-0.567,0-1.05-0.175-1.45-0.525c-0.399-0.35-0.6-0.841-0.6-1.475V57.73
		c0-4.566-2.15-6.85-6.45-6.85c-1.733,0-3.134,0.525-4.2,1.575c-1.067,1.05-1.667,2.524-1.8,4.425v7.7h2.05
		c0.6,0,1.066,0.184,1.4,0.55c0.333,0.367,0.5,0.817,0.5,1.35c0,0.5-0.167,0.934-0.5,1.301c-0.334,0.367-0.801,0.55-1.4,0.55h-8.35
		c-0.601,0-1.067-0.183-1.4-0.55c-0.334-0.367-0.5-0.801-0.5-1.301c0-0.532,0.166-0.982,0.5-1.35c0.333-0.366,0.8-0.55,1.4-0.55
		h2.149V51.03h-2.149c-0.601,0-1.067-0.191-1.4-0.575c-0.334-0.383-0.5-0.825-0.5-1.325s0.166-0.933,0.5-1.3
		c0.333-0.366,0.8-0.55,1.4-0.55h4.199c0.566,0,1.059,0.175,1.476,0.525c0.416,0.35,0.625,0.842,0.625,1.475v2.3
		c0.2-1.3,0.95-2.417,2.25-3.35s2.866-1.4,4.7-1.4c6.433,0,9.649,3.567,9.649,10.7v7.05h2.051c0.6,0,1.066,0.192,1.399,0.575
		c0.333,0.383,0.5,0.824,0.5,1.324s-0.167,0.934-0.5,1.301C266.871,68.147,266.404,68.331,265.805,68.331z"/>
</g>
<g>
</g>
<g>
</g>
<g>
</g>
<g>
</g>
<g>
</g>
<g>
</g>
</svg>
