<?xml version="1.0" encoding="utf-8"?>
<!-- Generator: Adobe Illustrator 17.0.0, SVG Export Plug-In . SVG Version: 6.00 Build 0)  -->
<!DOCTYPE svg PUBLIC "-//W3C//DTD SVG 1.1//EN" "http://www.w3.org/Graphics/SVG/1.1/DTD/svg11.dtd">
<svg version="1.1" id="Capa_1" xmlns="http://www.w3.org/2000/svg" xmlns:xlink="http://www.w3.org/1999/xlink" x="0px" y="0px"
	 width="200px" height="75px" viewBox="0 0 200 75" enable-background="new 0 0 200 75" xml:space="preserve">
<g>
	<path fill="#C43F30" d="M24.655,53.664H5.505c-0.634,0-1.125-0.208-1.475-0.625s-0.525-0.892-0.525-1.425s0.175-1,0.525-1.4
		s0.841-0.6,1.475-0.6h3v-26.95h-3c-0.6,0-1.075-0.2-1.425-0.6c-0.35-0.4-0.525-0.883-0.525-1.45c0-0.533,0.175-1,0.525-1.4
		c0.35-0.4,0.825-0.6,1.425-0.6h19.15c1.333,0,2.425,0.025,3.275,0.075c0.85,0.05,1.867,0.242,3.05,0.575
		c1.183,0.333,2.116,0.8,2.8,1.4c0.683,0.6,1.283,1.492,1.8,2.675c0.516,1.184,0.775,2.625,0.775,4.325
		c0,1.833-0.475,3.417-1.425,4.75c-0.95,1.333-2.192,2.184-3.725,2.55c2.033,0.268,3.8,1.059,5.3,2.375
		c1.5,1.317,2.25,3.309,2.25,5.975c0,1.5-0.2,2.843-0.6,4.025c-0.4,1.184-0.967,2.134-1.7,2.85c-0.734,0.718-1.534,1.317-2.4,1.801
		c-0.867,0.483-1.875,0.842-3.025,1.074c-1.15,0.234-2.2,0.393-3.15,0.476S25.855,53.664,24.655,53.664z M12.805,33.264h11.85
		c4.767,0,7.15-1.767,7.15-5.3c0-1-0.142-1.841-0.425-2.525c-0.284-0.683-0.625-1.208-1.025-1.575
		c-0.4-0.367-0.958-0.642-1.675-0.825c-0.717-0.183-1.342-0.292-1.875-0.325c-0.533-0.033-1.25-0.05-2.15-0.05h-11.85V33.264z
		 M24.655,37.314h-11.85v12.3h11.85c1.2,0,2.242-0.059,3.125-0.176c0.883-0.116,1.867-0.366,2.95-0.75
		c1.083-0.383,1.925-1.032,2.525-1.949s0.9-2.075,0.9-3.476c0-2.3-0.792-3.866-2.375-4.7C30.196,37.731,27.821,37.314,24.655,37.314
		z"/>
	<path fill="#C43F30" d="M61.305,35.314c2.167,2.1,3.25,4.717,3.25,7.85c0,3.134-1.083,5.759-3.25,7.875
		c-2.167,2.117-4.967,3.175-8.4,3.175c-3.434,0-6.225-1.058-8.375-3.175c-2.15-2.116-3.225-4.741-3.225-7.875
		c0-3.133,1.075-5.75,3.225-7.85s4.941-3.15,8.375-3.15C56.337,32.164,59.138,33.214,61.305,35.314z M60.255,43.164
		c0-2.066-0.692-3.825-2.075-5.275c-1.383-1.45-3.142-2.175-5.275-2.175c-2.134,0-3.884,0.725-5.25,2.175
		c-1.367,1.45-2.05,3.208-2.05,5.275c0,2.1,0.683,3.875,2.05,5.325c1.366,1.449,3.116,2.175,5.25,2.175
		c2.133,0,3.892-0.726,5.275-2.175C59.563,47.039,60.255,45.264,60.255,43.164z"/>
	<path fill="#C43F30" d="M69.005,36.364h-2.1c-0.633,0-1.108-0.175-1.425-0.525c-0.317-0.35-0.475-0.791-0.475-1.325
		c0-0.5,0.167-0.941,0.5-1.325c0.333-0.383,0.8-0.575,1.4-0.575h4.25c0.6,0,1.083,0.167,1.45,0.5c0.366,0.333,0.55,0.8,0.55,1.4
		v8.799c0,4.567,2.15,6.851,6.45,6.851c1.8,0,3.233-0.583,4.3-1.75c1.066-1.167,1.633-2.8,1.7-4.9v-7.149h-2.15
		c-0.6,0-1.059-0.183-1.375-0.55c-0.317-0.366-0.475-0.8-0.475-1.3s0.167-0.941,0.5-1.325c0.333-0.383,0.783-0.575,1.35-0.575h4.3
		c0.533,0,1,0.167,1.4,0.5c0.4,0.333,0.6,0.8,0.6,1.4v15.4h2.1c0.6,0,1.058,0.184,1.375,0.55c0.316,0.367,0.475,0.8,0.475,1.3
		c0,0.534-0.159,0.983-0.475,1.351c-0.317,0.367-0.775,0.55-1.375,0.55h-4.3c-0.5,0-0.95-0.167-1.35-0.5c-0.4-0.333-0.6-0.8-0.6-1.4
		v-2.649c-0.1,1.367-0.8,2.55-2.1,3.55s-2.917,1.5-4.85,1.5c-6.434,0-9.65-3.566-9.65-10.7V36.364z"/>
	<path fill="#C43F30" d="M96.605,32.614h4.15c0.566,0,1.058,0.175,1.475,0.525s0.625,0.825,0.625,1.425v2.15
		c0.633-1.3,1.625-2.4,2.976-3.3c1.35-0.9,2.875-1.3,4.574-1.2c1.133,0.067,2.042,0.409,2.726,1.025
		c0.683,0.617,0.975,1.358,0.875,2.225c-0.067,0.467-0.2,0.867-0.4,1.2c-0.434,0.767-1.075,1.192-1.925,1.275
		c-0.85,0.083-1.575-0.15-2.175-0.7c-0.601-0.55-0.8-1.242-0.601-2.075c-1.533,0.233-2.858,1-3.975,2.3
		c-1.117,1.3-1.809,3.134-2.075,5.5v6.95h2.101c0.6,0,1.066,0.184,1.399,0.55c0.333,0.367,0.5,0.817,0.5,1.35
		c0,0.5-0.167,0.934-0.5,1.301s-0.8,0.55-1.399,0.55h-8.35c-0.6,0-1.067-0.183-1.4-0.55c-0.334-0.367-0.5-0.801-0.5-1.301
		c0-0.532,0.166-0.982,0.5-1.35c0.333-0.366,0.8-0.55,1.4-0.55h2.1v-13.55h-2.1c-0.6,0-1.067-0.183-1.4-0.55
		c-0.334-0.366-0.5-0.816-0.5-1.35c0-0.5,0.166-0.933,0.5-1.3C95.538,32.798,96.005,32.614,96.605,32.614z"/>
	<path fill="#C43F30" d="M129.704,32.164c3.2,0,5.791,1.075,7.774,3.225s2.976,4.742,2.976,7.775s-0.992,5.625-2.976,7.774
		c-1.983,2.15-4.574,3.226-7.774,3.226c-3.601,0-6.334-1.383-8.2-4.15v1.75c0,0.601-0.2,1.067-0.6,1.4c-0.4,0.333-0.867,0.5-1.4,0.5
		h-4.25c-0.6,0-1.067-0.183-1.4-0.55s-0.5-0.801-0.5-1.301c0-0.532,0.167-0.982,0.5-1.35c0.333-0.366,0.801-0.55,1.4-0.55h2.1
		v-28.85h-2.1c-0.6,0-1.067-0.183-1.4-0.55c-0.333-0.367-0.5-0.816-0.5-1.35c0-0.5,0.167-0.933,0.5-1.3
		c0.333-0.367,0.801-0.55,1.4-0.55h4.25c0.533,0,1,0.167,1.4,0.5c0.399,0.333,0.6,0.8,0.6,1.4v17.15
		C123.404,33.564,126.137,32.164,129.704,32.164z M134.079,37.889c-1.384-1.417-3.108-2.125-5.175-2.125
		c-2.067,0-3.801,0.659-5.2,1.975c-1.4,1.316-2.134,3.024-2.2,5.125v0.399c0.033,2.167,0.758,3.934,2.175,5.3
		c1.417,1.367,3.175,2.051,5.275,2.051c2.066,0,3.782-0.708,5.149-2.125s2.051-3.191,2.051-5.325
		C136.154,41.063,135.462,39.306,134.079,37.889z"/>
	<path fill="#C43F30" d="M163.254,35.314c2.166,2.1,3.25,4.717,3.25,7.85c0,3.134-1.084,5.759-3.25,7.875
		c-2.167,2.117-4.968,3.175-8.4,3.175c-3.434,0-6.225-1.058-8.375-3.175c-2.149-2.116-3.225-4.741-3.225-7.875
		c0-3.133,1.075-5.75,3.225-7.85c2.15-2.1,4.941-3.15,8.375-3.15C158.286,32.164,161.087,33.214,163.254,35.314z M162.204,43.164
		c0-2.066-0.692-3.825-2.075-5.275c-1.384-1.45-3.143-2.175-5.275-2.175c-2.134,0-3.884,0.725-5.25,2.175
		c-1.367,1.45-2.05,3.208-2.05,5.275c0,2.1,0.683,3.875,2.05,5.325c1.366,1.449,3.116,2.175,5.25,2.175
		c2.133,0,3.892-0.726,5.275-2.175C161.512,47.039,162.204,45.264,162.204,43.164z"/>
	<path fill="#C43F30" d="M194.805,53.664h-4.15c-0.567,0-1.05-0.175-1.45-0.525c-0.399-0.35-0.6-0.841-0.6-1.475v-8.601
		c0-4.566-2.15-6.85-6.45-6.85c-1.733,0-3.134,0.525-4.2,1.575c-1.067,1.05-1.667,2.524-1.8,4.425v7.7h2.05
		c0.6,0,1.066,0.184,1.4,0.55c0.333,0.367,0.5,0.817,0.5,1.35c0,0.5-0.167,0.934-0.5,1.301c-0.334,0.367-0.801,0.55-1.4,0.55h-8.35
		c-0.601,0-1.067-0.183-1.4-0.55c-0.334-0.367-0.5-0.801-0.5-1.301c0-0.532,0.166-0.982,0.5-1.35c0.333-0.366,0.8-0.55,1.4-0.55
		h2.149v-13.55h-2.149c-0.601,0-1.067-0.191-1.4-0.575c-0.334-0.383-0.5-0.825-0.5-1.325s0.166-0.933,0.5-1.3
		c0.333-0.366,0.8-0.55,1.4-0.55h4.199c0.566,0,1.059,0.175,1.476,0.525c0.416,0.35,0.625,0.842,0.625,1.475v2.3
		c0.2-1.3,0.95-2.417,2.25-3.35c1.3-0.933,2.866-1.4,4.7-1.4c6.433,0,9.649,3.567,9.649,10.7v7.05h2.051
		c0.6,0,1.066,0.192,1.399,0.575s0.5,0.824,0.5,1.324s-0.167,0.934-0.5,1.301S195.404,53.664,194.805,53.664z"/>
</g>
<g>
</g>
<g>
</g>
<g>
</g>
<g>
</g>
<g>
</g>
<g>
</g>
</svg>
