<?xml version="1.0" encoding="utf-8"?>
<!-- Generator: Adobe Illustrator 17.0.0, SVG Export Plug-In . SVG Version: 6.00 Build 0)  -->
<!DOCTYPE svg PUBLIC "-//W3C//DTD SVG 1.1//EN" "http://www.w3.org/Graphics/SVG/1.1/DTD/svg11.dtd">
<svg version="1.1" id="Capa_1" xmlns="http://www.w3.org/2000/svg" xmlns:xlink="http://www.w3.org/1999/xlink" x="0px" y="0px"
	 width="80px" height="120px" viewBox="0 0 80 120" enable-background="new 0 0 80 120" xml:space="preserve">
<g>
	<path fill="#C75134" d="M39.951,116.425L7.92,107.532L0.781,27.468h78.438l-7.146,80.052L39.951,116.425z M39.951,116.425"/>
	<path fill="#CB633B" d="M65.955,102.422l6.107-68.408H40v75.604L65.955,102.422z M65.955,102.422"/>
	<path fill="#EBEBEB" d="M40,73.528v-9.819H27.007l-0.897-10.056H40v-9.819h-0.034H15.377l0.234,2.634l2.414,27.061H40z M40,73.528"
		/>
	<path fill="#EBEBEB" d="M40,89.211l-0.043,0.012L29.021,86.27l-0.699-7.832h-5.314h-4.543l1.376,15.418l20.114,5.585L40,99.428
		V89.211z M40,89.211"/>
	<path d="M8.079,5.71h4.99v4.93h4.565V5.71h4.991v14.93h-4.991V15.64h-4.565v4.999h-4.99V5.71L8.079,5.71z M8.079,5.71"/>
	<path d="M29.187,10.66h-4.393V5.71h13.779v4.951h-4.395v9.979h-4.99V10.66L29.187,10.66z M29.187,10.66"/>
	<path d="M40.759,5.71h5.203l3.201,5.245l3.197-5.245h5.205v14.93h-4.97V13.24l-3.433,5.308h-0.087l-3.436-5.308v7.399h-4.882V5.71
		L40.759,5.71z M40.759,5.71"/>
	<path d="M60.05,5.71h4.992v9.995h7.017v4.935H60.05V5.71L60.05,5.71z M60.05,5.71"/>
	<path fill="#FFFFFF" d="M62.792,63.709h-2.646h-20.18v9.819h12.092l-1.14,12.735L39.966,89.22v10.215l20.13-5.579l0.148-1.659
		l2.308-25.852L62.792,63.709z M62.792,63.709"/>
	<path fill="#FFFFFF" d="M64.565,43.833H39.966v6.099v3.698v0.023h23.687l0,0h0.032l0.196-2.207l0.448-4.978L64.565,43.833z
		 M64.565,43.833"/>
</g>
<g>
</g>
<g>
</g>
<g>
</g>
<g>
</g>
<g>
</g>
<g>
</g>
</svg>
