<?xml version="1.0" encoding="utf-8"?>
<!-- Generator: Adobe Illustrator 17.0.0, SVG Export Plug-In . SVG Version: 6.00 Build 0)  -->
<!DOCTYPE svg PUBLIC "-//W3C//DTD SVG 1.1//EN" "http://www.w3.org/Graphics/SVG/1.1/DTD/svg11.dtd">
<svg version="1.1" id="Capa_1" xmlns="http://www.w3.org/2000/svg" xmlns:xlink="http://www.w3.org/1999/xlink" x="0px" y="0px"
	 width="185px" height="75px" viewBox="0 0 185 75" enable-background="new 0 0 185 75" xml:space="preserve">
<g>
	<path fill="#269765" d="M29.769,13.186c-1.312,1.312-2.884,1.968-4.714,1.968c-1.832,0-3.404-0.656-4.715-1.968
		c-1.312-1.311-1.967-2.883-1.967-4.714c0-1.831,0.643-3.403,1.93-4.715c1.287-1.311,2.846-1.967,4.678-1.967
		c1.88,0,3.477,0.644,4.789,1.93c1.311,1.288,1.968,2.872,1.968,4.752C31.736,10.303,31.08,11.875,29.769,13.186z M19.114,71.877
		V21.39h11.805v50.487H19.114z"/>
	<path fill="#269765" d="M65.073,55.023v-3.712c-1.288,1.633-2.81,2.847-4.566,3.638c-1.757,0.791-3.675,1.188-5.754,1.188
		c-2.524,0-4.826-0.482-6.905-1.447c-2.079-0.965-3.861-2.276-5.346-3.936c-1.485-1.657-2.648-3.575-3.49-5.754
		c-0.842-2.178-1.262-4.479-1.262-6.904c0-2.425,0.408-4.715,1.225-6.868s1.967-4.046,3.453-5.68
		c1.485-1.634,3.267-2.92,5.346-3.861c2.079-0.94,4.355-1.411,6.831-1.411c2.177,0,4.095,0.334,5.754,1.002
		c1.658,0.668,3.23,1.795,4.715,3.378V21.39h11.879v33.633H65.073z M64.85,35.142c-0.397-0.958-0.941-1.791-1.634-2.498
		c-0.693-0.706-1.51-1.261-2.45-1.665c-0.94-0.404-1.93-0.606-2.97-0.606s-2.03,0.202-2.97,0.606
		c-0.941,0.403-1.771,0.959-2.487,1.665c-0.718,0.707-1.275,1.54-1.67,2.498c-0.397,0.958-0.594,1.968-0.594,3.026
		c0,1.061,0.197,2.07,0.594,3.028c0.396,0.958,0.952,1.804,1.67,2.535c0.717,0.731,1.546,1.299,2.487,1.702
		c0.939,0.404,1.93,0.606,2.97,0.606s2.029-0.202,2.97-0.606c0.94-0.403,1.757-0.971,2.45-1.702
		c0.693-0.731,1.237-1.577,1.634-2.535c0.396-0.958,0.594-1.968,0.594-3.028C65.444,37.109,65.246,36.1,64.85,35.142z"/>
	<path fill="#269765" d="M111.104,55.023v-3.712c-1.287,1.633-2.81,2.847-4.565,3.638c-1.758,0.791-3.676,1.188-5.755,1.188
		c-2.523,0-4.825-0.482-6.904-1.447s-3.861-2.276-5.346-3.936c-1.485-1.657-2.648-3.575-3.49-5.754
		c-0.842-2.178-1.262-4.479-1.262-6.904c0-2.425,0.408-4.715,1.225-6.868s1.967-4.046,3.453-5.68
		c1.485-1.634,3.267-2.92,5.346-3.861c2.079-0.94,4.354-1.411,6.83-1.411c2.178,0,4.096,0.334,5.755,1.002
		c1.657,0.668,3.229,1.795,4.714,3.378V0.601h11.88v54.422H111.104z M110.882,35.142c-0.396-0.958-0.94-1.791-1.633-2.498
		c-0.694-0.706-1.511-1.261-2.45-1.665c-0.941-0.404-1.931-0.606-2.97-0.606c-1.04,0-2.03,0.202-2.971,0.606
		c-0.94,0.403-1.77,0.959-2.486,1.665c-0.719,0.707-1.275,1.54-1.671,2.498c-0.396,0.958-0.594,1.968-0.594,3.026
		c0,1.061,0.197,2.07,0.594,3.028c0.396,0.958,0.952,1.804,1.671,2.535c0.717,0.731,1.546,1.299,2.486,1.702
		c0.94,0.404,1.931,0.606,2.971,0.606c1.039,0,2.028-0.202,2.97-0.606c0.939-0.403,1.756-0.971,2.45-1.702
		c0.692-0.731,1.236-1.577,1.633-2.535c0.396-0.958,0.595-1.968,0.595-3.028C111.477,37.109,111.277,36.1,110.882,35.142z"/>
	<path fill="#269765" d="M141.769,40.396c0,2.426,0.581,4.295,1.744,5.606s3.007,1.967,5.531,1.967c1.337,0,2.462-0.234,3.379-0.705
		c0.915-0.47,1.719-1.299,2.412-2.487h11.509c-0.594,2.079-1.448,3.85-2.562,5.309c-1.114,1.461-2.438,2.648-3.973,3.563
		c-1.534,0.917-3.229,1.597-5.086,2.042c-1.855,0.445-3.799,0.669-5.828,0.669c-2.723,0-5.247-0.397-7.573-1.188
		c-2.327-0.791-4.343-1.955-6.051-3.489s-3.057-3.402-4.046-5.605c-0.991-2.202-1.485-4.715-1.485-7.536
		c0-2.92,0.457-5.506,1.374-7.759c0.915-2.252,2.201-4.145,3.86-5.68c1.658-1.534,3.649-2.697,5.977-3.489
		c2.326-0.792,4.9-1.188,7.722-1.188c2.87,0,5.432,0.445,7.685,1.336c2.252,0.891,4.146,2.153,5.68,3.787
		c1.534,1.633,2.71,3.601,3.527,5.902c0.816,2.302,1.225,4.863,1.225,7.685v1.262H141.769z M153.276,29.483
		c-1.238-0.94-2.723-1.411-4.455-1.411c-1.733,0-3.205,0.471-4.417,1.411c-1.214,0.941-1.968,2.277-2.265,4.009h13.587
		C155.33,31.76,154.513,30.424,153.276,29.483z"/>
</g>
<g>
	<path d="M37.792,71.793V62.5h1.262l4.881,7.296V62.5h1.179v9.293h-1.262l-4.881-7.303v7.303H37.792z"/>
	<path d="M46.61,68.427c0-1.247,0.346-2.17,1.04-2.771c0.579-0.498,1.285-0.748,2.117-0.748c0.926,0,1.682,0.304,2.27,0.91
		s0.881,1.444,0.881,2.514c0,0.866-0.13,1.548-0.39,2.044c-0.26,0.497-0.638,0.883-1.135,1.157s-1.039,0.412-1.626,0.412
		c-0.942,0-1.704-0.303-2.285-0.906C46.901,70.435,46.61,69.563,46.61,68.427z M47.783,68.427c0,0.862,0.188,1.508,0.564,1.937
		s0.85,0.644,1.42,0.644c0.566,0,1.038-0.216,1.414-0.646c0.376-0.431,0.564-1.088,0.564-1.972c0-0.832-0.189-1.463-0.567-1.893
		c-0.378-0.429-0.849-0.644-1.411-0.644c-0.57,0-1.044,0.214-1.42,0.641S47.783,67.564,47.783,68.427z"/>
	<path d="M58.623,71.793v-0.85c-0.427,0.668-1.055,1.002-1.883,1.002c-0.537,0-1.03-0.148-1.48-0.444
		c-0.45-0.295-0.798-0.709-1.046-1.239c-0.247-0.53-0.371-1.14-0.371-1.828c0-0.673,0.112-1.282,0.336-1.829
		c0.224-0.548,0.56-0.967,1.008-1.259c0.448-0.291,0.949-0.438,1.502-0.438c0.406,0,0.767,0.086,1.084,0.257
		s0.575,0.395,0.773,0.669V62.5h1.135v9.293H58.623z M55.016,68.434c0,0.861,0.182,1.506,0.545,1.933
		c0.363,0.428,0.792,0.641,1.287,0.641c0.499,0,0.922-0.204,1.271-0.611c0.349-0.408,0.523-1.03,0.523-1.867
		c0-0.921-0.178-1.598-0.533-2.028c-0.355-0.432-0.792-0.647-1.312-0.647c-0.507,0-0.931,0.208-1.271,0.622
		C55.186,66.889,55.016,67.541,55.016,68.434z"/>
	<path d="M66.084,69.625l1.179,0.146c-0.186,0.689-0.53,1.224-1.033,1.604c-0.503,0.38-1.146,0.57-1.927,0.57
		c-0.985,0-1.766-0.304-2.342-0.91c-0.577-0.606-0.865-1.457-0.865-2.552c0-1.132,0.292-2.011,0.875-2.637
		c0.583-0.625,1.34-0.938,2.27-0.938c0.9,0,1.636,0.307,2.206,0.92c0.571,0.612,0.856,1.475,0.856,2.586
		c0,0.067-0.002,0.169-0.006,0.305h-5.021c0.042,0.739,0.251,1.306,0.627,1.698c0.376,0.394,0.845,0.59,1.407,0.59
		c0.418,0,0.775-0.109,1.071-0.329S65.911,70.106,66.084,69.625z M62.338,67.78h3.759c-0.051-0.566-0.194-0.991-0.431-1.274
		c-0.363-0.439-0.834-0.659-1.414-0.659c-0.524,0-0.964,0.176-1.322,0.526C62.574,66.724,62.376,67.192,62.338,67.78z"/>
	<path d="M74.579,71.793v-8.196h-3.062V62.5h7.366v1.097h-3.074v8.196H74.579z"/>
	<path d="M83.169,69.625l1.179,0.146c-0.186,0.689-0.53,1.224-1.033,1.604c-0.503,0.38-1.146,0.57-1.927,0.57
		c-0.985,0-1.766-0.304-2.342-0.91c-0.577-0.606-0.865-1.457-0.865-2.552c0-1.132,0.292-2.011,0.875-2.637
		c0.583-0.625,1.34-0.938,2.27-0.938c0.9,0,1.636,0.307,2.206,0.92c0.571,0.612,0.856,1.475,0.856,2.586
		c0,0.067-0.002,0.169-0.006,0.305h-5.021c0.042,0.739,0.251,1.306,0.627,1.698c0.376,0.394,0.845,0.59,1.407,0.59
		c0.418,0,0.775-0.109,1.071-0.329S82.996,70.106,83.169,69.625z M79.422,67.78h3.759c-0.051-0.566-0.194-0.991-0.431-1.274
		c-0.363-0.439-0.834-0.659-1.414-0.659c-0.524,0-0.964,0.176-1.322,0.526C79.658,66.724,79.46,67.192,79.422,67.78z"/>
	<path d="M85.781,71.793v-6.732h1.021v0.944c0.211-0.329,0.492-0.595,0.843-0.795c0.351-0.201,0.75-0.302,1.198-0.302
		c0.499,0,0.908,0.104,1.227,0.311c0.319,0.207,0.544,0.497,0.675,0.869c0.533-0.786,1.226-1.18,2.08-1.18
		c0.667,0,1.181,0.186,1.541,0.555c0.358,0.37,0.538,0.939,0.538,1.709v4.621h-1.135v-4.241c0-0.456-0.037-0.785-0.11-0.985
		c-0.074-0.201-0.208-0.362-0.402-0.485c-0.194-0.122-0.423-0.184-0.685-0.184c-0.473,0-0.866,0.157-1.179,0.473
		c-0.313,0.314-0.469,0.818-0.469,1.512v3.911h-1.141v-4.374c0-0.507-0.093-0.888-0.279-1.142c-0.186-0.253-0.49-0.38-0.913-0.38
		c-0.321,0-0.618,0.085-0.891,0.254s-0.47,0.416-0.593,0.741s-0.184,0.795-0.184,1.407v3.493H85.781z"/>
	<path d="M96.596,74.373v-9.313h1.039v0.875c0.246-0.343,0.521-0.6,0.83-0.771s0.684-0.257,1.123-0.257
		c0.574,0,1.082,0.148,1.521,0.444s0.771,0.713,0.994,1.252c0.225,0.539,0.336,1.129,0.336,1.771c0,0.689-0.123,1.31-0.369,1.86
		c-0.248,0.552-0.607,0.975-1.078,1.269c-0.471,0.293-0.967,0.44-1.486,0.44c-0.381,0-0.723-0.08-1.023-0.241
		c-0.303-0.16-0.551-0.363-0.746-0.608v3.277H96.596z M97.629,68.465c0,0.866,0.176,1.507,0.525,1.921
		c0.352,0.414,0.775,0.621,1.275,0.621c0.506,0,0.941-0.215,1.303-0.644s0.541-1.094,0.541-1.993c0-0.858-0.176-1.501-0.529-1.928
		c-0.352-0.427-0.773-0.64-1.264-0.64c-0.486,0-0.916,0.227-1.291,0.681C97.816,66.938,97.629,67.599,97.629,68.465z"/>
	<path d="M103.79,71.793V62.5h1.142v9.293H103.79z"/>
	<path d="M111.094,70.963c-0.423,0.359-0.829,0.612-1.221,0.761c-0.391,0.147-0.811,0.222-1.258,0.222
		c-0.74,0-1.309-0.181-1.705-0.542c-0.397-0.361-0.597-0.823-0.597-1.386c0-0.329,0.075-0.631,0.226-0.903
		c0.149-0.272,0.347-0.491,0.59-0.656c0.242-0.164,0.517-0.289,0.82-0.374c0.224-0.059,0.563-0.115,1.015-0.171
		c0.921-0.109,1.6-0.24,2.035-0.393c0.004-0.156,0.006-0.256,0.006-0.298c0-0.465-0.107-0.793-0.323-0.983
		c-0.292-0.257-0.725-0.387-1.3-0.387c-0.536,0-0.933,0.095-1.188,0.282c-0.256,0.188-0.444,0.521-0.567,0.999l-1.115-0.152
		c0.101-0.478,0.268-0.863,0.5-1.157c0.232-0.293,0.568-0.52,1.009-0.678c0.439-0.159,0.948-0.238,1.527-0.238
		c0.575,0,1.042,0.068,1.401,0.203c0.358,0.136,0.623,0.306,0.792,0.511s0.287,0.464,0.355,0.776
		c0.038,0.194,0.057,0.545,0.057,1.052v1.521c0,1.062,0.024,1.732,0.073,2.013c0.048,0.281,0.145,0.551,0.288,0.809h-1.191
		C111.203,71.557,111.128,71.279,111.094,70.963z M110.999,68.414c-0.415,0.169-1.036,0.313-1.864,0.431
		c-0.469,0.068-0.801,0.145-0.995,0.229c-0.194,0.085-0.345,0.208-0.45,0.371s-0.158,0.344-0.158,0.542
		c0,0.305,0.115,0.558,0.346,0.761c0.229,0.203,0.567,0.304,1.011,0.304c0.439,0,0.83-0.096,1.173-0.288
		c0.342-0.192,0.594-0.455,0.754-0.789c0.123-0.258,0.185-0.638,0.185-1.142V68.414z"/>
	<path d="M116.412,70.772l0.165,1.008c-0.321,0.067-0.608,0.102-0.862,0.102c-0.414,0-0.735-0.065-0.963-0.196
		c-0.229-0.131-0.389-0.304-0.482-0.517c-0.093-0.214-0.139-0.663-0.139-1.348v-3.873h-0.837v-0.888h0.837v-1.667l1.135-0.685v2.352
		h1.146v0.888h-1.146v3.937c0,0.325,0.02,0.535,0.06,0.628s0.105,0.167,0.196,0.222s0.222,0.082,0.391,0.082
		C116.038,70.816,116.205,70.802,116.412,70.772z"/>
	<path d="M122.137,69.625l1.179,0.146c-0.186,0.689-0.53,1.224-1.033,1.604c-0.503,0.38-1.146,0.57-1.927,0.57
		c-0.985,0-1.766-0.304-2.343-0.91s-0.865-1.457-0.865-2.552c0-1.132,0.291-2.011,0.875-2.637c0.583-0.625,1.34-0.938,2.27-0.938
		c0.899,0,1.635,0.307,2.206,0.92c0.57,0.612,0.855,1.475,0.855,2.586c0,0.067-0.002,0.169-0.006,0.305h-5.021
		c0.042,0.739,0.252,1.306,0.628,1.698c0.376,0.394,0.845,0.59,1.407,0.59c0.418,0,0.775-0.109,1.071-0.329
		S121.963,70.106,122.137,69.625z M118.39,67.78h3.76c-0.051-0.566-0.194-0.991-0.432-1.274c-0.363-0.439-0.835-0.659-1.413-0.659
		c-0.524,0-0.965,0.176-1.322,0.526S118.428,67.192,118.39,67.78z"/>
	<path d="M128.527,71.793V62.5h6.72v1.097h-5.49v2.846h5.142v1.091h-5.142v3.163h5.705v1.097H128.527z"/>
	<path d="M137.015,71.793v-6.732h1.027v0.957c0.494-0.739,1.209-1.109,2.143-1.109c0.406,0,0.778,0.073,1.119,0.219
		c0.34,0.146,0.595,0.337,0.764,0.574c0.169,0.236,0.287,0.518,0.355,0.843c0.042,0.212,0.063,0.581,0.063,1.109v4.14h-1.141v-4.095
		c0-0.465-0.044-0.813-0.133-1.043s-0.246-0.414-0.473-0.552c-0.226-0.138-0.491-0.206-0.796-0.206
		c-0.485,0-0.905,0.154-1.258,0.463c-0.354,0.309-0.529,0.894-0.529,1.756v3.677H137.015z"/>
	<path d="M144.026,72.351l1.109,0.165c0.047,0.343,0.176,0.592,0.387,0.748c0.283,0.211,0.67,0.317,1.16,0.317
		c0.528,0,0.937-0.106,1.224-0.317s0.481-0.507,0.583-0.888c0.06-0.232,0.087-0.721,0.083-1.464
		c-0.499,0.587-1.12,0.881-1.864,0.881c-0.926,0-1.642-0.334-2.149-1.002c-0.507-0.667-0.761-1.468-0.761-2.402
		c0-0.643,0.116-1.235,0.349-1.778s0.57-0.962,1.012-1.258s0.96-0.444,1.557-0.444c0.794,0,1.449,0.321,1.965,0.964v-0.812h1.052
		v5.819c0,1.048-0.106,1.791-0.319,2.229c-0.214,0.438-0.552,0.783-1.015,1.036c-0.463,0.254-1.032,0.381-1.708,0.381
		c-0.804,0-1.452-0.181-1.946-0.542C144.248,73.622,144.01,73.078,144.026,72.351z M144.971,68.307c0,0.883,0.176,1.527,0.526,1.934
		c0.351,0.405,0.79,0.608,1.318,0.608c0.524,0,0.964-0.202,1.319-0.605c0.354-0.403,0.532-1.037,0.532-1.898
		c0-0.824-0.183-1.445-0.549-1.864c-0.365-0.418-0.806-0.628-1.321-0.628c-0.507,0-0.938,0.206-1.293,0.618
		C145.148,66.883,144.971,67.495,144.971,68.307z"/>
	<path d="M151.463,63.812V62.5h1.141v1.312H151.463z M151.463,71.793v-6.732h1.141v6.732H151.463z"/>
	<path d="M154.34,71.793v-6.732h1.027v0.957c0.494-0.739,1.209-1.109,2.143-1.109c0.406,0,0.778,0.073,1.119,0.219
		c0.34,0.146,0.595,0.337,0.764,0.574c0.169,0.236,0.287,0.518,0.355,0.843c0.042,0.212,0.063,0.581,0.063,1.109v4.14h-1.141v-4.095
		c0-0.465-0.044-0.813-0.133-1.043s-0.246-0.414-0.473-0.552c-0.226-0.138-0.491-0.206-0.796-0.206
		c-0.485,0-0.905,0.154-1.258,0.463c-0.354,0.309-0.529,0.894-0.529,1.756v3.677H154.34z"/>
	<path d="M166.17,69.625l1.179,0.146c-0.186,0.689-0.53,1.224-1.033,1.604c-0.503,0.38-1.146,0.57-1.927,0.57
		c-0.985,0-1.766-0.304-2.343-0.91s-0.865-1.457-0.865-2.552c0-1.132,0.291-2.011,0.875-2.637c0.583-0.625,1.34-0.938,2.27-0.938
		c0.899,0,1.635,0.307,2.206,0.92c0.57,0.612,0.855,1.475,0.855,2.586c0,0.067-0.002,0.169-0.006,0.305h-5.021
		c0.042,0.739,0.252,1.306,0.628,1.698c0.376,0.394,0.845,0.59,1.407,0.59c0.418,0,0.775-0.109,1.071-0.329
		S165.996,70.106,166.17,69.625z M162.423,67.78h3.76c-0.051-0.566-0.194-0.991-0.432-1.274c-0.363-0.439-0.835-0.659-1.413-0.659
		c-0.524,0-0.965,0.176-1.322,0.526S162.461,67.192,162.423,67.78z"/>
</g>
<g>
</g>
<g>
</g>
<g>
</g>
<g>
</g>
<g>
</g>
<g>
</g>
</svg>
