<?xml version="1.0" encoding="utf-8"?>
<!-- Generator: Adobe Illustrator 17.0.0, SVG Export Plug-In . SVG Version: 6.00 Build 0)  -->
<!DOCTYPE svg PUBLIC "-//W3C//DTD SVG 1.1//EN" "http://www.w3.org/Graphics/SVG/1.1/DTD/svg11.dtd">
<svg version="1.1" id="Capa_1" xmlns="http://www.w3.org/2000/svg" xmlns:xlink="http://www.w3.org/1999/xlink" x="0px" y="0px"
	 width="80px" height="120px" viewBox="0 0 80 120" enable-background="new 0 0 80 120" xml:space="preserve">
<g>
	<polygon fill="#D7A822" points="78.811,27.685 39.848,27.685 39.848,27.685 0.885,27.685 8.187,106.902 39.848,115.878 
		39.848,115.878 39.848,115.878 39.848,115.878 39.848,115.878 71.498,106.902 	"/>
	<polygon fill="#E7C423" points="39.848,34.138 39.848,109.169 39.848,109.169 65.486,101.901 71.73,34.138 	"/>
	<polygon fill="#FFFFFF" points="60.246,43.859 20.811,43.859 18.07,73.52 18.129,73.333 51.626,73.333 50.533,85.88 39.848,88.96 
		29,85.833 28.349,78.24 18.5,78.24 19.907,93.414 39.848,99.077 59.789,93.414 62.533,63.637 26.988,63.637 27.441,53.707 
		52.113,53.707 52.475,59.39 62.412,59.39 	"/>
	<g>
		<path fill="#F3F4F4" d="M39.848,43.859H20.811L18.07,73.52l0.058-0.186h21.72v-9.697H28.36l0.453-9.93h11.036V43.859z
			 M28.349,78.24H18.5l1.407,15.173l19.941,5.65V88.96L29,85.833L28.349,78.24z"/>
	</g>
	<g>
		<polygon points="32.265,16 25.335,16 25.335,20.977 32.265,20.977 35.975,20.977 37.231,20.977 37.231,6.187 32.265,6.187 		"/>
		<path d="M54.361,6.262H42.274c0,0,0,2.6,0,5.179c1.615,1.617,2.46,2.391,4.799,4.73c-1.368,0-4.799,0.005-4.799,0.005v4.725
			h12.087v-4.726l-4.828-4.734h4.828V6.262z"/>
	</g>
</g>
<g>
</g>
<g>
</g>
<g>
</g>
<g>
</g>
<g>
</g>
<g>
</g>
</svg>
