<?xml version="1.0" encoding="utf-8"?>
<!-- Generator: Adobe Illustrator 17.0.0, SVG Export Plug-In . SVG Version: 6.00 Build 0)  -->
<!DOCTYPE svg PUBLIC "-//W3C//DTD SVG 1.1//EN" "http://www.w3.org/Graphics/SVG/1.1/DTD/svg11.dtd">
<svg version="1.1" id="Capa_1" xmlns="http://www.w3.org/2000/svg" xmlns:xlink="http://www.w3.org/1999/xlink" x="0px" y="0px"
	 width="333px" height="100px" viewBox="0 0 333 100" style="enable-background:new 0 0 333 100;" xml:space="preserve">
<style type="text/css">
	.st0{fill:#C06491;}
</style>
<path class="st0" d="M215.798,56.854c-4.509,0.024-8.428,1.11-11.71,2.715c-1.204-2.385-2.408-4.509-2.621-6.068
	c-0.236-1.818-0.519-2.927-0.236-5.1c0.283-2.172,1.558-5.265,1.535-5.501c-0.024-0.236-0.283-1.346-2.881-1.37
	c-2.597-0.024-4.84,0.496-5.1,1.18c-0.26,0.684-0.756,2.243-1.086,3.849c-0.448,2.361-5.194,10.789-7.91,15.204
	c-0.874-1.723-1.63-3.234-1.794-4.438c-0.236-1.818-0.519-2.927-0.236-5.1c0.283-2.172,1.558-5.265,1.535-5.501
	c-0.024-0.236-0.283-1.346-2.881-1.37c-2.597-0.024-4.84,0.496-5.1,1.18c-0.26,0.684-0.543,2.29-1.086,3.849
	s-6.847,15.63-8.499,19.265c-0.85,1.866-1.582,3.353-2.102,4.368l0,0c0,0-0.024,0.071-0.095,0.189
	c-0.448,0.874-0.708,1.346-0.708,1.346s0,0,0,0.024c-0.355,0.637-0.732,1.228-0.92,1.228c-0.141,0-0.401-1.7,0.047-4.014
	c0.944-4.888,3.187-12.489,3.163-12.749c0-0.141,0.425-1.464-1.464-2.148c-1.842-0.684-2.503,0.448-2.667,0.448
	c-0.165,0-0.283,0.401-0.283,0.401s2.054-8.547-3.919-8.547c-3.73,0-8.877,4.085-11.426,7.767c-1.606,0.874-5.029,2.739-8.688,4.745
	c-1.392,0.779-2.833,1.558-4.178,2.29c-0.095-0.095-0.189-0.212-0.283-0.307c-7.224-7.72-20.587-13.174-20.02-23.538
	c0.212-3.778,1.511-13.693,25.663-25.734c19.879-9.798,35.697-7.083,38.436-1.063c3.919,8.594-8.475,24.553-29.015,26.867
	c-7.838,0.874-11.946-2.148-12.985-3.282c-1.086-1.18-1.251-1.251-1.652-1.015c-0.661,0.355-0.236,1.416,0,2.03
	c0.614,1.606,3.14,4.438,7.413,5.832c3.778,1.228,12.961,1.912,24.081-2.385c12.442-4.816,22.169-18.203,19.312-29.417
	c-2.857-11.377-21.745-15.131-39.616-8.78c-10.624,3.778-22.146,9.727-30.432,17.47c-9.845,9.207-11.404,17.211-10.766,20.563
	c2.29,11.899,18.699,19.643,25.261,25.38c-0.331,0.189-0.637,0.355-0.897,0.496c-3.282,1.63-15.794,8.168-18.911,15.086
	c-3.541,7.838,0.567,13.457,3.282,14.212c8.428,2.338,17.093-1.866,21.744-8.806s4.085-15.959,1.936-20.091
	c-0.024-0.047-0.047-0.095-0.095-0.141c0.85-0.496,1.723-1.015,2.574-1.511c1.676-0.992,3.329-1.912,4.745-2.667
	c-0.803,2.195-1.392,4.816-1.676,8.594c-0.355,4.438,1.464,10.199,3.849,12.465c1.063,0.992,2.314,1.015,3.117,1.015
	c2.786,0,4.037-2.314,5.43-5.052c1.7-3.353,3.234-7.248,3.234-7.248s-1.912,10.53,3.282,10.53c1.888,0,3.801-2.455,4.651-3.706
	c0,0.024,0,0.024,0,0.024s0.047-0.071,0.141-0.236c0.189-0.307,0.307-0.496,0.307-0.496s0-0.024,0-0.047
	c0.755-1.322,2.455-4.321,4.981-9.302c3.258-6.421,6.399-14.448,6.399-14.448s0.283,1.959,1.251,5.217
	c0.567,1.912,1.747,4.014,2.691,6.044c-0.755,1.063-1.228,1.652-1.228,1.652s0,0,0.024,0.024c-0.614,0.803-1.275,1.676-2.007,2.526
	c-2.574,3.069-5.643,6.587-6.068,7.602c-0.496,1.204-0.377,2.078,0.567,2.786c0.684,0.519,1.912,0.591,3.163,0.519
	c2.314-0.165,3.942-0.732,4.745-1.086c1.251-0.448,2.715-1.133,4.085-2.148c2.526-1.866,4.061-4.533,3.919-8.051
	c-0.071-1.936-0.708-3.872-1.487-5.689c0.236-0.331,0.448-0.661,0.684-0.992c3.99-5.832,7.083-12.229,7.083-12.229
	s0.283,1.959,1.251,5.217c0.472,1.652,1.44,3.447,2.29,5.194c-3.754,3.046-6.068,6.587-6.894,8.901
	c-1.487,4.297-0.331,6.233,1.866,6.681c0.992,0.212,2.408-0.26,3.447-0.708c1.322-0.425,2.881-1.156,4.368-2.243
	c2.526-1.866,4.958-4.462,4.816-7.98c-0.071-1.606-0.496-3.187-1.086-4.722c3.187-1.322,7.295-2.054,12.536-1.44
	c11.238,1.322,13.457,8.334,13.032,11.285c-0.425,2.951-2.786,4.557-3.565,5.052s-1.039,0.661-0.968,1.015
	c0.095,0.519,0.472,0.496,1.133,0.401c0.92-0.165,5.902-2.385,6.115-7.815C234.095,64.363,227.484,56.784,215.798,56.854z
	 M129.105,86.083c-3.73,4.061-8.924,5.596-11.168,4.297c-2.408-1.392-1.464-7.39,3.117-11.686c2.786-2.621,6.375-5.052,8.759-6.54
	c0.543-0.331,1.346-0.803,2.314-1.393c0.165-0.095,0.26-0.141,0.26-0.141l0,0c0.189-0.119,0.377-0.236,0.567-0.355
	C134.629,76.404,133.024,81.81,129.105,86.083z M156.255,67.621c-1.299,3.163-4.014,11.261-5.666,10.813
	c-1.416-0.377-2.29-6.516-0.283-12.584c1.015-3.046,3.163-6.681,4.415-8.098c2.03-2.267,4.273-3.022,4.816-2.102
	C160.221,56.854,157.058,65.637,156.255,67.621z M178.661,78.339c-0.543,0.283-1.063,0.472-1.299,0.331
	c-0.165-0.095,0.236-0.472,0.236-0.472s2.81-3.022,3.919-4.392c0.637-0.803,1.392-1.747,2.195-2.81c0,0.095,0,0.212,0,0.307
	C183.713,74.915,180.219,77.348,178.661,78.339z M195.942,74.397c-0.401-0.283-0.331-1.228,1.015-4.178
	c0.519-1.156,1.747-3.093,3.849-4.958c0.236,0.756,0.401,1.487,0.377,2.172C201.16,71.988,197.902,73.688,195.942,74.397z"/>
<g>
</g>
<g>
</g>
<g>
</g>
<g>
</g>
<g>
</g>
<g>
</g>
</svg>
