<?xml version="1.0" encoding="utf-8"?>
<!-- Generator: Adobe Illustrator 17.0.0, SVG Export Plug-In . SVG Version: 6.00 Build 0)  -->
<!DOCTYPE svg PUBLIC "-//W3C//DTD SVG 1.1//EN" "http://www.w3.org/Graphics/SVG/1.1/DTD/svg11.dtd">
<svg version="1.1" id="Capa_1" xmlns="http://www.w3.org/2000/svg" xmlns:xlink="http://www.w3.org/1999/xlink" x="0px" y="0px"
	 width="175px" height="100px" viewBox="0 0 175 100" enable-background="new 0 0 175 100" xml:space="preserve">
<path fill="#C06491" d="M134.965,57.424c-4.566,0.024-8.534,1.124-11.857,2.749c-1.219-2.415-2.438-4.566-2.654-6.144
	c-0.239-1.841-0.526-2.964-0.239-5.164c0.287-2.199,1.578-5.331,1.554-5.57c-0.024-0.239-0.287-1.363-2.917-1.387
	c-2.63-0.024-4.901,0.502-5.164,1.195c-0.263,0.693-0.765,2.271-1.1,3.897c-0.454,2.391-5.259,10.925-8.009,15.395
	c-0.885-1.745-1.65-3.275-1.817-4.494c-0.239-1.841-0.526-2.964-0.239-5.164c0.287-2.199,1.578-5.331,1.554-5.57
	c-0.024-0.239-0.287-1.363-2.917-1.387c-2.63-0.024-4.901,0.502-5.164,1.195c-0.263,0.693-0.55,2.319-1.1,3.897
	c-0.55,1.578-6.933,15.826-8.606,19.507c-0.861,1.889-1.602,3.395-2.128,4.423l0,0c0,0-0.024,0.072-0.096,0.191
	c-0.454,0.885-0.717,1.363-0.717,1.363s0,0,0,0.024c-0.359,0.645-0.741,1.243-0.932,1.243c-0.143,0-0.406-1.721,0.048-4.064
	c0.956-4.949,3.227-12.646,3.203-12.909c0-0.143,0.43-1.482-1.482-2.175c-1.865-0.693-2.534,0.454-2.701,0.454
	c-0.167,0-0.287,0.406-0.287,0.406s2.08-8.654-3.968-8.654c-3.777,0-8.989,4.136-11.57,7.865c-1.626,0.885-5.092,2.773-8.797,4.805
	c-1.41,0.789-2.869,1.578-4.231,2.319c-0.096-0.096-0.191-0.215-0.287-0.311c-7.315-7.817-20.846-13.34-20.272-23.834
	c0.215-3.825,1.53-13.865,25.986-26.058c20.129-9.921,36.146-7.172,38.919-1.076c3.968,8.702-8.582,24.862-29.38,27.205
	c-7.937,0.885-12.096-2.175-13.148-3.323c-1.1-1.195-1.267-1.267-1.673-1.028c-0.669,0.359-0.239,1.434,0,2.056
	c0.622,1.626,3.179,4.494,7.506,5.905c3.825,1.243,13.124,1.936,24.384-2.415c12.598-4.877,22.448-18.432,19.555-29.787
	C101.329,1.484,82.204-2.317,64.108,4.114c-10.758,3.825-22.424,9.849-30.815,17.69c-9.969,9.323-11.547,17.427-10.901,20.822
	c2.319,12.049,18.934,19.89,25.579,25.699c-0.335,0.191-0.645,0.359-0.908,0.502c-3.323,1.65-15.993,8.271-19.149,15.276
	c-3.586,7.937,0.574,13.626,3.323,14.391c8.534,2.367,17.308-1.889,22.017-8.917s4.136-16.16,1.96-20.344
	c-0.024-0.048-0.048-0.096-0.096-0.143c0.861-0.502,1.745-1.028,2.606-1.53c1.697-1.004,3.371-1.936,4.805-2.701
	c-0.813,2.223-1.41,4.877-1.697,8.702c-0.359,4.494,1.482,10.327,3.897,12.622c1.076,1.004,2.343,1.028,3.156,1.028
	c2.821,0,4.088-2.343,5.498-5.116c1.721-3.395,3.275-7.339,3.275-7.339s-1.936,10.662,3.323,10.662c1.912,0,3.849-2.486,4.709-3.753
	c0,0.024,0,0.024,0,0.024s0.048-0.072,0.143-0.239c0.191-0.311,0.311-0.502,0.311-0.502s0-0.024,0-0.048
	c0.765-1.339,2.486-4.375,5.044-9.419c3.299-6.502,6.479-14.63,6.479-14.63s0.287,1.984,1.267,5.283
	c0.574,1.936,1.769,4.064,2.725,6.12c-0.765,1.076-1.243,1.673-1.243,1.673s0,0,0.024,0.024c-0.622,0.813-1.291,1.697-2.032,2.558
	c-2.606,3.108-5.714,6.67-6.144,7.698c-0.502,1.219-0.382,2.104,0.574,2.821c0.693,0.526,1.936,0.598,3.203,0.526
	c2.343-0.167,3.992-0.741,4.805-1.1c1.267-0.454,2.749-1.147,4.136-2.175c2.558-1.889,4.112-4.59,3.968-8.152
	c-0.072-1.96-0.717-3.921-1.506-5.761c0.239-0.335,0.454-0.669,0.693-1.004c4.04-5.905,7.172-12.383,7.172-12.383
	s0.287,1.984,1.267,5.283c0.478,1.673,1.458,3.49,2.319,5.259c-3.801,3.084-6.144,6.67-6.981,9.013
	c-1.506,4.351-0.335,6.311,1.889,6.765c1.004,0.215,2.438-0.263,3.49-0.717c1.339-0.43,2.917-1.171,4.423-2.271
	c2.558-1.889,5.02-4.518,4.877-8.08c-0.072-1.626-0.502-3.227-1.1-4.781c3.227-1.339,7.387-2.08,12.694-1.458
	c11.379,1.339,13.626,8.439,13.196,11.427c-0.43,2.988-2.821,4.614-3.61,5.116c-0.789,0.502-1.052,0.669-0.98,1.028
	c0.096,0.526,0.478,0.502,1.147,0.406c0.932-0.167,5.976-2.415,6.192-7.913C153.492,65.027,146.798,57.353,134.965,57.424z
	 M47.182,87.02c-3.777,4.112-9.036,5.666-11.308,4.351c-2.438-1.41-1.482-7.483,3.156-11.833c2.821-2.654,6.455-5.116,8.869-6.622
	c0.55-0.335,1.363-0.813,2.343-1.41c0.167-0.096,0.263-0.143,0.263-0.143l0,0c0.191-0.12,0.382-0.239,0.574-0.359
	C52.776,77.219,51.151,82.693,47.182,87.02z M74.674,68.326c-1.315,3.203-4.064,11.403-5.737,10.949
	c-1.434-0.382-2.319-6.598-0.287-12.742c1.028-3.084,3.203-6.765,4.47-8.2c2.056-2.295,4.327-3.06,4.877-2.128
	C78.69,57.424,75.487,66.317,74.674,68.326z M97.361,79.179c-0.55,0.287-1.076,0.478-1.315,0.335
	c-0.167-0.096,0.239-0.478,0.239-0.478s2.845-3.06,3.968-4.447c0.645-0.813,1.41-1.769,2.223-2.845c0,0.096,0,0.215,0,0.311
	C102.477,75.712,98.939,78.175,97.361,79.179z M114.86,75.187c-0.406-0.287-0.335-1.243,1.028-4.231
	c0.526-1.171,1.769-3.132,3.897-5.02c0.239,0.765,0.406,1.506,0.382,2.199C120.143,72.748,116.844,74.469,114.86,75.187z"/>
<g>
</g>
<g>
</g>
<g>
</g>
<g>
</g>
<g>
</g>
<g>
</g>
</svg>
