<?xml version="1.0" encoding="utf-8"?>
<!-- Generator: Adobe Illustrator 17.0.0, SVG Export Plug-In . SVG Version: 6.00 Build 0)  -->
<!DOCTYPE svg PUBLIC "-//W3C//DTD SVG 1.1//EN" "http://www.w3.org/Graphics/SVG/1.1/DTD/svg11.dtd">
<svg version="1.1" id="Capa_1" xmlns="http://www.w3.org/2000/svg" xmlns:xlink="http://www.w3.org/1999/xlink" x="0px" y="0px"
	 width="185px" height="75px" viewBox="0 0 185 75" enable-background="new 0 0 185 75" xml:space="preserve">
<g>
	<g shape-rendering="geometricPrecision" image-rendering="optimizeQuality" text-rendering="geometricPrecision">
		<g>
			<g>
				<path fill="#DFA32F" d="M36.902,69.447c-2.092,0-4.059-0.815-5.538-2.294c-2.779-2.779-3.029-7.145-0.748-10.211v-3.698
					L28,55.86c-0.553,3.781-3.817,6.691-7.748,6.691c-4.318,0-7.831-3.513-7.831-7.831c0-3.931,2.911-7.195,6.691-7.748l2.616-2.616
					H18.03c-1.343,1.003-2.967,1.546-4.674,1.546c-2.092,0-4.058-0.815-5.537-2.294c-3.053-3.054-3.053-8.023,0-11.075
					c1.479-1.479,3.445-2.294,5.537-2.294c1.707,0,3.331,0.543,4.674,1.546h3.698l-2.616-2.616c-3.78-0.553-6.691-3.817-6.691-7.748
					c0-4.318,3.513-7.831,7.831-7.831c3.931,0,7.195,2.911,7.748,6.691l2.616,2.616v-3.699c-2.281-3.064-2.032-7.43,0.747-10.21
					c1.479-1.479,3.446-2.294,5.538-2.294c2.092,0,4.058,0.814,5.537,2.294c2.78,2.779,3.029,7.146,0.748,10.21v3.699l2.616-2.616
					c0.553-3.78,3.817-6.691,7.748-6.691c4.318,0,7.831,3.513,7.831,7.831c0,3.931-2.911,7.195-6.691,7.748l-2.616,2.616h3.698
					c1.343-1.004,2.967-1.546,4.674-1.546c2.092,0,4.058,0.815,5.537,2.294c1.479,1.479,2.294,3.445,2.294,5.537
					c0,2.092-0.815,4.058-2.294,5.538c-1.479,1.479-3.446,2.294-5.538,2.294c-1.707,0-3.331-0.543-4.674-1.546h-3.698l2.616,2.616
					c3.78,0.553,6.691,3.817,6.691,7.748c0,4.318-3.513,7.831-7.831,7.831c-3.931,0-7.195-2.911-7.748-6.691l-2.616-2.616v3.699
					c2.281,3.065,2.031,7.431-0.748,10.211C40.96,68.632,38.993,69.447,36.902,69.447z"/>
				<path d="M36.901,9.246c1.351,0,2.702,0.515,3.732,1.546c2.061,2.061,2.061,5.403,0,7.465v10.803l7.639-7.639
					c0-2.915,2.363-5.278,5.278-5.278c2.915,0,5.278,2.363,5.278,5.278s-2.363,5.278-5.278,5.278l-7.639,7.639h10.803
					c1.031-1.031,2.381-1.546,3.732-1.546c1.351,0,2.702,0.515,3.732,1.546c2.061,2.061,2.061,5.403,0,7.465
					c-1.031,1.031-2.381,1.546-3.732,1.546c-1.351,0-2.702-0.515-3.732-1.546H45.912l7.639,7.639c2.915,0,5.278,2.363,5.278,5.278
					c0,2.915-2.363,5.278-5.278,5.278c-2.915,0-5.278-2.363-5.278-5.278l-7.639-7.639v10.803c2.061,2.061,2.061,5.403,0,7.465
					c-1.031,1.031-2.381,1.546-3.732,1.546c-1.351,0-2.702-0.515-3.732-1.546c-2.061-2.061-2.061-5.403,0-7.465V47.08l-7.639,7.639
					c0,2.915-2.363,5.278-5.278,5.278s-5.278-2.363-5.278-5.278c0-2.915,2.363-5.278,5.278-5.278l7.639-7.639H17.088
					c-1.031,1.031-2.381,1.546-3.732,1.546s-2.702-0.515-3.732-1.546c-2.061-2.061-2.061-5.403,0-7.465
					c1.031-1.031,2.381-1.546,3.732-1.546s2.702,0.515,3.732,1.546h10.803l-7.639-7.639c-2.915,0-5.278-2.363-5.278-5.278
					s2.363-5.278,5.278-5.278s5.278,2.363,5.278,5.278l7.639,7.639V18.257c-2.061-2.061-2.061-5.403,0-7.465
					C34.2,9.761,35.551,9.246,36.901,9.246 M36.901,4.14c-2.774,0-5.381,1.08-7.343,3.041c-1.691,1.691-2.675,3.824-2.954,6.03
					c-1.757-1.363-3.962-2.175-6.353-2.175c-5.726,0-10.384,4.658-10.384,10.384c0,2.388,0.811,4.591,2.171,6.347
					c-2.275,0.286-4.379,1.312-6.026,2.959c-1.961,1.961-3.041,4.569-3.041,7.343c0,2.774,1.08,5.381,3.041,7.343
					c1.648,1.648,3.751,2.673,6.026,2.959c-1.36,1.756-2.171,3.959-2.171,6.347c0,5.726,4.658,10.384,10.384,10.384
					c2.388,0,4.591-0.811,6.347-2.171c0.286,2.275,1.312,4.379,2.959,6.026C31.521,70.92,34.128,72,36.902,72
					c2.774,0,5.381-1.08,7.343-3.041c1.691-1.691,2.675-3.824,2.954-6.03c1.757,1.363,3.962,2.175,6.353,2.175
					c5.726,0,10.384-4.658,10.384-10.384c0-2.388-0.811-4.591-2.171-6.347c2.275-0.286,4.379-1.312,6.026-2.959
					c1.961-1.961,3.041-4.569,3.041-7.343s-1.08-5.381-3.041-7.343c-1.647-1.647-3.751-2.673-6.026-2.959
					c1.36-1.756,2.171-3.959,2.171-6.347c0-5.726-4.658-10.384-10.384-10.384c-2.388,0-4.591,0.811-6.347,2.171
					c-0.286-2.275-1.312-4.379-2.959-6.026C42.283,5.22,39.675,4.14,36.901,4.14L36.901,4.14z"/>
			</g>
			<g id="SVG-label">
				<g transform="scale(1.08) translate(65,10)">
					<g id="SVG">
						<path id="S" fill="#0B5592" d="M7.803,25.473c-3.068-3.067-4.967-7.303-4.967-11.982c0-9.361,7.593-16.949,16.949-16.949
							c9.361,0,16.954,7.588,16.954,16.949H26.81c0-3.877-3.147-7.019-7.025-7.019c-3.877,0-7.019,3.142-7.019,7.019
							c0,1.937,0.787,3.691,2.052,4.958h0.005c1.271,1.276,2.33,1.645,4.963,2.062l0,0c4.683,0.487,8.919,1.899,11.987,4.966l0,0
							c3.068,3.068,4.967,7.304,4.967,11.983c0,9.361-7.593,16.954-16.954,16.954c-9.357,0-16.949-7.593-16.949-16.954h9.93
							c0,3.877,3.142,7.024,7.019,7.024c3.878,0,7.025-3.147,7.025-7.024c0-1.937-0.787-3.687-2.053-4.958h-0.005
							c-1.271-1.271-3.095-1.709-4.967-2.058V30.44C15.246,29.744,10.871,28.542,7.803,25.473L7.803,25.473L7.803,25.473z"/>
						<path id="V" fill="#0B5592" d="M70.64-3.458l-11.99,57.873h-9.929L36.739-3.458h9.929l7.026,33.894l7.017-33.894H70.64z"/>
						<path id="G" fill="#0B5592" d="M87.595,20.512h16.949v16.949h0.005c0,9.362-7.593,16.955-16.954,16.955
							c-9.362,0-16.949-7.593-16.949-16.955l0,0V13.492h-0.005c0-9.361,7.592-16.949,16.954-16.949
							c9.357,0,16.949,7.588,16.949,16.949h-9.93c0-3.874-3.147-7.021-7.019-7.021c-3.878,0-7.021,3.147-7.021,7.021v23.969l0,0
							c0,3.878,3.142,7.021,7.021,7.021c3.873,0,7.015-3.142,7.019-7.016v-0.005v-7.015h-7.019L87.595,20.512L87.595,20.512z"/>
					</g>
				</g>
			</g>
		</g>
	</g>
</g>
</svg>
