<?xml version="1.0" encoding="utf-8"?>
<!-- Generator: Adobe Illustrator 17.0.0, SVG Export Plug-In . SVG Version: 6.00 Build 0)  -->
<!DOCTYPE svg PUBLIC "-//W3C//DTD SVG 1.1//EN" "http://www.w3.org/Graphics/SVG/1.1/DTD/svg11.dtd">
<svg version="1.1" id="Capa_1" xmlns="http://www.w3.org/2000/svg" xmlns:xlink="http://www.w3.org/1999/xlink" x="0px" y="0px"
	 width="235px" height="190px" viewBox="0 0 235 190" style="enable-background:new 0 0 235 190;" xml:space="preserve">
<style type="text/css">
	.st0{fill-rule:evenodd;clip-rule:evenodd;fill:#96807B;}
	.st1{fill-rule:evenodd;clip-rule:evenodd;fill:#B4CCB7;}
	.st2{fill-rule:evenodd;clip-rule:evenodd;fill:#4B3339;}
	.st3{fill-rule:evenodd;clip-rule:evenodd;fill:#FFFFFF;}
	.st4{fill-rule:evenodd;clip-rule:evenodd;fill:#E4D2B7;}
	.st5{fill-rule:evenodd;clip-rule:evenodd;fill:#808C53;}
	.st6{fill-rule:evenodd;clip-rule:evenodd;fill:#795149;}
	.st7{fill-rule:evenodd;clip-rule:evenodd;fill:#67441D;}
	.st8{fill-rule:evenodd;clip-rule:evenodd;fill:#AE9892;}
	.st9{fill-rule:evenodd;clip-rule:evenodd;fill:#213240;}
	.st10{fill-rule:evenodd;clip-rule:evenodd;fill:#98A350;}
	.st11{fill-rule:evenodd;clip-rule:evenodd;fill:#69472D;}
	.st12{fill-rule:evenodd;clip-rule:evenodd;fill:#7E6F6A;}
</style>
<g>
	<g>
		<polygon class="st0" points="97.751,136.961 120.687,136.961 131.438,156.437 87,156.437 		"/>
		<path class="st0" d="M55.173,52.971h108.093c3.042,0,5.53,2.489,5.53,5.531v77.866c0,3.041-2.488,5.53-5.53,5.53H55.173
			c-3.041,0-5.53-2.488-5.53-5.53V58.502C49.643,55.46,52.131,52.971,55.173,52.971z"/>
		<g>
			<circle class="st1" cx="162.081" cy="137.011" r="0.718"/>
			<circle class="st1" cx="159.276" cy="137.011" r="0.718"/>
			<circle class="st1" cx="156.473" cy="137.011" r="0.718"/>
		</g>
		<path class="st1" d="M43.255,150.551h131.93c1.619,0,2.942,1.324,2.942,2.943l0,0c0,1.618-1.323,2.942-2.942,2.942H43.255
			c-1.619,0-2.943-1.324-2.943-2.942l0,0C40.311,151.875,41.636,150.551,43.255,150.551z"/>
		<path class="st0" d="M178.127,153.494c0,1.618-1.324,2.942-2.942,2.942H43.255c-1.619,0-2.943-1.324-2.943-2.942H178.127z"/>
		<rect x="53.313" y="56.197" class="st2" width="111.813" height="75.825"/>
	</g>
	<rect x="67.266" y="12.629" class="st3" width="83.907" height="119.395"/>
	<g>
		<g>
			<rect x="67.266" y="12.629" class="st4" width="83.907" height="5.797"/>
			<rect x="89.694" y="21.953" class="st5" width="39.051" height="8.83"/>
			<rect x="67.266" y="41.123" class="st4" width="83.907" height="24.343"/>
			<rect x="83.382" y="34.236" class="st6" width="51.676" height="3.701"/>
			<rect x="67.266" y="121.41" class="st4" width="83.907" height="10.613"/>
			<rect x="72.348" y="92.726" class="st6" width="21.069" height="3.701"/>
			<rect x="72.348" y="99.086" class="st6" width="21.069" height="3.701"/>
			<rect x="72.348" y="105.445" class="st6" width="21.069" height="3.701"/>
			<rect x="72.348" y="111.805" class="st6" width="13.341" height="3.701"/>
			<rect x="98.685" y="92.726" class="st6" width="21.069" height="3.701"/>
			<rect x="98.685" y="99.086" class="st6" width="21.069" height="3.701"/>
			<rect x="98.685" y="105.445" class="st6" width="21.069" height="3.701"/>
			<rect x="98.685" y="111.805" class="st6" width="13.341" height="3.701"/>
			<rect x="125.021" y="92.726" class="st6" width="21.069" height="3.701"/>
			<rect x="125.021" y="99.086" class="st6" width="21.069" height="3.701"/>
			<rect x="125.021" y="105.445" class="st6" width="21.069" height="3.701"/>
			<rect x="125.021" y="111.805" class="st6" width="13.341" height="3.701"/>
		</g>
		<path class="st5" d="M135.557,90.026c5.802,0,10.534-4.419,10.534-9.837c0-5.417-4.732-9.836-10.534-9.836
			c-5.803,0-10.535,4.419-10.535,9.836C125.021,85.607,129.754,90.026,135.557,90.026z"/>
		<path class="st4" d="M82.882,90.026c5.803,0,10.535-4.419,10.535-9.837c0-5.417-4.732-9.836-10.535-9.836
			c-5.802,0-10.534,4.419-10.534,9.836C72.348,85.607,77.08,90.026,82.882,90.026z"/>
		<path class="st7" d="M109.22,90.026c5.802,0,10.535-4.419,10.535-9.837c0-5.417-4.733-9.836-10.535-9.836
			c-5.803,0-10.535,4.419-10.535,9.836C98.685,85.607,103.417,90.026,109.22,90.026z"/>
	</g>
	<g>
		<path class="st8" d="M137.106,63.73l-4.955-8.129l9.342,1.827l58.306,40.595c0.945,0.658,1.181,1.971,0.522,2.915l-1.994,2.864
			c-0.658,0.945-1.971,1.18-2.915,0.522L137.106,63.73z"/>
		<path class="st0" d="M137.106,63.73l-4.955-8.129l7.434,5.176l59.739,41.594l-0.997,1.432c-0.658,0.945-1.971,1.181-2.915,0.522
			L137.106,63.73z"/>
		<path class="st3" d="M137.106,63.73l-4.955-8.129l9.342,1.827l55.775,38.833c-1.168,2.481-2.637,4.557-4.388,6.302L137.106,63.73z
			"/>
		<path class="st9" d="M137.106,63.73l-4.955-8.129l7.434,5.176l55.767,38.828c-0.748,1.079-1.572,2.062-2.47,2.958L137.106,63.73z"
			/>
		<path class="st3" d="M137.106,63.73l-4.955-8.129l9.342,1.827l53.766,37.434c-1.15,2.513-2.62,4.585-4.388,6.302L137.106,63.73z"
			/>
		<path class="st7" d="M137.106,63.73l-4.955-8.129l7.434,5.176l53.776,37.441c-0.75,1.084-1.58,2.062-2.49,2.945L137.106,63.73z"/>
		<path class="st3" d="M137.105,63.73l-4.954-8.128l9.342,1.826c-0.512,1.131-1.148,2.257-1.908,3.35
			C138.824,61.871,137.988,62.857,137.105,63.73z"/>
		<path class="st9" d="M137.106,63.73l-4.955-8.129l7.434,5.176C138.824,61.871,137.989,62.858,137.106,63.73z"/>
		<path class="st10" d="M133.788,58.287l-1.637-2.686l3.086,0.604c-0.169,0.374-0.379,0.746-0.63,1.107
			C134.355,57.673,134.08,58,133.788,58.287z"/>
	</g>
	<g>
		<rect x="68.866" y="162.841" class="st11" width="80.706" height="13.079"/>
		<g>
			<rect x="73.177" y="162.841" class="st12" width="72.085" height="2.823"/>
			<rect x="141.199" y="162.841" class="st12" width="1.536" height="6.539"/>
			<rect x="136.161" y="162.841" class="st12" width="1.536" height="6.539"/>
			<rect x="131.123" y="162.841" class="st12" width="1.536" height="6.539"/>
			<rect x="126.085" y="162.841" class="st12" width="1.536" height="6.539"/>
			<rect x="121.047" y="162.841" class="st12" width="1.536" height="6.539"/>
			<rect x="116.009" y="162.841" class="st12" width="1.536" height="6.539"/>
			<rect x="110.971" y="162.841" class="st12" width="1.536" height="6.539"/>
			<rect x="105.933" y="162.841" class="st12" width="1.536" height="6.539"/>
			<rect x="100.895" y="162.841" class="st12" width="1.536" height="6.539"/>
			<rect x="95.856" y="162.841" class="st12" width="1.536" height="6.539"/>
			<rect x="90.818" y="162.841" class="st12" width="1.536" height="6.539"/>
			<rect x="85.78" y="162.841" class="st12" width="1.536" height="6.539"/>
			<rect x="80.742" y="162.84" class="st12" width="1.536" height="6.54"/>
			<rect x="75.704" y="162.84" class="st12" width="1.535" height="6.54"/>
		</g>
	</g>
</g>
</svg>
