<?xml version="1.0" encoding="utf-8"?>
<!-- Generator: Adobe Illustrator 17.0.0, SVG Export Plug-In . SVG Version: 6.00 Build 0)  -->
<!DOCTYPE svg PUBLIC "-//W3C//DTD SVG 1.1//EN" "http://www.w3.org/Graphics/SVG/1.1/DTD/svg11.dtd">
<svg version="1.1" id="Capa_1" xmlns="http://www.w3.org/2000/svg" xmlns:xlink="http://www.w3.org/1999/xlink" x="0px" y="0px"
	 width="235px" height="190px" viewBox="0 0 235 190" style="enable-background:new 0 0 235 190;" xml:space="preserve">
<style type="text/css">
	.st0{fill:#A1A744;}
	.st1{fill:#4B3339;}
	.st2{fill:#FFFFFF;}
	.st3{fill:#C9C9CA;}
	.st4{fill:none;stroke:#D09048;stroke-width:0.5;stroke-miterlimit:10;}
</style>
<g>
	<path class="st0" d="M192.373,143.402h-1.432c-4.927,0-8.92,3.994-8.92,8.92v16.273c0,4.927,3.993,8.921,8.92,8.921h1.432
		c4.927,0,8.921-3.993,8.921-8.921v-16.273C201.294,147.396,197.3,143.402,192.373,143.402"/>
	<path class="st1" d="M193.437,171.181c0,0.983-0.797,1.78-1.78,1.78c-0.983,0-1.78-0.797-1.78-1.78c0-0.983,0.797-1.78,1.78-1.78
		C192.64,169.401,193.437,170.198,193.437,171.181"/>
</g>
<g>
	<path class="st1" d="M188.417,9.373H39.85c-3.429,0-6.209,2.78-6.209,6.209v86.133c0,3.429,2.78,6.209,6.209,6.209h148.568
		c3.43,0,6.209-2.78,6.209-6.209V15.583C194.626,12.153,191.847,9.373,188.417,9.373"/>
	<rect x="40.747" y="15.833" class="st2" width="146.773" height="77.147"/>
	<polygon class="st0" points="98.477,131.945 103.025,103.539 125.243,103.539 129.791,131.945 	"/>
	<path class="st3" d="M129.403,129.525H98.864l-0.388,2.42h31.314L129.403,129.525z M125.243,103.539h-22.218l-1.039,6.487h24.295
		L125.243,103.539z"/>
	<path class="st0" d="M33.641,99.153v2.563c0,3.429,2.78,6.209,6.209,6.209h148.567c3.429,0,6.209-2.78,6.209-6.209v-2.563H33.641z"
		/>
	<rect x="89.532" y="130.838" class="st0" width="49.203" height="2.213"/>
	<rect x="52.894" y="24.98" class="st1" width="91.167" height="60.775"/>
	<path class="st0" d="M57.563,83.765h81.829v-2.273H57.563V83.765z M57.563,29.243h81.829v-2.273H57.563V29.243z"/>
	<path class="st0" d="M57.563,83.765h81.829v-2.273H57.563V83.765z M55.29,26.971v56.795h2.273V26.971H55.29z M139.392,26.971
		v56.795h2.273V26.971H139.392z"/>
	<rect x="150.268" y="28.107" class="st1" width="25.105" height="2.766"/>
	<rect x="150.268" y="34.666" class="st1" width="25.105" height="2.766"/>
	<rect x="150.268" y="41.225" class="st1" width="25.105" height="2.766"/>
	<rect x="150.268" y="47.784" class="st1" width="25.105" height="2.766"/>
	<g>
		<rect x="150.268" y="58.322" class="st1" width="25.105" height="23.77"/>
		<rect x="151.762" y="60.953" class="st0" width="22.117" height="2.189"/>
		<rect x="167.895" y="73.885" class="st0" width="2.709" height="2.709"/>
	</g>
	<g>
		<line class="st4" x1="61.531" y1="29.243" x2="61.531" y2="81.493"/>
		<line class="st4" x1="67.664" y1="29.243" x2="67.664" y2="81.493"/>
		<line class="st4" x1="73.797" y1="29.243" x2="73.797" y2="81.493"/>
		<line class="st4" x1="79.93" y1="29.243" x2="79.93" y2="81.493"/>
		<line class="st4" x1="86.063" y1="29.243" x2="86.063" y2="81.493"/>
		<line class="st4" x1="92.196" y1="29.243" x2="92.196" y2="81.493"/>
		<line class="st4" x1="98.329" y1="29.243" x2="98.329" y2="81.493"/>
		<line class="st4" x1="104.462" y1="29.243" x2="104.462" y2="81.493"/>
		<line class="st4" x1="110.595" y1="29.243" x2="110.595" y2="81.493"/>
		<line class="st4" x1="116.728" y1="29.243" x2="116.728" y2="81.493"/>
		<line class="st4" x1="122.861" y1="29.243" x2="122.861" y2="81.493"/>
		<line class="st4" x1="128.994" y1="29.243" x2="128.994" y2="81.493"/>
		<line class="st4" x1="135.126" y1="29.243" x2="135.126" y2="81.493"/>
	</g>
	<g>
		<line class="st4" x1="139.392" y1="30.836" x2="57.563" y2="30.836"/>
		<line class="st4" x1="139.392" y1="36.969" x2="57.563" y2="36.969"/>
		<line class="st4" x1="139.392" y1="43.102" x2="57.563" y2="43.102"/>
		<line class="st4" x1="139.392" y1="49.235" x2="57.563" y2="49.235"/>
		<line class="st4" x1="139.392" y1="55.368" x2="57.563" y2="55.368"/>
		<line class="st4" x1="139.392" y1="61.501" x2="57.563" y2="61.501"/>
		<line class="st4" x1="139.392" y1="67.634" x2="57.563" y2="67.634"/>
		<line class="st4" x1="139.392" y1="73.767" x2="57.563" y2="73.767"/>
		<line class="st4" x1="139.392" y1="79.9" x2="57.563" y2="79.9"/>
	</g>
	<path class="st0" d="M115.374,42.006c0-0.109-0.016-0.219-0.064-0.321c-0.125-0.266-0.392-0.437-0.686-0.437H90.613
		c-0.224,0-0.437,0.1-0.581,0.273l-8.142,9.763c-0.115,0.139-0.168,0.311-0.168,0.485h-0.007v16.962
		c0,0.418,0.339,0.757,0.758,0.757h24.01c0.22,0,0.435-0.096,0.582-0.272l8.141-9.762c0.114-0.137,0.175-0.308,0.175-0.486V42.006
		H115.374z M105.725,67.973H83.23V52.526h22.495V67.973z M106.127,51.011H84.091l6.877-8.247h22.036L106.127,51.011z
		 M113.866,58.693l-6.626,7.945V52.044l6.626-7.946V58.693z"/>
</g>
<g>
	<rect x="59.111" y="144.376" class="st0" width="110.763" height="36.629"/>
	<rect x="61.983" y="147.211" class="st3" width="8.654" height="2.693"/>
	<rect x="72.678" y="147.211" class="st3" width="8.654" height="2.693"/>
	<rect x="83.372" y="147.211" class="st3" width="8.654" height="2.693"/>
	<rect x="94.066" y="147.211" class="st3" width="8.654" height="2.693"/>
	<rect x="104.761" y="147.211" class="st3" width="8.654" height="2.693"/>
	<rect x="115.455" y="147.211" class="st3" width="8.654" height="2.693"/>
	<rect x="126.149" y="147.211" class="st3" width="8.654" height="2.693"/>
	<rect x="136.844" y="147.211" class="st3" width="8.654" height="2.693"/>
	<rect x="147.538" y="147.211" class="st3" width="8.654" height="2.693"/>
	<rect x="158.232" y="147.211" class="st3" width="8.654" height="2.693"/>
	<rect x="61.983" y="153.447" class="st3" width="4.464" height="4.464"/>
	<rect x="68.679" y="153.447" class="st3" width="4.464" height="4.464"/>
	<rect x="75.375" y="153.447" class="st3" width="4.464" height="4.464"/>
	<rect x="82.071" y="153.447" class="st3" width="4.464" height="4.464"/>
	<rect x="88.767" y="153.447" class="st3" width="4.464" height="4.464"/>
	<rect x="95.463" y="153.447" class="st3" width="4.464" height="4.464"/>
	<rect x="102.159" y="153.447" class="st3" width="4.464" height="4.464"/>
	<rect x="108.855" y="153.447" class="st3" width="4.464" height="4.464"/>
	<rect x="115.551" y="153.447" class="st3" width="4.464" height="4.464"/>
	<rect x="122.247" y="153.447" class="st3" width="4.464" height="4.464"/>
	<rect x="128.943" y="153.447" class="st3" width="4.464" height="4.464"/>
	<rect x="135.639" y="153.447" class="st3" width="4.464" height="4.464"/>
	<rect x="142.334" y="153.447" class="st3" width="4.464" height="4.464"/>
	<rect x="149.03" y="153.447" class="st3" width="4.464" height="4.464"/>
	<rect x="157.958" y="153.447" class="st3" width="8.928" height="4.464"/>
	<rect x="61.983" y="160.459" class="st3" width="4.464" height="4.464"/>
	<rect x="68.679" y="160.459" class="st3" width="4.464" height="4.464"/>
	<rect x="75.375" y="160.459" class="st3" width="4.464" height="4.464"/>
	<rect x="82.071" y="160.459" class="st3" width="4.464" height="4.464"/>
	<rect x="88.767" y="160.459" class="st3" width="4.464" height="4.464"/>
	<rect x="95.463" y="160.459" class="st3" width="4.464" height="4.464"/>
	<rect x="102.159" y="160.459" class="st3" width="4.464" height="4.464"/>
	<rect x="108.855" y="160.459" class="st3" width="4.464" height="4.464"/>
	<rect x="115.551" y="160.459" class="st3" width="4.464" height="4.464"/>
	<rect x="122.247" y="160.459" class="st3" width="4.464" height="4.464"/>
	<rect x="128.943" y="160.459" class="st3" width="4.464" height="4.464"/>
	<rect x="135.639" y="160.459" class="st3" width="4.464" height="4.464"/>
	<rect x="142.334" y="160.459" class="st3" width="4.464" height="4.464"/>
	<rect x="149.03" y="160.459" class="st3" width="4.464" height="4.464"/>
	<rect x="155.726" y="160.459" class="st3" width="4.464" height="4.464"/>
	<rect x="61.983" y="167.472" class="st3" width="4.464" height="4.464"/>
	<rect x="68.679" y="167.472" class="st3" width="4.464" height="4.464"/>
	<rect x="75.375" y="167.472" class="st3" width="4.464" height="4.464"/>
	<rect x="82.071" y="167.472" class="st3" width="4.464" height="4.464"/>
	<rect x="88.767" y="167.472" class="st3" width="4.464" height="4.464"/>
	<rect x="95.463" y="167.472" class="st3" width="4.464" height="4.464"/>
	<rect x="102.159" y="167.472" class="st3" width="4.464" height="4.464"/>
	<rect x="108.855" y="167.472" class="st3" width="4.464" height="4.464"/>
	<rect x="115.551" y="167.472" class="st3" width="4.464" height="4.464"/>
	<rect x="122.247" y="167.472" class="st3" width="4.464" height="4.464"/>
	<rect x="128.943" y="167.472" class="st3" width="4.464" height="4.464"/>
	<rect x="135.639" y="167.472" class="st3" width="4.464" height="4.464"/>
	<rect x="142.334" y="167.472" class="st3" width="4.464" height="4.464"/>
	<rect x="149.03" y="167.472" class="st3" width="4.464" height="4.464"/>
	<rect x="155.726" y="167.472" class="st3" width="11.16" height="4.464"/>
	<rect x="61.983" y="174.484" class="st3" width="4.464" height="4.464"/>
	<rect x="68.679" y="174.484" class="st3" width="4.464" height="4.464"/>
	<rect x="75.375" y="174.484" class="st3" width="4.464" height="4.464"/>
	<rect x="82.071" y="174.484" class="st3" width="4.464" height="4.464"/>
	<rect x="88.767" y="174.484" class="st3" width="4.464" height="4.464"/>
	<rect x="95.463" y="174.484" class="st3" width="31.248" height="4.464"/>
	<rect x="128.943" y="174.484" class="st3" width="4.464" height="4.464"/>
	<rect x="135.639" y="174.484" class="st3" width="4.464" height="4.464"/>
	<rect x="142.334" y="174.484" class="st3" width="4.464" height="4.464"/>
	<rect x="149.03" y="174.484" class="st3" width="4.464" height="4.464"/>
	<rect x="155.726" y="176.64" class="st3" width="2.917" height="1.742"/>
	<rect x="159.871" y="176.64" class="st3" width="2.917" height="1.742"/>
	<rect x="159.871" y="173.841" class="st3" width="2.917" height="1.742"/>
	<rect x="164.016" y="176.64" class="st3" width="2.917" height="1.742"/>
	<rect x="162.422" y="153.447" class="st3" width="4.464" height="11.477"/>
</g>
</svg>
