<?xml version="1.0" encoding="UTF-8" standalone="no"?>
<!-- Generator: Adobe Illustrator 17.0.0, SVG Export Plug-In . SVG Version: 6.00 Build 0)  -->
<!DOCTYPE svg  PUBLIC '-//W3C//DTD SVG 1.1//EN'  'http://www.w3.org/Graphics/SVG/1.1/DTD/svg11.dtd'>
<svg id="Capa_1" style="enable-background:new 0 0 235 190" xmlns="http://www.w3.org/2000/svg" xml:space="preserve" height="190px" viewBox="0 0 235 190" width="235px" version="1.1" y="0px" x="0px" xmlns:xlink="http://www.w3.org/1999/xlink">
<style type="text/css">
	.st0{fill-rule:evenodd;clip-rule:evenodd;fill:#96807B;}
	.st1{fill-rule:evenodd;clip-rule:evenodd;fill:#5B733A;}
	.st2{fill-rule:evenodd;clip-rule:evenodd;fill:#213240;}
	.st3{fill-rule:evenodd;clip-rule:evenodd;fill:#FFFFFF;}
	.st4{fill-rule:evenodd;clip-rule:evenodd;fill:#C0A873;}
	.st5{fill-rule:evenodd;clip-rule:evenodd;fill:#F3E3BA;}
	.st6{fill-rule:evenodd;clip-rule:evenodd;fill:#5D5C5C;}
	.st7{fill-rule:evenodd;clip-rule:evenodd;fill:#EDE2C6;}
	.st8{fill-rule:evenodd;clip-rule:evenodd;fill:#E3BF62;}
	.st9{fill-rule:evenodd;clip-rule:evenodd;fill:#A1A744;}
	.st10{fill:#FFFFFF;}
	.st11{fill-rule:evenodd;clip-rule:evenodd;fill:#E4D2B7;}
	.st12{fill-rule:evenodd;clip-rule:evenodd;fill:#A1C5CA;}
</style>
			<polygon points="106.27 108.75 135.87 108.75 149.75 133.89 92.391 133.89" class="st0"/>
			<path class="st1" d="m51.309 10.637h139.52c3.927 0 7.138 3.213 7.138 7.139v90.208c0 3.926-3.211 7.138-7.138 7.138h-139.52c-3.926 0-7.138-3.212-7.138-7.138v-90.205c-0.001-3.926 3.212-7.138 7.137-7.138z"/>
				<circle cy="108.81" cx="189.3" r=".927" class="st2"/>
				<circle cy="108.81" cx="185.68" r=".927" class="st2"/>
				<circle cy="108.81" cx="182.06" r=".927" class="st2"/>
			<path class="st1" d="m35.926 126.29h170.29c2.089 0 3.798 1.709 3.798 3.799 0 2.089-1.709 3.799-3.798 3.799h-170.29c-2.089 0-3.799-1.709-3.799-3.799-0.004-2.09 1.705-3.8 3.795-3.8z"/>
			<path class="st0" d="m210.01 130.09c0 2.089-1.71 3.799-3.799 3.799h-170.28c-2.091 0-3.799-1.709-3.799-3.799h177.88z"/>
				<rect y="14.8" x="48.909" height="87.574" class="st3" width="144.32"/>
				<rect y="14.8" x="58.489" height="7.584" class="st4" width="125.16"/>
				<rect y="26.997" x="91.945" height="11.551" class="st5" width="58.251"/>
				<rect y="52.074" x="58.489" height="31.843" class="st6" width="125.16"/>
				<rect y="43.065" x="82.529" height="4.842" class="st7" width="77.083"/>
				<rect y="90.311" x="66.07" height="12.064" class="st8" width="31.429"/>
				<rect y="90.311" x="105.36" height="12.064" class="st9" width="31.429"/>
				<rect y="90.311" x="144.64" height="12.064" class="st4" width="31.429"/>
				<path class="st10" d="m176.82 65.948c-0.199-0.25-0.157-0.614 0.093-0.814 0.251-0.199 0.615-0.157 0.814 0.093l1.5 1.878c0.013 0.016 0.026 0.034 0.037 0.052l0.002 0.002 0.014 0.024 0.012 0.021 0.002 0.005 0.01 0.021 0.007 0.014c0.008 0.02 0.015 0.04 0.022 0.061l0.001 0.006c0.008 0.026 0.013 0.052 0.017 0.079v0.004c0.003 0.02 0.004 0.04 0.005 0.06v0.035c-0.001 0.02-0.002 0.04-0.005 0.06v0.004c-0.004 0.027-0.01 0.053-0.017 0.079l-0.001 0.006c-0.006 0.02-0.014 0.04-0.022 0.061l-0.007 0.014-0.01 0.021-0.002 0.005-0.012 0.02-0.014 0.025-0.002 0.002c-0.011 0.018-0.024 0.035-0.037 0.052l-1.5 1.878c-0.199 0.25-0.563 0.292-0.814 0.093-0.25-0.199-0.291-0.564-0.093-0.813l1.217-1.523-1.22-1.525z"/>
				<path class="st10" d="m64.409 65.227c0.2-0.25 0.564-0.292 0.814-0.093 0.25 0.2 0.291 0.564 0.093 0.814l-1.217 1.523 1.217 1.523c0.199 0.25 0.157 0.614-0.093 0.813s-0.614 0.158-0.814-0.093l-1.499-1.878c-0.014-0.017-0.026-0.034-0.038-0.052l-0.002-0.002-0.014-0.025-0.011-0.02-0.002-0.005-0.011-0.021-0.005-0.014c-0.009-0.02-0.015-0.04-0.022-0.061l-0.002-0.006c-0.008-0.026-0.013-0.052-0.016-0.079l-0.001-0.004c-0.002-0.02-0.004-0.04-0.005-0.06v-0.035c0.001-0.02 0.003-0.04 0.005-0.06l0.001-0.004c0.003-0.027 0.009-0.053 0.016-0.079l0.002-0.006c0.005-0.02 0.013-0.04 0.022-0.061l0.005-0.014 0.011-0.021 0.002-0.005 0.011-0.021 0.014-0.024 0.002-0.002c0.012-0.018 0.024-0.035 0.038-0.052l1.499-1.876z"/>
			<path class="st0" d="m24.528 90.163h89.342c1.825 0 3.319 1.494 3.319 3.32v56.442c0 1.826-1.494 3.32-3.319 3.32h-89.342c-1.827 0-3.32-1.494-3.32-3.32v-56.436c0-1.827 1.494-3.321 3.32-3.321z"/>
			<rect y="96.75" x="26.188" height="46.18" class="st3" width="86.022"/>
			<circle cy="93.574" cx="69.199" r="1.207" class="st11"/>
			<rect y="145.8" x="67.158" height="4.082" class="st11" width="4.082"/>
			<polygon points="21.208 153.25 117.19 153.25 133.86 164.17 4.538 164.17" class="st0"/>
			<path class="st0" d="m4.538 164.17h129.32v3.724c0 1.319-1.079 2.399-2.399 2.399h-124.52c-1.32 0-2.399-1.08-2.399-2.399v-3.72z"/>
			<rect y="167.34" x="56.137" height="1.666" class="st11" width="26.122"/>
			<rect y="164.17" x="4.538" height="1.862" class="st0" width="129.32"/>
		<path class="st11" d="m108.83 162.86v-2.313l16.637-0.035c0.581 0.382 1.149 0.763 1.729 1.144s1.148 0.763 1.729 1.144l-20.1 0.06zm0-3.27v-2.307h1.173c0.447 0.384 0.9 0.763 1.354 1.151 0.441 0.379 0.895 0.766 1.33 1.15l-3.85 0.01zm0-3.2v-0.107l0.121 0.107h-0.12zm0-2.2c0.443 0.352 0.886 0.704 1.329 1.055 0.484 0.383 0.956 0.766 1.427 1.148 2.552 0 5.103 0 7.666-0.001-0.568-0.381-1.139-0.761-1.717-1.144-0.569-0.379-1.148-0.763-1.728-1.145l-6.977-0.009v0.1zm3.88 3.09c2.624-0.001 5.247-0.003 7.883-0.004 0.568 0.382 1.151 0.761 1.729 1.145 0.569 0.379 1.149 0.761 1.716 1.143-2.817 0.006-5.634 0.01-8.44 0.015-0.483-0.383-0.965-0.768-1.438-1.147-0.48-0.38-0.98-0.77-1.45-1.15zm-83.034 3.43l9.891-0.021c9.202-0.019 18.416-0.039 27.641-0.058-0.06 0.393-0.115 0.785-0.169 1.176-0.055 0.392-0.121 0.783-0.169 1.175-9.818 0.029-19.637 0.059-29.442 0.088l-7.751 0.023v-2.38h-0.001zm79.154-6.62v0.096l-0.121-0.096h0.12zm0 2.19c-0.397-0.348-0.803-0.696-1.209-1.044-0.447-0.382-0.908-0.767-1.355-1.151-2.37-0.003-4.728-0.005-7.086-0.009 0.363 0.386 0.71 0.775 1.065 1.157 0.359 0.387 0.714 0.77 1.064 1.155h7.521v-0.12h0.01zm0 1v2.307l-4.571 0.008c-0.35-0.385-0.698-0.772-1.052-1.154-0.36-0.388-0.726-0.771-1.065-1.156l6.69-0.01zm0 3.27v2.313l-3.144 0.009c-7.738 0.023-15.488 0.047-23.227 0.069-0.108-0.388-0.205-0.778-0.314-1.167s-0.205-0.777-0.302-1.168c7.267-0.015 14.534-0.031 21.8-0.045l5.18-0.01zm-79.154-0.83v-2.393l6.276-0.003c-0.447 0.399-0.883 0.798-1.318 1.196s-0.859 0.795-1.306 1.194h-3.652zm0-3.32v-0.277c0.405-0.307 0.815-0.613 1.222-0.922 0.523-0.397 1.052-0.801 1.584-1.202 2.357 0.003 4.715 0.005 7.085 0.009-0.435 0.399-0.871 0.797-1.305 1.195-0.435 0.398-0.883 0.796-1.306 1.195h-7.28zm0-2.15l0.363-0.258-0.363-0.001v0.26zm40.506 6.38c2.89-0.005 5.768-0.012 8.67-0.018 0.06 0.391 0.133 0.781 0.205 1.17 0.073 0.389 0.145 0.78 0.218 1.169-3.084 0.009-6.155 0.019-9.226 0.028 0.025-0.391 0.043-0.782 0.061-1.173 0.018-0.4 0.048-0.79 0.072-1.18zm-31.522-3.31c2.612-0.001 5.248-0.003 7.871-0.004-0.314 0.397-0.621 0.791-0.931 1.189-0.307 0.394-0.617 0.793-0.931 1.188-2.817 0.005-5.634 0.01-8.44 0.015 0.411-0.398 0.813-0.793 1.221-1.194 0.403-0.41 0.8-0.81 1.21-1.21zm10.569 0c2.623-0.001 5.247-0.002 7.883-0.003-0.193 0.394-0.374 0.789-0.557 1.183-0.181 0.394-0.362 0.788-0.543 1.181-2.818 0.005-5.635 0.009-8.441 0.015 0.278-0.397 0.562-0.79 0.835-1.187 0.271-0.4 0.544-0.8 0.823-1.19zm10.592-0.01c2.623-0.002 5.235-0.002 7.858-0.004-0.06 0.393-0.115 0.784-0.169 1.177-0.053 0.391-0.108 0.783-0.169 1.176-2.817 0.004-5.623 0.009-8.428 0.013 0.157-0.393 0.308-0.784 0.459-1.18 0.151-0.4 0.291-0.79 0.449-1.19zm10.579 0c2.611-0.002 5.235-0.003 7.859-0.005 0.06 0.391 0.133 0.781 0.205 1.171 0.073 0.39 0.145 0.779 0.206 1.169-2.817 0.004-5.622 0.009-8.428 0.014 0.036-0.391 0.067-0.782 0.084-1.173 0.02-0.39 0.037-0.78 0.074-1.17zm10.568-0.01c2.624-0.001 5.248-0.003 7.884-0.004 0.181 0.388 0.387 0.776 0.579 1.163 0.194 0.388 0.399 0.776 0.592 1.163-2.817 0.005-5.634 0.01-8.44 0.014-0.096-0.389-0.2-0.78-0.301-1.167-0.103-0.38-0.217-0.77-0.314-1.16zm10.58-0.01c2.623-0.002 5.247-0.004 7.871-0.004 0.314 0.386 0.64 0.771 0.967 1.158 0.326 0.385 0.654 0.77 0.968 1.156-2.817 0.005-5.634 0.009-8.44 0.014-0.218-0.387-0.455-0.776-0.676-1.16-0.232-0.39-0.479-0.78-0.696-1.17zm-49.538-3.28c2.358 0.003 4.728 0.006 7.098 0.009-0.314 0.397-0.629 0.794-0.932 1.19-0.301 0.396-0.628 0.792-0.931 1.188-2.551 0.001-5.102 0.001-7.654 0.002 0.399-0.399 0.811-0.796 1.21-1.193 0.399-0.4 0.798-0.8 1.209-1.2zm9.527 0.01c2.358 0.003 4.728 0.007 7.086 0.009-0.181 0.395-0.362 0.79-0.543 1.184-0.182 0.394-0.375 0.787-0.544 1.182-2.564 0.001-5.115 0-7.654 0.001 0.266-0.396 0.543-0.791 0.823-1.187 0.276-0.39 0.542-0.78 0.832-1.18zm9.529 0.01c2.358 0.003 4.716 0.005 7.086 0.008-0.061 0.393-0.116 0.785-0.17 1.177-0.053 0.392-0.121 0.783-0.169 1.175-2.551 0.001-5.102 0.001-7.642 0.002 0.146-0.394 0.303-0.787 0.448-1.181 0.145-0.4 0.302-0.79 0.447-1.19zm9.528 0.01c2.358 0.003 4.716 0.005 7.086 0.008 0.073 0.391 0.14 0.782 0.205 1.171 0.067 0.391 0.145 0.78 0.206 1.169-2.552 0.001-5.091 0.001-7.642 0.002 0.024-0.392 0.048-0.783 0.073-1.175 0.024-0.39 0.048-0.78 0.072-1.18zm9.528 0.02c2.357 0.003 4.727 0.005 7.085 0.009 0.206 0.389 0.395 0.78 0.594 1.165 0.2 0.39 0.386 0.775 0.591 1.163-2.563 0.001-5.114 0.001-7.665 0.001-0.097-0.389-0.2-0.777-0.302-1.167-0.103-0.39-0.207-0.78-0.303-1.17zm9.528 0.01c2.358 0.003 4.716 0.006 7.086 0.009 0.326 0.387 0.649 0.775 0.967 1.158 0.323 0.388 0.654 0.771 0.968 1.157-2.551 0-5.115 0.001-7.654 0.001-0.229-0.387-0.457-0.77-0.688-1.16-0.23-0.39-0.45-0.78-0.679-1.17zm-64.514 6.65l4.54-0.009v2.384l-4.54 0.014v-2.38zm4.54-6.73v0.258c-0.442 0.315-0.878 0.633-1.317 0.945-0.566 0.403-1.137 0.801-1.681 1.201h-1.542v-2.41h4.54zm0 2.13l-0.362 0.277h0.362v-0.28zm0 1.21v2.393l-4.54 0.008v-0.176c0.454-0.34 0.91-0.68 1.361-1.022 0.523-0.397 1.052-0.801 1.584-1.201h1.595zm-4.54 0.17l0.236-0.167h-0.236v0.17zm-13.185 3.25l13.185-0.027v2.388l-17.127 0.05c0.666-0.402 1.318-0.803 1.971-1.205 0.653-0.41 1.306-0.81 1.971-1.21zm13.185-6.76v2.41h-6.1c0.642-0.402 1.307-0.804 1.96-1.206 0.652-0.402 1.306-0.805 1.971-1.207l2.169 0.01zm0 3.34v0.167c-0.488 0.345-0.97 0.688-1.457 1.035-0.559 0.398-1.113 0.801-1.681 1.201-2.817 0.005-5.621 0.009-8.428 0.013 0.666-0.402 1.318-0.804 1.972-1.206 0.652-0.402 1.306-0.805 1.971-1.207h7.623zm0 2.22l-0.236 0.177 0.236-0.001v-0.18z"/>
			<rect y="96.75" x="32.349" height="5.067" class="st4" width="73.699"/>
			<rect y="104.9" x="52.049" height="7.718" class="st5" width="34.299"/>
			<rect y="121.65" x="32.349" height="21.276" class="st6" width="73.699"/>
			<rect y="115.64" x="46.504" height="3.235" class="st7" width="45.389"/>
		<path class="st10" d="m101.4 128.89c-0.121-0.157-0.093-0.383 0.064-0.504 0.157-0.122 0.382-0.093 0.504 0.064l1.612 2.086c0.011 0.014 0.021 0.028 0.029 0.043l0.002 0.003 0.001 0.003 0.002 0.003c0.004 0.009 0.01 0.019 0.013 0.028l0.008 0.017 0.003 0.008 0.006 0.023 0.007 0.025c0.002 0.01 0.004 0.022 0.004 0.033l0.001 0.002 0.001 0.015v0.042l-0.001 0.015-0.001 0.002-0.004 0.033-0.007 0.025-0.006 0.023-0.003 0.007-0.008 0.018-0.013 0.028-0.002 0.003-0.001 0.003-0.002 0.003c-0.009 0.015-0.019 0.029-0.029 0.043l-1.612 2.087c-0.122 0.157-0.347 0.185-0.504 0.064s-0.186-0.347-0.064-0.504l1.446-1.872-1.45-1.85z"/>
		<path class="st10" d="m36.425 128.45c0.121-0.157 0.347-0.186 0.503-0.064 0.157 0.121 0.187 0.346 0.065 0.504l-1.447 1.872 1.447 1.872c0.121 0.157 0.092 0.383-0.065 0.504-0.156 0.121-0.382 0.092-0.503-0.064l-1.613-2.087c-0.011-0.013-0.021-0.028-0.029-0.043l-0.001-0.003-0.002-0.003-0.001-0.003c-0.005-0.009-0.01-0.019-0.014-0.028l-0.008-0.018-0.002-0.007-0.008-0.023-0.006-0.025c-0.002-0.011-0.003-0.022-0.004-0.033l-0.001-0.002v-0.015l-0.001-0.012v-0.018l0.001-0.012v-0.015l0.001-0.002 0.004-0.033 0.006-0.025 0.008-0.023 0.002-0.008 0.008-0.017c0.004-0.009 0.009-0.019 0.014-0.028l0.001-0.003 0.002-0.003 0.001-0.003c0.009-0.015 0.019-0.029 0.029-0.043l1.613-2.11z"/>
			<path class="st0" d="m219.81 92.544h-29.13c-5.641 0-10.256 4.615-10.256 10.257v50.288c0 5.642 4.615 10.257 10.256 10.257h29.13c5.642 0 10.258-4.615 10.258-10.257v-50.288c0-5.641-4.62-10.256-10.26-10.256z"/>
			<path class="st3" d="m226.4 98.481h-42.3c-0.083 0-0.149 0.067-0.149 0.149v58.035c0 0.082 0.067 0.149 0.149 0.149h42.295c0.083 0 0.149-0.067 0.149-0.149v-58.03c-0.01-0.082-0.07-0.149-0.15-0.149z"/>
			<path class="st11" d="m210.69 94.295h-10.89c-0.296 0-0.538 0.242-0.538 0.537 0 0.296 0.242 0.537 0.538 0.537h10.89c0.296 0 0.537-0.241 0.537-0.537 0-0.295-0.24-0.537-0.54-0.537z"/>
			<path class="st11" d="m205.25 161.79c1.001 0 1.816-0.815 1.816-1.815 0-0.999-0.815-1.814-1.816-1.814-1 0-1.814 0.815-1.814 1.814-0.01 1 0.81 1.81 1.81 1.81z"/>
			<rect y="98.481" x="183.95" height="58.334" class="st3" width="42.593"/>
			<rect y="98.481" x="183.95" height="2.832" class="st7" width="42.593"/>
			<rect y="103.04" x="195.34" height="4.314" class="st5" width="19.823"/>
			<rect y="112.4" x="183.95" height="11.894" class="st6" width="42.593"/>
			<rect y="109.04" x="192.13" height="1.808" class="st7" width="26.232"/>
			<rect y="126.68" x="186.53" height="9.612" class="st12" width="10.696"/>
			<rect y="126.68" x="199.9" height="9.612" class="st9" width="10.696"/>
			<rect y="126.68" x="213.27" height="9.612" class="st4" width="10.696"/>
			<rect y="151.63" x="183.95" height="5.185" class="st7" width="42.593"/>
				<rect y="137.62" x="186.53" height="1.809" class="st11" width="10.696"/>
				<rect y="140.72" x="186.53" height="1.808" class="st11" width="10.696"/>
				<rect y="143.83" x="186.53" height="1.809" class="st11" width="10.696"/>
				<rect y="146.94" x="186.53" height="1.808" class="st11" width="6.772"/>
				<rect y="137.62" x="199.9" height="1.809" class="st11" width="10.696"/>
				<rect y="140.72" x="199.9" height="1.808" class="st11" width="10.696"/>
				<rect y="143.83" x="199.9" height="1.809" class="st11" width="10.696"/>
				<rect y="146.94" x="199.9" height="1.808" class="st11" width="6.773"/>
				<rect y="137.62" x="213.27" height="1.809" class="st11" width="10.696"/>
				<rect y="140.72" x="213.27" height="1.808" class="st11" width="10.696"/>
				<rect y="143.83" x="213.27" height="1.809" class="st11" width="10.696"/>
				<rect y="146.94" x="213.27" height="1.808" class="st11" width="6.772"/>
			<path class="st10" d="m223.74 116.55c-0.123-0.155-0.097-0.382 0.058-0.505 0.155-0.124 0.382-0.098 0.505 0.057l0.931 1.166c0.009 0.01 0.017 0.021 0.024 0.032l0.001 0.002 0.009 0.015 0.008 0.013 0.001 0.003 0.006 0.013 0.003 0.009c0.005 0.012 0.01 0.025 0.014 0.037l0.001 0.004c0.004 0.016 0.008 0.032 0.01 0.049l0.001 0.003c0.001 0.013 0.002 0.025 0.003 0.038v0.021c-0.001 0.012-0.002 0.025-0.003 0.038l-0.001 0.003c-0.002 0.016-0.005 0.033-0.01 0.049l-0.001 0.004c-0.004 0.013-0.009 0.025-0.014 0.037l-0.003 0.009-0.006 0.013-0.001 0.003-0.008 0.013-0.009 0.015-0.001 0.002c-0.007 0.012-0.015 0.022-0.024 0.032l-0.931 1.166c-0.123 0.155-0.35 0.181-0.505 0.058-0.155-0.124-0.181-0.35-0.058-0.505l0.756-0.945-0.76-0.95z"/>
			<path class="st10" d="m186.19 116.1c0.124-0.155 0.35-0.181 0.505-0.057 0.156 0.123 0.181 0.35 0.058 0.505l-0.755 0.946 0.755 0.945c0.123 0.155 0.098 0.381-0.058 0.505-0.155 0.123-0.381 0.097-0.505-0.058l-0.931-1.166c-0.009-0.01-0.016-0.021-0.024-0.032l-0.001-0.002-0.009-0.015-0.007-0.013-0.002-0.003-0.005-0.013-0.004-0.009c-0.004-0.012-0.01-0.025-0.013-0.037l-0.001-0.004c-0.005-0.016-0.009-0.032-0.011-0.049v-0.003c-0.002-0.013-0.003-0.025-0.003-0.038v-0.021c0-0.013 0.001-0.025 0.003-0.038v-0.003c0.003-0.016 0.005-0.032 0.011-0.049l0.001-0.004c0.003-0.012 0.009-0.024 0.013-0.037l0.004-0.009 0.005-0.013 0.002-0.003 0.007-0.013 0.009-0.015 0.001-0.002c0.008-0.011 0.015-0.022 0.024-0.032l0.93-1.17z"/>
			<path class="st1" d="m164.05 120.59h19.075c3.618 0 6.578 2.96 6.578 6.578v36.551c0 3.618-2.96 6.578-6.577 6.578h-19.076c-3.618 0-6.577-2.96-6.577-6.577v-36.552c0.01-3.62 2.97-6.58 6.59-6.58z"/>
			<rect y="125.78" x="159.37" height="37.611" class="st3" width="28.433"/>
			<path class="st4" d="m168.81 123.33h9.55c0.26 0 0.471-0.212 0.471-0.471v-0.001c0-0.259-0.212-0.471-0.471-0.471h-9.55c-0.26 0-0.471 0.212-0.471 0.471v0.001c0 0.26 0.21 0.47 0.47 0.47z"/>
			<path class="st4" d="m165.54 167.63h16.091c0.402 0 0.731-0.329 0.731-0.731v-0.001c0-0.402-0.329-0.731-0.731-0.731h-16.091c-0.403 0-0.731 0.329-0.731 0.731v0.001c0 0.4 0.33 0.73 0.73 0.73z"/>
			<circle cy="166.9" cx="173.58" r="2.862" class="st1"/>
			<circle cy="166.9" cx="173.58" r="2.018" class="st4"/>
			<rect y="125.78" x="159.37" height="37.611" class="st3" width="28.434"/>
			<rect y="125.78" x="159.37" height="1.826" class="st4" width="28.434"/>
			<rect y="128.72" x="166.97" height="2.782" class="st5" width="13.233"/>
			<rect y="134.76" x="159.37" height="7.669" class="st6" width="28.434"/>
			<rect y="132.59" x="164.83" height="1.166" class="st7" width="17.511"/>
			<rect y="143.96" x="161.09" height="6.197" class="st12" width="7.139"/>
			<rect y="143.96" x="170.01" height="6.197" class="st9" width="7.139"/>
			<rect y="143.96" x="178.94" height="6.197" class="st4" width="7.14"/>
			<rect y="160.05" x="159.37" height="3.343" class="st4" width="28.434"/>
				<rect y="151.01" x="161.09" height="1.166" class="st11" width="7.139"/>
				<rect y="153.02" x="161.09" height="1.166" class="st11" width="7.139"/>
				<rect y="155.02" x="161.09" height="1.166" class="st11" width="7.139"/>
				<rect y="157.02" x="161.09" height="1.166" class="st11" width="4.52"/>
				<rect y="151.01" x="170.01" height="1.166" class="st11" width="7.139"/>
				<rect y="153.02" x="170.01" height="1.166" class="st11" width="7.139"/>
				<rect y="155.02" x="170.01" height="1.166" class="st11" width="7.139"/>
				<rect y="157.02" x="170.01" height="1.166" class="st11" width="4.52"/>
				<rect y="151.01" x="178.94" height="1.166" class="st11" width="7.14"/>
				<rect y="153.02" x="178.94" height="1.166" class="st11" width="7.14"/>
				<rect y="155.02" x="178.94" height="1.166" class="st11" width="7.14"/>
				<rect y="157.02" x="178.94" height="1.166" class="st11" width="4.52"/>
				<path class="st10" d="m185.64 137.88c-0.081-0.101-0.063-0.249 0.038-0.329 0.1-0.081 0.249-0.064 0.328 0.038l0.608 0.76c0.005 0.006 0.011 0.014 0.015 0.021l0.001 0.001 0.005 0.01 0.004 0.009 0.001 0.002 0.004 0.008 0.002 0.005c0.003 0.008 0.007 0.016 0.009 0.025l0.001 0.003c0.003 0.01 0.005 0.021 0.006 0.032v0.002c0.002 0.008 0.002 0.016 0.002 0.024v0.013c0 0.008 0 0.016-0.002 0.024v0.002c-0.001 0.011-0.003 0.021-0.006 0.032l-0.001 0.002c-0.002 0.008-0.005 0.016-0.009 0.024l-0.002 0.005-0.004 0.009-0.001 0.002-0.004 0.008-0.005 0.01-0.001 0.001c-0.004 0.008-0.01 0.014-0.015 0.021l-0.608 0.761c-0.08 0.101-0.228 0.118-0.328 0.038-0.101-0.081-0.119-0.228-0.038-0.329l0.493-0.617-0.49-0.58z"/>
				<path class="st10" d="m161.16 137.58c0.081-0.101 0.228-0.118 0.329-0.038s0.118 0.228 0.037 0.329l-0.492 0.617 0.492 0.617c0.081 0.101 0.064 0.249-0.037 0.329-0.101 0.081-0.249 0.063-0.329-0.038l-0.608-0.761c-0.004-0.007-0.01-0.014-0.015-0.021v-0.001l-0.007-0.01-0.004-0.008v-0.002l-0.004-0.009-0.003-0.005c-0.003-0.008-0.005-0.016-0.009-0.024v-0.002c-0.003-0.011-0.005-0.021-0.008-0.032v-0.002c-0.001-0.008-0.001-0.016-0.002-0.024v-0.013c0.001-0.008 0.001-0.016 0.002-0.024v-0.002c0.002-0.011 0.004-0.021 0.008-0.032v-0.003c0.003-0.008 0.005-0.016 0.009-0.025l0.003-0.005 0.004-0.008v-0.002l0.004-0.009 0.007-0.01v-0.001c0.005-0.007 0.011-0.015 0.015-0.021l0.6-0.79z"/>
			<path class="st0" d="m148.51 143.78h9.723c1.844 0 3.352 1.508 3.352 3.352v26.149c0 1.844-1.508 3.352-3.352 3.352h-9.722c-1.844 0-3.353-1.508-3.353-3.351v-26.149c0-1.84 1.5-3.35 3.35-3.35z"/>
			<rect y="147.22" x="146.36" height="24.859" class="st3" width="14.032"/>
			<path class="st11" d="m150.22 145.6h6.313c0.171 0 0.311-0.14 0.311-0.312s-0.14-0.312-0.311-0.312h-6.313c-0.171 0-0.311 0.14-0.311 0.312 0 0.17 0.14 0.31 0.31 0.31z"/>
			<path class="st11" d="m148.06 174.88h10.634c0.266 0 0.483-0.217 0.483-0.483v-0.001c0-0.266-0.217-0.483-0.483-0.483h-10.634c-0.266 0-0.483 0.218-0.483 0.483v0.001c0 0.26 0.22 0.48 0.48 0.48z"/>
			<circle cy="174.4" cx="153.37" r="1.892" class="st0"/>
			<circle cy="174.4" cx="153.37" r="1.334" class="st11"/>
			<rect y="147.22" x="146.36" height="18.561" class="st3" width="14.032"/>
			<rect y="147.22" x="146.36" height=".901" class="st4" width="14.032"/>
			<rect y="148.67" x="150.11" height="1.373" class="st5" width="6.531"/>
			<rect y="151.65" x="146.36" height="3.785" class="st6" width="14.032"/>
			<rect y="150.58" x="149.06" height=".576" class="st7" width="8.641"/>
			<rect y="156.19" x="147.21" height="3.058" class="st12" width="3.523"/>
			<rect y="156.19" x="151.62" height="3.058" class="st9" width="3.524"/>
			<rect y="156.19" x="156.02" height="3.058" class="st4" width="3.523"/>
			<rect y="170.42" x="146.36" height="1.65" class="st4" width="14.032"/>
				<rect y="159.67" x="147.21" height=".576" class="st11" width="3.523"/>
				<rect y="160.66" x="147.21" height=".575" class="st11" width="3.523"/>
				<rect y="161.64" x="147.21" height=".576" class="st11" width="3.523"/>
				<rect y="162.63" x="147.21" height=".576" class="st11" width="2.23"/>
				<rect y="159.67" x="151.62" height=".576" class="st11" width="3.524"/>
				<rect y="160.66" x="151.62" height=".575" class="st11" width="3.524"/>
				<rect y="161.64" x="151.62" height=".576" class="st11" width="3.524"/>
				<rect y="162.63" x="151.62" height=".576" class="st11" width="2.231"/>
				<rect y="159.67" x="156.02" height=".576" class="st11" width="3.523"/>
				<rect y="160.66" x="156.02" height=".575" class="st11" width="3.523"/>
				<rect y="161.64" x="156.02" height=".576" class="st11" width="3.523"/>
				<rect y="162.63" x="156.02" height=".576" class="st11" width="2.23"/>
			<rect y="164.25" x="147.21" height="3.058" class="st7" width="12.332"/>
			<rect y="168.04" x="147.21" height=".575" class="st7" width="12.332"/>
			<rect y="169" x="147.21" height=".575" class="st7" width="6.166"/>
				<path class="st10" d="m159.58 153.32c-0.042-0.052-0.033-0.128 0.02-0.169 0.051-0.042 0.128-0.033 0.169 0.019l0.312 0.391c0.003 0.004 0.005 0.008 0.008 0.01v0.001l0.003 0.005 0.003 0.005v0.001l0.002 0.004 0.001 0.003c0.002 0.004 0.003 0.008 0.004 0.012l0.001 0.001c0.001 0.005 0.002 0.011 0.003 0.017v0.001c0 0.004 0.001 0.009 0.001 0.013v0.008c0 0.004-0.001 0.009-0.001 0.013v0.001c-0.001 0.006-0.002 0.011-0.003 0.017l-0.001 0.002c-0.001 0.004-0.002 0.008-0.004 0.013l-0.001 0.003-0.002 0.004v0.002l-0.003 0.004-0.003 0.005c-0.002 0.004-0.004 0.008-0.008 0.011l-0.312 0.392c-0.041 0.052-0.118 0.061-0.169 0.019-0.052-0.041-0.061-0.117-0.02-0.17l0.253-0.317-0.25-0.27z"/>
				<path class="st10" d="m146.98 153.17c0.041-0.052 0.118-0.061 0.169-0.019 0.052 0.041 0.061 0.117 0.02 0.169l-0.253 0.317 0.253 0.317c0.041 0.052 0.033 0.128-0.02 0.17-0.051 0.041-0.128 0.033-0.169-0.019l-0.312-0.392c-0.003-0.003-0.005-0.007-0.009-0.011l-0.002-0.005-0.003-0.004v-0.002l-0.002-0.004-0.001-0.003c-0.002-0.004-0.003-0.009-0.004-0.013l-0.001-0.002c-0.001-0.005-0.002-0.011-0.003-0.017v-0.001c-0.001-0.004-0.001-0.008-0.001-0.013v-0.008c0-0.004 0-0.008 0.001-0.013v-0.001c0.001-0.006 0.002-0.012 0.003-0.017l0.001-0.001c0.001-0.004 0.002-0.009 0.004-0.012l0.001-0.003 0.002-0.004v-0.001l0.003-0.005 0.002-0.005v-0.001c0.003-0.003 0.005-0.007 0.009-0.01l0.31-0.44z"/>
</svg>
