<?xml version="1.0" encoding="UTF-8" standalone="no"?>
<!-- Generator: Adobe Illustrator 17.0.0, SVG Export Plug-In . SVG Version: 6.00 Build 0)  -->
<!DOCTYPE svg  PUBLIC '-//W3C//DTD SVG 1.1//EN'  'http://www.w3.org/Graphics/SVG/1.1/DTD/svg11.dtd'>
<svg id="Capa_1" xmlns="http://www.w3.org/2000/svg" xml:space="preserve" height="190px" viewBox="0 0 235 190" width="235px" version="1.1" y="0px" x="0px" xmlns:xlink="http://www.w3.org/1999/xlink" enable-background="new 0 0 235 190">
	<path d="m38.674 22.199c0.96 0.001 1.927 0.055 2.896 0.165l1.311-4.312 9.093 2.765-1.311 4.312c3.298 1.706 6.121 4.063 8.351 6.86l3.974-2.121 4.475 8.384-3.974 2.121c1.082 3.41 1.468 7.065 1.052 10.757l4.31 1.311-2.764 9.093-4.311-1.31c-1.708 3.299-4.063 6.12-6.86 8.351l2.121 3.975-8.385 4.474-2.121-3.974c-2.514 0.798-5.162 1.218-7.858 1.216v-6.809c8.243 0.002 15.868-5.339 18.39-13.634 3.088-10.157-2.644-20.893-12.8-23.981-1.861-0.566-3.741-0.835-5.59-0.835v-6.808zm-16.245 5.691l-2.121-3.974 8.383-4.475 2.124 3.974c2.513-0.798 5.161-1.219 7.859-1.216v6.808c-8.244-0.003-15.868 5.339-18.39 13.635-3.087 10.156 2.643 20.892 12.799 23.979 1.861 0.566 3.741 0.835 5.591 0.836v6.809c-0.961-0.001-1.929-0.055-2.898-0.165l-1.311 4.311-9.094-2.765 1.311-4.311c-3.299-1.707-6.119-4.063-8.35-6.86l-3.976 2.121-4.474-8.385 3.974-2.122c-1.083-3.408-1.469-7.064-1.052-10.755l-4.311-1.31 2.765-9.095 4.311 1.311c1.709-3.298 4.063-6.121 6.86-8.351z" fill="#9FAA51"/>
	<g clip-rule="evenodd" fill-rule="evenodd">
			<path fill="#AF9A93" d="m36.969 41.806h160.75c3.286 0 5.974 2.689 5.974 5.974v101.56c0 3.285-2.688 5.974-5.974 5.974h-160.75c-3.286 0-5.974-2.689-5.974-5.974v-101.56c-0.001-3.286 2.687-5.974 5.973-5.974z"/>
			<rect height="83.09" width="154.78" y="53.657" x="39.955" fill="#C5C4C3"/>
			<circle cy="47.944" cx="117.34" r="2.172" fill="#5B733B"/>
			<rect height="7.345" width="7.344" y="141.92" x="113.67" fill="#5B733B"/>
			<polygon points="30.995 155.31 203.69 155.31 233.69 168.07 1 168.07" fill="#5B733B"/>
			<path fill="#AF9A93" d="m1 168.07h232.69v3.349c0 2.374-1.943 4.317-4.318 4.317h-224.05c-2.374 0-4.318-1.943-4.318-4.317v-3.35z"/>
			<rect height="2.997" width="47.001" y="170.43" x="93.842" fill="#C5C4C3"/>
		<g fill="#fff">
			<path d="m35.14 156.33h16.142c-0.827 0.496-1.635 0.992-2.442 1.486h-16.727c1.01-0.5 2.019-0.99 3.027-1.49z"/>
			<path d="m64.741 156.33h16.142c-0.444 0.496-0.888 0.992-1.332 1.486h-16.747c0.645-0.5 1.291-0.99 1.937-1.49z"/>
			<path d="m94.341 156.33h16.162c-0.06 0.496-0.141 0.992-0.222 1.486h-16.767c0.283-0.5 0.566-0.99 0.828-1.49z"/>
			<path d="m123.96 156.33h16.162c0.283 0.496 0.585 0.992 0.868 1.486h-16.768c-0.08-0.5-0.16-0.99-0.26-1.49z"/>
			<path d="m153.58 156.33h16.142c0.666 0.496 1.332 0.992 1.978 1.486h-16.748c-0.44-0.5-0.9-0.99-1.37-1.49z"/>
			<path d="m183.2 156.33h16.162c1.029 0.496 2.058 0.992 3.067 1.486h-16.768c-0.8-0.5-1.63-0.99-2.46-1.49z"/>
			<path d="m29.935 158.89h17.171c-0.807 0.495-1.634 0.991-2.442 1.485h-17.756c0.989-0.5 2.018-1 3.027-1.49z"/>
			<path d="m61.432 158.89h17.171c-0.444 0.495-0.908 0.991-1.332 1.485h-17.776c0.625-0.5 1.291-1 1.937-1.49z"/>
			<path d="m92.929 158.89h17.191c-0.081 0.495-0.162 0.991-0.242 1.485h-17.797c0.281-0.5 0.563-1 0.846-1.49z"/>
			<path d="m124.43 158.89h17.191c0.282 0.495 0.565 0.991 0.867 1.485h-17.796c-0.1-0.5-0.18-1-0.26-1.49z"/>
			<path d="m155.94 158.89h17.171c0.646 0.495 1.312 0.991 1.957 1.485h-17.776c-0.44-0.5-0.9-1-1.35-1.49z"/>
			<path d="m187.44 158.89h17.212c1.009 0.495 2.038 0.991 3.047 1.485h-17.797c-0.81-0.5-1.63-1-2.46-1.49z"/>
			<path d="m24.709 161.45h18.2c-0.827 0.496-1.614 0.991-2.441 1.486h-18.786c1.009-0.5 1.998-1 3.027-1.49z"/>
			<path d="m58.082 161.45h18.221c-0.464 0.496-0.888 0.991-1.332 1.486h-18.806c0.646-0.5 1.271-1 1.917-1.49z"/>
			<path d="m91.476 161.45h18.24c-0.101 0.496-0.161 0.991-0.242 1.486h-18.826c0.277-0.5 0.539-1 0.822-1.49z"/>
			<path d="m124.87 161.45h18.24c0.263 0.496 0.565 0.991 0.848 1.486h-18.826c-0.08-0.5-0.18-1-0.26-1.49z"/>
			<path d="m158.28 161.45h18.22c0.626 0.496 1.291 0.991 1.937 1.486h-18.806c-0.44-0.5-0.9-1-1.35-1.49z"/>
			<path d="m191.68 161.45h18.24c1.009 0.496 2.038 0.991 3.047 1.486h-18.826c-0.81-0.5-1.66-1-2.46-1.49z"/>
			<path d="m19.503 164.01h97.82 97.86c1.029 0.496 2.038 0.99 3.047 1.485h-100.91-100.87c1.035-0.5 2.044-1 3.053-1.49z"/>
		</g>
	</g>
	<polygon points="194.73 53.657 39.955 136.75 194.73 136.75" fill="#C1A974" clip-rule="evenodd" fill-rule="evenodd"/>
			<path d="m150.47 58.05s0.107 0.07 0.314 0.205c0.206 0.137 0.517 0.329 0.907 0.619 0.782 0.572 1.929 1.418 3.238 2.691 0.653 0.636 1.36 1.363 2.085 2.203 0.728 0.837 1.442 1.805 2.163 2.874 0.716 1.072 1.421 2.258 2.083 3.557 0.658 1.301 1.232 2.728 1.753 4.248 0.518 1.521 0.956 3.145 1.289 4.854 0.328 1.71 0.512 3.506 0.598 5.358 0.076 1.852 0.036 3.764-0.148 5.706-0.176 1.945-0.553 3.908-1.032 5.877-0.99 3.927-2.48 7.891-4.618 11.57-1.06 1.841-2.226 3.64-3.515 5.355-1.291 1.718-2.649 3.373-4.169 4.92-3.083 3.137-6.611 5.726-10.305 7.818-3.698 2.096-7.617 3.568-11.478 4.64-3.866 1.077-7.741 1.577-11.428 1.647-3.688 0.092-7.215-0.378-10.355-1.354-1.564-0.503-3.049-1.094-4.357-1.892-1.307-0.791-2.472-1.698-3.399-2.726-0.928-1.022-1.643-2.126-2.091-3.225-0.458-1.095-0.685-2.156-0.78-3.103-0.094-0.948-0.078-1.79 0.023-2.504 0.033-0.359 0.095-0.685 0.151-0.982 0.048-0.298 0.115-0.564 0.175-0.8 0.108-0.476 0.227-0.829 0.3-1.068 0.074-0.238 0.112-0.361 0.112-0.361l0.349 0.078s-0.024 0.123-0.069 0.362c-0.044 0.239-0.122 0.591-0.174 1.058-0.113 0.925-0.244 2.32 0.082 4.036 0.162 0.854 0.451 1.784 0.937 2.712 0.484 0.928 1.166 1.849 2.043 2.686 1.759 1.679 4.3 2.938 7.218 3.659 2.923 0.725 6.222 0.962 9.675 0.746 3.456-0.207 7.072-0.875 10.69-1.962 3.615-1.096 7.235-2.624 10.664-4.614 3.425-1.988 6.671-4.432 9.456-7.328 2.802-2.888 5.262-6.113 7.269-9.529 2.002-3.42 3.536-7.04 4.548-10.676 1.015-3.636 1.493-7.285 1.502-10.744 0.005-3.46-0.458-6.728-1.258-9.639-0.788-2.917-1.902-5.474-3.103-7.612-1.199-2.143-2.487-3.866-3.631-5.204-1.149-1.336-2.153-2.299-2.851-2.93-0.345-0.319-0.626-0.553-0.812-0.712-0.187-0.159-0.283-0.242-0.283-0.242l0.23-0.301z" fill="#7F6F6B"/>
				<polyline points="132.92 30.99 150.18 31.602 151.67 34.482 139.68 41.271" fill="#69784F" clip-rule="evenodd" fill-rule="evenodd"/>
				<polyline points="122.91 39.905 121.52 57.116 124.21 58.936 132.34 47.81" fill="#69784F" clip-rule="evenodd" fill-rule="evenodd"/>
					<path d="m113.84 12.264l-3.737 3.294-3.738 3.294s-0.573 5.654 7.963 15.342c8.536 9.687 19.465 16.861 19.465 16.861l4.272-3.764 4.271-3.764s-5.741-11.745-14.277-21.432c-8.52-9.688-14.2-9.831-14.2-9.831z" fill="#4D353B"/>
							<path d="m120.54 27.379c1.564-1.378 1.716-3.773 0.337-5.34-1.379-1.565-3.775-1.716-5.34-0.338-1.564 1.379-1.716 3.775-0.338 5.34 1.38 1.567 3.78 1.717 5.34 0.338z" fill="#DAD3B4"/>
							<path d="m121.1 28.006c1.914-1.687 2.098-4.605 0.411-6.519-1.686-1.914-4.605-2.099-6.519-0.412s-2.098 4.605-0.411 6.518c1.68 1.915 4.6 2.099 6.52 0.413zm-5.17-5.864c1.322-1.165 3.347-1.038 4.513 0.285s1.038 3.348-0.284 4.513c-1.323 1.166-3.347 1.038-4.514-0.285-1.17-1.323-1.04-3.348 0.28-4.513z" fill="#99837C"/>
							<circle cy="33.064" cx="125.63" r="1.827" fill="#DAD3B4"/>
							<path d="m127.11 34.737c0.924-0.814 1.013-2.224 0.198-3.148-0.814-0.924-2.223-1.013-3.148-0.199-0.924 0.815-1.013 2.224-0.199 3.148 0.81 0.924 2.22 1.013 3.15 0.199zm-2.5-2.832c0.638-0.562 1.616-0.501 2.179 0.138s0.501 1.617-0.138 2.179c-0.638 0.563-1.615 0.501-2.179-0.138-0.56-0.638-0.5-1.616 0.14-2.179z" fill="#99837C"/>
							<circle cy="39.296" cx="131.18" r="1.827" fill="#DAD3B4"/>
							<path d="m132.66 40.97c0.924-0.815 1.013-2.224 0.199-3.148s-2.224-1.013-3.148-0.199c-0.924 0.815-1.013 2.224-0.198 3.148 0.81 0.924 2.22 1.013 3.15 0.199zm-2.5-2.833c0.639-0.562 1.617-0.501 2.179 0.138 0.563 0.639 0.501 1.616-0.137 2.179-0.639 0.563-1.616 0.501-2.18-0.137-0.56-0.639-0.5-1.616 0.14-2.18z" fill="#99837C"/>
					<path fill="#978783" clip-rule="evenodd" d="m135.49 50.543l6.752-5.552s4.394 2.915 6.412 8.526c0 0-1.085-0.34-2.512-0.661 0 0 1.387 1.869 1.495 4.982 0 0-6.02 2.176-12.15-7.295z" fill-rule="evenodd"/>
					<path fill="#030104" clip-rule="evenodd" d="m136.15 49.992l5.304-4.363s3.417 1.83 5.004 6.238c0 0-1.162-0.219-2.041-0.602 0 0 1.191 2.011 1.276 4.457 0 0.001-4.72 1.711-9.54-5.73z" fill-rule="evenodd"/>
					<path d="m143.33 43.084c0.244 0.275 0.22 0.695-0.055 0.94l-9.274 8.259c-0.275 0.245-0.695 0.22-0.94-0.054-0.244-0.274-0.22-0.695 0.055-0.939l9.275-8.259c0.27-0.245 0.69-0.221 0.93 0.053z" fill="#5D763A"/>
					<polygon points="105.97 19.927 102.57 7 114.96 11.999" fill="#69784F"/>
					<path d="m115.65 12.051c0.179 0.204 0.159 0.513-0.044 0.692l-8.977 7.91c-0.203 0.178-0.513 0.16-0.692-0.044-0.179-0.203-0.159-0.513 0.044-0.692l8.977-7.91c0.2-0.177 0.51-0.159 0.69 0.044z" fill="#5D763A"/>
				<g fill="#A7CED3" clip-rule="evenodd" fill-rule="evenodd">
						<polygon points="130.1 113.94 129.11 113.6 128.49 114.45 128.28 113.42 127.25 113.31 128.03 112.62 127.61 111.66 128.6 112 129.22 111.16 129.42 112.18 130.46 112.3 129.67 112.98"/>
						<polygon points="118.86 116.64 117.48 116.18 116.62 117.35 116.34 115.92 114.89 115.76 115.98 114.81 115.4 113.48 116.78 113.94 117.64 112.77 117.92 114.2 119.36 114.36 118.27 115.31"/>
						<polygon points="122.3 104.66 121.62 104.43 121.2 105.01 121.06 104.31 120.34 104.23 120.88 103.76 120.6 103.1 121.28 103.33 121.7 102.75 121.84 103.46 122.56 103.53 122.02 104.01"/>
						<polygon points="146.89 66.234 146.63 67.245 147.52 67.797 146.51 68.078 146.48 69.12 145.73 68.391 144.81 68.881 145.07 67.87 144.18 67.319 145.19 67.037 145.22 65.995 145.97 66.725"/>
						<polygon points="150.44 77.236 150.08 78.643 151.31 79.411 149.91 79.802 149.86 81.253 148.82 80.238 147.54 80.92 147.9 79.514 146.67 78.746 148.07 78.354 148.12 76.904 149.16 77.92"/>
						<polygon points="138.23 74.703 138.05 75.399 138.66 75.778 137.97 75.973 137.95 76.691 137.43 76.187 136.8 76.526 136.98 75.829 136.37 75.45 137.06 75.256 137.08 74.538 137.6 75.04"/>
						<polygon points="97.017 76.315 96.172 75.703 95.334 76.324 95.441 75.286 94.484 74.87 95.437 74.444 95.319 73.407 96.164 74.019 97.002 73.399 96.895 74.437 97.851 74.853 96.899 75.278"/>
						<polygon points="85.481 75.573 84.306 74.722 83.139 75.585 83.288 74.142 81.957 73.563 83.283 72.971 83.118 71.528 84.294 72.38 85.46 71.516 85.312 72.96 86.643 73.54 85.317 74.131"/>
						<polygon points="92.318 65.152 91.737 64.731 91.16 65.158 91.233 64.443 90.575 64.157 91.231 63.864 91.149 63.15 91.731 63.572 92.308 63.144 92.234 63.858 92.893 64.145 92.237 64.438"/>
				</g>
						<path d="m117.32 63.68s-0.041-0.523-0.102-1.308c-0.065-0.785-0.115-1.832-0.177-2.878-0.027-0.523-0.089-1.047-0.097-1.537 0.002-0.491 0.043-0.949 0.097-1.341 0.1-0.785 0.28-1.308 0.28-1.308h0.08s0.18 0.523 0.28 1.308c0.054 0.392 0.095 0.85 0.097 1.341-0.007 0.491-0.07 1.014-0.097 1.537-0.062 1.047-0.113 2.093-0.177 2.878-0.061 0.785-0.102 1.308-0.102 1.308h-0.08z" fill="#C48841"/>
						<path d="m129.82 68.818s0.306-0.346 0.776-0.853c0.464-0.514 1.105-1.173 1.739-1.841 0.32-0.33 0.616-0.688 0.927-0.985 0.318-0.29 0.641-0.532 0.932-0.726 0.575-0.392 1.035-0.571 1.035-0.571l0.054 0.059s-0.216 0.443-0.655 0.983c-0.217 0.273-0.485 0.575-0.801 0.868-0.322 0.286-0.702 0.551-1.059 0.842-0.718 0.576-1.428 1.161-1.979 1.58-0.544 0.426-0.915 0.702-0.915 0.702l-0.06-0.058z" fill="#C48841"/>
						<path d="m106.05 68.877s-0.37-0.276-0.915-0.702c-0.551-0.419-1.261-1.004-1.98-1.58-0.356-0.291-0.737-0.556-1.059-0.842-0.316-0.293-0.584-0.595-0.801-0.868-0.439-0.54-0.656-0.983-0.656-0.983l0.054-0.059s0.46 0.179 1.035 0.571c0.29 0.193 0.614 0.435 0.932 0.726 0.312 0.297 0.608 0.654 0.927 0.985 0.634 0.668 1.276 1.327 1.739 1.841 0.47 0.507 0.776 0.853 0.776 0.853l-0.05 0.058z" fill="#C48841"/>
						<path d="m110.38 64.158s-0.647-1.127-1.219-2.283c-0.145-0.288-0.323-0.564-0.442-0.841-0.111-0.28-0.178-0.557-0.217-0.801-0.087-0.485-0.04-0.851-0.04-0.851l0.074-0.03s0.287 0.232 0.56 0.642c0.14 0.204 0.283 0.45 0.397 0.729 0.106 0.283 0.167 0.604 0.262 0.913 0.387 1.231 0.699 2.492 0.699 2.492l-0.07 0.03z" fill="#7C534A"/>
						<path d="m125 64.129s0.311-1.261 0.698-2.492c0.095-0.308 0.157-0.63 0.262-0.913 0.114-0.279 0.257-0.525 0.397-0.729 0.273-0.41 0.559-0.642 0.559-0.642l0.074 0.03s0.047 0.365-0.039 0.85c-0.04 0.244-0.106 0.521-0.217 0.801-0.119 0.277-0.297 0.552-0.442 0.841-0.571 1.157-1.218 2.284-1.218 2.284l-0.07-0.03z" fill="#7C534A"/>
						<path d="m87.093 98.792s-0.483 0.205-1.208 0.513c-0.724 0.311-1.7 0.692-2.672 1.084-0.488 0.192-0.964 0.418-1.427 0.581-0.466 0.155-0.913 0.261-1.302 0.335-0.776 0.155-1.329 0.151-1.329 0.151l-0.025-0.076s0.439-0.337 1.151-0.682c0.355-0.176 0.776-0.361 1.241-0.518 0.467-0.149 0.983-0.256 1.488-0.397 1.012-0.274 2.02-0.559 2.785-0.748 0.764-0.191 1.273-0.319 1.273-0.319l0.025 0.086z" fill="#C48841"/>
						<path d="m87.984 85.302s-0.426-0.18-1.055-0.464c-0.635-0.276-1.464-0.675-2.299-1.063-0.415-0.198-0.848-0.365-1.229-0.566-0.377-0.209-0.709-0.439-0.984-0.652-0.555-0.42-0.871-0.799-0.871-0.799l0.038-0.07s0.489 0.064 1.141 0.308c0.328 0.119 0.7 0.277 1.078 0.483 0.374 0.214 0.746 0.491 1.135 0.735 0.775 0.498 1.555 0.985 2.127 1.374 0.577 0.38 0.956 0.644 0.956 0.644l-0.037 0.07z" fill="#C48841"/>
						<path d="m95.605 107.82s-0.144 0.439-0.374 1.09c-0.222 0.656-0.55 1.515-0.868 2.379-0.163 0.43-0.293 0.875-0.462 1.271-0.177 0.393-0.378 0.743-0.568 1.036-0.372 0.588-0.724 0.934-0.724 0.934l-0.073-0.033s0.023-0.493 0.212-1.163c0.091-0.337 0.217-0.72 0.391-1.114 0.182-0.39 0.426-0.784 0.638-1.193 0.431-0.814 0.852-1.632 1.192-2.235 0.331-0.607 0.562-1.007 0.562-1.007l0.074 0.03z" fill="#C48841"/>
						<path d="m89.755 105.22s-0.862 0.972-1.777 1.882c-0.227 0.229-0.432 0.485-0.656 0.686-0.231 0.194-0.472 0.346-0.69 0.461-0.433 0.236-0.794 0.308-0.794 0.308l-0.052-0.061s0.128-0.345 0.43-0.735c0.148-0.198 0.336-0.411 0.565-0.608 0.234-0.19 0.52-0.351 0.782-0.539 1.044-0.759 2.14-1.456 2.14-1.456l0.052 0.07z" fill="#7C534A"/>
						<path d="m85.072 91.365s-1.295 0.106-2.585 0.131c-0.323 0.008-0.647 0.052-0.949 0.042-0.301-0.019-0.579-0.076-0.817-0.144-0.476-0.128-0.787-0.326-0.787-0.326l0.005-0.08s0.331-0.161 0.819-0.233c0.244-0.04 0.527-0.065 0.828-0.049 0.3 0.025 0.618 0.106 0.937 0.151 1.278 0.173 2.552 0.428 2.552 0.428l-0.003 0.08z" fill="#7C534A"/>
						<path d="m148.94 98.322s0.437 0.06 1.093 0.151c0.657 0.088 1.526 0.234 2.396 0.371 0.435 0.07 0.875 0.118 1.28 0.197 0.403 0.089 0.772 0.205 1.084 0.32 0.627 0.225 1.025 0.465 1.024 0.465l-0.014 0.066s-0.462 0.052-1.125-0.005c-0.332-0.026-0.716-0.075-1.119-0.161-0.401-0.097-0.821-0.238-1.245-0.355-0.849-0.239-1.7-0.469-2.333-0.663-0.634-0.191-1.056-0.319-1.056-0.319l0.01-0.067z" fill="#C48841"/>
						<path d="m142.48 107.67s0.225 0.316 0.561 0.79c0.339 0.473 0.765 1.119 1.2 1.759 0.214 0.322 0.454 0.629 0.642 0.939 0.181 0.313 0.322 0.622 0.429 0.896 0.219 0.543 0.283 0.953 0.283 0.953l-0.058 0.034s-0.325-0.257-0.69-0.715c-0.185-0.227-0.385-0.502-0.569-0.814-0.177-0.316-0.327-0.676-0.502-1.021-0.344-0.694-0.697-1.382-0.942-1.91-0.247-0.526-0.412-0.877-0.412-0.877l0.06-0.03z" fill="#C48841"/>
						<path d="m146.7 88.133s0.296-0.25 0.741-0.626c0.443-0.377 1.05-0.856 1.653-1.343 0.303-0.24 0.589-0.505 0.882-0.719 0.297-0.207 0.593-0.373 0.857-0.502 0.523-0.264 0.926-0.362 0.926-0.362l0.038 0.055s-0.229 0.346-0.655 0.748c-0.211 0.204-0.468 0.426-0.763 0.635-0.3 0.203-0.647 0.382-0.975 0.585-0.662 0.401-1.319 0.81-1.825 1.098-0.504 0.291-0.84 0.484-0.84 0.484l-0.04-0.053z" fill="#C48841"/>
						<path d="m149.8 92.535s0.26-0.085 0.652-0.197c0.391-0.121 0.917-0.252 1.442-0.394 0.263-0.067 0.521-0.164 0.77-0.212 0.25-0.041 0.489-0.046 0.697-0.035 0.414 0.016 0.706 0.12 0.706 0.12l0.011 0.066s-0.242 0.194-0.627 0.344c-0.193 0.078-0.42 0.152-0.67 0.195-0.251 0.036-0.526 0.029-0.797 0.052-0.542 0.038-1.082 0.086-1.492 0.099-0.407 0.022-0.681 0.027-0.681 0.027l-0.01-0.065z" fill="#7C534A"/>
						<path d="m147.19 104.55s0.246 0.119 0.608 0.309c0.366 0.183 0.837 0.452 1.314 0.712 0.236 0.133 0.49 0.242 0.703 0.379 0.209 0.143 0.385 0.305 0.527 0.457 0.288 0.298 0.427 0.575 0.427 0.575l-0.037 0.056s-0.309-0.027-0.692-0.185c-0.194-0.076-0.409-0.181-0.619-0.322-0.206-0.148-0.4-0.343-0.611-0.514-0.418-0.347-0.842-0.686-1.146-0.959-0.31-0.266-0.511-0.451-0.511-0.451l0.04-0.07z" fill="#7C534A"/>
						<g opacity=".15" fill="#E3E3E3">
							<path d="m130.38 77.381l-2.54-2.677c-0.326-0.344-0.875-0.36-1.222-0.03l-1.108 1.053c-0.704-0.423-1.443-0.758-2.207-1.009l0.071-1.525c0.02-0.479-0.351-0.883-0.828-0.904l-3.685-0.16c-0.478-0.022-0.88 0.35-0.901 0.829l-0.064 1.441c-0.938 0.184-1.857 0.494-2.732 0.93l-0.929-0.981c-0.33-0.346-0.877-0.362-1.224-0.033l-2.676 2.538c-0.347 0.329-0.36 0.878-0.031 1.224l0.775 0.817c-0.53 0.777-0.947 1.607-1.254 2.471l-1.001-0.046c-0.479-0.022-0.881 0.352-0.903 0.828l-0.161 3.685c-0.021 0.479 0.346 0.88 0.823 0.903l0.774 0.034c0.191 1.116 0.557 2.209 1.103 3.235l-0.482 0.457c-0.347 0.33-0.361 0.879-0.034 1.223l2.54 2.678c0.328 0.346 0.875 0.358 1.223 0.029l0.412-0.392c0.895 0.583 1.858 1.018 2.858 1.309l-0.025 0.566c-0.021 0.476 0.352 0.881 0.827 0.904l3.686 0.16c0.476 0.02 0.88-0.351 0.901-0.829l0.031-0.65c1.102-0.251 2.178-0.681 3.174-1.291l0.522 0.55c0.328 0.346 0.875 0.36 1.222 0.032l2.676-2.539c0.347-0.33 0.361-0.876 0.032-1.223l-0.673-0.71c0.463-0.821 0.815-1.69 1.048-2.584l1.106 0.048c0.477 0.021 0.883-0.348 0.902-0.827l0.16-3.684c0.024-0.475-0.346-0.878-0.823-0.9l-1.336-0.057c-0.238-0.928-0.605-1.833-1.097-2.686l1.039-0.984c0.33-0.331 0.35-0.877 0.02-1.223zm-7.11 4.462c1.723 1.816 1.649 4.69-0.17 6.415s-4.692 1.65-6.416-0.167c-1.727-1.82-1.65-4.691 0.168-6.417 1.82-1.725 4.69-1.651 6.42 0.169z"/>
							<path d="m115.35 89.368l-2.182-2.976c-0.28-0.382-0.823-0.467-1.209-0.184l-1.232 0.905c-0.645-0.508-1.336-0.934-2.063-1.279l0.262-1.504c0.081-0.473-0.236-0.92-0.707-1.001l-3.635-0.623c-0.472-0.082-0.918 0.236-0.999 0.709l-0.245 1.422c-0.954 0.064-1.904 0.256-2.828 0.578l-0.798-1.09c-0.283-0.385-0.825-0.47-1.21-0.187l-2.974 2.181c-0.385 0.283-0.467 0.825-0.185 1.21l0.666 0.908c-0.624 0.705-1.142 1.475-1.556 2.293l-0.987-0.171c-0.473-0.082-0.919 0.238-1 0.707l-0.624 3.636c-0.081 0.472 0.233 0.917 0.703 0.999l0.764 0.131c0.049 1.131 0.274 2.262 0.687 3.348l-0.536 0.392c-0.386 0.283-0.469 0.827-0.188 1.209l2.182 2.976c0.282 0.385 0.823 0.466 1.209 0.183l0.458-0.337c0.814 0.691 1.715 1.244 2.67 1.659l-0.097 0.558c-0.081 0.47 0.239 0.919 0.707 1.002l3.637 0.623c0.469 0.08 0.917-0.237 0.998-0.709l0.112-0.641c1.125-0.11 2.247-0.401 3.311-0.88l0.448 0.611c0.282 0.385 0.822 0.468 1.208 0.186l2.974-2.181c0.386-0.283 0.469-0.824 0.186-1.209l-0.578-0.789c0.563-0.757 1.022-1.574 1.366-2.432l1.091 0.187c0.471 0.081 0.92-0.235 0.999-0.707l0.623-3.635c0.084-0.468-0.233-0.915-0.704-0.997l-1.318-0.225c-0.119-0.951-0.368-1.895-0.75-2.802l1.155-0.845c0.39-0.283 0.47-0.822 0.19-1.206zm-6.61 2.791c1.888 2.575 1.332 6.198-1.246 8.088s-6.2 1.333-8.09-1.243c-1.892-2.58-1.333-6.2 1.244-8.091 2.59-1.893 6.21-1.337 8.1 1.243z"/>
							<path d="m147.66 98.666l-0.625-1.845c-0.082-0.235-0.34-0.365-0.578-0.285l-0.767 0.259c-0.242-0.355-0.521-0.68-0.834-0.967l0.373-0.714c0.113-0.229 0.024-0.504-0.198-0.619l-1.728-0.892c-0.227-0.118-0.505-0.027-0.619 0.198l-0.346 0.679c-0.493-0.124-1-0.174-1.519-0.159l-0.226-0.676c-0.082-0.242-0.341-0.368-0.578-0.289l-1.847 0.627c-0.234 0.078-0.368 0.341-0.285 0.579l0.191 0.564c-0.423 0.255-0.811 0.563-1.145 0.906l-0.468-0.24c-0.229-0.119-0.503-0.028-0.622 0.194l-0.89 1.729c-0.117 0.225-0.027 0.501 0.198 0.617l0.362 0.184c-0.158 0.579-0.221 1.185-0.184 1.798l-0.334 0.112c-0.243 0.079-0.369 0.337-0.288 0.576l0.627 1.845c0.079 0.237 0.34 0.369 0.58 0.285l0.284-0.097c0.297 0.476 0.665 0.898 1.077 1.26l-0.133 0.26c-0.119 0.228-0.027 0.505 0.196 0.62l1.729 0.893c0.225 0.114 0.503 0.025 0.617-0.198l0.161-0.306c0.582 0.124 1.19 0.153 1.805 0.081l0.127 0.382c0.08 0.238 0.339 0.364 0.576 0.284l1.849-0.627c0.233-0.078 0.366-0.339 0.284-0.577l-0.169-0.49c0.405-0.29 0.769-0.63 1.076-1.008l0.517 0.268c0.226 0.119 0.501 0.028 0.618-0.197l0.891-1.727c0.114-0.228 0.029-0.504-0.199-0.621l-0.624-0.318c0.088-0.5 0.112-1.012 0.065-1.532l0.716-0.242c0.24-0.034 0.36-0.288 0.28-0.53zm-3.77 0.358c0.542 1.593-0.314 3.328-1.912 3.871-1.598 0.542-3.331-0.313-3.875-1.911-0.541-1.597 0.313-3.333 1.912-3.872 1.61-0.549 3.34 0.307 3.88 1.906z"/>
						</g>
								<path d="m129.38 74.381l-2.54-2.677c-0.326-0.344-0.875-0.36-1.222-0.03l-1.108 1.053c-0.704-0.423-1.443-0.758-2.207-1.009l0.071-1.525c0.02-0.479-0.351-0.883-0.828-0.904l-3.685-0.16c-0.478-0.022-0.88 0.35-0.901 0.829l-0.064 1.441c-0.938 0.184-1.857 0.494-2.732 0.93l-0.929-0.981c-0.33-0.346-0.877-0.362-1.224-0.033l-2.676 2.538c-0.347 0.329-0.36 0.878-0.031 1.224l0.775 0.817c-0.53 0.777-0.947 1.607-1.254 2.471l-1.001-0.046c-0.479-0.022-0.881 0.352-0.903 0.828l-0.161 3.685c-0.021 0.479 0.346 0.88 0.823 0.903l0.774 0.034c0.191 1.116 0.557 2.209 1.103 3.235l-0.482 0.457c-0.347 0.33-0.361 0.879-0.034 1.223l2.54 2.678c0.328 0.346 0.875 0.358 1.223 0.029l0.412-0.392c0.895 0.583 1.858 1.018 2.858 1.309l-0.025 0.566c-0.021 0.476 0.352 0.881 0.827 0.904l3.686 0.16c0.476 0.02 0.88-0.351 0.901-0.829l0.031-0.65c1.102-0.251 2.178-0.681 3.174-1.291l0.522 0.55c0.328 0.346 0.875 0.36 1.222 0.032l2.676-2.539c0.347-0.33 0.361-0.876 0.032-1.223l-0.673-0.71c0.463-0.821 0.815-1.69 1.048-2.584l1.106 0.048c0.477 0.021 0.883-0.348 0.902-0.827l0.16-3.684c0.024-0.475-0.346-0.878-0.823-0.9l-1.336-0.057c-0.238-0.928-0.605-1.833-1.097-2.686l1.039-0.984c0.33-0.331 0.35-0.877 0.02-1.223zm-7.11 4.462c1.723 1.816 1.649 4.69-0.17 6.415s-4.692 1.65-6.416-0.167c-1.727-1.82-1.65-4.691 0.168-6.417 1.82-1.725 4.69-1.651 6.42 0.169z" fill="#D1B056"/>
								<path d="m114.35 86.368l-2.182-2.976c-0.28-0.382-0.823-0.467-1.209-0.184l-1.232 0.905c-0.645-0.508-1.336-0.934-2.063-1.279l0.262-1.504c0.081-0.473-0.236-0.92-0.707-1.001l-3.635-0.623c-0.472-0.082-0.918 0.236-0.999 0.709l-0.245 1.422c-0.954 0.064-1.904 0.256-2.828 0.578l-0.798-1.09c-0.283-0.385-0.825-0.47-1.21-0.187l-2.974 2.181c-0.385 0.283-0.467 0.825-0.185 1.21l0.666 0.908c-0.624 0.705-1.142 1.475-1.556 2.293l-0.987-0.171c-0.473-0.082-0.919 0.238-1 0.707l-0.624 3.636c-0.081 0.472 0.233 0.917 0.703 0.999l0.764 0.131c0.049 1.131 0.274 2.262 0.687 3.348l-0.536 0.392c-0.386 0.283-0.469 0.827-0.188 1.209l2.182 2.976c0.282 0.385 0.823 0.466 1.209 0.183l0.458-0.337c0.814 0.691 1.715 1.244 2.67 1.659l-0.097 0.558c-0.081 0.47 0.239 0.919 0.707 1.002l3.637 0.623c0.469 0.08 0.917-0.237 0.998-0.709l0.112-0.641c1.125-0.11 2.247-0.401 3.311-0.88l0.448 0.611c0.282 0.385 0.822 0.468 1.208 0.186l2.974-2.181c0.386-0.283 0.469-0.824 0.186-1.209l-0.578-0.789c0.563-0.757 1.022-1.574 1.366-2.432l1.091 0.187c0.471 0.081 0.92-0.235 0.999-0.707l0.623-3.635c0.084-0.468-0.233-0.915-0.704-0.997l-1.318-0.225c-0.119-0.951-0.368-1.895-0.75-2.802l1.155-0.845c0.39-0.285 0.47-0.824 0.19-1.208zm-6.61 2.791c1.888 2.575 1.332 6.198-1.246 8.088s-6.2 1.333-8.09-1.243c-1.892-2.58-1.333-6.2 1.244-8.091 2.586-1.89 6.206-1.334 8.096 1.246z" fill="#90976F"/>
								<path d="m146.66 95.666l-0.625-1.845c-0.082-0.235-0.34-0.365-0.578-0.285l-0.767 0.259c-0.242-0.355-0.521-0.68-0.834-0.967l0.373-0.714c0.113-0.229 0.024-0.504-0.198-0.619l-1.728-0.892c-0.227-0.118-0.505-0.027-0.619 0.198l-0.346 0.679c-0.493-0.124-1-0.174-1.519-0.159l-0.226-0.676c-0.082-0.242-0.341-0.368-0.578-0.289l-1.847 0.627c-0.234 0.078-0.368 0.341-0.285 0.579l0.191 0.564c-0.423 0.255-0.811 0.563-1.145 0.906l-0.468-0.24c-0.229-0.119-0.503-0.028-0.622 0.194l-0.89 1.729c-0.117 0.225-0.027 0.501 0.198 0.617l0.362 0.184c-0.158 0.579-0.221 1.185-0.184 1.798l-0.334 0.112c-0.243 0.079-0.369 0.337-0.288 0.576l0.627 1.845c0.079 0.237 0.34 0.369 0.58 0.285l0.284-0.097c0.297 0.476 0.665 0.898 1.077 1.26l-0.133 0.26c-0.119 0.228-0.027 0.505 0.196 0.62l1.729 0.893c0.225 0.114 0.503 0.025 0.617-0.198l0.161-0.306c0.582 0.124 1.19 0.153 1.805 0.081l0.127 0.382c0.08 0.238 0.339 0.364 0.576 0.284l1.849-0.627c0.233-0.078 0.366-0.339 0.284-0.577l-0.169-0.49c0.405-0.29 0.769-0.63 1.076-1.008l0.517 0.268c0.226 0.119 0.501 0.028 0.618-0.197l0.891-1.727c0.114-0.228 0.029-0.504-0.199-0.621l-0.624-0.318c0.088-0.5 0.112-1.012 0.065-1.532l0.716-0.242c0.24-0.048 0.36-0.302 0.28-0.544zm-3.77 0.358c0.542 1.593-0.314 3.328-1.912 3.871-1.598 0.542-3.331-0.313-3.875-1.911-0.541-1.597 0.313-3.333 1.912-3.872 1.61-0.543 3.34 0.313 3.88 1.912z" fill="#90976F"/>
						<circle cy="82.258" cx="118.88" r="4.316" fill="#90976F"/>
						<circle fill-rule="evenodd" cy="82.034" cx="118.88" clip-rule="evenodd" r="2.381" fill="#EEE6CD"/>
						<path d="m103.22 98.627c-2.075 0-3.894-0.902-4.989-2.474-0.962-1.382-1.308-3.029-0.973-4.639 0.339-1.629 1.362-3.108 2.88-4.166l14.213-8.598c1.675-1.168 3.358-1.794 4.843-1.794 1.547 0 2.843 0.687 3.747 1.986 0.953 1.367 1.178 2.896 0.651 4.421-0.486 1.403-1.583 2.73-3.173 3.838l-12.86 10.019c-1.32 0.925-2.82 1.407-4.34 1.407zm15.97-20.777c-1.301 0-2.807 0.57-4.356 1.649l-14.213 8.598c-1.306 0.911-2.2 2.195-2.492 3.6-0.285 1.367 0.011 2.768 0.832 3.946 0.926 1.329 2.477 2.092 4.256 2.092 1.338 0 2.657-0.426 3.815-1.232l12.855-10.019c1.453-1.013 2.435-2.188 2.858-3.411 0.436-1.261 0.255-2.479-0.539-3.618-0.75-1.066-1.77-1.605-3.03-1.605z" fill="#6B472E"/>
						<path d="m140.21 100.6c-1.182 0-2.49-0.485-3.783-1.402l-20.273-13.133c-2.623-2.096-2.581-5.161-1.202-7.134l0.046-0.081c0.757-1.09 2.259-1.766 3.918-1.766 1.2 0 2.328 0.351 3.265 1.015l18.63 14.523c2.508 1.778 3.407 4.229 2.329 6.384l-0.047 0.074-0.195 0.251c-0.67 0.829-1.6 1.269-2.71 1.269zm-24.46-21.266l-0.048 0.084c-1.121 1.58-1.293 4.108 0.975 5.923l20.252 13.118c1.14 0.808 2.3 1.248 3.282 1.248 0.84 0 1.507-0.311 1.983-0.923l0.168-0.216c0.849-1.749 0.073-3.701-2.082-5.23l-18.63-14.523c-0.975-0.691-2.025-0.839-2.732-0.839-1.34 0-2.58 0.532-3.17 1.358z" fill="#6B472E"/>
</svg>
