<?xml version="1.0" encoding="UTF-8" standalone="no"?>
<!-- Generator: Adobe Illustrator 17.0.0, SVG Export Plug-In . SVG Version: 6.00 Build 0)  -->
<!DOCTYPE svg  PUBLIC '-//W3C//DTD SVG 1.1//EN'  'http://www.w3.org/Graphics/SVG/1.1/DTD/svg11.dtd'>
<svg id="Capa_1" style="enable-background:new 0 0 235 190" xmlns="http://www.w3.org/2000/svg" xml:space="preserve" height="190px" viewBox="0 0 235 190" width="235px" version="1.1" y="0px" x="0px" xmlns:xlink="http://www.w3.org/1999/xlink">
<style type="text/css">
	.st0{fill:#C9AA56;}
	.st1{fill:#5D5C5C;}
	.st2{fill:#B1AA95;}
	.st3{fill-rule:evenodd;clip-rule:evenodd;fill:#5D5C5C;}
	.st4{fill-rule:evenodd;clip-rule:evenodd;fill:#AE9892;}
	.st5{fill-rule:evenodd;clip-rule:evenodd;fill:#C9AA56;}
	.st6{fill-rule:evenodd;clip-rule:evenodd;fill:#F3E3BA;}
	.st7{fill-rule:evenodd;clip-rule:evenodd;fill:#DEBA5E;}
	.st8{fill-rule:evenodd;clip-rule:evenodd;fill:#B1AA95;}
	.st9{fill-rule:evenodd;clip-rule:evenodd;fill:#FFFFFF;}
	.st10{fill-rule:evenodd;clip-rule:evenodd;fill:#CBCBCA;}
	.st11{fill-rule:evenodd;clip-rule:evenodd;fill:#9FAA51;}
	.st12{fill:#070308;}
</style>
			<path class="st0" d="m144.06 27.326c1.153 0.001 2.313 0.066 3.476 0.197l1.573-5.173 10.912 3.317-1.573 5.174c3.958 2.047 7.345 4.876 10.022 8.231l4.768-2.544 5.371 10.062-4.769 2.545c1.298 4.092 1.762 8.478 1.262 12.908l5.172 1.572-3.317 10.912-5.173-1.572c-2.05 3.958-4.876 7.345-8.232 10.022l2.544 4.769-10.061 5.369-2.545-4.768c-3.016 0.957-6.195 1.461-9.43 1.459v-8.17c9.892 0.003 19.042-6.406 22.068-16.36 3.705-12.189-3.173-25.073-15.36-28.777-2.233-0.679-4.489-1.001-6.708-1.002v-8.171zm-19.5 6.829l-2.545-4.768 10.06-5.371 2.549 4.769c3.016-0.958 6.193-1.462 9.43-1.459v8.169c-9.892-0.003-19.041 6.407-22.067 16.362-3.705 12.188 3.171 25.071 15.358 28.776 2.233 0.679 4.49 1.001 6.709 1.002v8.17c-1.153-0.001-2.314-0.065-3.477-0.197l-1.573 5.174-10.912-3.317 1.573-5.175c-3.959-2.048-7.344-4.875-10.02-8.231l-4.771 2.544-5.368-10.061 4.769-2.546c-1.3-4.09-1.763-8.477-1.262-12.906l-5.173-1.572 3.318-10.913 5.173 1.572c2.04-3.959 4.87-7.345 8.22-10.022z"/>
			<path class="st1" d="m223.98 87.506l2.831 2.376-5.884 7.009-2.83-2.378c-2 1.545-4.225 2.705-6.635 3.457l0.32 3.682-6.692 0.584v-10.312c4.155 0.001 8.179-1.813 10.945-5.107 5.062-6.036 4.275-15.063-1.76-20.128-1.491-1.25-3.18-2.168-5.021-2.727-1.375-0.418-2.777-0.621-4.165-0.621v-10.32l2.422-0.211 0.321 3.681c2.486 0.323 4.914 1.087 7.137 2.253l2.376-2.832 7.01 5.881-2.376 2.832c1.543 2 2.703 4.226 3.454 6.637l3.683-0.323 0.797 9.115-3.685 0.319c-0.33 2.508-1.09 4.902-2.26 7.139zm-18.89 14.734l-2.423 0.212-0.324-3.681c-2.486-0.323-4.912-1.087-7.132-2.252l-2.378 2.832-7.008-5.881 2.376-2.832c-1.545-1.999-2.705-4.227-3.455-6.638l-3.682 0.323-0.797-9.115 3.681-0.321c0.324-2.506 1.082-4.898 2.253-7.136l-2.831-2.377 5.879-7.008 2.832 2.376c1.999-1.543 4.228-2.703 6.637-3.454l-0.322-3.683 6.692-0.585v10.318c-4.155-0.001-8.18 1.813-10.944 5.106-5.064 6.036-4.274 15.066 1.759 20.13 1.488 1.249 3.178 2.167 5.021 2.728 1.375 0.418 2.777 0.621 4.164 0.621v10.319z"/>
			<path class="st2" d="m5.937 76.916c-0.16 0.769-0.299 1.546-0.415 2.331-0.123 0.783-0.224 1.574-0.304 2.369-0.161 1.59-0.242 3.205-0.242 4.84 0 1.633 0.081 3.248 0.242 4.839 0.08 0.796 0.181 1.586 0.304 2.369 0.117 0.784 0.255 1.561 0.415 2.331 0.158 0.771 0.333 1.534 0.527 2.29 0.389 1.512 0.852 2.995 1.382 4.447 0.267 0.725 0.548 1.44 0.849 2.149 0.298 0.707 0.614 1.407 0.948 2.097 0.165 0.344 0.336 0.687 0.508 1.027 0.349 0.681 0.714 1.351 1.094 2.013 1.141 1.982 2.419 3.874 3.824 5.663 0.703 0.894 1.438 1.761 2.203 2.602 0.507 0.562 1.033 1.109 1.566 1.645 0.537 0.535 1.085 1.057 1.644 1.568 2.521 2.292 5.29 4.315 8.266 6.024 0.661 0.381 1.332 0.746 2.011 1.095 1.36 0.696 2.76 1.329 4.192 1.895 0.716 0.283 1.441 0.548 2.176 0.795 4.766 1.613 9.87 2.488 15.179 2.488 3.623 0 7.149-0.407 10.533-1.178 1.584-0.358 3.137-0.796 4.651-1.307 0.732-0.25 1.456-0.515 2.176-0.798 1.432-0.565 2.832-1.197 4.192-1.895 0.679-0.348 1.35-0.714 2.01-1.093 2.974-1.71 5.743-3.734 8.268-6.026 0.561-0.51 1.11-1.033 1.643-1.567 0.535-0.536 1.059-1.084 1.568-1.644 0.764-0.841 1.496-1.708 2.199-2.603 1.113-1.416 2.144-2.894 3.089-4.433 0.25-0.406 0.498-0.816 0.738-1.229 0.381-0.662 0.745-1.331 1.091-2.012 0.176-0.341 0.346-0.682 0.514-1.027 0.33-0.689 0.647-1.388 0.948-2.097 0.299-0.707 0.581-1.424 0.847-2.149 0.53-1.452 0.993-2.934 1.379-4.447 0.197-0.756 0.373-1.519 0.53-2.289 0.158-0.771 0.296-1.548 0.419-2.332 0.117-0.782 0.218-1.572 0.301-2.367 0.16-1.592 0.243-3.207 0.243-4.841s-0.083-3.248-0.243-4.84c-0.083-0.793-0.182-1.586-0.301-2.369-0.123-0.784-0.26-1.561-0.419-2.331-0.157-0.77-0.333-1.534-0.53-2.29-0.386-1.513-0.849-2.997-1.379-4.447-0.133-0.362-0.269-0.722-0.412-1.08-0.423-1.075-0.884-2.13-1.385-3.165-0.165-0.344-0.338-0.687-0.511-1.027-0.35-0.68-0.714-1.351-1.091-2.011-1.139-1.983-2.421-3.875-3.827-5.664-0.703-0.894-1.438-1.763-2.199-2.603-0.511-0.56-1.033-1.108-1.568-1.644-0.535-0.535-1.084-1.058-1.643-1.568-1.087-0.986-2.218-1.923-3.392-2.806-1.552-1.168-3.182-2.245-4.876-3.221-0.66-0.378-1.331-0.744-2.01-1.093-0.31-0.157-0.622-0.313-0.937-0.463-0.377-0.181-0.753-0.36-1.134-0.532-0.16-0.072-0.319-0.14-0.479-0.212-0.544-0.238-1.089-0.468-1.643-0.686-0.009-0.004-0.016-0.006-0.024-0.011-0.591-0.23-1.188-0.447-1.786-0.657-0.122-0.044-0.243-0.088-0.368-0.129-1.4-0.474-2.83-0.882-4.289-1.226-0.455-0.108-0.911-0.209-1.371-0.304-0.333-0.067-0.666-0.131-1-0.191-2.488-0.453-5.046-0.708-7.655-0.756-0.287-0.004-0.576-0.01-0.866-0.01-0.49 0-0.976 0.01-1.465 0.025-4.783 0.146-9.389 0.998-13.716 2.463-0.733 0.248-1.459 0.513-2.174 0.796-0.219 0.087-0.442 0.178-0.662 0.269-0.491 0.202-0.981 0.41-1.463 0.629-0.7 0.315-1.387 0.648-2.071 0.998-0.68 0.348-1.35 0.712-2.01 1.092-2.658 1.529-5.155 3.309-7.455 5.306-0.273 0.237-0.544 0.477-0.809 0.719-0.562 0.511-1.109 1.034-1.646 1.569-0.535 0.535-1.059 1.083-1.566 1.643-0.764 0.841-1.498 1.71-2.201 2.603-1.405 1.788-2.683 3.681-3.826 5.664-0.381 0.66-0.743 1.333-1.092 2.011-0.176 0.34-0.344 0.683-0.512 1.027-0.497 1.035-0.957 2.09-1.383 3.166-0.141 0.357-0.281 0.718-0.41 1.08-0.532 1.45-0.994 2.933-1.383 4.447-0.193 0.765-0.369 1.531-0.526 2.301z"/>
			<path class="st3" d="m78.42 124.85v-42.05c0.21 0.096 0.409 0.193 0.584 0.299 1.207 0.724 2.896 1.689 3.378 0.603s2.051-0.724 3.378-0.482 3.619 0.723 4.826 0.603c1.207-0.121 2.413-1.207 2.533-2.292 0.121-1.086-1.568-1.327-3.619-1.327s-2.896-0.362-2.534-1.568c0.362-1.207 0.965-2.292 2.051-2.776 1.086-0.482 2.051-0.724 3.137-0.724s2.534 0.845 3.861 0.724c1.327-0.12 0.844-1.327-0.483-2.051s-1.568-1.81-0.965-2.413 0.242-1.206-0.844-0.603-2.655 2.172-3.017 1.207-3.016-0.12-3.016 1.327 0.362 1.689-0.121 2.654c-0.482 0.966-1.568 1.689-2.533 1.568-0.966-0.12 0.12 1.69-0.845 2.172-0.966 0.482-1.448-0.724-2.051-1.931-0.604-1.206-1.086-1.931-1.69-2.655-0.603-0.723-0.965-1.085-1.809-1.809-0.076-0.065-0.15-0.12-0.223-0.166v-9.971c0.271-0.069 0.57-0.118 0.947-0.118 1.327 0 2.292 1.086 3.257 0.241 0.965-0.844-0.724-2.292 0.724-2.292 1.447 0 2.654 0.121 1.568-0.965s0.362-0.482 1.568-1.086c1.207-0.603 1.086-1.569-0.362-1.327-1.447 0.241-2.654 1.086-3.257-0.362s1.207-3.137 2.172-4.223c0.213-0.24 0.255-0.451 0.187-0.619 0.186 0.18 0.371 0.361 0.553 0.544 0.535 0.536 1.057 1.084 1.568 1.644 0.762 0.841 1.496 1.71 2.199 2.603 1.406 1.788 2.687 3.68 3.827 5.664 0.378 0.66 0.741 1.331 1.091 2.011 0.173 0.34 0.346 0.683 0.511 1.027 0.501 1.035 0.961 2.09 1.385 3.165 0.143 0.358 0.28 0.719 0.412 1.08 0.53 1.45 0.993 2.934 1.379 4.447 0.197 0.755 0.373 1.52 0.53 2.29 0.158 0.769 0.296 1.546 0.419 2.331 0.119 0.783 0.218 1.575 0.301 2.369 0.16 1.592 0.243 3.207 0.243 4.84 0 1.634-0.083 3.249-0.243 4.841-0.083 0.795-0.184 1.585-0.301 2.367-0.123 0.784-0.26 1.561-0.419 2.332-0.065 0.321-0.134 0.641-0.206 0.96l-0.044-0.1c-1.086-2.534-3.499-5.309-4.343-7.601-0.845-2.292-1.69-3.74-2.534-3.619-0.845 0.12 1.086 4.464 1.931 6.032 0.844 1.568 1.81 4.102 3.257 5.55 0.457 0.458 0.927 0.831 1.398 1.113-0.384 1.496-0.843 2.964-1.367 4.401-0.266 0.725-0.548 1.442-0.847 2.149-0.301 0.709-0.617 1.408-0.948 2.097-0.168 0.345-0.338 0.687-0.514 1.027-0.346 0.68-0.71 1.35-1.091 2.012-0.24 0.414-0.488 0.823-0.738 1.229-0.945 1.54-1.976 3.018-3.089 4.433-0.703 0.895-1.435 1.763-2.199 2.603-0.508 0.56-1.033 1.108-1.568 1.644-0.533 0.534-1.082 1.057-1.643 1.567-1.721 1.562-3.555 3-5.49 4.299-0.11-0.32-0.174-0.63-0.222-0.94zm0-48.102c0.193 0.571 0.223 1.291 0.223 2.131 0 1.688 1.327-0.604 1.568-1.328s0.724-2.413-0.242-2.413c-0.744 0-1.058-0.214-1.55-0.7v2.31h0.001zm0-14.876c0.185-0.142 0.382-0.246 0.584-0.246 0.845 0 1.207-1.086 2.172-2.051 0.966-0.965-0.845-2.172-0.362-3.499 0.482-1.327 1.93-1.93 2.292-3.257 0.221-0.812 1.254-0.947 1.803-0.681-0.256-0.243-0.514-0.483-0.774-0.721-1.087-0.986-2.218-1.923-3.392-2.806-0.271-0.204-0.545-0.405-0.82-0.603-0.506 0.398-1.02 0.915-1.504 1.459v12.405zm0-12.406v12.406c-0.587 0.449-1.071 1.273-1.346 0.357-0.362-1.207-1.086-2.534-1.93-1.93-0.845 0.603-0.724 2.654-1.81 0.965s-2.051-4.102-0.845-5.43c1.207-1.327 2.896-2.412 3.861-3.74 0.46-0.63 1.219-1.671 2.07-2.628zm0 13.726c-0.683 0.176-1.188 0.485-2.311 0.485-1.568 0-0.965-1.086-1.931-1.086-0.965 0-0.723 1.809-1.568 2.654-0.737 0.737-1.935 1.659-3.191 2.122v9.672c0.576-0.193 0.744-1.299 0.416-2.504-0.362-1.327 1.931-0.844 3.861-0.844 1.931 0 2.172 1.327 3.499 1.81 0.668 0.243 1.03 0.669 1.225 1.248v-2.31c-0.146-0.144-0.308-0.312-0.501-0.506-0.769-0.769-0.237-1.238 0.501-0.769v-9.972zm0 19.611v42.05c-0.132-0.85-0.145-1.677-0.743-2.541-1.086-1.568-2.171-4.343-1.086-5.791 1.086-1.447 1.568-2.533 0.603-2.896-0.966-0.361 0.482-2.05-0.844-2.896-1.327-0.844-2.172-3.137-1.69-4.222 0.483-1.086 0.604-2.896-0.965-2.896-1.158 0-2.843-0.657-4.276-0.807v-23.003c0.712-0.273 1.436-0.546 2.587-0.546 2.292 0 3.981-0.845 3.74 0.965-0.204 1.546 1.439 2.035 2.674 2.597zm-9-16.41v-1.012c0.317-0.101 0.546 0.078 0.478 0.416-0.056 0.281-0.248 0.603-0.478 0.596zm0-1.012v1.012c-0.085-0.003-0.174-0.05-0.264-0.16-0.333-0.409-0.308-0.665 0.128-0.794 0.046-0.025 0.092-0.044 0.136-0.058zm0 1.986v9.672c-0.058 0.019-0.121 0.03-0.187 0.03-0.2 0-0.41 0.01-0.605 0.041v-9.516c0.078-0.016 0.159-0.034 0.243-0.056 0.183-0.046 0.366-0.104 0.549-0.171zm0 12.42v23.017c-0.276-0.029-0.541-0.039-0.793-0.022v-22.709c0.276-0.086 0.533-0.184 0.793-0.284zm-0.793-17.436v-1.011c0.317-0.1 0.546 0.079 0.479 0.417-0.056 0.28-0.249 0.601-0.479 0.594zm0-1.011v1.011c-0.085-0.003-0.174-0.049-0.264-0.16-0.333-0.41-0.307-0.666 0.128-0.794 0.047-0.024 0.092-0.043 0.136-0.057zm0 6.253v9.516c-0.512 0.081-0.93 0.313-0.842 0.925 0.12 0.845-0.242 0.724-0.845 1.207-0.287 0.23-0.657 0.487-1.069 0.628v-5.793c1.003-0.324 1.616-1.386 0.707-2.194-1.086-0.966-0.724-2.292-0.121-3.379 0.568-1.022 0.922-0.654 2.17-0.91zm0 12.478v22.712c-0.212 0.014-0.414 0.047-0.601 0.105-0.803 0.247-1.51 0.462-2.155 0.662v-23.128c0.298-0.053 0.647-0.085 1.069-0.085 0.684 0 1.212-0.109 1.687-0.256zm-2.756-12.453c0.425-0.182 0.898-0.338 1.406-0.338 1.772 0-0.137-3.001 0.136-3.954 0.262-0.914 0.147-3.206-1.543-3.156v7.448zm0-7.449v7.448c-1.058 0.453-1.808 1.064-2.003-0.201-0.272-1.773-0.409-1.637 1.227-2.319s-0.682-5.045 0.546-4.909c0.08-0.011 0.156-0.017 0.23-0.019zm0 13.906v5.793c-0.453 0.156-0.959 0.171-1.464-0.145-0.482-0.301-1.205-0.212-1.807-0.196v-5.594c1.101 0.016 1.371 0.241 2.651 0.241 0.216 0 0.425-0.036 0.62-0.099zm0 6.337v23.138c-0.616 0.191-1.175 0.368-1.706 0.544-0.419 0.139-0.964-0.098-1.565-0.533v-21.9c0.22-0.112 0.462-0.197 0.721-0.249 0.971-0.193 1.317-0.779 2.55-0.999zm-3.271-13.387c0.279-0.085 0.549-0.31 0.723-0.7 0.545-1.227 0.545-3.409-0.546-3.273-0.062-0.008-0.121-0.015-0.178-0.019v3.992h0.001zm0-20.687v-1.422c0.092-0.009 0.197-0.009 0.314 0.001 0.954 0 1.636 1.636 0.409 1.636-0.268 0-0.516-0.084-0.723-0.215zm0-1.422v1.422c-0.676-0.424-0.92-1.338 0-1.422zm0 18.117v3.992c-0.598 0.183-1.235-0.273-1.049-1.109 0.263-1.187-0.621-3.012 1.049-2.883zm0 10.9v5.594c-0.605 0.016-1.089-0.044-1.089-0.648 0-1.207-0.845-1.69-0.242-2.776s0-2.172 1.207-2.172l0.124 0.002zm0 7.728v21.9c-0.957-0.691-2.056-1.882-3.02-2.845-0.703-0.703-1.672-1.575-2.419-2.422v-8.381c0.539-1.018 0.929-3.561 2.058-3.675 1.207-0.121 2.051-1.447 2.051-2.533 0-0.857 0.521-1.636 1.33-2.048zm-5.44 1.484c0.23 0.008 0.423-0.314 0.479-0.595 0.067-0.338-0.162-0.517-0.479-0.417v1.012zm0-28.512v-2.885c1.24 0.013 1.781 1.118 0.981 2.033-0.256 0.292-0.591 0.595-0.981 0.852zm0-2.886v2.885c-0.23 0.151-0.479 0.287-0.742 0.396v-3.172c0.268-0.077 0.517-0.111 0.742-0.109zm0 30.386v1.011c-0.085-0.002-0.174-0.05-0.264-0.16-0.333-0.41-0.307-0.666 0.128-0.793 0.048-0.025 0.093-0.044 0.136-0.058zm0 7.78v8.381c-0.291-0.329-0.548-0.655-0.742-0.964v-1.769c0.94-0.888 0.515-1.19 0-1.806v-2.576c0.194-0.412 0.425-0.794 0.628-1.079 0.039-0.055 0.078-0.118 0.114-0.187zm-0.742-3.81v-1.022c0.282-0.057 0.475 0.121 0.412 0.434-0.05 0.252-0.212 0.539-0.412 0.588zm0-34.247v3.172c-0.953 0.393-2.091 0.43-3.185-0.43-0.031-0.024-0.06-0.048-0.088-0.072v-3.241c0.199-0.062 0.416-0.056 0.633 0.041 1.227 0.545 1.636 0.409 2.591 0.545l0.049-0.015zm0 33.225v1.022c-0.103 0.025-0.217-0.013-0.33-0.153-0.333-0.41-0.308-0.666 0.128-0.793 0.071-0.039 0.138-0.063 0.202-0.076zm0 6.097v2.576c-0.072-0.085-0.144-0.177-0.216-0.277-0.399-0.559-0.164-1.489 0.216-2.299zm0 4.383v1.769c-0.421-0.672-0.551-1.271-0.095-1.681 0.034-0.03 0.065-0.06 0.095-0.088zm-3.273-54.838v-1.593l0.026 0.001c0.292 0.005 0.585 0.013 0.876 0.024 0.006 0.314-0.078 0.67-0.446 1.038-0.186 0.186-0.333 0.364-0.456 0.53zm1.724 42.007c0.384-0.205 0.691-0.026 0.614 0.358-0.077 0.385-0.41 0.846-0.743 0.436-0.332-0.41-0.307-0.666 0.129-0.794zm-25.991-15.762c0.078-0.002 0.158-0.003 0.239-0.003 1.366 0 0.362-0.959-0.239-1.808v1.811zm24.267-27.838v1.593c-0.628 0.853-0.606 1.414-1.946 1.414-1.602 0 1.944 2.517 0.114 2.517s-2.403 2.289-0.572 2.06c1.831-0.229 1.717 0.572-0.228 1.487-1.945 0.916-5.034 0.916-5.95 2.403-0.916 1.488-4.348 1.373-4.348 2.746s-0.572 6.407-3.204 5.492c-2.632-0.916-3.204-3.547-4.233-5.149-1.03-1.602 0.572-3.318-0.458-3.89-1.03-0.573 2.288-3.204 1.144-2.403-1.144 0.8-2.975-0.344-1.373-0.687 1.601-0.344 1.029-1.945-0.115-1.602-0.862 0.258-1.79-0.003-1.557-0.638l0.337-0.174c0.684-0.35 1.371-0.682 2.071-0.998 0.482-0.219 0.972-0.427 1.463-0.629 0.22-0.09 0.442-0.182 0.662-0.269 0.714-0.283 1.441-0.548 2.174-0.796 4.326-1.465 8.933-2.317 13.716-2.463 0.489-0.015 0.975-0.025 1.465-0.025 0.281 0.002 0.56 0.007 0.838 0.011zm0 12.155c-0.912 0.283-1.463 2.01 0 3.241v-3.241zm-24.267 76.305v-26.17c1.261 0.883 2.381 1.699 3.443 1.699 1.487 0 1.258 1.487 1.258 2.975s1.945 1.488 4.005 2.174c2.06 0.686 2.975 0.571 5.035 1.831 2.06 1.258 2.517 1.944 1.487 3.432s-3.203 3.777-3.318 5.95c-0.115 2.174-1.487 4.233-2.975 4.462s-2.861 1.373-2.861 2.403-1.373 0.572-1.487 2.517c-0.019 0.315-0.079 0.636-0.171 0.952-0.859-0.378-1.704-0.779-2.535-1.204-0.635-0.32-1.262-0.66-1.881-1.02zm0-56.759v-3.343c0.069 0.006 0.151 0.014 0.246 0.021 1.799-0.085 2.056 1.286 2.571 2.4 0.514 1.114 0.171 2.228-1.543 1.456-0.496-0.223-0.928-0.382-1.274-0.534zm-3.904-2.378c0.325 0.297 0.526 0.406 0.824-0.115 0.439-0.767 1.298-1.325 3.08-1.37v-1.811c-0.254-0.36-0.435-0.7-0.333-0.938 0.344-0.801-1.373-1.144-2.288-2.059-0.666-0.666-0.727-2.299-1.282-3.185v9.478h-0.001zm3.904-0.965v3.343c-0.848-0.373-1.183-0.709-0.696-1.865 0.626-1.488-0.035-1.545 0.696-1.478zm0 33.932v26.17l-0.13-0.075c-1.299-0.745-2.557-1.551-3.774-2.412v-25.532c0.701 0.088 1.475 0.304 2.312 0.797 0.557 0.32 1.086 0.69 1.592 1.04zm-3.904-27.763v-1.477c0.923-0.058 1.085 1.498 0.208 1.498-0.072 0.001-0.141-0.007-0.208-0.021zm0-21.419v-1.429c0.4 0.632 0.464 1.296 0 1.429zm-1.488 20.046c0.046-0.055 0.093-0.112 0.139-0.17 0.634-0.807 0.397-1.641-0.139-2.272v2.442zm0-4.516c0.342-0.041 0.644-0.017 0.825 0.112 0.279 0.2 0.489 0.413 0.663 0.573v-9.478c-0.208-0.333-0.486-0.56-0.891-0.591-0.276-0.021-0.464 0.001-0.597 0.053v9.331zm1.488-16.959v1.429c-0.135 0.04-0.317 0.033-0.548-0.033-0.342-0.098-0.662-0.149-0.94-0.155v-2.42c0.044 0.021 0.091 0.04 0.139 0.058 0.58 0.208 1.055 0.656 1.349 1.121zm0 21.372v1.477c-0.804-0.168-1.17-1.277-0.221-1.435 0.078-0.025 0.152-0.037 0.221-0.042zm0 27.397v25.527c-0.503-0.356-1-0.723-1.488-1.098v-24.46c0.449-0.019 0.947-0.029 1.488 0.038zm-1.488-4.974v-0.301c0.112 0.115 0.131 0.229 0 0.301zm0-20.386c0.049 0.01 0.101 0.016 0.154 0.016 0.65 0 0.53-1.154-0.154-1.111v1.095zm0-18.057v-2.121c0.64 0.831 0.476 1.71 0 2.121zm-2.193 17.668c0.668-0.317 1.445-0.668 2.192-1.545v-2.442c-0.53-0.622-1.352-1.046-1.921-1.046-0.884 0 0.759-0.887 1.921-1.027v-9.331c-0.584 0.229-0.073 1.04-1.005 1.32-0.508 0.153-0.905 0.124-1.187-0.044v14.115zm2.193-24.198v2.42c-1.03-0.023-1.49 0.562-0.319 1.642 0.124 0.114 0.229 0.23 0.319 0.347v2.122c-0.266 0.229-0.63 0.314-1.005 0.163-0.275-0.11-0.689-0.273-1.187-0.459v-5.169c0.564-0.49 1.14-0.966 1.727-1.429 0.126 0.148 0.278 0.273 0.465 0.363zm0 23.492v1.095c-0.596-0.125-0.868-0.947-0.164-1.064 0.057-0.018 0.112-0.028 0.164-0.031zm0 21.179v0.301c-0.101 0.056-0.289 0.086-0.589 0.073-1.363-0.059-2.251-0.889-0.532-0.771 0.464 0.001 0.928 0.201 1.121 0.397zm0 5.238v24.467c-0.749-0.576-1.479-1.173-2.192-1.791v-22.569c0.46-0.025 0.919-0.076 1.302-0.076 0.27-0.001 0.567-0.02 0.89-0.035zm-4.037-23.922c0.216-0.376 0.426-0.784 0.743-1.101 0.299-0.299 0.678-0.487 1.101-0.688v-14.117c-0.353-0.211-0.53-0.642-0.53-1.213 0-0.433-0.546-1.048-1.314-1.598v18.717zm1.844-24.922v5.169c-0.54-0.201-1.179-0.43-1.844-0.646v-2.835c0.339-0.327 0.683-0.649 1.032-0.967 0.266-0.242 0.537-0.481 0.809-0.719l0.003-0.002zm0 48.955v22.565c-0.273-0.237-0.544-0.478-0.812-0.722-0.348-0.318-0.693-0.641-1.032-0.968v-21.233c0.424 0.37 1.134 0.393 1.844 0.354zm-1.844-5.169v-1.569c0.112-0.009 0.233-0.014 0.367-0.014 1.007-0.059 0.889 1.599-0.178 1.599-0.063 0-0.126-0.006-0.189-0.016zm-3.898-13.018c0.31-0.272 0.523-0.561 0.523-0.883 0-1.03 0.687-3.89 1.945-3.89 0.76 0 1.103-0.5 1.432-1.073v-18.717c-0.89-0.637-2.078-1.188-3.064-1.27-0.283 0.329-0.561 0.662-0.834 0.998v24.835h-0.002zm3.898-29.08v2.835c-0.719-0.234-1.469-0.454-2.16-0.612 0.5-0.552 1.018-1.093 1.547-1.622 0.203-0.202 0.407-0.402 0.613-0.601zm0 40.529v1.569c-0.946-0.157-1.812-1.422 0-1.569zm0 6.384v21.229c-0.124-0.119-0.246-0.238-0.368-0.358-0.503-0.603-1.079-1.388-1.726-1.792l-0.084-0.093c-0.592-0.65-1.166-1.317-1.721-1.999v-16.601c0.492 0.026 0.961-0.003 1.323-0.23 0.915-0.572 1.831-1.716 2.289-0.572 0.068 0.17 0.166 0.304 0.287 0.41zm-3.898-6.866v-0.919c0.932 0.181 1.495 0.972 0.474 0.972-0.165 0-0.325-0.019-0.474-0.053zm0-2.796v-1.269c1.04 0.541 1.706 1.934 0.889 1.453-0.338-0.198-0.628-0.224-0.889-0.184zm-2.907-1.976c0.392 0.2 0.569-0.124 0.569-1.014 0-1.602-0.457-2.517 0.115-3.432 0.393-0.629 1.543-1.15 2.224-1.749v-24.835c-0.162 0.2-0.323 0.401-0.482 0.603-0.351 0.447-0.694 0.9-1.03 1.36 0.047 0.403 0.125 0.801 0.203 1.165 0.344 1.602 1.145 2.746 0.229 2.746-0.915 0-0.915 1.373-1.03 3.547-0.058 1.098-0.437 0.941-0.798 0.384v21.225zm2.907 0.707v1.269c-0.521 0.08-0.928 0.421-1.362 0.184-0.652-0.356-0.473-1.481 0.591-1.659 0.268 0 0.529 0.08 0.771 0.206zm0 3.146v0.919c-0.932-0.207-1.495-0.954-0.473-0.954 0.163-0.008 0.323 0.006 0.473 0.035zm0 8.177v16.593l-0.057-0.071c0.004-0.132 0.008-0.262 0.008-0.39 0-0.898-1.911-2.403-2.857-3.684v-4.841c0.036-0.021 0.073-0.04 0.111-0.057 1.259-0.572 0.687-2.288 1.945-2.632 1.259-0.343 0.458-1.716 0-2.631-0.243-0.486-1.161-0.456-2.056-0.458v-1.791c0.274 0.063 0.544 0.056 0.798-0.04 0.552-0.208 1.356-0.039 2.108 0zm-2.907-8.413v-1.182c1.034 0.226 1.595 1.372 0.419 1.265-0.146-0.013-0.287-0.042-0.419-0.083zm-6.707-14.36c-0.16 0.769-0.299 1.546-0.415 2.331-0.123 0.783-0.224 1.574-0.304 2.369-0.131 1.285-0.208 2.586-0.233 3.9 0.551 0.032 1.103 0.067 1.591-0.129 1.145-0.458 3.318-1.03 4.691 0.801 0.611 0.814 1.063 1.311 1.377 1.472v-21.226c-0.353-0.546-0.69-1.476-0.69-1.986 0-0.43-0.38-0.761-0.991-1.059-0.28 0.501-0.55 1.007-0.812 1.518-0.176 0.34-0.344 0.683-0.512 1.027-0.497 1.035-0.957 2.09-1.383 3.166-0.141 0.357-0.281 0.718-0.41 1.08-0.532 1.45-0.994 2.933-1.383 4.447-0.193 0.753-0.369 1.519-0.526 2.289zm6.707 13.178v1.182c-1.054-0.321-1.614-1.378-0.351-1.22 0.121 0 0.239 0.014 0.351 0.038zm0 9.634c-0.716-0.165-1.452-0.814-1.949-1.641-0.686-1.144 0.458-2.403-1.258-2.403s-0.512-3.836-0.512-4.98c0-1.086-2.321 0.871-3.536 2.051 0.041 0.304 0.085 0.607 0.133 0.909 0.117 0.784 0.255 1.561 0.415 2.331 0.058 0.284 0.118 0.567 0.181 0.848 0.628 0.367 1.268 0.671 2.06 0.671 1.945 0 2.06 2.632 2.632 3.547 0.269 0.43 1.042 0.456 1.834 0.457v-1.792zm0 7.572v4.841c-0.14-0.189-0.258-0.374-0.346-0.55-0.667-1.33-0.794-3.63 0.346-4.29z"/>
			<polygon points="106.61 151.03 136.65 151.03 150.73 176.54 92.526 176.54" class="st4"/>
			<path class="st5" d="m50.838 65.968h141.58c3.984 0 7.244 3.26 7.244 7.244v77.045c0 3.984-3.259 7.244-7.244 7.244h-141.58c-3.984 0-7.244-3.26-7.244-7.244v-77.048c-0.001-3.984 3.258-7.244 7.242-7.244z"/>
			<rect y="70.194" x="48.402" height="74.373" class="st6" width="146.45"/>
			<circle cy="151.1" cx="190.87" r=".941" class="st7"/>
			<circle cy="151.1" cx="187.19" r=".941" class="st7"/>
			<circle cy="151.1" cx="183.52" r=".941" class="st7"/>
			<path class="st8" d="m35.228 168.84h172.8c2.12 0 3.855 1.734 3.855 3.854s-1.735 3.855-3.855 3.855h-172.79c-2.12 0-3.855-1.735-3.855-3.855-0.002-2.11 1.733-3.84 3.853-3.84z"/>
			<path class="st9" d="m211.88 172.69c0 2.12-1.735 3.855-3.855 3.855h-172.79c-2.121 0-3.855-1.735-3.855-3.855h180.5z"/>
		<polygon points="194.85 70.194 48.402 144.57 194.85 144.57" class="st4"/>
		<rect y="80.424" x="61.822" height="2.508" class="st10" width="45.143"/>
		<rect y="90.501" x="61.822" height="2.509" class="st5" width="23.697"/>
		<rect y="90.501" x="147.97" height="2.509" class="st5" width="33.465"/>
		<rect y="99.177" x="61.821" height="2.509" class="st8" width="17.406"/>
		<rect y="99.177" x="85.518" height="2.509" class="st8" width="79.038"/>
		<rect y="107.85" x="61.821" height="2.509" class="st10" width="42.816"/>
		<rect y="107.85" x="110.93" height="2.509" class="st8" width="47.801"/>
		<rect y="116.53" x="61.821" height="2.509" class="st11" width="17.406"/>
		<rect y="116.53" x="85.518" height="2.509" class="st8" width="44.297"/>
		<rect y="125.2" x="61.822" height="2.509" class="st8" width="36.609"/>
		<rect y="125.2" x="104.72" height="2.509" class="st8" width="45.491"/>
		<rect y="90.501" x="91.809" height="2.509" class="st8" width="49.213"/>
		<rect y="99.177" x="171.5" height="2.509" class="st8" width="9.932"/>
		<rect y="107.85" x="165.68" height="2.509" class="st10" width="15.759"/>
		<rect y="116.53" x="136.76" height="2.509" class="st11" width="44.672"/>
		<rect y="125.2" x="157.16" height="2.509" class="st8" width="24.276"/>
			<path class="st12" d="m210.33 86.936c0.108-0.351-0.018-0.736-0.312-0.953-0.482-0.356-1.17-0.129-1.347 0.442l-0.029 0.098-0.151 0.48-0.156 0.476-0.161 0.473-0.03 0.084c-0.326 0.912 0.871 1.6 1.496 0.836 0.058-0.075 0.105-0.156 0.137-0.246l0.036-0.103 0.168-0.492 0.162-0.496 0.157-0.5 0.02-0.099z"/>
			<path class="st12" d="m212.29 76.541c0.084-0.839-0.995-1.289-1.535-0.63-0.115 0.149-0.175 0.285-0.194 0.474l-0.033 0.383-0.051 0.539-0.057 0.536-0.029 0.242c-0.027 0.203 0.028 0.426 0.144 0.594 0.459 0.66 1.473 0.412 1.579-0.383l0.031-0.26 0.058-0.555 0.053-0.557 0.03-0.383z"/>
			<path class="st12" d="m212.15 65.971c-0.091-0.906-1.385-1.087-1.695-0.159-0.034 0.115-0.044 0.224-0.032 0.344l0.005 0.04 0.057 0.569 0.052 0.567 0.043 0.526c0.059 0.886 1.302 1.13 1.674 0.251 0.047-0.13 0.066-0.243 0.056-0.382l-0.044-0.544-0.053-0.585-0.06-0.586-0.02-0.041z"/>
			<path class="st12" d="m206.13 45.82c-0.455-0.876-1.772-0.446-1.634 0.519 0.018 0.101 0.039 0.17 0.084 0.264l0.162 0.316 0.274 0.551 0.268 0.553 0.052 0.11c0.449 0.933 1.852 0.46 1.632-0.564-0.014-0.056-0.033-0.115-0.058-0.167l-0.06-0.127-0.276-0.571-0.283-0.569-0.15-0.315z"/>
			<path class="st12" d="m200.46 36.914c-0.543-0.723-1.738-0.219-1.534 0.732 0.032 0.122 0.078 0.22 0.153 0.321l0.335 0.434 0.386 0.513 0.311 0.423c0.618 0.823 1.892 0.106 1.501-0.853-0.028-0.058-0.056-0.115-0.096-0.167l-0.324-0.44-0.398-0.529-0.34-0.434z"/>
			<path class="st12" d="m193.22 29.212c-0.739-0.642-1.815 0.216-1.325 1.091 0.05 0.08 0.097 0.14 0.169 0.205l0.174 0.153 0.503 0.455 0.497 0.46 0.085 0.081c0.704 0.672 1.825-0.155 1.366-1.037-0.046-0.082-0.096-0.15-0.165-0.216l-0.101-0.095-0.512-0.473-0.519-0.469-0.17-0.155z"/>
			<path class="st12" d="m184.73 22.952c-0.823-0.506-1.74 0.501-1.14 1.277 0.066 0.081 0.132 0.139 0.219 0.195l0.567 0.349 0.612 0.389 0.272 0.177c0.113 0.077 0.267 0.131 0.403 0.14 0.9 0.065 1.298-1.083 0.553-1.59l-0.289-0.188-0.63-0.4-0.56-0.349z"/>
			<path class="st12" d="m175.31 18.199c-0.886-0.348-1.6 0.729-0.957 1.407 0.089 0.089 0.175 0.147 0.289 0.196l0.303 0.124 0.727 0.307 0.55 0.24c0.961 0.412 1.706-0.898 0.839-1.513-0.043-0.028-0.087-0.053-0.135-0.074l-0.569-0.248-0.746-0.316-0.29-0.123z"/>
			<path class="st12" d="m165.32 14.901c-0.811-0.224-1.438 0.755-0.881 1.406 0.125 0.137 0.254 0.222 0.435 0.272l0.696 0.181 0.828 0.226 0.134 0.037c0.744 0.206 1.363-0.558 1.007-1.243-0.105-0.201-0.305-0.364-0.524-0.424l-0.151-0.043-0.847-0.23-0.71-0.182z"/>
			<path class="st12" d="m154.99 12.906c-0.977-0.131-1.392 1.227-0.465 1.655 0.076 0.033 0.15 0.054 0.231 0.065l0.181 0.024 0.934 0.132 0.585 0.089c0.243 0.04 0.482-0.03 0.675-0.178 0.589-0.482 0.342-1.412-0.406-1.537l-0.602-0.091-0.953-0.135-0.17-0.024z"/>
			<path class="st12" d="m144.53 12.04c-0.816-0.027-1.22 0.965-0.601 1.525 0.156 0.128 0.328 0.203 0.532 0.21l0.629 0.022 1.026 0.046 0.063 0.003c0.909 0.06 1.305-1.193 0.426-1.65-0.108-0.05-0.206-0.076-0.324-0.083l-0.08-0.004-1.042-0.047-0.64-0.022z"/>
			<path class="st12" d="m134.04 12.127c-0.875 0.058-1.139 1.184-0.383 1.625 0.146 0.081 0.298 0.115 0.465 0.109l0.194-0.01 1.12-0.049 0.405-0.014c0.993-0.033 1.171-1.463 0.165-1.715-0.073-0.015-0.142-0.024-0.217-0.021l-0.421 0.015-1.134 0.049-0.19 0.011z"/>
			<path class="st12" d="m123.6 13.019c-0.205 0.027-0.371 0.109-0.517 0.255-0.566 0.595-0.098 1.551 0.724 1.468h0.003l1.207-0.14 0.503-0.055c0.916-0.092 1.073-1.39 0.178-1.689-0.121-0.037-0.231-0.05-0.358-0.038l-0.517 0.056-1.219 0.142 0.01 0.001z"/>
			<path class="st12" d="m113.26 14.589c-0.305 0.051-0.57 0.28-0.667 0.572-0.211 0.633 0.317 1.245 0.975 1.136l0.25-0.046 1.284-0.227 0.162-0.028c0.419-0.069 0.726-0.43 0.726-0.855 0-0.536-0.48-0.946-1.009-0.857l-0.175 0.03-1.297 0.229-0.24 0.046z"/>
			<path class="st12" d="m103.02 16.733c-0.987 0.238-0.845 1.679 0.177 1.714 0.074 0 0.142-0.006 0.212-0.022l1.134-0.265 0.551-0.126c1.007-0.243 0.849-1.715-0.214-1.715-0.058 0.002-0.108 0.009-0.164 0.021l-0.562 0.128-1.14 0.265z"/>
			<path class="st12" d="m92.903 19.368c-0.39 0.108-0.664 0.484-0.635 0.89 0.038 0.552 0.564 0.93 1.1 0.782l1.413-0.397 0.253-0.069c0.905-0.249 0.83-1.564-0.116-1.699-0.119-0.013-0.223-0.009-0.339 0.023l-0.263 0.073-1.413 0.397z"/>
			<path class="st12" d="m82.918 22.512c-0.967 0.345-0.654 1.794 0.396 1.681 0.058-0.008 0.117-0.021 0.171-0.04l0.092-0.033 1.358-0.464 0.179-0.06c0.348-0.108 0.598-0.453 0.598-0.816 0-0.601-0.567-1.011-1.139-0.833l-0.192 0.064-1.371 0.469-0.092 0.032z"/>
			<path class="st12" d="m73.139 26.24c-0.864 0.37-0.628 1.637 0.312 1.671 0.131 0 0.227-0.018 0.349-0.066l0.619-0.258 0.98-0.399c0.835-0.328 0.679-1.604-0.288-1.672-0.128-0.005-0.242 0.015-0.36 0.062l-0.993 0.405-0.619 0.257z"/>
			<path class="st12" d="m63.609 30.586c-0.806 0.388-0.553 1.646 0.405 1.646 0.133-0.004 0.244-0.032 0.365-0.09l0.319-0.16 1.172-0.573 0.054-0.026c0.805-0.387 0.578-1.587-0.319-1.651-0.152-0.006-0.286 0.015-0.424 0.082l-0.067 0.032-1.185 0.58-0.32 0.16z"/>
			<path class="st12" d="m54.403 35.584c-0.793 0.457-0.416 1.713 0.551 1.61 0.119-0.017 0.221-0.051 0.326-0.112l0.489-0.289 1.004-0.583c0.228-0.131 0.376-0.346 0.423-0.602 0.129-0.723-0.652-1.27-1.286-0.904l-1.018 0.59-0.489 0.29z"/>
			<path class="st12" d="m8.494 111.81c0.221 0.913 1.566 0.873 1.705-0.099 0.011-0.11 0.008-0.205-0.019-0.313l-0.002-0.01-0.155-0.66-0.144-0.665-0.062-0.314c-0.14-0.702-0.995-0.951-1.488-0.432-0.192 0.212-0.265 0.467-0.218 0.751l0.068 0.344 0.15 0.696 0.162 0.691 0.003 0.01z"/>
			<path class="st12" d="m12.475 121.67c0.469 0.812 1.745 0.394 1.608-0.573-0.02-0.111-0.051-0.203-0.108-0.301l-0.079-0.133-0.329-0.578-0.317-0.584-0.092-0.178c-0.474-0.914-1.868-0.402-1.612 0.619 0.017 0.06 0.036 0.109 0.063 0.165l0.108 0.208 0.334 0.614 0.346 0.607 0.078 0.12z"/>
			<path class="st12" d="m19.176 129.92c0.677 0.615 1.72-0.084 1.4-0.951-0.057-0.134-0.113-0.222-0.22-0.324l-0.137-0.124-0.503-0.475-0.492-0.482-0.083-0.085c-0.652-0.683-1.808 0.036-1.417 0.96 0.042 0.09 0.094 0.169 0.165 0.242l0.108 0.11 0.515 0.506 0.528 0.498 0.136 0.1z"/>
			<path class="st12" d="m27.897 135.97c0.832 0.431 1.683-0.576 1.059-1.339-0.074-0.082-0.152-0.147-0.25-0.198l-0.226-0.116-0.666-0.358-0.606-0.34c-0.785-0.453-1.686 0.469-1.125 1.275 0.076 0.097 0.155 0.169 0.262 0.231l0.633 0.355 0.694 0.373 0.225 0.14z"/>
			<path class="st12" d="m37.769 139.79c0.59 0.162 1.157-0.321 1.093-0.93-0.038-0.354-0.289-0.649-0.633-0.744l-0.015-0.003-0.82-0.232-0.806-0.242c-0.898-0.279-1.549 0.893-0.794 1.511 0.092 0.068 0.17 0.113 0.282 0.148l0.832 0.25 0.846 0.24 0.015-0.01z"/>
			<path class="st12" d="m48.135 141.71c0.996 0.099 1.35-1.275 0.423-1.668-0.074-0.03-0.155-0.051-0.233-0.058l-0.318-0.033-0.949-0.111-0.434-0.057c-0.944-0.126-1.382 1.148-0.53 1.624 0.094 0.049 0.188 0.081 0.293 0.096l0.458 0.06 0.973 0.114 0.317 0.04z"/>
			<path class="st12" d="m58.646 142.12c1.021-0.034 1.179-1.473 0.169-1.717-0.067-0.015-0.128-0.019-0.196-0.019l-0.469 0.01-1.067 0.011-0.18-0.001c-0.934 0-1.216 1.266-0.36 1.661 0.113 0.048 0.224 0.075 0.346 0.075h0.201l1.087-0.01 0.469-0.01z"/>
			<path class="st12" d="m69.116 141.36c1.029-0.137 1.021-1.62-0.035-1.729-0.057-0.003-0.109-0.002-0.165 0.003l-0.633 0.077-1.082 0.119c-0.918 0.092-1.097 1.416-0.12 1.706 0.108 0.023 0.19 0.033 0.302 0.021l1.1-0.121 0.633-0.08z"/>
			<path class="st12" d="m79.46 139.67c0.303-0.06 0.557-0.278 0.655-0.573 0.21-0.629-0.335-1.261-0.989-1.131l-1.039 0.21-0.656 0.126c-1.012 0.202-0.912 1.685 0.154 1.721 0.058 0 0.108-0.006 0.164-0.015l0.673-0.129 1.038-0.22z"/>
			<path class="st12" d="m89.647 137.22c0.935-0.258 0.812-1.634-0.179-1.705-0.097-0.003-0.182 0.003-0.276 0.029l-0.555 0.153-1.114 0.297c-0.307 0.085-0.54 0.312-0.621 0.623-0.165 0.637 0.427 1.232 1.061 1.057l1.128-0.301 0.556-0.16z"/>
			<path class="st12" d="m99.654 134.16c0.978-0.337 0.669-1.798-0.387-1.685-0.057 0.008-0.106 0.02-0.161 0.038l-0.626 0.21-1.016 0.333c-0.839 0.26-0.796 1.512 0.129 1.683 0.145 0.021 0.265 0.013 0.405-0.031l1.028-0.337 0.628-0.21z"/>
			<path class="st12" d="m109.48 130.59c0.911-0.358 0.639-1.713-0.354-1.678-0.092 0.006-0.178 0.022-0.265 0.056l-1.491 0.576-0.123 0.046c-0.968 0.38-0.595 1.813 0.438 1.671 0.061-0.01 0.111-0.024 0.17-0.044l0.134-0.051 1.49-0.59z"/>
			<path class="st12" d="m113.45 119.44l16.223 1.358-9.833 12.976c-4.83-10.85-1.44-3.24-6.39-14.34z"/>
</svg>
