<?xml version="1.0" encoding="utf-8"?>
<!-- Generator: Adobe Illustrator 17.0.0, SVG Export Plug-In . SVG Version: 6.00 Build 0)  -->
<!DOCTYPE svg PUBLIC "-//W3C//DTD SVG 1.1//EN" "http://www.w3.org/Graphics/SVG/1.1/DTD/svg11.dtd">
<svg version="1.1" id="Capa_1" xmlns="http://www.w3.org/2000/svg" xmlns:xlink="http://www.w3.org/1999/xlink" x="0px" y="0px"
	 width="235px" height="190px" viewBox="0 0 235 190" style="enable-background:new 0 0 235 190;" xml:space="preserve">
<style type="text/css">
	.st0{fill:#B1B1B1;}
	.st1{fill:#EAE3CA;}
	.st2{fill:#010002;}
	.st3{fill:#808C53;}
	.st4{fill:#B1AA95;}
	.st5{fill:#C9AA56;}
	.st6{fill:#7E6F6A;}
	.st7{fill:#536964;}
	.st8{fill:#69472D;}
	.st9{fill:#D7C7A2;}
	.st10{fill:#E2E2E2;}
	.st11{fill:#AE9892;}
	.st12{fill:#5B733A;}
</style>
<g>
	<rect x="78.46" y="152.375" class="st0" width="77.648" height="25.592"/>
	<rect x="68.504" y="171.944" class="st1" width="97.561" height="6.023"/>
	<path class="st1" d="M218.318,150.887c0,3.326-2.696,6.023-6.021,6.023H22.273c-3.327,0-6.023-2.697-6.023-6.023V15.596
		c0-3.324,2.696-6.021,6.023-6.021h190.025c3.325,0,6.021,2.697,6.021,6.021V150.887z"/>
	<path class="st2" d="M218.318,137.816V15.596c0-3.324-2.696-6.021-6.021-6.021H22.273c-3.327,0-6.023,2.697-6.023,6.021v122.22
		H218.318z"/>
	<rect x="24.843" y="18.167" class="st3" width="184.881" height="114.558"/>
	<rect x="24.843" y="18.167" class="st0" width="184.881" height="9.548"/>
	<rect x="48.495" y="20.731" class="st1" width="137.578" height="4.417"/>
	<circle class="st4" cx="28.944" cy="22.941" r="2.208"/>
	<circle class="st5" cx="35.25" cy="22.941" r="2.208"/>
	<circle class="st6" cx="41.556" cy="22.941" r="2.208"/>
	<rect x="188.305" y="20.731" class="st7" width="10.343" height="0.562"/>
	<rect x="188.305" y="22.017" class="st7" width="10.343" height="0.562"/>
	<rect x="188.305" y="23.302" class="st7" width="10.343" height="0.562"/>
	<rect x="188.305" y="24.587" class="st7" width="10.343" height="0.56"/>
	<rect x="201.001" y="20.731" class="st7" width="5.74" height="4.417"/>
	<rect x="44.024" y="27.714" class="st3" width="146.52" height="9.5"/>
	<rect x="44.024" y="37.215" class="st8" width="146.52" height="19.947"/>
	<rect x="44.024" y="57.162" class="st1" width="146.52" height="75.563"/>
	<rect x="47.267" y="39.552" class="st9" width="40.943" height="14.962"/>
	<rect x="97.597" y="49.347" class="st9" width="13.387" height="4.892"/>
	<rect x="115.3" y="49.347" class="st10" width="13.387" height="4.892"/>
	<rect x="133.002" y="49.347" class="st9" width="13.389" height="4.892"/>
	<rect x="150.705" y="49.347" class="st9" width="13.389" height="4.892"/>
	<rect x="168.41" y="49.347" class="st9" width="13.387" height="4.892"/>
	<g>
		<rect x="48.338" y="68.075" class="st11" width="40.942" height="17.591"/>
		<rect x="96.814" y="68.075" class="st10" width="89.416" height="17.591"/>
	</g>
	<g>
		<rect x="48.495" y="105.589" class="st9" width="137.735" height="17.59"/>
	</g>
	<g>
		<rect x="48.338" y="87.887" class="st12" width="40.942" height="0.838"/>
		<rect x="48.338" y="90.1" class="st12" width="40.942" height="0.837"/>
		<rect x="48.338" y="92.313" class="st12" width="40.942" height="0.837"/>
		<rect x="48.338" y="94.524" class="st12" width="40.942" height="0.837"/>
		<rect x="48.338" y="96.738" class="st12" width="40.942" height="0.837"/>
		<rect x="48.338" y="98.949" class="st12" width="40.942" height="0.839"/>
		<rect x="48.338" y="101.163" class="st12" width="40.942" height="0.837"/>
	</g>
	<g>
		<rect x="96.814" y="87.887" class="st12" width="89.416" height="0.838"/>
		<rect x="96.814" y="90.1" class="st12" width="89.416" height="0.837"/>
		<rect x="96.814" y="92.313" class="st12" width="89.416" height="0.837"/>
		<rect x="96.814" y="94.524" class="st12" width="89.416" height="0.837"/>
		<rect x="96.814" y="96.738" class="st12" width="89.416" height="0.837"/>
		<rect x="96.814" y="98.949" class="st12" width="89.416" height="0.839"/>
		<rect x="96.814" y="101.163" class="st12" width="89.416" height="0.837"/>
	</g>
	<g>
		<rect x="48.495" y="125.668" class="st12" width="137.735" height="0.838"/>
		<rect x="48.495" y="127.881" class="st12" width="137.735" height="0.837"/>
		<rect x="48.495" y="130.095" class="st12" width="137.735" height="0.837"/>
	</g>
	<circle class="st2" cx="117.284" cy="148.235" r="4.71"/>
</g>
</svg>
